<svg width="67" height="67" viewBox="0 0 67 67" fill="none" xmlns="http://www.w3.org/2000/svg">
<rect width="67" height="67" rx="33.5" fill="#FFD4D0"/>
<path d="M17.58 32.26C19.5533 32.26 21.0067 32.6533 21.94 33.44C22.8867 34.2267 23.36 35.28 23.36 36.6C23.36 37.4533 23.1467 38.2333 22.72 38.94C22.2933 39.6333 21.64 40.1933 20.76 40.62C19.8933 41.0333 18.82 41.24 17.54 41.24C16.5533 41.24 15.58 41.1133 14.62 40.86C13.6733 40.5933 12.8667 40.22 12.2 39.74L13.48 37.26C14.0133 37.66 14.6267 37.9733 15.32 38.2C16.0133 38.4133 16.7267 38.52 17.46 38.52C18.2733 38.52 18.9133 38.36 19.38 38.04C19.8467 37.72 20.08 37.2733 20.08 36.7C20.08 36.1 19.8333 35.6467 19.34 35.34C18.86 35.0333 18.02 34.88 16.82 34.88H13.24L13.96 27H22.5V29.6H16.66L16.44 32.26H17.58ZM29.5945 26.76C31.5545 26.76 33.0879 27.36 34.1945 28.56C35.3012 29.7467 35.8545 31.46 35.8545 33.7C35.8545 35.2867 35.5545 36.6467 34.9545 37.78C34.3679 38.9133 33.5345 39.7733 32.4545 40.36C31.3745 40.9467 30.1279 41.24 28.7145 41.24C27.9679 41.24 27.2545 41.16 26.5745 41C25.8945 40.8267 25.3145 40.5867 24.8345 40.28L26.0345 37.9C26.7145 38.3667 27.5879 38.6 28.6545 38.6C29.8412 38.6 30.7812 38.2533 31.4745 37.56C32.1679 36.8533 32.5412 35.84 32.5945 34.52C31.7545 35.36 30.5945 35.78 29.1145 35.78C28.2212 35.78 27.4079 35.6 26.6745 35.24C25.9412 34.88 25.3612 34.3733 24.9345 33.72C24.5079 33.0533 24.2945 32.2867 24.2945 31.42C24.2945 30.4867 24.5279 29.6667 24.9945 28.96C25.4612 28.2533 26.0945 27.7133 26.8945 27.34C27.7079 26.9533 28.6079 26.76 29.5945 26.76ZM29.8345 33.36C30.5412 33.36 31.1145 33.1667 31.5545 32.78C32.0079 32.38 32.2345 31.8733 32.2345 31.26C32.2345 30.6467 32.0145 30.1467 31.5745 29.76C31.1479 29.3733 30.5545 29.18 29.7945 29.18C29.1012 29.18 28.5345 29.3667 28.0945 29.74C27.6679 30.1133 27.4545 30.62 27.4545 31.26C27.4545 31.9 27.6679 32.4133 28.0945 32.8C28.5345 33.1733 29.1145 33.36 29.8345 33.36ZM40.6489 34.56C39.6222 34.56 38.7822 34.2133 38.1289 33.52C37.4889 32.8133 37.1689 31.8733 37.1689 30.7C37.1689 29.5267 37.4889 28.5933 38.1289 27.9C38.7822 27.1933 39.6222 26.84 40.6489 26.84C41.6756 26.84 42.5089 27.1933 43.1489 27.9C43.7889 28.5933 44.1089 29.5267 44.1089 30.7C44.1089 31.8733 43.7889 32.8133 43.1489 33.52C42.5089 34.2133 41.6756 34.56 40.6489 34.56ZM48.9889 27H51.3689L41.8089 41H39.4289L48.9889 27ZM40.6489 32.92C41.1022 32.92 41.4556 32.7333 41.7089 32.36C41.9756 31.9867 42.1089 31.4333 42.1089 30.7C42.1089 29.9667 41.9756 29.4133 41.7089 29.04C41.4556 28.6667 41.1022 28.48 40.6489 28.48C40.2089 28.48 39.8556 28.6733 39.5889 29.06C39.3222 29.4333 39.1889 29.98 39.1889 30.7C39.1889 31.42 39.3222 31.9733 39.5889 32.36C39.8556 32.7333 40.2089 32.92 40.6489 32.92ZM50.1489 41.16C49.4822 41.16 48.8822 41.0067 48.3489 40.7C47.8289 40.38 47.4222 39.9267 47.1289 39.34C46.8356 38.7533 46.6889 38.0733 46.6889 37.3C46.6889 36.5267 46.8356 35.8467 47.1289 35.26C47.4222 34.6733 47.8289 34.2267 48.3489 33.92C48.8822 33.6 49.4822 33.44 50.1489 33.44C51.1756 33.44 52.0089 33.7933 52.6489 34.5C53.3022 35.1933 53.6289 36.1267 53.6289 37.3C53.6289 38.4733 53.3022 39.4133 52.6489 40.12C52.0089 40.8133 51.1756 41.16 50.1489 41.16ZM50.1489 39.52C50.6022 39.52 50.9556 39.3333 51.2089 38.96C51.4756 38.5733 51.6089 38.02 51.6089 37.3C51.6089 36.58 51.4756 36.0333 51.2089 35.66C50.9556 35.2733 50.6022 35.08 50.1489 35.08C49.7089 35.08 49.3556 35.2667 49.0889 35.64C48.8222 36.0133 48.6889 36.5667 48.6889 37.3C48.6889 38.0333 48.8222 38.5867 49.0889 38.96C49.3556 39.3333 49.7089 39.52 50.1489 39.52Z" fill="#32397C"/>
</svg>
