<svg width="67" height="67" viewBox="0 0 67 67" fill="none" xmlns="http://www.w3.org/2000/svg">
<rect width="67" height="67" rx="33.5" fill="url(#paint0_linear)"/>
<path d="M14.1234 33.6094L15.1078 24.9375H24.6703V27.7617H17.8852L17.4633 31.4297C18.268 31 19.1234 30.7852 20.0297 30.7852C21.6547 30.7852 22.9281 31.2891 23.85 32.2969C24.7719 33.3047 25.2328 34.7148 25.2328 36.5273C25.2328 37.6289 24.9984 38.6172 24.5297 39.4922C24.0688 40.3594 23.4047 41.0352 22.5375 41.5195C21.6703 41.9961 20.6469 42.2344 19.4672 42.2344C18.4359 42.2344 17.4789 42.0273 16.5961 41.6133C15.7133 41.1914 15.0141 40.6016 14.4984 39.8438C13.9906 39.0859 13.7211 38.2227 13.6898 37.2539H17.0414C17.1117 37.9648 17.3578 38.5195 17.7797 38.918C18.2094 39.3086 18.768 39.5039 19.4555 39.5039C20.2211 39.5039 20.8109 39.2305 21.225 38.6836C21.6391 38.1289 21.8461 37.3477 21.8461 36.3398C21.8461 35.3711 21.6078 34.6289 21.1313 34.1133C20.6547 33.5977 19.9789 33.3398 19.1039 33.3398C18.2992 33.3398 17.6469 33.5508 17.1469 33.9727L16.8188 34.2773L14.1234 33.6094ZM34.7227 35.1797C33.8398 36.0469 32.8086 36.4805 31.6289 36.4805C30.1211 36.4805 28.9141 35.9648 28.0078 34.9336C27.1016 33.8945 26.6484 32.4961 26.6484 30.7383C26.6484 29.6211 26.8906 28.5977 27.375 27.668C27.8672 26.7305 28.5508 26.0039 29.4258 25.4883C30.3008 24.9648 31.2852 24.7031 32.3789 24.7031C33.5039 24.7031 34.5039 24.9844 35.3789 25.5469C36.2539 26.1094 36.9336 26.918 37.418 27.9727C37.9023 29.0273 38.1484 30.2344 38.1562 31.5938V32.8477C38.1562 35.6914 37.4492 37.9258 36.0352 39.5508C34.6211 41.1758 32.6172 42.043 30.0234 42.1523L29.1914 42.1641V39.3398L29.9414 39.3281C32.8867 39.1953 34.4805 37.8125 34.7227 35.1797ZM32.4609 33.8906C33.0078 33.8906 33.4766 33.75 33.8672 33.4688C34.2656 33.1875 34.5664 32.8477 34.7695 32.4492V31.0547C34.7695 29.9062 34.5508 29.0156 34.1133 28.3828C33.6758 27.75 33.0898 27.4336 32.3555 27.4336C31.6758 27.4336 31.1172 27.7461 30.6797 28.3711C30.2422 28.9883 30.0234 29.7656 30.0234 30.7031C30.0234 31.6328 30.2344 32.3984 30.6562 33C31.0859 33.5938 31.6875 33.8906 32.4609 33.8906ZM39.9352 28.2188C39.9352 27.1719 40.275 26.3242 40.9547 25.6758C41.6344 25.0195 42.525 24.6914 43.6266 24.6914C44.7437 24.6914 45.6422 25.0156 46.3219 25.6641C47.0016 26.3047 47.3414 27.1758 47.3414 28.2773V29.1211C47.3414 30.1758 47.0016 31.0234 46.3219 31.6641C45.6422 32.3047 44.7516 32.625 43.65 32.625C42.5406 32.625 41.6422 32.3047 40.9547 31.6641C40.275 31.0156 39.9352 30.1445 39.9352 29.0508V28.2188ZM42.1852 29.1211C42.1852 29.5898 42.318 29.9688 42.5836 30.2578C42.857 30.5391 43.2125 30.6797 43.65 30.6797C44.0875 30.6797 44.4352 30.5352 44.693 30.2461C44.9508 29.957 45.0797 29.5703 45.0797 29.0859V28.2188C45.0797 27.75 44.9508 27.3711 44.693 27.082C44.4352 26.793 44.0797 26.6484 43.6266 26.6484C43.1969 26.6484 42.8492 26.793 42.5836 27.082C42.318 27.3633 42.1852 27.7578 42.1852 28.2656V29.1211ZM48.0914 37.8164C48.0914 36.7617 48.4352 35.9141 49.1227 35.2734C49.8102 34.625 50.7008 34.3008 51.7945 34.3008C52.9039 34.3008 53.7984 34.6211 54.4781 35.2617C55.1656 35.8945 55.5094 36.7695 55.5094 37.8867V38.7305C55.5094 39.7773 55.1734 40.625 54.5016 41.2734C53.8297 41.9141 52.9352 42.2344 51.818 42.2344C50.693 42.2344 49.7906 41.9102 49.1109 41.2617C48.4312 40.6133 48.0914 39.7539 48.0914 38.6836V37.8164ZM50.3414 38.7305C50.3414 39.1602 50.482 39.5273 50.7633 39.832C51.0445 40.1367 51.3961 40.2891 51.818 40.2891C52.7711 40.2891 53.2477 39.7617 53.2477 38.707V37.8164C53.2477 37.3477 53.1148 36.9727 52.8492 36.6914C52.5836 36.4023 52.232 36.2578 51.7945 36.2578C51.357 36.2578 51.0055 36.4023 50.7398 36.6914C50.4742 36.9727 50.3414 37.3594 50.3414 37.8516V38.7305ZM44.318 40.7227L42.6656 39.832L50.9977 26.4961L52.65 27.3867L44.318 40.7227Z" fill="white"/>
<defs>
<linearGradient id="paint0_linear" x1="33.5" y1="-33.5" x2="-33.5" y2="33.5" gradientUnits="userSpaceOnUse">
<stop stop-color="#FB3331"/>
<stop offset="1" stop-color="#F42B29"/>
</linearGradient>
</defs>
</svg>
