<svg width="67" height="67" viewBox="0 0 67 67" fill="none" xmlns="http://www.w3.org/2000/svg">
<rect width="67" height="67" rx="33.5" fill="#FFD4D0"/>
<path d="M19.52 32.22C20.4133 32.22 21.2267 32.4 21.96 32.76C22.6933 33.12 23.2733 33.6333 23.7 34.3C24.1267 34.9533 24.34 35.7133 24.34 36.58C24.34 37.5133 24.1067 38.3333 23.64 39.04C23.1733 39.7467 22.5333 40.2933 21.72 40.68C20.92 41.0533 20.0267 41.24 19.04 41.24C17.08 41.24 15.5467 40.64 14.44 39.44C13.3333 38.24 12.78 36.5267 12.78 34.3C12.78 32.7133 13.08 31.3533 13.68 30.22C14.28 29.0867 15.1133 28.2267 16.18 27.64C17.26 27.0533 18.5067 26.76 19.92 26.76C20.6667 26.76 21.38 26.8467 22.06 27.02C22.7533 27.18 23.34 27.4133 23.82 27.72L22.62 30.1C21.9267 29.6333 21.0533 29.4 20 29.4C18.8133 29.4 17.8733 29.7467 17.18 30.44C16.4867 31.1333 16.1133 32.14 16.06 33.46C16.8867 32.6333 18.04 32.22 19.52 32.22ZM18.86 38.82C19.5533 38.82 20.1133 38.6333 20.54 38.26C20.98 37.8867 21.2 37.38 21.2 36.74C21.2 36.1 20.98 35.5933 20.54 35.22C20.1133 34.8333 19.54 34.64 18.82 34.64C18.1133 34.64 17.5333 34.84 17.08 35.24C16.6267 35.6267 16.4 36.1267 16.4 36.74C16.4 37.3533 16.62 37.8533 17.06 38.24C17.5 38.6267 18.1 38.82 18.86 38.82ZM38.3344 38.06H36.0544V41H32.8944V38.06H25.3544V35.88L31.9544 27H35.3544L29.2344 35.42H32.9944V32.8H36.0544V35.42H38.3344V38.06ZM41.938 34.56C40.9113 34.56 40.0713 34.2133 39.418 33.52C38.778 32.8133 38.458 31.8733 38.458 30.7C38.458 29.5267 38.778 28.5933 39.418 27.9C40.0713 27.1933 40.9113 26.84 41.938 26.84C42.9646 26.84 43.798 27.1933 44.438 27.9C45.078 28.5933 45.398 29.5267 45.398 30.7C45.398 31.8733 45.078 32.8133 44.438 33.52C43.798 34.2133 42.9646 34.56 41.938 34.56ZM50.278 27H52.658L43.098 41H40.718L50.278 27ZM41.938 32.92C42.3913 32.92 42.7446 32.7333 42.998 32.36C43.2646 31.9867 43.398 31.4333 43.398 30.7C43.398 29.9667 43.2646 29.4133 42.998 29.04C42.7446 28.6667 42.3913 28.48 41.938 28.48C41.498 28.48 41.1446 28.6733 40.878 29.06C40.6113 29.4333 40.478 29.98 40.478 30.7C40.478 31.42 40.6113 31.9733 40.878 32.36C41.1446 32.7333 41.498 32.92 41.938 32.92ZM51.438 41.16C50.7713 41.16 50.1713 41.0067 49.638 40.7C49.118 40.38 48.7113 39.9267 48.418 39.34C48.1246 38.7533 47.978 38.0733 47.978 37.3C47.978 36.5267 48.1246 35.8467 48.418 35.26C48.7113 34.6733 49.118 34.2267 49.638 33.92C50.1713 33.6 50.7713 33.44 51.438 33.44C52.4646 33.44 53.298 33.7933 53.938 34.5C54.5913 35.1933 54.918 36.1267 54.918 37.3C54.918 38.4733 54.5913 39.4133 53.938 40.12C53.298 40.8133 52.4646 41.16 51.438 41.16ZM51.438 39.52C51.8913 39.52 52.2446 39.3333 52.498 38.96C52.7646 38.5733 52.898 38.02 52.898 37.3C52.898 36.58 52.7646 36.0333 52.498 35.66C52.2446 35.2733 51.8913 35.08 51.438 35.08C50.998 35.08 50.6446 35.2667 50.378 35.64C50.1113 36.0133 49.978 36.5667 49.978 37.3C49.978 38.0333 50.1113 38.5867 50.378 38.96C50.6446 39.3333 50.998 39.52 51.438 39.52Z" fill="#32397C"/>
</svg>
