<svg width="67" height="67" viewBox="0 0 67 67" fill="none" xmlns="http://www.w3.org/2000/svg">
<rect width="67" height="67" rx="33.5" fill="url(#paint0_linear)"/>
<path d="M22.807 24.7617V27.5508H22.4789C20.9477 27.5742 19.7133 27.9727 18.7758 28.7461C17.8461 29.5195 17.2875 30.5938 17.1 31.9688C18.0063 31.0469 19.1508 30.5859 20.5336 30.5859C22.018 30.5859 23.1977 31.1172 24.0727 32.1797C24.9477 33.2422 25.3852 34.6406 25.3852 36.375C25.3852 37.4844 25.143 38.4883 24.6586 39.3867C24.182 40.2852 23.5023 40.9844 22.6195 41.4844C21.7445 41.9844 20.7523 42.2344 19.643 42.2344C17.8461 42.2344 16.393 41.6094 15.2836 40.3594C14.182 39.1094 13.6313 37.4414 13.6313 35.3555V34.1367C13.6313 32.2852 13.9789 30.6523 14.6742 29.2383C15.3773 27.8164 16.3813 26.7188 17.6859 25.9453C18.9984 25.1641 20.518 24.7695 22.2445 24.7617H22.807ZM19.5023 33.3047C18.9555 33.3047 18.4594 33.4492 18.0141 33.7383C17.5688 34.0195 17.2406 34.3945 17.0297 34.8633V35.8945C17.0297 37.0273 17.2523 37.9141 17.6977 38.5547C18.143 39.1875 18.768 39.5039 19.5727 39.5039C20.2992 39.5039 20.8852 39.2188 21.3305 38.6484C21.7836 38.0703 22.0102 37.3242 22.0102 36.4102C22.0102 35.4805 21.7836 34.7305 21.3305 34.1602C20.8773 33.5898 20.268 33.3047 19.5023 33.3047ZM36.8203 35.5781H38.7539V38.3086H36.8203V42H33.4336V38.3086H26.4375L26.2852 36.1758L33.3984 24.9375H36.8203V35.5781ZM29.6602 35.5781H33.4336V29.5547L33.2109 29.9414L29.6602 35.5781ZM39.9352 28.2188C39.9352 27.1719 40.275 26.3242 40.9547 25.6758C41.6344 25.0195 42.525 24.6914 43.6266 24.6914C44.7437 24.6914 45.6422 25.0156 46.3219 25.6641C47.0016 26.3047 47.3414 27.1758 47.3414 28.2773V29.1211C47.3414 30.1758 47.0016 31.0234 46.3219 31.6641C45.6422 32.3047 44.7516 32.625 43.65 32.625C42.5406 32.625 41.6422 32.3047 40.9547 31.6641C40.275 31.0156 39.9352 30.1445 39.9352 29.0508V28.2188ZM42.1852 29.1211C42.1852 29.5898 42.318 29.9688 42.5836 30.2578C42.857 30.5391 43.2125 30.6797 43.65 30.6797C44.0875 30.6797 44.4352 30.5352 44.693 30.2461C44.9508 29.957 45.0797 29.5703 45.0797 29.0859V28.2188C45.0797 27.75 44.9508 27.3711 44.693 27.082C44.4352 26.793 44.0797 26.6484 43.6266 26.6484C43.1969 26.6484 42.8492 26.793 42.5836 27.082C42.318 27.3633 42.1852 27.7578 42.1852 28.2656V29.1211ZM48.0914 37.8164C48.0914 36.7617 48.4352 35.9141 49.1227 35.2734C49.8102 34.625 50.7008 34.3008 51.7945 34.3008C52.9039 34.3008 53.7984 34.6211 54.4781 35.2617C55.1656 35.8945 55.5094 36.7695 55.5094 37.8867V38.7305C55.5094 39.7773 55.1734 40.625 54.5016 41.2734C53.8297 41.9141 52.9352 42.2344 51.818 42.2344C50.693 42.2344 49.7906 41.9102 49.1109 41.2617C48.4312 40.6133 48.0914 39.7539 48.0914 38.6836V37.8164ZM50.3414 38.7305C50.3414 39.1602 50.482 39.5273 50.7633 39.832C51.0445 40.1367 51.3961 40.2891 51.818 40.2891C52.7711 40.2891 53.2477 39.7617 53.2477 38.707V37.8164C53.2477 37.3477 53.1148 36.9727 52.8492 36.6914C52.5836 36.4023 52.232 36.2578 51.7945 36.2578C51.357 36.2578 51.0055 36.4023 50.7398 36.6914C50.4742 36.9727 50.3414 37.3594 50.3414 37.8516V38.7305ZM44.318 40.7227L42.6656 39.832L50.9977 26.4961L52.65 27.3867L44.318 40.7227Z" fill="white"/>
<defs>
<linearGradient id="paint0_linear" x1="33.5" y1="-33.5" x2="-33.5" y2="33.5" gradientUnits="userSpaceOnUse">
<stop stop-color="#FB3331"/>
<stop offset="1" stop-color="#F42B29"/>
</linearGradient>
</defs>
</svg>
