<svg width="67" height="67" viewBox="0 0 67 67" fill="none" xmlns="http://www.w3.org/2000/svg">
<rect width="67" height="67" rx="33.5" fill="url(#paint0_linear)"/>
<path d="M24.7406 29.4727C24.7406 30.3008 24.5336 31.0352 24.1195 31.6758C23.7055 32.3164 23.1352 32.8281 22.4086 33.2109C23.2367 33.6094 23.893 34.1602 24.3773 34.8633C24.8617 35.5586 25.1039 36.3789 25.1039 37.3242C25.1039 38.8398 24.5883 40.0391 23.557 40.9219C22.5258 41.7969 21.1234 42.2344 19.35 42.2344C17.5766 42.2344 16.1703 41.793 15.1313 40.9102C14.0922 40.0273 13.5727 38.832 13.5727 37.3242C13.5727 36.3789 13.8148 35.5547 14.2992 34.8516C14.7836 34.1484 15.4359 33.6016 16.2563 33.2109C15.5297 32.8281 14.9594 32.3164 14.5453 31.6758C14.1391 31.0352 13.9359 30.3008 13.9359 29.4727C13.9359 28.0195 14.4203 26.8633 15.3891 26.0039C16.3578 25.1367 17.6742 24.7031 19.3383 24.7031C20.9945 24.7031 22.307 25.1328 23.2758 25.9922C24.2523 26.8438 24.7406 28.0039 24.7406 29.4727ZM21.7055 37.0781C21.7055 36.3359 21.4906 35.7422 21.0609 35.2969C20.6313 34.8516 20.0531 34.6289 19.3266 34.6289C18.6078 34.6289 18.0336 34.8516 17.6039 35.2969C17.1742 35.7344 16.9594 36.3281 16.9594 37.0781C16.9594 37.8047 17.1703 38.3906 17.5922 38.8359C18.0141 39.2812 18.6 39.5039 19.35 39.5039C20.0844 39.5039 20.6586 39.2891 21.0727 38.8594C21.4945 38.4297 21.7055 37.8359 21.7055 37.0781ZM21.3539 29.6367C21.3539 28.9727 21.1781 28.4414 20.8266 28.043C20.475 27.6367 19.9789 27.4336 19.3383 27.4336C18.7055 27.4336 18.2133 27.6289 17.8617 28.0195C17.5102 28.4102 17.3344 28.9492 17.3344 29.6367C17.3344 30.3164 17.5102 30.8633 17.8617 31.2773C18.2133 31.6914 18.7094 31.8984 19.35 31.8984C19.9906 31.8984 20.4828 31.6914 20.8266 31.2773C21.1781 30.8633 21.3539 30.3164 21.3539 29.6367ZM34.7227 35.1797C33.8398 36.0469 32.8086 36.4805 31.6289 36.4805C30.1211 36.4805 28.9141 35.9648 28.0078 34.9336C27.1016 33.8945 26.6484 32.4961 26.6484 30.7383C26.6484 29.6211 26.8906 28.5977 27.375 27.668C27.8672 26.7305 28.5508 26.0039 29.4258 25.4883C30.3008 24.9648 31.2852 24.7031 32.3789 24.7031C33.5039 24.7031 34.5039 24.9844 35.3789 25.5469C36.2539 26.1094 36.9336 26.918 37.418 27.9727C37.9023 29.0273 38.1484 30.2344 38.1562 31.5938V32.8477C38.1562 35.6914 37.4492 37.9258 36.0352 39.5508C34.6211 41.1758 32.6172 42.043 30.0234 42.1523L29.1914 42.1641V39.3398L29.9414 39.3281C32.8867 39.1953 34.4805 37.8125 34.7227 35.1797ZM32.4609 33.8906C33.0078 33.8906 33.4766 33.75 33.8672 33.4688C34.2656 33.1875 34.5664 32.8477 34.7695 32.4492V31.0547C34.7695 29.9062 34.5508 29.0156 34.1133 28.3828C33.6758 27.75 33.0898 27.4336 32.3555 27.4336C31.6758 27.4336 31.1172 27.7461 30.6797 28.3711C30.2422 28.9883 30.0234 29.7656 30.0234 30.7031C30.0234 31.6328 30.2344 32.3984 30.6562 33C31.0859 33.5938 31.6875 33.8906 32.4609 33.8906ZM39.9352 28.2188C39.9352 27.1719 40.275 26.3242 40.9547 25.6758C41.6344 25.0195 42.525 24.6914 43.6266 24.6914C44.7437 24.6914 45.6422 25.0156 46.3219 25.6641C47.0016 26.3047 47.3414 27.1758 47.3414 28.2773V29.1211C47.3414 30.1758 47.0016 31.0234 46.3219 31.6641C45.6422 32.3047 44.7516 32.625 43.65 32.625C42.5406 32.625 41.6422 32.3047 40.9547 31.6641C40.275 31.0156 39.9352 30.1445 39.9352 29.0508V28.2188ZM42.1852 29.1211C42.1852 29.5898 42.318 29.9688 42.5836 30.2578C42.857 30.5391 43.2125 30.6797 43.65 30.6797C44.0875 30.6797 44.4352 30.5352 44.693 30.2461C44.9508 29.957 45.0797 29.5703 45.0797 29.0859V28.2188C45.0797 27.75 44.9508 27.3711 44.693 27.082C44.4352 26.793 44.0797 26.6484 43.6266 26.6484C43.1969 26.6484 42.8492 26.793 42.5836 27.082C42.318 27.3633 42.1852 27.7578 42.1852 28.2656V29.1211ZM48.0914 37.8164C48.0914 36.7617 48.4352 35.9141 49.1227 35.2734C49.8102 34.625 50.7008 34.3008 51.7945 34.3008C52.9039 34.3008 53.7984 34.6211 54.4781 35.2617C55.1656 35.8945 55.5094 36.7695 55.5094 37.8867V38.7305C55.5094 39.7773 55.1734 40.625 54.5016 41.2734C53.8297 41.9141 52.9352 42.2344 51.818 42.2344C50.693 42.2344 49.7906 41.9102 49.1109 41.2617C48.4312 40.6133 48.0914 39.7539 48.0914 38.6836V37.8164ZM50.3414 38.7305C50.3414 39.1602 50.482 39.5273 50.7633 39.832C51.0445 40.1367 51.3961 40.2891 51.818 40.2891C52.7711 40.2891 53.2477 39.7617 53.2477 38.707V37.8164C53.2477 37.3477 53.1148 36.9727 52.8492 36.6914C52.5836 36.4023 52.232 36.2578 51.7945 36.2578C51.357 36.2578 51.0055 36.4023 50.7398 36.6914C50.4742 36.9727 50.3414 37.3594 50.3414 37.8516V38.7305ZM44.318 40.7227L42.6656 39.832L50.9977 26.4961L52.65 27.3867L44.318 40.7227Z" fill="white"/>
<defs>
<linearGradient id="paint0_linear" x1="33.5" y1="-33.5" x2="-33.5" y2="33.5" gradientUnits="userSpaceOnUse">
<stop stop-color="#FB3331"/>
<stop offset="1" stop-color="#F42B29"/>
</linearGradient>
</defs>
</svg>
