<svg width="67" height="67" viewBox="0 0 67 67" fill="none" xmlns="http://www.w3.org/2000/svg">
<rect width="67" height="67" rx="33.5" fill="#FFD4D0"/>
<path d="M22.36 33.64C23.0533 33.9867 23.58 34.44 23.94 35C24.3133 35.56 24.5 36.2067 24.5 36.94C24.5 37.8067 24.2533 38.5667 23.76 39.22C23.2667 39.86 22.5733 40.36 21.68 40.72C20.7867 41.0667 19.7533 41.24 18.58 41.24C17.4067 41.24 16.3733 41.0667 15.48 40.72C14.6 40.36 13.9133 39.86 13.42 39.22C12.94 38.5667 12.7 37.8067 12.7 36.94C12.7 36.2067 12.88 35.56 13.24 35C13.6133 34.44 14.14 33.9867 14.82 33.64C14.3 33.32 13.9 32.92 13.62 32.44C13.34 31.9467 13.2 31.3867 13.2 30.76C13.2 29.9467 13.4267 29.24 13.88 28.64C14.3333 28.04 14.9667 27.58 15.78 27.26C16.5933 26.9267 17.5267 26.76 18.58 26.76C19.6467 26.76 20.5867 26.9267 21.4 27.26C22.2267 27.58 22.8667 28.04 23.32 28.64C23.7733 29.24 24 29.9467 24 30.76C24 31.3867 23.86 31.9467 23.58 32.44C23.3 32.92 22.8933 33.32 22.36 33.64ZM18.58 29.14C17.9267 29.14 17.4 29.3 17 29.62C16.6133 29.9267 16.42 30.3533 16.42 30.9C16.42 31.4333 16.6133 31.8533 17 32.16C17.3867 32.4667 17.9133 32.62 18.58 32.62C19.2467 32.62 19.78 32.4667 20.18 32.16C20.58 31.8533 20.78 31.4333 20.78 30.9C20.78 30.3533 20.58 29.9267 20.18 29.62C19.78 29.3 19.2467 29.14 18.58 29.14ZM18.58 38.86C19.3933 38.86 20.0333 38.68 20.5 38.32C20.98 37.9467 21.22 37.4533 21.22 36.84C21.22 36.2267 20.98 35.74 20.5 35.38C20.0333 35.02 19.3933 34.84 18.58 34.84C17.78 34.84 17.1467 35.02 16.68 35.38C16.2133 35.74 15.98 36.2267 15.98 36.84C15.98 37.4667 16.2133 37.96 16.68 38.32C17.1467 38.68 17.78 38.86 18.58 38.86ZM30.9031 26.76C32.8631 26.76 34.3965 27.36 35.5031 28.56C36.6098 29.7467 37.1631 31.46 37.1631 33.7C37.1631 35.2867 36.8631 36.6467 36.2631 37.78C35.6765 38.9133 34.8431 39.7733 33.7631 40.36C32.6831 40.9467 31.4365 41.24 30.0231 41.24C29.2765 41.24 28.5631 41.16 27.8831 41C27.2031 40.8267 26.6231 40.5867 26.1431 40.28L27.3431 37.9C28.0231 38.3667 28.8965 38.6 29.9631 38.6C31.1498 38.6 32.0898 38.2533 32.7831 37.56C33.4765 36.8533 33.8498 35.84 33.9031 34.52C33.0631 35.36 31.9031 35.78 30.4231 35.78C29.5298 35.78 28.7165 35.6 27.9831 35.24C27.2498 34.88 26.6698 34.3733 26.2431 33.72C25.8165 33.0533 25.6031 32.2867 25.6031 31.42C25.6031 30.4867 25.8365 29.6667 26.3031 28.96C26.7698 28.2533 27.4031 27.7133 28.2031 27.34C29.0165 26.9533 29.9165 26.76 30.9031 26.76ZM31.1431 33.36C31.8498 33.36 32.4231 33.1667 32.8631 32.78C33.3165 32.38 33.5431 31.8733 33.5431 31.26C33.5431 30.6467 33.3231 30.1467 32.8831 29.76C32.4565 29.3733 31.8631 29.18 31.1031 29.18C30.4098 29.18 29.8431 29.3667 29.4031 29.74C28.9765 30.1133 28.7631 30.62 28.7631 31.26C28.7631 31.9 28.9765 32.4133 29.4031 32.8C29.8431 33.1733 30.4231 33.36 31.1431 33.36ZM41.1535 35.848C40.3322 35.848 39.6602 35.5707 39.1375 35.016C38.6255 34.4507 38.3695 33.6987 38.3695 32.76C38.3695 31.8213 38.6255 31.0747 39.1375 30.52C39.6602 29.9547 40.3322 29.672 41.1535 29.672C41.9748 29.672 42.6415 29.9547 43.1535 30.52C43.6655 31.0747 43.9215 31.8213 43.9215 32.76C43.9215 33.6987 43.6655 34.4507 43.1535 35.016C42.6415 35.5707 41.9748 35.848 41.1535 35.848ZM47.8255 29.8H49.7295L42.0815 41H40.1775L47.8255 29.8ZM41.1535 34.536C41.5162 34.536 41.7988 34.3867 42.0015 34.088C42.2148 33.7893 42.3215 33.3467 42.3215 32.76C42.3215 32.1733 42.2148 31.7307 42.0015 31.432C41.7988 31.1333 41.5162 30.984 41.1535 30.984C40.8015 30.984 40.5188 31.1387 40.3055 31.448C40.0922 31.7467 39.9855 32.184 39.9855 32.76C39.9855 33.336 40.0922 33.7787 40.3055 34.088C40.5188 34.3867 40.8015 34.536 41.1535 34.536ZM48.7535 41.128C48.2202 41.128 47.7402 41.0053 47.3135 40.76C46.8975 40.504 46.5722 40.1413 46.3375 39.672C46.1028 39.2027 45.9855 38.6587 45.9855 38.04C45.9855 37.4213 46.1028 36.8773 46.3375 36.408C46.5722 35.9387 46.8975 35.5813 47.3135 35.336C47.7402 35.08 48.2202 34.952 48.7535 34.952C49.5748 34.952 50.2415 35.2347 50.7535 35.8C51.2762 36.3547 51.5375 37.1013 51.5375 38.04C51.5375 38.9787 51.2762 39.7307 50.7535 40.296C50.2415 40.8507 49.5748 41.128 48.7535 41.128ZM48.7535 39.816C49.1162 39.816 49.3988 39.6667 49.6015 39.368C49.8148 39.0587 49.9215 38.616 49.9215 38.04C49.9215 37.464 49.8148 37.0267 49.6015 36.728C49.3988 36.4187 49.1162 36.264 48.7535 36.264C48.4015 36.264 48.1188 36.4133 47.9055 36.712C47.6922 37.0107 47.5855 37.4533 47.5855 38.04C47.5855 38.6267 47.6922 39.0693 47.9055 39.368C48.1188 39.6667 48.4015 39.816 48.7535 39.816Z" fill="#32397C"/>
</svg>
