<svg width="52" height="52" viewBox="0 0 52 52" fill="none" xmlns="http://www.w3.org/2000/svg">
<circle cx="26" cy="26" r="26" fill="white"/>
<path fill-rule="evenodd" clip-rule="evenodd" d="M28.1838 23.5758C27.9089 23.5414 27.6341 23.4384 27.3593 23.2666C26.844 24.1598 25.8822 24.6751 24.8859 24.6751C24.6798 24.6751 24.4738 24.6407 24.2677 24.6064C24.1646 24.6064 23.9241 24.5377 23.821 24.5033C22.8591 24.2628 22.1034 23.6101 21.7599 22.717C21.5194 22.7513 21.2446 22.717 20.9698 22.6483C19.9392 22.4422 19.1147 21.6864 18.8056 20.6902C18.6589 20.6902 18.5372 20.6651 18.3979 20.6364C18.374 20.6315 18.3497 20.6265 18.3246 20.6215C16.7788 20.2436 15.7826 18.6978 16.1261 17.1519C16.4696 15.5717 18.0498 14.5755 19.5957 14.919C19.63 14.9533 19.6644 14.9533 19.6987 14.9533C19.9048 14.3694 20.3171 13.8197 20.8667 13.4762C21.5194 13.064 22.3095 12.9266 23.0653 13.0983C23.3401 13.1327 23.6149 13.2357 23.8897 13.4075C24.5081 12.3769 25.7447 11.7929 26.9814 12.0678C27.0845 12.0678 27.3249 12.1365 27.428 12.1708C28.3899 12.4113 29.1456 13.064 29.4891 13.9571C29.7296 13.9228 30.0044 13.9571 30.2793 14.0258C31.3098 14.232 32.1343 14.9877 32.4434 15.9839C32.5809 15.9839 32.7526 15.9839 32.9244 16.0526C34.4702 16.3962 35.4665 17.9764 35.1229 19.5222C34.7794 21.1024 33.1992 22.0986 31.6533 21.7551C31.619 21.7208 31.5846 21.7208 31.5503 21.7208C31.3442 22.3048 30.9319 22.8544 30.3823 23.1979C29.7296 23.6101 28.9395 23.7476 28.1838 23.5758ZM24.3363 23.9537H24.405C25.4699 24.1941 26.5005 23.6445 26.9471 22.6826L27.1188 22.2704L27.4624 22.5452C27.7715 22.7513 28.0463 22.8887 28.3555 22.9575C28.9395 23.0949 29.5235 22.9575 30.0388 22.6483C30.5197 22.3048 30.8632 21.8238 31.0007 21.2742V20.7246L31.4816 20.965C31.5846 20.9993 31.6878 21.0337 31.8251 21.0681C33.0274 21.3429 34.1954 20.5871 34.4702 19.3848C34.7451 18.1825 33.9893 17.0145 32.787 16.7397C32.5809 16.671 32.3747 16.671 32.203 16.671H31.9282L31.8595 16.3962C31.6877 15.5373 31.035 14.8846 30.1762 14.7129C29.8327 14.6442 29.5579 14.6442 29.3517 14.6785L29.0426 14.7472L28.9739 14.4381C28.7677 13.648 28.1494 13.0296 27.3249 12.8579L27.2562 12.8235C27.2219 12.7892 27.0501 12.7548 26.9814 12.7548H26.9127C25.8478 12.5143 24.7829 13.064 24.3706 14.0602L24.1989 14.4724L23.8554 14.1976C23.5462 13.9915 23.2714 13.8541 22.9622 13.7854C22.3782 13.648 21.7942 13.7854 21.2789 14.0945C20.798 14.4381 20.4545 14.919 20.3171 15.4686V16.0183L19.8361 15.7778C19.7331 15.7435 19.6299 15.7091 19.4926 15.6747C18.2903 15.3999 17.1223 16.1557 16.8475 17.358C16.5727 18.5603 17.3284 19.7283 18.5307 20.0031H18.5651C18.7369 20.0375 18.943 20.0375 19.1147 20.0375H19.3896L19.4583 20.3123C19.63 21.1711 20.2827 21.8238 21.1415 21.9956C21.485 22.0643 21.7599 22.0643 21.966 22.0299L22.2751 21.9612L22.3439 22.2704C22.55 23.0605 23.1683 23.6789 23.9928 23.8506L24.0615 23.885C24.0958 23.9193 24.2676 23.9537 24.3363 23.9537ZM18.6338 27.4576C16.9162 27.4576 15.5421 28.8317 15.5421 30.5493C15.5421 32.2669 16.9162 33.641 18.6338 33.641C20.3514 33.641 21.7255 32.2669 21.7255 30.5493C21.7255 28.8317 20.3514 27.4576 18.6338 27.4576ZM23.1339 35.5648L23.1291 35.5605C22.6137 35.1139 21.8246 34.43 20.5575 34.0533C18.5307 33.4693 16.8475 34.1563 16.2978 34.3968H16.2635C15.6108 34.6373 14.5459 35.0838 13.7214 36.1831C13.4809 36.561 13.2405 37.0076 13.2061 37.0763C13.1867 37.1345 13.1673 37.1902 13.1486 37.244C13.0679 37.476 13 37.6712 13 37.8664C13 38.0725 13 38.2786 13.0687 38.4504V38.4847C13.1031 38.5878 13.1374 38.6908 13.2405 38.7595C13.2748 38.7767 13.3092 38.8025 13.3435 38.8282C13.3779 38.854 13.4122 38.8798 13.4466 38.8969L13.5496 38.9657C13.5496 39 13.584 39 16.2953 39H16.2978H23.6492H23.6836C23.8553 38.9656 24.1302 38.8626 24.3019 38.6565C24.5767 38.3817 24.5767 38.0038 24.5767 37.8664C24.5767 37.0076 23.6492 36.0457 23.1339 35.5648ZM35.4665 30.5493C35.4665 32.2669 34.0924 33.641 32.3747 33.641C30.6571 33.641 29.283 32.2669 29.283 30.5493C29.283 28.8317 30.6571 27.4576 32.3747 27.4576C34.0924 27.4576 35.4665 28.8317 35.4665 30.5493ZM36.8749 35.5648L36.87 35.5606C36.3546 35.1139 35.5655 34.43 34.2985 34.0533C32.2717 33.4693 30.5884 34.1563 30.0388 34.3968H30.0044C29.3517 34.6373 28.2868 35.0838 27.4623 36.1831C27.1875 36.5953 26.9471 37.0763 26.9471 37.0763C26.9277 37.1345 26.9083 37.1903 26.8895 37.2441C26.8088 37.476 26.7409 37.6712 26.7409 37.8664C26.7409 38.0725 26.7409 38.2786 26.8096 38.4504V38.4847C26.844 38.5878 26.8784 38.6908 26.9814 38.7595C27.0158 38.7767 27.0501 38.8025 27.0845 38.8282C27.1188 38.854 27.1532 38.8798 27.1875 38.8969L27.2906 38.9657C27.3249 39 27.3249 39 30.0363 39H30.0388H37.3902H37.4245C37.5963 38.9656 37.8711 38.8626 38.0429 38.6565C38.3177 38.3817 38.3177 38.0038 38.3177 37.8664C38.3177 37.0076 37.3902 36.0457 36.8749 35.5648ZM24.1645 25.7056C24.1645 25.0186 23.6149 24.469 22.9279 24.469C22.2408 24.469 21.6912 25.0186 21.6912 25.7056C21.6912 26.3927 22.2408 26.9423 22.9279 26.9423C23.6493 26.9423 24.1645 26.427 24.1645 25.7056ZM22.3782 25.7056C22.3782 25.3965 22.6187 25.156 22.9279 25.156C23.237 25.156 23.4775 25.3965 23.4775 25.7056C23.4775 26.0148 23.237 26.2553 22.9279 26.2553C22.653 26.2553 22.3782 26.0148 22.3782 25.7056ZM21.6225 28.3164C21.2102 28.3164 20.8324 27.9385 20.8324 27.5263C20.8324 27.1141 21.2102 26.7362 21.6225 26.7362C22.0347 26.7362 22.4126 27.1141 22.4126 27.5263C22.4126 27.9385 22.0347 28.3164 21.6225 28.3164ZM21.6225 27.6294C21.6568 27.6294 21.7255 27.5607 21.7255 27.5263C21.7255 27.492 21.6912 27.4233 21.6225 27.4233C21.5881 27.4233 21.5194 27.492 21.5194 27.5263C21.5194 27.5607 21.5881 27.6294 21.6225 27.6294ZM29.5578 25.7743C29.5922 25.1216 29.0769 24.5377 28.4242 24.469C27.7372 24.4346 27.1875 24.9499 27.1188 25.6026C27.0845 25.9118 27.1532 26.2209 27.3593 26.4614C27.5654 26.7362 27.9089 26.908 28.2524 26.908H28.3212C29.0082 26.908 29.5235 26.427 29.5578 25.7743ZM28.3212 26.2209C28.1494 26.2209 28.012 26.1522 27.9089 26.0148C27.8402 25.9461 27.8059 25.8431 27.8059 25.6713C27.8402 25.3965 28.0463 25.156 28.3212 25.156H28.3555C28.6647 25.1904 28.8708 25.4308 28.8708 25.7056C28.8708 26.0148 28.596 26.2553 28.3212 26.2209ZM29.5235 28.3508H29.4548C29.0769 28.2821 28.7334 27.9385 28.7678 27.5607C28.7678 27.1484 29.1113 26.8049 29.5579 26.8049C29.9701 26.8049 30.3136 27.1484 30.3136 27.595C30.3136 28.0073 29.9701 28.3508 29.5235 28.3508ZM29.5922 27.595C29.5922 27.5607 29.5579 27.492 29.5235 27.492C29.4892 27.492 29.4205 27.5263 29.4205 27.5607C29.4205 27.5836 29.451 27.6065 29.4815 27.6294C29.4968 27.6408 29.5121 27.6523 29.5235 27.6637C29.5579 27.6637 29.5922 27.6294 29.5922 27.595Z" fill="#32397C"/>
</svg>
