<svg width="26" height="27" viewBox="0 0 26 27" fill="none" xmlns="http://www.w3.org/2000/svg">
<path fill-rule="evenodd" clip-rule="evenodd" d="M15.1838 11.5758C14.9089 11.5414 14.6341 11.4384 14.3593 11.2666C13.844 12.1598 12.8822 12.6751 11.8859 12.6751C11.6798 12.6751 11.4738 12.6407 11.2677 12.6064C11.1646 12.6064 10.9241 12.5377 10.821 12.5033C9.85914 12.2628 9.10339 11.6101 8.75986 10.717C8.5194 10.7513 8.24458 10.717 7.96976 10.6483C6.93919 10.4422 6.11474 9.68641 5.80556 8.6902C5.65887 8.6902 5.53723 8.66514 5.39785 8.63642C5.37404 8.63152 5.34969 8.6265 5.32463 8.62149C3.77877 8.24361 2.78256 6.69776 3.12608 5.15191C3.4696 3.5717 5.04981 2.57548 6.59566 2.919C6.63001 2.95335 6.66435 2.95335 6.6987 2.95335C6.90481 2.36936 7.31707 1.81972 7.86671 1.4762C8.5194 1.06397 9.3095 0.92656 10.0653 1.09832C10.3401 1.13267 10.6149 1.23573 10.8897 1.40749C11.5081 0.37692 12.7447 -0.207068 13.9814 0.0677507C14.0845 0.0677507 14.3249 0.136462 14.428 0.170814C15.3899 0.411281 16.1456 1.06397 16.4891 1.95713C16.7296 1.92278 17.0044 1.95713 17.2793 2.02584C18.3098 2.23195 19.1343 2.9877 19.4434 3.98392C19.5809 3.98392 19.7526 3.98392 19.9244 4.05263C21.4702 4.39615 22.4665 5.97636 22.1229 7.52222C21.7794 9.10243 20.1992 10.0986 18.6533 9.75512C18.619 9.72077 18.5846 9.72077 18.5503 9.72077C18.3442 10.3048 17.9319 10.8544 17.3823 11.1979C16.7296 11.6101 15.9395 11.7476 15.1838 11.5758ZM11.3363 11.9537H11.405C12.4699 12.1941 13.5005 11.6445 13.9471 10.6826L14.1188 10.2704L14.4624 10.5452C14.7715 10.7513 15.0463 10.8887 15.3555 10.9575C15.9395 11.0949 16.5235 10.9575 17.0388 10.6483C17.5197 10.3048 17.8632 9.82383 18.0007 9.27419V8.72455L18.4816 8.96501C18.5846 8.99934 18.6878 9.03374 18.8251 9.06807C20.0274 9.34289 21.1954 8.58714 21.4702 7.38481C21.7451 6.18248 20.9893 5.01449 19.787 4.73967C19.5809 4.67097 19.3747 4.67097 19.203 4.67097H18.9282L18.8595 4.39615C18.6877 3.53734 18.035 2.88465 17.1762 2.71289C16.8327 2.64418 16.5579 2.64418 16.3517 2.67853L16.0426 2.74724L15.9739 2.43806C15.7677 1.64796 15.1494 1.02962 14.3249 0.857861L14.2562 0.823507C14.2219 0.789155 14.0501 0.754798 13.9814 0.754798H13.9127C12.8478 0.514331 11.7829 1.06398 11.3706 2.06019L11.1989 2.47242L10.8554 2.1976C10.5462 1.99149 10.2714 1.85407 9.9622 1.78537C9.37821 1.64796 8.79422 1.78537 8.27893 2.09454C7.798 2.43806 7.45448 2.91899 7.31707 3.46863V4.01827L6.83613 3.77781C6.73313 3.74348 6.62995 3.70908 6.49261 3.67475C5.29028 3.39993 4.12229 4.15568 3.84748 5.35801C3.57266 6.56035 4.32841 7.72833 5.53074 8.00315H5.56509C5.73686 8.0375 5.94297 8.0375 6.11473 8.0375H6.38955L6.45826 8.31232C6.63002 9.17113 7.28271 9.82382 8.14152 9.99558C8.48504 10.0643 8.75987 10.0643 8.96598 10.0299L9.27515 9.96124L9.34385 10.2704C9.54997 11.0605 10.1683 11.6789 10.9928 11.8506L11.0615 11.885C11.0958 11.9193 11.2676 11.9537 11.3363 11.9537ZM5.6338 15.4576C3.91618 15.4576 2.54208 16.8317 2.54208 18.5493C2.54208 20.2669 3.91618 21.641 5.6338 21.641C7.35141 21.641 8.72551 20.2669 8.72551 18.5493C8.72551 16.8317 7.35141 15.4576 5.6338 15.4576ZM10.1339 23.5648L10.1291 23.5605C9.6137 23.1139 8.82457 22.43 7.55752 22.0533C5.53073 21.4693 3.84747 22.1563 3.29783 22.3968H3.26347C2.61078 22.6373 1.54586 23.0838 0.721402 24.1831C0.480935 24.561 0.240469 25.0076 0.206116 25.0763C0.186717 25.1345 0.167317 25.1902 0.148605 25.244C0.0679161 25.476 0 25.6712 0 25.8664C0 26.0725 -9.83477e-07 26.2786 0.0687037 26.4504V26.4847C0.103056 26.5878 0.137408 26.6908 0.240465 26.7595C0.274817 26.7767 0.309168 26.8025 0.34352 26.8282C0.377874 26.854 0.412228 26.8798 0.446582 26.8969L0.54964 26.9657C0.54964 27 0.583971 27 3.29535 27H3.29783H10.6492H10.6836C10.8553 26.9656 11.1302 26.8626 11.3019 26.6565C11.5767 26.3817 11.5767 26.0038 11.5767 25.8664C11.5767 25.0076 10.6492 24.0457 10.1339 23.5648ZM22.4665 18.5493C22.4665 20.2669 21.0924 21.641 19.3747 21.641C17.6571 21.641 16.283 20.2669 16.283 18.5493C16.283 16.8317 17.6571 15.4576 19.3747 15.4576C21.0924 15.4576 22.4665 16.8317 22.4665 18.5493ZM23.8749 23.5648L23.87 23.5606C23.3546 23.1139 22.5655 22.43 21.2985 22.0533C19.2717 21.4693 17.5884 22.1563 17.0388 22.3968H17.0044C16.3517 22.6373 15.2868 23.0838 14.4623 24.1831C14.1875 24.5953 13.9471 25.0763 13.9471 25.0763C13.9277 25.1345 13.9083 25.1903 13.8895 25.2441C13.8088 25.476 13.7409 25.6712 13.7409 25.8664C13.7409 26.0725 13.7409 26.2786 13.8096 26.4504V26.4847C13.844 26.5878 13.8784 26.6908 13.9814 26.7595C14.0158 26.7767 14.0501 26.8025 14.0845 26.8282C14.1188 26.854 14.1532 26.8798 14.1875 26.8969L14.2906 26.9657C14.3249 27 14.3249 27 17.0363 27H17.0388H24.3902H24.4245C24.5963 26.9656 24.8711 26.8626 25.0429 26.6565C25.3177 26.3817 25.3177 26.0038 25.3177 25.8664C25.3177 25.0076 24.3902 24.0457 23.8749 23.5648ZM11.1645 13.7056C11.1645 13.0186 10.6149 12.469 9.92785 12.469C9.2408 12.469 8.69116 13.0186 8.69116 13.7056C8.69116 14.3927 9.2408 14.9423 9.92785 14.9423C10.6493 14.9423 11.1645 14.427 11.1645 13.7056ZM9.37821 13.7056C9.37821 13.3965 9.61868 13.156 9.92785 13.156C10.237 13.156 10.4775 13.3965 10.4775 13.7056C10.4775 14.0148 10.237 14.2553 9.92785 14.2553C9.65303 14.2553 9.37821 14.0148 9.37821 13.7056ZM8.62246 16.3164C8.21023 16.3164 7.83236 15.9385 7.83236 15.5263C7.83236 15.1141 8.21023 14.7362 8.62246 14.7362C9.03469 14.7362 9.41257 15.1141 9.41257 15.5263C9.41257 15.9385 9.03469 16.3164 8.62246 16.3164ZM8.62246 15.6294C8.65681 15.6294 8.72552 15.5607 8.72552 15.5263C8.72552 15.492 8.69117 15.4233 8.62246 15.4233C8.58811 15.4233 8.5194 15.492 8.5194 15.5263C8.5194 15.5607 8.58811 15.6294 8.62246 15.6294ZM16.5578 13.7743C16.5922 13.1216 16.0769 12.5377 15.4242 12.469C14.7372 12.4346 14.1875 12.9499 14.1188 13.6026C14.0845 13.9118 14.1532 14.2209 14.3593 14.4614C14.5654 14.7362 14.9089 14.908 15.2524 14.908H15.3212C16.0082 14.908 16.5235 14.427 16.5578 13.7743ZM15.3212 14.2209C15.1494 14.2209 15.012 14.1522 14.9089 14.0148C14.8402 13.9461 14.8059 13.8431 14.8059 13.6713C14.8402 13.3965 15.0463 13.156 15.3212 13.156H15.3555C15.6647 13.1904 15.8708 13.4308 15.8708 13.7056C15.8708 14.0148 15.596 14.2553 15.3212 14.2209ZM16.5235 16.3508H16.4548C16.0769 16.2821 15.7334 15.9385 15.7678 15.5607C15.7678 15.1484 16.1113 14.8049 16.5579 14.8049C16.9701 14.8049 17.3136 15.1484 17.3136 15.595C17.3136 16.0073 16.9701 16.3508 16.5235 16.3508ZM16.5922 15.595C16.5922 15.5607 16.5579 15.492 16.5235 15.492C16.4892 15.492 16.4205 15.5263 16.4205 15.5607C16.4205 15.5836 16.451 15.6065 16.4815 15.6294C16.4968 15.6408 16.5121 15.6523 16.5235 15.6637C16.5579 15.6637 16.5922 15.6294 16.5922 15.595Z" fill="#176BEF"/>
</svg>
