<svg width="24" height="24" viewBox="0 0 24 24" fill="none" xmlns="http://www.w3.org/2000/svg">
<path d="M11.219 18.6667H9.33333V16.781L19.3668 6.74753L21.2524 8.63319L11.219 18.6667ZM23.6095 6.27612L22.6667 7.219L20.781 5.33333L21.7238 4.39055C21.974 4.14142 22.3129 4.00173 22.666 4.00212C23.0191 4.00251 23.3576 4.14294 23.6073 4.39262C23.857 4.6423 23.9974 4.98082 23.9978 5.33392C23.9982 5.68703 23.8586 6.02587 23.6095 6.27612V6.27612ZM12.6332 20.0809L12.0474 20.6667H7.33333V15.9526L7.91911 15.3668L18.424 4.86189L18.6667 4.61923V1.33333C18.6667 0.979711 18.5262 0.640573 18.2761 0.390524C18.0261 0.140476 17.687 0 17.3333 0H6.66667L0 6.66667V22.6667C0 23.0203 0.140476 23.3594 0.390524 23.6095C0.640573 23.8595 0.979711 24 1.33333 24H17.3333C17.687 24 18.0261 23.8595 18.2761 23.6095C18.5262 23.3594 18.6667 23.0203 18.6667 22.6667V14.0474L12.6332 20.0809ZM6.66667 6.66667H1.88557L6.66667 1.88557V6.66667Z" fill="#176BEF"/>
</svg>
