<svg width="52" height="52" viewBox="0 0 52 52" fill="none" xmlns="http://www.w3.org/2000/svg">
<circle cx="26" cy="26" r="26" fill="white"/>
<path d="M28.219 32.6667H26.3333V30.781L36.3668 20.7475L38.2524 22.6332L28.219 32.6667ZM40.6095 20.2761L39.6667 21.219L37.781 19.3333L38.7238 18.3905C38.974 18.1414 39.3129 18.0017 39.666 18.0021C40.0191 18.0025 40.3576 18.1429 40.6073 18.3926C40.857 18.6423 40.9974 18.9808 40.9978 19.3339C40.9982 19.687 40.8586 20.0259 40.6095 20.2761V20.2761ZM29.6332 34.0809L29.0474 34.6667H24.3333V29.9526L24.9191 29.3668L35.424 18.8619L35.6667 18.6192V15.3333C35.6667 14.9797 35.5262 14.6406 35.2761 14.3905C35.0261 14.1405 34.687 14 34.3333 14H23.6667L17 20.6667V36.6667C17 37.0203 17.1405 37.3594 17.3905 37.6095C17.6406 37.8595 17.9797 38 18.3333 38H34.3333C34.687 38 35.0261 37.8595 35.2761 37.6095C35.5262 37.3594 35.6667 37.0203 35.6667 36.6667V28.0474L29.6332 34.0809ZM23.6667 20.6667H18.8856L23.6667 15.8856V20.6667Z" fill="#32397C"/>
</svg>
