<svg width="237" height="84" viewBox="0 0 237 84" fill="none" xmlns="http://www.w3.org/2000/svg">
<circle cx="190" cy="26" r="26" fill="white"/>
<path fill-rule="evenodd" clip-rule="evenodd" d="M192.184 23.5758C191.909 23.5414 191.634 23.4384 191.359 23.2666C190.844 24.1598 189.882 24.6751 188.886 24.6751C188.68 24.6751 188.474 24.6407 188.268 24.6064C188.165 24.6064 187.924 24.5377 187.821 24.5033C186.859 24.2628 186.103 23.6101 185.76 22.717C185.519 22.7513 185.245 22.717 184.97 22.6483C183.939 22.4422 183.115 21.6864 182.806 20.6902C182.659 20.6902 182.537 20.6651 182.398 20.6364C182.374 20.6315 182.35 20.6265 182.325 20.6215C180.779 20.2436 179.783 18.6978 180.126 17.1519C180.47 15.5717 182.05 14.5755 183.596 14.919C183.63 14.9533 183.664 14.9533 183.699 14.9533C183.905 14.3694 184.317 13.8197 184.867 13.4762C185.519 13.064 186.31 12.9266 187.065 13.0983C187.34 13.1327 187.615 13.2357 187.89 13.4075C188.508 12.3769 189.745 11.7929 190.981 12.0678C191.084 12.0678 191.325 12.1365 191.428 12.1708C192.39 12.4113 193.146 13.064 193.489 13.9571C193.73 13.9228 194.004 13.9571 194.279 14.0258C195.31 14.232 196.134 14.9877 196.443 15.9839C196.581 15.9839 196.753 15.9839 196.924 16.0526C198.47 16.3962 199.466 17.9764 199.123 19.5222C198.779 21.1024 197.199 22.0986 195.653 21.7551C195.619 21.7208 195.585 21.7208 195.55 21.7208C195.344 22.3048 194.932 22.8544 194.382 23.1979C193.73 23.6101 192.94 23.7476 192.184 23.5758ZM188.336 23.9537H188.405C189.47 24.1941 190.5 23.6445 190.947 22.6826L191.119 22.2704L191.462 22.5452C191.772 22.7513 192.046 22.8887 192.356 22.9575C192.94 23.0949 193.524 22.9575 194.039 22.6483C194.52 22.3048 194.863 21.8238 195.001 21.2742V20.7246L195.482 20.965C195.585 20.9993 195.688 21.0337 195.825 21.0681C197.027 21.3429 198.195 20.5871 198.47 19.3848C198.745 18.1825 197.989 17.0145 196.787 16.7397C196.581 16.671 196.375 16.671 196.203 16.671H195.928L195.859 16.3962C195.688 15.5373 195.035 14.8846 194.176 14.7129C193.833 14.6442 193.558 14.6442 193.352 14.6785L193.043 14.7472L192.974 14.4381C192.768 13.648 192.149 13.0296 191.325 12.8579L191.256 12.8235C191.222 12.7892 191.05 12.7548 190.981 12.7548H190.913C189.848 12.5143 188.783 13.064 188.371 14.0602L188.199 14.4724L187.855 14.1976C187.546 13.9915 187.271 13.8541 186.962 13.7854C186.378 13.648 185.794 13.7854 185.279 14.0945C184.798 14.4381 184.454 14.919 184.317 15.4686V16.0183L183.836 15.7778C183.733 15.7435 183.63 15.7091 183.493 15.6747C182.29 15.3999 181.122 16.1557 180.847 17.358C180.573 18.5603 181.328 19.7283 182.531 20.0031H182.565C182.737 20.0375 182.943 20.0375 183.115 20.0375H183.39L183.458 20.3123C183.63 21.1711 184.283 21.8238 185.142 21.9956C185.485 22.0643 185.76 22.0643 185.966 22.0299L186.275 21.9612L186.344 22.2704C186.55 23.0605 187.168 23.6789 187.993 23.8506L188.061 23.885C188.096 23.9193 188.268 23.9537 188.336 23.9537ZM182.634 27.4576C180.916 27.4576 179.542 28.8317 179.542 30.5493C179.542 32.2669 180.916 33.641 182.634 33.641C184.351 33.641 185.726 32.2669 185.726 30.5493C185.726 28.8317 184.351 27.4576 182.634 27.4576ZM187.134 35.5648L187.129 35.5605C186.614 35.1139 185.825 34.43 184.558 34.0533C182.531 33.4693 180.847 34.1563 180.298 34.3968H180.263C179.611 34.6373 178.546 35.0838 177.721 36.1831C177.481 36.561 177.24 37.0076 177.206 37.0763C177.187 37.1345 177.167 37.1902 177.149 37.244C177.068 37.476 177 37.6712 177 37.8664C177 38.0725 177 38.2786 177.069 38.4504V38.4847C177.103 38.5878 177.137 38.6908 177.24 38.7595C177.275 38.7767 177.309 38.8025 177.344 38.8282C177.378 38.854 177.412 38.8798 177.447 38.8969L177.55 38.9657C177.55 39 177.584 39 180.295 39H180.298H187.649H187.684C187.855 38.9656 188.13 38.8626 188.302 38.6565C188.577 38.3817 188.577 38.0038 188.577 37.8664C188.577 37.0076 187.649 36.0457 187.134 35.5648ZM199.466 30.5493C199.466 32.2669 198.092 33.641 196.375 33.641C194.657 33.641 193.283 32.2669 193.283 30.5493C193.283 28.8317 194.657 27.4576 196.375 27.4576C198.092 27.4576 199.466 28.8317 199.466 30.5493ZM200.875 35.5648L200.87 35.5606C200.355 35.1139 199.566 34.43 198.298 34.0533C196.272 33.4693 194.588 34.1563 194.039 34.3968H194.004C193.352 34.6373 192.287 35.0838 191.462 36.1831C191.188 36.5953 190.947 37.0763 190.947 37.0763C190.928 37.1345 190.908 37.1903 190.89 37.2441C190.809 37.476 190.741 37.6712 190.741 37.8664C190.741 38.0725 190.741 38.2786 190.81 38.4504V38.4847C190.844 38.5878 190.878 38.6908 190.981 38.7595C191.016 38.7767 191.05 38.8025 191.084 38.8282C191.119 38.854 191.153 38.8798 191.188 38.8969L191.291 38.9657C191.325 39 191.325 39 194.036 39H194.039H201.39H201.425C201.596 38.9656 201.871 38.8626 202.043 38.6565C202.318 38.3817 202.318 38.0038 202.318 37.8664C202.318 37.0076 201.39 36.0457 200.875 35.5648ZM188.165 25.7056C188.165 25.0186 187.615 24.469 186.928 24.469C186.241 24.469 185.691 25.0186 185.691 25.7056C185.691 26.3927 186.241 26.9423 186.928 26.9423C187.649 26.9423 188.165 26.427 188.165 25.7056ZM186.378 25.7056C186.378 25.3965 186.619 25.156 186.928 25.156C187.237 25.156 187.477 25.3965 187.477 25.7056C187.477 26.0148 187.237 26.2553 186.928 26.2553C186.653 26.2553 186.378 26.0148 186.378 25.7056ZM185.622 28.3164C185.21 28.3164 184.832 27.9385 184.832 27.5263C184.832 27.1141 185.21 26.7362 185.622 26.7362C186.035 26.7362 186.413 27.1141 186.413 27.5263C186.413 27.9385 186.035 28.3164 185.622 28.3164ZM185.622 27.6294C185.657 27.6294 185.726 27.5607 185.726 27.5263C185.726 27.492 185.691 27.4233 185.622 27.4233C185.588 27.4233 185.519 27.492 185.519 27.5263C185.519 27.5607 185.588 27.6294 185.622 27.6294ZM193.558 25.7743C193.592 25.1216 193.077 24.5377 192.424 24.469C191.737 24.4346 191.188 24.9499 191.119 25.6026C191.084 25.9118 191.153 26.2209 191.359 26.4614C191.565 26.7362 191.909 26.908 192.252 26.908H192.321C193.008 26.908 193.523 26.427 193.558 25.7743ZM192.321 26.2209C192.149 26.2209 192.012 26.1522 191.909 26.0148C191.84 25.9461 191.806 25.8431 191.806 25.6713C191.84 25.3965 192.046 25.156 192.321 25.156H192.356C192.665 25.1904 192.871 25.4308 192.871 25.7056C192.871 26.0148 192.596 26.2553 192.321 26.2209ZM193.524 28.3508H193.455C193.077 28.2821 192.733 27.9385 192.768 27.5607C192.768 27.1484 193.111 26.8049 193.558 26.8049C193.97 26.8049 194.314 27.1484 194.314 27.595C194.314 28.0073 193.97 28.3508 193.524 28.3508ZM193.592 27.595C193.592 27.5607 193.558 27.492 193.524 27.492C193.489 27.492 193.42 27.5263 193.42 27.5607C193.42 27.5836 193.451 27.6065 193.482 27.6294C193.497 27.6408 193.512 27.6523 193.524 27.6637C193.558 27.6637 193.592 27.6294 193.592 27.595Z" fill="#32397C"/>
<circle cx="26" cy="26" r="26" fill="white"/>
<path d="M28.219 32.6667H26.3333V30.781L36.3668 20.7475L38.2524 22.6332L28.219 32.6667ZM40.6095 20.2761L39.6667 21.219L37.781 19.3333L38.7238 18.3905C38.974 18.1414 39.3129 18.0017 39.666 18.0021C40.0191 18.0025 40.3576 18.1429 40.6073 18.3926C40.857 18.6423 40.9974 18.9808 40.9978 19.3339C40.9982 19.687 40.8586 20.0259 40.6095 20.2761V20.2761ZM29.6332 34.0809L29.0474 34.6667H24.3333V29.9526L24.9191 29.3668L35.424 18.8619L35.6667 18.6192V15.3333C35.6667 14.9797 35.5262 14.6406 35.2761 14.3905C35.0261 14.1405 34.687 14 34.3333 14H23.6667L17 20.6667V36.6667C17 37.0203 17.1405 37.3594 17.3905 37.6095C17.6406 37.8595 17.9797 38 18.3333 38H34.3333C34.687 38 35.0261 37.8595 35.2761 37.6095C35.5262 37.3594 35.6667 37.0203 35.6667 36.6667V28.0474L29.6332 34.0809ZM23.6667 20.6667H18.8856L23.6667 15.8856V20.6667Z" fill="#32397C"/>
<circle cx="108" cy="26" r="26" fill="white"/>
<path d="M99 15V39H114.25L117 36.2498V15H99ZM106.587 26.8305C106.587 27.0758 106.538 27.309 106.448 27.5212L109.988 30.0068C110.305 29.7143 110.724 29.532 111.189 29.532C112.17 29.532 112.965 30.327 112.965 31.308C112.965 32.289 112.17 33.084 111.189 33.084C110.208 33.084 109.413 32.289 109.413 31.308C109.413 31.0627 109.462 30.8295 109.552 30.6172L106.012 28.1318C105.695 28.4243 105.276 28.6065 104.811 28.6065C103.83 28.6065 103.035 27.8115 103.035 26.8305C103.035 25.8495 103.83 25.0545 104.811 25.0545C105.299 25.0545 105.741 25.2518 106.063 25.5713L109.533 23.3198C109.459 23.124 109.413 22.914 109.413 22.692C109.413 21.711 110.208 20.916 111.189 20.916C112.17 20.916 112.965 21.711 112.965 22.692C112.965 23.673 112.17 24.468 111.189 24.468C110.701 24.468 110.258 24.2708 109.937 23.9513L106.467 26.2035C106.541 26.3985 106.587 26.6085 106.587 26.8305Z" fill="#32397C"/>
<path d="M5.072 74.08C4.24 74.08 3.49333 73.8987 2.832 73.536C2.18133 73.1733 1.66933 72.6667 1.296 72.016C0.922667 71.3547 0.736 70.6133 0.736 69.792C0.736 68.9707 0.922667 68.2347 1.296 67.584C1.66933 66.9333 2.18133 66.4267 2.832 66.064C3.49333 65.7013 4.24 65.52 5.072 65.52C5.79733 65.52 6.44267 65.664 7.008 65.952C7.584 66.2293 8.03733 66.64 8.368 67.184L7.52 67.76C7.24267 67.344 6.89067 67.0347 6.464 66.832C6.03733 66.6187 5.57333 66.512 5.072 66.512C4.464 66.512 3.91467 66.6507 3.424 66.928C2.944 67.1947 2.56533 67.5787 2.288 68.08C2.02133 68.5813 1.888 69.152 1.888 69.792C1.888 70.4427 2.02133 71.0187 2.288 71.52C2.56533 72.0107 2.944 72.3947 3.424 72.672C3.91467 72.9387 4.464 73.072 5.072 73.072C5.57333 73.072 6.03733 72.9707 6.464 72.768C6.89067 72.5653 7.24267 72.256 7.52 71.84L8.368 72.416C8.03733 72.96 7.584 73.376 7.008 73.664C6.432 73.9413 5.78667 74.08 5.072 74.08ZM12.0876 67.232C12.3543 66.6667 12.749 66.24 13.2716 65.952C13.805 65.664 14.461 65.52 15.2396 65.52V66.624L14.9676 66.608C14.0823 66.608 13.389 66.88 12.8876 67.424C12.3863 67.968 12.1356 68.7307 12.1356 69.712V74H10.9996V65.584H12.0876V67.232ZM24.9464 70.144H17.9064C17.9704 71.0187 18.3064 71.728 18.9144 72.272C19.5224 72.8053 20.2904 73.072 21.2184 73.072C21.741 73.072 22.221 72.9813 22.6584 72.8C23.0957 72.608 23.4744 72.3307 23.7944 71.968L24.4344 72.704C24.061 73.152 23.5917 73.4933 23.0264 73.728C22.4717 73.9627 21.8584 74.08 21.1864 74.08C20.3224 74.08 19.5544 73.8987 18.8824 73.536C18.221 73.1627 17.7037 72.6507 17.3304 72C16.957 71.3493 16.7704 70.6133 16.7704 69.792C16.7704 68.9707 16.9464 68.2347 17.2984 67.584C17.661 66.9333 18.1517 66.4267 18.7704 66.064C19.3997 65.7013 20.1037 65.52 20.8824 65.52C21.661 65.52 22.3597 65.7013 22.9784 66.064C23.597 66.4267 24.0824 66.9333 24.4344 67.584C24.7864 68.224 24.9624 68.96 24.9624 69.792L24.9464 70.144ZM20.8824 66.496C20.0717 66.496 19.389 66.7573 18.8344 67.28C18.2904 67.792 17.981 68.464 17.9064 69.296H23.8744C23.7997 68.464 23.485 67.792 22.9304 67.28C22.3864 66.7573 21.7037 66.496 20.8824 66.496ZM30.3843 65.52C31.4829 65.52 32.3256 65.7973 32.9123 66.352C33.4989 66.896 33.7923 67.7067 33.7923 68.784V74H32.7043V72.688C32.4483 73.1253 32.0696 73.4667 31.5683 73.712C31.0776 73.9573 30.4909 74.08 29.8083 74.08C28.8696 74.08 28.1229 73.856 27.5683 73.408C27.0136 72.96 26.7363 72.368 26.7363 71.632C26.7363 70.9173 26.9923 70.3413 27.5043 69.904C28.0269 69.4667 28.8536 69.248 29.9843 69.248H32.6563V68.736C32.6563 68.0107 32.4536 67.4613 32.0483 67.088C31.6429 66.704 31.0509 66.512 30.2723 66.512C29.7389 66.512 29.2269 66.6027 28.7363 66.784C28.2456 66.9547 27.8243 67.1947 27.4723 67.504L26.9603 66.656C27.3869 66.2933 27.8989 66.016 28.4963 65.824C29.0936 65.6213 29.7229 65.52 30.3843 65.52ZM29.9843 73.184C30.6243 73.184 31.1736 73.04 31.6323 72.752C32.0909 72.4533 32.4323 72.0267 32.6563 71.472V70.096H30.0163C28.5763 70.096 27.8563 70.5973 27.8563 71.6C27.8563 72.0907 28.0429 72.48 28.4163 72.768C28.7896 73.0453 29.3123 73.184 29.9843 73.184ZM41.7097 73.488C41.4964 73.68 41.2297 73.8293 40.9097 73.936C40.6004 74.032 40.2751 74.08 39.9337 74.08C39.1444 74.08 38.5364 73.8667 38.1097 73.44C37.6831 73.0133 37.4697 72.4107 37.4697 71.632V66.544H35.9657V65.584H37.4697V63.744H38.6057V65.584H41.1657V66.544H38.6057V71.568C38.6057 72.0693 38.7284 72.4533 38.9737 72.72C39.2297 72.976 39.5924 73.104 40.0617 73.104C40.2964 73.104 40.5204 73.0667 40.7337 72.992C40.9577 72.9173 41.1497 72.8107 41.3097 72.672L41.7097 73.488ZM51.2089 70.144H44.1689C44.2329 71.0187 44.5689 71.728 45.1769 72.272C45.7849 72.8053 46.5529 73.072 47.4809 73.072C48.0035 73.072 48.4835 72.9813 48.9209 72.8C49.3582 72.608 49.7369 72.3307 50.0569 71.968L50.6969 72.704C50.3235 73.152 49.8542 73.4933 49.2889 73.728C48.7342 73.9627 48.1209 74.08 47.4489 74.08C46.5849 74.08 45.8169 73.8987 45.1449 73.536C44.4835 73.1627 43.9662 72.6507 43.5929 72C43.2195 71.3493 43.0329 70.6133 43.0329 69.792C43.0329 68.9707 43.2089 68.2347 43.5609 67.584C43.9235 66.9333 44.4142 66.4267 45.0329 66.064C45.6622 65.7013 46.3662 65.52 47.1449 65.52C47.9235 65.52 48.6222 65.7013 49.2409 66.064C49.8595 66.4267 50.3449 66.9333 50.6969 67.584C51.0489 68.224 51.2249 68.96 51.2249 69.792L51.2089 70.144ZM47.1449 66.496C46.3342 66.496 45.6515 66.7573 45.0969 67.28C44.5529 67.792 44.2435 68.464 44.1689 69.296H50.1369C50.0622 68.464 49.7475 67.792 49.1929 67.28C48.6489 66.7573 47.9662 66.496 47.1449 66.496Z" fill="#4D4D4D"/>
<path d="M88.84 74.08C88.1573 74.08 87.5013 73.984 86.872 73.792C86.2533 73.5893 85.768 73.3387 85.416 73.04L85.928 72.144C86.28 72.4213 86.7227 72.6507 87.256 72.832C87.7893 73.0027 88.344 73.088 88.92 73.088C89.688 73.088 90.2533 72.9707 90.616 72.736C90.9893 72.4907 91.176 72.1493 91.176 71.712C91.176 71.4027 91.0747 71.1627 90.872 70.992C90.6693 70.8107 90.4133 70.6773 90.104 70.592C89.7947 70.496 89.384 70.4053 88.872 70.32C88.1893 70.192 87.64 70.064 87.224 69.936C86.808 69.7973 86.4507 69.568 86.152 69.248C85.864 68.928 85.72 68.4853 85.72 67.92C85.72 67.216 86.0133 66.64 86.6 66.192C87.1867 65.744 88.0027 65.52 89.048 65.52C89.592 65.52 90.136 65.5947 90.68 65.744C91.224 65.8827 91.672 66.0693 92.024 66.304L91.528 67.216C90.8347 66.736 90.008 66.496 89.048 66.496C88.3227 66.496 87.7733 66.624 87.4 66.88C87.0373 67.136 86.856 67.472 86.856 67.888C86.856 68.208 86.9573 68.464 87.16 68.656C87.3733 68.848 87.6347 68.992 87.944 69.088C88.2533 69.1733 88.68 69.264 89.224 69.36C89.896 69.488 90.4347 69.616 90.84 69.744C91.2453 69.872 91.592 70.0907 91.88 70.4C92.168 70.7093 92.312 71.136 92.312 71.68C92.312 72.416 92.0027 73.0027 91.384 73.44C90.776 73.8667 89.928 74.08 88.84 74.08ZM99.1001 65.52C100.156 65.52 100.993 65.8293 101.612 66.448C102.241 67.056 102.556 67.9467 102.556 69.12V74H101.42V69.232C101.42 68.3573 101.201 67.6907 100.764 67.232C100.327 66.7733 99.7028 66.544 98.8921 66.544C97.9855 66.544 97.2655 66.816 96.7321 67.36C96.2095 67.8933 95.9481 68.6347 95.9481 69.584V74H94.8121V62.128H95.9481V67.056C96.2575 66.5653 96.6841 66.1867 97.2281 65.92C97.7721 65.6533 98.3961 65.52 99.1001 65.52ZM108.984 65.52C110.083 65.52 110.926 65.7973 111.512 66.352C112.099 66.896 112.392 67.7067 112.392 68.784V74H111.304V72.688C111.048 73.1253 110.67 73.4667 110.168 73.712C109.678 73.9573 109.091 74.08 108.408 74.08C107.47 74.08 106.723 73.856 106.168 73.408C105.614 72.96 105.336 72.368 105.336 71.632C105.336 70.9173 105.592 70.3413 106.104 69.904C106.627 69.4667 107.454 69.248 108.584 69.248H111.256V68.736C111.256 68.0107 111.054 67.4613 110.648 67.088C110.243 66.704 109.651 66.512 108.872 66.512C108.339 66.512 107.827 66.6027 107.336 66.784C106.846 66.9547 106.424 67.1947 106.072 67.504L105.56 66.656C105.987 66.2933 106.499 66.016 107.096 65.824C107.694 65.6213 108.323 65.52 108.984 65.52ZM108.584 73.184C109.224 73.184 109.774 73.04 110.232 72.752C110.691 72.4533 111.032 72.0267 111.256 71.472V70.096H108.616C107.176 70.096 106.456 70.5973 106.456 71.6C106.456 72.0907 106.643 72.48 107.016 72.768C107.39 73.0453 107.912 73.184 108.584 73.184ZM116.966 67.232C117.232 66.6667 117.627 66.24 118.15 65.952C118.683 65.664 119.339 65.52 120.118 65.52V66.624L119.846 66.608C118.96 66.608 118.267 66.88 117.766 67.424C117.264 67.968 117.014 68.7307 117.014 69.712V74H115.878V65.584H116.966V67.232ZM129.824 70.144H122.784C122.848 71.0187 123.184 71.728 123.792 72.272C124.4 72.8053 125.168 73.072 126.096 73.072C126.619 73.072 127.099 72.9813 127.536 72.8C127.974 72.608 128.352 72.3307 128.672 71.968L129.312 72.704C128.939 73.152 128.47 73.4933 127.904 73.728C127.35 73.9627 126.736 74.08 126.064 74.08C125.2 74.08 124.432 73.8987 123.76 73.536C123.099 73.1627 122.582 72.6507 122.208 72C121.835 71.3493 121.648 70.6133 121.648 69.792C121.648 68.9707 121.824 68.2347 122.176 67.584C122.539 66.9333 123.03 66.4267 123.648 66.064C124.278 65.7013 124.982 65.52 125.76 65.52C126.539 65.52 127.238 65.7013 127.856 66.064C128.475 66.4267 128.96 66.9333 129.312 67.584C129.664 68.224 129.84 68.96 129.84 69.792L129.824 70.144ZM125.76 66.496C124.95 66.496 124.267 66.7573 123.712 67.28C123.168 67.792 122.859 68.464 122.784 69.296H128.752C128.678 68.464 128.363 67.792 127.808 67.28C127.264 66.7573 126.582 66.496 125.76 66.496Z" fill="#4D4D4D"/>
<path d="M148.072 74.08C147.24 74.08 146.493 73.8987 145.832 73.536C145.181 73.1733 144.669 72.6667 144.296 72.016C143.923 71.3547 143.736 70.6133 143.736 69.792C143.736 68.9707 143.923 68.2347 144.296 67.584C144.669 66.9333 145.181 66.4267 145.832 66.064C146.493 65.7013 147.24 65.52 148.072 65.52C148.797 65.52 149.443 65.664 150.008 65.952C150.584 66.2293 151.037 66.64 151.368 67.184L150.52 67.76C150.243 67.344 149.891 67.0347 149.464 66.832C149.037 66.6187 148.573 66.512 148.072 66.512C147.464 66.512 146.915 66.6507 146.424 66.928C145.944 67.1947 145.565 67.5787 145.288 68.08C145.021 68.5813 144.888 69.152 144.888 69.792C144.888 70.4427 145.021 71.0187 145.288 71.52C145.565 72.0107 145.944 72.3947 146.424 72.672C146.915 72.9387 147.464 73.072 148.072 73.072C148.573 73.072 149.037 72.9707 149.464 72.768C149.891 72.5653 150.243 72.256 150.52 71.84L151.368 72.416C151.037 72.96 150.584 73.376 150.008 73.664C149.432 73.9413 148.787 74.08 148.072 74.08ZM157.299 74.08C156.488 74.08 155.758 73.8987 155.107 73.536C154.456 73.1627 153.944 72.6507 153.571 72C153.198 71.3493 153.011 70.6133 153.011 69.792C153.011 68.9707 153.198 68.2347 153.571 67.584C153.944 66.9333 154.456 66.4267 155.107 66.064C155.758 65.7013 156.488 65.52 157.299 65.52C158.11 65.52 158.84 65.7013 159.491 66.064C160.142 66.4267 160.648 66.9333 161.011 67.584C161.384 68.2347 161.571 68.9707 161.571 69.792C161.571 70.6133 161.384 71.3493 161.011 72C160.648 72.6507 160.142 73.1627 159.491 73.536C158.84 73.8987 158.11 74.08 157.299 74.08ZM157.299 73.072C157.896 73.072 158.43 72.9387 158.899 72.672C159.379 72.3947 159.752 72.0053 160.019 71.504C160.286 71.0027 160.419 70.432 160.419 69.792C160.419 69.152 160.286 68.5813 160.019 68.08C159.752 67.5787 159.379 67.1947 158.899 66.928C158.43 66.6507 157.896 66.512 157.299 66.512C156.702 66.512 156.163 66.6507 155.683 66.928C155.214 67.1947 154.84 67.5787 154.563 68.08C154.296 68.5813 154.163 69.152 154.163 69.792C154.163 70.432 154.296 71.0027 154.563 71.504C154.84 72.0053 155.214 72.3947 155.683 72.672C156.163 72.9387 156.702 73.072 157.299 73.072ZM164.29 62.128H165.426V74H164.29V62.128ZM168.987 62.128H170.123V74H168.987V62.128ZM176.628 65.52C177.727 65.52 178.569 65.7973 179.156 66.352C179.743 66.896 180.036 67.7067 180.036 68.784V74H178.948V72.688C178.692 73.1253 178.313 73.4667 177.812 73.712C177.321 73.9573 176.735 74.08 176.052 74.08C175.113 74.08 174.367 73.856 173.812 73.408C173.257 72.96 172.98 72.368 172.98 71.632C172.98 70.9173 173.236 70.3413 173.748 69.904C174.271 69.4667 175.097 69.248 176.228 69.248H178.9V68.736C178.9 68.0107 178.697 67.4613 178.292 67.088C177.887 66.704 177.295 66.512 176.516 66.512C175.983 66.512 175.471 66.6027 174.98 66.784C174.489 66.9547 174.068 67.1947 173.716 67.504L173.204 66.656C173.631 66.2933 174.143 66.016 174.74 65.824C175.337 65.6213 175.967 65.52 176.628 65.52ZM176.228 73.184C176.868 73.184 177.417 73.04 177.876 72.752C178.335 72.4533 178.676 72.0267 178.9 71.472V70.096H176.26C174.82 70.096 174.1 70.5973 174.1 71.6C174.1 72.0907 174.287 72.48 174.66 72.768C175.033 73.0453 175.556 73.184 176.228 73.184ZM187.858 65.52C188.647 65.52 189.362 65.7013 190.002 66.064C190.642 66.416 191.143 66.9173 191.506 67.568C191.868 68.2187 192.05 68.96 192.05 69.792C192.05 70.624 191.868 71.3653 191.506 72.016C191.143 72.6667 190.642 73.1733 190.002 73.536C189.362 73.8987 188.647 74.08 187.858 74.08C187.154 74.08 186.519 73.9307 185.954 73.632C185.399 73.3333 184.951 72.9013 184.61 72.336V74H183.522V62.128H184.658V67.184C185.01 66.64 185.458 66.2293 186.002 65.952C186.556 65.664 187.175 65.52 187.858 65.52ZM187.778 73.072C188.364 73.072 188.898 72.9387 189.378 72.672C189.858 72.3947 190.231 72.0053 190.498 71.504C190.775 71.0027 190.914 70.432 190.914 69.792C190.914 69.152 190.775 68.5813 190.498 68.08C190.231 67.5787 189.858 67.1947 189.378 66.928C188.898 66.6507 188.364 66.512 187.778 66.512C187.18 66.512 186.642 66.6507 186.161 66.928C185.692 67.1947 185.319 67.5787 185.042 68.08C184.775 68.5813 184.642 69.152 184.642 69.792C184.642 70.432 184.775 71.0027 185.042 71.504C185.319 72.0053 185.692 72.3947 186.161 72.672C186.642 72.9387 187.18 73.072 187.778 73.072ZM198.205 74.08C197.395 74.08 196.664 73.8987 196.013 73.536C195.363 73.1627 194.851 72.6507 194.477 72C194.104 71.3493 193.917 70.6133 193.917 69.792C193.917 68.9707 194.104 68.2347 194.477 67.584C194.851 66.9333 195.363 66.4267 196.013 66.064C196.664 65.7013 197.395 65.52 198.205 65.52C199.016 65.52 199.747 65.7013 200.397 66.064C201.048 66.4267 201.555 66.9333 201.917 67.584C202.291 68.2347 202.477 68.9707 202.477 69.792C202.477 70.6133 202.291 71.3493 201.917 72C201.555 72.6507 201.048 73.1627 200.397 73.536C199.747 73.8987 199.016 74.08 198.205 74.08ZM198.205 73.072C198.803 73.072 199.336 72.9387 199.805 72.672C200.285 72.3947 200.659 72.0053 200.925 71.504C201.192 71.0027 201.325 70.432 201.325 69.792C201.325 69.152 201.192 68.5813 200.925 68.08C200.659 67.5787 200.285 67.1947 199.805 66.928C199.336 66.6507 198.803 66.512 198.205 66.512C197.608 66.512 197.069 66.6507 196.589 66.928C196.12 67.1947 195.747 67.5787 195.469 68.08C195.203 68.5813 195.069 69.152 195.069 69.792C195.069 70.432 195.203 71.0027 195.469 71.504C195.747 72.0053 196.12 72.3947 196.589 72.672C197.069 72.9387 197.608 73.072 198.205 73.072ZM206.284 67.232C206.551 66.6667 206.946 66.24 207.468 65.952C208.002 65.664 208.658 65.52 209.436 65.52V66.624L209.164 66.608C208.279 66.608 207.586 66.88 207.084 67.424C206.583 67.968 206.332 68.7307 206.332 69.712V74H205.196V65.584H206.284V67.232ZM214.822 65.52C215.92 65.52 216.763 65.7973 217.35 66.352C217.936 66.896 218.23 67.7067 218.23 68.784V74H217.142V72.688C216.886 73.1253 216.507 73.4667 216.006 73.712C215.515 73.9573 214.928 74.08 214.246 74.08C213.307 74.08 212.56 73.856 212.006 73.408C211.451 72.96 211.174 72.368 211.174 71.632C211.174 70.9173 211.43 70.3413 211.942 69.904C212.464 69.4667 213.291 69.248 214.422 69.248H217.094V68.736C217.094 68.0107 216.891 67.4613 216.486 67.088C216.08 66.704 215.488 66.512 214.71 66.512C214.176 66.512 213.664 66.6027 213.174 66.784C212.683 66.9547 212.262 67.1947 211.91 67.504L211.398 66.656C211.824 66.2933 212.336 66.016 212.934 65.824C213.531 65.6213 214.16 65.52 214.822 65.52ZM214.422 73.184C215.062 73.184 215.611 73.04 216.07 72.752C216.528 72.4533 216.87 72.0267 217.094 71.472V70.096H214.454C213.014 70.096 212.294 70.5973 212.294 71.6C212.294 72.0907 212.48 72.48 212.854 72.768C213.227 73.0453 213.75 73.184 214.422 73.184ZM226.147 73.488C225.934 73.68 225.667 73.8293 225.347 73.936C225.038 74.032 224.713 74.08 224.371 74.08C223.582 74.08 222.974 73.8667 222.547 73.44C222.121 73.0133 221.907 72.4107 221.907 71.632V66.544H220.403V65.584H221.907V63.744H223.043V65.584H225.603V66.544H223.043V71.568C223.043 72.0693 223.166 72.4533 223.411 72.72C223.667 72.976 224.03 73.104 224.499 73.104C224.734 73.104 224.958 73.0667 225.171 72.992C225.395 72.9173 225.587 72.8107 225.747 72.672L226.147 73.488ZM235.646 70.144H228.606C228.67 71.0187 229.006 71.728 229.614 72.272C230.222 72.8053 230.99 73.072 231.918 73.072C232.441 73.072 232.921 72.9813 233.358 72.8C233.796 72.608 234.174 72.3307 234.494 71.968L235.134 72.704C234.761 73.152 234.292 73.4933 233.726 73.728C233.172 73.9627 232.558 74.08 231.886 74.08C231.022 74.08 230.254 73.8987 229.582 73.536C228.921 73.1627 228.404 72.6507 228.03 72C227.657 71.3493 227.47 70.6133 227.47 69.792C227.47 68.9707 227.646 68.2347 227.998 67.584C228.361 66.9333 228.852 66.4267 229.47 66.064C230.1 65.7013 230.804 65.52 231.582 65.52C232.361 65.52 233.06 65.7013 233.678 66.064C234.297 66.4267 234.782 66.9333 235.134 67.584C235.486 68.224 235.662 68.96 235.662 69.792L235.646 70.144ZM231.582 66.496C230.772 66.496 230.089 66.7573 229.534 67.28C228.99 67.792 228.681 68.464 228.606 69.296H234.574C234.5 68.464 234.185 67.792 233.63 67.28C233.086 66.7573 232.404 66.496 231.582 66.496Z" fill="#4D4D4D"/>
</svg>
