<svg width="31" height="24" viewBox="0 0 31 24" fill="none" xmlns="http://www.w3.org/2000/svg">
<path fill-rule="evenodd" clip-rule="evenodd" d="M12.5776 0H29.655C30.1696 0 30.5555 0.418091 30.5555 0.900503V15.791C30.5555 16.2734 30.1374 16.6915 29.655 16.6915H22.0007V19.2965L25.1846 22.4804C25.5384 22.8342 25.5384 23.3809 25.1846 23.7347C24.9917 23.8955 24.7665 23.992 24.5414 23.992C24.3163 23.992 24.059 23.8955 23.8982 23.7347L21.1002 20.9367L18.3022 23.7347C17.9485 24.0884 17.4017 24.0884 17.048 23.7347C16.6942 23.3809 16.6942 22.8342 17.048 22.4804L20.2319 19.2965V16.6915H12.5776C12.063 16.6915 11.6771 16.2734 11.6771 15.791V13.1216H13.1887C13.2851 13.1216 13.3816 13.1216 13.4781 13.0894V14.8905H28.7866V1.801H13.4781V7.68643H11.6771V0.900503C11.6771 0.38593 12.0952 0 12.5776 0ZM14.1856 9.84121L13.6389 11.2884C13.5746 11.4492 13.3816 11.5779 13.1565 11.5779H8.84694C8.33236 11.5779 7.88211 11.996 7.88211 12.5106L7.36754 23.0593C7.33538 23.5739 6.91729 23.992 6.40271 23.992H3.44392C2.92935 23.992 2.51126 23.5739 2.4791 23.0593L2.12533 16.9166C1.54643 16.8523 0.999699 16.7879 0.581609 16.6915C0.22784 16.6271 -0.0294467 16.2734 0.00271411 15.8874L0.420805 12.0281C0.581609 10.4201 1.96452 9.19799 3.57256 9.19799H13.7354C14.0891 9.19799 14.3143 9.5196 14.1856 9.84121ZM4.95548 8.29748C6.73167 8.29748 8.17156 6.8576 8.17156 5.0814C8.17156 3.30521 6.73167 1.86532 4.95548 1.86532C3.17929 1.86532 1.7394 3.30521 1.7394 5.0814C1.7394 6.8576 3.17929 8.29748 4.95548 8.29748ZM25.5062 5.4995H16.6942C16.2117 5.4995 15.7937 5.11357 15.7937 4.59899C15.7937 4.08442 16.2117 3.69849 16.6942 3.69849H25.5062C26.0208 3.69849 26.4067 4.08442 26.4067 4.59899C26.4067 5.11357 25.9886 5.4995 25.5062 5.4995ZM16.6942 9.23015H25.5062C25.9886 9.23015 26.4067 8.84422 26.4067 8.32965C26.4067 7.81508 26.0208 7.42915 25.5062 7.42915H16.6942C16.2117 7.42915 15.7937 7.81508 15.7937 8.32965C15.7937 8.84422 16.2117 9.23015 16.6942 9.23015ZM25.5062 12.9608H16.6942C16.2117 12.9608 15.8258 12.5427 15.7937 12.0603C15.7937 11.5457 16.2117 11.1598 16.6942 11.1598H25.5062C26.0208 11.1598 26.4067 11.5779 26.4067 12.0603C26.4067 12.5749 25.9886 12.9608 25.5062 12.9608Z" fill="#176BEF"/>
</svg>
