<svg width="52" height="52" viewBox="0 0 52 52" fill="none" xmlns="http://www.w3.org/2000/svg">
<circle cx="26" cy="26" r="26" fill="white"/>
<path fill-rule="evenodd" clip-rule="evenodd" d="M23.5776 14H40.655C41.1696 14 41.5555 14.4181 41.5555 14.9005V29.791C41.5555 30.2734 41.1374 30.6915 40.655 30.6915H33.0007V33.2965L36.1846 36.4804C36.5384 36.8342 36.5384 37.3809 36.1846 37.7347C35.9917 37.8955 35.7665 37.992 35.5414 37.992C35.3163 37.992 35.059 37.8955 34.8982 37.7347L32.1002 34.9367L29.3022 37.7347C28.9485 38.0884 28.4017 38.0884 28.048 37.7347C27.6942 37.3809 27.6942 36.8342 28.048 36.4804L31.2319 33.2965V30.6915H23.5776C23.063 30.6915 22.6771 30.2734 22.6771 29.791V27.1216H24.1887C24.2851 27.1216 24.3816 27.1216 24.4781 27.0894V28.8905H39.7866V15.801H24.4781V21.6864H22.6771V14.9005C22.6771 14.3859 23.0952 14 23.5776 14ZM25.1856 23.8412L24.6389 25.2884C24.5746 25.4492 24.3816 25.5779 24.1565 25.5779H19.8469C19.3324 25.5779 18.8821 25.996 18.8821 26.5106L18.3675 37.0593C18.3354 37.5739 17.9173 37.992 17.4027 37.992H14.4439C13.9293 37.992 13.5113 37.5739 13.4791 37.0593L13.1253 30.9166C12.5464 30.8523 11.9997 30.7879 11.5816 30.6915C11.2278 30.6271 10.9706 30.2734 11.0027 29.8874L11.4208 26.0281C11.5816 24.4201 12.9645 23.198 14.5726 23.198H24.7354C25.0891 23.198 25.3143 23.5196 25.1856 23.8412ZM15.9555 22.2975C17.7317 22.2975 19.1716 20.8576 19.1716 19.0814C19.1716 17.3052 17.7317 15.8653 15.9555 15.8653C14.1793 15.8653 12.7394 17.3052 12.7394 19.0814C12.7394 20.8576 14.1793 22.2975 15.9555 22.2975ZM36.5062 19.4995H27.6942C27.2117 19.4995 26.7937 19.1136 26.7937 18.599C26.7937 18.0844 27.2117 17.6985 27.6942 17.6985H36.5062C37.0208 17.6985 37.4067 18.0844 37.4067 18.599C37.4067 19.1136 36.9886 19.4995 36.5062 19.4995ZM27.6942 23.2302H36.5062C36.9886 23.2302 37.4067 22.8442 37.4067 22.3296C37.4067 21.8151 37.0208 21.4291 36.5062 21.4291H27.6942C27.2117 21.4291 26.7937 21.8151 26.7937 22.3296C26.7937 22.8442 27.2117 23.2302 27.6942 23.2302ZM36.5062 26.9608H27.6942C27.2117 26.9608 26.8258 26.5427 26.7937 26.0603C26.7937 25.5457 27.2117 25.1598 27.6942 25.1598H36.5062C37.0208 25.1598 37.4067 25.5779 37.4067 26.0603C37.4067 26.5749 36.9886 26.9608 36.5062 26.9608Z" fill="#1B236D"/>
</svg>
