<svg width="18" height="24" viewBox="0 0 18 24" fill="none" xmlns="http://www.w3.org/2000/svg">
<path d="M0 0V24H15.2498L18 21.2498V0H0ZM7.587 11.8305C7.587 12.0758 7.5375 12.309 7.4475 12.5212L10.9882 15.0068C11.3047 14.7143 11.724 14.532 12.189 14.532C13.17 14.532 13.965 15.327 13.965 16.308C13.965 17.289 13.17 18.084 12.189 18.084C11.208 18.084 10.413 17.289 10.413 16.308C10.413 16.0627 10.4625 15.8295 10.5525 15.6172L7.01175 13.1318C6.69525 13.4243 6.276 13.6065 5.811 13.6065C4.83 13.6065 4.035 12.8115 4.035 11.8305C4.035 10.8495 4.83 10.0545 5.811 10.0545C6.29925 10.0545 6.741 10.2518 7.06275 10.5713L10.533 8.31975C10.4588 8.124 10.413 7.914 10.413 7.692C10.413 6.711 11.208 5.916 12.189 5.916C13.17 5.916 13.965 6.711 13.965 7.692C13.965 8.673 13.17 9.468 12.189 9.468C11.7008 9.468 11.2583 9.27075 10.9373 8.95125L7.467 11.2035C7.54125 11.3985 7.587 11.6085 7.587 11.8305Z" fill="#176BEF"/>
</svg>
