<svg width="52" height="52" viewBox="0 0 52 52" fill="none" xmlns="http://www.w3.org/2000/svg">
<circle cx="26" cy="26" r="26" fill="white"/>
<path d="M17 15V39H32.2498L35 36.2498V15H17ZM24.587 26.8305C24.587 27.0758 24.5375 27.309 24.4475 27.5212L27.9882 30.0068C28.3047 29.7143 28.724 29.532 29.189 29.532C30.17 29.532 30.965 30.327 30.965 31.308C30.965 32.289 30.17 33.084 29.189 33.084C28.208 33.084 27.413 32.289 27.413 31.308C27.413 31.0627 27.4625 30.8295 27.5525 30.6172L24.0117 28.1318C23.6952 28.4243 23.276 28.6065 22.811 28.6065C21.83 28.6065 21.035 27.8115 21.035 26.8305C21.035 25.8495 21.83 25.0545 22.811 25.0545C23.2993 25.0545 23.741 25.2518 24.0627 25.5713L27.533 23.3198C27.4588 23.124 27.413 22.914 27.413 22.692C27.413 21.711 28.208 20.916 29.189 20.916C30.17 20.916 30.965 21.711 30.965 22.692C30.965 23.673 30.17 24.468 29.189 24.468C28.7008 24.468 28.2583 24.2708 27.9373 23.9513L24.467 26.2035C24.5413 26.3985 24.587 26.6085 24.587 26.8305Z" fill="#32397C"/>
</svg>
