<svg width="52" height="52" viewBox="0 0 52 52" fill="none" xmlns="http://www.w3.org/2000/svg">
<circle cx="26" cy="26" r="26" fill="white"/>
<path d="M30.88 19.1032L25.9284 14.2274C25.8526 14.1516 25.7768 14.1011 25.6758 14.0758V19.4316H31.0316C31.0063 19.28 30.9558 19.1789 30.88 19.1032Z" fill="#1B236D"/>
<path d="M30.3495 24.4589C30.6021 24.4589 30.8547 24.4589 31.1074 24.4842V20.9221H24.9179C24.4884 20.9221 24.16 20.5937 24.16 20.1642V14H16.7579C16.3284 14 16 14.3284 16 14.7579V31.9874C16 32.4168 16.3284 32.7453 16.7579 32.7453H22.8211C22.7958 32.4926 22.7958 32.24 22.7958 31.9874C22.7958 27.8189 26.1811 24.4589 30.3495 24.4589Z" fill="#1B236D"/>
<path d="M30.3494 25.9747C27.0147 25.9747 24.3368 28.6779 24.3368 31.9874C24.3368 35.3221 27.0399 38 30.3494 38C33.6842 38 36.3621 35.2968 36.3621 31.9874C36.3621 28.6526 33.6589 25.9747 30.3494 25.9747ZM32.901 31.9116H31.5621V34.9937C31.5621 35.1705 31.4357 35.2968 31.2589 35.2968H29.3894C29.2126 35.2968 29.0863 35.1705 29.0863 34.9937V31.9116H27.7473C27.4947 31.9116 27.3431 31.6084 27.5199 31.4063L30.0968 28.5768C30.2231 28.4505 30.4252 28.4505 30.5515 28.5768L33.1284 31.4063C33.3052 31.6084 33.1789 31.9116 32.901 31.9116Z" fill="#1B236D"/>
</svg>
