<svg width="21" height="24" viewBox="0 0 21 24" fill="none" xmlns="http://www.w3.org/2000/svg">
<path d="M14.88 5.10314L9.92841 0.227354C9.85262 0.151565 9.77683 0.101038 9.67578 0.0757751V5.43156H15.0316C15.0063 5.27999 14.9558 5.17893 14.88 5.10314Z" fill="#176BEF"/>
<path d="M14.3495 10.4589C14.6021 10.4589 14.8547 10.4589 15.1074 10.4842V6.92211H8.91789C8.48842 6.92211 8.16 6.59368 8.16 6.16421V0H0.757895C0.328421 0 0 0.328421 0 0.757895V17.9874C0 18.4168 0.328421 18.7453 0.757895 18.7453H6.82105C6.79579 18.4926 6.79579 18.24 6.79579 17.9874C6.79579 13.8189 10.1811 10.4589 14.3495 10.4589Z" fill="#176BEF"/>
<path d="M14.3494 11.9747C11.0147 11.9747 8.33679 14.6779 8.33679 17.9874C8.33679 21.3221 11.0399 24 14.3494 24C17.6842 24 20.3621 21.2968 20.3621 17.9874C20.3621 14.6526 17.6589 11.9747 14.3494 11.9747ZM16.901 17.9116H15.5621V20.9937C15.5621 21.1705 15.4357 21.2968 15.2589 21.2968H13.3894C13.2126 21.2968 13.0863 21.1705 13.0863 20.9937V17.9116H11.7473C11.4947 17.9116 11.3431 17.6084 11.5199 17.4063L14.0968 14.5768C14.2231 14.4505 14.4252 14.4505 14.5515 14.5768L17.1284 17.4063C17.3052 17.6084 17.1789 17.9116 16.901 17.9116Z" fill="#176BEF"/>
</svg>
