<svg width="670" height="420" viewBox="0 0 670 420" fill="none" xmlns="http://www.w3.org/2000/svg">
<path fill-rule="evenodd" clip-rule="evenodd" d="M2.53125 257.415C2.53125 258.196 1.96461 258.83 1.26562 258.83C0.56664 258.83 0 258.196 0 257.415C0 256.633 0.56664 256 1.26562 256C1.96461 256 2.53125 256.633 2.53125 257.415ZM20.25 257.415C20.25 258.196 19.6834 258.83 18.9844 258.83C18.2854 258.83 17.7188 258.196 17.7188 257.415C17.7188 256.633 18.2854 256 18.9844 256C19.6834 256 20.25 256.633 20.25 257.415ZM36.7031 258.83C37.4021 258.83 37.9688 258.196 37.9688 257.415C37.9688 256.633 37.4021 256 36.7031 256C36.0041 256 35.4375 256.633 35.4375 257.415C35.4375 258.196 36.0041 258.83 36.7031 258.83ZM55.6875 257.415C55.6875 258.196 55.1209 258.83 54.4219 258.83C53.7229 258.83 53.1562 258.196 53.1562 257.415C53.1562 256.633 53.7229 256 54.4219 256C55.1209 256 55.6875 256.633 55.6875 257.415ZM72.1406 258.83C72.8396 258.83 73.4062 258.196 73.4062 257.415C73.4062 256.633 72.8396 256 72.1406 256C71.4416 256 70.875 256.633 70.875 257.415C70.875 258.196 71.4416 258.83 72.1406 258.83ZM91.125 257.415C91.125 258.196 90.5584 258.83 89.8594 258.83C89.1604 258.83 88.5938 258.196 88.5938 257.415C88.5938 256.633 89.1604 256 89.8594 256C90.5584 256 91.125 256.633 91.125 257.415ZM107.578 258.83C108.277 258.83 108.844 258.196 108.844 257.415C108.844 256.633 108.277 256 107.578 256C106.879 256 106.312 256.633 106.312 257.415C106.312 258.196 106.879 258.83 107.578 258.83ZM126.562 257.415C126.562 258.196 125.996 258.83 125.297 258.83C124.598 258.83 124.031 258.196 124.031 257.415C124.031 256.633 124.598 256 125.297 256C125.996 256 126.562 256.633 126.562 257.415ZM143.016 258.83C143.715 258.83 144.281 258.196 144.281 257.415C144.281 256.633 143.715 256 143.016 256C142.317 256 141.75 256.633 141.75 257.415C141.75 258.196 142.317 258.83 143.016 258.83ZM162 257.415C162 258.196 161.433 258.83 160.734 258.83C160.035 258.83 159.469 258.196 159.469 257.415C159.469 256.633 160.035 256 160.734 256C161.433 256 162 256.633 162 257.415ZM2.53125 275.1C2.53125 275.882 1.96461 276.515 1.26562 276.515C0.56664 276.515 0 275.882 0 275.1C0 274.319 0.56664 273.686 1.26562 273.686C1.96461 273.686 2.53125 274.319 2.53125 275.1ZM20.25 275.1C20.25 275.882 19.6834 276.515 18.9844 276.515C18.2854 276.515 17.7188 275.882 17.7188 275.1C17.7188 274.319 18.2854 273.686 18.9844 273.686C19.6834 273.686 20.25 274.319 20.25 275.1ZM36.7031 276.515C37.4021 276.515 37.9688 275.882 37.9688 275.1C37.9688 274.319 37.4021 273.686 36.7031 273.686C36.0041 273.686 35.4375 274.319 35.4375 275.1C35.4375 275.882 36.0041 276.515 36.7031 276.515ZM55.6875 275.1C55.6875 275.882 55.1209 276.515 54.4219 276.515C53.7229 276.515 53.1562 275.882 53.1562 275.1C53.1562 274.319 53.7229 273.686 54.4219 273.686C55.1209 273.686 55.6875 274.319 55.6875 275.1ZM72.1406 276.515C72.8396 276.515 73.4062 275.882 73.4062 275.1C73.4062 274.319 72.8396 273.686 72.1406 273.686C71.4416 273.686 70.875 274.319 70.875 275.1C70.875 275.882 71.4416 276.515 72.1406 276.515ZM91.125 275.1C91.125 275.882 90.5584 276.515 89.8594 276.515C89.1604 276.515 88.5938 275.882 88.5938 275.1C88.5938 274.319 89.1604 273.686 89.8594 273.686C90.5584 273.686 91.125 274.319 91.125 275.1ZM107.578 276.515C108.277 276.515 108.844 275.882 108.844 275.1C108.844 274.319 108.277 273.686 107.578 273.686C106.879 273.686 106.312 274.319 106.312 275.1C106.312 275.882 106.879 276.515 107.578 276.515ZM126.562 275.1C126.562 275.882 125.996 276.515 125.297 276.515C124.598 276.515 124.031 275.882 124.031 275.1C124.031 274.319 124.598 273.686 125.297 273.686C125.996 273.686 126.562 274.319 126.562 275.1ZM143.016 276.515C143.715 276.515 144.281 275.882 144.281 275.1C144.281 274.319 143.715 273.686 143.016 273.686C142.317 273.686 141.75 274.319 141.75 275.1C141.75 275.882 142.317 276.515 143.016 276.515ZM162 275.1C162 275.882 161.433 276.515 160.734 276.515C160.035 276.515 159.469 275.882 159.469 275.1C159.469 274.319 160.035 273.686 160.734 273.686C161.433 273.686 162 274.319 162 275.1ZM1.26562 294.201C1.96461 294.201 2.53125 293.567 2.53125 292.786C2.53125 292.005 1.96461 291.371 1.26562 291.371C0.56664 291.371 0 292.005 0 292.786C0 293.567 0.56664 294.201 1.26562 294.201ZM18.9844 294.201C19.6834 294.201 20.25 293.567 20.25 292.786C20.25 292.005 19.6834 291.371 18.9844 291.371C18.2854 291.371 17.7188 292.005 17.7188 292.786C17.7188 293.567 18.2854 294.201 18.9844 294.201ZM37.9688 292.786C37.9688 293.567 37.4021 294.201 36.7031 294.201C36.0041 294.201 35.4375 293.567 35.4375 292.786C35.4375 292.005 36.0041 291.371 36.7031 291.371C37.4021 291.371 37.9688 292.005 37.9688 292.786ZM54.4219 294.201C55.1209 294.201 55.6875 293.567 55.6875 292.786C55.6875 292.005 55.1209 291.371 54.4219 291.371C53.7229 291.371 53.1562 292.005 53.1562 292.786C53.1562 293.567 53.7229 294.201 54.4219 294.201ZM73.4062 292.786C73.4062 293.567 72.8396 294.201 72.1406 294.201C71.4416 294.201 70.875 293.567 70.875 292.786C70.875 292.005 71.4416 291.371 72.1406 291.371C72.8396 291.371 73.4062 292.005 73.4062 292.786ZM89.8594 294.201C90.5584 294.201 91.125 293.567 91.125 292.786C91.125 292.005 90.5584 291.371 89.8594 291.371C89.1604 291.371 88.5938 292.005 88.5938 292.786C88.5938 293.567 89.1604 294.201 89.8594 294.201ZM108.844 292.786C108.844 293.567 108.277 294.201 107.578 294.201C106.879 294.201 106.312 293.567 106.312 292.786C106.312 292.005 106.879 291.371 107.578 291.371C108.277 291.371 108.844 292.005 108.844 292.786ZM125.297 294.201C125.996 294.201 126.562 293.567 126.562 292.786C126.562 292.005 125.996 291.371 125.297 291.371C124.598 291.371 124.031 292.005 124.031 292.786C124.031 293.567 124.598 294.201 125.297 294.201ZM144.281 292.786C144.281 293.567 143.715 294.201 143.016 294.201C142.317 294.201 141.75 293.567 141.75 292.786C141.75 292.005 142.317 291.371 143.016 291.371C143.715 291.371 144.281 292.005 144.281 292.786ZM160.734 294.201C161.433 294.201 162 293.567 162 292.786C162 292.005 161.433 291.371 160.734 291.371C160.035 291.371 159.469 292.005 159.469 292.786C159.469 293.567 160.035 294.201 160.734 294.201ZM2.53125 310.472C2.53125 311.253 1.96461 311.886 1.26562 311.886C0.56664 311.886 0 311.253 0 310.472C0 309.69 0.56664 309.057 1.26562 309.057C1.96461 309.057 2.53125 309.69 2.53125 310.472ZM20.25 310.472C20.25 311.253 19.6834 311.886 18.9844 311.886C18.2854 311.886 17.7188 311.253 17.7188 310.472C17.7188 309.69 18.2854 309.057 18.9844 309.057C19.6834 309.057 20.25 309.69 20.25 310.472ZM36.7031 311.886C37.4021 311.886 37.9688 311.253 37.9688 310.472C37.9688 309.69 37.4021 309.057 36.7031 309.057C36.0041 309.057 35.4375 309.69 35.4375 310.472C35.4375 311.253 36.0041 311.886 36.7031 311.886ZM55.6875 310.472C55.6875 311.253 55.1209 311.886 54.4219 311.886C53.7229 311.886 53.1562 311.253 53.1562 310.472C53.1562 309.69 53.7229 309.057 54.4219 309.057C55.1209 309.057 55.6875 309.69 55.6875 310.472ZM72.1406 311.886C72.8396 311.886 73.4062 311.253 73.4062 310.472C73.4062 309.69 72.8396 309.057 72.1406 309.057C71.4416 309.057 70.875 309.69 70.875 310.472C70.875 311.253 71.4416 311.886 72.1406 311.886ZM91.125 310.472C91.125 311.253 90.5584 311.886 89.8594 311.886C89.1604 311.886 88.5938 311.253 88.5938 310.472C88.5938 309.69 89.1604 309.057 89.8594 309.057C90.5584 309.057 91.125 309.69 91.125 310.472ZM107.578 311.886C108.277 311.886 108.844 311.253 108.844 310.472C108.844 309.69 108.277 309.057 107.578 309.057C106.879 309.057 106.312 309.69 106.312 310.472C106.312 311.253 106.879 311.886 107.578 311.886ZM126.562 310.472C126.562 311.253 125.996 311.886 125.297 311.886C124.598 311.886 124.031 311.253 124.031 310.472C124.031 309.69 124.598 309.057 125.297 309.057C125.996 309.057 126.562 309.69 126.562 310.472ZM143.016 311.886C143.715 311.886 144.281 311.253 144.281 310.472C144.281 309.69 143.715 309.057 143.016 309.057C142.317 309.057 141.75 309.69 141.75 310.472C141.75 311.253 142.317 311.886 143.016 311.886ZM162 310.472C162 311.253 161.433 311.886 160.734 311.886C160.035 311.886 159.469 311.253 159.469 310.472C159.469 309.69 160.035 309.057 160.734 309.057C161.433 309.057 162 309.69 162 310.472ZM1.26562 329.572C1.96461 329.572 2.53125 328.939 2.53125 328.157C2.53125 327.376 1.96461 326.742 1.26562 326.742C0.56664 326.742 0 327.376 0 328.157C0 328.939 0.56664 329.572 1.26562 329.572ZM18.9844 329.572C19.6834 329.572 20.25 328.939 20.25 328.157C20.25 327.376 19.6834 326.742 18.9844 326.742C18.2854 326.742 17.7188 327.376 17.7188 328.157C17.7188 328.939 18.2854 329.572 18.9844 329.572ZM37.9688 328.157C37.9688 328.939 37.4021 329.572 36.7031 329.572C36.0041 329.572 35.4375 328.939 35.4375 328.157C35.4375 327.376 36.0041 326.742 36.7031 326.742C37.4021 326.742 37.9688 327.376 37.9688 328.157ZM54.4219 329.572C55.1209 329.572 55.6875 328.939 55.6875 328.157C55.6875 327.376 55.1209 326.742 54.4219 326.742C53.7229 326.742 53.1562 327.376 53.1562 328.157C53.1562 328.939 53.7229 329.572 54.4219 329.572ZM73.4062 328.157C73.4062 328.939 72.8396 329.572 72.1406 329.572C71.4416 329.572 70.875 328.939 70.875 328.157C70.875 327.376 71.4416 326.742 72.1406 326.742C72.8396 326.742 73.4062 327.376 73.4062 328.157ZM89.8594 329.572C90.5584 329.572 91.125 328.939 91.125 328.157C91.125 327.376 90.5584 326.742 89.8594 326.742C89.1604 326.742 88.5938 327.376 88.5938 328.157C88.5938 328.939 89.1604 329.572 89.8594 329.572ZM108.844 328.157C108.844 328.939 108.277 329.572 107.578 329.572C106.879 329.572 106.312 328.939 106.312 328.157C106.312 327.376 106.879 326.742 107.578 326.742C108.277 326.742 108.844 327.376 108.844 328.157ZM125.297 329.572C125.996 329.572 126.562 328.939 126.562 328.157C126.562 327.376 125.996 326.742 125.297 326.742C124.598 326.742 124.031 327.376 124.031 328.157C124.031 328.939 124.598 329.572 125.297 329.572ZM144.281 328.157C144.281 328.939 143.715 329.572 143.016 329.572C142.317 329.572 141.75 328.939 141.75 328.157C141.75 327.376 142.317 326.742 143.016 326.742C143.715 326.742 144.281 327.376 144.281 328.157ZM160.734 329.572C161.433 329.572 162 328.939 162 328.157C162 327.376 161.433 326.742 160.734 326.742C160.035 326.742 159.469 327.376 159.469 328.157C159.469 328.939 160.035 329.572 160.734 329.572ZM2.53125 345.843C2.53125 346.624 1.96461 347.258 1.26562 347.258C0.56664 347.258 0 346.624 0 345.843C0 345.061 0.56664 344.428 1.26562 344.428C1.96461 344.428 2.53125 345.061 2.53125 345.843ZM20.25 345.843C20.25 346.624 19.6834 347.258 18.9844 347.258C18.2854 347.258 17.7188 346.624 17.7188 345.843C17.7188 345.061 18.2854 344.428 18.9844 344.428C19.6834 344.428 20.25 345.061 20.25 345.843ZM36.7031 347.258C37.4021 347.258 37.9688 346.624 37.9688 345.843C37.9688 345.061 37.4021 344.428 36.7031 344.428C36.0041 344.428 35.4375 345.061 35.4375 345.843C35.4375 346.624 36.0041 347.258 36.7031 347.258ZM55.6875 345.843C55.6875 346.624 55.1209 347.258 54.4219 347.258C53.7229 347.258 53.1562 346.624 53.1562 345.843C53.1562 345.061 53.7229 344.428 54.4219 344.428C55.1209 344.428 55.6875 345.061 55.6875 345.843ZM72.1406 347.258C72.8396 347.258 73.4062 346.624 73.4062 345.843C73.4062 345.061 72.8396 344.428 72.1406 344.428C71.4416 344.428 70.875 345.061 70.875 345.843C70.875 346.624 71.4416 347.258 72.1406 347.258ZM91.125 345.843C91.125 346.624 90.5584 347.258 89.8594 347.258C89.1604 347.258 88.5938 346.624 88.5938 345.843C88.5938 345.061 89.1604 344.428 89.8594 344.428C90.5584 344.428 91.125 345.061 91.125 345.843ZM107.578 347.258C108.277 347.258 108.844 346.624 108.844 345.843C108.844 345.061 108.277 344.428 107.578 344.428C106.879 344.428 106.312 345.061 106.312 345.843C106.312 346.624 106.879 347.258 107.578 347.258ZM126.562 345.843C126.562 346.624 125.996 347.258 125.297 347.258C124.598 347.258 124.031 346.624 124.031 345.843C124.031 345.061 124.598 344.428 125.297 344.428C125.996 344.428 126.562 345.061 126.562 345.843ZM143.016 347.258C143.715 347.258 144.281 346.624 144.281 345.843C144.281 345.061 143.715 344.428 143.016 344.428C142.317 344.428 141.75 345.061 141.75 345.843C141.75 346.624 142.317 347.258 143.016 347.258ZM162 345.843C162 346.624 161.433 347.258 160.734 347.258C160.035 347.258 159.469 346.624 159.469 345.843C159.469 345.061 160.035 344.428 160.734 344.428C161.433 344.428 162 345.061 162 345.843ZM1.26562 364.943C1.96461 364.943 2.53125 364.31 2.53125 363.528C2.53125 362.747 1.96461 362.114 1.26562 362.114C0.56664 362.114 0 362.747 0 363.528C0 364.31 0.56664 364.943 1.26562 364.943ZM18.9844 364.943C19.6834 364.943 20.25 364.31 20.25 363.528C20.25 362.747 19.6834 362.114 18.9844 362.114C18.2854 362.114 17.7188 362.747 17.7188 363.528C17.7188 364.31 18.2854 364.943 18.9844 364.943ZM37.9688 363.528C37.9688 364.31 37.4021 364.943 36.7031 364.943C36.0041 364.943 35.4375 364.31 35.4375 363.528C35.4375 362.747 36.0041 362.114 36.7031 362.114C37.4021 362.114 37.9688 362.747 37.9688 363.528ZM54.4219 364.943C55.1209 364.943 55.6875 364.31 55.6875 363.528C55.6875 362.747 55.1209 362.114 54.4219 362.114C53.7229 362.114 53.1562 362.747 53.1562 363.528C53.1562 364.31 53.7229 364.943 54.4219 364.943ZM73.4062 363.528C73.4062 364.31 72.8396 364.943 72.1406 364.943C71.4416 364.943 70.875 364.31 70.875 363.528C70.875 362.747 71.4416 362.114 72.1406 362.114C72.8396 362.114 73.4062 362.747 73.4062 363.528ZM89.8594 364.943C90.5584 364.943 91.125 364.31 91.125 363.528C91.125 362.747 90.5584 362.114 89.8594 362.114C89.1604 362.114 88.5938 362.747 88.5938 363.528C88.5938 364.31 89.1604 364.943 89.8594 364.943ZM108.844 363.528C108.844 364.31 108.277 364.943 107.578 364.943C106.879 364.943 106.312 364.31 106.312 363.528C106.312 362.747 106.879 362.114 107.578 362.114C108.277 362.114 108.844 362.747 108.844 363.528ZM125.297 364.943C125.996 364.943 126.562 364.31 126.562 363.528C126.562 362.747 125.996 362.114 125.297 362.114C124.598 362.114 124.031 362.747 124.031 363.528C124.031 364.31 124.598 364.943 125.297 364.943ZM144.281 363.528C144.281 364.31 143.715 364.943 143.016 364.943C142.317 364.943 141.75 364.31 141.75 363.528C141.75 362.747 142.317 362.114 143.016 362.114C143.715 362.114 144.281 362.747 144.281 363.528ZM160.734 364.943C161.433 364.943 162 364.31 162 363.528C162 362.747 161.433 362.114 160.734 362.114C160.035 362.114 159.469 362.747 159.469 363.528C159.469 364.31 160.035 364.943 160.734 364.943ZM2.53125 381.214C2.53125 381.995 1.96461 382.629 1.26562 382.629C0.56664 382.629 0 381.995 0 381.214C0 380.433 0.56664 379.799 1.26562 379.799C1.96461 379.799 2.53125 380.433 2.53125 381.214ZM20.25 381.214C20.25 381.995 19.6834 382.629 18.9844 382.629C18.2854 382.629 17.7188 381.995 17.7188 381.214C17.7188 380.433 18.2854 379.799 18.9844 379.799C19.6834 379.799 20.25 380.433 20.25 381.214ZM36.7031 382.629C37.4021 382.629 37.9688 381.995 37.9688 381.214C37.9688 380.433 37.4021 379.799 36.7031 379.799C36.0041 379.799 35.4375 380.433 35.4375 381.214C35.4375 381.995 36.0041 382.629 36.7031 382.629ZM55.6875 381.214C55.6875 381.995 55.1209 382.629 54.4219 382.629C53.7229 382.629 53.1562 381.995 53.1562 381.214C53.1562 380.433 53.7229 379.799 54.4219 379.799C55.1209 379.799 55.6875 380.433 55.6875 381.214ZM72.1406 382.629C72.8396 382.629 73.4062 381.995 73.4062 381.214C73.4062 380.433 72.8396 379.799 72.1406 379.799C71.4416 379.799 70.875 380.433 70.875 381.214C70.875 381.995 71.4416 382.629 72.1406 382.629ZM91.125 381.214C91.125 381.995 90.5584 382.629 89.8594 382.629C89.1604 382.629 88.5938 381.995 88.5938 381.214C88.5938 380.433 89.1604 379.799 89.8594 379.799C90.5584 379.799 91.125 380.433 91.125 381.214ZM107.578 382.629C108.277 382.629 108.844 381.995 108.844 381.214C108.844 380.433 108.277 379.799 107.578 379.799C106.879 379.799 106.312 380.433 106.312 381.214C106.312 381.995 106.879 382.629 107.578 382.629ZM126.562 381.214C126.562 381.995 125.996 382.629 125.297 382.629C124.598 382.629 124.031 381.995 124.031 381.214C124.031 380.433 124.598 379.799 125.297 379.799C125.996 379.799 126.562 380.433 126.562 381.214ZM143.016 382.629C143.715 382.629 144.281 381.995 144.281 381.214C144.281 380.433 143.715 379.799 143.016 379.799C142.317 379.799 141.75 380.433 141.75 381.214C141.75 381.995 142.317 382.629 143.016 382.629ZM162 381.214C162 381.995 161.433 382.629 160.734 382.629C160.035 382.629 159.469 381.995 159.469 381.214C159.469 380.433 160.035 379.799 160.734 379.799C161.433 379.799 162 380.433 162 381.214ZM1.26562 400.314C1.96461 400.314 2.53125 399.681 2.53125 398.9C2.53125 398.118 1.96461 397.485 1.26562 397.485C0.56664 397.485 0 398.118 0 398.9C0 399.681 0.56664 400.314 1.26562 400.314ZM18.9844 400.314C19.6834 400.314 20.25 399.681 20.25 398.9C20.25 398.118 19.6834 397.485 18.9844 397.485C18.2854 397.485 17.7188 398.118 17.7188 398.9C17.7188 399.681 18.2854 400.314 18.9844 400.314ZM37.9688 398.9C37.9688 399.681 37.4021 400.314 36.7031 400.314C36.0041 400.314 35.4375 399.681 35.4375 398.9C35.4375 398.118 36.0041 397.485 36.7031 397.485C37.4021 397.485 37.9688 398.118 37.9688 398.9ZM54.4219 400.314C55.1209 400.314 55.6875 399.681 55.6875 398.9C55.6875 398.118 55.1209 397.485 54.4219 397.485C53.7229 397.485 53.1562 398.118 53.1562 398.9C53.1562 399.681 53.7229 400.314 54.4219 400.314ZM73.4062 398.9C73.4062 399.681 72.8396 400.314 72.1406 400.314C71.4416 400.314 70.875 399.681 70.875 398.9C70.875 398.118 71.4416 397.485 72.1406 397.485C72.8396 397.485 73.4062 398.118 73.4062 398.9ZM89.8594 400.314C90.5584 400.314 91.125 399.681 91.125 398.9C91.125 398.118 90.5584 397.485 89.8594 397.485C89.1604 397.485 88.5938 398.118 88.5938 398.9C88.5938 399.681 89.1604 400.314 89.8594 400.314ZM108.844 398.9C108.844 399.681 108.277 400.314 107.578 400.314C106.879 400.314 106.312 399.681 106.312 398.9C106.312 398.118 106.879 397.485 107.578 397.485C108.277 397.485 108.844 398.118 108.844 398.9ZM125.297 400.314C125.996 400.314 126.562 399.681 126.562 398.9C126.562 398.118 125.996 397.485 125.297 397.485C124.598 397.485 124.031 398.118 124.031 398.9C124.031 399.681 124.598 400.314 125.297 400.314ZM144.281 398.9C144.281 399.681 143.715 400.314 143.016 400.314C142.317 400.314 141.75 399.681 141.75 398.9C141.75 398.118 142.317 397.485 143.016 397.485C143.715 397.485 144.281 398.118 144.281 398.9ZM160.734 400.314C161.433 400.314 162 399.681 162 398.9C162 398.118 161.433 397.485 160.734 397.485C160.035 397.485 159.469 398.118 159.469 398.9C159.469 399.681 160.035 400.314 160.734 400.314ZM2.53125 416.585C2.53125 417.367 1.96461 418 1.26562 418C0.56664 418 0 417.367 0 416.585C0 415.804 0.56664 415.17 1.26562 415.17C1.96461 415.17 2.53125 415.804 2.53125 416.585ZM20.25 416.585C20.25 417.367 19.6834 418 18.9844 418C18.2854 418 17.7188 417.367 17.7188 416.585C17.7188 415.804 18.2854 415.17 18.9844 415.17C19.6834 415.17 20.25 415.804 20.25 416.585ZM36.7031 418C37.4021 418 37.9688 417.367 37.9688 416.585C37.9688 415.804 37.4021 415.17 36.7031 415.17C36.0041 415.17 35.4375 415.804 35.4375 416.585C35.4375 417.367 36.0041 418 36.7031 418ZM55.6875 416.585C55.6875 417.367 55.1209 418 54.4219 418C53.7229 418 53.1562 417.367 53.1562 416.585C53.1562 415.804 53.7229 415.17 54.4219 415.17C55.1209 415.17 55.6875 415.804 55.6875 416.585ZM72.1406 418C72.8396 418 73.4062 417.367 73.4062 416.585C73.4062 415.804 72.8396 415.17 72.1406 415.17C71.4416 415.17 70.875 415.804 70.875 416.585C70.875 417.367 71.4416 418 72.1406 418ZM91.125 416.585C91.125 417.367 90.5584 418 89.8594 418C89.1604 418 88.5938 417.367 88.5938 416.585C88.5938 415.804 89.1604 415.17 89.8594 415.17C90.5584 415.17 91.125 415.804 91.125 416.585ZM107.578 418C108.277 418 108.844 417.367 108.844 416.585C108.844 415.804 108.277 415.17 107.578 415.17C106.879 415.17 106.312 415.804 106.312 416.585C106.312 417.367 106.879 418 107.578 418ZM126.562 416.585C126.562 417.367 125.996 418 125.297 418C124.598 418 124.031 417.367 124.031 416.585C124.031 415.804 124.598 415.17 125.297 415.17C125.996 415.17 126.562 415.804 126.562 416.585ZM143.016 418C143.715 418 144.281 417.367 144.281 416.585C144.281 415.804 143.715 415.17 143.016 415.17C142.317 415.17 141.75 415.804 141.75 416.585C141.75 417.367 142.317 418 143.016 418ZM162 416.585C162 417.367 161.433 418 160.734 418C160.035 418 159.469 417.367 159.469 416.585C159.469 415.804 160.035 415.17 160.734 415.17C161.433 415.17 162 415.804 162 416.585Z" fill="#32397C"/>
<path fill-rule="evenodd" clip-rule="evenodd" d="M88.2806 371.916H641.69C652.678 348.151 666.104 311.155 668.249 264.555C669.795 230.972 671.139 201.763 652.754 187.078C628.989 168.098 596.979 206.963 554.248 203.68C471.859 197.352 457.8 42.548 371.624 33.2318C289.721 24.3767 206.373 134.731 187.893 200.36C185.839 207.655 182.307 223.542 168.709 232.827C143.043 250.35 114.533 221.812 80.5328 234.671C55.7631 244.039 32.9073 273.552 35.1539 306.614C37.1333 335.737 58.1847 361.663 88.2806 371.916Z" fill="#32397C"/>
<mask id="mask0" mask-type="alpha" maskUnits="userSpaceOnUse" x="35" y="32" width="635" height="340">
<path d="M88.2804 371.916H641.69C652.678 348.152 666.103 311.156 668.249 264.555C669.795 230.972 671.139 201.764 652.753 187.079C628.989 168.098 632.397 107.35 589.664 104.068C507.276 97.7397 457.799 42.5485 371.623 33.2321C289.72 24.377 131.108 76.0708 112.629 141.7C110.575 148.995 182.306 223.543 168.708 232.827C143.042 250.351 114.532 221.813 80.5318 234.672C55.7621 244.039 32.9063 273.552 35.1529 306.614C37.1331 335.738 58.1845 361.663 88.2804 371.916Z" fill="white"/>
</mask>
<g mask="url(#mask0)">
<path fill-rule="evenodd" clip-rule="evenodd" d="M222.749 370.067C225.166 369.17 219.564 322.381 185.546 280.173C174.679 266.69 153.831 240.823 129.474 243.338C122.938 244.013 112.436 247.116 110.104 254.246C107.406 262.497 116.476 273.617 125.407 279.066C136.786 286.007 143.499 281.03 150.087 287.724C157.587 295.344 150.414 303.344 158.367 316.012C164.822 326.296 175.932 331.194 180.12 333.039C187.056 336.097 189.443 335.449 194.559 337.296C214.931 344.649 220.909 370.75 222.749 370.067Z" fill="#0073DD"/>
<path fill-rule="evenodd" clip-rule="evenodd" d="M222.749 370.067C225.166 369.17 219.564 322.381 185.546 280.173C174.679 266.69 153.831 240.823 129.474 243.338C122.938 244.013 112.436 247.116 110.104 254.246C107.406 262.497 116.476 273.617 125.407 279.066C136.786 286.007 143.499 281.03 150.087 287.724C157.587 295.344 150.414 303.344 158.367 316.012C164.822 326.296 175.932 331.194 180.12 333.039C187.056 336.097 189.443 335.449 194.559 337.296C214.931 344.649 220.909 370.75 222.749 370.067Z" fill="#C4E6FF" fill-opacity="0.6"/>
<path fill-rule="evenodd" clip-rule="evenodd" d="M221.961 370.803C223.822 367.793 184.804 328.945 128.517 319.276C93.8491 313.32 77.1735 322.648 71.2613 326.562C68.9002 328.125 55.3451 337.101 57.0672 344.888C58.8396 352.902 76.602 358.793 89.2739 353.713C100.814 349.089 100.765 338.315 109.444 337.256C119.398 336.041 122.407 349.851 138.197 356.286C151.434 361.68 157.25 355.209 176.774 356.279C204.829 357.816 220.785 372.705 221.961 370.803Z" fill="#0073DD"/>
<path fill-rule="evenodd" clip-rule="evenodd" d="M221.961 370.803C223.822 367.793 184.804 328.945 128.517 319.276C93.8491 313.32 77.1735 322.648 71.2613 326.562C68.9002 328.125 55.3451 337.101 57.0672 344.888C58.8396 352.902 76.602 358.793 89.2739 353.713C100.814 349.089 100.765 338.315 109.444 337.256C119.398 336.041 122.407 349.851 138.197 356.286C151.434 361.68 157.25 355.209 176.774 356.279C204.829 357.816 220.785 372.705 221.961 370.803Z" fill="#C4E6FF" fill-opacity="0.2"/>
<path fill-rule="evenodd" clip-rule="evenodd" d="M224.727 370.962C229.141 371.4 251.373 306.077 231.248 237.39C218.853 195.085 199.165 181.453 191.502 176.955C188.442 175.158 170.87 164.845 163.055 171.074C155.012 177.483 158.165 200.723 170.864 212.189C182.429 222.631 194.526 216.641 200.501 225.826C207.352 236.362 193.466 247.357 194.922 268.676C196.141 286.547 206.63 289.53 216.182 312.097C229.907 344.521 221.938 370.686 224.727 370.962Z" fill="#0073DD"/>
<path fill-rule="evenodd" clip-rule="evenodd" d="M224.727 370.962C229.141 371.4 251.373 306.077 231.248 237.39C218.853 195.085 199.165 181.453 191.502 176.955C188.442 175.158 170.87 164.845 163.055 171.074C155.012 177.483 158.165 200.723 170.864 212.189C182.429 222.631 194.526 216.641 200.501 225.826C207.352 236.362 193.466 247.357 194.922 268.676C196.141 286.547 206.63 289.53 216.182 312.097C229.907 344.521 221.938 370.686 224.727 370.962Z" fill="black" fill-opacity="0.2"/>
<path fill-rule="evenodd" clip-rule="evenodd" d="M515.878 377.081C512.602 372.041 520.689 358.902 531.004 351.993C540.809 345.427 546.586 348.532 557.937 343.138C570.454 337.191 576.985 326.973 583.394 316.944C598.251 293.696 591.476 284.438 603.317 273.778C615.04 263.225 636.521 258.941 649.434 268.982C656.1 274.166 662.129 284.447 659.395 294.808C656.837 304.5 643.055 300.113 628.404 313.253C625.344 315.999 617.986 322.753 614.385 333.545C610.208 346.061 615.4 351.076 611.433 357.895C606.326 366.673 593.914 364.904 569.743 368.225C534.029 373.133 519.535 382.708 515.878 377.081Z" fill="#0073DD"/>
<path fill-rule="evenodd" clip-rule="evenodd" d="M515.878 377.081C512.602 372.041 520.689 358.902 531.004 351.993C540.809 345.427 546.586 348.532 557.937 343.138C570.454 337.191 576.985 326.973 583.394 316.944C598.251 293.696 591.476 284.438 603.317 273.778C615.04 263.225 636.521 258.941 649.434 268.982C656.1 274.166 662.129 284.447 659.395 294.808C656.837 304.5 643.055 300.113 628.404 313.253C625.344 315.999 617.986 322.753 614.385 333.545C610.208 346.061 615.4 351.076 611.433 357.895C606.326 366.673 593.914 364.904 569.743 368.225C534.029 373.133 519.535 382.708 515.878 377.081Z" fill="#C4E6FF" fill-opacity="0.6"/>
<path fill-rule="evenodd" clip-rule="evenodd" d="M556.092 253.857C551.019 280.888 561.789 291.219 557.199 309.935C552.495 329.116 528.422 327.227 522.15 349.042C520.833 353.62 520.744 357.044 517.723 361.955C512.288 370.795 503.017 375.259 495.118 377.664C494.246 377.929 493.308 377.874 492.473 377.509C492.393 377.477 492.315 377.44 492.24 377.399C491.441 376.991 490.81 376.316 490.458 375.491C488.226 370.262 486.499 363.493 488.208 356.421C490.554 346.714 497.442 344.416 503.703 335.76C506.975 331.233 509.68 325.526 511.82 286.692C513.705 252.462 511.872 252.122 514.771 243.157C520.604 225.135 527.68 227.562 537.276 206.264C547.057 184.552 542.243 176.388 553.878 159.778C557.83 154.14 567.533 140.287 577.49 142.068C577.568 142.082 577.648 142.097 577.727 142.116C577.819 142.13 577.911 142.152 578.004 142.175C586.356 144.123 592.166 156.611 592.986 167.156C594.241 183.263 583.427 189.27 568.636 220.651C561.641 235.491 558.147 242.914 556.092 253.857Z" fill="#0073DD"/>
<path fill-rule="evenodd" clip-rule="evenodd" d="M556.092 253.857C551.019 280.888 561.789 291.219 557.199 309.935C552.495 329.116 528.422 327.227 522.15 349.042C520.833 353.62 520.744 357.044 517.723 361.955C512.288 370.795 503.017 375.259 495.118 377.664C494.246 377.929 493.308 377.874 492.473 377.509C492.393 377.477 492.315 377.44 492.24 377.399C491.441 376.991 490.81 376.316 490.458 375.491C488.226 370.262 486.499 363.493 488.208 356.421C490.554 346.714 497.442 344.416 503.703 335.76C506.975 331.233 509.68 325.526 511.82 286.692C513.705 252.462 511.872 252.122 514.771 243.157C520.604 225.135 527.68 227.562 537.276 206.264C547.057 184.552 542.243 176.388 553.878 159.778C557.83 154.14 567.533 140.287 577.49 142.068C577.568 142.082 577.648 142.097 577.727 142.116C577.819 142.13 577.911 142.152 578.004 142.175C586.356 144.123 592.166 156.611 592.986 167.156C594.241 183.263 583.427 189.27 568.636 220.651C561.641 235.491 558.147 242.914 556.092 253.857Z" fill="#C4E6FF" fill-opacity="0.2"/>
<path fill-rule="evenodd" clip-rule="evenodd" d="M578.003 142.176C577.957 149.887 577.238 157.581 575.852 165.167C573.698 176.892 569.89 188.355 564.231 198.869L563.165 200.836C562.785 201.478 562.39 202.109 562.003 202.747L560.837 204.658L559.586 206.514C559.162 207.127 558.76 207.757 558.32 208.359L557 210.163C556.133 211.38 555.192 212.539 554.284 213.723C550.599 218.405 546.762 222.99 543.736 228.13C540.693 233.254 538.63 238.903 537.203 244.677C535.801 250.462 535.085 256.427 535.35 262.378C535.474 265.352 535.798 268.314 536.321 271.244C536.834 274.177 537.516 277.08 538.243 279.969C538.97 282.857 539.741 285.743 540.342 288.665C540.985 291.585 541.356 294.558 541.453 297.546C541.515 300.539 541.165 303.526 540.412 306.423C539.648 309.314 538.558 312.11 537.166 314.757C536.474 316.082 535.713 317.368 534.886 318.612C534.048 319.85 533.14 321.039 532.167 322.172C531.189 323.301 530.157 324.38 529.071 325.408C527.983 326.43 526.857 327.411 525.714 328.367C523.419 330.274 521.054 332.093 518.785 334.019C516.499 335.93 514.333 337.98 512.299 340.158C508.241 344.523 504.876 349.492 502.032 354.72C498.084 361.974 494.882 369.61 492.473 377.509C491.403 381.018 490.492 384.568 489.74 388.161L489.629 388.139C490.338 384.523 491.209 380.943 492.242 377.399C494.55 369.453 497.658 361.762 501.517 354.443C504.332 349.157 507.697 344.11 511.77 339.664C513.806 337.449 515.977 335.362 518.27 333.414C520.547 331.455 522.901 329.614 525.162 327.707C526.292 326.747 527.394 325.774 528.457 324.759C529.512 323.74 530.514 322.677 531.464 321.568C532.405 320.455 533.286 319.292 534.101 318.084C534.907 316.868 535.647 315.609 536.318 314.314C537.667 311.728 538.721 308.999 539.462 306.179C540.181 303.365 540.513 300.467 540.447 297.564C540.341 294.64 539.968 291.732 539.333 288.876C538.728 285.994 537.953 283.124 537.219 280.228C536.484 277.332 535.783 274.402 535.256 271.432C534.716 268.456 534.378 265.446 534.245 262.423C533.99 256.361 534.744 250.289 536.178 244.43C537.639 238.582 539.757 232.831 542.871 227.621C545.962 222.401 549.855 217.781 553.533 213.129C557.211 208.477 560.635 203.644 563.48 198.46L564.553 196.52C564.893 195.863 565.202 195.192 565.527 194.528L566.498 192.531C566.655 192.195 566.83 191.867 566.974 191.527L567.405 190.505L569.132 186.41L570.674 182.237C572.625 176.631 574.165 170.89 575.282 165.06C576.769 157.498 577.587 149.821 577.728 142.116C577.819 142.131 577.911 142.153 578.003 142.176Z" fill="white"/>
<path fill-rule="evenodd" clip-rule="evenodd" d="M492.635 346.091C491.565 360.353 498.556 369.883 493.373 374.499C492.14 375.602 490.521 376.148 488.783 376.318C488.658 376.329 488.536 376.34 488.415 376.347C485.656 376.535 482.656 375.816 480.461 374.868C464.534 367.994 463.962 337.513 463.859 332.071C463.471 311.388 470.149 309.418 470.5 288.536C470.832 268.798 464.936 266.426 463.121 245.74C460.9 220.482 466.7 189.949 475.786 185.99C475.9 185.938 476.011 185.894 476.125 185.854C476.454 185.736 476.794 185.652 477.14 185.603C485.552 184.448 498.343 205.551 501.121 225.817C503.921 246.237 494.454 250.524 497.431 272.672C500.018 291.904 508.094 295.627 507.761 311.041C507.407 327.597 493.941 328.684 492.635 346.091Z" fill="#0073DD"/>
<path fill-rule="evenodd" clip-rule="evenodd" d="M492.635 346.091C491.565 360.353 498.556 369.883 493.373 374.499C492.14 375.602 490.521 376.148 488.783 376.318C488.658 376.329 488.536 376.34 488.415 376.347C485.656 376.535 482.656 375.816 480.461 374.868C464.534 367.994 463.962 337.513 463.859 332.071C463.471 311.388 470.149 309.418 470.5 288.536C470.832 268.798 464.936 266.426 463.121 245.74C460.9 220.482 466.7 189.949 475.786 185.99C475.9 185.938 476.011 185.894 476.125 185.854C476.454 185.736 476.794 185.652 477.14 185.603C485.552 184.448 498.343 205.551 501.121 225.817C503.921 246.237 494.454 250.524 497.431 272.672C500.018 291.904 508.094 295.627 507.761 311.041C507.407 327.597 493.941 328.684 492.635 346.091Z" fill="#C4E6FF" fill-opacity="0.6"/>
<path fill-rule="evenodd" clip-rule="evenodd" d="M495.623 384.419L495.55 384.5C492.921 382.012 490.532 379.282 488.414 376.347C487.816 375.524 487.241 374.679 486.688 373.824C484.132 369.931 482.033 365.755 480.434 361.38C478.845 356.986 477.791 352.416 477.294 347.769C476.996 345.418 477.01 343.037 477.335 340.689C477.686 338.344 478.317 336.049 479.213 333.853C480.958 329.474 483.297 325.489 484.854 321.228C486.439 316.983 487.264 312.492 487.289 307.961C487.317 305.703 487.166 303.447 486.838 301.213C486.464 298.991 485.871 296.811 485.067 294.705C484.282 292.569 483.4 290.411 482.647 288.189C481.898 285.963 481.272 283.698 480.773 281.404C480.552 280.253 480.304 279.106 480.142 277.947L479.873 276.213L479.67 274.471L479.471 272.73C479.397 272.152 479.382 271.564 479.334 270.981L479.22 269.229C479.176 268.643 479.191 268.056 479.172 267.469C479.079 262.783 479.474 258.101 480.353 253.497C481.19 248.907 482.334 244.429 483.142 239.92C483.981 235.42 484.461 230.86 484.577 226.284C484.667 221.702 484.376 217.12 483.706 212.586C483.024 208.042 482.007 203.554 480.663 199.16C479.326 194.753 477.73 190.429 475.885 186.21L475.785 185.989C475.899 185.936 476.01 185.893 476.125 185.852L476.221 186.059C478.139 190.266 479.807 194.583 481.216 198.987C482.619 203.396 483.69 207.903 484.422 212.471C485.142 217.043 485.48 221.667 485.432 226.295C485.372 230.922 484.921 235.536 484.082 240.086C483.281 244.643 482.156 249.129 481.341 253.674C480.491 258.214 480.118 262.829 480.227 267.447C480.245 268.022 480.234 268.598 480.279 269.173L480.401 270.9C480.449 271.475 480.468 272.051 480.541 272.626L480.744 274.342L480.951 276.061L481.224 277.769C481.386 278.913 481.633 280.038 481.854 281.171C482.34 283.425 482.947 285.652 483.673 287.841C484.404 290.029 485.275 292.173 486.064 294.346C486.882 296.515 487.483 298.761 487.857 301.049C488.19 303.342 488.337 305.658 488.297 307.974C488.255 312.618 487.394 317.218 485.751 321.562C484.947 323.731 483.958 325.827 482.943 327.904C481.929 329.981 480.881 332.04 480.01 334.176C479.12 336.303 478.485 338.528 478.121 340.806C477.783 343.088 477.748 345.406 478.018 347.697C478.466 352.296 479.463 356.824 480.987 361.186C482.505 365.55 484.521 369.725 486.997 373.626C487.565 374.541 488.161 375.438 488.784 376.316C489.493 377.323 490.234 378.304 491.001 379.271C492.438 381.077 493.982 382.796 495.623 384.419Z" fill="white"/>
<path fill-rule="evenodd" clip-rule="evenodd" d="M524.689 379.628C529.399 373.446 535.138 368.12 541.654 363.883C548.238 359.745 555.69 356.873 563.449 355.788C565.383 355.507 567.328 355.322 569.266 355.194C571.204 355.066 573.136 355.007 575.045 354.89C576.933 354.8 578.813 354.583 580.672 354.24C581.583 354.065 582.482 353.831 583.362 353.537C585.112 352.959 586.766 352.125 588.272 351.062C588.636 350.784 589.025 350.536 589.362 350.227L589.882 349.783C590.058 349.637 590.209 349.466 590.374 349.31C591.675 348.031 592.737 346.529 593.51 344.876C595.099 341.557 595.671 337.769 596.121 333.983C596.583 330.184 596.903 326.311 597.548 322.457C598.154 318.574 599.182 314.769 600.613 311.109C602.088 307.46 604.006 304.006 606.325 300.826C606.903 300.033 607.526 299.275 608.124 298.498L608.579 297.92L609.067 297.372L610.049 296.279C610.379 295.917 610.7 295.548 611.038 295.194L612.088 294.169L613.137 293.145L613.663 292.633L614.216 292.154L616.432 290.241C617.178 289.614 617.972 289.047 618.739 288.447L619.899 287.559C620.284 287.261 620.699 287.006 621.098 286.727L623.511 285.088C623.907 284.805 624.333 284.571 624.746 284.315L625.994 283.563L627.241 282.81C627.657 282.56 628.069 282.303 628.502 282.083L631.067 280.708L632.349 280.021C632.775 279.79 633.221 279.598 633.658 279.391C637.151 277.709 640.719 276.2 644.335 274.831L647.059 273.837C647.969 273.512 648.867 273.156 649.793 272.88L655.32 271.145L655.354 271.251C648.02 273.636 640.808 276.434 633.921 279.912C633.491 280.129 633.05 280.325 632.629 280.559L631.363 281.257L628.83 282.652C628.402 282.876 627.996 283.136 627.587 283.39L626.357 284.152L625.128 284.914C624.721 285.172 624.301 285.409 623.912 285.695L621.539 287.346C621.148 287.627 620.74 287.885 620.362 288.184L619.225 289.076C618.472 289.678 617.694 290.247 616.965 290.876L614.799 292.789C611.96 295.397 609.383 298.276 607.106 301.386C604.847 304.512 602.982 307.903 601.551 311.484C600.163 315.08 599.172 318.817 598.594 322.628C597.973 326.433 597.671 330.281 597.222 334.116C596.992 336.033 596.719 337.948 596.303 339.839C595.907 341.737 595.29 343.583 594.465 345.338C593.632 347.096 592.493 348.692 591.099 350.05C590.923 350.217 590.759 350.397 590.574 350.552L590.018 351.022C589.657 351.348 589.247 351.61 588.859 351.901C587.268 353.014 585.521 353.885 583.675 354.486C582.755 354.788 581.815 355.03 580.863 355.208C578.96 355.552 577.036 355.766 575.104 355.85C571.249 356.054 567.387 356.12 563.567 356.646C555.916 357.624 548.537 360.371 541.965 364.386C538.683 366.412 535.592 368.732 532.729 371.316C529.872 373.908 527.215 376.711 524.779 379.702L524.689 379.628Z" fill="white"/>
</g>
<path fill-rule="evenodd" clip-rule="evenodd" d="M379.74 358.634V304.032H325.137V358.634L297.468 369.702H407.411L379.74 358.634Z" fill="#404884"/>
<path fill-rule="evenodd" clip-rule="evenodd" d="M219.156 102.961H492.732C496.143 102.961 498.907 105.726 498.907 109.136V308.556C498.907 311.966 496.143 314.731 492.732 314.731H219.156C215.746 314.731 212.981 311.966 212.981 308.556V109.136C212.981 105.726 215.746 102.961 219.156 102.961Z" fill="#404884"/>
<path fill-rule="evenodd" clip-rule="evenodd" d="M223.838 108.864H488.051C491.659 108.864 494.583 111.789 494.583 115.396V296.392C494.583 300 491.659 302.925 488.051 302.925H223.838C220.23 302.925 217.306 300 217.306 296.392V115.396C217.306 111.789 220.23 108.864 223.838 108.864Z" fill="white"/>
<path fill-rule="evenodd" clip-rule="evenodd" d="M469.378 108.496C469.378 108.496 470.37 87.0979 455.502 87.0979H336.56C336.56 87.0979 348.784 95.5835 346.471 108.496H469.378Z" fill="#353B6E"/>
<path fill-rule="evenodd" clip-rule="evenodd" d="M321.08 86.7277C336.206 86.7277 429.548 85.9898 443.936 86.3598L444.478 86.3742C448.956 86.4949 452.053 86.3598 451.684 87.0976C448.714 93.036 443.512 111.281 443.198 129.156C442.595 163.525 443.963 214.4 444.483 231.855C444.531 233.466 443.925 235.028 442.802 236.185C441.679 237.341 440.135 237.993 438.523 237.993H317.705C314.455 237.993 311.804 235.391 311.743 232.142C311.323 209.367 309.953 127.196 311.855 112.923C314.07 96.32 316.284 86.7277 321.08 86.7277Z" fill="#0073DD"/>
<path fill-rule="evenodd" clip-rule="evenodd" d="M321.08 86.7277C336.206 86.7277 429.548 85.9898 443.936 86.3598L444.478 86.3742C448.956 86.4949 452.053 86.3598 451.684 87.0976C448.714 93.036 443.512 111.281 443.198 129.156C442.595 163.525 443.963 214.4 444.483 231.855C444.531 233.466 443.925 235.028 442.802 236.185C441.679 237.341 440.135 237.993 438.523 237.993H317.705C314.455 237.993 311.804 235.391 311.743 232.142C311.323 209.367 309.953 127.196 311.855 112.923C314.07 96.32 316.284 86.7277 321.08 86.7277Z" fill="#C4E6FF" fill-opacity="0.2"/>
<path fill-rule="evenodd" clip-rule="evenodd" d="M296.36 216.594C296.36 216.594 295.295 237.993 311.278 237.993H439.139C439.139 237.993 425.998 229.507 428.484 216.595L296.36 216.594Z" fill="#0073DD"/>
<path fill-rule="evenodd" clip-rule="evenodd" d="M296.36 216.594C296.36 216.594 295.295 237.993 311.278 237.993H439.139C439.139 237.993 425.998 229.507 428.484 216.595L296.36 216.594Z" fill="#C4E6FF" fill-opacity="0.6"/>
<path d="M422.906 104.252H329.934V105.359H422.906V104.252Z" fill="white"/>
<path d="M422.906 118.456H329.934V119.563H422.906V118.456Z" fill="white"/>
<path d="M422.906 132.66H329.934V133.767H422.906V132.66Z" fill="white"/>
<path d="M422.906 146.865H329.934V147.971H422.906V146.865Z" fill="white"/>
<path d="M422.906 161.068H329.934V162.175H422.906V161.068Z" fill="white"/>
<path d="M422.906 175.272H329.934V176.379H422.906V175.272Z" fill="white"/>
<path d="M422.906 189.477H329.934V190.583H422.906V189.477Z" fill="white"/>
<path d="M422.906 203.681H329.934V204.787H422.906V203.681Z" fill="white"/>
<path d="M379.741 103.699H328.458V163.098H379.741V103.699Z" fill="#176BEF"/>
<path d="M375.281 108.864H332.918V157.933H375.281V108.864Z" fill="white"/>
<path fill-rule="evenodd" clip-rule="evenodd" d="M323.945 142.32L323.934 142.336L315.545 133.583L310.012 139.117L319.159 149.244C319.64 150.21 321.227 153.063 323.99 154.903L330.092 159.392L332.487 156.138L326.549 151.69C326.549 151.69 336.868 150.112 340.572 145.077L342.967 141.822C342.967 141.822 334.826 147.277 323.945 142.32Z" fill="#353B6E"/>
<path fill-rule="evenodd" clip-rule="evenodd" d="M258.226 160.826L260.205 154.243L251.719 153.505L249.884 160.849C249.489 161.586 247.939 164.723 248.105 168.254V175.831H252.145L252.208 168.412C252.208 168.412 259.595 175.789 265.845 175.789H269.886C269.886 175.789 259.694 170.299 258.226 160.826Z" fill="#353B6E"/>
<path fill-rule="evenodd" clip-rule="evenodd" d="M285.293 89.3103C281.794 107.532 262.23 147.269 258.586 160.825L248.091 157.62C248.091 157.62 252.464 142.314 253.776 133.713C255.088 125.113 260.189 105.143 263.688 97.8538C263.688 97.8538 212.231 116.95 219.229 78.6123C219.228 78.6112 288.791 71.0889 285.293 89.3103Z" fill="#353B6E"/>
<path fill-rule="evenodd" clip-rule="evenodd" d="M218.146 80.4553C218.146 80.4553 214.855 102.226 224.184 103.246C233.513 104.266 259.169 101.351 262.813 104.995C266.457 108.639 280.16 123.07 293.279 131.233C306.399 139.396 313.541 146.248 313.541 146.248L322.433 139.397C322.433 139.397 294.154 104.704 288.469 98.2902C282.784 91.8767 277.496 81.4078 267.583 80.8247C257.671 80.2416 219.991 80.4553 218.146 80.4553Z" fill="#36B37E"/>
<path fill-rule="evenodd" clip-rule="evenodd" d="M236.595 0.0387169C241.326 -0.416911 245.148 3.28908 245.66 3.79962C249.73 7.85823 249.316 13.7798 248.625 17.8734C247.703 23.3362 252.53 24.3407 254.654 28.7804C256.662 32.9756 254.296 39.505 249.891 42.2498C243.835 46.0243 235.455 41.6927 231.24 37.7424C222.203 29.2722 225.181 15.8693 225.614 14.056C226.068 12.1557 228.785 0.79074 236.595 0.0387169Z" fill="#353B6E"/>
<path fill-rule="evenodd" clip-rule="evenodd" d="M244.081 6.51762C244.081 6.51762 249.993 23.1357 241.473 21.9733C236.479 21.2916 234.009 16.6978 234.009 16.6978C234.009 16.6978 231.673 17.1426 231.121 14.2849C230.753 12.3819 233.286 10.6325 234.176 14.0728C234.176 14.0728 235.183 14.0844 236.049 11.8209C236.591 10.4047 236.781 8.5761 238.768 9.01412C240.756 9.45214 243.868 7.58601 244.081 6.51762Z" fill="#E6A9A5"/>
<path fill-rule="evenodd" clip-rule="evenodd" d="M242.905 21.2023C242.905 21.2023 238.333 27.7603 239.217 31.5504C240.102 35.3405 225.049 36.8634 228.308 29.895C231.567 22.9266 233.984 21.3418 236.866 14.7599C239.748 8.17802 242.905 21.2023 242.905 21.2023Z" fill="#E6A9A5"/>
<path fill-rule="evenodd" clip-rule="evenodd" d="M245.817 27.3291C242.968 28.0328 241.357 30.167 242.007 33.029C244.692 44.8711 251.45 73.0002 255.053 73.0107C259.616 73.0236 276.44 73.8153 276.44 73.8153L279.022 65.6986L258.731 66.4364L252.089 35.8148C251.642 33.2691 251.484 30.4704 249.436 28.8931C247.406 27.3291 245.817 27.3291 245.817 27.3291Z" fill="#E6A9A5"/>
<path fill-rule="evenodd" clip-rule="evenodd" d="M245.7 27.3486C248.596 26.8791 251.335 28.8136 251.861 31.6999C254.032 43.6466 265.764 59.4806 262.454 60.9021C258.26 62.7026 245.483 60.5343 245.483 60.5343L241.252 33.5813C241.008 32.1639 241.34 30.7077 242.176 29.537C243.011 28.3663 244.28 27.5783 245.7 27.3486Z" fill="#FB3331"/>
<path fill-rule="evenodd" clip-rule="evenodd" d="M245.7 27.3486C248.596 26.8791 251.335 28.8136 251.861 31.6999C254.032 43.6466 265.764 59.4806 262.454 60.9021C258.26 62.7026 245.483 60.5343 245.483 60.5343L241.252 33.5813C241.008 32.1639 241.34 30.7077 242.176 29.537C243.011 28.3663 244.28 27.5783 245.7 27.3486Z" fill="black" fill-opacity="0.1"/>
<path fill-rule="evenodd" clip-rule="evenodd" d="M252.457 48.7273C244.71 64.5916 254.302 80.4558 254.302 80.4558H218.147C218.147 80.4558 228.108 64.5916 223.681 57.2127C219.253 49.8338 213.719 35.4455 215.195 31.3872C216.28 28.3988 223.367 27.41 227.027 27.0966C228.341 26.9859 229.215 26.9599 229.215 26.9599L241.836 26.6972L244.341 26.9599C246.555 27.3278 247.433 27.5982 248.259 29.1921C251.369 35.1838 255.754 41.9778 252.457 48.7273Z" fill="url(#paint0_linear)"/>
<path fill-rule="evenodd" clip-rule="evenodd" d="M284.924 64.5916C284.924 64.5916 290.089 61.64 290.458 60.5332C290.827 59.4265 292.672 60.9011 290.826 62.7467C288.981 64.5924 287.506 65.3294 287.506 65.3294L284.924 64.5916Z" fill="#E6A9A5"/>
<path fill-rule="evenodd" clip-rule="evenodd" d="M231.889 84.3289H272.79L289.905 72.1457L249.584 72.7259L231.889 84.3289Z" fill="#AFAFAF"/>
<path fill-rule="evenodd" clip-rule="evenodd" d="M289.905 72.1465L272.79 84.33V46.4747L289.216 31.5719L289.905 72.1465Z" fill="#DDDDDD"/>
<path fill-rule="evenodd" clip-rule="evenodd" d="M234.38 71.9712C234.38 71.9712 241.389 73.8158 242.496 73.4469C243.603 73.078 247.292 70.8645 249.875 71.9712C251.709 72.7572 254.287 74.4738 255.628 75.4024C255.857 75.5612 255.974 75.8382 255.928 76.1132C255.882 76.3882 255.681 76.6119 255.412 76.6873C254.687 76.8692 253.932 76.8961 253.195 76.7661C250.319 76.4032 247.397 76.7843 244.71 77.8729C242.792 78.6948 231.797 76.3972 231.797 76.3972L234.38 71.9712Z" fill="#E6A9A5"/>
<path fill-rule="evenodd" clip-rule="evenodd" d="M220.142 28.4556C217.246 27.9853 214.506 29.9202 213.981 32.8069C211.81 44.7539 208.195 71.287 211.505 72.7085C215.699 74.509 235.117 77.1358 235.117 77.1358L236.962 72.3396L219.189 66.0499L224.589 34.6872C224.834 33.2701 224.501 31.8143 223.666 30.6438C222.83 29.4734 221.562 28.6855 220.142 28.4556Z" fill="#E6A9A5"/>
<path fill-rule="evenodd" clip-rule="evenodd" d="M220.143 28.4556C217.247 27.9853 214.507 29.9202 213.982 32.8069C211.811 44.7539 200.079 60.5879 203.389 62.0094C207.583 63.8099 220.36 61.6416 220.36 61.6416L224.591 34.6885C224.835 33.2711 224.503 31.8148 223.667 30.6441C222.832 29.4733 221.563 28.6853 220.143 28.4556Z" fill="#FB3331"/>
<path fill-rule="evenodd" clip-rule="evenodd" d="M220.143 28.4556C217.247 27.9853 214.507 29.9202 213.982 32.8069C211.811 44.7539 200.079 60.5879 203.389 62.0094C207.583 63.8099 220.36 61.6416 220.36 61.6416L224.591 34.6885C224.835 33.2711 224.503 31.8148 223.667 30.6441C222.832 29.4733 221.563 28.6853 220.143 28.4556Z" fill="white" fill-opacity="0.15"/>
<path fill-rule="evenodd" clip-rule="evenodd" d="M286.891 64.9211C287.017 64.2657 287.574 63.781 288.241 63.7463C289.552 63.6861 291.565 63.8369 291.565 65.3294C291.565 67.5429 291.197 71.2324 288.244 70.8634C286.04 70.5881 286.511 66.8146 286.891 64.9211Z" fill="#E6A9A5"/>
<path fill-rule="evenodd" clip-rule="evenodd" d="M240.651 39.5039C236.759 39.1791 228.871 29.443 227.026 27.0966C228.34 26.9859 229.214 26.9599 229.214 26.9599L241.835 26.6972C245.071 33.103 244.89 39.8581 240.651 39.5039Z" fill="#E6A9A5"/>
<path d="M169.662 148.956H160.854V155.747H169.662V148.956Z" fill="#685696"/>
<path fill-rule="evenodd" clip-rule="evenodd" d="M174.521 136.92C174.521 131.213 169.779 126.661 164.181 127.319C160.131 127.796 156.774 131.103 156.121 135.301C155.61 138.383 156.58 141.526 158.739 143.785C160.072 145.126 160.831 146.934 160.854 148.825V148.956H169.662V148.871C169.67 146.98 170.417 145.166 171.744 143.819C173.536 141.971 174.533 139.494 174.521 136.92Z" fill="#FFB000"/>
<path fill-rule="evenodd" clip-rule="evenodd" d="M162.151 136.016C162.641 136.016 162.874 136.431 163.08 136.795C163.29 137.171 163.439 137.398 163.708 137.398C163.977 137.398 164.123 137.171 164.334 136.796C164.539 136.43 164.772 136.016 165.262 136.016C165.751 136.016 165.984 136.43 166.189 136.796C166.4 137.171 166.548 137.398 166.816 137.398C167.084 137.398 167.231 137.171 167.442 136.796C167.647 136.43 167.88 136.016 168.369 136.016C168.859 136.016 169.091 136.43 169.296 136.795C169.506 137.17 169.654 137.398 169.921 137.398C170.017 137.398 170.094 137.475 170.094 137.57C170.094 137.666 170.017 137.743 169.921 137.743C169.432 137.743 169.2 137.329 168.995 136.964C168.785 136.589 168.637 136.361 168.369 136.361C168.102 136.361 167.954 136.589 167.743 136.966C167.538 137.331 167.305 137.744 166.816 137.744C166.327 137.744 166.094 137.331 165.889 136.966C165.679 136.59 165.531 136.361 165.262 136.361C164.994 136.361 164.847 136.589 164.635 136.966C164.431 137.331 164.198 137.744 163.708 137.744C163.219 137.744 162.985 137.331 162.78 136.966C162.569 136.59 162.421 136.363 162.151 136.363C161.882 136.363 161.735 136.59 161.524 136.966C161.318 137.331 161.086 137.744 160.595 137.744C160.5 137.744 160.422 137.667 160.422 137.572C160.422 137.476 160.5 137.399 160.595 137.399C160.864 137.399 161.012 137.172 161.223 136.795C161.428 136.43 161.661 136.016 162.151 136.016Z" fill="white"/>
<path fill-rule="evenodd" clip-rule="evenodd" d="M165.583 143.051H164.936C164.349 143.051 163.874 143.434 163.874 143.906V148.957H166.645V143.906C166.644 143.434 166.169 143.051 165.583 143.051Z" fill="white"/>
<path fill-rule="evenodd" clip-rule="evenodd" d="M164.398 143.902C164.321 143.902 164.25 143.863 164.207 143.799L160.231 137.696C160.186 137.628 160.182 137.541 160.218 137.468C160.255 137.396 160.328 137.348 160.409 137.344C160.49 137.339 160.568 137.378 160.613 137.446L164.589 143.549C164.635 143.619 164.639 143.709 164.599 143.783C164.559 143.856 164.482 143.902 164.398 143.902V143.902Z" fill="white"/>
<path fill-rule="evenodd" clip-rule="evenodd" d="M166.118 143.902C166.034 143.902 165.956 143.856 165.917 143.782C165.877 143.708 165.881 143.619 165.927 143.549L169.904 137.446C169.948 137.378 170.026 137.339 170.107 137.343C170.188 137.348 170.261 137.395 170.298 137.468C170.335 137.54 170.33 137.627 170.285 137.695L166.308 143.798C166.266 143.863 166.194 143.902 166.118 143.902Z" fill="white"/>
<path fill-rule="evenodd" clip-rule="evenodd" d="M175.046 121.142C175.263 120.76 175.131 120.275 174.751 120.055C174.371 119.835 173.884 119.964 173.662 120.343L171.492 124.103C171.387 124.285 171.359 124.502 171.414 124.705C171.47 124.908 171.604 125.08 171.788 125.184L171.802 125.191C172.178 125.407 172.658 125.278 172.876 124.902L175.046 121.142Z" fill="#FFB000"/>
<path fill-rule="evenodd" clip-rule="evenodd" d="M181.412 128.093C181.791 127.871 181.919 127.384 181.7 127.004C181.48 126.624 180.995 126.492 180.613 126.709L176.854 128.88C176.478 129.097 176.349 129.577 176.565 129.953L176.572 129.967C176.676 130.151 176.848 130.285 177.051 130.341C177.254 130.397 177.471 130.369 177.653 130.263L181.412 128.093Z" fill="#FFB000"/>
<path fill-rule="evenodd" clip-rule="evenodd" d="M183.452 135.698H179.09C178.655 135.699 178.303 136.052 178.303 136.487V136.507C178.303 136.942 178.655 137.294 179.09 137.295H183.452C183.74 137.3 184.01 137.149 184.156 136.9C184.302 136.65 184.302 136.342 184.156 136.092C184.01 135.843 183.74 135.692 183.452 135.697V135.698Z" fill="#FFB000"/>
<path fill-rule="evenodd" clip-rule="evenodd" d="M180.614 146.285C180.995 146.502 181.481 146.371 181.7 145.99C181.92 145.61 181.791 145.124 181.413 144.901L177.653 142.731C177.471 142.626 177.254 142.598 177.051 142.653C176.848 142.709 176.675 142.843 176.572 143.027L176.564 143.041C176.349 143.417 176.478 143.897 176.853 144.114L180.614 146.285Z" fill="#FFB000"/>
<path fill-rule="evenodd" clip-rule="evenodd" d="M149.105 144.901C148.857 145.044 148.705 145.308 148.705 145.593C148.705 145.879 148.857 146.142 149.104 146.285C149.352 146.428 149.656 146.428 149.903 146.285L153.663 144.114C154.038 143.897 154.168 143.417 153.952 143.041L153.944 143.027C153.841 142.843 153.669 142.709 153.466 142.653C153.263 142.598 153.046 142.626 152.863 142.731L149.105 144.901Z" fill="#FFB000"/>
<path fill-rule="evenodd" clip-rule="evenodd" d="M152.216 136.488C152.216 136.053 151.864 135.7 151.428 135.7H147.066C146.631 135.708 146.282 136.063 146.282 136.499C146.282 136.934 146.631 137.29 147.066 137.298H151.428C151.864 137.298 152.216 136.945 152.216 136.509V136.488Z" fill="#FFB000"/>
<path fill-rule="evenodd" clip-rule="evenodd" d="M149.903 126.709C149.521 126.496 149.04 126.629 148.821 127.007C148.603 127.386 148.729 127.869 149.104 128.093L152.864 130.263C153.046 130.369 153.263 130.397 153.466 130.341C153.669 130.285 153.841 130.151 153.945 129.967L153.952 129.953C154.168 129.577 154.039 129.097 153.663 128.88L149.903 126.709Z" fill="#FFB000"/>
<path fill-rule="evenodd" clip-rule="evenodd" d="M156.854 120.343C156.632 119.964 156.146 119.835 155.765 120.055C155.385 120.275 155.253 120.76 155.47 121.142L157.641 124.901C157.858 125.276 158.338 125.406 158.714 125.19L158.728 125.183C158.912 125.079 159.047 124.907 159.102 124.704C159.158 124.501 159.13 124.284 159.025 124.102L156.854 120.343Z" fill="#FFB000"/>
<path fill-rule="evenodd" clip-rule="evenodd" d="M165.268 123.455C165.704 123.455 166.056 123.102 166.056 122.667V118.305C166.062 118.016 165.911 117.747 165.661 117.601C165.412 117.455 165.103 117.455 164.854 117.601C164.605 117.747 164.453 118.016 164.459 118.305V122.667C164.459 123.102 164.812 123.455 165.247 123.455H165.268Z" fill="#FFB000"/>
<path fill-rule="evenodd" clip-rule="evenodd" d="M336.433 4.79655L334.009 4.65755L333.023 6.99612L331.217 7.62675L328.991 6.40754L327.178 8.02326L328.135 10.3742L327.302 12.0966L324.866 12.8087L324.727 15.2326L327.066 16.2185L327.696 18.0247L326.477 20.2509L328.093 22.0639L330.444 21.1075L332.166 21.9394L332.878 24.3757L335.302 24.5147L336.288 22.1761L338.094 21.5455L340.32 22.7647L342.133 21.149L341.177 18.798L342.009 17.0756L344.445 16.3636L344.584 13.9393L342.245 12.9534L341.615 11.1472L342.834 8.92111L341.218 7.10806L338.867 8.06451L337.145 7.23261L336.433 4.79655Z" fill="#FF73B7"/>
<path fill-rule="evenodd" clip-rule="evenodd" d="M326.134 11.0266L325.212 8.38191L322.285 8.36352L320.817 6.71653L321.132 3.80618L318.609 2.58802L316.526 4.64492L314.323 4.51853L312.489 2.23671L309.845 3.15847L309.826 6.0859L308.179 7.55395L305.269 7.23863L304.051 9.76114L306.108 11.8441L305.982 14.0468L303.7 15.8809L304.621 18.5253L307.549 18.5437L309.017 20.1907L308.702 23.101L311.224 24.3192L313.307 22.2623L315.51 22.3887L317.344 24.6705L319.989 23.7487L320.007 20.8213L321.654 19.3533L324.564 19.6686L325.782 17.1461L323.725 15.0629L323.852 12.8602L326.134 11.0266Z" fill="#AACEF2"/>
<path fill-rule="evenodd" clip-rule="evenodd" d="M308.877 13.1061C308.736 15.5495 310.082 17.8368 312.286 18.9014C314.49 19.966 317.118 19.5982 318.945 17.9696C320.771 16.3409 321.437 13.7721 320.632 11.461C319.826 9.14995 317.708 7.55169 315.264 7.41153C313.662 7.31956 312.089 7.86786 310.891 8.93581C309.693 10.0038 308.969 11.5039 308.877 13.1061Z" fill="white"/>
<path fill-rule="evenodd" clip-rule="evenodd" d="M329.101 14.2667C328.972 16.5134 330.209 18.6164 332.236 19.5952C334.262 20.5739 336.678 20.2357 338.358 18.7381C340.038 17.2405 340.65 14.8785 339.909 12.7536C339.168 10.6287 337.22 9.15935 334.974 9.03067C331.906 8.85513 329.277 11.1992 329.101 14.2667Z" fill="white"/>
<path fill-rule="evenodd" clip-rule="evenodd" d="M310.359 13.191C310.253 15.0349 311.268 16.7611 312.931 17.5646C314.594 18.3681 316.578 18.0906 317.956 16.8616C319.335 15.6326 319.838 13.694 319.23 11.9499C318.622 10.2058 317.023 8.99959 315.179 8.89378C313.97 8.82433 312.783 9.23806 311.879 10.0439C310.975 10.8498 310.428 11.9819 310.359 13.191Z" fill="#32397C"/>
<path fill-rule="evenodd" clip-rule="evenodd" d="M330.512 14.3477C330.415 16.0243 331.338 17.5939 332.85 18.3246C334.362 19.0553 336.166 18.8031 337.419 17.6856C338.673 16.5681 339.13 14.8054 338.577 13.2197C338.024 11.634 336.57 10.5375 334.893 10.4417C332.605 10.311 330.644 12.0594 330.512 14.3477Z" fill="#32397C"/>
<path d="M380.66 274.885L380.644 273.399C382.192 273.39 383.76 273.362 385.305 273.318L385.378 274.804C383.814 274.848 382.227 274.876 380.66 274.885ZM375.937 274.861C374.37 274.834 372.782 274.79 371.217 274.729L371.318 273.245C372.864 273.305 374.433 273.35 375.979 273.375L375.937 274.861ZM390.096 274.614L389.964 273.131C391.509 273.053 393.073 272.953 394.613 272.839L394.804 274.318C393.243 274.434 391.659 274.535 390.096 274.614V274.614ZM366.504 274.49C364.942 274.393 363.36 274.276 361.803 274.143L362.022 272.667C363.559 272.798 365.121 272.913 366.664 273.008L366.504 274.49ZM399.495 273.914L399.246 272.439C400.78 272.289 402.333 272.119 403.862 271.934L404.171 273.401C402.622 273.589 401.049 273.761 399.495 273.914ZM357.118 273.689C355.565 273.52 353.996 273.331 352.453 273.127L352.788 271.663C354.312 271.864 355.862 272.051 357.395 272.217L357.118 273.689ZM408.823 272.782L408.455 271.322C409.975 271.101 411.512 270.86 413.022 270.604L413.448 272.055C411.919 272.313 410.363 272.558 408.823 272.782ZM347.812 272.457C346.276 272.217 344.724 271.955 343.2 271.68L343.653 270.235C345.157 270.507 346.689 270.764 348.206 271.002L347.812 272.457ZM418.044 271.22L417.56 269.78C419.061 269.489 420.575 269.175 422.061 268.851L422.602 270.28C421.097 270.609 419.564 270.925 418.044 271.22V271.22ZM338.621 270.796C337.108 270.485 335.58 270.152 334.081 269.807L334.648 268.384C336.129 268.726 337.637 269.054 339.132 269.361L338.621 270.796ZM427.121 269.234L426.523 267.819C427.994 267.459 429.482 267.077 430.94 266.683L431.596 268.083C430.118 268.483 428.613 268.87 427.121 269.234ZM329.582 268.712C328.09 268.33 326.586 267.925 325.115 267.509L325.797 266.116C327.251 266.527 328.734 266.927 330.207 267.304L329.582 268.712ZM436.022 266.83L435.31 265.445C436.754 265.017 438.207 264.566 439.629 264.105L440.396 265.471C438.955 265.939 437.484 266.396 436.022 266.83ZM320.7 266.203C319.244 265.753 317.777 265.279 316.34 264.795L317.133 263.436C318.552 263.914 320 264.382 321.437 264.827L320.7 266.203ZM444.7 264.02L443.878 262.672C445.281 262.178 446.69 261.663 448.069 261.139L448.944 262.468C447.548 263 446.12 263.521 444.699 264.02H444.7ZM312.041 263.286C310.624 262.769 309.2 262.228 307.805 261.679L308.707 260.36C310.083 260.902 311.49 261.437 312.889 261.947L312.041 263.286ZM453.126 260.818L452.198 259.51C453.555 258.954 454.922 258.374 456.261 257.786L457.24 259.073C455.884 259.669 454.5 260.256 453.126 260.819V260.818ZM303.637 259.975C302.271 259.395 300.892 258.789 299.542 258.175L300.547 256.899C301.88 257.506 303.241 258.104 304.591 258.677L303.637 259.975ZM295.521 256.28C294.199 255.637 292.873 254.968 291.579 254.295L292.685 253.068C293.963 253.734 295.273 254.394 296.577 255.029L295.521 256.28ZM287.717 252.218C286.452 251.516 285.183 250.788 283.942 250.055L285.144 248.882C286.368 249.606 287.622 250.325 288.871 251.019L287.717 252.218ZM280.257 247.804C279.048 247.042 277.84 246.258 276.664 245.47L277.958 244.356C279.119 245.133 280.312 245.908 281.505 246.66L280.257 247.804ZM273.168 243.056C272.025 242.241 270.882 241.403 269.77 240.562L271.15 239.508C272.249 240.339 273.377 241.168 274.506 241.972L273.168 243.056ZM266.474 237.99C265.399 237.126 264.325 236.236 263.283 235.344L264.746 234.357C265.775 235.237 266.835 236.116 267.896 236.97L266.474 237.99ZM260.201 232.626C259.195 231.711 258.196 230.773 257.23 229.838L258.77 228.921C259.723 229.844 260.71 230.77 261.703 231.673L260.201 232.626ZM254.373 226.984C253.446 226.027 252.525 225.045 251.633 224.064L253.244 223.22C254.123 224.188 255.033 225.158 255.948 226.102L254.373 226.984ZM249.013 221.083C248.162 220.081 247.321 219.06 246.515 218.042L248.19 217.275C248.986 218.278 249.816 219.287 250.656 220.276L249.013 221.083ZM244.142 214.946C243.374 213.907 242.618 212.847 241.897 211.797L243.631 211.109C244.344 212.146 245.09 213.193 245.848 214.218L244.142 214.946ZM525.407 196.949L523.563 196.452C524.081 195.344 524.583 194.21 525.058 193.084L526.921 193.537C526.44 194.678 525.932 195.826 525.407 196.949ZM528.29 190.101L526.408 189.693C526.835 188.557 527.243 187.406 527.619 186.272L529.516 186.635C529.135 187.784 528.722 188.95 528.29 190.101H528.29ZM530.601 183.141L528.689 182.823C529.021 181.675 529.333 180.507 529.618 179.351L531.54 179.624C531.252 180.795 530.936 181.979 530.599 183.142L530.601 183.141ZM532.335 176.086L530.401 175.858C530.638 174.702 530.853 173.522 531.044 172.349L532.986 172.531C532.793 173.72 532.574 174.916 532.336 176.086H532.335ZM533.491 168.962L531.543 168.826C531.685 167.657 531.804 166.468 531.899 165.294L533.851 165.385C533.757 166.574 533.636 167.777 533.492 168.962H533.491ZM534.068 161.799L532.112 161.754C532.159 160.577 532.183 159.385 532.183 158.212H534.139C534.14 159.4 534.116 160.607 534.068 161.799H534.068ZM532.183 158.016C532.18 156.836 532.154 155.644 532.104 154.472L534.06 154.425C534.109 155.611 534.136 156.818 534.139 158.013L532.183 158.016ZM531.883 150.933C531.786 149.759 531.663 148.57 531.519 147.4L533.467 147.262C533.613 148.447 533.737 149.65 533.835 150.84L531.883 150.933ZM531.012 143.878C530.819 142.708 530.601 141.528 530.362 140.37L532.294 140.14C532.536 141.313 532.758 142.508 532.953 143.694L531.012 143.878ZM529.569 136.879C529.28 135.72 528.965 134.552 528.632 133.407L530.543 133.087C530.88 134.246 531.2 135.429 531.491 136.603L529.569 136.879ZM527.555 129.961C527.172 128.815 526.762 127.664 526.336 126.54L528.216 126.13C528.647 127.268 529.063 128.434 529.451 129.595L527.555 129.961ZM524.977 123.151C524.504 122.035 524.002 120.906 523.48 119.796L525.322 119.296C525.851 120.422 526.36 121.565 526.839 122.696L524.977 123.151ZM521.847 116.477C521.286 115.389 520.692 114.289 520.084 113.209L521.882 112.624C522.499 113.718 523.1 114.831 523.669 115.935L521.847 116.477ZM518.188 109.983C517.54 108.924 516.858 107.854 516.16 106.801L517.908 106.133C518.615 107.199 519.305 108.284 519.962 109.356L518.188 109.983ZM514.003 103.668C513.267 102.637 512.498 101.599 511.72 100.586L513.41 99.8371C514.198 100.864 514.977 101.913 515.722 102.959L514.003 103.668ZM509.312 97.5581C508.495 96.5646 507.643 95.5651 506.782 94.5871L508.408 93.7604C509.281 94.7513 510.142 95.7637 510.971 96.7701L509.312 97.5581ZM504.133 91.6754C503.232 90.7174 502.301 89.7589 501.367 88.826L502.923 87.9256C503.869 88.8699 504.812 89.8411 505.725 90.8115L504.133 91.6754ZM498.486 86.0421C497.511 85.129 496.505 84.2151 495.494 83.3251L496.975 82.3529C498 83.2539 499.018 84.1796 500.005 85.1046L498.486 86.0421ZM492.394 80.6789C491.353 79.8162 490.274 78.9502 489.189 78.1038L490.589 77.0659C491.688 77.9222 492.78 78.8001 493.835 79.6728L492.394 80.6789ZM485.883 75.606C484.77 74.7914 483.623 73.9769 482.476 73.1839L483.789 72.0834C484.953 72.8854 486.114 73.7107 487.24 74.536L485.883 75.606ZM478.972 70.8416C477.79 70.0754 476.581 69.3147 475.376 68.5819L476.6 67.4228C477.819 68.1659 479.044 68.9361 480.242 69.712L478.972 70.8416ZM471.691 66.4041C470.453 65.6946 469.184 64.9923 467.919 64.313L469.049 63.0993C470.33 63.787 471.616 64.4993 472.869 65.2169L471.691 66.4041ZM464.064 62.31C462.77 61.6591 461.446 61.0154 460.13 60.3963L461.159 59.1327C462.493 59.7594 463.833 60.4113 465.144 61.0703L464.064 62.31ZM456.12 58.5749C454.774 57.9844 453.401 57.4035 452.037 56.8472L452.963 55.5376C454.344 56.1015 455.735 56.6901 457.098 57.2878L456.12 58.5749ZM308.531 56.1312L307.628 54.8126C309.011 54.2658 310.428 53.7264 311.84 53.2098L312.69 54.5483C311.296 55.0588 309.897 55.5917 308.532 56.1314L308.531 56.1312ZM447.887 55.2141C446.497 54.6886 445.079 54.1712 443.671 53.6783L444.49 52.3282C445.915 52.8275 447.352 53.3506 448.76 53.8838L447.887 55.2141ZM316.909 53.0613L316.114 51.7036C317.54 51.2212 318.997 50.7482 320.443 50.2984L321.185 51.6742C319.756 52.1185 318.318 52.5852 316.909 53.0616V53.0613ZM439.395 52.2413C437.966 51.7809 436.509 51.3308 435.062 50.9038L435.771 49.5185C437.237 49.9505 438.714 50.4067 440.159 50.8728L439.395 52.2413ZM325.529 50.3822L324.843 48.9896C326.312 48.5723 327.81 48.1663 329.292 47.7843L329.922 49.1914C328.457 49.57 326.979 49.9702 325.528 50.3822H325.529ZM430.675 49.668C429.211 49.2739 427.719 48.8937 426.239 48.5347L426.834 47.1187C428.332 47.4824 429.845 47.8684 431.327 48.2665L430.675 49.668ZM334.361 48.1049L333.789 46.6833C335.29 46.3352 336.817 46.0001 338.327 45.6872L338.841 47.1213C337.35 47.4301 335.842 47.7606 334.36 48.1049H334.361ZM421.774 47.5087C420.288 47.1855 418.772 46.8757 417.271 46.5866L417.751 45.1456C419.272 45.4381 420.806 45.7521 422.312 46.0795L421.774 47.5087ZM343.359 46.2416L342.903 44.7964C344.427 44.5187 345.977 44.2549 347.512 44.0124L347.911 45.4678C346.395 45.7072 344.864 45.9676 343.359 46.2416H343.359ZM412.732 45.7687C411.221 45.5151 409.684 45.2757 408.163 45.0574L408.526 43.5972C410.067 43.8182 411.624 44.0604 413.154 44.3174L412.732 45.7687ZM352.49 44.7983L352.151 43.3347C353.695 43.1282 355.264 42.9366 356.814 42.7653L357.096 44.2368C355.564 44.4068 354.014 44.5954 352.49 44.7996V44.7983ZM403.567 44.452C402.039 44.268 400.485 44.1012 398.95 43.9527L399.196 42.4784C400.751 42.6279 402.323 42.7979 403.873 42.9834L403.567 44.452ZM361.721 43.7809L361.499 42.3041C363.054 42.1691 364.636 42.0503 366.199 41.9507L366.363 43.4319C364.818 43.5312 363.257 43.6487 361.721 43.7819L361.721 43.7809ZM394.315 43.5609C392.776 43.4485 391.212 43.352 389.666 43.2748L389.794 41.7918C391.36 41.8706 392.944 41.9678 394.502 42.0808L394.315 43.5609ZM371.017 43.1886L370.911 41.7048C372.476 41.6409 374.065 41.5942 375.631 41.566L375.678 43.0522C374.13 43.0811 372.562 43.1271 371.016 43.1899L371.017 43.1886ZM385.007 43.0948C383.462 43.0528 381.893 43.0278 380.344 43.0207L380.355 41.5343C381.924 41.5416 383.512 41.5668 385.077 41.6094L385.007 43.0948Z" fill="#FD9ECC"/>
<path fill-rule="evenodd" clip-rule="evenodd" d="M496.597 33.9699H419.31C419.31 33.9699 425.468 -10.0626 442.096 18.2662C442.096 18.2662 456.26 -20.5318 471.04 20.4209C471.04 20.4206 496.597 11.7997 496.597 33.9699Z" fill="#0073DD"/>
<path fill-rule="evenodd" clip-rule="evenodd" d="M496.597 33.9699H419.31C419.31 33.9699 425.468 -10.0626 442.096 18.2662C442.096 18.2662 456.26 -20.5318 471.04 20.4209C471.04 20.4206 496.597 11.7997 496.597 33.9699Z" fill="#C4E6FF" fill-opacity="0.6"/>
<path fill-rule="evenodd" clip-rule="evenodd" d="M650.444 107.019H573.156C573.156 107.019 579.314 62.9869 595.942 91.3157C595.942 91.3157 610.106 52.5177 624.886 93.4704C624.886 93.4701 650.444 84.8492 650.444 107.019Z" fill="#176BEF"/>
<path fill-rule="evenodd" clip-rule="evenodd" d="M129.505 188.185H52.2173C52.2173 188.185 58.3759 144.153 75.0034 172.482C75.0034 172.482 89.1676 133.684 103.948 174.636C103.948 174.636 129.505 166.015 129.505 188.185Z" fill="#176BEF"/>
<path d="M453.375 285.781L454.625 284.219L450.601 281L454.625 277.781L453.375 276.219L448.375 280.219C448.258 280.313 448.163 280.432 448.098 280.567C448.033 280.702 448 280.85 448 281C448 281.15 448.033 281.298 448.098 281.433C448.163 281.568 448.258 281.687 448.375 281.781L453.375 285.781ZM462.625 276.219L461.375 277.781L465.399 281L461.375 284.219L462.625 285.781L467.625 281.781C467.742 281.687 467.837 281.568 467.902 281.433C467.967 281.298 468 281.15 468 281C468 280.85 467.967 280.702 467.902 280.567C467.837 280.432 467.742 280.313 467.625 280.219L462.625 276.219Z" fill="#FFAEA8"/>
<path d="M453.375 285.781L454.625 284.219L450.601 281L454.625 277.781L453.375 276.219L448.375 280.219C448.258 280.313 448.163 280.432 448.098 280.567C448.033 280.702 448 280.85 448 281C448 281.15 448.033 281.298 448.098 281.433C448.163 281.568 448.258 281.687 448.375 281.781L453.375 285.781ZM462.625 276.219L461.375 277.781L465.399 281L461.375 284.219L462.625 285.781L467.625 281.781C467.742 281.687 467.837 281.568 467.902 281.433C467.967 281.298 468 281.15 468 281C468 280.85 467.967 280.702 467.902 280.567C467.837 280.432 467.742 280.313 467.625 280.219L462.625 276.219Z" fill="#E94A47" fill-opacity="0.2"/>
<path d="M460.976 272.216L456.976 290.216L455.023 289.782L459.023 271.782L460.976 272.216Z" fill="#FFAEA8"/>
<path d="M460.976 272.216L456.976 290.216L455.023 289.782L459.023 271.782L460.976 272.216Z" fill="#E94A47" fill-opacity="0.2"/>
<path d="M367.094 134.545H366.188V134.489C366.188 133.58 366.093 132.689 365.904 131.818C365.715 130.947 365.442 130.118 365.083 129.332C364.724 128.546 364.295 127.803 363.794 127.102C363.294 126.402 362.732 125.762 362.109 125.185C361.486 124.607 360.807 124.091 360.07 123.636H364.63C364.781 123.92 364.998 124.143 365.281 124.304C365.564 124.465 365.867 124.545 366.188 124.545C366.697 124.545 367.127 124.37 367.476 124.02C367.825 123.67 368 123.239 368 122.727C368 122.216 367.825 121.785 367.476 121.435C367.127 121.084 366.697 120.909 366.188 120.909C365.508 120.909 364.989 121.212 364.63 121.818H356.219V120.909C356.219 120.663 356.129 120.45 355.95 120.27C355.77 120.09 355.558 120 355.312 120H351.688C351.442 120 351.23 120.09 351.05 120.27C350.871 120.45 350.781 120.663 350.781 120.909V121.818H342.37C342.011 121.212 341.492 120.909 340.812 120.909C340.303 120.909 339.873 121.084 339.524 121.435C339.175 121.785 339 122.216 339 122.727C339 123.239 339.175 123.67 339.524 124.02C339.873 124.37 340.303 124.545 340.812 124.545C341.492 124.545 342.011 124.242 342.37 123.636H346.93C345.061 124.773 343.574 126.302 342.469 128.224C341.365 130.147 340.812 132.235 340.812 134.489V134.545H339.906C339.661 134.545 339.448 134.635 339.269 134.815C339.09 134.995 339 135.208 339 135.455V139.091C339 139.337 339.09 139.55 339.269 139.73C339.448 139.91 339.661 140 339.906 140H343.531C343.777 140 343.989 139.91 344.168 139.73C344.348 139.55 344.438 139.337 344.438 139.091V135.455C344.438 135.208 344.348 134.995 344.168 134.815C343.989 134.635 343.777 134.545 343.531 134.545H342.625V134.489C342.625 131.989 343.394 129.759 344.933 127.798C346.472 125.838 348.421 124.555 350.781 123.949V124.545C350.781 124.792 350.871 125.005 351.05 125.185C351.23 125.365 351.442 125.455 351.688 125.455H355.312C355.558 125.455 355.77 125.365 355.95 125.185C356.129 125.005 356.219 124.792 356.219 124.545V123.949C357.37 124.252 358.451 124.735 359.461 125.398C360.472 126.061 361.335 126.851 362.053 127.77C362.77 128.688 363.337 129.73 363.752 130.895C364.167 132.06 364.375 133.258 364.375 134.489V134.545H363.469C363.223 134.545 363.011 134.635 362.832 134.815C362.652 134.995 362.562 135.208 362.562 135.455V139.091C362.562 139.337 362.652 139.55 362.832 139.73C363.011 139.91 363.223 140 363.469 140H367.094C367.339 140 367.552 139.91 367.731 139.73C367.91 139.55 368 139.337 368 139.091V135.455C368 135.284 367.958 135.133 367.873 135C367.788 134.867 367.679 134.759 367.547 134.673C367.415 134.588 367.264 134.545 367.094 134.545ZM342.625 138.182H340.812V136.364H342.625V138.182ZM354.406 123.636H352.594V121.818H354.406V123.636ZM366.188 138.182H364.375V136.364H366.188V138.182Z" fill="#FFAEA8"/>
<path d="M367.094 134.545H366.188V134.489C366.188 133.58 366.093 132.689 365.904 131.818C365.715 130.947 365.442 130.118 365.083 129.332C364.724 128.546 364.295 127.803 363.794 127.102C363.294 126.402 362.732 125.762 362.109 125.185C361.486 124.607 360.807 124.091 360.07 123.636H364.63C364.781 123.92 364.998 124.143 365.281 124.304C365.564 124.465 365.867 124.545 366.188 124.545C366.697 124.545 367.127 124.37 367.476 124.02C367.825 123.67 368 123.239 368 122.727C368 122.216 367.825 121.785 367.476 121.435C367.127 121.084 366.697 120.909 366.188 120.909C365.508 120.909 364.989 121.212 364.63 121.818H356.219V120.909C356.219 120.663 356.129 120.45 355.95 120.27C355.77 120.09 355.558 120 355.312 120H351.688C351.442 120 351.23 120.09 351.05 120.27C350.871 120.45 350.781 120.663 350.781 120.909V121.818H342.37C342.011 121.212 341.492 120.909 340.812 120.909C340.303 120.909 339.873 121.084 339.524 121.435C339.175 121.785 339 122.216 339 122.727C339 123.239 339.175 123.67 339.524 124.02C339.873 124.37 340.303 124.545 340.812 124.545C341.492 124.545 342.011 124.242 342.37 123.636H346.93C345.061 124.773 343.574 126.302 342.469 128.224C341.365 130.147 340.812 132.235 340.812 134.489V134.545H339.906C339.661 134.545 339.448 134.635 339.269 134.815C339.09 134.995 339 135.208 339 135.455V139.091C339 139.337 339.09 139.55 339.269 139.73C339.448 139.91 339.661 140 339.906 140H343.531C343.777 140 343.989 139.91 344.168 139.73C344.348 139.55 344.438 139.337 344.438 139.091V135.455C344.438 135.208 344.348 134.995 344.168 134.815C343.989 134.635 343.777 134.545 343.531 134.545H342.625V134.489C342.625 131.989 343.394 129.759 344.933 127.798C346.472 125.838 348.421 124.555 350.781 123.949V124.545C350.781 124.792 350.871 125.005 351.05 125.185C351.23 125.365 351.442 125.455 351.688 125.455H355.312C355.558 125.455 355.77 125.365 355.95 125.185C356.129 125.005 356.219 124.792 356.219 124.545V123.949C357.37 124.252 358.451 124.735 359.461 125.398C360.472 126.061 361.335 126.851 362.053 127.77C362.77 128.688 363.337 129.73 363.752 130.895C364.167 132.06 364.375 133.258 364.375 134.489V134.545H363.469C363.223 134.545 363.011 134.635 362.832 134.815C362.652 134.995 362.562 135.208 362.562 135.455V139.091C362.562 139.337 362.652 139.55 362.832 139.73C363.011 139.91 363.223 140 363.469 140H367.094C367.339 140 367.552 139.91 367.731 139.73C367.91 139.55 368 139.337 368 139.091V135.455C368 135.284 367.958 135.133 367.873 135C367.788 134.867 367.679 134.759 367.547 134.673C367.415 134.588 367.264 134.545 367.094 134.545ZM342.625 138.182H340.812V136.364H342.625V138.182ZM354.406 123.636H352.594V121.818H354.406V123.636ZM366.188 138.182H364.375V136.364H366.188V138.182Z" fill="#E94A47" fill-opacity="0.2"/>
<defs>
<linearGradient id="paint0_linear" x1="243.101" y1="53.5528" x2="214.005" y2="37.9861" gradientUnits="userSpaceOnUse">
<stop stop-color="#FF3466"/>
<stop offset="0.69232" stop-color="#FF4508"/>
</linearGradient>
</defs>
</svg>
