<svg width="674" height="420" viewBox="0 0 674 420" fill="none" xmlns="http://www.w3.org/2000/svg">
<path fill-rule="evenodd" clip-rule="evenodd" d="M514.531 251.415C514.531 252.196 513.965 252.83 513.266 252.83C512.567 252.83 512 252.196 512 251.415C512 250.633 512.567 250 513.266 250C513.965 250 514.531 250.633 514.531 251.415ZM532.25 251.415C532.25 252.196 531.683 252.83 530.984 252.83C530.285 252.83 529.719 252.196 529.719 251.415C529.719 250.633 530.285 250 530.984 250C531.683 250 532.25 250.633 532.25 251.415ZM548.703 252.83C549.402 252.83 549.969 252.196 549.969 251.415C549.969 250.633 549.402 250 548.703 250C548.004 250 547.438 250.633 547.438 251.415C547.438 252.196 548.004 252.83 548.703 252.83ZM567.688 251.415C567.688 252.196 567.121 252.83 566.422 252.83C565.723 252.83 565.156 252.196 565.156 251.415C565.156 250.633 565.723 250 566.422 250C567.121 250 567.688 250.633 567.688 251.415ZM584.141 252.83C584.84 252.83 585.406 252.196 585.406 251.415C585.406 250.633 584.84 250 584.141 250C583.442 250 582.875 250.633 582.875 251.415C582.875 252.196 583.442 252.83 584.141 252.83ZM603.125 251.415C603.125 252.196 602.558 252.83 601.859 252.83C601.16 252.83 600.594 252.196 600.594 251.415C600.594 250.633 601.16 250 601.859 250C602.558 250 603.125 250.633 603.125 251.415ZM619.578 252.83C620.277 252.83 620.844 252.196 620.844 251.415C620.844 250.633 620.277 250 619.578 250C618.879 250 618.312 250.633 618.312 251.415C618.312 252.196 618.879 252.83 619.578 252.83ZM638.562 251.415C638.562 252.196 637.996 252.83 637.297 252.83C636.598 252.83 636.031 252.196 636.031 251.415C636.031 250.633 636.598 250 637.297 250C637.996 250 638.562 250.633 638.562 251.415ZM655.016 252.83C655.715 252.83 656.281 252.196 656.281 251.415C656.281 250.633 655.715 250 655.016 250C654.317 250 653.75 250.633 653.75 251.415C653.75 252.196 654.317 252.83 655.016 252.83ZM674 251.415C674 252.196 673.433 252.83 672.734 252.83C672.035 252.83 671.469 252.196 671.469 251.415C671.469 250.633 672.035 250 672.734 250C673.433 250 674 250.633 674 251.415ZM514.531 269.1C514.531 269.882 513.965 270.515 513.266 270.515C512.567 270.515 512 269.882 512 269.1C512 268.319 512.567 267.686 513.266 267.686C513.965 267.686 514.531 268.319 514.531 269.1ZM532.25 269.1C532.25 269.882 531.683 270.515 530.984 270.515C530.285 270.515 529.719 269.882 529.719 269.1C529.719 268.319 530.285 267.686 530.984 267.686C531.683 267.686 532.25 268.319 532.25 269.1ZM548.703 270.515C549.402 270.515 549.969 269.882 549.969 269.1C549.969 268.319 549.402 267.686 548.703 267.686C548.004 267.686 547.438 268.319 547.438 269.1C547.438 269.882 548.004 270.515 548.703 270.515ZM567.688 269.1C567.688 269.882 567.121 270.515 566.422 270.515C565.723 270.515 565.156 269.882 565.156 269.1C565.156 268.319 565.723 267.686 566.422 267.686C567.121 267.686 567.688 268.319 567.688 269.1ZM584.141 270.515C584.84 270.515 585.406 269.882 585.406 269.1C585.406 268.319 584.84 267.686 584.141 267.686C583.442 267.686 582.875 268.319 582.875 269.1C582.875 269.882 583.442 270.515 584.141 270.515ZM603.125 269.1C603.125 269.882 602.558 270.515 601.859 270.515C601.16 270.515 600.594 269.882 600.594 269.1C600.594 268.319 601.16 267.686 601.859 267.686C602.558 267.686 603.125 268.319 603.125 269.1ZM619.578 270.515C620.277 270.515 620.844 269.882 620.844 269.1C620.844 268.319 620.277 267.686 619.578 267.686C618.879 267.686 618.312 268.319 618.312 269.1C618.312 269.882 618.879 270.515 619.578 270.515ZM638.562 269.1C638.562 269.882 637.996 270.515 637.297 270.515C636.598 270.515 636.031 269.882 636.031 269.1C636.031 268.319 636.598 267.686 637.297 267.686C637.996 267.686 638.562 268.319 638.562 269.1ZM655.016 270.515C655.715 270.515 656.281 269.882 656.281 269.1C656.281 268.319 655.715 267.686 655.016 267.686C654.317 267.686 653.75 268.319 653.75 269.1C653.75 269.882 654.317 270.515 655.016 270.515ZM674 269.1C674 269.882 673.433 270.515 672.734 270.515C672.035 270.515 671.469 269.882 671.469 269.1C671.469 268.319 672.035 267.686 672.734 267.686C673.433 267.686 674 268.319 674 269.1ZM513.266 288.201C513.965 288.201 514.531 287.567 514.531 286.786C514.531 286.005 513.965 285.371 513.266 285.371C512.567 285.371 512 286.005 512 286.786C512 287.567 512.567 288.201 513.266 288.201ZM530.984 288.201C531.683 288.201 532.25 287.567 532.25 286.786C532.25 286.005 531.683 285.371 530.984 285.371C530.285 285.371 529.719 286.005 529.719 286.786C529.719 287.567 530.285 288.201 530.984 288.201ZM549.969 286.786C549.969 287.567 549.402 288.201 548.703 288.201C548.004 288.201 547.438 287.567 547.438 286.786C547.438 286.005 548.004 285.371 548.703 285.371C549.402 285.371 549.969 286.005 549.969 286.786ZM566.422 288.201C567.121 288.201 567.688 287.567 567.688 286.786C567.688 286.005 567.121 285.371 566.422 285.371C565.723 285.371 565.156 286.005 565.156 286.786C565.156 287.567 565.723 288.201 566.422 288.201ZM585.406 286.786C585.406 287.567 584.84 288.201 584.141 288.201C583.442 288.201 582.875 287.567 582.875 286.786C582.875 286.005 583.442 285.371 584.141 285.371C584.84 285.371 585.406 286.005 585.406 286.786ZM601.859 288.201C602.558 288.201 603.125 287.567 603.125 286.786C603.125 286.005 602.558 285.371 601.859 285.371C601.16 285.371 600.594 286.005 600.594 286.786C600.594 287.567 601.16 288.201 601.859 288.201ZM620.844 286.786C620.844 287.567 620.277 288.201 619.578 288.201C618.879 288.201 618.312 287.567 618.312 286.786C618.312 286.005 618.879 285.371 619.578 285.371C620.277 285.371 620.844 286.005 620.844 286.786ZM637.297 288.201C637.996 288.201 638.562 287.567 638.562 286.786C638.562 286.005 637.996 285.371 637.297 285.371C636.598 285.371 636.031 286.005 636.031 286.786C636.031 287.567 636.598 288.201 637.297 288.201ZM656.281 286.786C656.281 287.567 655.715 288.201 655.016 288.201C654.317 288.201 653.75 287.567 653.75 286.786C653.75 286.005 654.317 285.371 655.016 285.371C655.715 285.371 656.281 286.005 656.281 286.786ZM672.734 288.201C673.433 288.201 674 287.567 674 286.786C674 286.005 673.433 285.371 672.734 285.371C672.035 285.371 671.469 286.005 671.469 286.786C671.469 287.567 672.035 288.201 672.734 288.201ZM514.531 304.472C514.531 305.253 513.965 305.886 513.266 305.886C512.567 305.886 512 305.253 512 304.472C512 303.69 512.567 303.057 513.266 303.057C513.965 303.057 514.531 303.69 514.531 304.472ZM532.25 304.472C532.25 305.253 531.683 305.886 530.984 305.886C530.285 305.886 529.719 305.253 529.719 304.472C529.719 303.69 530.285 303.057 530.984 303.057C531.683 303.057 532.25 303.69 532.25 304.472ZM548.703 305.886C549.402 305.886 549.969 305.253 549.969 304.472C549.969 303.69 549.402 303.057 548.703 303.057C548.004 303.057 547.438 303.69 547.438 304.472C547.438 305.253 548.004 305.886 548.703 305.886ZM567.688 304.472C567.688 305.253 567.121 305.886 566.422 305.886C565.723 305.886 565.156 305.253 565.156 304.472C565.156 303.69 565.723 303.057 566.422 303.057C567.121 303.057 567.688 303.69 567.688 304.472ZM584.141 305.886C584.84 305.886 585.406 305.253 585.406 304.472C585.406 303.69 584.84 303.057 584.141 303.057C583.442 303.057 582.875 303.69 582.875 304.472C582.875 305.253 583.442 305.886 584.141 305.886ZM603.125 304.472C603.125 305.253 602.558 305.886 601.859 305.886C601.16 305.886 600.594 305.253 600.594 304.472C600.594 303.69 601.16 303.057 601.859 303.057C602.558 303.057 603.125 303.69 603.125 304.472ZM619.578 305.886C620.277 305.886 620.844 305.253 620.844 304.472C620.844 303.69 620.277 303.057 619.578 303.057C618.879 303.057 618.312 303.69 618.312 304.472C618.312 305.253 618.879 305.886 619.578 305.886ZM638.562 304.472C638.562 305.253 637.996 305.886 637.297 305.886C636.598 305.886 636.031 305.253 636.031 304.472C636.031 303.69 636.598 303.057 637.297 303.057C637.996 303.057 638.562 303.69 638.562 304.472ZM655.016 305.886C655.715 305.886 656.281 305.253 656.281 304.472C656.281 303.69 655.715 303.057 655.016 303.057C654.317 303.057 653.75 303.69 653.75 304.472C653.75 305.253 654.317 305.886 655.016 305.886ZM674 304.472C674 305.253 673.433 305.886 672.734 305.886C672.035 305.886 671.469 305.253 671.469 304.472C671.469 303.69 672.035 303.057 672.734 303.057C673.433 303.057 674 303.69 674 304.472ZM513.266 323.572C513.965 323.572 514.531 322.939 514.531 322.157C514.531 321.376 513.965 320.742 513.266 320.742C512.567 320.742 512 321.376 512 322.157C512 322.939 512.567 323.572 513.266 323.572ZM530.984 323.572C531.683 323.572 532.25 322.939 532.25 322.157C532.25 321.376 531.683 320.742 530.984 320.742C530.285 320.742 529.719 321.376 529.719 322.157C529.719 322.939 530.285 323.572 530.984 323.572ZM549.969 322.157C549.969 322.939 549.402 323.572 548.703 323.572C548.004 323.572 547.438 322.939 547.438 322.157C547.438 321.376 548.004 320.742 548.703 320.742C549.402 320.742 549.969 321.376 549.969 322.157ZM566.422 323.572C567.121 323.572 567.688 322.939 567.688 322.157C567.688 321.376 567.121 320.742 566.422 320.742C565.723 320.742 565.156 321.376 565.156 322.157C565.156 322.939 565.723 323.572 566.422 323.572ZM585.406 322.157C585.406 322.939 584.84 323.572 584.141 323.572C583.442 323.572 582.875 322.939 582.875 322.157C582.875 321.376 583.442 320.742 584.141 320.742C584.84 320.742 585.406 321.376 585.406 322.157ZM601.859 323.572C602.558 323.572 603.125 322.939 603.125 322.157C603.125 321.376 602.558 320.742 601.859 320.742C601.16 320.742 600.594 321.376 600.594 322.157C600.594 322.939 601.16 323.572 601.859 323.572ZM620.844 322.157C620.844 322.939 620.277 323.572 619.578 323.572C618.879 323.572 618.312 322.939 618.312 322.157C618.312 321.376 618.879 320.742 619.578 320.742C620.277 320.742 620.844 321.376 620.844 322.157ZM637.297 323.572C637.996 323.572 638.562 322.939 638.562 322.157C638.562 321.376 637.996 320.742 637.297 320.742C636.598 320.742 636.031 321.376 636.031 322.157C636.031 322.939 636.598 323.572 637.297 323.572ZM656.281 322.157C656.281 322.939 655.715 323.572 655.016 323.572C654.317 323.572 653.75 322.939 653.75 322.157C653.75 321.376 654.317 320.742 655.016 320.742C655.715 320.742 656.281 321.376 656.281 322.157ZM672.734 323.572C673.433 323.572 674 322.939 674 322.157C674 321.376 673.433 320.742 672.734 320.742C672.035 320.742 671.469 321.376 671.469 322.157C671.469 322.939 672.035 323.572 672.734 323.572ZM514.531 339.843C514.531 340.624 513.965 341.258 513.266 341.258C512.567 341.258 512 340.624 512 339.843C512 339.061 512.567 338.428 513.266 338.428C513.965 338.428 514.531 339.061 514.531 339.843ZM532.25 339.843C532.25 340.624 531.683 341.258 530.984 341.258C530.285 341.258 529.719 340.624 529.719 339.843C529.719 339.061 530.285 338.428 530.984 338.428C531.683 338.428 532.25 339.061 532.25 339.843ZM548.703 341.258C549.402 341.258 549.969 340.624 549.969 339.843C549.969 339.061 549.402 338.428 548.703 338.428C548.004 338.428 547.438 339.061 547.438 339.843C547.438 340.624 548.004 341.258 548.703 341.258ZM567.688 339.843C567.688 340.624 567.121 341.258 566.422 341.258C565.723 341.258 565.156 340.624 565.156 339.843C565.156 339.061 565.723 338.428 566.422 338.428C567.121 338.428 567.688 339.061 567.688 339.843ZM584.141 341.258C584.84 341.258 585.406 340.624 585.406 339.843C585.406 339.061 584.84 338.428 584.141 338.428C583.442 338.428 582.875 339.061 582.875 339.843C582.875 340.624 583.442 341.258 584.141 341.258ZM603.125 339.843C603.125 340.624 602.558 341.258 601.859 341.258C601.16 341.258 600.594 340.624 600.594 339.843C600.594 339.061 601.16 338.428 601.859 338.428C602.558 338.428 603.125 339.061 603.125 339.843ZM619.578 341.258C620.277 341.258 620.844 340.624 620.844 339.843C620.844 339.061 620.277 338.428 619.578 338.428C618.879 338.428 618.312 339.061 618.312 339.843C618.312 340.624 618.879 341.258 619.578 341.258ZM638.562 339.843C638.562 340.624 637.996 341.258 637.297 341.258C636.598 341.258 636.031 340.624 636.031 339.843C636.031 339.061 636.598 338.428 637.297 338.428C637.996 338.428 638.562 339.061 638.562 339.843ZM655.016 341.258C655.715 341.258 656.281 340.624 656.281 339.843C656.281 339.061 655.715 338.428 655.016 338.428C654.317 338.428 653.75 339.061 653.75 339.843C653.75 340.624 654.317 341.258 655.016 341.258ZM674 339.843C674 340.624 673.433 341.258 672.734 341.258C672.035 341.258 671.469 340.624 671.469 339.843C671.469 339.061 672.035 338.428 672.734 338.428C673.433 338.428 674 339.061 674 339.843ZM513.266 358.943C513.965 358.943 514.531 358.31 514.531 357.528C514.531 356.747 513.965 356.114 513.266 356.114C512.567 356.114 512 356.747 512 357.528C512 358.31 512.567 358.943 513.266 358.943ZM530.984 358.943C531.683 358.943 532.25 358.31 532.25 357.528C532.25 356.747 531.683 356.114 530.984 356.114C530.285 356.114 529.719 356.747 529.719 357.528C529.719 358.31 530.285 358.943 530.984 358.943ZM549.969 357.528C549.969 358.31 549.402 358.943 548.703 358.943C548.004 358.943 547.438 358.31 547.438 357.528C547.438 356.747 548.004 356.114 548.703 356.114C549.402 356.114 549.969 356.747 549.969 357.528ZM566.422 358.943C567.121 358.943 567.688 358.31 567.688 357.528C567.688 356.747 567.121 356.114 566.422 356.114C565.723 356.114 565.156 356.747 565.156 357.528C565.156 358.31 565.723 358.943 566.422 358.943ZM585.406 357.528C585.406 358.31 584.84 358.943 584.141 358.943C583.442 358.943 582.875 358.31 582.875 357.528C582.875 356.747 583.442 356.114 584.141 356.114C584.84 356.114 585.406 356.747 585.406 357.528ZM601.859 358.943C602.558 358.943 603.125 358.31 603.125 357.528C603.125 356.747 602.558 356.114 601.859 356.114C601.16 356.114 600.594 356.747 600.594 357.528C600.594 358.31 601.16 358.943 601.859 358.943ZM620.844 357.528C620.844 358.31 620.277 358.943 619.578 358.943C618.879 358.943 618.312 358.31 618.312 357.528C618.312 356.747 618.879 356.114 619.578 356.114C620.277 356.114 620.844 356.747 620.844 357.528ZM637.297 358.943C637.996 358.943 638.562 358.31 638.562 357.528C638.562 356.747 637.996 356.114 637.297 356.114C636.598 356.114 636.031 356.747 636.031 357.528C636.031 358.31 636.598 358.943 637.297 358.943ZM656.281 357.528C656.281 358.31 655.715 358.943 655.016 358.943C654.317 358.943 653.75 358.31 653.75 357.528C653.75 356.747 654.317 356.114 655.016 356.114C655.715 356.114 656.281 356.747 656.281 357.528ZM672.734 358.943C673.433 358.943 674 358.31 674 357.528C674 356.747 673.433 356.114 672.734 356.114C672.035 356.114 671.469 356.747 671.469 357.528C671.469 358.31 672.035 358.943 672.734 358.943ZM514.531 375.214C514.531 375.995 513.965 376.629 513.266 376.629C512.567 376.629 512 375.995 512 375.214C512 374.433 512.567 373.799 513.266 373.799C513.965 373.799 514.531 374.433 514.531 375.214ZM532.25 375.214C532.25 375.995 531.683 376.629 530.984 376.629C530.285 376.629 529.719 375.995 529.719 375.214C529.719 374.433 530.285 373.799 530.984 373.799C531.683 373.799 532.25 374.433 532.25 375.214ZM548.703 376.629C549.402 376.629 549.969 375.995 549.969 375.214C549.969 374.433 549.402 373.799 548.703 373.799C548.004 373.799 547.438 374.433 547.438 375.214C547.438 375.995 548.004 376.629 548.703 376.629ZM567.688 375.214C567.688 375.995 567.121 376.629 566.422 376.629C565.723 376.629 565.156 375.995 565.156 375.214C565.156 374.433 565.723 373.799 566.422 373.799C567.121 373.799 567.688 374.433 567.688 375.214ZM584.141 376.629C584.84 376.629 585.406 375.995 585.406 375.214C585.406 374.433 584.84 373.799 584.141 373.799C583.442 373.799 582.875 374.433 582.875 375.214C582.875 375.995 583.442 376.629 584.141 376.629ZM603.125 375.214C603.125 375.995 602.558 376.629 601.859 376.629C601.16 376.629 600.594 375.995 600.594 375.214C600.594 374.433 601.16 373.799 601.859 373.799C602.558 373.799 603.125 374.433 603.125 375.214ZM619.578 376.629C620.277 376.629 620.844 375.995 620.844 375.214C620.844 374.433 620.277 373.799 619.578 373.799C618.879 373.799 618.312 374.433 618.312 375.214C618.312 375.995 618.879 376.629 619.578 376.629ZM638.562 375.214C638.562 375.995 637.996 376.629 637.297 376.629C636.598 376.629 636.031 375.995 636.031 375.214C636.031 374.433 636.598 373.799 637.297 373.799C637.996 373.799 638.562 374.433 638.562 375.214ZM655.016 376.629C655.715 376.629 656.281 375.995 656.281 375.214C656.281 374.433 655.715 373.799 655.016 373.799C654.317 373.799 653.75 374.433 653.75 375.214C653.75 375.995 654.317 376.629 655.016 376.629ZM674 375.214C674 375.995 673.433 376.629 672.734 376.629C672.035 376.629 671.469 375.995 671.469 375.214C671.469 374.433 672.035 373.799 672.734 373.799C673.433 373.799 674 374.433 674 375.214ZM513.266 394.314C513.965 394.314 514.531 393.681 514.531 392.9C514.531 392.118 513.965 391.485 513.266 391.485C512.567 391.485 512 392.118 512 392.9C512 393.681 512.567 394.314 513.266 394.314ZM530.984 394.314C531.683 394.314 532.25 393.681 532.25 392.9C532.25 392.118 531.683 391.485 530.984 391.485C530.285 391.485 529.719 392.118 529.719 392.9C529.719 393.681 530.285 394.314 530.984 394.314ZM549.969 392.9C549.969 393.681 549.402 394.314 548.703 394.314C548.004 394.314 547.438 393.681 547.438 392.9C547.438 392.118 548.004 391.485 548.703 391.485C549.402 391.485 549.969 392.118 549.969 392.9ZM566.422 394.314C567.121 394.314 567.688 393.681 567.688 392.9C567.688 392.118 567.121 391.485 566.422 391.485C565.723 391.485 565.156 392.118 565.156 392.9C565.156 393.681 565.723 394.314 566.422 394.314ZM585.406 392.9C585.406 393.681 584.84 394.314 584.141 394.314C583.442 394.314 582.875 393.681 582.875 392.9C582.875 392.118 583.442 391.485 584.141 391.485C584.84 391.485 585.406 392.118 585.406 392.9ZM601.859 394.314C602.558 394.314 603.125 393.681 603.125 392.9C603.125 392.118 602.558 391.485 601.859 391.485C601.16 391.485 600.594 392.118 600.594 392.9C600.594 393.681 601.16 394.314 601.859 394.314ZM620.844 392.9C620.844 393.681 620.277 394.314 619.578 394.314C618.879 394.314 618.312 393.681 618.312 392.9C618.312 392.118 618.879 391.485 619.578 391.485C620.277 391.485 620.844 392.118 620.844 392.9ZM637.297 394.314C637.996 394.314 638.562 393.681 638.562 392.9C638.562 392.118 637.996 391.485 637.297 391.485C636.598 391.485 636.031 392.118 636.031 392.9C636.031 393.681 636.598 394.314 637.297 394.314ZM656.281 392.9C656.281 393.681 655.715 394.314 655.016 394.314C654.317 394.314 653.75 393.681 653.75 392.9C653.75 392.118 654.317 391.485 655.016 391.485C655.715 391.485 656.281 392.118 656.281 392.9ZM672.734 394.314C673.433 394.314 674 393.681 674 392.9C674 392.118 673.433 391.485 672.734 391.485C672.035 391.485 671.469 392.118 671.469 392.9C671.469 393.681 672.035 394.314 672.734 394.314ZM514.531 410.585C514.531 411.367 513.965 412 513.266 412C512.567 412 512 411.367 512 410.585C512 409.804 512.567 409.17 513.266 409.17C513.965 409.17 514.531 409.804 514.531 410.585ZM532.25 410.585C532.25 411.367 531.683 412 530.984 412C530.285 412 529.719 411.367 529.719 410.585C529.719 409.804 530.285 409.17 530.984 409.17C531.683 409.17 532.25 409.804 532.25 410.585ZM548.703 412C549.402 412 549.969 411.367 549.969 410.585C549.969 409.804 549.402 409.17 548.703 409.17C548.004 409.17 547.438 409.804 547.438 410.585C547.438 411.367 548.004 412 548.703 412ZM567.688 410.585C567.688 411.367 567.121 412 566.422 412C565.723 412 565.156 411.367 565.156 410.585C565.156 409.804 565.723 409.17 566.422 409.17C567.121 409.17 567.688 409.804 567.688 410.585ZM584.141 412C584.84 412 585.406 411.367 585.406 410.585C585.406 409.804 584.84 409.17 584.141 409.17C583.442 409.17 582.875 409.804 582.875 410.585C582.875 411.367 583.442 412 584.141 412ZM603.125 410.585C603.125 411.367 602.558 412 601.859 412C601.16 412 600.594 411.367 600.594 410.585C600.594 409.804 601.16 409.17 601.859 409.17C602.558 409.17 603.125 409.804 603.125 410.585ZM619.578 412C620.277 412 620.844 411.367 620.844 410.585C620.844 409.804 620.277 409.17 619.578 409.17C618.879 409.17 618.312 409.804 618.312 410.585C618.312 411.367 618.879 412 619.578 412ZM638.562 410.585C638.562 411.367 637.996 412 637.297 412C636.598 412 636.031 411.367 636.031 410.585C636.031 409.804 636.598 409.17 637.297 409.17C637.996 409.17 638.562 409.804 638.562 410.585ZM655.016 412C655.715 412 656.281 411.367 656.281 410.585C656.281 409.804 655.715 409.17 655.016 409.17C654.317 409.17 653.75 409.804 653.75 410.585C653.75 411.367 654.317 412 655.016 412ZM674 410.585C674 411.367 673.433 412 672.734 412C672.035 412 671.469 411.367 671.469 410.585C671.469 409.804 672.035 409.17 672.734 409.17C673.433 409.17 674 409.804 674 410.585Z" fill="#32397C"/>
<path fill-rule="evenodd" clip-rule="evenodd" d="M53.2806 371.916H606.69C617.678 348.151 631.104 311.155 633.249 264.555C634.795 230.972 636.139 201.763 617.754 187.078C593.989 168.098 561.979 206.963 519.248 203.68C436.859 197.352 422.8 42.548 336.624 33.2318C254.721 24.3767 171.373 134.731 152.893 200.36C150.839 207.655 147.307 223.542 133.709 232.827C108.043 250.35 79.5334 221.812 45.5328 234.671C20.7631 244.039 -2.09269 273.552 0.153922 306.614C2.1333 335.737 23.1847 361.663 53.2806 371.916Z" fill="#32397C"/>
<mask id="mask0" mask-type="alpha" maskUnits="userSpaceOnUse" x="0" y="32" width="635" height="340">
<path d="M53.2804 371.916H606.69C617.678 348.152 631.103 311.156 633.249 264.555C634.795 230.972 636.139 201.764 617.753 187.079C593.989 168.098 597.397 107.35 554.664 104.068C472.276 97.7397 422.799 42.5485 336.623 33.2321C254.72 24.377 96.1084 76.0708 77.6295 141.7C75.5752 148.995 147.306 223.543 133.708 232.827C108.042 250.351 79.5324 221.813 45.5318 234.672C20.7621 244.039 -2.09366 273.552 0.152945 306.614C2.13312 335.738 23.1845 361.663 53.2804 371.916Z" fill="white"/>
</mask>
<g mask="url(#mask0)">
<path fill-rule="evenodd" clip-rule="evenodd" d="M187.749 370.067C190.166 369.17 184.564 322.381 150.546 280.173C139.679 266.69 118.831 240.823 94.4741 243.338C87.9385 244.013 77.4356 247.116 75.1042 254.246C72.4064 262.497 81.4764 273.618 90.4066 279.066C101.786 286.007 108.499 281.03 115.087 287.724C122.587 295.344 115.414 303.344 123.367 316.012C129.822 326.296 140.932 331.194 145.12 333.039C152.056 336.097 154.443 335.449 159.559 337.296C179.931 344.649 185.909 370.75 187.749 370.067Z" fill="#0073DD"/>
<path fill-rule="evenodd" clip-rule="evenodd" d="M187.749 370.067C190.166 369.17 184.564 322.381 150.546 280.173C139.679 266.69 118.831 240.823 94.4741 243.338C87.9385 244.013 77.4356 247.116 75.1042 254.246C72.4064 262.497 81.4764 273.618 90.4066 279.066C101.786 286.007 108.499 281.03 115.087 287.724C122.587 295.344 115.414 303.344 123.367 316.012C129.822 326.296 140.932 331.194 145.12 333.039C152.056 336.097 154.443 335.449 159.559 337.296C179.931 344.649 185.909 370.75 187.749 370.067Z" fill="#C4E6FF" fill-opacity="0.6"/>
<path fill-rule="evenodd" clip-rule="evenodd" d="M186.961 370.803C188.822 367.793 149.804 328.945 93.517 319.276C58.8491 313.32 42.1735 322.648 36.2613 326.562C33.9002 328.125 20.3451 337.101 22.0672 344.888C23.8396 352.902 41.602 358.793 54.2739 353.713C65.8141 349.089 65.7647 338.315 74.4437 337.256C84.3976 336.041 87.4071 349.851 103.197 356.286C116.434 361.68 122.25 355.209 141.774 356.279C169.829 357.816 185.785 372.705 186.961 370.803Z" fill="#0073DD"/>
<path fill-rule="evenodd" clip-rule="evenodd" d="M186.961 370.803C188.822 367.793 149.804 328.945 93.517 319.276C58.8491 313.32 42.1735 322.648 36.2613 326.562C33.9002 328.125 20.3451 337.101 22.0672 344.888C23.8396 352.902 41.602 358.793 54.2739 353.713C65.8141 349.089 65.7647 338.315 74.4437 337.256C84.3976 336.041 87.4071 349.851 103.197 356.286C116.434 361.68 122.25 355.209 141.774 356.279C169.829 357.816 185.785 372.705 186.961 370.803Z" fill="#C4E6FF" fill-opacity="0.2"/>
<path fill-rule="evenodd" clip-rule="evenodd" d="M189.727 370.962C194.141 371.4 216.373 306.077 196.248 237.39C183.853 195.085 164.165 181.453 156.502 176.955C153.442 175.158 135.87 164.845 128.055 171.074C120.012 177.483 123.165 200.723 135.864 212.189C147.429 222.631 159.526 216.641 165.501 225.826C172.352 236.362 158.466 247.357 159.922 268.676C161.141 286.547 171.63 289.53 181.182 312.097C194.907 344.521 186.938 370.686 189.727 370.962Z" fill="#0073DD"/>
<path fill-rule="evenodd" clip-rule="evenodd" d="M189.727 370.962C194.141 371.4 216.373 306.077 196.248 237.39C183.853 195.085 164.165 181.453 156.502 176.955C153.442 175.158 135.87 164.845 128.055 171.074C120.012 177.483 123.165 200.723 135.864 212.189C147.429 222.631 159.526 216.641 165.501 225.826C172.352 236.362 158.466 247.357 159.922 268.676C161.141 286.547 171.63 289.53 181.182 312.097C194.907 344.521 186.938 370.686 189.727 370.962Z" fill="black" fill-opacity="0.2"/>
<path fill-rule="evenodd" clip-rule="evenodd" d="M480.878 377.081C477.602 372.041 485.689 358.902 496.004 351.993C505.809 345.427 511.586 348.532 522.937 343.138C535.454 337.191 541.985 326.973 548.394 316.944C563.251 293.696 556.476 284.438 568.317 273.778C580.04 263.225 601.521 258.941 614.434 268.982C621.1 274.166 627.129 284.447 624.395 294.808C621.837 304.5 608.055 300.113 593.404 313.253C590.344 315.999 582.986 322.753 579.385 333.545C575.208 346.061 580.4 351.076 576.433 357.895C571.326 366.673 558.914 364.904 534.743 368.225C499.029 373.133 484.535 382.708 480.878 377.081Z" fill="#0073DD"/>
<path fill-rule="evenodd" clip-rule="evenodd" d="M480.878 377.081C477.602 372.041 485.689 358.902 496.004 351.993C505.809 345.427 511.586 348.532 522.937 343.138C535.454 337.191 541.985 326.973 548.394 316.944C563.251 293.696 556.476 284.438 568.317 273.778C580.04 263.225 601.521 258.941 614.434 268.982C621.1 274.166 627.129 284.447 624.395 294.808C621.837 304.5 608.055 300.113 593.404 313.253C590.344 315.999 582.986 322.753 579.385 333.545C575.208 346.061 580.4 351.076 576.433 357.895C571.326 366.673 558.914 364.904 534.743 368.225C499.029 373.133 484.535 382.708 480.878 377.081Z" fill="#C4E6FF" fill-opacity="0.6"/>
<path fill-rule="evenodd" clip-rule="evenodd" d="M521.092 253.857C516.019 280.888 526.789 291.219 522.199 309.935C517.495 329.116 493.422 327.227 487.15 349.042C485.833 353.62 485.744 357.044 482.723 361.955C477.288 370.795 468.017 375.259 460.118 377.664C459.246 377.929 458.308 377.874 457.473 377.509C457.393 377.477 457.315 377.44 457.24 377.399C456.441 376.991 455.81 376.316 455.458 375.491C453.226 370.262 451.499 363.493 453.208 356.421C455.554 346.714 462.442 344.416 468.703 335.76C471.975 331.233 474.68 325.526 476.82 286.692C478.705 252.462 476.872 252.122 479.771 243.157C485.604 225.135 492.68 227.562 502.276 206.264C512.057 184.552 507.243 176.388 518.878 159.778C522.83 154.14 532.533 140.287 542.49 142.068C542.568 142.082 542.648 142.097 542.727 142.116C542.819 142.13 542.911 142.152 543.004 142.175C551.356 144.123 557.166 156.611 557.986 167.156C559.241 183.263 548.427 189.27 533.636 220.651C526.641 235.491 523.147 242.914 521.092 253.857Z" fill="#0073DD"/>
<path fill-rule="evenodd" clip-rule="evenodd" d="M521.092 253.857C516.019 280.888 526.789 291.219 522.199 309.935C517.495 329.116 493.422 327.227 487.15 349.042C485.833 353.62 485.744 357.044 482.723 361.955C477.288 370.795 468.017 375.259 460.118 377.664C459.246 377.929 458.308 377.874 457.473 377.509C457.393 377.477 457.315 377.44 457.24 377.399C456.441 376.991 455.81 376.316 455.458 375.491C453.226 370.262 451.499 363.493 453.208 356.421C455.554 346.714 462.442 344.416 468.703 335.76C471.975 331.233 474.68 325.526 476.82 286.692C478.705 252.462 476.872 252.122 479.771 243.157C485.604 225.135 492.68 227.562 502.276 206.264C512.057 184.552 507.243 176.388 518.878 159.778C522.83 154.14 532.533 140.287 542.49 142.068C542.568 142.082 542.648 142.097 542.727 142.116C542.819 142.13 542.911 142.152 543.004 142.175C551.356 144.123 557.166 156.611 557.986 167.156C559.241 183.263 548.427 189.27 533.636 220.651C526.641 235.491 523.147 242.914 521.092 253.857Z" fill="#C4E6FF" fill-opacity="0.2"/>
<path fill-rule="evenodd" clip-rule="evenodd" d="M543.003 142.176C542.957 149.887 542.238 157.581 540.852 165.167C538.698 176.892 534.89 188.355 529.231 198.869L528.165 200.836C527.785 201.478 527.39 202.109 527.003 202.747L525.837 204.658L524.586 206.514C524.162 207.127 523.76 207.757 523.32 208.359L522 210.163C521.133 211.38 520.192 212.539 519.284 213.723C515.599 218.405 511.762 222.99 508.736 228.13C505.693 233.254 503.63 238.903 502.203 244.677C500.801 250.462 500.085 256.427 500.35 262.378C500.474 265.352 500.798 268.314 501.321 271.244C501.834 274.177 502.516 277.08 503.243 279.969C503.97 282.857 504.741 285.743 505.342 288.665C505.985 291.585 506.356 294.558 506.453 297.546C506.515 300.539 506.165 303.526 505.412 306.423C504.648 309.314 503.558 312.11 502.166 314.757C501.474 316.082 500.713 317.368 499.886 318.612C499.048 319.85 498.14 321.039 497.167 322.172C496.189 323.301 495.157 324.38 494.071 325.408C492.983 326.43 491.857 327.411 490.714 328.367C488.419 330.274 486.054 332.093 483.785 334.019C481.499 335.93 479.333 337.98 477.299 340.158C473.241 344.523 469.876 349.492 467.032 354.72C463.084 361.974 459.882 369.61 457.473 377.509C456.403 381.018 455.492 384.568 454.74 388.161L454.629 388.139C455.338 384.523 456.209 380.943 457.242 377.399C459.55 369.453 462.658 361.762 466.517 354.443C469.332 349.157 472.697 344.11 476.77 339.664C478.806 337.449 480.977 335.362 483.27 333.414C485.547 331.455 487.901 329.614 490.162 327.707C491.292 326.747 492.394 325.774 493.457 324.759C494.512 323.74 495.514 322.677 496.464 321.568C497.405 320.455 498.286 319.292 499.101 318.084C499.907 316.868 500.647 315.609 501.318 314.314C502.667 311.728 503.721 308.999 504.462 306.179C505.181 303.365 505.513 300.467 505.447 297.564C505.341 294.64 504.968 291.732 504.333 288.876C503.728 285.994 502.953 283.124 502.219 280.228C501.484 277.332 500.783 274.402 500.256 271.432C499.716 268.456 499.378 265.446 499.245 262.423C498.99 256.361 499.744 250.289 501.178 244.43C502.639 238.582 504.757 232.831 507.871 227.621C510.962 222.401 514.855 217.781 518.533 213.129C522.211 208.477 525.635 203.644 528.48 198.46L529.553 196.52C529.893 195.863 530.202 195.192 530.527 194.528L531.498 192.531C531.655 192.195 531.83 191.867 531.974 191.527L532.405 190.505L534.132 186.41L535.674 182.237C537.625 176.631 539.165 170.89 540.282 165.06C541.769 157.498 542.587 149.821 542.728 142.116C542.819 142.131 542.911 142.153 543.003 142.176Z" fill="white"/>
<path fill-rule="evenodd" clip-rule="evenodd" d="M457.635 346.091C456.565 360.353 463.556 369.883 458.373 374.499C457.14 375.602 455.521 376.148 453.783 376.318C453.658 376.329 453.536 376.34 453.415 376.347C450.656 376.535 447.656 375.816 445.461 374.868C429.534 367.994 428.962 337.513 428.859 332.071C428.471 311.388 435.149 309.418 435.5 288.536C435.832 268.798 429.936 266.426 428.121 245.74C425.9 220.482 431.7 189.949 440.786 185.99C440.9 185.938 441.011 185.894 441.125 185.854C441.454 185.736 441.794 185.652 442.14 185.603C450.552 184.448 463.343 205.551 466.121 225.817C468.921 246.237 459.454 250.524 462.431 272.672C465.018 291.904 473.094 295.627 472.761 311.041C472.407 327.597 458.941 328.684 457.635 346.091Z" fill="#0073DD"/>
<path fill-rule="evenodd" clip-rule="evenodd" d="M457.635 346.091C456.565 360.353 463.556 369.883 458.373 374.499C457.14 375.602 455.521 376.148 453.783 376.318C453.658 376.329 453.536 376.34 453.415 376.347C450.656 376.535 447.656 375.816 445.461 374.868C429.534 367.994 428.962 337.513 428.859 332.071C428.471 311.388 435.149 309.418 435.5 288.536C435.832 268.798 429.936 266.426 428.121 245.74C425.9 220.482 431.7 189.949 440.786 185.99C440.9 185.938 441.011 185.894 441.125 185.854C441.454 185.736 441.794 185.652 442.14 185.603C450.552 184.448 463.343 205.551 466.121 225.817C468.921 246.237 459.454 250.524 462.431 272.672C465.018 291.904 473.094 295.627 472.761 311.041C472.407 327.597 458.941 328.684 457.635 346.091Z" fill="#C4E6FF" fill-opacity="0.6"/>
<path fill-rule="evenodd" clip-rule="evenodd" d="M460.623 384.419L460.55 384.5C457.921 382.012 455.532 379.282 453.414 376.347C452.816 375.524 452.241 374.679 451.688 373.824C449.132 369.931 447.033 365.755 445.434 361.38C443.845 356.986 442.791 352.416 442.294 347.769C441.996 345.418 442.01 343.037 442.335 340.689C442.686 338.344 443.317 336.049 444.213 333.853C445.958 329.474 448.297 325.489 449.854 321.228C451.439 316.983 452.264 312.492 452.289 307.961C452.317 305.703 452.166 303.447 451.838 301.213C451.464 298.991 450.871 296.811 450.067 294.705C449.282 292.569 448.4 290.411 447.647 288.189C446.898 285.963 446.272 283.698 445.773 281.404C445.552 280.253 445.304 279.106 445.142 277.947L444.873 276.213L444.67 274.471L444.471 272.73C444.397 272.152 444.382 271.564 444.334 270.981L444.22 269.229C444.176 268.643 444.191 268.056 444.172 267.469C444.079 262.783 444.474 258.101 445.353 253.497C446.19 248.907 447.334 244.429 448.142 239.92C448.981 235.42 449.461 230.86 449.577 226.284C449.667 221.702 449.376 217.12 448.706 212.586C448.024 208.042 447.007 203.554 445.663 199.16C444.326 194.753 442.73 190.429 440.885 186.21L440.785 185.989C440.899 185.936 441.01 185.893 441.125 185.852L441.221 186.059C443.139 190.266 444.807 194.583 446.216 198.987C447.619 203.396 448.69 207.903 449.422 212.471C450.142 217.043 450.48 221.667 450.432 226.295C450.372 230.922 449.921 235.536 449.082 240.086C448.281 244.643 447.156 249.129 446.341 253.674C445.491 258.214 445.118 262.829 445.227 267.447C445.245 268.022 445.234 268.598 445.279 269.173L445.401 270.9C445.449 271.475 445.468 272.051 445.541 272.626L445.744 274.342L445.951 276.061L446.224 277.769C446.386 278.913 446.633 280.038 446.854 281.171C447.34 283.425 447.947 285.652 448.673 287.841C449.404 290.029 450.275 292.173 451.064 294.346C451.882 296.515 452.483 298.761 452.857 301.049C453.19 303.342 453.337 305.658 453.297 307.974C453.255 312.618 452.394 317.218 450.751 321.562C449.947 323.731 448.958 325.827 447.943 327.904C446.929 329.981 445.881 332.04 445.01 334.176C444.12 336.303 443.485 338.528 443.121 340.806C442.783 343.088 442.748 345.406 443.018 347.697C443.466 352.296 444.463 356.824 445.987 361.186C447.505 365.55 449.521 369.725 451.997 373.626C452.565 374.541 453.161 375.438 453.784 376.316C454.493 377.323 455.234 378.304 456.001 379.271C457.438 381.077 458.982 382.796 460.623 384.419Z" fill="white"/>
<path fill-rule="evenodd" clip-rule="evenodd" d="M489.689 379.628C494.399 373.446 500.138 368.12 506.654 363.883C513.238 359.745 520.69 356.873 528.449 355.788C530.383 355.507 532.328 355.322 534.266 355.194C536.204 355.066 538.136 355.007 540.045 354.89C541.933 354.8 543.813 354.583 545.672 354.24C546.583 354.065 547.482 353.831 548.362 353.537C550.112 352.959 551.766 352.125 553.272 351.062C553.636 350.784 554.025 350.536 554.362 350.227L554.882 349.783C555.058 349.637 555.209 349.466 555.374 349.31C556.675 348.031 557.737 346.529 558.51 344.876C560.099 341.557 560.671 337.769 561.121 333.983C561.583 330.184 561.903 326.311 562.548 322.457C563.154 318.574 564.182 314.769 565.613 311.109C567.088 307.46 569.006 304.006 571.325 300.826C571.903 300.033 572.526 299.275 573.124 298.498L573.579 297.92L574.067 297.372L575.049 296.279C575.379 295.917 575.7 295.548 576.038 295.194L577.088 294.169L578.137 293.145L578.663 292.633L579.216 292.154L581.432 290.241C582.178 289.614 582.972 289.047 583.739 288.447L584.899 287.559C585.284 287.261 585.699 287.006 586.098 286.727L588.511 285.088C588.907 284.805 589.333 284.571 589.746 284.315L590.994 283.563L592.241 282.81C592.657 282.56 593.069 282.303 593.502 282.083L596.067 280.708L597.349 280.021C597.775 279.79 598.221 279.598 598.658 279.391C602.151 277.709 605.719 276.2 609.335 274.831L612.059 273.837C612.969 273.512 613.867 273.156 614.793 272.88L620.32 271.145L620.354 271.251C613.02 273.636 605.808 276.434 598.921 279.912C598.491 280.129 598.05 280.325 597.629 280.559L596.363 281.257L593.83 282.652C593.402 282.876 592.996 283.136 592.587 283.39L591.357 284.152L590.128 284.914C589.721 285.172 589.301 285.409 588.912 285.695L586.539 287.346C586.148 287.627 585.74 287.885 585.362 288.184L584.225 289.076C583.472 289.678 582.694 290.247 581.965 290.876L579.799 292.789C576.96 295.397 574.383 298.276 572.106 301.386C569.847 304.512 567.982 307.903 566.551 311.484C565.163 315.08 564.172 318.817 563.594 322.628C562.973 326.433 562.671 330.281 562.222 334.116C561.992 336.033 561.719 337.948 561.303 339.839C560.907 341.737 560.29 343.583 559.465 345.338C558.632 347.096 557.493 348.692 556.099 350.05C555.923 350.217 555.759 350.397 555.574 350.552L555.018 351.022C554.657 351.348 554.247 351.61 553.859 351.901C552.268 353.014 550.521 353.885 548.675 354.486C547.755 354.788 546.815 355.03 545.863 355.208C543.96 355.552 542.036 355.766 540.104 355.85C536.249 356.054 532.387 356.12 528.567 356.646C520.916 357.624 513.537 360.371 506.965 364.386C503.683 366.412 500.592 368.732 497.729 371.316C494.872 373.908 492.215 376.711 489.779 379.702L489.689 379.628Z" fill="white"/>
</g>
<path fill-rule="evenodd" clip-rule="evenodd" d="M344.74 358.634V304.032H290.137V358.634L262.468 369.702H372.411L344.74 358.634Z" fill="#404884"/>
<path fill-rule="evenodd" clip-rule="evenodd" d="M184.156 102.961H457.732C461.143 102.961 463.907 105.726 463.907 109.136V308.556C463.907 311.966 461.143 314.731 457.732 314.731H184.156C180.746 314.731 177.981 311.966 177.981 308.556V109.136C177.981 105.726 180.746 102.961 184.156 102.961Z" fill="#404884"/>
<path fill-rule="evenodd" clip-rule="evenodd" d="M188.838 108.864H453.051C456.659 108.864 459.583 111.789 459.583 115.396V296.392C459.583 300 456.659 302.925 453.051 302.925H188.838C185.23 302.925 182.306 300 182.306 296.392V115.396C182.306 111.789 185.23 108.864 188.838 108.864Z" fill="white"/>
<path fill-rule="evenodd" clip-rule="evenodd" d="M434.378 108.496C434.378 108.496 435.37 87.0979 420.502 87.0979H301.56C301.56 87.0979 313.784 95.5835 311.471 108.496H434.378Z" fill="#353B6E"/>
<path fill-rule="evenodd" clip-rule="evenodd" d="M286.08 86.7277C301.206 86.7277 394.548 85.9898 408.936 86.3598L409.478 86.3742C413.956 86.4949 417.053 86.3598 416.684 87.0976C413.714 93.036 408.512 111.281 408.198 129.156C407.595 163.525 408.963 214.4 409.483 231.855C409.531 233.466 408.925 235.028 407.802 236.185C406.679 237.341 405.135 237.993 403.523 237.993H282.705C279.455 237.993 276.804 235.391 276.743 232.142C276.323 209.367 274.953 127.196 276.855 112.923C279.07 96.32 281.284 86.7277 286.08 86.7277Z" fill="#0073DD"/>
<path fill-rule="evenodd" clip-rule="evenodd" d="M286.08 86.7277C301.206 86.7277 394.548 85.9898 408.936 86.3598L409.478 86.3742C413.956 86.4949 417.053 86.3598 416.684 87.0976C413.714 93.036 408.512 111.281 408.198 129.156C407.595 163.525 408.963 214.4 409.483 231.855C409.531 233.466 408.925 235.028 407.802 236.185C406.679 237.341 405.135 237.993 403.523 237.993H282.705C279.455 237.993 276.804 235.391 276.743 232.142C276.323 209.367 274.953 127.196 276.855 112.923C279.07 96.32 281.284 86.7277 286.08 86.7277Z" fill="#C4E6FF" fill-opacity="0.2"/>
<path fill-rule="evenodd" clip-rule="evenodd" d="M261.36 216.594C261.36 216.594 260.295 237.993 276.278 237.993H404.139C404.139 237.993 390.998 229.507 393.484 216.595L261.36 216.594Z" fill="#0073DD"/>
<path fill-rule="evenodd" clip-rule="evenodd" d="M261.36 216.594C261.36 216.594 260.295 237.993 276.278 237.993H404.139C404.139 237.993 390.998 229.507 393.484 216.595L261.36 216.594Z" fill="#C4E6FF" fill-opacity="0.6"/>
<path d="M387.906 104.252H294.934V105.359H387.906V104.252Z" fill="white"/>
<path d="M387.906 118.456H294.934V119.563H387.906V118.456Z" fill="white"/>
<path d="M387.906 132.66H294.934V133.767H387.906V132.66Z" fill="white"/>
<path d="M387.906 146.865H294.934V147.971H387.906V146.865Z" fill="white"/>
<path d="M387.906 161.068H294.934V162.175H387.906V161.068Z" fill="white"/>
<path d="M387.906 175.272H294.934V176.379H387.906V175.272Z" fill="white"/>
<path d="M387.906 189.477H294.934V190.583H387.906V189.477Z" fill="white"/>
<path d="M387.906 203.681H294.934V204.787H387.906V203.681Z" fill="white"/>
<path d="M344.741 103.699H293.458V163.098H344.741V103.699Z" fill="#176BEF"/>
<path d="M340.281 108.864H297.918V157.933H340.281V108.864Z" fill="white"/>
<path fill-rule="evenodd" clip-rule="evenodd" d="M288.945 142.32L288.934 142.336L280.545 133.583L275.012 139.117L284.159 149.244C284.64 150.21 286.227 153.063 288.99 154.903L295.092 159.392L297.487 156.138L291.549 151.69C291.549 151.69 301.868 150.112 305.572 145.077L307.967 141.822C307.967 141.822 299.826 147.277 288.945 142.32Z" fill="#353B6E"/>
<path fill-rule="evenodd" clip-rule="evenodd" d="M223.226 160.826L225.205 154.243L216.719 153.505L214.884 160.849C214.489 161.586 212.939 164.723 213.105 168.254V175.831H217.145L217.208 168.412C217.208 168.412 224.595 175.789 230.845 175.789H234.886C234.886 175.789 224.694 170.299 223.226 160.826Z" fill="#353B6E"/>
<path fill-rule="evenodd" clip-rule="evenodd" d="M250.293 89.3103C246.794 107.532 227.23 147.269 223.586 160.825L213.091 157.62C213.091 157.62 217.464 142.314 218.776 133.713C220.088 125.113 225.189 105.143 228.688 97.8538C228.688 97.8538 177.231 116.95 184.229 78.6123C184.228 78.6112 253.791 71.0889 250.293 89.3103Z" fill="#353B6E"/>
<path fill-rule="evenodd" clip-rule="evenodd" d="M183.146 80.4553C183.146 80.4553 179.855 102.226 189.184 103.246C198.513 104.266 224.169 101.351 227.813 104.995C231.457 108.639 245.16 123.07 258.279 131.233C271.399 139.396 278.541 146.248 278.541 146.248L287.433 139.397C287.433 139.397 259.154 104.704 253.469 98.2902C247.784 91.8767 242.496 81.4078 232.583 80.8247C222.671 80.2416 184.991 80.4553 183.146 80.4553Z" fill="#36B37E"/>
<path fill-rule="evenodd" clip-rule="evenodd" d="M201.595 0.0387169C206.326 -0.416911 210.148 3.28908 210.66 3.79962C214.73 7.85823 214.316 13.7798 213.625 17.8734C212.703 23.3362 217.53 24.3407 219.654 28.7804C221.662 32.9756 219.296 39.505 214.891 42.2498C208.835 46.0243 200.455 41.6927 196.24 37.7424C187.203 29.2722 190.181 15.8693 190.614 14.056C191.068 12.1557 193.785 0.79074 201.595 0.0387169Z" fill="#353B6E"/>
<path fill-rule="evenodd" clip-rule="evenodd" d="M209.081 6.51762C209.081 6.51762 214.993 23.1357 206.473 21.9733C201.479 21.2916 199.009 16.6978 199.009 16.6978C199.009 16.6978 196.673 17.1426 196.121 14.2849C195.753 12.3819 198.286 10.6325 199.176 14.0728C199.176 14.0728 200.183 14.0844 201.049 11.8209C201.591 10.4047 201.781 8.5761 203.768 9.01412C205.756 9.45214 208.868 7.58601 209.081 6.51762Z" fill="#E6A9A5"/>
<path fill-rule="evenodd" clip-rule="evenodd" d="M207.905 21.2023C207.905 21.2023 203.333 27.7603 204.217 31.5504C205.102 35.3405 190.049 36.8634 193.308 29.895C196.567 22.9266 198.984 21.3418 201.866 14.7599C204.748 8.17802 207.905 21.2023 207.905 21.2023Z" fill="#E6A9A5"/>
<path fill-rule="evenodd" clip-rule="evenodd" d="M210.817 27.3291C207.968 28.0328 206.357 30.167 207.007 33.029C209.692 44.8711 216.45 73.0002 220.053 73.0107C224.616 73.0236 241.44 73.8153 241.44 73.8153L244.022 65.6986L223.731 66.4364L217.089 35.8148C216.642 33.2691 216.484 30.4704 214.436 28.8931C212.406 27.3291 210.817 27.3291 210.817 27.3291Z" fill="#E6A9A5"/>
<path fill-rule="evenodd" clip-rule="evenodd" d="M210.7 27.3486C213.596 26.8791 216.335 28.8136 216.861 31.6999C219.032 43.6466 230.764 59.4806 227.454 60.9021C223.26 62.7026 210.483 60.5343 210.483 60.5343L206.252 33.5813C206.008 32.1639 206.34 30.7077 207.176 29.537C208.011 28.3663 209.28 27.5783 210.7 27.3486Z" fill="#FB3331"/>
<path fill-rule="evenodd" clip-rule="evenodd" d="M210.7 27.3486C213.596 26.8791 216.335 28.8136 216.861 31.6999C219.032 43.6466 230.764 59.4806 227.454 60.9021C223.26 62.7026 210.483 60.5343 210.483 60.5343L206.252 33.5813C206.008 32.1639 206.34 30.7077 207.176 29.537C208.011 28.3663 209.28 27.5783 210.7 27.3486Z" fill="black" fill-opacity="0.1"/>
<path fill-rule="evenodd" clip-rule="evenodd" d="M217.457 48.7273C209.71 64.5916 219.302 80.4558 219.302 80.4558H183.147C183.147 80.4558 193.108 64.5916 188.681 57.2127C184.253 49.8338 178.719 35.4455 180.195 31.3872C181.28 28.3988 188.367 27.41 192.027 27.0966C193.341 26.9859 194.215 26.9599 194.215 26.9599L206.836 26.6972L209.341 26.9599C211.555 27.3278 212.433 27.5982 213.259 29.1921C216.369 35.1838 220.754 41.9778 217.457 48.7273Z" fill="url(#paint0_linear)"/>
<path fill-rule="evenodd" clip-rule="evenodd" d="M249.924 64.5916C249.924 64.5916 255.089 61.64 255.458 60.5332C255.827 59.4265 257.672 60.9011 255.826 62.7467C253.981 64.5924 252.506 65.3294 252.506 65.3294L249.924 64.5916Z" fill="#E6A9A5"/>
<path fill-rule="evenodd" clip-rule="evenodd" d="M196.889 84.3289H237.79L254.905 72.1457L214.584 72.7259L196.889 84.3289Z" fill="#AFAFAF"/>
<path fill-rule="evenodd" clip-rule="evenodd" d="M254.905 72.1465L237.79 84.33V46.4747L254.216 31.5719L254.905 72.1465Z" fill="#DDDDDD"/>
<path fill-rule="evenodd" clip-rule="evenodd" d="M199.38 71.9712C199.38 71.9712 206.389 73.8158 207.496 73.4469C208.603 73.078 212.292 70.8645 214.875 71.9712C216.709 72.7572 219.287 74.4738 220.628 75.4024C220.857 75.5612 220.974 75.8382 220.928 76.1132C220.882 76.3882 220.681 76.6119 220.412 76.6873C219.687 76.8692 218.932 76.8961 218.195 76.7661C215.319 76.4032 212.397 76.7843 209.71 77.8729C207.792 78.6948 196.797 76.3972 196.797 76.3972L199.38 71.9712Z" fill="#E6A9A5"/>
<path fill-rule="evenodd" clip-rule="evenodd" d="M185.142 28.4556C182.246 27.9853 179.506 29.9202 178.981 32.8069C176.81 44.7539 173.195 71.287 176.505 72.7085C180.699 74.509 200.117 77.1358 200.117 77.1358L201.962 72.3396L184.189 66.0499L189.589 34.6872C189.834 33.2701 189.501 31.8143 188.666 30.6438C187.83 29.4734 186.562 28.6855 185.142 28.4556Z" fill="#E6A9A5"/>
<path fill-rule="evenodd" clip-rule="evenodd" d="M185.143 28.4556C182.247 27.9853 179.507 29.9202 178.982 32.8069C176.811 44.7539 165.079 60.5879 168.389 62.0094C172.583 63.8099 185.36 61.6416 185.36 61.6416L189.591 34.6885C189.835 33.2711 189.503 31.8148 188.667 30.6441C187.832 29.4733 186.563 28.6853 185.143 28.4556Z" fill="#FB3331"/>
<path fill-rule="evenodd" clip-rule="evenodd" d="M185.143 28.4556C182.247 27.9853 179.507 29.9202 178.982 32.8069C176.811 44.7539 165.079 60.5879 168.389 62.0094C172.583 63.8099 185.36 61.6416 185.36 61.6416L189.591 34.6885C189.835 33.2711 189.503 31.8148 188.667 30.6441C187.832 29.4733 186.563 28.6853 185.143 28.4556Z" fill="white" fill-opacity="0.15"/>
<path fill-rule="evenodd" clip-rule="evenodd" d="M251.891 64.9211C252.017 64.2657 252.574 63.781 253.241 63.7463C254.552 63.6861 256.565 63.8369 256.565 65.3294C256.565 67.5429 256.197 71.2324 253.244 70.8634C251.04 70.5881 251.511 66.8146 251.891 64.9211Z" fill="#E6A9A5"/>
<path fill-rule="evenodd" clip-rule="evenodd" d="M205.651 39.5039C201.759 39.1791 193.871 29.443 192.026 27.0966C193.34 26.9859 194.214 26.9599 194.214 26.9599L206.835 26.6972C210.071 33.103 209.89 39.8581 205.651 39.5039Z" fill="#E6A9A5"/>
<path d="M134.662 148.956H125.854V155.747H134.662V148.956Z" fill="#685696"/>
<path fill-rule="evenodd" clip-rule="evenodd" d="M139.521 136.92C139.521 131.213 134.779 126.661 129.181 127.319C125.131 127.796 121.774 131.103 121.121 135.301C120.61 138.383 121.58 141.526 123.739 143.785C125.072 145.126 125.831 146.934 125.854 148.825V148.956H134.662V148.871C134.67 146.98 135.417 145.166 136.744 143.819C138.536 141.971 139.533 139.494 139.521 136.92Z" fill="#FFB000"/>
<path fill-rule="evenodd" clip-rule="evenodd" d="M127.151 136.016C127.641 136.016 127.874 136.431 128.08 136.795C128.29 137.17 128.439 137.398 128.708 137.398C128.977 137.398 129.123 137.17 129.334 136.796C129.539 136.43 129.772 136.016 130.262 136.016C130.751 136.016 130.984 136.43 131.189 136.796C131.4 137.17 131.548 137.398 131.816 137.398C132.084 137.398 132.231 137.17 132.442 136.796C132.647 136.43 132.88 136.016 133.369 136.016C133.859 136.016 134.091 136.43 134.296 136.795C134.506 137.17 134.654 137.398 134.921 137.398C135.017 137.398 135.094 137.475 135.094 137.57C135.094 137.666 135.017 137.743 134.921 137.743C134.432 137.743 134.2 137.329 133.995 136.964C133.785 136.589 133.637 136.361 133.369 136.361C133.102 136.361 132.954 136.589 132.743 136.966C132.538 137.331 132.305 137.744 131.816 137.744C131.327 137.744 131.094 137.331 130.889 136.966C130.679 136.59 130.531 136.361 130.262 136.361C129.994 136.361 129.847 136.589 129.635 136.966C129.431 137.331 129.198 137.744 128.708 137.744C128.219 137.744 127.985 137.331 127.78 136.966C127.569 136.59 127.421 136.363 127.151 136.363C126.882 136.363 126.735 136.59 126.524 136.966C126.318 137.331 126.086 137.744 125.595 137.744C125.5 137.744 125.422 137.667 125.422 137.572C125.422 137.476 125.5 137.399 125.595 137.399C125.864 137.399 126.012 137.172 126.223 136.795C126.428 136.43 126.661 136.016 127.151 136.016Z" fill="white"/>
<path fill-rule="evenodd" clip-rule="evenodd" d="M130.583 143.051H129.936C129.349 143.051 128.874 143.434 128.874 143.906V148.957H131.645V143.906C131.644 143.434 131.169 143.051 130.583 143.051Z" fill="white"/>
<path fill-rule="evenodd" clip-rule="evenodd" d="M129.398 143.902C129.321 143.902 129.25 143.863 129.207 143.799L125.231 137.696C125.186 137.628 125.182 137.541 125.218 137.468C125.255 137.396 125.328 137.348 125.409 137.344C125.49 137.339 125.568 137.378 125.613 137.446L129.589 143.549C129.635 143.619 129.639 143.709 129.599 143.783C129.559 143.856 129.482 143.902 129.398 143.902V143.902Z" fill="white"/>
<path fill-rule="evenodd" clip-rule="evenodd" d="M131.118 143.902C131.034 143.902 130.956 143.856 130.917 143.782C130.877 143.708 130.881 143.619 130.927 143.549L134.904 137.446C134.948 137.378 135.026 137.339 135.107 137.343C135.188 137.348 135.261 137.395 135.298 137.468C135.335 137.54 135.33 137.627 135.285 137.695L131.308 143.798C131.266 143.863 131.194 143.902 131.118 143.902Z" fill="white"/>
<path fill-rule="evenodd" clip-rule="evenodd" d="M140.046 121.142C140.263 120.76 140.131 120.275 139.751 120.055C139.371 119.835 138.884 119.964 138.662 120.343L136.492 124.103C136.387 124.285 136.359 124.502 136.414 124.705C136.47 124.908 136.604 125.08 136.788 125.184L136.802 125.191C137.178 125.407 137.658 125.278 137.876 124.902L140.046 121.142Z" fill="#FFB000"/>
<path fill-rule="evenodd" clip-rule="evenodd" d="M146.412 128.093C146.791 127.871 146.919 127.384 146.7 127.004C146.48 126.624 145.995 126.492 145.613 126.709L141.854 128.88C141.478 129.097 141.349 129.577 141.565 129.953L141.572 129.967C141.676 130.151 141.848 130.285 142.051 130.341C142.254 130.396 142.471 130.369 142.653 130.263L146.412 128.093Z" fill="#FFB000"/>
<path fill-rule="evenodd" clip-rule="evenodd" d="M148.452 135.698H144.09C143.655 135.699 143.303 136.052 143.303 136.487V136.507C143.303 136.942 143.655 137.294 144.09 137.295H148.452C148.74 137.3 149.01 137.149 149.156 136.9C149.302 136.65 149.302 136.342 149.156 136.092C149.01 135.843 148.74 135.692 148.452 135.697V135.698Z" fill="#FFB000"/>
<path fill-rule="evenodd" clip-rule="evenodd" d="M145.614 146.285C145.995 146.502 146.481 146.371 146.7 145.99C146.92 145.61 146.791 145.124 146.413 144.901L142.653 142.731C142.471 142.626 142.254 142.598 142.051 142.653C141.848 142.709 141.675 142.843 141.572 143.027L141.564 143.041C141.349 143.417 141.478 143.897 141.853 144.114L145.614 146.285Z" fill="#FFB000"/>
<path fill-rule="evenodd" clip-rule="evenodd" d="M114.105 144.901C113.857 145.044 113.705 145.308 113.705 145.593C113.705 145.879 113.857 146.142 114.104 146.285C114.352 146.428 114.656 146.428 114.903 146.285L118.663 144.114C119.038 143.897 119.168 143.417 118.952 143.041L118.944 143.027C118.841 142.843 118.669 142.709 118.466 142.653C118.263 142.598 118.046 142.626 117.863 142.731L114.105 144.901Z" fill="#FFB000"/>
<path fill-rule="evenodd" clip-rule="evenodd" d="M117.216 136.488C117.216 136.053 116.864 135.7 116.428 135.7H112.066C111.631 135.708 111.282 136.063 111.282 136.499C111.282 136.934 111.631 137.29 112.066 137.298H116.428C116.864 137.298 117.216 136.945 117.216 136.509V136.488Z" fill="#FFB000"/>
<path fill-rule="evenodd" clip-rule="evenodd" d="M114.903 126.709C114.521 126.496 114.04 126.629 113.821 127.007C113.603 127.386 113.729 127.869 114.104 128.093L117.864 130.263C118.046 130.369 118.263 130.396 118.466 130.341C118.669 130.285 118.841 130.151 118.945 129.967L118.952 129.953C119.168 129.577 119.039 129.097 118.663 128.88L114.903 126.709Z" fill="#FFB000"/>
<path fill-rule="evenodd" clip-rule="evenodd" d="M121.854 120.343C121.632 119.964 121.146 119.835 120.765 120.055C120.385 120.275 120.253 120.76 120.47 121.142L122.641 124.901C122.858 125.276 123.338 125.406 123.714 125.19L123.728 125.183C123.912 125.079 124.047 124.907 124.102 124.704C124.158 124.501 124.13 124.284 124.025 124.102L121.854 120.343Z" fill="#FFB000"/>
<path fill-rule="evenodd" clip-rule="evenodd" d="M130.268 123.455C130.704 123.455 131.056 123.102 131.056 122.667V118.305C131.062 118.016 130.911 117.747 130.661 117.601C130.412 117.455 130.103 117.455 129.854 117.601C129.605 117.747 129.453 118.016 129.459 118.305V122.667C129.459 123.102 129.812 123.455 130.247 123.455H130.268Z" fill="#FFB000"/>
<path fill-rule="evenodd" clip-rule="evenodd" d="M301.433 4.79655L299.009 4.65755L298.023 6.99612L296.217 7.62675L293.991 6.40754L292.178 8.02326L293.135 10.3742L292.302 12.0966L289.866 12.8087L289.727 15.2326L292.066 16.2185L292.696 18.0247L291.477 20.2509L293.093 22.0639L295.444 21.1075L297.166 21.9394L297.878 24.3757L300.302 24.5147L301.288 22.1761L303.094 21.5455L305.32 22.7647L307.133 21.149L306.177 18.798L307.009 17.0756L309.445 16.3636L309.584 13.9393L307.245 12.9534L306.615 11.1472L307.834 8.92111L306.218 7.10806L303.867 8.06451L302.145 7.23261L301.433 4.79655Z" fill="#FF73B7"/>
<path fill-rule="evenodd" clip-rule="evenodd" d="M291.134 11.0266L290.212 8.38191L287.285 8.36352L285.817 6.71653L286.132 3.80618L283.609 2.58802L281.526 4.64492L279.323 4.51853L277.489 2.23671L274.845 3.15847L274.826 6.0859L273.179 7.55395L270.269 7.23863L269.051 9.76114L271.108 11.8441L270.982 14.0468L268.7 15.8809L269.621 18.5253L272.549 18.5437L274.017 20.1907L273.702 23.101L276.224 24.3192L278.307 22.2623L280.51 22.3887L282.344 24.6705L284.989 23.7487L285.007 20.8213L286.654 19.3533L289.564 19.6686L290.782 17.1461L288.725 15.0629L288.852 12.8602L291.134 11.0266Z" fill="#AACEF2"/>
<path fill-rule="evenodd" clip-rule="evenodd" d="M273.877 13.1061C273.736 15.5495 275.082 17.8368 277.286 18.9014C279.49 19.966 282.118 19.5982 283.945 17.9696C285.771 16.3409 286.437 13.7721 285.632 11.461C284.826 9.14995 282.708 7.55169 280.264 7.41153C278.662 7.31956 277.089 7.86786 275.891 8.93581C274.693 10.0038 273.969 11.5039 273.877 13.1061Z" fill="white"/>
<path fill-rule="evenodd" clip-rule="evenodd" d="M294.101 14.2667C293.972 16.5134 295.209 18.6164 297.236 19.5952C299.262 20.5739 301.678 20.2357 303.358 18.7381C305.038 17.2405 305.65 14.8785 304.909 12.7536C304.168 10.6287 302.22 9.15935 299.974 9.03067C296.906 8.85513 294.277 11.1992 294.101 14.2667Z" fill="white"/>
<path fill-rule="evenodd" clip-rule="evenodd" d="M275.359 13.191C275.253 15.0349 276.268 16.7611 277.931 17.5646C279.594 18.3681 281.578 18.0906 282.956 16.8616C284.335 15.6326 284.838 13.694 284.23 11.9499C283.622 10.2058 282.023 8.99959 280.179 8.89378C278.97 8.82433 277.783 9.23806 276.879 10.0439C275.975 10.8498 275.428 11.9819 275.359 13.191Z" fill="#32397C"/>
<path fill-rule="evenodd" clip-rule="evenodd" d="M295.512 14.3477C295.415 16.0243 296.338 17.5939 297.85 18.3246C299.362 19.0553 301.166 18.8031 302.419 17.6856C303.673 16.5681 304.13 14.8054 303.577 13.2197C303.024 11.634 301.57 10.5375 299.893 10.4417C297.605 10.311 295.644 12.0594 295.512 14.3477Z" fill="#32397C"/>
<path d="M345.66 274.885L345.644 273.399C347.192 273.39 348.76 273.362 350.305 273.318L350.378 274.804C348.814 274.848 347.227 274.876 345.66 274.885ZM340.937 274.861C339.37 274.834 337.782 274.79 336.217 274.729L336.318 273.245C337.864 273.305 339.433 273.35 340.979 273.375L340.937 274.861ZM355.096 274.614L354.964 273.131C356.509 273.053 358.073 272.953 359.613 272.839L359.804 274.318C358.243 274.434 356.659 274.535 355.096 274.614V274.614ZM331.504 274.49C329.942 274.393 328.36 274.276 326.803 274.143L327.022 272.667C328.559 272.798 330.121 272.913 331.664 273.008L331.504 274.49ZM364.495 273.914L364.246 272.439C365.78 272.289 367.333 272.119 368.862 271.934L369.171 273.401C367.622 273.589 366.049 273.761 364.495 273.914ZM322.118 273.689C320.565 273.52 318.996 273.331 317.453 273.127L317.788 271.663C319.312 271.864 320.862 272.051 322.395 272.217L322.118 273.689ZM373.823 272.782L373.455 271.322C374.975 271.101 376.512 270.86 378.022 270.604L378.448 272.055C376.919 272.313 375.363 272.558 373.823 272.782ZM312.812 272.457C311.276 272.217 309.724 271.955 308.2 271.68L308.653 270.235C310.157 270.507 311.689 270.764 313.206 271.002L312.812 272.457ZM383.044 271.22L382.56 269.78C384.061 269.489 385.575 269.175 387.061 268.851L387.602 270.28C386.097 270.609 384.564 270.925 383.044 271.22V271.22ZM303.621 270.796C302.108 270.485 300.58 270.152 299.081 269.807L299.648 268.384C301.129 268.726 302.637 269.054 304.132 269.361L303.621 270.796ZM392.121 269.234L391.523 267.819C392.994 267.459 394.482 267.077 395.94 266.683L396.596 268.083C395.118 268.483 393.613 268.87 392.121 269.234ZM294.582 268.712C293.09 268.33 291.586 267.925 290.115 267.509L290.797 266.116C292.251 266.527 293.734 266.927 295.207 267.304L294.582 268.712ZM401.022 266.83L400.31 265.445C401.754 265.017 403.207 264.566 404.629 264.105L405.396 265.471C403.955 265.939 402.484 266.396 401.022 266.83ZM285.7 266.203C284.244 265.753 282.777 265.279 281.34 264.795L282.133 263.436C283.552 263.914 285 264.382 286.437 264.827L285.7 266.203ZM409.7 264.02L408.878 262.672C410.281 262.178 411.69 261.663 413.069 261.139L413.944 262.468C412.548 263 411.12 263.521 409.699 264.02H409.7ZM277.041 263.286C275.624 262.769 274.2 262.228 272.805 261.679L273.707 260.36C275.083 260.902 276.49 261.437 277.889 261.947L277.041 263.286ZM418.126 260.818L417.198 259.51C418.555 258.954 419.922 258.374 421.261 257.786L422.24 259.073C420.884 259.669 419.5 260.256 418.126 260.819V260.818ZM268.637 259.975C267.271 259.395 265.892 258.789 264.542 258.175L265.547 256.899C266.88 257.506 268.241 258.104 269.591 258.677L268.637 259.975ZM260.521 256.28C259.199 255.637 257.873 254.968 256.579 254.295L257.685 253.068C258.963 253.734 260.273 254.394 261.577 255.029L260.521 256.28ZM252.717 252.218C251.452 251.516 250.183 250.788 248.942 250.055L250.144 248.882C251.368 249.606 252.622 250.325 253.871 251.019L252.717 252.218ZM245.257 247.804C244.048 247.042 242.84 246.258 241.664 245.47L242.958 244.356C244.119 245.133 245.312 245.908 246.505 246.66L245.257 247.804ZM238.168 243.056C237.025 242.241 235.882 241.403 234.77 240.562L236.15 239.508C237.249 240.339 238.377 241.168 239.506 241.972L238.168 243.056ZM231.474 237.99C230.399 237.126 229.325 236.236 228.283 235.344L229.746 234.357C230.775 235.237 231.835 236.116 232.896 236.97L231.474 237.99ZM225.201 232.626C224.195 231.711 223.196 230.773 222.23 229.838L223.77 228.921C224.723 229.844 225.71 230.77 226.703 231.673L225.201 232.626ZM219.373 226.984C218.446 226.027 217.525 225.045 216.633 224.064L218.244 223.22C219.123 224.188 220.033 225.158 220.948 226.102L219.373 226.984ZM214.013 221.083C213.162 220.081 212.321 219.06 211.515 218.042L213.19 217.275C213.986 218.278 214.816 219.287 215.656 220.276L214.013 221.083ZM209.142 214.946C208.374 213.907 207.618 212.847 206.897 211.797L208.631 211.109C209.344 212.146 210.09 213.193 210.848 214.218L209.142 214.946ZM490.407 196.949L488.563 196.452C489.081 195.344 489.583 194.21 490.058 193.084L491.921 193.537C491.44 194.678 490.932 195.826 490.407 196.949ZM493.29 190.101L491.408 189.693C491.835 188.557 492.243 187.406 492.619 186.272L494.516 186.635C494.135 187.784 493.722 188.95 493.29 190.101H493.29ZM495.601 183.141L493.689 182.823C494.021 181.675 494.333 180.507 494.618 179.351L496.54 179.624C496.252 180.795 495.936 181.979 495.599 183.142L495.601 183.141ZM497.335 176.086L495.401 175.858C495.638 174.702 495.853 173.522 496.044 172.349L497.986 172.531C497.793 173.72 497.574 174.916 497.336 176.086H497.335ZM498.491 168.962L496.543 168.826C496.685 167.657 496.804 166.468 496.899 165.294L498.851 165.385C498.757 166.574 498.636 167.777 498.492 168.962H498.491ZM499.068 161.799L497.112 161.754C497.159 160.577 497.183 159.385 497.183 158.212H499.139C499.14 159.4 499.116 160.607 499.068 161.799H499.068ZM497.183 158.016C497.18 156.836 497.154 155.644 497.104 154.472L499.06 154.425C499.109 155.611 499.136 156.818 499.139 158.013L497.183 158.016ZM496.883 150.933C496.786 149.759 496.663 148.57 496.519 147.4L498.467 147.262C498.613 148.447 498.737 149.65 498.835 150.84L496.883 150.933ZM496.012 143.878C495.819 142.708 495.601 141.528 495.362 140.37L497.294 140.14C497.536 141.313 497.758 142.508 497.953 143.694L496.012 143.878ZM494.569 136.879C494.28 135.72 493.965 134.552 493.632 133.407L495.543 133.087C495.88 134.246 496.2 135.429 496.491 136.603L494.569 136.879ZM492.555 129.961C492.172 128.815 491.762 127.664 491.336 126.54L493.216 126.13C493.647 127.268 494.063 128.434 494.451 129.595L492.555 129.961ZM489.977 123.151C489.504 122.035 489.002 120.906 488.48 119.796L490.322 119.296C490.851 120.422 491.36 121.565 491.839 122.696L489.977 123.151ZM486.847 116.477C486.286 115.389 485.692 114.289 485.084 113.209L486.882 112.624C487.499 113.718 488.1 114.831 488.669 115.935L486.847 116.477ZM483.188 109.983C482.54 108.924 481.858 107.854 481.16 106.801L482.908 106.133C483.615 107.199 484.305 108.284 484.962 109.356L483.188 109.983ZM479.003 103.668C478.267 102.637 477.498 101.599 476.72 100.586L478.41 99.8371C479.198 100.864 479.977 101.913 480.722 102.959L479.003 103.668ZM474.312 97.5581C473.495 96.5646 472.643 95.5651 471.782 94.5871L473.408 93.7604C474.281 94.7513 475.142 95.7637 475.971 96.7701L474.312 97.5581ZM469.133 91.6754C468.232 90.7174 467.301 89.7589 466.367 88.826L467.923 87.9256C468.869 88.8699 469.812 89.8411 470.725 90.8115L469.133 91.6754ZM463.486 86.0421C462.511 85.129 461.505 84.2151 460.494 83.3251L461.975 82.3529C463 83.2539 464.018 84.1796 465.005 85.1046L463.486 86.0421ZM457.394 80.6789C456.353 79.8162 455.274 78.9502 454.189 78.1038L455.589 77.0659C456.688 77.9222 457.78 78.8001 458.835 79.6728L457.394 80.6789ZM450.883 75.606C449.77 74.7914 448.623 73.9769 447.476 73.1839L448.789 72.0834C449.953 72.8854 451.114 73.7107 452.24 74.536L450.883 75.606ZM443.972 70.8416C442.79 70.0754 441.581 69.3147 440.376 68.5819L441.6 67.4228C442.819 68.1659 444.044 68.9361 445.242 69.712L443.972 70.8416ZM436.691 66.4041C435.453 65.6946 434.184 64.9923 432.919 64.313L434.049 63.0993C435.33 63.787 436.616 64.4993 437.869 65.2169L436.691 66.4041ZM429.064 62.31C427.77 61.6591 426.446 61.0154 425.13 60.3963L426.159 59.1327C427.493 59.7594 428.833 60.4113 430.144 61.0703L429.064 62.31ZM421.12 58.5749C419.774 57.9844 418.401 57.4035 417.037 56.8472L417.963 55.5376C419.344 56.1015 420.735 56.6901 422.098 57.2878L421.12 58.5749ZM273.531 56.1312L272.628 54.8126C274.011 54.2658 275.428 53.7264 276.84 53.2098L277.69 54.5483C276.296 55.0588 274.897 55.5917 273.532 56.1314L273.531 56.1312ZM412.887 55.2141C411.497 54.6886 410.079 54.1712 408.671 53.6783L409.49 52.3282C410.915 52.8275 412.352 53.3506 413.76 53.8838L412.887 55.2141ZM281.909 53.0613L281.114 51.7036C282.54 51.2212 283.997 50.7482 285.443 50.2984L286.185 51.6742C284.756 52.1185 283.318 52.5852 281.909 53.0616V53.0613ZM404.395 52.2413C402.966 51.7809 401.509 51.3308 400.062 50.9038L400.771 49.5185C402.237 49.9505 403.714 50.4067 405.159 50.8728L404.395 52.2413ZM290.529 50.3822L289.843 48.9896C291.312 48.5723 292.81 48.1663 294.292 47.7843L294.922 49.1914C293.457 49.57 291.979 49.9702 290.528 50.3822H290.529ZM395.675 49.668C394.211 49.2739 392.719 48.8937 391.239 48.5347L391.834 47.1187C393.332 47.4824 394.845 47.8684 396.327 48.2665L395.675 49.668ZM299.361 48.1049L298.789 46.6833C300.29 46.3352 301.817 46.0001 303.327 45.6872L303.841 47.1213C302.35 47.4301 300.842 47.7606 299.36 48.1049H299.361ZM386.774 47.5087C385.288 47.1855 383.772 46.8757 382.271 46.5866L382.751 45.1456C384.272 45.4381 385.806 45.7521 387.312 46.0795L386.774 47.5087ZM308.359 46.2416L307.903 44.7964C309.427 44.5187 310.977 44.2549 312.512 44.0124L312.911 45.4678C311.395 45.7072 309.864 45.9676 308.359 46.2416H308.359ZM377.732 45.7687C376.221 45.5151 374.684 45.2757 373.163 45.0574L373.526 43.5972C375.067 43.8182 376.624 44.0604 378.154 44.3174L377.732 45.7687ZM317.49 44.7983L317.151 43.3347C318.695 43.1282 320.264 42.9366 321.814 42.7653L322.096 44.2368C320.564 44.4068 319.014 44.5954 317.49 44.7996V44.7983ZM368.567 44.452C367.039 44.268 365.485 44.1012 363.95 43.9527L364.196 42.4784C365.751 42.6279 367.323 42.7979 368.873 42.9834L368.567 44.452ZM326.721 43.7809L326.499 42.3041C328.054 42.1691 329.636 42.0503 331.199 41.9507L331.363 43.4319C329.818 43.5312 328.257 43.6487 326.721 43.7819L326.721 43.7809ZM359.315 43.5609C357.776 43.4485 356.212 43.352 354.666 43.2748L354.794 41.7918C356.36 41.8706 357.944 41.9678 359.502 42.0808L359.315 43.5609ZM336.017 43.1886L335.911 41.7048C337.476 41.6409 339.065 41.5942 340.631 41.566L340.678 43.0522C339.13 43.0811 337.562 43.1271 336.016 43.1899L336.017 43.1886ZM350.007 43.0948C348.462 43.0528 346.893 43.0278 345.344 43.0207L345.355 41.5343C346.924 41.5416 348.512 41.5668 350.077 41.6094L350.007 43.0948Z" fill="#FD9ECC"/>
<path fill-rule="evenodd" clip-rule="evenodd" d="M461.597 33.9699H384.31C384.31 33.9699 390.468 -10.0626 407.096 18.2662C407.096 18.2662 421.26 -20.5318 436.04 20.4209C436.04 20.4206 461.597 11.7997 461.597 33.9699Z" fill="#0073DD"/>
<path fill-rule="evenodd" clip-rule="evenodd" d="M461.597 33.9699H384.31C384.31 33.9699 390.468 -10.0626 407.096 18.2662C407.096 18.2662 421.26 -20.5318 436.04 20.4209C436.04 20.4206 461.597 11.7997 461.597 33.9699Z" fill="#C4E6FF" fill-opacity="0.6"/>
<path fill-rule="evenodd" clip-rule="evenodd" d="M615.444 107.019H538.156C538.156 107.019 544.314 62.9869 560.942 91.3157C560.942 91.3157 575.106 52.5177 589.886 93.4704C589.886 93.4701 615.444 84.8492 615.444 107.019Z" fill="#176BEF"/>
<path fill-rule="evenodd" clip-rule="evenodd" d="M94.5051 188.185H17.2173C17.2173 188.185 23.3759 144.153 40.0034 172.482C40.0034 172.482 54.1676 133.684 68.9477 174.636C68.9477 174.636 94.5051 166.015 94.5051 188.185Z" fill="#176BEF"/>
<path d="M418.375 285.781L419.625 284.219L415.601 281L419.625 277.781L418.375 276.219L413.375 280.219C413.258 280.313 413.163 280.432 413.098 280.567C413.033 280.702 413 280.85 413 281C413 281.15 413.033 281.298 413.098 281.433C413.163 281.568 413.258 281.687 413.375 281.781L418.375 285.781ZM427.625 276.219L426.375 277.781L430.399 281L426.375 284.219L427.625 285.781L432.625 281.781C432.742 281.687 432.837 281.568 432.902 281.433C432.967 281.298 433 281.15 433 281C433 280.85 432.967 280.702 432.902 280.567C432.837 280.432 432.742 280.313 432.625 280.219L427.625 276.219Z" fill="#FFAEA8"/>
<path d="M418.375 285.781L419.625 284.219L415.601 281L419.625 277.781L418.375 276.219L413.375 280.219C413.258 280.313 413.163 280.432 413.098 280.567C413.033 280.702 413 280.85 413 281C413 281.15 413.033 281.298 413.098 281.433C413.163 281.568 413.258 281.687 413.375 281.781L418.375 285.781ZM427.625 276.219L426.375 277.781L430.399 281L426.375 284.219L427.625 285.781L432.625 281.781C432.742 281.687 432.837 281.568 432.902 281.433C432.967 281.298 433 281.15 433 281C433 280.85 432.967 280.702 432.902 280.567C432.837 280.432 432.742 280.313 432.625 280.219L427.625 276.219Z" fill="#E94A47" fill-opacity="0.2"/>
<path d="M425.976 272.216L421.976 290.216L420.023 289.782L424.023 271.782L425.976 272.216Z" fill="#FFAEA8"/>
<path d="M425.976 272.216L421.976 290.216L420.023 289.782L424.023 271.782L425.976 272.216Z" fill="#E94A47" fill-opacity="0.2"/>
<path d="M332.094 134.545H331.188V134.489C331.188 133.58 331.093 132.689 330.904 131.818C330.715 130.947 330.442 130.118 330.083 129.332C329.724 128.546 329.295 127.803 328.794 127.102C328.294 126.402 327.732 125.762 327.109 125.185C326.486 124.607 325.807 124.091 325.07 123.636H329.63C329.781 123.92 329.998 124.143 330.281 124.304C330.564 124.465 330.867 124.545 331.188 124.545C331.697 124.545 332.127 124.37 332.476 124.02C332.825 123.67 333 123.239 333 122.727C333 122.216 332.825 121.785 332.476 121.435C332.127 121.084 331.697 120.909 331.188 120.909C330.508 120.909 329.989 121.212 329.63 121.818H321.219V120.909C321.219 120.663 321.129 120.45 320.95 120.27C320.77 120.09 320.558 120 320.312 120H316.688C316.442 120 316.23 120.09 316.05 120.27C315.871 120.45 315.781 120.663 315.781 120.909V121.818H307.37C307.011 121.212 306.492 120.909 305.812 120.909C305.303 120.909 304.873 121.084 304.524 121.435C304.175 121.785 304 122.216 304 122.727C304 123.239 304.175 123.67 304.524 124.02C304.873 124.37 305.303 124.545 305.812 124.545C306.492 124.545 307.011 124.242 307.37 123.636H311.93C310.061 124.773 308.574 126.302 307.469 128.224C306.365 130.147 305.812 132.235 305.812 134.489V134.545H304.906C304.661 134.545 304.448 134.635 304.269 134.815C304.09 134.995 304 135.208 304 135.455V139.091C304 139.337 304.09 139.55 304.269 139.73C304.448 139.91 304.661 140 304.906 140H308.531C308.777 140 308.989 139.91 309.168 139.73C309.348 139.55 309.438 139.337 309.438 139.091V135.455C309.438 135.208 309.348 134.995 309.168 134.815C308.989 134.635 308.777 134.545 308.531 134.545H307.625V134.489C307.625 131.989 308.394 129.759 309.933 127.798C311.472 125.838 313.421 124.555 315.781 123.949V124.545C315.781 124.792 315.871 125.005 316.05 125.185C316.23 125.365 316.442 125.455 316.688 125.455H320.312C320.558 125.455 320.77 125.365 320.95 125.185C321.129 125.005 321.219 124.792 321.219 124.545V123.949C322.37 124.252 323.451 124.735 324.461 125.398C325.472 126.061 326.335 126.851 327.053 127.77C327.77 128.688 328.337 129.73 328.752 130.895C329.167 132.06 329.375 133.258 329.375 134.489V134.545H328.469C328.223 134.545 328.011 134.635 327.832 134.815C327.652 134.995 327.562 135.208 327.562 135.455V139.091C327.562 139.337 327.652 139.55 327.832 139.73C328.011 139.91 328.223 140 328.469 140H332.094C332.339 140 332.552 139.91 332.731 139.73C332.91 139.55 333 139.337 333 139.091V135.455C333 135.284 332.958 135.133 332.873 135C332.788 134.867 332.679 134.759 332.547 134.673C332.415 134.588 332.264 134.545 332.094 134.545ZM307.625 138.182H305.812V136.364H307.625V138.182ZM319.406 123.636H317.594V121.818H319.406V123.636ZM331.188 138.182H329.375V136.364H331.188V138.182Z" fill="#FFAEA8"/>
<path d="M332.094 134.545H331.188V134.489C331.188 133.58 331.093 132.689 330.904 131.818C330.715 130.947 330.442 130.118 330.083 129.332C329.724 128.546 329.295 127.803 328.794 127.102C328.294 126.402 327.732 125.762 327.109 125.185C326.486 124.607 325.807 124.091 325.07 123.636H329.63C329.781 123.92 329.998 124.143 330.281 124.304C330.564 124.465 330.867 124.545 331.188 124.545C331.697 124.545 332.127 124.37 332.476 124.02C332.825 123.67 333 123.239 333 122.727C333 122.216 332.825 121.785 332.476 121.435C332.127 121.084 331.697 120.909 331.188 120.909C330.508 120.909 329.989 121.212 329.63 121.818H321.219V120.909C321.219 120.663 321.129 120.45 320.95 120.27C320.77 120.09 320.558 120 320.312 120H316.688C316.442 120 316.23 120.09 316.05 120.27C315.871 120.45 315.781 120.663 315.781 120.909V121.818H307.37C307.011 121.212 306.492 120.909 305.812 120.909C305.303 120.909 304.873 121.084 304.524 121.435C304.175 121.785 304 122.216 304 122.727C304 123.239 304.175 123.67 304.524 124.02C304.873 124.37 305.303 124.545 305.812 124.545C306.492 124.545 307.011 124.242 307.37 123.636H311.93C310.061 124.773 308.574 126.302 307.469 128.224C306.365 130.147 305.812 132.235 305.812 134.489V134.545H304.906C304.661 134.545 304.448 134.635 304.269 134.815C304.09 134.995 304 135.208 304 135.455V139.091C304 139.337 304.09 139.55 304.269 139.73C304.448 139.91 304.661 140 304.906 140H308.531C308.777 140 308.989 139.91 309.168 139.73C309.348 139.55 309.438 139.337 309.438 139.091V135.455C309.438 135.208 309.348 134.995 309.168 134.815C308.989 134.635 308.777 134.545 308.531 134.545H307.625V134.489C307.625 131.989 308.394 129.759 309.933 127.798C311.472 125.838 313.421 124.555 315.781 123.949V124.545C315.781 124.792 315.871 125.005 316.05 125.185C316.23 125.365 316.442 125.455 316.688 125.455H320.312C320.558 125.455 320.77 125.365 320.95 125.185C321.129 125.005 321.219 124.792 321.219 124.545V123.949C322.37 124.252 323.451 124.735 324.461 125.398C325.472 126.061 326.335 126.851 327.053 127.77C327.77 128.688 328.337 129.73 328.752 130.895C329.167 132.06 329.375 133.258 329.375 134.489V134.545H328.469C328.223 134.545 328.011 134.635 327.832 134.815C327.652 134.995 327.562 135.208 327.562 135.455V139.091C327.562 139.337 327.652 139.55 327.832 139.73C328.011 139.91 328.223 140 328.469 140H332.094C332.339 140 332.552 139.91 332.731 139.73C332.91 139.55 333 139.337 333 139.091V135.455C333 135.284 332.958 135.133 332.873 135C332.788 134.867 332.679 134.759 332.547 134.673C332.415 134.588 332.264 134.545 332.094 134.545ZM307.625 138.182H305.812V136.364H307.625V138.182ZM319.406 123.636H317.594V121.818H319.406V123.636ZM331.188 138.182H329.375V136.364H331.188V138.182Z" fill="#E94A47" fill-opacity="0.2"/>
<defs>
<linearGradient id="paint0_linear" x1="208.101" y1="53.5528" x2="179.005" y2="37.9861" gradientUnits="userSpaceOnUse">
<stop stop-color="#FF3466"/>
<stop offset="0.69232" stop-color="#FF4508"/>
</linearGradient>
</defs>
</svg>
