<svg width="400" height="400" viewBox="0 0 400 400" fill="none" xmlns="http://www.w3.org/2000/svg">
<circle cx="200" cy="200" r="200" fill="#FFD4D0"/>
<path d="M144 134C140.287 134 136.726 135.475 134.101 138.101C131.475 140.726 130 144.287 130 148V218H144V148H214V134H144ZM172 162C168.287 162 164.726 163.475 162.101 166.101C159.475 168.726 158 172.287 158 176V246H172V176H242V162H172ZM256 204V260H200V204H256ZM256 190H200C196.287 190 192.726 191.475 190.101 194.101C187.475 196.726 186 200.287 186 204V260C186 263.713 187.475 267.274 190.101 269.899C192.726 272.525 196.287 274 200 274H256C259.713 274 263.274 272.525 265.899 269.899C268.525 267.274 270 263.713 270 260V204C270 200.287 268.525 196.726 265.899 194.101C263.274 191.475 259.713 190 256 190ZM214 211V253L242 232L214 211Z" fill="#32397C"/>
</svg>
