<svg width="400" height="478" viewBox="0 0 400 478" fill="none" xmlns="http://www.w3.org/2000/svg">
<path fill-rule="evenodd" clip-rule="evenodd" d="M202.438 323.362C202.438 324.115 201.892 324.725 201.219 324.725C200.546 324.725 200 324.115 200 323.362C200 322.61 200.546 322 201.219 322C201.892 322 202.438 322.61 202.438 323.362ZM219.5 323.362C219.5 324.115 218.954 324.725 218.281 324.725C217.608 324.725 217.062 324.115 217.062 323.362C217.062 322.61 217.608 322 218.281 322C218.954 322 219.5 322.61 219.5 323.362ZM235.344 324.725C236.017 324.725 236.562 324.115 236.562 323.362C236.562 322.61 236.017 322 235.344 322C234.671 322 234.125 322.61 234.125 323.362C234.125 324.115 234.671 324.725 235.344 324.725ZM253.625 323.362C253.625 324.115 253.079 324.725 252.406 324.725C251.733 324.725 251.188 324.115 251.188 323.362C251.188 322.61 251.733 322 252.406 322C253.079 322 253.625 322.61 253.625 323.362ZM269.469 324.725C270.142 324.725 270.688 324.115 270.688 323.362C270.688 322.61 270.142 322 269.469 322C268.796 322 268.25 322.61 268.25 323.362C268.25 324.115 268.796 324.725 269.469 324.725ZM287.75 323.362C287.75 324.115 287.204 324.725 286.531 324.725C285.858 324.725 285.312 324.115 285.312 323.362C285.312 322.61 285.858 322 286.531 322C287.204 322 287.75 322.61 287.75 323.362ZM303.594 324.725C304.267 324.725 304.812 324.115 304.812 323.362C304.812 322.61 304.267 322 303.594 322C302.921 322 302.375 322.61 302.375 323.362C302.375 324.115 302.921 324.725 303.594 324.725ZM321.875 323.362C321.875 324.115 321.329 324.725 320.656 324.725C319.983 324.725 319.438 324.115 319.438 323.362C319.438 322.61 319.983 322 320.656 322C321.329 322 321.875 322.61 321.875 323.362ZM337.719 324.725C338.392 324.725 338.938 324.115 338.938 323.362C338.938 322.61 338.392 322 337.719 322C337.046 322 336.5 322.61 336.5 323.362C336.5 324.115 337.046 324.725 337.719 324.725ZM356 323.362C356 324.115 355.454 324.725 354.781 324.725C354.108 324.725 353.562 324.115 353.562 323.362C353.562 322.61 354.108 322 354.781 322C355.454 322 356 322.61 356 323.362ZM202.438 340.393C202.438 341.145 201.892 341.755 201.219 341.755C200.546 341.755 200 341.145 200 340.393C200 339.641 200.546 339.031 201.219 339.031C201.892 339.031 202.438 339.641 202.438 340.393ZM219.5 340.393C219.5 341.145 218.954 341.755 218.281 341.755C217.608 341.755 217.062 341.145 217.062 340.393C217.062 339.641 217.608 339.031 218.281 339.031C218.954 339.031 219.5 339.641 219.5 340.393ZM235.344 341.755C236.017 341.755 236.562 341.145 236.562 340.393C236.562 339.641 236.017 339.031 235.344 339.031C234.671 339.031 234.125 339.641 234.125 340.393C234.125 341.145 234.671 341.755 235.344 341.755ZM253.625 340.393C253.625 341.145 253.079 341.755 252.406 341.755C251.733 341.755 251.188 341.145 251.188 340.393C251.188 339.641 251.733 339.031 252.406 339.031C253.079 339.031 253.625 339.641 253.625 340.393ZM269.469 341.755C270.142 341.755 270.688 341.145 270.688 340.393C270.688 339.641 270.142 339.031 269.469 339.031C268.796 339.031 268.25 339.641 268.25 340.393C268.25 341.145 268.796 341.755 269.469 341.755ZM287.75 340.393C287.75 341.145 287.204 341.755 286.531 341.755C285.858 341.755 285.312 341.145 285.312 340.393C285.312 339.641 285.858 339.031 286.531 339.031C287.204 339.031 287.75 339.641 287.75 340.393ZM303.594 341.755C304.267 341.755 304.812 341.145 304.812 340.393C304.812 339.641 304.267 339.031 303.594 339.031C302.921 339.031 302.375 339.641 302.375 340.393C302.375 341.145 302.921 341.755 303.594 341.755ZM321.875 340.393C321.875 341.145 321.329 341.755 320.656 341.755C319.983 341.755 319.438 341.145 319.438 340.393C319.438 339.641 319.983 339.031 320.656 339.031C321.329 339.031 321.875 339.641 321.875 340.393ZM337.719 341.755C338.392 341.755 338.938 341.145 338.938 340.393C338.938 339.641 338.392 339.031 337.719 339.031C337.046 339.031 336.5 339.641 336.5 340.393C336.5 341.145 337.046 341.755 337.719 341.755ZM356 340.393C356 341.145 355.454 341.755 354.781 341.755C354.108 341.755 353.562 341.145 353.562 340.393C353.562 339.641 354.108 339.031 354.781 339.031C355.454 339.031 356 339.641 356 340.393ZM201.219 358.786C201.892 358.786 202.438 358.176 202.438 357.424C202.438 356.671 201.892 356.061 201.219 356.061C200.546 356.061 200 356.671 200 357.424C200 358.176 200.546 358.786 201.219 358.786ZM218.281 358.786C218.954 358.786 219.5 358.176 219.5 357.424C219.5 356.671 218.954 356.061 218.281 356.061C217.608 356.061 217.062 356.671 217.062 357.424C217.062 358.176 217.608 358.786 218.281 358.786ZM236.562 357.424C236.562 358.176 236.017 358.786 235.344 358.786C234.671 358.786 234.125 358.176 234.125 357.424C234.125 356.671 234.671 356.061 235.344 356.061C236.017 356.061 236.562 356.671 236.562 357.424ZM252.406 358.786C253.079 358.786 253.625 358.176 253.625 357.424C253.625 356.671 253.079 356.061 252.406 356.061C251.733 356.061 251.188 356.671 251.188 357.424C251.188 358.176 251.733 358.786 252.406 358.786ZM270.688 357.424C270.688 358.176 270.142 358.786 269.469 358.786C268.796 358.786 268.25 358.176 268.25 357.424C268.25 356.671 268.796 356.061 269.469 356.061C270.142 356.061 270.688 356.671 270.688 357.424ZM286.531 358.786C287.204 358.786 287.75 358.176 287.75 357.424C287.75 356.671 287.204 356.061 286.531 356.061C285.858 356.061 285.312 356.671 285.312 357.424C285.312 358.176 285.858 358.786 286.531 358.786ZM304.812 357.424C304.812 358.176 304.267 358.786 303.594 358.786C302.921 358.786 302.375 358.176 302.375 357.424C302.375 356.671 302.921 356.061 303.594 356.061C304.267 356.061 304.812 356.671 304.812 357.424ZM320.656 358.786C321.329 358.786 321.875 358.176 321.875 357.424C321.875 356.671 321.329 356.061 320.656 356.061C319.983 356.061 319.438 356.671 319.438 357.424C319.438 358.176 319.983 358.786 320.656 358.786ZM338.938 357.424C338.938 358.176 338.392 358.786 337.719 358.786C337.046 358.786 336.5 358.176 336.5 357.424C336.5 356.671 337.046 356.061 337.719 356.061C338.392 356.061 338.938 356.671 338.938 357.424ZM354.781 358.786C355.454 358.786 356 358.176 356 357.424C356 356.671 355.454 356.061 354.781 356.061C354.108 356.061 353.562 356.671 353.562 357.424C353.562 358.176 354.108 358.786 354.781 358.786ZM202.438 374.454C202.438 375.207 201.892 375.817 201.219 375.817C200.546 375.817 200 375.207 200 374.454C200 373.702 200.546 373.092 201.219 373.092C201.892 373.092 202.438 373.702 202.438 374.454ZM219.5 374.454C219.5 375.207 218.954 375.817 218.281 375.817C217.608 375.817 217.062 375.207 217.062 374.454C217.062 373.702 217.608 373.092 218.281 373.092C218.954 373.092 219.5 373.702 219.5 374.454ZM235.344 375.817C236.017 375.817 236.562 375.207 236.562 374.454C236.562 373.702 236.017 373.092 235.344 373.092C234.671 373.092 234.125 373.702 234.125 374.454C234.125 375.207 234.671 375.817 235.344 375.817ZM253.625 374.454C253.625 375.207 253.079 375.817 252.406 375.817C251.733 375.817 251.188 375.207 251.188 374.454C251.188 373.702 251.733 373.092 252.406 373.092C253.079 373.092 253.625 373.702 253.625 374.454ZM269.469 375.817C270.142 375.817 270.688 375.207 270.688 374.454C270.688 373.702 270.142 373.092 269.469 373.092C268.796 373.092 268.25 373.702 268.25 374.454C268.25 375.207 268.796 375.817 269.469 375.817ZM287.75 374.454C287.75 375.207 287.204 375.817 286.531 375.817C285.858 375.817 285.312 375.207 285.312 374.454C285.312 373.702 285.858 373.092 286.531 373.092C287.204 373.092 287.75 373.702 287.75 374.454ZM303.594 375.817C304.267 375.817 304.812 375.207 304.812 374.454C304.812 373.702 304.267 373.092 303.594 373.092C302.921 373.092 302.375 373.702 302.375 374.454C302.375 375.207 302.921 375.817 303.594 375.817ZM321.875 374.454C321.875 375.207 321.329 375.817 320.656 375.817C319.983 375.817 319.438 375.207 319.438 374.454C319.438 373.702 319.983 373.092 320.656 373.092C321.329 373.092 321.875 373.702 321.875 374.454ZM337.719 375.817C338.392 375.817 338.938 375.207 338.938 374.454C338.938 373.702 338.392 373.092 337.719 373.092C337.046 373.092 336.5 373.702 336.5 374.454C336.5 375.207 337.046 375.817 337.719 375.817ZM356 374.454C356 375.207 355.454 375.817 354.781 375.817C354.108 375.817 353.562 375.207 353.562 374.454C353.562 373.702 354.108 373.092 354.781 373.092C355.454 373.092 356 373.702 356 374.454ZM201.219 392.847C201.892 392.847 202.438 392.237 202.438 391.485C202.438 390.732 201.892 390.122 201.219 390.122C200.546 390.122 200 390.732 200 391.485C200 392.237 200.546 392.847 201.219 392.847ZM218.281 392.847C218.954 392.847 219.5 392.237 219.5 391.485C219.5 390.732 218.954 390.122 218.281 390.122C217.608 390.122 217.062 390.732 217.062 391.485C217.062 392.237 217.608 392.847 218.281 392.847ZM236.562 391.485C236.562 392.237 236.017 392.847 235.344 392.847C234.671 392.847 234.125 392.237 234.125 391.485C234.125 390.732 234.671 390.122 235.344 390.122C236.017 390.122 236.562 390.732 236.562 391.485ZM252.406 392.847C253.079 392.847 253.625 392.237 253.625 391.485C253.625 390.732 253.079 390.122 252.406 390.122C251.733 390.122 251.188 390.732 251.188 391.485C251.188 392.237 251.733 392.847 252.406 392.847ZM270.688 391.485C270.688 392.237 270.142 392.847 269.469 392.847C268.796 392.847 268.25 392.237 268.25 391.485C268.25 390.732 268.796 390.122 269.469 390.122C270.142 390.122 270.688 390.732 270.688 391.485ZM286.531 392.847C287.204 392.847 287.75 392.237 287.75 391.485C287.75 390.732 287.204 390.122 286.531 390.122C285.858 390.122 285.312 390.732 285.312 391.485C285.312 392.237 285.858 392.847 286.531 392.847ZM304.812 391.485C304.812 392.237 304.267 392.847 303.594 392.847C302.921 392.847 302.375 392.237 302.375 391.485C302.375 390.732 302.921 390.122 303.594 390.122C304.267 390.122 304.812 390.732 304.812 391.485ZM320.656 392.847C321.329 392.847 321.875 392.237 321.875 391.485C321.875 390.732 321.329 390.122 320.656 390.122C319.983 390.122 319.438 390.732 319.438 391.485C319.438 392.237 319.983 392.847 320.656 392.847ZM338.938 391.485C338.938 392.237 338.392 392.847 337.719 392.847C337.046 392.847 336.5 392.237 336.5 391.485C336.5 390.732 337.046 390.122 337.719 390.122C338.392 390.122 338.938 390.732 338.938 391.485ZM354.781 392.847C355.454 392.847 356 392.237 356 391.485C356 390.732 355.454 390.122 354.781 390.122C354.108 390.122 353.562 390.732 353.562 391.485C353.562 392.237 354.108 392.847 354.781 392.847ZM202.438 408.515C202.438 409.268 201.892 409.878 201.219 409.878C200.546 409.878 200 409.268 200 408.515C200 407.763 200.546 407.153 201.219 407.153C201.892 407.153 202.438 407.763 202.438 408.515ZM219.5 408.515C219.5 409.268 218.954 409.878 218.281 409.878C217.608 409.878 217.062 409.268 217.062 408.515C217.062 407.763 217.608 407.153 218.281 407.153C218.954 407.153 219.5 407.763 219.5 408.515ZM235.344 409.878C236.017 409.878 236.562 409.268 236.562 408.515C236.562 407.763 236.017 407.153 235.344 407.153C234.671 407.153 234.125 407.763 234.125 408.515C234.125 409.268 234.671 409.878 235.344 409.878ZM253.625 408.515C253.625 409.268 253.079 409.878 252.406 409.878C251.733 409.878 251.188 409.268 251.188 408.515C251.188 407.763 251.733 407.153 252.406 407.153C253.079 407.153 253.625 407.763 253.625 408.515ZM269.469 409.878C270.142 409.878 270.688 409.268 270.688 408.515C270.688 407.763 270.142 407.153 269.469 407.153C268.796 407.153 268.25 407.763 268.25 408.515C268.25 409.268 268.796 409.878 269.469 409.878ZM287.75 408.515C287.75 409.268 287.204 409.878 286.531 409.878C285.858 409.878 285.312 409.268 285.312 408.515C285.312 407.763 285.858 407.153 286.531 407.153C287.204 407.153 287.75 407.763 287.75 408.515ZM303.594 409.878C304.267 409.878 304.812 409.268 304.812 408.515C304.812 407.763 304.267 407.153 303.594 407.153C302.921 407.153 302.375 407.763 302.375 408.515C302.375 409.268 302.921 409.878 303.594 409.878ZM321.875 408.515C321.875 409.268 321.329 409.878 320.656 409.878C319.983 409.878 319.438 409.268 319.438 408.515C319.438 407.763 319.983 407.153 320.656 407.153C321.329 407.153 321.875 407.763 321.875 408.515ZM337.719 409.878C338.392 409.878 338.938 409.268 338.938 408.515C338.938 407.763 338.392 407.153 337.719 407.153C337.046 407.153 336.5 407.763 336.5 408.515C336.5 409.268 337.046 409.878 337.719 409.878ZM356 408.515C356 409.268 355.454 409.878 354.781 409.878C354.108 409.878 353.562 409.268 353.562 408.515C353.562 407.763 354.108 407.153 354.781 407.153C355.454 407.153 356 407.763 356 408.515ZM201.219 426.908C201.892 426.908 202.438 426.298 202.438 425.546C202.438 424.793 201.892 424.183 201.219 424.183C200.546 424.183 200 424.793 200 425.546C200 426.298 200.546 426.908 201.219 426.908ZM218.281 426.908C218.954 426.908 219.5 426.298 219.5 425.546C219.5 424.793 218.954 424.183 218.281 424.183C217.608 424.183 217.062 424.793 217.062 425.546C217.062 426.298 217.608 426.908 218.281 426.908ZM236.562 425.546C236.562 426.298 236.017 426.908 235.344 426.908C234.671 426.908 234.125 426.298 234.125 425.546C234.125 424.793 234.671 424.183 235.344 424.183C236.017 424.183 236.562 424.793 236.562 425.546ZM252.406 426.908C253.079 426.908 253.625 426.298 253.625 425.546C253.625 424.793 253.079 424.183 252.406 424.183C251.733 424.183 251.188 424.793 251.188 425.546C251.188 426.298 251.733 426.908 252.406 426.908ZM270.688 425.546C270.688 426.298 270.142 426.908 269.469 426.908C268.796 426.908 268.25 426.298 268.25 425.546C268.25 424.793 268.796 424.183 269.469 424.183C270.142 424.183 270.688 424.793 270.688 425.546ZM286.531 426.908C287.204 426.908 287.75 426.298 287.75 425.546C287.75 424.793 287.204 424.183 286.531 424.183C285.858 424.183 285.312 424.793 285.312 425.546C285.312 426.298 285.858 426.908 286.531 426.908ZM304.812 425.546C304.812 426.298 304.267 426.908 303.594 426.908C302.921 426.908 302.375 426.298 302.375 425.546C302.375 424.793 302.921 424.183 303.594 424.183C304.267 424.183 304.812 424.793 304.812 425.546ZM320.656 426.908C321.329 426.908 321.875 426.298 321.875 425.546C321.875 424.793 321.329 424.183 320.656 424.183C319.983 424.183 319.438 424.793 319.438 425.546C319.438 426.298 319.983 426.908 320.656 426.908ZM338.938 425.546C338.938 426.298 338.392 426.908 337.719 426.908C337.046 426.908 336.5 426.298 336.5 425.546C336.5 424.793 337.046 424.183 337.719 424.183C338.392 424.183 338.938 424.793 338.938 425.546ZM354.781 426.908C355.454 426.908 356 426.298 356 425.546C356 424.793 355.454 424.183 354.781 424.183C354.108 424.183 353.562 424.793 353.562 425.546C353.562 426.298 354.108 426.908 354.781 426.908ZM202.438 442.576C202.438 443.329 201.892 443.939 201.219 443.939C200.546 443.939 200 443.329 200 442.576C200 441.824 200.546 441.214 201.219 441.214C201.892 441.214 202.438 441.824 202.438 442.576ZM219.5 442.576C219.5 443.329 218.954 443.939 218.281 443.939C217.608 443.939 217.062 443.329 217.062 442.576C217.062 441.824 217.608 441.214 218.281 441.214C218.954 441.214 219.5 441.824 219.5 442.576ZM235.344 443.939C236.017 443.939 236.562 443.329 236.562 442.576C236.562 441.824 236.017 441.214 235.344 441.214C234.671 441.214 234.125 441.824 234.125 442.576C234.125 443.329 234.671 443.939 235.344 443.939ZM253.625 442.576C253.625 443.329 253.079 443.939 252.406 443.939C251.733 443.939 251.188 443.329 251.188 442.576C251.188 441.824 251.733 441.214 252.406 441.214C253.079 441.214 253.625 441.824 253.625 442.576ZM269.469 443.939C270.142 443.939 270.688 443.329 270.688 442.576C270.688 441.824 270.142 441.214 269.469 441.214C268.796 441.214 268.25 441.824 268.25 442.576C268.25 443.329 268.796 443.939 269.469 443.939ZM287.75 442.576C287.75 443.329 287.204 443.939 286.531 443.939C285.858 443.939 285.312 443.329 285.312 442.576C285.312 441.824 285.858 441.214 286.531 441.214C287.204 441.214 287.75 441.824 287.75 442.576ZM303.594 443.939C304.267 443.939 304.812 443.329 304.812 442.576C304.812 441.824 304.267 441.214 303.594 441.214C302.921 441.214 302.375 441.824 302.375 442.576C302.375 443.329 302.921 443.939 303.594 443.939ZM321.875 442.576C321.875 443.329 321.329 443.939 320.656 443.939C319.983 443.939 319.438 443.329 319.438 442.576C319.438 441.824 319.983 441.214 320.656 441.214C321.329 441.214 321.875 441.824 321.875 442.576ZM337.719 443.939C338.392 443.939 338.938 443.329 338.938 442.576C338.938 441.824 338.392 441.214 337.719 441.214C337.046 441.214 336.5 441.824 336.5 442.576C336.5 443.329 337.046 443.939 337.719 443.939ZM356 442.576C356 443.329 355.454 443.939 354.781 443.939C354.108 443.939 353.562 443.329 353.562 442.576C353.562 441.824 354.108 441.214 354.781 441.214C355.454 441.214 356 441.824 356 442.576ZM201.219 460.969C201.892 460.969 202.438 460.359 202.438 459.607C202.438 458.855 201.892 458.245 201.219 458.245C200.546 458.245 200 458.855 200 459.607C200 460.359 200.546 460.969 201.219 460.969ZM218.281 460.969C218.954 460.969 219.5 460.359 219.5 459.607C219.5 458.855 218.954 458.245 218.281 458.245C217.608 458.245 217.062 458.855 217.062 459.607C217.062 460.359 217.608 460.969 218.281 460.969ZM236.562 459.607C236.562 460.359 236.017 460.969 235.344 460.969C234.671 460.969 234.125 460.359 234.125 459.607C234.125 458.855 234.671 458.245 235.344 458.245C236.017 458.245 236.562 458.855 236.562 459.607ZM252.406 460.969C253.079 460.969 253.625 460.359 253.625 459.607C253.625 458.855 253.079 458.245 252.406 458.245C251.733 458.245 251.188 458.855 251.188 459.607C251.188 460.359 251.733 460.969 252.406 460.969ZM270.688 459.607C270.688 460.359 270.142 460.969 269.469 460.969C268.796 460.969 268.25 460.359 268.25 459.607C268.25 458.855 268.796 458.245 269.469 458.245C270.142 458.245 270.688 458.855 270.688 459.607ZM286.531 460.969C287.204 460.969 287.75 460.359 287.75 459.607C287.75 458.855 287.204 458.245 286.531 458.245C285.858 458.245 285.312 458.855 285.312 459.607C285.312 460.359 285.858 460.969 286.531 460.969ZM304.812 459.607C304.812 460.359 304.267 460.969 303.594 460.969C302.921 460.969 302.375 460.359 302.375 459.607C302.375 458.855 302.921 458.245 303.594 458.245C304.267 458.245 304.812 458.855 304.812 459.607ZM320.656 460.969C321.329 460.969 321.875 460.359 321.875 459.607C321.875 458.855 321.329 458.245 320.656 458.245C319.983 458.245 319.438 458.855 319.438 459.607C319.438 460.359 319.983 460.969 320.656 460.969ZM338.938 459.607C338.938 460.359 338.392 460.969 337.719 460.969C337.046 460.969 336.5 460.359 336.5 459.607C336.5 458.855 337.046 458.245 337.719 458.245C338.392 458.245 338.938 458.855 338.938 459.607ZM354.781 460.969C355.454 460.969 356 460.359 356 459.607C356 458.855 355.454 458.245 354.781 458.245C354.108 458.245 353.562 458.855 353.562 459.607C353.562 460.359 354.108 460.969 354.781 460.969ZM202.438 476.638C202.438 477.39 201.892 478 201.219 478C200.546 478 200 477.39 200 476.638C200 475.885 200.546 475.275 201.219 475.275C201.892 475.275 202.438 475.885 202.438 476.638ZM219.5 476.638C219.5 477.39 218.954 478 218.281 478C217.608 478 217.062 477.39 217.062 476.638C217.062 475.885 217.608 475.275 218.281 475.275C218.954 475.275 219.5 475.885 219.5 476.638ZM235.344 478C236.017 478 236.562 477.39 236.562 476.638C236.562 475.885 236.017 475.275 235.344 475.275C234.671 475.275 234.125 475.885 234.125 476.638C234.125 477.39 234.671 478 235.344 478ZM253.625 476.638C253.625 477.39 253.079 478 252.406 478C251.733 478 251.188 477.39 251.188 476.638C251.188 475.885 251.733 475.275 252.406 475.275C253.079 475.275 253.625 475.885 253.625 476.638ZM269.469 478C270.142 478 270.688 477.39 270.688 476.638C270.688 475.885 270.142 475.275 269.469 475.275C268.796 475.275 268.25 475.885 268.25 476.638C268.25 477.39 268.796 478 269.469 478ZM287.75 476.638C287.75 477.39 287.204 478 286.531 478C285.858 478 285.312 477.39 285.312 476.638C285.312 475.885 285.858 475.275 286.531 475.275C287.204 475.275 287.75 475.885 287.75 476.638ZM303.594 478C304.267 478 304.812 477.39 304.812 476.638C304.812 475.885 304.267 475.275 303.594 475.275C302.921 475.275 302.375 475.885 302.375 476.638C302.375 477.39 302.921 478 303.594 478ZM321.875 476.638C321.875 477.39 321.329 478 320.656 478C319.983 478 319.438 477.39 319.438 476.638C319.438 475.885 319.983 475.275 320.656 475.275C321.329 475.275 321.875 475.885 321.875 476.638ZM337.719 478C338.392 478 338.938 477.39 338.938 476.638C338.938 475.885 338.392 475.275 337.719 475.275C337.046 475.275 336.5 475.885 336.5 476.638C336.5 477.39 337.046 478 337.719 478ZM356 476.638C356 477.39 355.454 478 354.781 478C354.108 478 353.562 477.39 353.562 476.638C353.562 475.885 354.108 475.275 354.781 475.275C355.454 475.275 356 475.885 356 476.638Z" fill="#1B236D"/>
<circle cx="200" cy="200" r="200" fill="#FFD4D0"/>
<path d="M144 134C140.287 134 136.726 135.475 134.101 138.101C131.475 140.726 130 144.287 130 148V218H144V148H214V134H144ZM172 162C168.287 162 164.726 163.475 162.101 166.101C159.475 168.726 158 172.287 158 176V246H172V176H242V162H172ZM256 204V260H200V204H256ZM256 190H200C196.287 190 192.726 191.475 190.101 194.101C187.475 196.726 186 200.287 186 204V260C186 263.713 187.475 267.274 190.101 269.899C192.726 272.525 196.287 274 200 274H256C259.713 274 263.274 272.525 265.899 269.899C268.525 267.274 270 263.713 270 260V204C270 200.287 268.525 196.726 265.899 194.101C263.274 191.475 259.713 190 256 190ZM214 211V253L242 232L214 211Z" fill="#32397C"/>
</svg>
