<svg width="400" height="400" viewBox="0 0 400 400" fill="none" xmlns="http://www.w3.org/2000/svg">
<circle cx="200" cy="200" r="200" fill="#FFD4D0"/>
<path d="M162.311 237.947L172.363 225.386L140.003 199.5L172.363 173.614L162.311 161.053L122.102 193.219C121.16 193.973 120.4 194.928 119.877 196.016C119.354 197.103 119.083 198.294 119.083 199.5C119.083 200.706 119.354 201.897 119.877 202.984C120.4 204.071 121.16 205.027 122.102 205.78L162.311 237.947ZM236.696 161.053L226.644 173.614L259.004 199.5L226.644 225.386L236.696 237.947L276.904 205.78C277.847 205.027 278.607 204.071 279.13 202.984C279.652 201.897 279.924 200.706 279.924 199.5C279.924 198.294 279.652 197.103 279.13 196.016C278.607 194.928 277.847 193.973 276.904 193.219L236.696 161.053Z" fill="#32397C"/>
<path d="M223.436 128.862L191.269 273.612L175.563 270.122L207.73 125.372L223.436 128.862Z" fill="#32397C"/>
</svg>
