<svg width="400" height="478" viewBox="0 0 400 478" fill="none" xmlns="http://www.w3.org/2000/svg">
<path fill-rule="evenodd" clip-rule="evenodd" d="M46.4375 1.36245C46.4375 2.1149 45.8918 2.72489 45.2188 2.72489C44.5457 2.72489 44 2.1149 44 1.36245C44 0.609988 44.5457 0 45.2188 0C45.8918 0 46.4375 0.609988 46.4375 1.36245ZM63.5 1.36245C63.5 2.1149 62.9543 2.72489 62.2812 2.72489C61.6082 2.72489 61.0625 2.1149 61.0625 1.36245C61.0625 0.609988 61.6082 0 62.2812 0C62.9543 0 63.5 0.609988 63.5 1.36245ZM79.3438 2.72489C80.0168 2.72489 80.5625 2.1149 80.5625 1.36245C80.5625 0.609988 80.0168 0 79.3438 0C78.6707 0 78.125 0.609988 78.125 1.36245C78.125 2.1149 78.6707 2.72489 79.3438 2.72489ZM97.625 1.36245C97.625 2.1149 97.0793 2.72489 96.4062 2.72489C95.7332 2.72489 95.1875 2.1149 95.1875 1.36245C95.1875 0.609988 95.7332 0 96.4062 0C97.0793 0 97.625 0.609988 97.625 1.36245ZM113.469 2.72489C114.142 2.72489 114.688 2.1149 114.688 1.36245C114.688 0.609988 114.142 0 113.469 0C112.796 0 112.25 0.609988 112.25 1.36245C112.25 2.1149 112.796 2.72489 113.469 2.72489ZM131.75 1.36245C131.75 2.1149 131.204 2.72489 130.531 2.72489C129.858 2.72489 129.312 2.1149 129.312 1.36245C129.312 0.609988 129.858 0 130.531 0C131.204 0 131.75 0.609988 131.75 1.36245ZM147.594 2.72489C148.267 2.72489 148.812 2.1149 148.812 1.36245C148.812 0.609988 148.267 0 147.594 0C146.921 0 146.375 0.609988 146.375 1.36245C146.375 2.1149 146.921 2.72489 147.594 2.72489ZM165.875 1.36245C165.875 2.1149 165.329 2.72489 164.656 2.72489C163.983 2.72489 163.438 2.1149 163.438 1.36245C163.438 0.609988 163.983 0 164.656 0C165.329 0 165.875 0.609988 165.875 1.36245ZM181.719 2.72489C182.392 2.72489 182.938 2.1149 182.938 1.36245C182.938 0.609988 182.392 0 181.719 0C181.046 0 180.5 0.609988 180.5 1.36245C180.5 2.1149 181.046 2.72489 181.719 2.72489ZM200 1.36245C200 2.1149 199.454 2.72489 198.781 2.72489C198.108 2.72489 197.562 2.1149 197.562 1.36245C197.562 0.609988 198.108 0 198.781 0C199.454 0 200 0.609988 200 1.36245ZM46.4375 18.393C46.4375 19.1455 45.8918 19.7555 45.2188 19.7555C44.5457 19.7555 44 19.1455 44 18.393C44 17.6406 44.5457 17.0306 45.2188 17.0306C45.8918 17.0306 46.4375 17.6406 46.4375 18.393ZM63.5 18.393C63.5 19.1455 62.9543 19.7555 62.2812 19.7555C61.6082 19.7555 61.0625 19.1455 61.0625 18.393C61.0625 17.6406 61.6082 17.0306 62.2812 17.0306C62.9543 17.0306 63.5 17.6406 63.5 18.393ZM79.3438 19.7555C80.0168 19.7555 80.5625 19.1455 80.5625 18.393C80.5625 17.6406 80.0168 17.0306 79.3438 17.0306C78.6707 17.0306 78.125 17.6406 78.125 18.393C78.125 19.1455 78.6707 19.7555 79.3438 19.7555ZM97.625 18.393C97.625 19.1455 97.0793 19.7555 96.4062 19.7555C95.7332 19.7555 95.1875 19.1455 95.1875 18.393C95.1875 17.6406 95.7332 17.0306 96.4062 17.0306C97.0793 17.0306 97.625 17.6406 97.625 18.393ZM113.469 19.7555C114.142 19.7555 114.688 19.1455 114.688 18.393C114.688 17.6406 114.142 17.0306 113.469 17.0306C112.796 17.0306 112.25 17.6406 112.25 18.393C112.25 19.1455 112.796 19.7555 113.469 19.7555ZM131.75 18.393C131.75 19.1455 131.204 19.7555 130.531 19.7555C129.858 19.7555 129.312 19.1455 129.312 18.393C129.312 17.6406 129.858 17.0306 130.531 17.0306C131.204 17.0306 131.75 17.6406 131.75 18.393ZM147.594 19.7555C148.267 19.7555 148.812 19.1455 148.812 18.393C148.812 17.6406 148.267 17.0306 147.594 17.0306C146.921 17.0306 146.375 17.6406 146.375 18.393C146.375 19.1455 146.921 19.7555 147.594 19.7555ZM165.875 18.393C165.875 19.1455 165.329 19.7555 164.656 19.7555C163.983 19.7555 163.438 19.1455 163.438 18.393C163.438 17.6406 163.983 17.0306 164.656 17.0306C165.329 17.0306 165.875 17.6406 165.875 18.393ZM181.719 19.7555C182.392 19.7555 182.938 19.1455 182.938 18.393C182.938 17.6406 182.392 17.0306 181.719 17.0306C181.046 17.0306 180.5 17.6406 180.5 18.393C180.5 19.1455 181.046 19.7555 181.719 19.7555ZM200 18.393C200 19.1455 199.454 19.7555 198.781 19.7555C198.108 19.7555 197.562 19.1455 197.562 18.393C197.562 17.6406 198.108 17.0306 198.781 17.0306C199.454 17.0306 200 17.6406 200 18.393ZM45.2188 36.786C45.8918 36.786 46.4375 36.176 46.4375 35.4236C46.4375 34.6711 45.8918 34.0611 45.2188 34.0611C44.5457 34.0611 44 34.6711 44 35.4236C44 36.176 44.5457 36.786 45.2188 36.786ZM62.2812 36.786C62.9543 36.786 63.5 36.176 63.5 35.4236C63.5 34.6711 62.9543 34.0611 62.2812 34.0611C61.6082 34.0611 61.0625 34.6711 61.0625 35.4236C61.0625 36.176 61.6082 36.786 62.2812 36.786ZM80.5625 35.4236C80.5625 36.176 80.0168 36.786 79.3438 36.786C78.6707 36.786 78.125 36.176 78.125 35.4236C78.125 34.6711 78.6707 34.0611 79.3438 34.0611C80.0168 34.0611 80.5625 34.6711 80.5625 35.4236ZM96.4062 36.786C97.0793 36.786 97.625 36.176 97.625 35.4236C97.625 34.6711 97.0793 34.0611 96.4062 34.0611C95.7332 34.0611 95.1875 34.6711 95.1875 35.4236C95.1875 36.176 95.7332 36.786 96.4062 36.786ZM114.688 35.4236C114.688 36.176 114.142 36.786 113.469 36.786C112.796 36.786 112.25 36.176 112.25 35.4236C112.25 34.6711 112.796 34.0611 113.469 34.0611C114.142 34.0611 114.688 34.6711 114.688 35.4236ZM130.531 36.786C131.204 36.786 131.75 36.176 131.75 35.4236C131.75 34.6711 131.204 34.0611 130.531 34.0611C129.858 34.0611 129.312 34.6711 129.312 35.4236C129.312 36.176 129.858 36.786 130.531 36.786ZM148.812 35.4236C148.812 36.176 148.267 36.786 147.594 36.786C146.921 36.786 146.375 36.176 146.375 35.4236C146.375 34.6711 146.921 34.0611 147.594 34.0611C148.267 34.0611 148.812 34.6711 148.812 35.4236ZM164.656 36.786C165.329 36.786 165.875 36.176 165.875 35.4236C165.875 34.6711 165.329 34.0611 164.656 34.0611C163.983 34.0611 163.438 34.6711 163.438 35.4236C163.438 36.176 163.983 36.786 164.656 36.786ZM182.938 35.4236C182.938 36.176 182.392 36.786 181.719 36.786C181.046 36.786 180.5 36.176 180.5 35.4236C180.5 34.6711 181.046 34.0611 181.719 34.0611C182.392 34.0611 182.938 34.6711 182.938 35.4236ZM198.781 36.786C199.454 36.786 200 36.176 200 35.4236C200 34.6711 199.454 34.0611 198.781 34.0611C198.108 34.0611 197.562 34.6711 197.562 35.4236C197.562 36.176 198.108 36.786 198.781 36.786ZM46.4375 52.4542C46.4375 53.2066 45.8918 53.8166 45.2188 53.8166C44.5457 53.8166 44 53.2066 44 52.4542C44 51.7017 44.5457 51.0917 45.2188 51.0917C45.8918 51.0917 46.4375 51.7017 46.4375 52.4542ZM63.5 52.4542C63.5 53.2066 62.9543 53.8166 62.2812 53.8166C61.6082 53.8166 61.0625 53.2066 61.0625 52.4542C61.0625 51.7017 61.6082 51.0917 62.2812 51.0917C62.9543 51.0917 63.5 51.7017 63.5 52.4542ZM79.3438 53.8166C80.0168 53.8166 80.5625 53.2066 80.5625 52.4542C80.5625 51.7017 80.0168 51.0917 79.3438 51.0917C78.6707 51.0917 78.125 51.7017 78.125 52.4542C78.125 53.2066 78.6707 53.8166 79.3438 53.8166ZM97.625 52.4542C97.625 53.2066 97.0793 53.8166 96.4062 53.8166C95.7332 53.8166 95.1875 53.2066 95.1875 52.4542C95.1875 51.7017 95.7332 51.0917 96.4062 51.0917C97.0793 51.0917 97.625 51.7017 97.625 52.4542ZM113.469 53.8166C114.142 53.8166 114.688 53.2066 114.688 52.4542C114.688 51.7017 114.142 51.0917 113.469 51.0917C112.796 51.0917 112.25 51.7017 112.25 52.4542C112.25 53.2066 112.796 53.8166 113.469 53.8166ZM131.75 52.4542C131.75 53.2066 131.204 53.8166 130.531 53.8166C129.858 53.8166 129.312 53.2066 129.312 52.4542C129.312 51.7017 129.858 51.0917 130.531 51.0917C131.204 51.0917 131.75 51.7017 131.75 52.4542ZM147.594 53.8166C148.267 53.8166 148.812 53.2066 148.812 52.4542C148.812 51.7017 148.267 51.0917 147.594 51.0917C146.921 51.0917 146.375 51.7017 146.375 52.4542C146.375 53.2066 146.921 53.8166 147.594 53.8166ZM165.875 52.4542C165.875 53.2066 165.329 53.8166 164.656 53.8166C163.983 53.8166 163.438 53.2066 163.438 52.4542C163.438 51.7017 163.983 51.0917 164.656 51.0917C165.329 51.0917 165.875 51.7017 165.875 52.4542ZM181.719 53.8166C182.392 53.8166 182.938 53.2066 182.938 52.4542C182.938 51.7017 182.392 51.0917 181.719 51.0917C181.046 51.0917 180.5 51.7017 180.5 52.4542C180.5 53.2066 181.046 53.8166 181.719 53.8166ZM200 52.4542C200 53.2066 199.454 53.8166 198.781 53.8166C198.108 53.8166 197.562 53.2066 197.562 52.4542C197.562 51.7017 198.108 51.0917 198.781 51.0917C199.454 51.0917 200 51.7017 200 52.4542ZM45.2188 70.8472C45.8918 70.8472 46.4375 70.2372 46.4375 69.4847C46.4375 68.7322 45.8918 68.1223 45.2188 68.1223C44.5457 68.1223 44 68.7322 44 69.4847C44 70.2372 44.5457 70.8472 45.2188 70.8472ZM62.2812 70.8472C62.9543 70.8472 63.5 70.2372 63.5 69.4847C63.5 68.7322 62.9543 68.1223 62.2812 68.1223C61.6082 68.1223 61.0625 68.7322 61.0625 69.4847C61.0625 70.2372 61.6082 70.8472 62.2812 70.8472ZM80.5625 69.4847C80.5625 70.2372 80.0168 70.8472 79.3438 70.8472C78.6707 70.8472 78.125 70.2372 78.125 69.4847C78.125 68.7322 78.6707 68.1223 79.3438 68.1223C80.0168 68.1223 80.5625 68.7322 80.5625 69.4847ZM96.4062 70.8472C97.0793 70.8472 97.625 70.2372 97.625 69.4847C97.625 68.7322 97.0793 68.1223 96.4062 68.1223C95.7332 68.1223 95.1875 68.7322 95.1875 69.4847C95.1875 70.2372 95.7332 70.8472 96.4062 70.8472ZM114.688 69.4847C114.688 70.2372 114.142 70.8472 113.469 70.8472C112.796 70.8472 112.25 70.2372 112.25 69.4847C112.25 68.7322 112.796 68.1223 113.469 68.1223C114.142 68.1223 114.688 68.7322 114.688 69.4847ZM130.531 70.8472C131.204 70.8472 131.75 70.2372 131.75 69.4847C131.75 68.7322 131.204 68.1223 130.531 68.1223C129.858 68.1223 129.312 68.7322 129.312 69.4847C129.312 70.2372 129.858 70.8472 130.531 70.8472ZM148.812 69.4847C148.812 70.2372 148.267 70.8472 147.594 70.8472C146.921 70.8472 146.375 70.2372 146.375 69.4847C146.375 68.7322 146.921 68.1223 147.594 68.1223C148.267 68.1223 148.812 68.7322 148.812 69.4847ZM164.656 70.8472C165.329 70.8472 165.875 70.2372 165.875 69.4847C165.875 68.7322 165.329 68.1223 164.656 68.1223C163.983 68.1223 163.438 68.7322 163.438 69.4847C163.438 70.2372 163.983 70.8472 164.656 70.8472ZM182.938 69.4847C182.938 70.2372 182.392 70.8472 181.719 70.8472C181.046 70.8472 180.5 70.2372 180.5 69.4847C180.5 68.7322 181.046 68.1223 181.719 68.1223C182.392 68.1223 182.938 68.7322 182.938 69.4847ZM198.781 70.8472C199.454 70.8472 200 70.2372 200 69.4847C200 68.7322 199.454 68.1223 198.781 68.1223C198.108 68.1223 197.562 68.7322 197.562 69.4847C197.562 70.2372 198.108 70.8472 198.781 70.8472ZM46.4375 86.5153C46.4375 87.2678 45.8918 87.8777 45.2188 87.8777C44.5457 87.8777 44 87.2678 44 86.5153C44 85.7628 44.5457 85.1528 45.2188 85.1528C45.8918 85.1528 46.4375 85.7628 46.4375 86.5153ZM63.5 86.5153C63.5 87.2678 62.9543 87.8777 62.2812 87.8777C61.6082 87.8777 61.0625 87.2678 61.0625 86.5153C61.0625 85.7628 61.6082 85.1528 62.2812 85.1528C62.9543 85.1528 63.5 85.7628 63.5 86.5153ZM79.3438 87.8777C80.0168 87.8777 80.5625 87.2678 80.5625 86.5153C80.5625 85.7628 80.0168 85.1528 79.3438 85.1528C78.6707 85.1528 78.125 85.7628 78.125 86.5153C78.125 87.2678 78.6707 87.8777 79.3438 87.8777ZM97.625 86.5153C97.625 87.2678 97.0793 87.8777 96.4062 87.8777C95.7332 87.8777 95.1875 87.2678 95.1875 86.5153C95.1875 85.7628 95.7332 85.1528 96.4062 85.1528C97.0793 85.1528 97.625 85.7628 97.625 86.5153ZM113.469 87.8777C114.142 87.8777 114.688 87.2678 114.688 86.5153C114.688 85.7628 114.142 85.1528 113.469 85.1528C112.796 85.1528 112.25 85.7628 112.25 86.5153C112.25 87.2678 112.796 87.8777 113.469 87.8777ZM131.75 86.5153C131.75 87.2678 131.204 87.8777 130.531 87.8777C129.858 87.8777 129.312 87.2678 129.312 86.5153C129.312 85.7628 129.858 85.1528 130.531 85.1528C131.204 85.1528 131.75 85.7628 131.75 86.5153ZM147.594 87.8777C148.267 87.8777 148.812 87.2678 148.812 86.5153C148.812 85.7628 148.267 85.1528 147.594 85.1528C146.921 85.1528 146.375 85.7628 146.375 86.5153C146.375 87.2678 146.921 87.8777 147.594 87.8777ZM165.875 86.5153C165.875 87.2678 165.329 87.8777 164.656 87.8777C163.983 87.8777 163.438 87.2678 163.438 86.5153C163.438 85.7628 163.983 85.1528 164.656 85.1528C165.329 85.1528 165.875 85.7628 165.875 86.5153ZM181.719 87.8777C182.392 87.8777 182.938 87.2678 182.938 86.5153C182.938 85.7628 182.392 85.1528 181.719 85.1528C181.046 85.1528 180.5 85.7628 180.5 86.5153C180.5 87.2678 181.046 87.8777 181.719 87.8777ZM200 86.5153C200 87.2678 199.454 87.8777 198.781 87.8777C198.108 87.8777 197.562 87.2678 197.562 86.5153C197.562 85.7628 198.108 85.1528 198.781 85.1528C199.454 85.1528 200 85.7628 200 86.5153ZM45.2188 104.908C45.8918 104.908 46.4375 104.298 46.4375 103.546C46.4375 102.793 45.8918 102.183 45.2188 102.183C44.5457 102.183 44 102.793 44 103.546C44 104.298 44.5457 104.908 45.2188 104.908ZM62.2812 104.908C62.9543 104.908 63.5 104.298 63.5 103.546C63.5 102.793 62.9543 102.183 62.2812 102.183C61.6082 102.183 61.0625 102.793 61.0625 103.546C61.0625 104.298 61.6082 104.908 62.2812 104.908ZM80.5625 103.546C80.5625 104.298 80.0168 104.908 79.3438 104.908C78.6707 104.908 78.125 104.298 78.125 103.546C78.125 102.793 78.6707 102.183 79.3438 102.183C80.0168 102.183 80.5625 102.793 80.5625 103.546ZM96.4062 104.908C97.0793 104.908 97.625 104.298 97.625 103.546C97.625 102.793 97.0793 102.183 96.4062 102.183C95.7332 102.183 95.1875 102.793 95.1875 103.546C95.1875 104.298 95.7332 104.908 96.4062 104.908ZM114.688 103.546C114.688 104.298 114.142 104.908 113.469 104.908C112.796 104.908 112.25 104.298 112.25 103.546C112.25 102.793 112.796 102.183 113.469 102.183C114.142 102.183 114.688 102.793 114.688 103.546ZM130.531 104.908C131.204 104.908 131.75 104.298 131.75 103.546C131.75 102.793 131.204 102.183 130.531 102.183C129.858 102.183 129.312 102.793 129.312 103.546C129.312 104.298 129.858 104.908 130.531 104.908ZM148.812 103.546C148.812 104.298 148.267 104.908 147.594 104.908C146.921 104.908 146.375 104.298 146.375 103.546C146.375 102.793 146.921 102.183 147.594 102.183C148.267 102.183 148.812 102.793 148.812 103.546ZM164.656 104.908C165.329 104.908 165.875 104.298 165.875 103.546C165.875 102.793 165.329 102.183 164.656 102.183C163.983 102.183 163.438 102.793 163.438 103.546C163.438 104.298 163.983 104.908 164.656 104.908ZM182.938 103.546C182.938 104.298 182.392 104.908 181.719 104.908C181.046 104.908 180.5 104.298 180.5 103.546C180.5 102.793 181.046 102.183 181.719 102.183C182.392 102.183 182.938 102.793 182.938 103.546ZM198.781 104.908C199.454 104.908 200 104.298 200 103.546C200 102.793 199.454 102.183 198.781 102.183C198.108 102.183 197.562 102.793 197.562 103.546C197.562 104.298 198.108 104.908 198.781 104.908ZM46.4375 120.576C46.4375 121.329 45.8918 121.939 45.2188 121.939C44.5457 121.939 44 121.329 44 120.576C44 119.824 44.5457 119.214 45.2188 119.214C45.8918 119.214 46.4375 119.824 46.4375 120.576ZM63.5 120.576C63.5 121.329 62.9543 121.939 62.2812 121.939C61.6082 121.939 61.0625 121.329 61.0625 120.576C61.0625 119.824 61.6082 119.214 62.2812 119.214C62.9543 119.214 63.5 119.824 63.5 120.576ZM79.3438 121.939C80.0168 121.939 80.5625 121.329 80.5625 120.576C80.5625 119.824 80.0168 119.214 79.3438 119.214C78.6707 119.214 78.125 119.824 78.125 120.576C78.125 121.329 78.6707 121.939 79.3438 121.939ZM97.625 120.576C97.625 121.329 97.0793 121.939 96.4062 121.939C95.7332 121.939 95.1875 121.329 95.1875 120.576C95.1875 119.824 95.7332 119.214 96.4062 119.214C97.0793 119.214 97.625 119.824 97.625 120.576ZM113.469 121.939C114.142 121.939 114.688 121.329 114.688 120.576C114.688 119.824 114.142 119.214 113.469 119.214C112.796 119.214 112.25 119.824 112.25 120.576C112.25 121.329 112.796 121.939 113.469 121.939ZM131.75 120.576C131.75 121.329 131.204 121.939 130.531 121.939C129.858 121.939 129.312 121.329 129.312 120.576C129.312 119.824 129.858 119.214 130.531 119.214C131.204 119.214 131.75 119.824 131.75 120.576ZM147.594 121.939C148.267 121.939 148.812 121.329 148.812 120.576C148.812 119.824 148.267 119.214 147.594 119.214C146.921 119.214 146.375 119.824 146.375 120.576C146.375 121.329 146.921 121.939 147.594 121.939ZM165.875 120.576C165.875 121.329 165.329 121.939 164.656 121.939C163.983 121.939 163.438 121.329 163.438 120.576C163.438 119.824 163.983 119.214 164.656 119.214C165.329 119.214 165.875 119.824 165.875 120.576ZM181.719 121.939C182.392 121.939 182.938 121.329 182.938 120.576C182.938 119.824 182.392 119.214 181.719 119.214C181.046 119.214 180.5 119.824 180.5 120.576C180.5 121.329 181.046 121.939 181.719 121.939ZM200 120.576C200 121.329 199.454 121.939 198.781 121.939C198.108 121.939 197.562 121.329 197.562 120.576C197.562 119.824 198.108 119.214 198.781 119.214C199.454 119.214 200 119.824 200 120.576ZM45.2188 138.969C45.8918 138.969 46.4375 138.359 46.4375 137.607C46.4375 136.855 45.8918 136.245 45.2188 136.245C44.5457 136.245 44 136.855 44 137.607C44 138.359 44.5457 138.969 45.2188 138.969ZM62.2812 138.969C62.9543 138.969 63.5 138.359 63.5 137.607C63.5 136.855 62.9543 136.245 62.2812 136.245C61.6082 136.245 61.0625 136.855 61.0625 137.607C61.0625 138.359 61.6082 138.969 62.2812 138.969ZM80.5625 137.607C80.5625 138.359 80.0168 138.969 79.3438 138.969C78.6707 138.969 78.125 138.359 78.125 137.607C78.125 136.855 78.6707 136.245 79.3438 136.245C80.0168 136.245 80.5625 136.855 80.5625 137.607ZM96.4062 138.969C97.0793 138.969 97.625 138.359 97.625 137.607C97.625 136.855 97.0793 136.245 96.4062 136.245C95.7332 136.245 95.1875 136.855 95.1875 137.607C95.1875 138.359 95.7332 138.969 96.4062 138.969ZM114.688 137.607C114.688 138.359 114.142 138.969 113.469 138.969C112.796 138.969 112.25 138.359 112.25 137.607C112.25 136.855 112.796 136.245 113.469 136.245C114.142 136.245 114.688 136.855 114.688 137.607ZM130.531 138.969C131.204 138.969 131.75 138.359 131.75 137.607C131.75 136.855 131.204 136.245 130.531 136.245C129.858 136.245 129.312 136.855 129.312 137.607C129.312 138.359 129.858 138.969 130.531 138.969ZM148.812 137.607C148.812 138.359 148.267 138.969 147.594 138.969C146.921 138.969 146.375 138.359 146.375 137.607C146.375 136.855 146.921 136.245 147.594 136.245C148.267 136.245 148.812 136.855 148.812 137.607ZM164.656 138.969C165.329 138.969 165.875 138.359 165.875 137.607C165.875 136.855 165.329 136.245 164.656 136.245C163.983 136.245 163.438 136.855 163.438 137.607C163.438 138.359 163.983 138.969 164.656 138.969ZM182.938 137.607C182.938 138.359 182.392 138.969 181.719 138.969C181.046 138.969 180.5 138.359 180.5 137.607C180.5 136.855 181.046 136.245 181.719 136.245C182.392 136.245 182.938 136.855 182.938 137.607ZM198.781 138.969C199.454 138.969 200 138.359 200 137.607C200 136.855 199.454 136.245 198.781 136.245C198.108 136.245 197.562 136.855 197.562 137.607C197.562 138.359 198.108 138.969 198.781 138.969ZM46.4375 154.638C46.4375 155.39 45.8918 156 45.2188 156C44.5457 156 44 155.39 44 154.638C44 153.885 44.5457 153.275 45.2188 153.275C45.8918 153.275 46.4375 153.885 46.4375 154.638ZM63.5 154.638C63.5 155.39 62.9543 156 62.2812 156C61.6082 156 61.0625 155.39 61.0625 154.638C61.0625 153.885 61.6082 153.275 62.2812 153.275C62.9543 153.275 63.5 153.885 63.5 154.638ZM79.3438 156C80.0168 156 80.5625 155.39 80.5625 154.638C80.5625 153.885 80.0168 153.275 79.3438 153.275C78.6707 153.275 78.125 153.885 78.125 154.638C78.125 155.39 78.6707 156 79.3438 156ZM97.625 154.638C97.625 155.39 97.0793 156 96.4062 156C95.7332 156 95.1875 155.39 95.1875 154.638C95.1875 153.885 95.7332 153.275 96.4062 153.275C97.0793 153.275 97.625 153.885 97.625 154.638ZM113.469 156C114.142 156 114.688 155.39 114.688 154.638C114.688 153.885 114.142 153.275 113.469 153.275C112.796 153.275 112.25 153.885 112.25 154.638C112.25 155.39 112.796 156 113.469 156ZM131.75 154.638C131.75 155.39 131.204 156 130.531 156C129.858 156 129.312 155.39 129.312 154.638C129.312 153.885 129.858 153.275 130.531 153.275C131.204 153.275 131.75 153.885 131.75 154.638ZM147.594 156C148.267 156 148.812 155.39 148.812 154.638C148.812 153.885 148.267 153.275 147.594 153.275C146.921 153.275 146.375 153.885 146.375 154.638C146.375 155.39 146.921 156 147.594 156ZM165.875 154.638C165.875 155.39 165.329 156 164.656 156C163.983 156 163.438 155.39 163.438 154.638C163.438 153.885 163.983 153.275 164.656 153.275C165.329 153.275 165.875 153.885 165.875 154.638ZM181.719 156C182.392 156 182.938 155.39 182.938 154.638C182.938 153.885 182.392 153.275 181.719 153.275C181.046 153.275 180.5 153.885 180.5 154.638C180.5 155.39 181.046 156 181.719 156ZM200 154.638C200 155.39 199.454 156 198.781 156C198.108 156 197.562 155.39 197.562 154.638C197.562 153.885 198.108 153.275 198.781 153.275C199.454 153.275 200 153.885 200 154.638Z" fill="#1B236D"/>
<circle cx="200" cy="278" r="200" fill="#FFD4D0"/>
<path d="M162.311 315.947L172.363 303.386L140.003 277.5L172.363 251.614L162.311 239.053L122.102 271.219C121.16 271.973 120.4 272.928 119.877 274.016C119.354 275.103 119.083 276.294 119.083 277.5C119.083 278.706 119.354 279.897 119.877 280.984C120.4 282.071 121.16 283.027 122.102 283.78L162.311 315.947ZM236.696 239.053L226.644 251.614L259.004 277.5L226.644 303.386L236.696 315.947L276.904 283.78C277.847 283.027 278.607 282.071 279.13 280.984C279.652 279.897 279.924 278.706 279.924 277.5C279.924 276.294 279.652 275.103 279.13 274.016C278.607 272.928 277.847 271.973 276.904 271.219L236.696 239.053Z" fill="#32397C"/>
<path d="M223.436 206.862L191.269 351.612L175.563 348.122L207.73 203.372L223.436 206.862Z" fill="#32397C"/>
</svg>
