<svg width="400" height="400" viewBox="0 0 400 400" fill="none" xmlns="http://www.w3.org/2000/svg">
<circle cx="200" cy="200" r="200" fill="#FFD4D0"/>
<path d="M293.75 231.313H287.5V230.922C287.5 224.652 286.849 218.513 285.547 212.505C284.245 206.496 282.357 200.782 279.883 195.361C277.409 189.941 274.447 184.814 270.996 179.981C267.546 175.148 263.672 170.74 259.375 166.756C255.078 162.772 250.391 159.213 245.312 156.078H276.758C277.799 158.038 279.297 159.572 281.25 160.683C283.203 161.793 285.286 162.348 287.5 162.348C291.016 162.348 293.978 161.14 296.387 158.723C298.796 156.307 300 153.335 300 149.809C300 146.282 298.796 143.311 296.387 140.894C293.978 138.478 291.016 137.27 287.5 137.27C282.812 137.27 279.232 139.359 276.758 143.539H218.75V137.27C218.75 135.572 218.132 134.102 216.895 132.861C215.658 131.62 214.193 131 212.5 131H187.5C185.807 131 184.342 131.62 183.105 132.861C181.868 134.102 181.25 135.572 181.25 137.27V143.539H123.242C120.768 139.359 117.187 137.27 112.5 137.27C108.984 137.27 106.022 138.478 103.613 140.894C101.204 143.311 100 146.282 100 149.809C100 153.335 101.204 156.307 103.613 158.723C106.022 161.14 108.984 162.348 112.5 162.348C117.187 162.348 120.768 160.258 123.242 156.078H154.687C141.797 163.915 131.543 174.463 123.926 187.72C116.309 200.978 112.5 215.378 112.5 230.922V231.313H106.25C104.557 231.313 103.092 231.934 101.855 233.175C100.618 234.416 100 235.885 100 237.583V262.661C100 264.359 100.618 265.829 101.855 267.07C103.092 268.311 104.557 268.931 106.25 268.931H131.25C132.943 268.931 134.408 268.311 135.645 267.07C136.882 265.829 137.5 264.359 137.5 262.661V237.583C137.5 235.885 136.882 234.416 135.645 233.175C134.408 231.934 132.943 231.313 131.25 231.313H125V230.922C125 213.68 130.306 198.3 140.918 184.781C151.53 171.263 164.974 162.413 181.25 158.234V162.348C181.25 164.046 181.868 165.515 183.105 166.756C184.342 167.997 185.807 168.618 187.5 168.618H212.5C214.193 168.618 215.658 167.997 216.895 166.756C218.132 165.515 218.75 164.046 218.75 162.348V158.234C226.693 160.323 234.147 163.654 241.113 168.226C248.079 172.797 254.036 178.251 258.984 184.585C263.932 190.92 267.839 198.104 270.703 206.137C273.568 214.17 275 222.432 275 230.922V231.313H268.75C267.057 231.313 265.592 231.934 264.355 233.175C263.118 234.416 262.5 235.885 262.5 237.583V262.661C262.5 264.359 263.118 265.829 264.355 267.07C265.592 268.311 267.057 268.931 268.75 268.931H293.75C295.443 268.931 296.908 268.311 298.145 267.07C299.382 265.829 300 264.359 300 262.661V237.583C300 236.408 299.707 235.363 299.121 234.448C298.535 233.534 297.786 232.783 296.875 232.195C295.964 231.607 294.922 231.313 293.75 231.313ZM125 256.392H112.5V243.853H125V256.392ZM206.25 156.078H193.75V143.539H206.25V156.078ZM287.5 256.392H275V243.853H287.5V256.392Z" fill="#32397C"/>
</svg>
