<svg width="400" height="478" viewBox="0 0 400 478" fill="none" xmlns="http://www.w3.org/2000/svg">
<path fill-rule="evenodd" clip-rule="evenodd" d="M46.4375 323.362C46.4375 324.115 45.8918 324.725 45.2188 324.725C44.5457 324.725 44 324.115 44 323.362C44 322.61 44.5457 322 45.2188 322C45.8918 322 46.4375 322.61 46.4375 323.362ZM63.5 323.362C63.5 324.115 62.9543 324.725 62.2812 324.725C61.6082 324.725 61.0625 324.115 61.0625 323.362C61.0625 322.61 61.6082 322 62.2812 322C62.9543 322 63.5 322.61 63.5 323.362ZM79.3438 324.725C80.0168 324.725 80.5625 324.115 80.5625 323.362C80.5625 322.61 80.0168 322 79.3438 322C78.6707 322 78.125 322.61 78.125 323.362C78.125 324.115 78.6707 324.725 79.3438 324.725ZM97.625 323.362C97.625 324.115 97.0793 324.725 96.4062 324.725C95.7332 324.725 95.1875 324.115 95.1875 323.362C95.1875 322.61 95.7332 322 96.4062 322C97.0793 322 97.625 322.61 97.625 323.362ZM113.469 324.725C114.142 324.725 114.688 324.115 114.688 323.362C114.688 322.61 114.142 322 113.469 322C112.796 322 112.25 322.61 112.25 323.362C112.25 324.115 112.796 324.725 113.469 324.725ZM131.75 323.362C131.75 324.115 131.204 324.725 130.531 324.725C129.858 324.725 129.312 324.115 129.312 323.362C129.312 322.61 129.858 322 130.531 322C131.204 322 131.75 322.61 131.75 323.362ZM147.594 324.725C148.267 324.725 148.812 324.115 148.812 323.362C148.812 322.61 148.267 322 147.594 322C146.921 322 146.375 322.61 146.375 323.362C146.375 324.115 146.921 324.725 147.594 324.725ZM165.875 323.362C165.875 324.115 165.329 324.725 164.656 324.725C163.983 324.725 163.438 324.115 163.438 323.362C163.438 322.61 163.983 322 164.656 322C165.329 322 165.875 322.61 165.875 323.362ZM181.719 324.725C182.392 324.725 182.938 324.115 182.938 323.362C182.938 322.61 182.392 322 181.719 322C181.046 322 180.5 322.61 180.5 323.362C180.5 324.115 181.046 324.725 181.719 324.725ZM200 323.362C200 324.115 199.454 324.725 198.781 324.725C198.108 324.725 197.562 324.115 197.562 323.362C197.562 322.61 198.108 322 198.781 322C199.454 322 200 322.61 200 323.362ZM46.4375 340.393C46.4375 341.145 45.8918 341.755 45.2188 341.755C44.5457 341.755 44 341.145 44 340.393C44 339.641 44.5457 339.031 45.2188 339.031C45.8918 339.031 46.4375 339.641 46.4375 340.393ZM63.5 340.393C63.5 341.145 62.9543 341.755 62.2812 341.755C61.6082 341.755 61.0625 341.145 61.0625 340.393C61.0625 339.641 61.6082 339.031 62.2812 339.031C62.9543 339.031 63.5 339.641 63.5 340.393ZM79.3438 341.755C80.0168 341.755 80.5625 341.145 80.5625 340.393C80.5625 339.641 80.0168 339.031 79.3438 339.031C78.6707 339.031 78.125 339.641 78.125 340.393C78.125 341.145 78.6707 341.755 79.3438 341.755ZM97.625 340.393C97.625 341.145 97.0793 341.755 96.4062 341.755C95.7332 341.755 95.1875 341.145 95.1875 340.393C95.1875 339.641 95.7332 339.031 96.4062 339.031C97.0793 339.031 97.625 339.641 97.625 340.393ZM113.469 341.755C114.142 341.755 114.688 341.145 114.688 340.393C114.688 339.641 114.142 339.031 113.469 339.031C112.796 339.031 112.25 339.641 112.25 340.393C112.25 341.145 112.796 341.755 113.469 341.755ZM131.75 340.393C131.75 341.145 131.204 341.755 130.531 341.755C129.858 341.755 129.312 341.145 129.312 340.393C129.312 339.641 129.858 339.031 130.531 339.031C131.204 339.031 131.75 339.641 131.75 340.393ZM147.594 341.755C148.267 341.755 148.812 341.145 148.812 340.393C148.812 339.641 148.267 339.031 147.594 339.031C146.921 339.031 146.375 339.641 146.375 340.393C146.375 341.145 146.921 341.755 147.594 341.755ZM165.875 340.393C165.875 341.145 165.329 341.755 164.656 341.755C163.983 341.755 163.438 341.145 163.438 340.393C163.438 339.641 163.983 339.031 164.656 339.031C165.329 339.031 165.875 339.641 165.875 340.393ZM181.719 341.755C182.392 341.755 182.938 341.145 182.938 340.393C182.938 339.641 182.392 339.031 181.719 339.031C181.046 339.031 180.5 339.641 180.5 340.393C180.5 341.145 181.046 341.755 181.719 341.755ZM200 340.393C200 341.145 199.454 341.755 198.781 341.755C198.108 341.755 197.562 341.145 197.562 340.393C197.562 339.641 198.108 339.031 198.781 339.031C199.454 339.031 200 339.641 200 340.393ZM45.2188 358.786C45.8918 358.786 46.4375 358.176 46.4375 357.424C46.4375 356.671 45.8918 356.061 45.2188 356.061C44.5457 356.061 44 356.671 44 357.424C44 358.176 44.5457 358.786 45.2188 358.786ZM62.2812 358.786C62.9543 358.786 63.5 358.176 63.5 357.424C63.5 356.671 62.9543 356.061 62.2812 356.061C61.6082 356.061 61.0625 356.671 61.0625 357.424C61.0625 358.176 61.6082 358.786 62.2812 358.786ZM80.5625 357.424C80.5625 358.176 80.0168 358.786 79.3438 358.786C78.6707 358.786 78.125 358.176 78.125 357.424C78.125 356.671 78.6707 356.061 79.3438 356.061C80.0168 356.061 80.5625 356.671 80.5625 357.424ZM96.4062 358.786C97.0793 358.786 97.625 358.176 97.625 357.424C97.625 356.671 97.0793 356.061 96.4062 356.061C95.7332 356.061 95.1875 356.671 95.1875 357.424C95.1875 358.176 95.7332 358.786 96.4062 358.786ZM114.688 357.424C114.688 358.176 114.142 358.786 113.469 358.786C112.796 358.786 112.25 358.176 112.25 357.424C112.25 356.671 112.796 356.061 113.469 356.061C114.142 356.061 114.688 356.671 114.688 357.424ZM130.531 358.786C131.204 358.786 131.75 358.176 131.75 357.424C131.75 356.671 131.204 356.061 130.531 356.061C129.858 356.061 129.312 356.671 129.312 357.424C129.312 358.176 129.858 358.786 130.531 358.786ZM148.812 357.424C148.812 358.176 148.267 358.786 147.594 358.786C146.921 358.786 146.375 358.176 146.375 357.424C146.375 356.671 146.921 356.061 147.594 356.061C148.267 356.061 148.812 356.671 148.812 357.424ZM164.656 358.786C165.329 358.786 165.875 358.176 165.875 357.424C165.875 356.671 165.329 356.061 164.656 356.061C163.983 356.061 163.438 356.671 163.438 357.424C163.438 358.176 163.983 358.786 164.656 358.786ZM182.938 357.424C182.938 358.176 182.392 358.786 181.719 358.786C181.046 358.786 180.5 358.176 180.5 357.424C180.5 356.671 181.046 356.061 181.719 356.061C182.392 356.061 182.938 356.671 182.938 357.424ZM198.781 358.786C199.454 358.786 200 358.176 200 357.424C200 356.671 199.454 356.061 198.781 356.061C198.108 356.061 197.562 356.671 197.562 357.424C197.562 358.176 198.108 358.786 198.781 358.786ZM46.4375 374.454C46.4375 375.207 45.8918 375.817 45.2188 375.817C44.5457 375.817 44 375.207 44 374.454C44 373.702 44.5457 373.092 45.2188 373.092C45.8918 373.092 46.4375 373.702 46.4375 374.454ZM63.5 374.454C63.5 375.207 62.9543 375.817 62.2812 375.817C61.6082 375.817 61.0625 375.207 61.0625 374.454C61.0625 373.702 61.6082 373.092 62.2812 373.092C62.9543 373.092 63.5 373.702 63.5 374.454ZM79.3438 375.817C80.0168 375.817 80.5625 375.207 80.5625 374.454C80.5625 373.702 80.0168 373.092 79.3438 373.092C78.6707 373.092 78.125 373.702 78.125 374.454C78.125 375.207 78.6707 375.817 79.3438 375.817ZM97.625 374.454C97.625 375.207 97.0793 375.817 96.4062 375.817C95.7332 375.817 95.1875 375.207 95.1875 374.454C95.1875 373.702 95.7332 373.092 96.4062 373.092C97.0793 373.092 97.625 373.702 97.625 374.454ZM113.469 375.817C114.142 375.817 114.688 375.207 114.688 374.454C114.688 373.702 114.142 373.092 113.469 373.092C112.796 373.092 112.25 373.702 112.25 374.454C112.25 375.207 112.796 375.817 113.469 375.817ZM131.75 374.454C131.75 375.207 131.204 375.817 130.531 375.817C129.858 375.817 129.312 375.207 129.312 374.454C129.312 373.702 129.858 373.092 130.531 373.092C131.204 373.092 131.75 373.702 131.75 374.454ZM147.594 375.817C148.267 375.817 148.812 375.207 148.812 374.454C148.812 373.702 148.267 373.092 147.594 373.092C146.921 373.092 146.375 373.702 146.375 374.454C146.375 375.207 146.921 375.817 147.594 375.817ZM165.875 374.454C165.875 375.207 165.329 375.817 164.656 375.817C163.983 375.817 163.438 375.207 163.438 374.454C163.438 373.702 163.983 373.092 164.656 373.092C165.329 373.092 165.875 373.702 165.875 374.454ZM181.719 375.817C182.392 375.817 182.938 375.207 182.938 374.454C182.938 373.702 182.392 373.092 181.719 373.092C181.046 373.092 180.5 373.702 180.5 374.454C180.5 375.207 181.046 375.817 181.719 375.817ZM200 374.454C200 375.207 199.454 375.817 198.781 375.817C198.108 375.817 197.562 375.207 197.562 374.454C197.562 373.702 198.108 373.092 198.781 373.092C199.454 373.092 200 373.702 200 374.454ZM45.2188 392.847C45.8918 392.847 46.4375 392.237 46.4375 391.485C46.4375 390.732 45.8918 390.122 45.2188 390.122C44.5457 390.122 44 390.732 44 391.485C44 392.237 44.5457 392.847 45.2188 392.847ZM62.2812 392.847C62.9543 392.847 63.5 392.237 63.5 391.485C63.5 390.732 62.9543 390.122 62.2812 390.122C61.6082 390.122 61.0625 390.732 61.0625 391.485C61.0625 392.237 61.6082 392.847 62.2812 392.847ZM80.5625 391.485C80.5625 392.237 80.0168 392.847 79.3438 392.847C78.6707 392.847 78.125 392.237 78.125 391.485C78.125 390.732 78.6707 390.122 79.3438 390.122C80.0168 390.122 80.5625 390.732 80.5625 391.485ZM96.4062 392.847C97.0793 392.847 97.625 392.237 97.625 391.485C97.625 390.732 97.0793 390.122 96.4062 390.122C95.7332 390.122 95.1875 390.732 95.1875 391.485C95.1875 392.237 95.7332 392.847 96.4062 392.847ZM114.688 391.485C114.688 392.237 114.142 392.847 113.469 392.847C112.796 392.847 112.25 392.237 112.25 391.485C112.25 390.732 112.796 390.122 113.469 390.122C114.142 390.122 114.688 390.732 114.688 391.485ZM130.531 392.847C131.204 392.847 131.75 392.237 131.75 391.485C131.75 390.732 131.204 390.122 130.531 390.122C129.858 390.122 129.312 390.732 129.312 391.485C129.312 392.237 129.858 392.847 130.531 392.847ZM148.812 391.485C148.812 392.237 148.267 392.847 147.594 392.847C146.921 392.847 146.375 392.237 146.375 391.485C146.375 390.732 146.921 390.122 147.594 390.122C148.267 390.122 148.812 390.732 148.812 391.485ZM164.656 392.847C165.329 392.847 165.875 392.237 165.875 391.485C165.875 390.732 165.329 390.122 164.656 390.122C163.983 390.122 163.438 390.732 163.438 391.485C163.438 392.237 163.983 392.847 164.656 392.847ZM182.938 391.485C182.938 392.237 182.392 392.847 181.719 392.847C181.046 392.847 180.5 392.237 180.5 391.485C180.5 390.732 181.046 390.122 181.719 390.122C182.392 390.122 182.938 390.732 182.938 391.485ZM198.781 392.847C199.454 392.847 200 392.237 200 391.485C200 390.732 199.454 390.122 198.781 390.122C198.108 390.122 197.562 390.732 197.562 391.485C197.562 392.237 198.108 392.847 198.781 392.847ZM46.4375 408.515C46.4375 409.268 45.8918 409.878 45.2188 409.878C44.5457 409.878 44 409.268 44 408.515C44 407.763 44.5457 407.153 45.2188 407.153C45.8918 407.153 46.4375 407.763 46.4375 408.515ZM63.5 408.515C63.5 409.268 62.9543 409.878 62.2812 409.878C61.6082 409.878 61.0625 409.268 61.0625 408.515C61.0625 407.763 61.6082 407.153 62.2812 407.153C62.9543 407.153 63.5 407.763 63.5 408.515ZM79.3438 409.878C80.0168 409.878 80.5625 409.268 80.5625 408.515C80.5625 407.763 80.0168 407.153 79.3438 407.153C78.6707 407.153 78.125 407.763 78.125 408.515C78.125 409.268 78.6707 409.878 79.3438 409.878ZM97.625 408.515C97.625 409.268 97.0793 409.878 96.4062 409.878C95.7332 409.878 95.1875 409.268 95.1875 408.515C95.1875 407.763 95.7332 407.153 96.4062 407.153C97.0793 407.153 97.625 407.763 97.625 408.515ZM113.469 409.878C114.142 409.878 114.688 409.268 114.688 408.515C114.688 407.763 114.142 407.153 113.469 407.153C112.796 407.153 112.25 407.763 112.25 408.515C112.25 409.268 112.796 409.878 113.469 409.878ZM131.75 408.515C131.75 409.268 131.204 409.878 130.531 409.878C129.858 409.878 129.312 409.268 129.312 408.515C129.312 407.763 129.858 407.153 130.531 407.153C131.204 407.153 131.75 407.763 131.75 408.515ZM147.594 409.878C148.267 409.878 148.812 409.268 148.812 408.515C148.812 407.763 148.267 407.153 147.594 407.153C146.921 407.153 146.375 407.763 146.375 408.515C146.375 409.268 146.921 409.878 147.594 409.878ZM165.875 408.515C165.875 409.268 165.329 409.878 164.656 409.878C163.983 409.878 163.438 409.268 163.438 408.515C163.438 407.763 163.983 407.153 164.656 407.153C165.329 407.153 165.875 407.763 165.875 408.515ZM181.719 409.878C182.392 409.878 182.938 409.268 182.938 408.515C182.938 407.763 182.392 407.153 181.719 407.153C181.046 407.153 180.5 407.763 180.5 408.515C180.5 409.268 181.046 409.878 181.719 409.878ZM200 408.515C200 409.268 199.454 409.878 198.781 409.878C198.108 409.878 197.562 409.268 197.562 408.515C197.562 407.763 198.108 407.153 198.781 407.153C199.454 407.153 200 407.763 200 408.515ZM45.2188 426.908C45.8918 426.908 46.4375 426.298 46.4375 425.546C46.4375 424.793 45.8918 424.183 45.2188 424.183C44.5457 424.183 44 424.793 44 425.546C44 426.298 44.5457 426.908 45.2188 426.908ZM62.2812 426.908C62.9543 426.908 63.5 426.298 63.5 425.546C63.5 424.793 62.9543 424.183 62.2812 424.183C61.6082 424.183 61.0625 424.793 61.0625 425.546C61.0625 426.298 61.6082 426.908 62.2812 426.908ZM80.5625 425.546C80.5625 426.298 80.0168 426.908 79.3438 426.908C78.6707 426.908 78.125 426.298 78.125 425.546C78.125 424.793 78.6707 424.183 79.3438 424.183C80.0168 424.183 80.5625 424.793 80.5625 425.546ZM96.4062 426.908C97.0793 426.908 97.625 426.298 97.625 425.546C97.625 424.793 97.0793 424.183 96.4062 424.183C95.7332 424.183 95.1875 424.793 95.1875 425.546C95.1875 426.298 95.7332 426.908 96.4062 426.908ZM114.688 425.546C114.688 426.298 114.142 426.908 113.469 426.908C112.796 426.908 112.25 426.298 112.25 425.546C112.25 424.793 112.796 424.183 113.469 424.183C114.142 424.183 114.688 424.793 114.688 425.546ZM130.531 426.908C131.204 426.908 131.75 426.298 131.75 425.546C131.75 424.793 131.204 424.183 130.531 424.183C129.858 424.183 129.312 424.793 129.312 425.546C129.312 426.298 129.858 426.908 130.531 426.908ZM148.812 425.546C148.812 426.298 148.267 426.908 147.594 426.908C146.921 426.908 146.375 426.298 146.375 425.546C146.375 424.793 146.921 424.183 147.594 424.183C148.267 424.183 148.812 424.793 148.812 425.546ZM164.656 426.908C165.329 426.908 165.875 426.298 165.875 425.546C165.875 424.793 165.329 424.183 164.656 424.183C163.983 424.183 163.438 424.793 163.438 425.546C163.438 426.298 163.983 426.908 164.656 426.908ZM182.938 425.546C182.938 426.298 182.392 426.908 181.719 426.908C181.046 426.908 180.5 426.298 180.5 425.546C180.5 424.793 181.046 424.183 181.719 424.183C182.392 424.183 182.938 424.793 182.938 425.546ZM198.781 426.908C199.454 426.908 200 426.298 200 425.546C200 424.793 199.454 424.183 198.781 424.183C198.108 424.183 197.562 424.793 197.562 425.546C197.562 426.298 198.108 426.908 198.781 426.908ZM46.4375 442.576C46.4375 443.329 45.8918 443.939 45.2188 443.939C44.5457 443.939 44 443.329 44 442.576C44 441.824 44.5457 441.214 45.2188 441.214C45.8918 441.214 46.4375 441.824 46.4375 442.576ZM63.5 442.576C63.5 443.329 62.9543 443.939 62.2812 443.939C61.6082 443.939 61.0625 443.329 61.0625 442.576C61.0625 441.824 61.6082 441.214 62.2812 441.214C62.9543 441.214 63.5 441.824 63.5 442.576ZM79.3438 443.939C80.0168 443.939 80.5625 443.329 80.5625 442.576C80.5625 441.824 80.0168 441.214 79.3438 441.214C78.6707 441.214 78.125 441.824 78.125 442.576C78.125 443.329 78.6707 443.939 79.3438 443.939ZM97.625 442.576C97.625 443.329 97.0793 443.939 96.4062 443.939C95.7332 443.939 95.1875 443.329 95.1875 442.576C95.1875 441.824 95.7332 441.214 96.4062 441.214C97.0793 441.214 97.625 441.824 97.625 442.576ZM113.469 443.939C114.142 443.939 114.688 443.329 114.688 442.576C114.688 441.824 114.142 441.214 113.469 441.214C112.796 441.214 112.25 441.824 112.25 442.576C112.25 443.329 112.796 443.939 113.469 443.939ZM131.75 442.576C131.75 443.329 131.204 443.939 130.531 443.939C129.858 443.939 129.312 443.329 129.312 442.576C129.312 441.824 129.858 441.214 130.531 441.214C131.204 441.214 131.75 441.824 131.75 442.576ZM147.594 443.939C148.267 443.939 148.812 443.329 148.812 442.576C148.812 441.824 148.267 441.214 147.594 441.214C146.921 441.214 146.375 441.824 146.375 442.576C146.375 443.329 146.921 443.939 147.594 443.939ZM165.875 442.576C165.875 443.329 165.329 443.939 164.656 443.939C163.983 443.939 163.438 443.329 163.438 442.576C163.438 441.824 163.983 441.214 164.656 441.214C165.329 441.214 165.875 441.824 165.875 442.576ZM181.719 443.939C182.392 443.939 182.938 443.329 182.938 442.576C182.938 441.824 182.392 441.214 181.719 441.214C181.046 441.214 180.5 441.824 180.5 442.576C180.5 443.329 181.046 443.939 181.719 443.939ZM200 442.576C200 443.329 199.454 443.939 198.781 443.939C198.108 443.939 197.562 443.329 197.562 442.576C197.562 441.824 198.108 441.214 198.781 441.214C199.454 441.214 200 441.824 200 442.576ZM45.2188 460.969C45.8918 460.969 46.4375 460.359 46.4375 459.607C46.4375 458.855 45.8918 458.245 45.2188 458.245C44.5457 458.245 44 458.855 44 459.607C44 460.359 44.5457 460.969 45.2188 460.969ZM62.2812 460.969C62.9543 460.969 63.5 460.359 63.5 459.607C63.5 458.855 62.9543 458.245 62.2812 458.245C61.6082 458.245 61.0625 458.855 61.0625 459.607C61.0625 460.359 61.6082 460.969 62.2812 460.969ZM80.5625 459.607C80.5625 460.359 80.0168 460.969 79.3438 460.969C78.6707 460.969 78.125 460.359 78.125 459.607C78.125 458.855 78.6707 458.245 79.3438 458.245C80.0168 458.245 80.5625 458.855 80.5625 459.607ZM96.4062 460.969C97.0793 460.969 97.625 460.359 97.625 459.607C97.625 458.855 97.0793 458.245 96.4062 458.245C95.7332 458.245 95.1875 458.855 95.1875 459.607C95.1875 460.359 95.7332 460.969 96.4062 460.969ZM114.688 459.607C114.688 460.359 114.142 460.969 113.469 460.969C112.796 460.969 112.25 460.359 112.25 459.607C112.25 458.855 112.796 458.245 113.469 458.245C114.142 458.245 114.688 458.855 114.688 459.607ZM130.531 460.969C131.204 460.969 131.75 460.359 131.75 459.607C131.75 458.855 131.204 458.245 130.531 458.245C129.858 458.245 129.312 458.855 129.312 459.607C129.312 460.359 129.858 460.969 130.531 460.969ZM148.812 459.607C148.812 460.359 148.267 460.969 147.594 460.969C146.921 460.969 146.375 460.359 146.375 459.607C146.375 458.855 146.921 458.245 147.594 458.245C148.267 458.245 148.812 458.855 148.812 459.607ZM164.656 460.969C165.329 460.969 165.875 460.359 165.875 459.607C165.875 458.855 165.329 458.245 164.656 458.245C163.983 458.245 163.438 458.855 163.438 459.607C163.438 460.359 163.983 460.969 164.656 460.969ZM182.938 459.607C182.938 460.359 182.392 460.969 181.719 460.969C181.046 460.969 180.5 460.359 180.5 459.607C180.5 458.855 181.046 458.245 181.719 458.245C182.392 458.245 182.938 458.855 182.938 459.607ZM198.781 460.969C199.454 460.969 200 460.359 200 459.607C200 458.855 199.454 458.245 198.781 458.245C198.108 458.245 197.562 458.855 197.562 459.607C197.562 460.359 198.108 460.969 198.781 460.969ZM46.4375 476.638C46.4375 477.39 45.8918 478 45.2188 478C44.5457 478 44 477.39 44 476.638C44 475.885 44.5457 475.275 45.2188 475.275C45.8918 475.275 46.4375 475.885 46.4375 476.638ZM63.5 476.638C63.5 477.39 62.9543 478 62.2812 478C61.6082 478 61.0625 477.39 61.0625 476.638C61.0625 475.885 61.6082 475.275 62.2812 475.275C62.9543 475.275 63.5 475.885 63.5 476.638ZM79.3438 478C80.0168 478 80.5625 477.39 80.5625 476.638C80.5625 475.885 80.0168 475.275 79.3438 475.275C78.6707 475.275 78.125 475.885 78.125 476.638C78.125 477.39 78.6707 478 79.3438 478ZM97.625 476.638C97.625 477.39 97.0793 478 96.4062 478C95.7332 478 95.1875 477.39 95.1875 476.638C95.1875 475.885 95.7332 475.275 96.4062 475.275C97.0793 475.275 97.625 475.885 97.625 476.638ZM113.469 478C114.142 478 114.688 477.39 114.688 476.638C114.688 475.885 114.142 475.275 113.469 475.275C112.796 475.275 112.25 475.885 112.25 476.638C112.25 477.39 112.796 478 113.469 478ZM131.75 476.638C131.75 477.39 131.204 478 130.531 478C129.858 478 129.312 477.39 129.312 476.638C129.312 475.885 129.858 475.275 130.531 475.275C131.204 475.275 131.75 475.885 131.75 476.638ZM147.594 478C148.267 478 148.812 477.39 148.812 476.638C148.812 475.885 148.267 475.275 147.594 475.275C146.921 475.275 146.375 475.885 146.375 476.638C146.375 477.39 146.921 478 147.594 478ZM165.875 476.638C165.875 477.39 165.329 478 164.656 478C163.983 478 163.438 477.39 163.438 476.638C163.438 475.885 163.983 475.275 164.656 475.275C165.329 475.275 165.875 475.885 165.875 476.638ZM181.719 478C182.392 478 182.938 477.39 182.938 476.638C182.938 475.885 182.392 475.275 181.719 475.275C181.046 475.275 180.5 475.885 180.5 476.638C180.5 477.39 181.046 478 181.719 478ZM200 476.638C200 477.39 199.454 478 198.781 478C198.108 478 197.562 477.39 197.562 476.638C197.562 475.885 198.108 475.275 198.781 475.275C199.454 475.275 200 475.885 200 476.638Z" fill="#1B236D"/>
<circle cx="200" cy="200" r="200" fill="#FFD4D0"/>
<path d="M293.75 231.313H287.5V230.922C287.5 224.652 286.849 218.513 285.547 212.505C284.245 206.496 282.357 200.782 279.883 195.361C277.409 189.941 274.447 184.814 270.996 179.981C267.546 175.148 263.672 170.74 259.375 166.756C255.078 162.772 250.391 159.213 245.312 156.078H276.758C277.799 158.038 279.297 159.572 281.25 160.683C283.203 161.793 285.286 162.348 287.5 162.348C291.016 162.348 293.978 161.14 296.387 158.723C298.796 156.307 300 153.335 300 149.809C300 146.282 298.796 143.311 296.387 140.894C293.978 138.478 291.016 137.27 287.5 137.27C282.812 137.27 279.232 139.359 276.758 143.539H218.75V137.27C218.75 135.572 218.132 134.102 216.895 132.861C215.658 131.62 214.193 131 212.5 131H187.5C185.807 131 184.342 131.62 183.105 132.861C181.868 134.102 181.25 135.572 181.25 137.27V143.539H123.242C120.768 139.359 117.187 137.27 112.5 137.27C108.984 137.27 106.022 138.478 103.613 140.894C101.204 143.311 100 146.282 100 149.809C100 153.335 101.204 156.307 103.613 158.723C106.022 161.14 108.984 162.348 112.5 162.348C117.187 162.348 120.768 160.258 123.242 156.078H154.687C141.797 163.915 131.543 174.463 123.926 187.72C116.309 200.978 112.5 215.378 112.5 230.922V231.313H106.25C104.557 231.313 103.092 231.934 101.855 233.175C100.618 234.416 100 235.885 100 237.583V262.661C100 264.359 100.618 265.829 101.855 267.07C103.092 268.311 104.557 268.931 106.25 268.931H131.25C132.943 268.931 134.408 268.311 135.645 267.07C136.882 265.829 137.5 264.359 137.5 262.661V237.583C137.5 235.885 136.882 234.416 135.645 233.175C134.408 231.934 132.943 231.313 131.25 231.313H125V230.922C125 213.68 130.306 198.3 140.918 184.781C151.53 171.263 164.974 162.413 181.25 158.234V162.348C181.25 164.046 181.868 165.515 183.105 166.756C184.342 167.997 185.807 168.618 187.5 168.618H212.5C214.193 168.618 215.658 167.997 216.895 166.756C218.132 165.515 218.75 164.046 218.75 162.348V158.234C226.693 160.323 234.147 163.654 241.113 168.226C248.079 172.797 254.036 178.251 258.984 184.585C263.932 190.92 267.839 198.104 270.703 206.137C273.568 214.17 275 222.432 275 230.922V231.313H268.75C267.057 231.313 265.592 231.934 264.355 233.175C263.118 234.416 262.5 235.885 262.5 237.583V262.661C262.5 264.359 263.118 265.829 264.355 267.07C265.592 268.311 267.057 268.931 268.75 268.931H293.75C295.443 268.931 296.908 268.311 298.145 267.07C299.382 265.829 300 264.359 300 262.661V237.583C300 236.408 299.707 235.363 299.121 234.448C298.535 233.534 297.786 232.783 296.875 232.195C295.964 231.607 294.922 231.313 293.75 231.313ZM125 256.392H112.5V243.853H125V256.392ZM206.25 156.078H193.75V143.539H206.25V156.078ZM287.5 256.392H275V243.853H287.5V256.392Z" fill="#32397C"/>
</svg>
