<svg width="400" height="400" viewBox="0 0 400 400" fill="none" xmlns="http://www.w3.org/2000/svg">
<circle cx="200" cy="200" r="200" fill="#FFD4D0"/>
<path d="M162.105 195.815C164.571 192.371 166.04 188.063 166.04 183.395C166.04 172.28 157.706 163.016 147.198 163.016C136.69 163.016 128.356 172.28 128.356 183.395C128.356 188.063 129.824 192.371 132.289 195.815C128.186 196.094 125.5 200.169 125.5 204.565V226.37C125.5 228.571 127.285 230.356 129.486 230.356H164.908C167.111 230.356 168.894 228.57 168.894 226.37V204.565C168.894 200.169 166.208 196.095 162.105 195.815ZM136.326 183.395C136.326 176.385 141.363 170.987 147.196 170.987C153.028 170.987 158.066 176.385 158.066 183.395C158.066 190.403 153.029 195.8 147.196 195.8C141.365 195.8 136.326 190.403 136.326 183.395ZM133.472 222.384V204.565C133.472 204.241 133.52 203.975 133.581 203.772L147.05 203.766C147.056 203.767 147.064 203.767 147.071 203.768C147.102 203.77 147.146 203.772 147.198 203.772C147.25 203.772 147.294 203.77 147.326 203.768C147.333 203.767 147.34 203.767 147.346 203.766L160.809 203.761C160.872 203.959 160.924 204.229 160.924 204.565V222.384H133.472Z" fill="#32397C" stroke="#32397C" stroke-width="3"/>
<path d="M267.712 159.3C270.179 155.855 271.647 151.548 271.647 146.879V146.879C271.645 135.764 263.311 126.5 252.801 126.5C242.293 126.5 233.961 135.764 233.961 146.879C233.961 151.548 235.43 155.855 237.895 159.3C233.792 159.577 231.105 163.653 231.105 168.05V189.854C231.105 192.058 232.892 193.84 235.091 193.84H270.513C272.714 193.84 274.499 192.055 274.499 189.854V168.052C274.499 168.052 274.499 168.052 274.499 168.052C274.501 163.656 271.816 159.579 267.712 159.3ZM241.935 146.879C241.935 139.869 246.973 134.472 252.803 134.472C258.636 134.472 263.675 139.869 263.675 146.879C263.675 153.887 258.636 159.285 252.803 159.285C246.973 159.285 241.935 153.889 241.935 146.879ZM266.529 185.87H239.079V168.052C239.079 167.728 239.128 167.462 239.188 167.258L252.655 167.253C252.662 167.253 252.669 167.254 252.677 167.254C252.707 167.256 252.751 167.259 252.803 167.259C252.855 167.259 252.899 167.256 252.93 167.254C252.938 167.254 252.945 167.253 252.952 167.253L266.414 167.247C266.477 167.446 266.529 167.715 266.529 168.052V185.87Z" fill="#32397C" stroke="#32397C" stroke-width="3"/>
<path d="M267.711 243.164C270.178 239.719 271.646 235.412 271.646 230.743C271.646 219.628 263.312 210.364 252.802 210.364C242.294 210.364 233.962 219.628 233.962 230.743C233.962 235.411 235.43 239.719 237.896 243.164C233.793 243.442 231.106 247.517 231.106 251.914V273.718C231.106 275.919 232.892 277.704 235.092 277.704H270.514C272.715 277.704 274.5 275.919 274.5 273.718V251.914C274.5 247.518 271.815 243.443 267.711 243.164ZM241.934 230.743C241.934 223.733 246.972 218.336 252.802 218.336C258.635 218.336 263.674 223.733 263.674 230.743C263.674 237.753 258.635 243.149 252.802 243.149C246.972 243.149 241.934 237.752 241.934 230.743ZM266.528 269.732H239.078V251.914C239.078 251.59 239.127 251.324 239.187 251.12L252.654 251.115C252.661 251.115 252.668 251.116 252.676 251.116C252.707 251.118 252.75 251.121 252.802 251.121C252.854 251.121 252.898 251.118 252.929 251.116C252.937 251.116 252.944 251.115 252.951 251.115L266.413 251.109C266.476 251.308 266.528 251.577 266.528 251.914V269.732Z" fill="#32397C" stroke="#32397C" stroke-width="3"/>
<path d="M194.933 165.639V209.091H173.065H171.565V210.591V215.563V217.063H173.065H194.933V255.819C194.933 258.02 196.719 259.805 198.919 259.805H219.185H220.685V258.305V253.333V251.833H219.185H202.905V169.625H219.185H220.685V168.125V163.153V161.653H219.185H198.919C196.716 161.653 194.933 163.439 194.933 165.639Z" fill="#32397C" stroke="#32397C" stroke-width="3"/>
</svg>
