<svg width="400" height="478" viewBox="0 0 400 478" fill="none" xmlns="http://www.w3.org/2000/svg">
<path fill-rule="evenodd" clip-rule="evenodd" d="M202.438 1.36245C202.438 2.1149 201.892 2.72489 201.219 2.72489C200.546 2.72489 200 2.1149 200 1.36245C200 0.609988 200.546 0 201.219 0C201.892 0 202.438 0.609988 202.438 1.36245ZM219.5 1.36245C219.5 2.1149 218.954 2.72489 218.281 2.72489C217.608 2.72489 217.062 2.1149 217.062 1.36245C217.062 0.609988 217.608 0 218.281 0C218.954 0 219.5 0.609988 219.5 1.36245ZM235.344 2.72489C236.017 2.72489 236.562 2.1149 236.562 1.36245C236.562 0.609988 236.017 0 235.344 0C234.671 0 234.125 0.609988 234.125 1.36245C234.125 2.1149 234.671 2.72489 235.344 2.72489ZM253.625 1.36245C253.625 2.1149 253.079 2.72489 252.406 2.72489C251.733 2.72489 251.188 2.1149 251.188 1.36245C251.188 0.609988 251.733 0 252.406 0C253.079 0 253.625 0.609988 253.625 1.36245ZM269.469 2.72489C270.142 2.72489 270.688 2.1149 270.688 1.36245C270.688 0.609988 270.142 0 269.469 0C268.796 0 268.25 0.609988 268.25 1.36245C268.25 2.1149 268.796 2.72489 269.469 2.72489ZM287.75 1.36245C287.75 2.1149 287.204 2.72489 286.531 2.72489C285.858 2.72489 285.312 2.1149 285.312 1.36245C285.312 0.609988 285.858 0 286.531 0C287.204 0 287.75 0.609988 287.75 1.36245ZM303.594 2.72489C304.267 2.72489 304.812 2.1149 304.812 1.36245C304.812 0.609988 304.267 0 303.594 0C302.921 0 302.375 0.609988 302.375 1.36245C302.375 2.1149 302.921 2.72489 303.594 2.72489ZM321.875 1.36245C321.875 2.1149 321.329 2.72489 320.656 2.72489C319.983 2.72489 319.438 2.1149 319.438 1.36245C319.438 0.609988 319.983 0 320.656 0C321.329 0 321.875 0.609988 321.875 1.36245ZM337.719 2.72489C338.392 2.72489 338.938 2.1149 338.938 1.36245C338.938 0.609988 338.392 0 337.719 0C337.046 0 336.5 0.609988 336.5 1.36245C336.5 2.1149 337.046 2.72489 337.719 2.72489ZM356 1.36245C356 2.1149 355.454 2.72489 354.781 2.72489C354.108 2.72489 353.562 2.1149 353.562 1.36245C353.562 0.609988 354.108 0 354.781 0C355.454 0 356 0.609988 356 1.36245ZM202.438 18.393C202.438 19.1455 201.892 19.7555 201.219 19.7555C200.546 19.7555 200 19.1455 200 18.393C200 17.6406 200.546 17.0306 201.219 17.0306C201.892 17.0306 202.438 17.6406 202.438 18.393ZM219.5 18.393C219.5 19.1455 218.954 19.7555 218.281 19.7555C217.608 19.7555 217.062 19.1455 217.062 18.393C217.062 17.6406 217.608 17.0306 218.281 17.0306C218.954 17.0306 219.5 17.6406 219.5 18.393ZM235.344 19.7555C236.017 19.7555 236.562 19.1455 236.562 18.393C236.562 17.6406 236.017 17.0306 235.344 17.0306C234.671 17.0306 234.125 17.6406 234.125 18.393C234.125 19.1455 234.671 19.7555 235.344 19.7555ZM253.625 18.393C253.625 19.1455 253.079 19.7555 252.406 19.7555C251.733 19.7555 251.188 19.1455 251.188 18.393C251.188 17.6406 251.733 17.0306 252.406 17.0306C253.079 17.0306 253.625 17.6406 253.625 18.393ZM269.469 19.7555C270.142 19.7555 270.688 19.1455 270.688 18.393C270.688 17.6406 270.142 17.0306 269.469 17.0306C268.796 17.0306 268.25 17.6406 268.25 18.393C268.25 19.1455 268.796 19.7555 269.469 19.7555ZM287.75 18.393C287.75 19.1455 287.204 19.7555 286.531 19.7555C285.858 19.7555 285.312 19.1455 285.312 18.393C285.312 17.6406 285.858 17.0306 286.531 17.0306C287.204 17.0306 287.75 17.6406 287.75 18.393ZM303.594 19.7555C304.267 19.7555 304.812 19.1455 304.812 18.393C304.812 17.6406 304.267 17.0306 303.594 17.0306C302.921 17.0306 302.375 17.6406 302.375 18.393C302.375 19.1455 302.921 19.7555 303.594 19.7555ZM321.875 18.393C321.875 19.1455 321.329 19.7555 320.656 19.7555C319.983 19.7555 319.438 19.1455 319.438 18.393C319.438 17.6406 319.983 17.0306 320.656 17.0306C321.329 17.0306 321.875 17.6406 321.875 18.393ZM337.719 19.7555C338.392 19.7555 338.938 19.1455 338.938 18.393C338.938 17.6406 338.392 17.0306 337.719 17.0306C337.046 17.0306 336.5 17.6406 336.5 18.393C336.5 19.1455 337.046 19.7555 337.719 19.7555ZM356 18.393C356 19.1455 355.454 19.7555 354.781 19.7555C354.108 19.7555 353.562 19.1455 353.562 18.393C353.562 17.6406 354.108 17.0306 354.781 17.0306C355.454 17.0306 356 17.6406 356 18.393ZM201.219 36.786C201.892 36.786 202.438 36.176 202.438 35.4236C202.438 34.6711 201.892 34.0611 201.219 34.0611C200.546 34.0611 200 34.6711 200 35.4236C200 36.176 200.546 36.786 201.219 36.786ZM218.281 36.786C218.954 36.786 219.5 36.176 219.5 35.4236C219.5 34.6711 218.954 34.0611 218.281 34.0611C217.608 34.0611 217.062 34.6711 217.062 35.4236C217.062 36.176 217.608 36.786 218.281 36.786ZM236.562 35.4236C236.562 36.176 236.017 36.786 235.344 36.786C234.671 36.786 234.125 36.176 234.125 35.4236C234.125 34.6711 234.671 34.0611 235.344 34.0611C236.017 34.0611 236.562 34.6711 236.562 35.4236ZM252.406 36.786C253.079 36.786 253.625 36.176 253.625 35.4236C253.625 34.6711 253.079 34.0611 252.406 34.0611C251.733 34.0611 251.188 34.6711 251.188 35.4236C251.188 36.176 251.733 36.786 252.406 36.786ZM270.688 35.4236C270.688 36.176 270.142 36.786 269.469 36.786C268.796 36.786 268.25 36.176 268.25 35.4236C268.25 34.6711 268.796 34.0611 269.469 34.0611C270.142 34.0611 270.688 34.6711 270.688 35.4236ZM286.531 36.786C287.204 36.786 287.75 36.176 287.75 35.4236C287.75 34.6711 287.204 34.0611 286.531 34.0611C285.858 34.0611 285.312 34.6711 285.312 35.4236C285.312 36.176 285.858 36.786 286.531 36.786ZM304.812 35.4236C304.812 36.176 304.267 36.786 303.594 36.786C302.921 36.786 302.375 36.176 302.375 35.4236C302.375 34.6711 302.921 34.0611 303.594 34.0611C304.267 34.0611 304.812 34.6711 304.812 35.4236ZM320.656 36.786C321.329 36.786 321.875 36.176 321.875 35.4236C321.875 34.6711 321.329 34.0611 320.656 34.0611C319.983 34.0611 319.438 34.6711 319.438 35.4236C319.438 36.176 319.983 36.786 320.656 36.786ZM338.938 35.4236C338.938 36.176 338.392 36.786 337.719 36.786C337.046 36.786 336.5 36.176 336.5 35.4236C336.5 34.6711 337.046 34.0611 337.719 34.0611C338.392 34.0611 338.938 34.6711 338.938 35.4236ZM354.781 36.786C355.454 36.786 356 36.176 356 35.4236C356 34.6711 355.454 34.0611 354.781 34.0611C354.108 34.0611 353.562 34.6711 353.562 35.4236C353.562 36.176 354.108 36.786 354.781 36.786ZM202.438 52.4542C202.438 53.2066 201.892 53.8166 201.219 53.8166C200.546 53.8166 200 53.2066 200 52.4542C200 51.7017 200.546 51.0917 201.219 51.0917C201.892 51.0917 202.438 51.7017 202.438 52.4542ZM219.5 52.4542C219.5 53.2066 218.954 53.8166 218.281 53.8166C217.608 53.8166 217.062 53.2066 217.062 52.4542C217.062 51.7017 217.608 51.0917 218.281 51.0917C218.954 51.0917 219.5 51.7017 219.5 52.4542ZM235.344 53.8166C236.017 53.8166 236.562 53.2066 236.562 52.4542C236.562 51.7017 236.017 51.0917 235.344 51.0917C234.671 51.0917 234.125 51.7017 234.125 52.4542C234.125 53.2066 234.671 53.8166 235.344 53.8166ZM253.625 52.4542C253.625 53.2066 253.079 53.8166 252.406 53.8166C251.733 53.8166 251.188 53.2066 251.188 52.4542C251.188 51.7017 251.733 51.0917 252.406 51.0917C253.079 51.0917 253.625 51.7017 253.625 52.4542ZM269.469 53.8166C270.142 53.8166 270.688 53.2066 270.688 52.4542C270.688 51.7017 270.142 51.0917 269.469 51.0917C268.796 51.0917 268.25 51.7017 268.25 52.4542C268.25 53.2066 268.796 53.8166 269.469 53.8166ZM287.75 52.4542C287.75 53.2066 287.204 53.8166 286.531 53.8166C285.858 53.8166 285.312 53.2066 285.312 52.4542C285.312 51.7017 285.858 51.0917 286.531 51.0917C287.204 51.0917 287.75 51.7017 287.75 52.4542ZM303.594 53.8166C304.267 53.8166 304.812 53.2066 304.812 52.4542C304.812 51.7017 304.267 51.0917 303.594 51.0917C302.921 51.0917 302.375 51.7017 302.375 52.4542C302.375 53.2066 302.921 53.8166 303.594 53.8166ZM321.875 52.4542C321.875 53.2066 321.329 53.8166 320.656 53.8166C319.983 53.8166 319.438 53.2066 319.438 52.4542C319.438 51.7017 319.983 51.0917 320.656 51.0917C321.329 51.0917 321.875 51.7017 321.875 52.4542ZM337.719 53.8166C338.392 53.8166 338.938 53.2066 338.938 52.4542C338.938 51.7017 338.392 51.0917 337.719 51.0917C337.046 51.0917 336.5 51.7017 336.5 52.4542C336.5 53.2066 337.046 53.8166 337.719 53.8166ZM356 52.4542C356 53.2066 355.454 53.8166 354.781 53.8166C354.108 53.8166 353.562 53.2066 353.562 52.4542C353.562 51.7017 354.108 51.0917 354.781 51.0917C355.454 51.0917 356 51.7017 356 52.4542ZM201.219 70.8472C201.892 70.8472 202.438 70.2372 202.438 69.4847C202.438 68.7322 201.892 68.1223 201.219 68.1223C200.546 68.1223 200 68.7322 200 69.4847C200 70.2372 200.546 70.8472 201.219 70.8472ZM218.281 70.8472C218.954 70.8472 219.5 70.2372 219.5 69.4847C219.5 68.7322 218.954 68.1223 218.281 68.1223C217.608 68.1223 217.062 68.7322 217.062 69.4847C217.062 70.2372 217.608 70.8472 218.281 70.8472ZM236.562 69.4847C236.562 70.2372 236.017 70.8472 235.344 70.8472C234.671 70.8472 234.125 70.2372 234.125 69.4847C234.125 68.7322 234.671 68.1223 235.344 68.1223C236.017 68.1223 236.562 68.7322 236.562 69.4847ZM252.406 70.8472C253.079 70.8472 253.625 70.2372 253.625 69.4847C253.625 68.7322 253.079 68.1223 252.406 68.1223C251.733 68.1223 251.188 68.7322 251.188 69.4847C251.188 70.2372 251.733 70.8472 252.406 70.8472ZM270.688 69.4847C270.688 70.2372 270.142 70.8472 269.469 70.8472C268.796 70.8472 268.25 70.2372 268.25 69.4847C268.25 68.7322 268.796 68.1223 269.469 68.1223C270.142 68.1223 270.688 68.7322 270.688 69.4847ZM286.531 70.8472C287.204 70.8472 287.75 70.2372 287.75 69.4847C287.75 68.7322 287.204 68.1223 286.531 68.1223C285.858 68.1223 285.312 68.7322 285.312 69.4847C285.312 70.2372 285.858 70.8472 286.531 70.8472ZM304.812 69.4847C304.812 70.2372 304.267 70.8472 303.594 70.8472C302.921 70.8472 302.375 70.2372 302.375 69.4847C302.375 68.7322 302.921 68.1223 303.594 68.1223C304.267 68.1223 304.812 68.7322 304.812 69.4847ZM320.656 70.8472C321.329 70.8472 321.875 70.2372 321.875 69.4847C321.875 68.7322 321.329 68.1223 320.656 68.1223C319.983 68.1223 319.438 68.7322 319.438 69.4847C319.438 70.2372 319.983 70.8472 320.656 70.8472ZM338.938 69.4847C338.938 70.2372 338.392 70.8472 337.719 70.8472C337.046 70.8472 336.5 70.2372 336.5 69.4847C336.5 68.7322 337.046 68.1223 337.719 68.1223C338.392 68.1223 338.938 68.7322 338.938 69.4847ZM354.781 70.8472C355.454 70.8472 356 70.2372 356 69.4847C356 68.7322 355.454 68.1223 354.781 68.1223C354.108 68.1223 353.562 68.7322 353.562 69.4847C353.562 70.2372 354.108 70.8472 354.781 70.8472ZM202.438 86.5153C202.438 87.2678 201.892 87.8777 201.219 87.8777C200.546 87.8777 200 87.2678 200 86.5153C200 85.7628 200.546 85.1528 201.219 85.1528C201.892 85.1528 202.438 85.7628 202.438 86.5153ZM219.5 86.5153C219.5 87.2678 218.954 87.8777 218.281 87.8777C217.608 87.8777 217.062 87.2678 217.062 86.5153C217.062 85.7628 217.608 85.1528 218.281 85.1528C218.954 85.1528 219.5 85.7628 219.5 86.5153ZM235.344 87.8777C236.017 87.8777 236.562 87.2678 236.562 86.5153C236.562 85.7628 236.017 85.1528 235.344 85.1528C234.671 85.1528 234.125 85.7628 234.125 86.5153C234.125 87.2678 234.671 87.8777 235.344 87.8777ZM253.625 86.5153C253.625 87.2678 253.079 87.8777 252.406 87.8777C251.733 87.8777 251.188 87.2678 251.188 86.5153C251.188 85.7628 251.733 85.1528 252.406 85.1528C253.079 85.1528 253.625 85.7628 253.625 86.5153ZM269.469 87.8777C270.142 87.8777 270.688 87.2678 270.688 86.5153C270.688 85.7628 270.142 85.1528 269.469 85.1528C268.796 85.1528 268.25 85.7628 268.25 86.5153C268.25 87.2678 268.796 87.8777 269.469 87.8777ZM287.75 86.5153C287.75 87.2678 287.204 87.8777 286.531 87.8777C285.858 87.8777 285.312 87.2678 285.312 86.5153C285.312 85.7628 285.858 85.1528 286.531 85.1528C287.204 85.1528 287.75 85.7628 287.75 86.5153ZM303.594 87.8777C304.267 87.8777 304.812 87.2678 304.812 86.5153C304.812 85.7628 304.267 85.1528 303.594 85.1528C302.921 85.1528 302.375 85.7628 302.375 86.5153C302.375 87.2678 302.921 87.8777 303.594 87.8777ZM321.875 86.5153C321.875 87.2678 321.329 87.8777 320.656 87.8777C319.983 87.8777 319.438 87.2678 319.438 86.5153C319.438 85.7628 319.983 85.1528 320.656 85.1528C321.329 85.1528 321.875 85.7628 321.875 86.5153ZM337.719 87.8777C338.392 87.8777 338.938 87.2678 338.938 86.5153C338.938 85.7628 338.392 85.1528 337.719 85.1528C337.046 85.1528 336.5 85.7628 336.5 86.5153C336.5 87.2678 337.046 87.8777 337.719 87.8777ZM356 86.5153C356 87.2678 355.454 87.8777 354.781 87.8777C354.108 87.8777 353.562 87.2678 353.562 86.5153C353.562 85.7628 354.108 85.1528 354.781 85.1528C355.454 85.1528 356 85.7628 356 86.5153ZM201.219 104.908C201.892 104.908 202.438 104.298 202.438 103.546C202.438 102.793 201.892 102.183 201.219 102.183C200.546 102.183 200 102.793 200 103.546C200 104.298 200.546 104.908 201.219 104.908ZM218.281 104.908C218.954 104.908 219.5 104.298 219.5 103.546C219.5 102.793 218.954 102.183 218.281 102.183C217.608 102.183 217.062 102.793 217.062 103.546C217.062 104.298 217.608 104.908 218.281 104.908ZM236.562 103.546C236.562 104.298 236.017 104.908 235.344 104.908C234.671 104.908 234.125 104.298 234.125 103.546C234.125 102.793 234.671 102.183 235.344 102.183C236.017 102.183 236.562 102.793 236.562 103.546ZM252.406 104.908C253.079 104.908 253.625 104.298 253.625 103.546C253.625 102.793 253.079 102.183 252.406 102.183C251.733 102.183 251.188 102.793 251.188 103.546C251.188 104.298 251.733 104.908 252.406 104.908ZM270.688 103.546C270.688 104.298 270.142 104.908 269.469 104.908C268.796 104.908 268.25 104.298 268.25 103.546C268.25 102.793 268.796 102.183 269.469 102.183C270.142 102.183 270.688 102.793 270.688 103.546ZM286.531 104.908C287.204 104.908 287.75 104.298 287.75 103.546C287.75 102.793 287.204 102.183 286.531 102.183C285.858 102.183 285.312 102.793 285.312 103.546C285.312 104.298 285.858 104.908 286.531 104.908ZM304.812 103.546C304.812 104.298 304.267 104.908 303.594 104.908C302.921 104.908 302.375 104.298 302.375 103.546C302.375 102.793 302.921 102.183 303.594 102.183C304.267 102.183 304.812 102.793 304.812 103.546ZM320.656 104.908C321.329 104.908 321.875 104.298 321.875 103.546C321.875 102.793 321.329 102.183 320.656 102.183C319.983 102.183 319.438 102.793 319.438 103.546C319.438 104.298 319.983 104.908 320.656 104.908ZM338.938 103.546C338.938 104.298 338.392 104.908 337.719 104.908C337.046 104.908 336.5 104.298 336.5 103.546C336.5 102.793 337.046 102.183 337.719 102.183C338.392 102.183 338.938 102.793 338.938 103.546ZM354.781 104.908C355.454 104.908 356 104.298 356 103.546C356 102.793 355.454 102.183 354.781 102.183C354.108 102.183 353.562 102.793 353.562 103.546C353.562 104.298 354.108 104.908 354.781 104.908ZM202.438 120.576C202.438 121.329 201.892 121.939 201.219 121.939C200.546 121.939 200 121.329 200 120.576C200 119.824 200.546 119.214 201.219 119.214C201.892 119.214 202.438 119.824 202.438 120.576ZM219.5 120.576C219.5 121.329 218.954 121.939 218.281 121.939C217.608 121.939 217.062 121.329 217.062 120.576C217.062 119.824 217.608 119.214 218.281 119.214C218.954 119.214 219.5 119.824 219.5 120.576ZM235.344 121.939C236.017 121.939 236.562 121.329 236.562 120.576C236.562 119.824 236.017 119.214 235.344 119.214C234.671 119.214 234.125 119.824 234.125 120.576C234.125 121.329 234.671 121.939 235.344 121.939ZM253.625 120.576C253.625 121.329 253.079 121.939 252.406 121.939C251.733 121.939 251.188 121.329 251.188 120.576C251.188 119.824 251.733 119.214 252.406 119.214C253.079 119.214 253.625 119.824 253.625 120.576ZM269.469 121.939C270.142 121.939 270.688 121.329 270.688 120.576C270.688 119.824 270.142 119.214 269.469 119.214C268.796 119.214 268.25 119.824 268.25 120.576C268.25 121.329 268.796 121.939 269.469 121.939ZM287.75 120.576C287.75 121.329 287.204 121.939 286.531 121.939C285.858 121.939 285.312 121.329 285.312 120.576C285.312 119.824 285.858 119.214 286.531 119.214C287.204 119.214 287.75 119.824 287.75 120.576ZM303.594 121.939C304.267 121.939 304.812 121.329 304.812 120.576C304.812 119.824 304.267 119.214 303.594 119.214C302.921 119.214 302.375 119.824 302.375 120.576C302.375 121.329 302.921 121.939 303.594 121.939ZM321.875 120.576C321.875 121.329 321.329 121.939 320.656 121.939C319.983 121.939 319.438 121.329 319.438 120.576C319.438 119.824 319.983 119.214 320.656 119.214C321.329 119.214 321.875 119.824 321.875 120.576ZM337.719 121.939C338.392 121.939 338.938 121.329 338.938 120.576C338.938 119.824 338.392 119.214 337.719 119.214C337.046 119.214 336.5 119.824 336.5 120.576C336.5 121.329 337.046 121.939 337.719 121.939ZM356 120.576C356 121.329 355.454 121.939 354.781 121.939C354.108 121.939 353.562 121.329 353.562 120.576C353.562 119.824 354.108 119.214 354.781 119.214C355.454 119.214 356 119.824 356 120.576ZM201.219 138.969C201.892 138.969 202.438 138.359 202.438 137.607C202.438 136.855 201.892 136.245 201.219 136.245C200.546 136.245 200 136.855 200 137.607C200 138.359 200.546 138.969 201.219 138.969ZM218.281 138.969C218.954 138.969 219.5 138.359 219.5 137.607C219.5 136.855 218.954 136.245 218.281 136.245C217.608 136.245 217.062 136.855 217.062 137.607C217.062 138.359 217.608 138.969 218.281 138.969ZM236.562 137.607C236.562 138.359 236.017 138.969 235.344 138.969C234.671 138.969 234.125 138.359 234.125 137.607C234.125 136.855 234.671 136.245 235.344 136.245C236.017 136.245 236.562 136.855 236.562 137.607ZM252.406 138.969C253.079 138.969 253.625 138.359 253.625 137.607C253.625 136.855 253.079 136.245 252.406 136.245C251.733 136.245 251.188 136.855 251.188 137.607C251.188 138.359 251.733 138.969 252.406 138.969ZM270.688 137.607C270.688 138.359 270.142 138.969 269.469 138.969C268.796 138.969 268.25 138.359 268.25 137.607C268.25 136.855 268.796 136.245 269.469 136.245C270.142 136.245 270.688 136.855 270.688 137.607ZM286.531 138.969C287.204 138.969 287.75 138.359 287.75 137.607C287.75 136.855 287.204 136.245 286.531 136.245C285.858 136.245 285.312 136.855 285.312 137.607C285.312 138.359 285.858 138.969 286.531 138.969ZM304.812 137.607C304.812 138.359 304.267 138.969 303.594 138.969C302.921 138.969 302.375 138.359 302.375 137.607C302.375 136.855 302.921 136.245 303.594 136.245C304.267 136.245 304.812 136.855 304.812 137.607ZM320.656 138.969C321.329 138.969 321.875 138.359 321.875 137.607C321.875 136.855 321.329 136.245 320.656 136.245C319.983 136.245 319.438 136.855 319.438 137.607C319.438 138.359 319.983 138.969 320.656 138.969ZM338.938 137.607C338.938 138.359 338.392 138.969 337.719 138.969C337.046 138.969 336.5 138.359 336.5 137.607C336.5 136.855 337.046 136.245 337.719 136.245C338.392 136.245 338.938 136.855 338.938 137.607ZM354.781 138.969C355.454 138.969 356 138.359 356 137.607C356 136.855 355.454 136.245 354.781 136.245C354.108 136.245 353.562 136.855 353.562 137.607C353.562 138.359 354.108 138.969 354.781 138.969ZM202.438 154.638C202.438 155.39 201.892 156 201.219 156C200.546 156 200 155.39 200 154.638C200 153.885 200.546 153.275 201.219 153.275C201.892 153.275 202.438 153.885 202.438 154.638ZM219.5 154.638C219.5 155.39 218.954 156 218.281 156C217.608 156 217.062 155.39 217.062 154.638C217.062 153.885 217.608 153.275 218.281 153.275C218.954 153.275 219.5 153.885 219.5 154.638ZM235.344 156C236.017 156 236.562 155.39 236.562 154.638C236.562 153.885 236.017 153.275 235.344 153.275C234.671 153.275 234.125 153.885 234.125 154.638C234.125 155.39 234.671 156 235.344 156ZM253.625 154.638C253.625 155.39 253.079 156 252.406 156C251.733 156 251.188 155.39 251.188 154.638C251.188 153.885 251.733 153.275 252.406 153.275C253.079 153.275 253.625 153.885 253.625 154.638ZM269.469 156C270.142 156 270.688 155.39 270.688 154.638C270.688 153.885 270.142 153.275 269.469 153.275C268.796 153.275 268.25 153.885 268.25 154.638C268.25 155.39 268.796 156 269.469 156ZM287.75 154.638C287.75 155.39 287.204 156 286.531 156C285.858 156 285.312 155.39 285.312 154.638C285.312 153.885 285.858 153.275 286.531 153.275C287.204 153.275 287.75 153.885 287.75 154.638ZM303.594 156C304.267 156 304.812 155.39 304.812 154.638C304.812 153.885 304.267 153.275 303.594 153.275C302.921 153.275 302.375 153.885 302.375 154.638C302.375 155.39 302.921 156 303.594 156ZM321.875 154.638C321.875 155.39 321.329 156 320.656 156C319.983 156 319.438 155.39 319.438 154.638C319.438 153.885 319.983 153.275 320.656 153.275C321.329 153.275 321.875 153.885 321.875 154.638ZM337.719 156C338.392 156 338.938 155.39 338.938 154.638C338.938 153.885 338.392 153.275 337.719 153.275C337.046 153.275 336.5 153.885 336.5 154.638C336.5 155.39 337.046 156 337.719 156ZM356 154.638C356 155.39 355.454 156 354.781 156C354.108 156 353.562 155.39 353.562 154.638C353.562 153.885 354.108 153.275 354.781 153.275C355.454 153.275 356 153.885 356 154.638Z" fill="#1B236D"/>
<circle cx="200" cy="278" r="200" fill="#FFD4D0"/>
<path d="M162.105 273.815C164.571 270.371 166.04 266.063 166.04 261.395C166.04 250.28 157.706 241.016 147.198 241.016C136.69 241.016 128.356 250.28 128.356 261.395C128.356 266.063 129.824 270.371 132.289 273.815C128.186 274.094 125.5 278.169 125.5 282.565V304.37C125.5 306.571 127.285 308.356 129.486 308.356H164.908C167.111 308.356 168.894 306.57 168.894 304.37V282.565C168.894 278.169 166.208 274.095 162.105 273.815ZM136.326 261.395C136.326 254.385 141.363 248.987 147.196 248.987C153.028 248.987 158.066 254.385 158.066 261.395C158.066 268.403 153.029 273.8 147.196 273.8C141.365 273.8 136.326 268.403 136.326 261.395ZM133.472 300.384V282.565C133.472 282.241 133.52 281.975 133.581 281.772L147.05 281.766C147.056 281.767 147.064 281.767 147.071 281.768C147.102 281.77 147.146 281.772 147.198 281.772C147.25 281.772 147.294 281.77 147.326 281.768C147.333 281.767 147.34 281.767 147.346 281.766L160.809 281.761C160.872 281.959 160.924 282.229 160.924 282.565V300.384H133.472Z" fill="#32397C" stroke="#32397C" stroke-width="3"/>
<path d="M267.712 237.3C270.179 233.855 271.647 229.548 271.647 224.879V224.879C271.645 213.764 263.311 204.5 252.801 204.5C242.293 204.5 233.961 213.764 233.961 224.879C233.961 229.548 235.43 233.855 237.895 237.3C233.792 237.577 231.105 241.653 231.105 246.05V267.854C231.105 270.058 232.892 271.84 235.091 271.84H270.513C272.714 271.84 274.499 270.055 274.499 267.854V246.052C274.499 246.052 274.499 246.052 274.499 246.052C274.501 241.656 271.816 237.579 267.712 237.3ZM241.935 224.879C241.935 217.869 246.973 212.472 252.803 212.472C258.636 212.472 263.675 217.869 263.675 224.879C263.675 231.887 258.636 237.285 252.803 237.285C246.973 237.285 241.935 231.889 241.935 224.879ZM266.529 263.87H239.079V246.052C239.079 245.728 239.128 245.462 239.188 245.258L252.655 245.253C252.662 245.253 252.669 245.254 252.677 245.254C252.707 245.256 252.751 245.259 252.803 245.259C252.855 245.259 252.899 245.256 252.93 245.254C252.938 245.254 252.945 245.253 252.952 245.253L266.414 245.247C266.477 245.446 266.529 245.715 266.529 246.052V263.87Z" fill="#32397C" stroke="#32397C" stroke-width="3"/>
<path d="M267.711 321.164C270.178 317.719 271.646 313.412 271.646 308.743C271.646 297.628 263.312 288.364 252.802 288.364C242.294 288.364 233.962 297.628 233.962 308.743C233.962 313.411 235.43 317.719 237.896 321.164C233.793 321.442 231.106 325.517 231.106 329.914V351.718C231.106 353.919 232.892 355.704 235.092 355.704H270.514C272.715 355.704 274.5 353.919 274.5 351.718V329.914C274.5 325.518 271.815 321.443 267.711 321.164ZM241.934 308.743C241.934 301.733 246.972 296.336 252.802 296.336C258.635 296.336 263.674 301.733 263.674 308.743C263.674 315.753 258.635 321.149 252.802 321.149C246.972 321.149 241.934 315.752 241.934 308.743ZM266.528 347.732H239.078V329.914C239.078 329.59 239.127 329.324 239.187 329.12L252.654 329.115C252.661 329.115 252.668 329.116 252.676 329.116C252.707 329.118 252.75 329.121 252.802 329.121C252.854 329.121 252.898 329.118 252.929 329.116C252.937 329.116 252.944 329.115 252.951 329.115L266.413 329.109C266.476 329.308 266.528 329.577 266.528 329.914V347.732Z" fill="#32397C" stroke="#32397C" stroke-width="3"/>
<path d="M194.933 243.639V287.091H173.065H171.565V288.591V293.563V295.063H173.065H194.933V333.819C194.933 336.02 196.719 337.805 198.919 337.805H219.185H220.685V336.305V331.333V329.833H219.185H202.905V247.625H219.185H220.685V246.125V241.153V239.653H219.185H198.919C196.716 239.653 194.933 241.439 194.933 243.639Z" fill="#32397C" stroke="#32397C" stroke-width="3"/>
</svg>
