<svg width="375" height="812" viewBox="0 0 375 812" fill="none" xmlns="http://www.w3.org/2000/svg">
<g clip-path="url(#clip0)">
<rect width="375" height="812" fill="white"/>
<g filter="url(#filter0_d)">
<path d="M36.0981 36.8643H39.5264C41.1367 36.8643 42.3016 37.105 43.021 37.5864C43.7404 38.0679 44.1001 38.8288 44.1001 39.8691C44.1001 40.5885 43.8981 41.1834 43.4941 41.6538C43.0957 42.1187 42.5119 42.4202 41.7427 42.5586V42.6416C43.5854 42.957 44.5068 43.9255 44.5068 45.5469C44.5068 46.6315 44.1388 47.4782 43.4028 48.0869C42.6724 48.6956 41.6486 49 40.3315 49H36.0981V36.8643ZM37.5093 42.0605H39.8335C40.8296 42.0605 41.5462 41.9056 41.9834 41.5957C42.4206 41.2803 42.6392 40.7518 42.6392 40.0103C42.6392 39.3296 42.3957 38.8398 41.9087 38.541C41.4217 38.2367 40.647 38.0845 39.5845 38.0845H37.5093V42.0605ZM37.5093 43.2559V47.7964H40.041C41.0205 47.7964 41.7565 47.6082 42.249 47.2319C42.7471 46.8501 42.9961 46.2552 42.9961 45.4473C42.9961 44.6947 42.7415 44.1413 42.2324 43.7871C41.7288 43.4329 40.9596 43.2559 39.9248 43.2559H37.5093ZM52.0988 49L51.8249 47.7051H51.7585C51.3047 48.2751 50.8509 48.6624 50.3971 48.8672C49.9489 49.0664 49.3872 49.166 48.7121 49.166C47.8101 49.166 47.1017 48.9336 46.5871 48.4688C46.078 48.0039 45.8234 47.3426 45.8234 46.4849C45.8234 44.6476 47.2926 43.6847 50.2311 43.5962L51.7751 43.5464V42.9819C51.7751 42.2681 51.6201 41.7424 51.3102 41.4048C51.0059 41.0617 50.5161 40.8901 49.841 40.8901C49.0828 40.8901 48.2251 41.1226 47.2677 41.5874L46.8444 40.5332C47.2926 40.2897 47.7824 40.0988 48.3136 39.9604C48.8504 39.8221 49.3872 39.7529 49.924 39.7529C51.0086 39.7529 51.811 39.9937 52.3312 40.4751C52.8569 40.9565 53.1198 41.7285 53.1198 42.791V49H52.0988ZM48.986 48.0288C49.8437 48.0288 50.5161 47.7936 51.0031 47.3232C51.4956 46.8529 51.7419 46.1943 51.7419 45.3477V44.5259L50.3639 44.584C49.2682 44.6227 48.4769 44.7943 47.9899 45.0986C47.5085 45.3975 47.2677 45.8651 47.2677 46.5015C47.2677 46.9995 47.4171 47.3786 47.716 47.6387C48.0203 47.8988 48.4437 48.0288 48.986 48.0288ZM59.1927 49.166C57.8756 49.166 56.8546 48.762 56.1297 47.9541C55.4103 47.1406 55.0506 45.9924 55.0506 44.5093C55.0506 42.9875 55.4158 41.8115 56.1463 40.9814C56.8823 40.1514 57.9282 39.7363 59.284 39.7363C59.7212 39.7363 60.1584 39.7834 60.5955 39.8774C61.0327 39.9715 61.3758 40.0822 61.6248 40.2095L61.2015 41.3799C60.8971 41.2581 60.5651 41.1585 60.2054 41.0811C59.8457 40.998 59.5275 40.9565 59.2508 40.9565C57.4025 40.9565 56.4783 42.1353 56.4783 44.4927C56.4783 45.6105 56.7025 46.4683 57.1507 47.0659C57.6045 47.6636 58.2741 47.9624 59.1595 47.9624C59.9176 47.9624 60.6951 47.7992 61.492 47.4727V48.6929C60.8833 49.0083 60.1168 49.166 59.1927 49.166ZM64.6098 44.3433C64.8478 44.0057 65.2103 43.563 65.6972 43.0151L68.6357 39.9023H70.271L66.5854 43.7788L70.5283 49H68.8598L65.6474 44.7002L64.6098 45.5967V49H63.2485V36.084H64.6098V42.9321C64.6098 43.2365 64.5877 43.7069 64.5434 44.3433H64.6098Z" fill="#373737"/>
<mask id="mask0" mask-type="alpha" maskUnits="userSpaceOnUse" x="16" y="31" width="13" height="22">
<path fill-rule="evenodd" clip-rule="evenodd" d="M25.7595 31.9855L16.3957 40.9755C15.8681 41.4812 15.8681 42.3255 16.3957 42.8333L25.7595 51.8212C26.3337 52.3726 27.2403 52.3726 27.8146 51.8212C28.4221 51.2375 28.4221 50.2656 27.8146 49.6809L19.9721 42.1521C19.8298 42.016 19.8298 41.7907 19.9721 41.6546L27.8146 34.1258C28.4221 33.5422 28.4221 32.5702 27.8146 31.9855C27.5269 31.7114 27.1572 31.5732 26.7875 31.5732C26.4168 31.5732 26.0471 31.7114 25.7595 31.9855Z" fill="white"/>
</mask>
<g mask="url(#mask0)">
<path fill-rule="evenodd" clip-rule="evenodd" d="M25.7595 31.9855L16.3957 40.9755C15.8681 41.4812 15.8681 42.3255 16.3957 42.8333L25.7595 51.8212C26.3337 52.3726 27.2403 52.3726 27.8146 51.8212C28.4221 51.2375 28.4221 50.2656 27.8146 49.6809L19.9721 42.1521C19.8298 42.016 19.8298 41.7907 19.9721 41.6546L27.8146 34.1258C28.4221 33.5422 28.4221 32.5702 27.8146 31.9855C27.5269 31.7114 27.1572 31.5732 26.7875 31.5732C26.4168 31.5732 26.0471 31.7114 25.7595 31.9855Z" fill="#373737"/>
</g>
</g>
<g filter="url(#filter1_d)">
<path fill-rule="evenodd" clip-rule="evenodd" d="M0 0V20H375V0H0Z" fill="black" fill-opacity="0.01"/>
<path d="M34.1738 10.2305V9.19922H30.7461V10.125H33.125V10.3301C33.125 11.7598 32.0996 12.7266 30.5879 12.7266C28.8887 12.7266 27.834 11.4023 27.834 9.26953C27.834 7.16602 28.9062 5.81836 30.582 5.81836C31.8359 5.81836 32.6855 6.42188 33.0488 7.56445H34.1211C33.8164 5.88867 32.457 4.8457 30.582 4.8457C28.2676 4.8457 26.75 6.59766 26.75 9.26953C26.75 11.9766 28.2441 13.6992 30.582 13.6992C32.7441 13.6992 34.1738 12.3164 34.1738 10.2305ZM35.6387 11.291C35.75 12.75 36.9863 13.6992 38.7793 13.6992C40.7129 13.6992 41.9375 12.709 41.9375 11.1562C41.9375 9.91406 41.2344 9.23438 39.4824 8.79492L38.5977 8.56055C37.4316 8.26172 36.9688 7.88086 36.9688 7.21875C36.9688 6.36328 37.7129 5.80078 38.8379 5.80078C39.8926 5.80078 40.6074 6.31641 40.7539 7.18359H41.8145C41.7266 5.81836 40.5078 4.8457 38.873 4.8457C37.0859 4.8457 35.8848 5.81836 35.8848 7.25391C35.8848 8.45508 36.5469 9.14648 38.0762 9.5332L39.1602 9.81445C40.3262 10.1074 40.8535 10.5645 40.8535 11.2852C40.8535 12.123 40.0156 12.7383 38.8789 12.7383C37.6777 12.7383 36.834 12.1758 36.7051 11.291H35.6387Z" fill="#373737"/>
<path d="M315.168 14.5H316.223V6.04492H315.174L312.924 7.66211V8.77539L315.074 7.2168H315.168V14.5ZM321.59 14.6992C323.488 14.6992 324.578 13.0938 324.578 10.2871C324.578 7.48633 323.471 5.8457 321.59 5.8457C319.697 5.8457 318.59 7.48047 318.59 10.2695C318.59 13.082 319.686 14.6992 321.59 14.6992ZM321.59 13.7793C320.342 13.7793 319.65 12.5312 319.65 10.2695C319.65 8.03711 320.354 6.77148 321.59 6.77148C322.826 6.77148 323.518 8.02539 323.518 10.2695C323.518 12.5371 322.838 13.7793 321.59 13.7793ZM329.148 14.6992C331.047 14.6992 332.137 13.0938 332.137 10.2871C332.137 7.48633 331.029 5.8457 329.148 5.8457C327.256 5.8457 326.148 7.48047 326.148 10.2695C326.148 13.082 327.244 14.6992 329.148 14.6992ZM329.148 13.7793C327.9 13.7793 327.209 12.5312 327.209 10.2695C327.209 8.03711 327.912 6.77148 329.148 6.77148C330.385 6.77148 331.076 8.02539 331.076 10.2695C331.076 12.5371 330.396 13.7793 329.148 13.7793ZM335.137 9.87109C336.279 9.87109 336.971 9.12695 336.971 7.87891C336.971 6.64844 336.273 5.89258 335.137 5.89258C334 5.89258 333.297 6.64844 333.297 7.87891C333.297 9.12109 333.988 9.87109 335.137 9.87109ZM335.137 9.10352C334.545 9.10352 334.205 8.6582 334.205 7.88477C334.205 7.11719 334.545 6.66602 335.137 6.66602C335.723 6.66602 336.062 7.11719 336.062 7.88477C336.062 8.65234 335.729 9.10352 335.137 9.10352ZM335.518 14.5L341.359 6.04492H340.404L334.562 14.5H335.518ZM340.791 14.582C341.934 14.582 342.625 13.8379 342.625 12.5898C342.625 11.3594 341.928 10.6035 340.791 10.6035C339.654 10.6035 338.951 11.3594 338.951 12.5898C338.951 13.832 339.648 14.582 340.791 14.582ZM340.791 13.8145C340.199 13.8145 339.865 13.3691 339.865 12.5957C339.865 11.8281 340.199 11.377 340.791 11.377C341.383 11.377 341.717 11.8281 341.717 12.5957C341.717 13.3633 341.383 13.8145 340.791 13.8145Z" fill="#373737"/>
<path opacity="0.4" d="M348.5 5.5H365.5C366.605 5.5 367.5 6.39543 367.5 7.5V13C367.5 14.1046 366.605 15 365.5 15H364.469H348.5C347.395 15 346.5 14.1046 346.5 13V7.5C346.5 6.39543 347.395 5.5 348.5 5.5Z" fill="#373737" stroke="white"/>
<path fill-rule="evenodd" clip-rule="evenodd" d="M369 12.374C369.863 12.152 370.5 11.3689 370.5 10.437C370.5 9.50507 369.863 8.72202 369 8.5V12.374Z" fill="#373737"/>
<path d="M348 8C348 7.44772 348.448 7 349 7H365C365.552 7 366 7.44772 366 8V12.5C366 13.0523 365.552 13.5 365 13.5H349C348.448 13.5 348 13.0523 348 12.5V8Z" fill="#373737"/>
<path d="M348 8C348 7.44772 348.448 7 349 7H365C365.552 7 366 7.44772 366 8V12.5C366 13.0523 365.552 13.5 365 13.5H349C348.448 13.5 348 13.0523 348 12.5V8Z" stroke="#FCF7F2"/>
<path d="M168.174 13.7051C170.324 13.7051 171.602 12.0234 171.602 9.17578C171.602 6.38086 170.242 4.83398 168.221 4.83398C166.381 4.83398 165.08 6.07031 165.08 7.80469C165.08 9.42773 166.252 10.6113 167.863 10.6113C168.854 10.6113 169.656 10.1543 170.055 9.35156H170.154C170.137 11.3086 169.428 12.4395 168.191 12.4395C167.465 12.4395 166.885 12.0469 166.703 11.4141H165.197C165.443 12.7969 166.627 13.7051 168.174 13.7051ZM168.227 9.41602C167.242 9.41602 166.562 8.73633 166.562 7.75781C166.562 6.81445 167.277 6.09375 168.232 6.09375C169.188 6.09375 169.902 6.82617 169.902 7.78711C169.902 8.73047 169.205 9.41602 168.227 9.41602ZM174.256 12.334C174.812 12.334 175.193 11.9355 175.193 11.4082C175.193 10.875 174.812 10.4824 174.256 10.4824C173.705 10.4824 173.318 10.875 173.318 11.4082C173.318 11.9355 173.705 12.334 174.256 12.334ZM174.256 8.05664C174.812 8.05664 175.193 7.66406 175.193 7.13672C175.193 6.60352 174.812 6.21094 174.256 6.21094C173.705 6.21094 173.318 6.60352 173.318 7.13672C173.318 7.66406 173.705 8.05664 174.256 8.05664ZM181.035 13.5H182.482V11.8887H183.625V10.6113H182.482V5.04492H180.35C179.201 6.79102 178 8.71875 176.904 10.6289V11.8887H181.035V13.5ZM178.305 10.5645C179.131 9.14062 180.109 7.58789 180.977 6.27539H181.059V10.6465H178.305V10.5645ZM187.088 13.5H188.6V5.04492H187.094L184.885 6.5918V8.04492L186.988 6.56836H187.088V13.5ZM199.814 13.5H201.438L198.432 5.04492H196.732L193.732 13.5H195.262L195.988 11.3379H199.1L199.814 13.5ZM197.5 6.65625H197.6L198.748 10.1426H196.34L197.5 6.65625ZM211.621 13.5V5.04492H209.852L207.309 11.2441H207.203L204.66 5.04492H202.891V13.5H204.297V7.55273H204.379L206.717 13.207H207.795L210.133 7.55273H210.215V13.5H211.621Z" fill="#373737"/>
<path fill-rule="evenodd" clip-rule="evenodd" d="M51.9876 5.5C54.5506 5.5 56.863 6.53944 58.5 8.20688L57.4119 9.26404C56.0539 7.86553 54.126 6.99223 51.9876 6.99223C49.8629 6.99223 47.9461 7.85432 46.5896 9.23709L45.5 8.18164C47.1355 6.52896 49.4375 5.5 51.9876 5.5ZM56.3235 10.3214C55.2448 9.19175 53.7014 8.48446 51.9876 8.48446C50.2883 8.48446 48.7566 9.17976 47.6793 10.2927L48.7693 11.3486C49.5672 10.5054 50.7136 9.97668 51.9876 9.97668C53.2769 9.97668 54.4356 10.5182 55.2346 11.3793L56.3235 10.3214ZM54.1444 12.4385C53.6264 11.8454 52.8524 11.4689 51.9876 11.4689C51.139 11.4689 50.3779 11.8314 49.8602 12.4053L52.0225 14.5L54.1444 12.4385Z" fill="#373737"/>
<path fill-rule="evenodd" clip-rule="evenodd" d="M19.5 5C19.2239 5 19 5.22386 19 5.5V14C19 14.2761 19.2239 14.5 19.5 14.5H21C21.2761 14.5 21.5 14.2761 21.5 14V5.5C21.5 5.22386 21.2761 5 21 5H19.5ZM15.5 7.5C15.2239 7.5 15 7.72386 15 8V14C15 14.2761 15.2239 14.5 15.5 14.5H17C17.2761 14.5 17.5 14.2761 17.5 14V8C17.5 7.72386 17.2761 7.5 17 7.5H15.5ZM11 10C11 9.72386 11.2239 9.5 11.5 9.5H13C13.2761 9.5 13.5 9.72386 13.5 10V14C13.5 14.2761 13.2761 14.5 13 14.5H11.5C11.2239 14.5 11 14.2761 11 14V10ZM7.5 11.5C7.22386 11.5 7 11.7239 7 12V14C7 14.2761 7.22386 14.5 7.5 14.5H9C9.27614 14.5 9.5 14.2761 9.5 14V12C9.5 11.7239 9.27614 11.5 9 11.5H7.5Z" fill="#373737"/>
</g>
<g filter="url(#filter2_d)">
<path d="M161.354 104H164.5V117.728H161.354V104Z" fill="url(#paint0_linear)"/>
<path d="M175.472 123.266C174.657 123.266 173.868 123.11 173.106 122.798C172.343 122.486 171.667 122.027 171.078 121.42C170.488 120.813 170.012 120.068 169.648 119.184C169.284 118.3 169.102 117.286 169.102 116.142V116.09C169.102 114.946 169.275 113.932 169.622 113.048C169.986 112.164 170.462 111.419 171.052 110.812C171.641 110.205 172.317 109.746 173.08 109.434C173.86 109.122 174.657 108.966 175.472 108.966C176.044 108.966 176.555 109.035 177.006 109.174C177.474 109.295 177.898 109.469 178.28 109.694C178.661 109.919 179.008 110.179 179.32 110.474C179.632 110.751 179.909 111.055 180.152 111.384V104H183.298V122.98H180.152V120.692C179.649 121.403 179.016 122.009 178.254 122.512C177.508 123.015 176.581 123.266 175.472 123.266ZM176.226 120.536C176.746 120.536 177.248 120.432 177.734 120.224C178.219 120.016 178.644 119.721 179.008 119.34C179.372 118.941 179.658 118.473 179.866 117.936C180.091 117.399 180.204 116.801 180.204 116.142V116.09C180.204 115.431 180.091 114.833 179.866 114.296C179.658 113.741 179.372 113.273 179.008 112.892C178.644 112.511 178.219 112.216 177.734 112.008C177.248 111.8 176.746 111.696 176.226 111.696C175.688 111.696 175.177 111.8 174.692 112.008C174.224 112.199 173.808 112.485 173.444 112.866C173.08 113.247 172.794 113.715 172.586 114.27C172.378 114.807 172.274 115.414 172.274 116.09V116.142C172.274 116.801 172.378 117.407 172.586 117.962C172.794 118.499 173.08 118.959 173.444 119.34C173.808 119.721 174.224 120.016 174.692 120.224C175.177 120.432 175.688 120.536 176.226 120.536Z" fill="url(#paint1_linear)"/>
<path d="M194.539 123.292C193.551 123.292 192.624 123.119 191.757 122.772C190.908 122.425 190.162 121.94 189.521 121.316C188.897 120.692 188.403 119.947 188.039 119.08C187.675 118.196 187.493 117.225 187.493 116.168V116.116C187.493 115.128 187.658 114.201 187.987 113.334C188.316 112.467 188.776 111.713 189.365 111.072C189.972 110.413 190.682 109.902 191.497 109.538C192.312 109.157 193.213 108.966 194.201 108.966C195.293 108.966 196.246 109.165 197.061 109.564C197.893 109.963 198.578 110.5 199.115 111.176C199.67 111.852 200.086 112.641 200.363 113.542C200.64 114.426 200.779 115.362 200.779 116.35C200.779 116.489 200.77 116.636 200.753 116.792C200.753 116.931 200.744 117.078 200.727 117.234H190.639C190.812 118.361 191.254 119.227 191.965 119.834C192.693 120.423 193.568 120.718 194.591 120.718C195.371 120.718 196.047 120.579 196.619 120.302C197.191 120.025 197.754 119.617 198.309 119.08L200.155 120.718C199.496 121.498 198.708 122.122 197.789 122.59C196.888 123.058 195.804 123.292 194.539 123.292ZM197.659 115.154C197.607 114.651 197.494 114.183 197.321 113.75C197.148 113.299 196.914 112.918 196.619 112.606C196.324 112.277 195.969 112.017 195.553 111.826C195.154 111.635 194.695 111.54 194.175 111.54C193.204 111.54 192.398 111.878 191.757 112.554C191.133 113.213 190.752 114.079 190.613 115.154H197.659Z" fill="url(#paint2_linear)"/>
<path d="M208.89 123.266C208.249 123.266 207.634 123.171 207.044 122.98C206.455 122.807 205.935 122.547 205.484 122.2C205.051 121.836 204.696 121.394 204.418 120.874C204.158 120.337 204.028 119.721 204.028 119.028V118.976C204.028 118.231 204.167 117.581 204.444 117.026C204.722 116.471 205.103 116.012 205.588 115.648C206.091 115.284 206.689 115.015 207.382 114.842C208.093 114.651 208.864 114.556 209.696 114.556C210.476 114.556 211.152 114.608 211.724 114.712C212.296 114.816 212.851 114.955 213.388 115.128V114.79C213.388 113.802 213.094 113.057 212.504 112.554C211.932 112.051 211.092 111.8 209.982 111.8C209.202 111.8 208.509 111.878 207.902 112.034C207.296 112.19 206.68 112.398 206.056 112.658L205.224 110.188C205.987 109.841 206.767 109.573 207.564 109.382C208.362 109.174 209.306 109.07 210.398 109.07C212.444 109.07 213.96 109.581 214.948 110.604C215.451 111.107 215.824 111.713 216.066 112.424C216.309 113.135 216.43 113.941 216.43 114.842V122.98H213.362V121.264C212.894 121.819 212.296 122.295 211.568 122.694C210.84 123.075 209.948 123.266 208.89 123.266ZM209.774 120.978C210.294 120.978 210.78 120.909 211.23 120.77C211.681 120.631 212.062 120.432 212.374 120.172C212.704 119.912 212.964 119.6 213.154 119.236C213.345 118.872 213.44 118.473 213.44 118.04V117.104C213.042 116.948 212.574 116.818 212.036 116.714C211.516 116.61 210.944 116.558 210.32 116.558C209.298 116.558 208.5 116.757 207.928 117.156C207.374 117.555 207.096 118.118 207.096 118.846V118.898C207.096 119.557 207.348 120.068 207.85 120.432C208.37 120.796 209.012 120.978 209.774 120.978Z" fill="url(#paint3_linear)"/>
<circle cx="163" cy="121.98" r="2" fill="url(#paint4_linear)"/>
</g>
<g filter="url(#filter3_d)">
<path d="M95.2203 174H104.148V172.02H97.5603V161.4H95.2203V174ZM110.012 174.126C113 174.126 115.142 172.074 115.142 169.194C115.142 166.314 113 164.28 110.012 164.28C107.06 164.28 104.9 166.314 104.9 169.194C104.9 172.074 107.06 174.126 110.012 174.126ZM110.012 172.2C108.392 172.2 107.168 171.03 107.168 169.194C107.168 167.358 108.392 166.188 110.012 166.188C111.65 166.188 112.874 167.358 112.874 169.194C112.874 171.03 111.65 172.2 110.012 172.2ZM124.691 164.388V165.666C123.899 164.712 122.711 164.28 121.361 164.28C118.607 164.28 116.501 166.116 116.501 168.906C116.501 171.696 118.607 173.568 121.361 173.568C122.657 173.568 123.791 173.154 124.583 172.29V172.794C124.583 174.738 123.647 175.71 121.523 175.71C120.191 175.71 118.823 175.26 117.977 174.558L116.969 176.25C118.067 177.15 119.849 177.618 121.649 177.618C125.015 177.618 126.833 176.034 126.833 172.542V164.388H124.691ZM121.703 171.66C119.993 171.66 118.769 170.544 118.769 168.906C118.769 167.286 119.993 166.188 121.703 166.188C123.395 166.188 124.619 167.286 124.619 168.906C124.619 170.544 123.395 171.66 121.703 171.66ZM135.9 162.804C136.746 162.804 137.34 162.192 137.34 161.4C137.34 160.662 136.728 160.104 135.9 160.104C135.072 160.104 134.46 160.698 134.46 161.454C134.46 162.21 135.072 162.804 135.9 162.804ZM134.766 174H137.016V164.388H134.766V174ZM145.423 164.28C144.019 164.28 142.849 164.748 142.111 165.63V164.388H139.969V174H142.219V169.14C142.219 167.214 143.299 166.242 144.901 166.242C146.341 166.242 147.187 167.07 147.187 168.78V174H149.437V168.492C149.437 165.594 147.727 164.28 145.423 164.28ZM162.414 171.876C162.072 172.146 161.622 172.272 161.154 172.272C160.29 172.272 159.822 171.768 159.822 170.832V166.26H162.396V164.46H159.822V162.264H157.572V164.46H155.988V166.26H157.572V170.886C157.572 173.01 158.778 174.126 160.884 174.126C161.694 174.126 162.504 173.91 163.044 173.478L162.414 171.876ZM168.899 174.126C171.887 174.126 174.029 172.074 174.029 169.194C174.029 166.314 171.887 164.28 168.899 164.28C165.947 164.28 163.787 166.314 163.787 169.194C163.787 172.074 165.947 174.126 168.899 174.126ZM168.899 172.2C167.279 172.2 166.055 171.03 166.055 169.194C166.055 167.358 167.279 166.188 168.899 166.188C170.537 166.188 171.761 167.358 171.761 169.194C171.761 171.03 170.537 172.2 168.899 172.2ZM181.371 174H183.711V161.4H181.371V174ZM194.067 160.644V165.576C193.311 164.694 192.213 164.28 190.971 164.28C188.181 164.28 186.111 166.206 186.111 169.194C186.111 172.182 188.181 174.126 190.971 174.126C192.285 174.126 193.401 173.676 194.157 172.758V174H196.317V160.644H194.067ZM191.241 172.2C189.621 172.2 188.379 171.03 188.379 169.194C188.379 167.358 189.621 166.188 191.241 166.188C192.861 166.188 194.103 167.358 194.103 169.194C194.103 171.03 192.861 172.2 191.241 172.2ZM208.296 169.248C208.296 166.242 206.244 164.28 203.436 164.28C200.574 164.28 198.468 166.332 198.468 169.194C198.468 172.056 200.556 174.126 203.778 174.126C205.434 174.126 206.784 173.586 207.648 172.56L206.442 171.174C205.758 171.876 204.912 172.218 203.832 172.218C202.158 172.218 200.988 171.318 200.718 169.914H208.26C208.278 169.698 208.296 169.428 208.296 169.248ZM203.436 166.08C204.912 166.08 205.974 167.034 206.154 168.42H200.7C200.916 167.016 201.978 166.08 203.436 166.08ZM213.866 164.28C212.318 164.28 210.824 164.676 209.798 165.468L210.68 167.106C211.4 166.512 212.516 166.152 213.596 166.152C215.198 166.152 215.99 166.926 215.99 168.24V168.384H213.506C210.59 168.384 209.51 169.644 209.51 171.246C209.51 172.92 210.896 174.126 213.092 174.126C214.532 174.126 215.576 173.658 216.116 172.83V174H218.24V168.366C218.24 165.594 216.638 164.28 213.866 164.28ZM213.56 172.488C212.408 172.488 211.724 171.966 211.724 171.156C211.724 170.454 212.138 169.878 213.668 169.878H215.99V170.994C215.612 171.984 214.658 172.488 213.56 172.488ZM235.246 167.448C236.218 166.926 236.866 165.972 236.866 164.676C236.866 162.678 235.246 161.4 232.222 161.4H226.318V174H232.582C235.822 174 237.514 172.74 237.514 170.58C237.514 168.942 236.596 167.88 235.246 167.448ZM231.97 163.236C233.59 163.236 234.508 163.812 234.508 164.982C234.508 166.134 233.59 166.71 231.97 166.71H228.658V163.236H231.97ZM232.438 172.164H228.658V168.528H232.438C234.202 168.528 235.156 169.086 235.156 170.346C235.156 171.606 234.202 172.164 232.438 172.164ZM244.115 174.126C247.103 174.126 249.245 172.074 249.245 169.194C249.245 166.314 247.103 164.28 244.115 164.28C241.163 164.28 239.003 166.314 239.003 169.194C239.003 172.074 241.163 174.126 244.115 174.126ZM244.115 172.2C242.495 172.2 241.271 171.03 241.271 169.194C241.271 167.358 242.495 166.188 244.115 166.188C245.753 166.188 246.977 167.358 246.977 169.194C246.977 171.03 245.753 172.2 244.115 172.2ZM254.946 164.28C253.398 164.28 251.904 164.676 250.878 165.468L251.76 167.106C252.48 166.512 253.596 166.152 254.676 166.152C256.278 166.152 257.07 166.926 257.07 168.24V168.384H254.586C251.67 168.384 250.59 169.644 250.59 171.246C250.59 172.92 251.976 174.126 254.172 174.126C255.612 174.126 256.656 173.658 257.196 172.83V174H259.32V168.366C259.32 165.594 257.718 164.28 254.946 164.28ZM254.64 172.488C253.488 172.488 252.804 171.966 252.804 171.156C252.804 170.454 253.218 169.878 254.748 169.878H257.07V170.994C256.692 171.984 255.738 172.488 254.64 172.488ZM264.349 165.792V164.388H262.207V174H264.457V169.338C264.457 167.376 265.537 166.368 267.247 166.368C267.409 166.368 267.571 166.386 267.769 166.422V164.28C266.167 164.28 264.997 164.784 264.349 165.792ZM276.754 160.644V165.576C275.998 164.694 274.9 164.28 273.658 164.28C270.868 164.28 268.798 166.206 268.798 169.194C268.798 172.182 270.868 174.126 273.658 174.126C274.972 174.126 276.088 173.676 276.844 172.758V174H279.004V160.644H276.754ZM273.928 172.2C272.308 172.2 271.066 171.03 271.066 169.194C271.066 167.358 272.308 166.188 273.928 166.188C275.548 166.188 276.79 167.358 276.79 169.194C276.79 171.03 275.548 172.2 273.928 172.2Z" fill="#373737"/>
</g>
<g filter="url(#filter4_d)">
<rect x="22.5" y="240.5" width="327" height="40" rx="2.5" stroke="#676767"/>
<path d="M43.9805 264L43.7871 263.086H43.7402C43.4199 263.488 43.0996 263.762 42.7793 263.906C42.4629 264.047 42.0664 264.117 41.5898 264.117C40.9531 264.117 40.4531 263.953 40.0898 263.625C39.7305 263.297 39.5508 262.83 39.5508 262.225C39.5508 260.928 40.5879 260.248 42.6621 260.186L43.752 260.15V259.752C43.752 259.248 43.6426 258.877 43.4238 258.639C43.209 258.396 42.8633 258.275 42.3867 258.275C41.8516 258.275 41.2461 258.439 40.5703 258.768L40.2715 258.023C40.5879 257.852 40.9336 257.717 41.3086 257.619C41.6875 257.521 42.0664 257.473 42.4453 257.473C43.2109 257.473 43.7773 257.643 44.1445 257.982C44.5156 258.322 44.7012 258.867 44.7012 259.617V264H43.9805ZM41.7832 263.314C42.3887 263.314 42.8633 263.148 43.207 262.816C43.5547 262.484 43.7285 262.02 43.7285 261.422V260.842L42.7559 260.883C41.9824 260.91 41.4238 261.031 41.0801 261.246C40.7402 261.457 40.5703 261.787 40.5703 262.236C40.5703 262.588 40.6758 262.855 40.8867 263.039C41.1016 263.223 41.4004 263.314 41.7832 263.314ZM54.8965 264V259.822C54.8965 259.311 54.7871 258.928 54.5684 258.674C54.3496 258.416 54.0098 258.287 53.5488 258.287C52.9434 258.287 52.4961 258.461 52.207 258.809C51.918 259.156 51.7734 259.691 51.7734 260.414V264H50.8008V259.822C50.8008 259.311 50.6914 258.928 50.4727 258.674C50.2539 258.416 49.9121 258.287 49.4473 258.287C48.8379 258.287 48.3906 258.471 48.1055 258.838C47.8242 259.201 47.6836 259.799 47.6836 260.631V264H46.7109V257.578H47.502L47.6602 258.457H47.707C47.8906 258.145 48.1484 257.9 48.4805 257.725C48.8164 257.549 49.1914 257.461 49.6055 257.461C50.6094 257.461 51.2656 257.824 51.5742 258.551H51.6211C51.8125 258.215 52.0898 257.949 52.4531 257.754C52.8164 257.559 53.2305 257.461 53.6953 257.461C54.4219 257.461 54.9648 257.648 55.3242 258.023C55.6875 258.395 55.8691 258.99 55.8691 259.811V264H54.8965ZM56.8594 257.578H57.9023L59.3086 261.24C59.6172 262.076 59.8086 262.68 59.8828 263.051H59.9297C59.9805 262.852 60.0859 262.512 60.2461 262.031C60.4102 261.547 60.9414 260.062 61.8398 257.578H62.8828L60.123 264.891C59.8496 265.613 59.5293 266.125 59.1621 266.426C58.7988 266.73 58.3516 266.883 57.8203 266.883C57.5234 266.883 57.2305 266.85 56.9414 266.783V266.004C57.1562 266.051 57.3965 266.074 57.6621 266.074C58.3301 266.074 58.8066 265.699 59.0918 264.949L59.4492 264.035L56.8594 257.578ZM72.9727 259.729C72.9727 260.283 72.8867 260.791 72.7148 261.252C72.543 261.713 72.3008 262.07 71.9883 262.324C71.6758 262.578 71.3164 262.705 70.9102 262.705C70.5742 262.705 70.291 262.604 70.0605 262.4C69.8301 262.197 69.6934 261.938 69.6504 261.621H69.6035C69.4473 261.961 69.2227 262.227 68.9297 262.418C68.6406 262.609 68.2969 262.705 67.8984 262.705C67.3125 262.705 66.8535 262.506 66.5215 262.107C66.1934 261.705 66.0293 261.16 66.0293 260.473C66.0293 259.676 66.2598 259.029 66.7207 258.533C67.1816 258.033 67.7871 257.783 68.5371 257.783C68.8027 257.783 69.1035 257.809 69.4395 257.859C69.7754 257.906 70.0781 257.973 70.3477 258.059L70.2012 260.812V260.941C70.2012 261.637 70.4609 261.984 70.9805 261.984C71.3359 261.984 71.625 261.775 71.8477 261.357C72.0703 260.936 72.1816 260.389 72.1816 259.717C72.1816 259.01 72.0371 258.391 71.748 257.859C71.459 257.328 71.0469 256.92 70.5117 256.635C69.9805 256.346 69.3691 256.201 68.6777 256.201C67.8066 256.201 67.0488 256.383 66.4043 256.746C65.7598 257.105 65.2676 257.621 64.9277 258.293C64.5879 258.961 64.418 259.734 64.418 260.613C64.418 261.805 64.7324 262.721 65.3613 263.361C65.9902 264.002 66.8965 264.322 68.0801 264.322C68.9004 264.322 69.752 264.154 70.6348 263.818V264.598C69.8848 264.926 69.0332 265.09 68.0801 265.09C66.6621 265.09 65.5605 264.701 64.7754 263.924C63.9941 263.143 63.6035 262.053 63.6035 260.654C63.6035 259.639 63.8125 258.734 64.2305 257.941C64.6484 257.148 65.2441 256.535 66.0176 256.102C66.791 255.664 67.6777 255.445 68.6777 255.445C69.5176 255.445 70.2637 255.623 70.916 255.979C71.5723 256.33 72.0781 256.832 72.4336 257.484C72.793 258.133 72.9727 258.881 72.9727 259.729ZM66.9141 260.496C66.9141 261.488 67.2949 261.984 68.0566 261.984C68.8652 261.984 69.3047 261.373 69.375 260.15L69.457 258.621C69.1758 258.543 68.8691 258.504 68.5371 258.504C68.0293 258.504 67.6309 258.68 67.3418 259.031C67.0566 259.383 66.9141 259.871 66.9141 260.496ZM78.668 264L78.4746 263.086H78.4277C78.1074 263.488 77.7871 263.762 77.4668 263.906C77.1504 264.047 76.7539 264.117 76.2773 264.117C75.6406 264.117 75.1406 263.953 74.7773 263.625C74.418 263.297 74.2383 262.83 74.2383 262.225C74.2383 260.928 75.2754 260.248 77.3496 260.186L78.4395 260.15V259.752C78.4395 259.248 78.3301 258.877 78.1113 258.639C77.8965 258.396 77.5508 258.275 77.0742 258.275C76.5391 258.275 75.9336 258.439 75.2578 258.768L74.959 258.023C75.2754 257.852 75.6211 257.717 75.9961 257.619C76.375 257.521 76.7539 257.473 77.1328 257.473C77.8984 257.473 78.4648 257.643 78.832 257.982C79.2031 258.322 79.3887 258.867 79.3887 259.617V264H78.668ZM76.4707 263.314C77.0762 263.314 77.5508 263.148 77.8945 262.816C78.2422 262.484 78.416 262.02 78.416 261.422V260.842L77.4434 260.883C76.6699 260.91 76.1113 261.031 75.7676 261.246C75.4277 261.457 75.2578 261.787 75.2578 262.236C75.2578 262.588 75.3633 262.855 75.5742 263.039C75.7891 263.223 76.0879 263.314 76.4707 263.314ZM89.584 264V259.822C89.584 259.311 89.4746 258.928 89.2559 258.674C89.0371 258.416 88.6973 258.287 88.2363 258.287C87.6309 258.287 87.1836 258.461 86.8945 258.809C86.6055 259.156 86.4609 259.691 86.4609 260.414V264H85.4883V259.822C85.4883 259.311 85.3789 258.928 85.1602 258.674C84.9414 258.416 84.5996 258.287 84.1348 258.287C83.5254 258.287 83.0781 258.471 82.793 258.838C82.5117 259.201 82.3711 259.799 82.3711 260.631V264H81.3984V257.578H82.1895L82.3477 258.457H82.3945C82.5781 258.145 82.8359 257.9 83.168 257.725C83.5039 257.549 83.8789 257.461 84.293 257.461C85.2969 257.461 85.9531 257.824 86.2617 258.551H86.3086C86.5 258.215 86.7773 257.949 87.1406 257.754C87.5039 257.559 87.918 257.461 88.3828 257.461C89.1094 257.461 89.6523 257.648 90.0117 258.023C90.375 258.395 90.5566 258.99 90.5566 259.811V264H89.584ZM91.5469 257.578H92.5898L93.9961 261.24C94.3047 262.076 94.4961 262.68 94.5703 263.051H94.6172C94.668 262.852 94.7734 262.512 94.9336 262.031C95.0977 261.547 95.6289 260.062 96.5273 257.578H97.5703L94.8105 264.891C94.5371 265.613 94.2168 266.125 93.8496 266.426C93.4863 266.73 93.0391 266.883 92.5078 266.883C92.2109 266.883 91.918 266.85 91.6289 266.783V266.004C91.8438 266.051 92.084 266.074 92.3496 266.074C93.0176 266.074 93.4941 265.699 93.7793 264.949L94.1367 264.035L91.5469 257.578ZM102.756 262.248C102.756 262.846 102.533 263.307 102.088 263.631C101.643 263.955 101.018 264.117 100.213 264.117C99.3613 264.117 98.6973 263.982 98.2207 263.713V262.811C98.5293 262.967 98.8594 263.09 99.2109 263.18C99.5664 263.27 99.9082 263.314 100.236 263.314C100.744 263.314 101.135 263.234 101.408 263.074C101.682 262.91 101.818 262.662 101.818 262.33C101.818 262.08 101.709 261.867 101.49 261.691C101.275 261.512 100.854 261.301 100.225 261.059C99.627 260.836 99.2012 260.643 98.9473 260.479C98.6973 260.311 98.5098 260.121 98.3848 259.91C98.2637 259.699 98.2031 259.447 98.2031 259.154C98.2031 258.631 98.416 258.219 98.8418 257.918C99.2676 257.613 99.8516 257.461 100.594 257.461C101.285 257.461 101.961 257.602 102.621 257.883L102.275 258.674C101.631 258.408 101.047 258.275 100.523 258.275C100.062 258.275 99.7148 258.348 99.4805 258.492C99.2461 258.637 99.1289 258.836 99.1289 259.09C99.1289 259.262 99.1719 259.408 99.2578 259.529C99.3477 259.65 99.4902 259.766 99.6855 259.875C99.8809 259.984 100.256 260.143 100.811 260.35C101.572 260.627 102.086 260.906 102.352 261.188C102.621 261.469 102.756 261.822 102.756 262.248ZM108.738 264V259.846C108.738 259.322 108.619 258.932 108.381 258.674C108.143 258.416 107.77 258.287 107.262 258.287C106.586 258.287 106.092 258.471 105.779 258.838C105.471 259.205 105.316 259.807 105.316 260.643V264H104.344V254.883H105.316V257.643C105.316 257.975 105.301 258.25 105.27 258.469H105.328C105.52 258.16 105.791 257.918 106.143 257.742C106.498 257.562 106.902 257.473 107.355 257.473C108.141 257.473 108.729 257.66 109.119 258.035C109.514 258.406 109.711 258.998 109.711 259.811V264H108.738ZM115.664 264L115.471 263.086H115.424C115.104 263.488 114.783 263.762 114.463 263.906C114.146 264.047 113.75 264.117 113.273 264.117C112.637 264.117 112.137 263.953 111.773 263.625C111.414 263.297 111.234 262.83 111.234 262.225C111.234 260.928 112.271 260.248 114.346 260.186L115.436 260.15V259.752C115.436 259.248 115.326 258.877 115.107 258.639C114.893 258.396 114.547 258.275 114.07 258.275C113.535 258.275 112.93 258.439 112.254 258.768L111.955 258.023C112.271 257.852 112.617 257.717 112.992 257.619C113.371 257.521 113.75 257.473 114.129 257.473C114.895 257.473 115.461 257.643 115.828 257.982C116.199 258.322 116.385 258.867 116.385 259.617V264H115.664ZM113.467 263.314C114.072 263.314 114.547 263.148 114.891 262.816C115.238 262.484 115.412 262.02 115.412 261.422V260.842L114.439 260.883C113.666 260.91 113.107 261.031 112.764 261.246C112.424 261.457 112.254 261.787 112.254 262.236C112.254 262.588 112.359 262.855 112.57 263.039C112.785 263.223 113.084 263.314 113.467 263.314ZM123.639 264L122.461 260.232C122.387 260.002 122.248 259.479 122.045 258.662H121.998C121.842 259.346 121.705 259.873 121.588 260.244L120.375 264H119.25L117.498 257.578H118.518C118.932 259.191 119.246 260.42 119.461 261.264C119.68 262.107 119.805 262.676 119.836 262.969H119.883C119.926 262.746 119.994 262.459 120.088 262.107C120.186 261.752 120.27 261.471 120.34 261.264L121.518 257.578H122.572L123.721 261.264C123.939 261.936 124.088 262.5 124.166 262.957H124.213C124.229 262.816 124.27 262.6 124.336 262.307C124.406 262.014 124.814 260.438 125.561 257.578H126.568L124.793 264H123.639ZM127.594 263.379C127.594 263.117 127.652 262.92 127.77 262.787C127.891 262.65 128.062 262.582 128.285 262.582C128.512 262.582 128.688 262.65 128.812 262.787C128.941 262.92 129.006 263.117 129.006 263.379C129.006 263.633 128.941 263.828 128.812 263.965C128.684 264.102 128.508 264.17 128.285 264.17C128.086 264.17 127.92 264.109 127.787 263.988C127.658 263.863 127.594 263.66 127.594 263.379ZM133.5 264.117C132.57 264.117 131.85 263.832 131.338 263.262C130.83 262.688 130.576 261.877 130.576 260.83C130.576 259.756 130.834 258.926 131.35 258.34C131.869 257.754 132.607 257.461 133.564 257.461C133.873 257.461 134.182 257.494 134.49 257.561C134.799 257.627 135.041 257.705 135.217 257.795L134.918 258.621C134.703 258.535 134.469 258.465 134.215 258.41C133.961 258.352 133.736 258.322 133.541 258.322C132.236 258.322 131.584 259.154 131.584 260.818C131.584 261.607 131.742 262.213 132.059 262.635C132.379 263.057 132.852 263.268 133.477 263.268C134.012 263.268 134.561 263.152 135.123 262.922V263.783C134.693 264.006 134.152 264.117 133.5 264.117ZM142.195 260.783C142.195 261.83 141.932 262.648 141.404 263.238C140.877 263.824 140.148 264.117 139.219 264.117C138.645 264.117 138.135 263.982 137.689 263.713C137.244 263.443 136.9 263.057 136.658 262.553C136.416 262.049 136.295 261.459 136.295 260.783C136.295 259.736 136.557 258.922 137.08 258.34C137.604 257.754 138.33 257.461 139.26 257.461C140.158 257.461 140.871 257.76 141.398 258.357C141.93 258.955 142.195 259.764 142.195 260.783ZM137.303 260.783C137.303 261.604 137.467 262.229 137.795 262.658C138.123 263.088 138.605 263.303 139.242 263.303C139.879 263.303 140.361 263.09 140.689 262.664C141.021 262.234 141.188 261.607 141.188 260.783C141.188 259.967 141.021 259.348 140.689 258.926C140.361 258.5 139.875 258.287 139.23 258.287C138.594 258.287 138.113 258.496 137.789 258.914C137.465 259.332 137.303 259.955 137.303 260.783ZM152.092 264V259.822C152.092 259.311 151.982 258.928 151.764 258.674C151.545 258.416 151.205 258.287 150.744 258.287C150.139 258.287 149.691 258.461 149.402 258.809C149.113 259.156 148.969 259.691 148.969 260.414V264H147.996V259.822C147.996 259.311 147.887 258.928 147.668 258.674C147.449 258.416 147.107 258.287 146.643 258.287C146.033 258.287 145.586 258.471 145.301 258.838C145.02 259.201 144.879 259.799 144.879 260.631V264H143.906V257.578H144.697L144.855 258.457H144.902C145.086 258.145 145.344 257.9 145.676 257.725C146.012 257.549 146.387 257.461 146.801 257.461C147.805 257.461 148.461 257.824 148.77 258.551H148.816C149.008 258.215 149.285 257.949 149.648 257.754C150.012 257.559 150.426 257.461 150.891 257.461C151.617 257.461 152.16 257.648 152.52 258.023C152.883 258.395 153.064 258.99 153.064 259.811V264H152.092Z" fill="#373737"/>
<path d="M26.3457 228.717L28.6309 224.434H29.709L26.8496 229.678V233H25.8418V229.725L22.9883 224.434H24.0781L26.3457 228.717ZM36.2891 229.783C36.2891 230.83 36.0254 231.648 35.498 232.238C34.9707 232.824 34.2422 233.117 33.3125 233.117C32.7383 233.117 32.2285 232.982 31.7832 232.713C31.3379 232.443 30.9941 232.057 30.752 231.553C30.5098 231.049 30.3887 230.459 30.3887 229.783C30.3887 228.736 30.6504 227.922 31.1738 227.34C31.6973 226.754 32.4238 226.461 33.3535 226.461C34.252 226.461 34.9648 226.76 35.4922 227.357C36.0234 227.955 36.2891 228.764 36.2891 229.783ZM31.3965 229.783C31.3965 230.604 31.5605 231.229 31.8887 231.658C32.2168 232.088 32.6992 232.303 33.3359 232.303C33.9727 232.303 34.4551 232.09 34.7832 231.664C35.1152 231.234 35.2812 230.607 35.2812 229.783C35.2812 228.967 35.1152 228.348 34.7832 227.926C34.4551 227.5 33.9688 227.287 33.3242 227.287C32.6875 227.287 32.207 227.496 31.8828 227.914C31.5586 228.332 31.3965 228.955 31.3965 229.783ZM38.9141 226.578V230.744C38.9141 231.268 39.0332 231.658 39.2715 231.916C39.5098 232.174 39.8828 232.303 40.3906 232.303C41.0625 232.303 41.5527 232.119 41.8613 231.752C42.1738 231.385 42.3301 230.785 42.3301 229.953V226.578H43.3027V233H42.5L42.3594 232.139H42.3066C42.1074 232.455 41.8301 232.697 41.4746 232.865C41.123 233.033 40.7207 233.117 40.2676 233.117C39.4863 233.117 38.9004 232.932 38.5098 232.561C38.123 232.189 37.9297 231.596 37.9297 230.779V226.578H38.9141ZM48.3008 226.461C48.5859 226.461 48.8418 226.484 49.0684 226.531L48.9336 227.434C48.668 227.375 48.4336 227.346 48.2305 227.346C47.7109 227.346 47.2656 227.557 46.8945 227.979C46.5273 228.4 46.3438 228.926 46.3438 229.555V233H45.3711V226.578H46.1738L46.2852 227.768H46.332C46.5703 227.35 46.8574 227.027 47.1934 226.801C47.5293 226.574 47.8984 226.461 48.3008 226.461ZM56.0996 233.117C55.1504 233.117 54.4004 232.828 53.8496 232.25C53.3027 231.672 53.0293 230.869 53.0293 229.842C53.0293 228.807 53.2832 227.984 53.791 227.375C54.3027 226.766 54.9883 226.461 55.8477 226.461C56.6523 226.461 57.2891 226.727 57.7578 227.258C58.2266 227.785 58.4609 228.482 58.4609 229.35V229.965H54.0371C54.0566 230.719 54.2461 231.291 54.6055 231.682C54.9688 232.072 55.4785 232.268 56.1348 232.268C56.8262 232.268 57.5098 232.123 58.1855 231.834V232.701C57.8418 232.85 57.5156 232.955 57.207 233.018C56.9023 233.084 56.5332 233.117 56.0996 233.117ZM55.8359 227.275C55.3203 227.275 54.9082 227.443 54.5996 227.779C54.2949 228.115 54.1152 228.58 54.0605 229.174H57.418C57.418 228.561 57.2812 228.092 57.0078 227.768C56.7344 227.439 56.3438 227.275 55.8359 227.275ZM68.3105 233V228.822C68.3105 228.311 68.2012 227.928 67.9824 227.674C67.7637 227.416 67.4238 227.287 66.9629 227.287C66.3574 227.287 65.9102 227.461 65.6211 227.809C65.332 228.156 65.1875 228.691 65.1875 229.414V233H64.2148V228.822C64.2148 228.311 64.1055 227.928 63.8867 227.674C63.668 227.416 63.3262 227.287 62.8613 227.287C62.252 227.287 61.8047 227.471 61.5195 227.838C61.2383 228.201 61.0977 228.799 61.0977 229.631V233H60.125V226.578H60.916L61.0742 227.457H61.1211C61.3047 227.145 61.5625 226.9 61.8945 226.725C62.2305 226.549 62.6055 226.461 63.0195 226.461C64.0234 226.461 64.6797 226.824 64.9883 227.551H65.0352C65.2266 227.215 65.5039 226.949 65.8672 226.754C66.2305 226.559 66.6445 226.461 67.1094 226.461C67.8359 226.461 68.3789 226.648 68.7383 227.023C69.1016 227.395 69.2832 227.99 69.2832 228.811V233H68.3105ZM75.2422 233L75.0488 232.086H75.002C74.6816 232.488 74.3613 232.762 74.041 232.906C73.7246 233.047 73.3281 233.117 72.8516 233.117C72.2148 233.117 71.7148 232.953 71.3516 232.625C70.9922 232.297 70.8125 231.83 70.8125 231.225C70.8125 229.928 71.8496 229.248 73.9238 229.186L75.0137 229.15V228.752C75.0137 228.248 74.9043 227.877 74.6855 227.639C74.4707 227.396 74.125 227.275 73.6484 227.275C73.1133 227.275 72.5078 227.439 71.832 227.768L71.5332 227.023C71.8496 226.852 72.1953 226.717 72.5703 226.619C72.9492 226.521 73.3281 226.473 73.707 226.473C74.4727 226.473 75.0391 226.643 75.4062 226.982C75.7773 227.322 75.9629 227.867 75.9629 228.617V233H75.2422ZM73.0449 232.314C73.6504 232.314 74.125 232.148 74.4688 231.816C74.8164 231.484 74.9902 231.02 74.9902 230.422V229.842L74.0176 229.883C73.2441 229.91 72.6855 230.031 72.3418 230.246C72.002 230.457 71.832 230.787 71.832 231.236C71.832 231.588 71.9375 231.855 72.1484 232.039C72.3633 232.223 72.6621 232.314 73.0449 232.314ZM78.9453 233H77.9727V226.578H78.9453V233ZM77.8906 224.838C77.8906 224.615 77.9453 224.453 78.0547 224.352C78.1641 224.246 78.3008 224.193 78.4648 224.193C78.6211 224.193 78.7559 224.246 78.8691 224.352C78.9824 224.457 79.0391 224.619 79.0391 224.838C79.0391 225.057 78.9824 225.221 78.8691 225.33C78.7559 225.436 78.6211 225.488 78.4648 225.488C78.3008 225.488 78.1641 225.436 78.0547 225.33C77.9453 225.221 77.8906 225.057 77.8906 224.838ZM81.9805 233H81.0078V223.883H81.9805V233Z" fill="#373737"/>
</g>
<g filter="url(#filter5_d)">
<rect x="23.5" y="321.5" width="327" height="39" rx="2.5" stroke="#676767"/>
<circle cx="44" cy="341" r="4" fill="#373737"/>
<circle cx="60" cy="341" r="4" fill="#373737"/>
<circle cx="76" cy="341" r="4" fill="#373737"/>
<circle cx="92" cy="341" r="4" fill="#373737"/>
<circle cx="108" cy="341" r="4" fill="#373737"/>
<circle cx="124" cy="341" r="4" fill="#373737"/>
<path d="M27.8457 306.201C26.9043 306.201 26.1602 306.516 25.6133 307.145C25.0703 307.77 24.7988 308.627 24.7988 309.717C24.7988 310.838 25.0605 311.705 25.584 312.318C26.1113 312.928 26.8613 313.232 27.834 313.232C28.4316 313.232 29.1133 313.125 29.8789 312.91V313.783C29.2852 314.006 28.5527 314.117 27.6816 314.117C26.4199 314.117 25.4453 313.734 24.7578 312.969C24.0742 312.203 23.7324 311.115 23.7324 309.705C23.7324 308.822 23.8965 308.049 24.2246 307.385C24.5566 306.721 25.0332 306.209 25.6543 305.85C26.2793 305.49 27.0137 305.311 27.8574 305.311C28.7559 305.311 29.541 305.475 30.2129 305.803L29.791 306.658C29.1426 306.354 28.4941 306.201 27.8457 306.201ZM35.9961 314V309.846C35.9961 309.322 35.877 308.932 35.6387 308.674C35.4004 308.416 35.0273 308.287 34.5195 308.287C33.8438 308.287 33.3496 308.471 33.0371 308.838C32.7285 309.205 32.5742 309.807 32.5742 310.643V314H31.6016V304.883H32.5742V307.643C32.5742 307.975 32.5586 308.25 32.5273 308.469H32.5859C32.7773 308.16 33.0488 307.918 33.4004 307.742C33.7559 307.562 34.1602 307.473 34.6133 307.473C35.3984 307.473 35.9863 307.66 36.377 308.035C36.7715 308.406 36.9688 308.998 36.9688 309.811V314H35.9961ZM44.5156 310.783C44.5156 311.83 44.252 312.648 43.7246 313.238C43.1973 313.824 42.4688 314.117 41.5391 314.117C40.9648 314.117 40.4551 313.982 40.0098 313.713C39.5645 313.443 39.2207 313.057 38.9785 312.553C38.7363 312.049 38.6152 311.459 38.6152 310.783C38.6152 309.736 38.877 308.922 39.4004 308.34C39.9238 307.754 40.6504 307.461 41.5801 307.461C42.4785 307.461 43.1914 307.76 43.7188 308.357C44.25 308.955 44.5156 309.764 44.5156 310.783ZM39.623 310.783C39.623 311.604 39.7871 312.229 40.1152 312.658C40.4434 313.088 40.9258 313.303 41.5625 313.303C42.1992 313.303 42.6816 313.09 43.0098 312.664C43.3418 312.234 43.5078 311.607 43.5078 310.783C43.5078 309.967 43.3418 309.348 43.0098 308.926C42.6816 308.5 42.1953 308.287 41.5508 308.287C40.9141 308.287 40.4336 308.496 40.1094 308.914C39.7852 309.332 39.623 309.955 39.623 310.783ZM51.7695 310.783C51.7695 311.83 51.5059 312.648 50.9785 313.238C50.4512 313.824 49.7227 314.117 48.793 314.117C48.2188 314.117 47.709 313.982 47.2637 313.713C46.8184 313.443 46.4746 313.057 46.2324 312.553C45.9902 312.049 45.8691 311.459 45.8691 310.783C45.8691 309.736 46.1309 308.922 46.6543 308.34C47.1777 307.754 47.9043 307.461 48.834 307.461C49.7324 307.461 50.4453 307.76 50.9727 308.357C51.5039 308.955 51.7695 309.764 51.7695 310.783ZM46.877 310.783C46.877 311.604 47.041 312.229 47.3691 312.658C47.6973 313.088 48.1797 313.303 48.8164 313.303C49.4531 313.303 49.9355 313.09 50.2637 312.664C50.5957 312.234 50.7617 311.607 50.7617 310.783C50.7617 309.967 50.5957 309.348 50.2637 308.926C49.9355 308.5 49.4492 308.287 48.8047 308.287C48.168 308.287 47.6875 308.496 47.3633 308.914C47.0391 309.332 46.877 309.955 46.877 310.783ZM57.623 312.248C57.623 312.846 57.4004 313.307 56.9551 313.631C56.5098 313.955 55.8848 314.117 55.0801 314.117C54.2285 314.117 53.5645 313.982 53.0879 313.713V312.811C53.3965 312.967 53.7266 313.09 54.0781 313.18C54.4336 313.27 54.7754 313.314 55.1035 313.314C55.6113 313.314 56.002 313.234 56.2754 313.074C56.5488 312.91 56.6855 312.662 56.6855 312.33C56.6855 312.08 56.5762 311.867 56.3574 311.691C56.1426 311.512 55.7207 311.301 55.0918 311.059C54.4941 310.836 54.0684 310.643 53.8145 310.479C53.5645 310.311 53.377 310.121 53.252 309.91C53.1309 309.699 53.0703 309.447 53.0703 309.154C53.0703 308.631 53.2832 308.219 53.709 307.918C54.1348 307.613 54.7188 307.461 55.4609 307.461C56.1523 307.461 56.8281 307.602 57.4883 307.883L57.1426 308.674C56.498 308.408 55.9141 308.275 55.3906 308.275C54.9297 308.275 54.582 308.348 54.3477 308.492C54.1133 308.637 53.9961 308.836 53.9961 309.09C53.9961 309.262 54.0391 309.408 54.125 309.529C54.2148 309.65 54.3574 309.766 54.5527 309.875C54.748 309.984 55.123 310.143 55.6777 310.35C56.4395 310.627 56.9531 310.906 57.2188 311.188C57.4883 311.469 57.623 311.822 57.623 312.248ZM61.9238 314.117C60.9746 314.117 60.2246 313.828 59.6738 313.25C59.127 312.672 58.8535 311.869 58.8535 310.842C58.8535 309.807 59.1074 308.984 59.6152 308.375C60.127 307.766 60.8125 307.461 61.6719 307.461C62.4766 307.461 63.1133 307.727 63.582 308.258C64.0508 308.785 64.2852 309.482 64.2852 310.35V310.965H59.8613C59.8809 311.719 60.0703 312.291 60.4297 312.682C60.793 313.072 61.3027 313.268 61.959 313.268C62.6504 313.268 63.334 313.123 64.0098 312.834V313.701C63.666 313.85 63.3398 313.955 63.0312 314.018C62.7266 314.084 62.3574 314.117 61.9238 314.117ZM61.6602 308.275C61.1445 308.275 60.7324 308.443 60.4238 308.779C60.1191 309.115 59.9395 309.58 59.8848 310.174H63.2422C63.2422 309.561 63.1055 309.092 62.832 308.768C62.5586 308.439 62.168 308.275 61.6602 308.275ZM74.6445 307.93C74.6445 308.797 74.3477 309.465 73.7539 309.934C73.1641 310.398 72.3184 310.631 71.2168 310.631H70.209V314H69.2129V305.434H71.4336C73.5742 305.434 74.6445 306.266 74.6445 307.93ZM70.209 309.775H71.1055C71.9883 309.775 72.627 309.633 73.0215 309.348C73.416 309.062 73.6133 308.605 73.6133 307.977C73.6133 307.41 73.4277 306.988 73.0566 306.711C72.6855 306.434 72.1074 306.295 71.3223 306.295H70.209V309.775ZM80.2461 314L80.0527 313.086H80.0059C79.6855 313.488 79.3652 313.762 79.0449 313.906C78.7285 314.047 78.332 314.117 77.8555 314.117C77.2188 314.117 76.7188 313.953 76.3555 313.625C75.9961 313.297 75.8164 312.83 75.8164 312.225C75.8164 310.928 76.8535 310.248 78.9277 310.186L80.0176 310.15V309.752C80.0176 309.248 79.9082 308.877 79.6895 308.639C79.4746 308.396 79.1289 308.275 78.6523 308.275C78.1172 308.275 77.5117 308.439 76.8359 308.768L76.5371 308.023C76.8535 307.852 77.1992 307.717 77.5742 307.619C77.9531 307.521 78.332 307.473 78.7109 307.473C79.4766 307.473 80.043 307.643 80.4102 307.982C80.7812 308.322 80.9668 308.867 80.9668 309.617V314H80.2461ZM78.0488 313.314C78.6543 313.314 79.1289 313.148 79.4727 312.816C79.8203 312.484 79.9941 312.02 79.9941 311.422V310.842L79.0215 310.883C78.248 310.91 77.6895 311.031 77.3457 311.246C77.0059 311.457 76.8359 311.787 76.8359 312.236C76.8359 312.588 76.9414 312.855 77.1523 313.039C77.3672 313.223 77.666 313.314 78.0488 313.314ZM87.1191 312.248C87.1191 312.846 86.8965 313.307 86.4512 313.631C86.0059 313.955 85.3809 314.117 84.5762 314.117C83.7246 314.117 83.0605 313.982 82.584 313.713V312.811C82.8926 312.967 83.2227 313.09 83.5742 313.18C83.9297 313.27 84.2715 313.314 84.5996 313.314C85.1074 313.314 85.498 313.234 85.7715 313.074C86.0449 312.91 86.1816 312.662 86.1816 312.33C86.1816 312.08 86.0723 311.867 85.8535 311.691C85.6387 311.512 85.2168 311.301 84.5879 311.059C83.9902 310.836 83.5645 310.643 83.3105 310.479C83.0605 310.311 82.873 310.121 82.748 309.91C82.627 309.699 82.5664 309.447 82.5664 309.154C82.5664 308.631 82.7793 308.219 83.2051 307.918C83.6309 307.613 84.2148 307.461 84.957 307.461C85.6484 307.461 86.3242 307.602 86.9844 307.883L86.6387 308.674C85.9941 308.408 85.4102 308.275 84.8867 308.275C84.4258 308.275 84.0781 308.348 83.8438 308.492C83.6094 308.637 83.4922 308.836 83.4922 309.09C83.4922 309.262 83.5352 309.408 83.6211 309.529C83.7109 309.65 83.8535 309.766 84.0488 309.875C84.2441 309.984 84.6191 310.143 85.1738 310.35C85.9355 310.627 86.4492 310.906 86.7148 311.188C86.9844 311.469 87.1191 311.822 87.1191 312.248ZM92.8496 312.248C92.8496 312.846 92.627 313.307 92.1816 313.631C91.7363 313.955 91.1113 314.117 90.3066 314.117C89.4551 314.117 88.791 313.982 88.3145 313.713V312.811C88.623 312.967 88.9531 313.09 89.3047 313.18C89.6602 313.27 90.002 313.314 90.3301 313.314C90.8379 313.314 91.2285 313.234 91.502 313.074C91.7754 312.91 91.9121 312.662 91.9121 312.33C91.9121 312.08 91.8027 311.867 91.584 311.691C91.3691 311.512 90.9473 311.301 90.3184 311.059C89.7207 310.836 89.2949 310.643 89.041 310.479C88.791 310.311 88.6035 310.121 88.4785 309.91C88.3574 309.699 88.2969 309.447 88.2969 309.154C88.2969 308.631 88.5098 308.219 88.9355 307.918C89.3613 307.613 89.9453 307.461 90.6875 307.461C91.3789 307.461 92.0547 307.602 92.7148 307.883L92.3691 308.674C91.7246 308.408 91.1406 308.275 90.6172 308.275C90.1562 308.275 89.8086 308.348 89.5742 308.492C89.3398 308.637 89.2227 308.836 89.2227 309.09C89.2227 309.262 89.2656 309.408 89.3516 309.529C89.4414 309.65 89.584 309.766 89.7793 309.875C89.9746 309.984 90.3496 310.143 90.9043 310.35C91.666 310.627 92.1797 310.906 92.4453 311.188C92.7148 311.469 92.8496 311.822 92.8496 312.248ZM99.6816 314L98.5039 310.232C98.4297 310.002 98.291 309.479 98.0879 308.662H98.041C97.8848 309.346 97.748 309.873 97.6309 310.244L96.418 314H95.293L93.541 307.578H94.5605C94.9746 309.191 95.2891 310.42 95.5039 311.264C95.7227 312.107 95.8477 312.676 95.8789 312.969H95.9258C95.9688 312.746 96.0371 312.459 96.1309 312.107C96.2285 311.752 96.3125 311.471 96.3828 311.264L97.5605 307.578H98.6152L99.7637 311.264C99.9824 311.936 100.131 312.5 100.209 312.957H100.256C100.271 312.816 100.312 312.6 100.379 312.307C100.449 312.014 100.857 310.438 101.604 307.578H102.611L100.836 314H99.6816ZM109.32 310.783C109.32 311.83 109.057 312.648 108.529 313.238C108.002 313.824 107.273 314.117 106.344 314.117C105.77 314.117 105.26 313.982 104.814 313.713C104.369 313.443 104.025 313.057 103.783 312.553C103.541 312.049 103.42 311.459 103.42 310.783C103.42 309.736 103.682 308.922 104.205 308.34C104.729 307.754 105.455 307.461 106.385 307.461C107.283 307.461 107.996 307.76 108.523 308.357C109.055 308.955 109.32 309.764 109.32 310.783ZM104.428 310.783C104.428 311.604 104.592 312.229 104.92 312.658C105.248 313.088 105.73 313.303 106.367 313.303C107.004 313.303 107.486 313.09 107.814 312.664C108.146 312.234 108.312 311.607 108.312 310.783C108.312 309.967 108.146 309.348 107.814 308.926C107.486 308.5 107 308.287 106.355 308.287C105.719 308.287 105.238 308.496 104.914 308.914C104.59 309.332 104.428 309.955 104.428 310.783ZM113.961 307.461C114.246 307.461 114.502 307.484 114.729 307.531L114.594 308.434C114.328 308.375 114.094 308.346 113.891 308.346C113.371 308.346 112.926 308.557 112.555 308.979C112.188 309.4 112.004 309.926 112.004 310.555V314H111.031V307.578H111.834L111.945 308.768H111.992C112.23 308.35 112.518 308.027 112.854 307.801C113.189 307.574 113.559 307.461 113.961 307.461ZM120.301 313.139H120.248C119.799 313.791 119.127 314.117 118.232 314.117C117.393 314.117 116.738 313.83 116.27 313.256C115.805 312.682 115.572 311.865 115.572 310.807C115.572 309.748 115.807 308.926 116.275 308.34C116.744 307.754 117.396 307.461 118.232 307.461C119.104 307.461 119.771 307.777 120.236 308.41H120.312L120.271 307.947L120.248 307.496V304.883H121.221V314H120.43L120.301 313.139ZM118.355 313.303C119.02 313.303 119.5 313.123 119.797 312.764C120.098 312.4 120.248 311.816 120.248 311.012V310.807C120.248 309.896 120.096 309.248 119.791 308.861C119.49 308.471 119.008 308.275 118.344 308.275C117.773 308.275 117.336 308.498 117.031 308.943C116.73 309.385 116.58 310.01 116.58 310.818C116.58 311.639 116.73 312.258 117.031 312.676C117.332 313.094 117.773 313.303 118.355 313.303Z" fill="#373737"/>
</g>
<g filter="url(#filter6_d)">
<rect x="23.2246" y="397" width="332.776" height="42.025" rx="4" fill="url(#paint5_linear)"/>
<path d="M169.495 424H175.447V422.68H171.055V415.6H169.495V424ZM180.45 424.12C183.054 424.12 184.974 422.296 184.974 419.8C184.974 417.304 183.054 415.48 180.45 415.48C177.846 415.48 175.926 417.316 175.926 419.8C175.926 422.284 177.846 424.12 180.45 424.12ZM180.45 422.752C178.758 422.752 177.498 421.516 177.498 419.8C177.498 418.084 178.758 416.848 180.45 416.848C182.142 416.848 183.402 418.084 183.402 419.8C183.402 421.516 182.142 422.752 180.45 422.752ZM192.364 422.32C191.824 422.632 191.236 422.752 190.636 422.752C188.86 422.752 187.6 421.504 187.6 419.8C187.6 418.06 188.86 416.848 190.648 416.848C191.548 416.848 192.304 417.148 192.964 417.808L193.948 416.848C193.156 415.948 191.98 415.48 190.576 415.48C187.948 415.48 186.028 417.292 186.028 419.8C186.028 422.308 187.948 424.12 190.552 424.12C191.74 424.12 192.964 423.76 193.84 423.052V419.704H192.364V422.32ZM199.214 424H200.774V415.6H199.214V424ZM208.962 415.6V421.288L204.33 415.6H203.046V424H204.594V418.312L209.226 424H210.51V415.6H208.962Z" fill="white"/>
</g>
<g filter="url(#filter7_d)">
<path d="M187.581 466.247C187.581 467.468 187.273 468.423 186.658 469.111C186.043 469.795 185.193 470.137 184.108 470.137C183.438 470.137 182.844 469.979 182.324 469.665C181.805 469.351 181.404 468.899 181.121 468.312C180.839 467.724 180.697 467.035 180.697 466.247C180.697 465.026 181.003 464.076 181.613 463.396C182.224 462.713 183.072 462.371 184.156 462.371C185.204 462.371 186.036 462.72 186.651 463.417C187.271 464.114 187.581 465.058 187.581 466.247ZM181.873 466.247C181.873 467.204 182.064 467.933 182.447 468.435C182.83 468.936 183.393 469.187 184.136 469.187C184.879 469.187 185.441 468.938 185.824 468.441C186.212 467.94 186.405 467.209 186.405 466.247C186.405 465.295 186.212 464.572 185.824 464.08C185.441 463.583 184.874 463.335 184.122 463.335C183.379 463.335 182.819 463.579 182.44 464.066C182.062 464.554 181.873 465.281 181.873 466.247ZM192.995 462.371C193.328 462.371 193.626 462.398 193.891 462.453L193.733 463.506C193.424 463.438 193.15 463.403 192.913 463.403C192.307 463.403 191.787 463.649 191.354 464.142C190.926 464.634 190.712 465.247 190.712 465.98V470H189.577V462.508H190.514L190.644 463.896H190.698C190.976 463.408 191.311 463.032 191.703 462.768C192.095 462.503 192.526 462.371 192.995 462.371Z" fill="#373737"/>
</g>
<g filter="url(#filter8_d)">
<rect x="24" y="490" width="328" height="40" rx="4" fill="url(#paint6_linear)"/>
<path d="M120.148 516.62C122.452 516.62 123.544 515.468 123.544 514.124C123.544 511.04 118.564 512.204 118.564 510.416C118.564 509.78 119.092 509.276 120.388 509.276C121.12 509.276 121.948 509.492 122.704 509.936L123.196 508.724C122.464 508.244 121.408 507.98 120.4 507.98C118.096 507.98 117.016 509.132 117.016 510.488C117.016 513.608 122.008 512.42 122.008 514.232C122.008 514.856 121.456 515.324 120.148 515.324C119.116 515.324 118.048 514.94 117.376 514.4L116.836 515.612C117.532 516.212 118.84 516.62 120.148 516.62ZM125.091 516.5H126.651V508.1H125.091V516.5ZM134.659 514.82C134.119 515.132 133.531 515.252 132.931 515.252C131.155 515.252 129.895 514.004 129.895 512.3C129.895 510.56 131.155 509.348 132.943 509.348C133.843 509.348 134.599 509.648 135.259 510.308L136.243 509.348C135.451 508.448 134.275 507.98 132.871 507.98C130.243 507.98 128.323 509.792 128.323 512.3C128.323 514.808 130.243 516.62 132.847 516.62C134.035 516.62 135.259 516.26 136.135 515.552V512.204H134.659V514.82ZM144.108 508.1V513.788L139.476 508.1H138.192V516.5H139.74V510.812L144.372 516.5H145.656V508.1H144.108ZM151.224 516.5H152.784V508.1H151.224V516.5ZM160.972 508.1V513.788L156.34 508.1H155.056V516.5H156.604V510.812L161.236 516.5H162.52V508.1H160.972ZM178.875 508.1L176.727 514.52L174.603 508.1H173.163L170.991 514.484L168.903 508.1H167.283L170.067 516.5H171.735L173.847 510.284L175.923 516.5H177.579L180.363 508.1H178.875ZM181.634 516.5H183.194V508.1H181.634V516.5ZM187.17 516.5H188.73V509.42H191.514V508.1H184.386V509.42H187.17V516.5ZM198.589 508.1V511.568H194.245V508.1H192.685V516.5H194.245V512.9H198.589V516.5H200.149V508.1H198.589ZM211.452 514.82C210.912 515.132 210.324 515.252 209.724 515.252C207.948 515.252 206.688 514.004 206.688 512.3C206.688 510.56 207.948 509.348 209.736 509.348C210.636 509.348 211.392 509.648 212.052 510.308L213.036 509.348C212.244 508.448 211.068 507.98 209.664 507.98C207.036 507.98 205.116 509.792 205.116 512.3C205.116 514.808 207.036 516.62 209.64 516.62C210.828 516.62 212.052 516.26 212.928 515.552V512.204H211.452V514.82ZM218.909 516.62C221.513 516.62 223.433 514.796 223.433 512.3C223.433 509.804 221.513 507.98 218.909 507.98C216.305 507.98 214.385 509.816 214.385 512.3C214.385 514.784 216.305 516.62 218.909 516.62ZM218.909 515.252C217.217 515.252 215.957 514.016 215.957 512.3C215.957 510.584 217.217 509.348 218.909 509.348C220.601 509.348 221.861 510.584 221.861 512.3C221.861 514.016 220.601 515.252 218.909 515.252ZM229.011 516.62C231.615 516.62 233.535 514.796 233.535 512.3C233.535 509.804 231.615 507.98 229.011 507.98C226.407 507.98 224.487 509.816 224.487 512.3C224.487 514.784 226.407 516.62 229.011 516.62ZM229.011 515.252C227.319 515.252 226.059 514.016 226.059 512.3C226.059 510.584 227.319 509.348 229.011 509.348C230.703 509.348 231.963 510.584 231.963 512.3C231.963 514.016 230.703 515.252 229.011 515.252ZM240.925 514.82C240.385 515.132 239.797 515.252 239.197 515.252C237.421 515.252 236.161 514.004 236.161 512.3C236.161 510.56 237.421 509.348 239.209 509.348C240.109 509.348 240.865 509.648 241.525 510.308L242.509 509.348C241.717 508.448 240.541 507.98 239.137 507.98C236.509 507.98 234.589 509.792 234.589 512.3C234.589 514.808 236.509 516.62 239.113 516.62C240.301 516.62 241.525 516.26 242.401 515.552V512.204H240.925V514.82ZM244.458 516.5H250.41V515.18H246.018V508.1H244.458V516.5ZM253.202 515.192V512.876H257.258V511.592H253.202V509.408H257.774V508.1H251.642V516.5H257.942V515.192H253.202Z" fill="#FCF7F2"/>
<circle cx="53" cy="511" r="12.75" fill="#FCF7F2" stroke="url(#paint7_linear)" stroke-width="0.5"/>
<g clip-path="url(#clip1)">
<path fill-rule="evenodd" clip-rule="evenodd" d="M52.8516 509.76V512.664H56.8173C56.7515 512.892 56.6701 513.11 56.5752 513.315C56.5362 513.4 56.495 513.483 56.4513 513.564C56.4422 513.581 56.4318 513.597 56.4225 513.613C56.422 513.614 56.4229 513.616 56.4225 513.616C56.3932 513.666 56.3633 513.718 56.3389 513.76C56.3076 513.808 56.2756 513.858 56.2496 513.9C56.2195 513.945 56.189 513.988 56.1573 514.031C56.1499 514.041 56.1417 514.05 56.1343 514.06C56.1063 514.095 56.0788 514.133 56.0565 514.163C55.9849 514.25 55.9096 514.335 55.8432 514.405C55.8046 514.446 55.7649 514.485 55.7308 514.519C55.6902 514.559 55.6486 514.597 55.6126 514.63C55.5738 514.665 55.5347 514.697 55.4945 514.73C55.4517 514.766 55.4044 514.801 55.3648 514.832L57.6416 516.798C57.6754 516.771 57.7092 516.744 57.7425 516.716H57.7454C57.7638 516.701 57.7819 516.685 57.8001 516.67C57.852 516.626 57.9023 516.581 57.9529 516.535C57.9836 516.508 58.0149 516.481 58.0451 516.453C58.0648 516.435 58.0833 516.416 58.1028 516.398C58.1314 516.371 58.161 516.344 58.1892 516.316C58.2096 516.296 58.2296 516.275 58.2498 516.255C58.2769 516.228 58.3037 516.2 58.3304 516.173C58.351 516.152 58.3707 516.13 58.391 516.109C58.4377 516.059 58.4839 516.01 58.5293 515.96C58.5751 515.909 58.6203 515.857 58.6648 515.805C58.7088 515.753 58.7519 515.7 58.7945 515.647C58.8149 515.622 58.8349 515.597 58.855 515.571C58.8768 515.543 58.8969 515.515 58.9184 515.486C58.9593 515.432 59 515.378 59.0394 515.323C59.0769 515.27 59.1158 515.218 59.1518 515.165C59.1538 515.162 59.1557 515.159 59.1576 515.156C59.1739 515.132 59.1906 515.107 59.2066 515.083C59.2285 515.05 59.2486 515.017 59.27 514.984C59.2845 514.961 59.299 514.939 59.3132 514.917C59.3348 514.882 59.3557 514.846 59.3766 514.811C59.39 514.789 59.4039 514.767 59.417 514.744C59.4384 514.708 59.4596 514.67 59.4804 514.633C59.5139 514.574 59.5465 514.513 59.5784 514.452C59.6389 514.337 59.6968 514.22 59.7513 514.101C59.754 514.095 59.7573 514.09 59.76 514.084C59.7688 514.065 59.7772 514.045 59.7859 514.025C59.8055 513.981 59.8247 513.938 59.8435 513.894C59.851 513.876 59.8593 513.859 59.8666 513.841C59.8857 513.795 59.9032 513.748 59.9214 513.701C59.9279 513.684 59.9351 513.668 59.9415 513.651C59.9598 513.604 59.9761 513.556 59.9934 513.508C59.999 513.493 60.0053 513.477 60.0107 513.462C60.0282 513.412 60.0461 513.36 60.0626 513.31C60.0674 513.295 60.0723 513.28 60.077 513.266C60.0934 513.215 60.1078 513.163 60.1231 513.111C60.1378 513.061 60.1527 513.012 60.1663 512.962C60.1711 512.944 60.1761 512.927 60.1807 512.909C60.1841 512.897 60.1861 512.884 60.1894 512.871C60.2065 512.805 60.223 512.739 60.2384 512.673C60.2429 512.653 60.2485 512.634 60.2528 512.614C60.2765 512.507 60.2971 512.399 60.3162 512.29C60.3272 512.227 60.3385 512.163 60.3479 512.1C60.3489 512.093 60.3498 512.086 60.3508 512.08C60.3518 512.073 60.3527 512.066 60.3537 512.059C60.3539 512.057 60.3534 512.055 60.3537 512.053C60.3679 511.953 60.3809 511.853 60.3911 511.752C60.3944 511.719 60.3969 511.686 60.3998 511.653C60.4046 511.597 60.4106 511.54 60.4142 511.483C60.4152 511.468 60.4162 511.452 60.4171 511.437C60.4172 511.434 60.4169 511.431 60.4171 511.428C60.421 511.359 60.4237 511.29 60.4257 511.221C60.4258 511.219 60.4256 511.217 60.4257 511.215C60.4277 511.143 60.4286 511.073 60.4286 511.001C60.4286 510.578 60.3928 510.164 60.3248 509.76H56.849H52.8516L52.8516 509.76Z" fill="#4385F5"/>
<path fill-rule="evenodd" clip-rule="evenodd" d="M60.4185 511.437C60.4159 511.483 60.4104 511.529 60.407 511.574C60.4097 511.544 60.4137 511.514 60.4156 511.484C60.4166 511.468 60.4176 511.452 60.4185 511.437H60.4185ZM60.3176 512.29C60.2987 512.398 60.2777 512.505 60.2542 512.611C60.2778 512.505 60.2987 512.398 60.3176 512.29ZM48.7662 512.635C48.0447 513.203 47.0586 513.982 46.4375 514.481C47.6859 516.83 50.1582 518.429 53.0029 518.429C54.7595 518.429 56.3715 517.818 57.6431 516.798L55.3662 514.832C54.7083 515.323 53.8835 515.597 52.9424 515.597C51.0277 515.597 49.3781 514.374 48.7662 512.635ZM57.6431 516.798C57.6775 516.771 57.7128 516.745 57.7468 516.717H57.7439C57.7107 516.744 57.6768 516.771 57.6431 516.798H57.6431ZM60.2398 512.679C60.2248 512.743 60.2075 512.807 60.1908 512.871C60.2075 512.807 60.2248 512.744 60.2398 512.679ZM59.9948 513.508C59.9811 513.547 59.9684 513.585 59.9545 513.622C59.9687 513.585 59.9813 513.546 59.9948 513.508ZM59.9228 513.701C59.8977 513.765 59.8717 513.831 59.845 513.894C59.8524 513.877 59.8607 513.859 59.868 513.841C59.8871 513.795 59.9046 513.748 59.9228 513.701ZM59.7354 514.137C59.7134 514.184 59.6922 514.23 59.6692 514.277C59.692 514.23 59.7135 514.184 59.7354 514.137ZM59.5798 514.452C59.55 514.509 59.5188 514.566 59.4876 514.622C59.519 514.566 59.5499 514.509 59.5798 514.452ZM55.7322 514.519C55.6948 514.556 55.6558 514.593 55.6169 514.627C55.6566 514.592 55.6941 514.556 55.7322 514.519ZM55.6141 514.63C55.5752 514.665 55.5361 514.697 55.4959 514.73C55.5358 514.697 55.5756 514.665 55.6141 514.63ZM55.493 514.733C55.4527 514.765 55.4107 514.798 55.3691 514.829C55.4108 514.798 55.4527 514.766 55.493 514.733ZM59.0409 515.323C59.0014 515.378 58.9608 515.433 58.9198 515.486C58.8992 515.514 58.8802 515.541 58.8593 515.568C58.9219 515.488 58.9815 515.406 59.0409 515.323ZM58.7959 515.647C58.7533 515.7 58.7102 515.753 58.6662 515.805C58.7104 515.753 58.7531 515.7 58.7959 515.647ZM58.5307 515.96C58.4853 516.01 58.4391 516.059 58.3924 516.109C58.4388 516.06 58.4857 516.01 58.5307 515.96ZM58.0437 516.456C58.0144 516.483 57.984 516.509 57.9543 516.535C57.984 516.509 58.0145 516.483 58.0437 516.456Z" fill="#34A855"/>
<path fill-rule="evenodd" clip-rule="evenodd" d="M48.7483 509.681L46.3389 507.712C45.8478 508.704 45.5723 509.82 45.5723 511.001C45.5723 512.259 45.8851 513.443 46.4369 514.481C47.058 513.981 48.044 513.203 48.7656 512.635C48.6017 512.169 48.512 511.665 48.512 511.139C48.512 510.628 48.5962 510.138 48.7483 509.681Z" fill="#FABC07"/>
<path fill-rule="evenodd" clip-rule="evenodd" d="M53.002 503.571C50.0689 503.571 47.5322 505.274 46.3242 507.744L48.7509 509.678C49.3425 507.903 50.9777 506.625 52.9069 506.625C53.9978 506.625 54.9405 507.031 55.6478 507.703L57.8843 505.406C56.5787 504.265 54.8718 503.571 53.002 503.571Z" fill="#E94335"/>
<path fill-rule="evenodd" clip-rule="evenodd" d="M46.2871 507.82C46.2448 507.909 46.2048 507.998 46.166 508.089C46.2049 507.997 46.2447 507.909 46.2871 507.82Z" fill="#34A855"/>
<path fill-rule="evenodd" clip-rule="evenodd" d="M46.1535 508.115C46.1164 508.203 46.0806 508.291 46.0469 508.381C46.0804 508.292 46.1167 508.202 46.1535 508.115Z" fill="#34A855"/>
<path fill-rule="evenodd" clip-rule="evenodd" d="M46.0488 508.38C46.0366 508.412 46.0255 508.445 46.0137 508.477C46.0255 508.445 46.0366 508.413 46.0488 508.38Z" fill="#34A855"/>
<path fill-rule="evenodd" clip-rule="evenodd" d="M45.8806 508.877C45.8555 508.962 45.8308 509.046 45.8086 509.132C45.8307 509.046 45.8556 508.961 45.8806 508.877Z" fill="#34A855"/>
<path fill-rule="evenodd" clip-rule="evenodd" d="M45.6582 509.871C45.6493 509.928 45.6423 509.985 45.6348 510.043C45.6424 509.985 45.6493 509.928 45.6582 509.871Z" fill="#34A855"/>
<path fill-rule="evenodd" clip-rule="evenodd" d="M45.626 510.128C45.6185 510.191 45.6114 510.254 45.6055 510.318C45.6113 510.254 45.6185 510.191 45.626 510.128Z" fill="#34A855"/>
<path fill-rule="evenodd" clip-rule="evenodd" d="M48.6065 510.21C48.5992 510.245 48.5924 510.28 48.5859 510.315C48.5924 510.28 48.5992 510.245 48.6065 510.21Z" fill="#34A855"/>
<path fill-rule="evenodd" clip-rule="evenodd" d="M48.5879 510.315C48.5795 510.36 48.5715 510.406 48.5645 510.452C48.5714 510.406 48.5795 510.361 48.5879 510.315Z" fill="#34A855"/>
<path fill-rule="evenodd" clip-rule="evenodd" d="M48.5352 510.686C48.5278 510.759 48.5214 510.833 48.5176 510.908C48.5213 510.834 48.528 510.759 48.5352 510.686Z" fill="#34A855"/>
<path fill-rule="evenodd" clip-rule="evenodd" d="M48.5176 510.908C48.5137 510.985 48.5117 511.061 48.5117 511.139C48.5117 511.061 48.5137 510.985 48.5176 510.908Z" fill="#34A855"/>
<path fill-rule="evenodd" clip-rule="evenodd" d="M48.5117 511.139C48.5117 511.216 48.5137 511.293 48.5176 511.37C48.5137 511.293 48.5117 511.217 48.5117 511.139Z" fill="#34A855"/>
<path fill-rule="evenodd" clip-rule="evenodd" d="M45.5781 511.299C45.58 511.347 45.5841 511.395 45.5869 511.443C45.5841 511.395 45.58 511.347 45.5781 511.299Z" fill="#34A855"/>
<path fill-rule="evenodd" clip-rule="evenodd" d="M48.5312 511.548C48.5351 511.591 48.5379 511.634 48.543 511.676C48.5378 511.633 48.5352 511.591 48.5312 511.548Z" fill="#34A855"/>
<path fill-rule="evenodd" clip-rule="evenodd" d="M48.5781 511.916C48.5884 511.974 48.6008 512.031 48.6133 512.088C48.6007 512.031 48.5884 511.975 48.5781 511.916Z" fill="#34A855"/>
<path fill-rule="evenodd" clip-rule="evenodd" d="M45.8066 512.857C45.837 512.975 45.8716 513.092 45.9075 513.207C45.8716 513.092 45.837 512.974 45.8066 512.857Z" fill="#34A855"/>
<path fill-rule="evenodd" clip-rule="evenodd" d="M45.9922 513.467C46.0093 513.515 46.0268 513.563 46.0449 513.61C46.0269 513.563 46.0093 513.515 45.9922 513.467Z" fill="#34A855"/>
<path fill-rule="evenodd" clip-rule="evenodd" d="M46.0449 513.611C46.0793 513.702 46.1137 513.793 46.1516 513.882C46.1141 513.793 46.079 513.701 46.0449 513.611Z" fill="#34A855"/>
</g>
</g>
<g filter="url(#filter9_d)">
<path d="M79.4316 589H78.2695V579.006H83.8408V580.038H79.4316V583.695H83.5742V584.728H79.4316V589ZM91.7979 585.247C91.7979 586.468 91.4902 587.423 90.875 588.111C90.2598 588.795 89.4098 589.137 88.3252 589.137C87.6553 589.137 87.0605 588.979 86.541 588.665C86.0215 588.351 85.6204 587.899 85.3379 587.312C85.0553 586.724 84.9141 586.035 84.9141 585.247C84.9141 584.026 85.2194 583.076 85.8301 582.396C86.4408 581.713 87.2884 581.371 88.373 581.371C89.4212 581.371 90.2529 581.72 90.8682 582.417C91.488 583.114 91.7979 584.058 91.7979 585.247ZM86.0898 585.247C86.0898 586.204 86.2812 586.933 86.6641 587.435C87.0469 587.936 87.6097 588.187 88.3525 588.187C89.0954 588.187 89.6582 587.938 90.041 587.441C90.4284 586.94 90.6221 586.209 90.6221 585.247C90.6221 584.295 90.4284 583.572 90.041 583.08C89.6582 582.583 89.0908 582.335 88.3389 582.335C87.596 582.335 87.0355 582.579 86.6572 583.066C86.279 583.554 86.0898 584.281 86.0898 585.247ZM97.2119 581.371C97.5446 581.371 97.8431 581.398 98.1074 581.453L97.9502 582.506C97.6403 582.438 97.3669 582.403 97.1299 582.403C96.5238 582.403 96.0042 582.649 95.5713 583.142C95.1429 583.634 94.9287 584.247 94.9287 584.98V589H93.7939V581.508H94.7305L94.8604 582.896H94.915C95.193 582.408 95.528 582.032 95.9199 581.768C96.3118 581.503 96.7425 581.371 97.2119 581.371ZM105.641 581.508V582.226L104.253 582.39C104.381 582.549 104.494 582.759 104.595 583.019C104.695 583.274 104.745 583.563 104.745 583.887C104.745 584.62 104.494 585.206 103.993 585.644C103.492 586.081 102.804 586.3 101.929 586.3C101.705 586.3 101.496 586.282 101.3 586.245C100.817 586.5 100.575 586.822 100.575 587.209C100.575 587.414 100.66 587.567 100.828 587.667C100.997 587.763 101.286 587.811 101.696 587.811H103.022C103.834 587.811 104.456 587.981 104.889 588.323C105.326 588.665 105.545 589.162 105.545 589.813C105.545 590.643 105.212 591.274 104.547 591.707C103.882 592.145 102.911 592.363 101.635 592.363C100.655 592.363 99.8984 592.181 99.3652 591.816C98.8366 591.452 98.5723 590.937 98.5723 590.271C98.5723 589.816 98.7181 589.422 99.0098 589.089C99.3014 588.756 99.7116 588.531 100.24 588.412C100.049 588.326 99.887 588.191 99.7549 588.009C99.6273 587.826 99.5635 587.615 99.5635 587.373C99.5635 587.1 99.6364 586.86 99.7822 586.655C99.9281 586.45 100.158 586.252 100.473 586.061C100.085 585.901 99.7686 585.63 99.5225 585.247C99.2809 584.864 99.1602 584.427 99.1602 583.935C99.1602 583.114 99.4062 582.483 99.8984 582.041C100.391 581.594 101.088 581.371 101.99 581.371C102.382 581.371 102.735 581.417 103.05 581.508H105.641ZM99.666 590.258C99.666 590.663 99.8369 590.971 100.179 591.181C100.521 591.39 101.01 591.495 101.648 591.495C102.601 591.495 103.305 591.352 103.761 591.064C104.221 590.782 104.451 590.397 104.451 589.909C104.451 589.504 104.326 589.221 104.075 589.062C103.825 588.907 103.353 588.829 102.66 588.829H101.3C100.785 588.829 100.384 588.952 100.097 589.198C99.8096 589.444 99.666 589.798 99.666 590.258ZM100.281 583.907C100.281 584.431 100.429 584.828 100.726 585.097C101.022 585.366 101.434 585.5 101.963 585.5C103.07 585.5 103.624 584.962 103.624 583.887C103.624 582.761 103.063 582.198 101.942 582.198C101.409 582.198 100.999 582.342 100.712 582.629C100.425 582.916 100.281 583.342 100.281 583.907ZM113.646 585.247C113.646 586.468 113.338 587.423 112.723 588.111C112.107 588.795 111.257 589.137 110.173 589.137C109.503 589.137 108.908 588.979 108.389 588.665C107.869 588.351 107.468 587.899 107.186 587.312C106.903 586.724 106.762 586.035 106.762 585.247C106.762 584.026 107.067 583.076 107.678 582.396C108.288 581.713 109.136 581.371 110.221 581.371C111.269 581.371 112.101 581.72 112.716 582.417C113.336 583.114 113.646 584.058 113.646 585.247ZM107.938 585.247C107.938 586.204 108.129 586.933 108.512 587.435C108.895 587.936 109.457 588.187 110.2 588.187C110.943 588.187 111.506 587.938 111.889 587.441C112.276 586.94 112.47 586.209 112.47 585.247C112.47 584.295 112.276 583.572 111.889 583.08C111.506 582.583 110.938 582.335 110.187 582.335C109.444 582.335 108.883 582.579 108.505 583.066C108.127 583.554 107.938 584.281 107.938 585.247ZM118.062 588.2C118.262 588.2 118.456 588.187 118.643 588.159C118.829 588.127 118.978 588.095 119.087 588.063V588.932C118.964 588.991 118.782 589.039 118.54 589.075C118.303 589.116 118.089 589.137 117.897 589.137C116.448 589.137 115.724 588.373 115.724 586.847V582.39H114.65V581.843L115.724 581.371L116.202 579.771H116.858V581.508H119.032V582.39H116.858V586.799C116.858 587.25 116.965 587.596 117.18 587.838C117.394 588.079 117.688 588.2 118.062 588.2ZM123.011 588.2C123.211 588.2 123.405 588.187 123.592 588.159C123.779 588.127 123.927 588.095 124.036 588.063V588.932C123.913 588.991 123.731 589.039 123.489 589.075C123.252 589.116 123.038 589.137 122.847 589.137C121.397 589.137 120.673 588.373 120.673 586.847V582.39H119.6V581.843L120.673 581.371L121.151 579.771H121.808V581.508H123.981V582.39H121.808V586.799C121.808 587.25 121.915 587.596 122.129 587.838C122.343 588.079 122.637 588.2 123.011 588.2ZM128.705 589.137C127.598 589.137 126.723 588.799 126.08 588.125C125.442 587.451 125.123 586.514 125.123 585.315C125.123 584.108 125.419 583.148 126.012 582.438C126.609 581.727 127.409 581.371 128.411 581.371C129.35 581.371 130.093 581.681 130.64 582.301C131.187 582.916 131.46 583.729 131.46 584.741V585.459H126.299C126.322 586.339 126.543 587.006 126.962 587.462C127.386 587.918 127.98 588.146 128.746 588.146C129.553 588.146 130.35 587.977 131.139 587.64V588.651C130.738 588.825 130.357 588.948 129.997 589.021C129.642 589.098 129.211 589.137 128.705 589.137ZM128.397 582.321C127.796 582.321 127.315 582.517 126.955 582.909C126.6 583.301 126.39 583.843 126.326 584.536H130.243C130.243 583.821 130.084 583.274 129.765 582.896C129.446 582.513 128.99 582.321 128.397 582.321ZM138.528 589V584.153C138.528 583.543 138.389 583.087 138.111 582.786C137.833 582.485 137.398 582.335 136.806 582.335C136.022 582.335 135.448 582.547 135.083 582.971C134.718 583.395 134.536 584.094 134.536 585.069V589H133.401V581.508H134.324L134.509 582.533H134.563C134.796 582.164 135.122 581.879 135.541 581.679C135.96 581.474 136.427 581.371 136.942 581.371C137.845 581.371 138.524 581.59 138.979 582.027C139.435 582.46 139.663 583.155 139.663 584.112V589H138.528ZM144.448 581.508H145.665L147.306 585.78C147.666 586.756 147.889 587.46 147.976 587.893H148.03C148.09 587.66 148.213 587.264 148.399 586.703C148.591 586.138 149.211 584.406 150.259 581.508H151.476L148.256 590.039C147.937 590.882 147.563 591.479 147.135 591.83C146.711 592.186 146.189 592.363 145.569 592.363C145.223 592.363 144.881 592.325 144.544 592.247V591.338C144.795 591.393 145.075 591.42 145.385 591.42C146.164 591.42 146.72 590.982 147.053 590.107L147.47 589.041L144.448 581.508ZM159.159 585.247C159.159 586.468 158.852 587.423 158.236 588.111C157.621 588.795 156.771 589.137 155.687 589.137C155.017 589.137 154.422 588.979 153.902 588.665C153.383 588.351 152.982 587.899 152.699 587.312C152.417 586.724 152.275 586.035 152.275 585.247C152.275 584.026 152.581 583.076 153.191 582.396C153.802 581.713 154.65 581.371 155.734 581.371C156.783 581.371 157.614 581.72 158.229 582.417C158.849 583.114 159.159 584.058 159.159 585.247ZM153.451 585.247C153.451 586.204 153.643 586.933 154.025 587.435C154.408 587.936 154.971 588.187 155.714 588.187C156.457 588.187 157.02 587.938 157.402 587.441C157.79 586.94 157.983 586.209 157.983 585.247C157.983 584.295 157.79 583.572 157.402 583.08C157.02 582.583 156.452 582.335 155.7 582.335C154.957 582.335 154.397 582.579 154.019 583.066C153.64 583.554 153.451 584.281 153.451 585.247ZM162.222 581.508V586.368C162.222 586.979 162.361 587.435 162.639 587.735C162.917 588.036 163.352 588.187 163.944 588.187C164.728 588.187 165.3 587.972 165.66 587.544C166.025 587.116 166.207 586.416 166.207 585.445V581.508H167.342V589H166.405L166.241 587.995H166.18C165.947 588.364 165.624 588.647 165.209 588.843C164.799 589.039 164.329 589.137 163.801 589.137C162.889 589.137 162.206 588.92 161.75 588.487C161.299 588.054 161.073 587.362 161.073 586.409V581.508H162.222ZM173.173 581.371C173.506 581.371 173.804 581.398 174.068 581.453L173.911 582.506C173.601 582.438 173.328 582.403 173.091 582.403C172.485 582.403 171.965 582.649 171.532 583.142C171.104 583.634 170.89 584.247 170.89 584.98V589H169.755V581.508H170.691L170.821 582.896H170.876C171.154 582.408 171.489 582.032 171.881 581.768C172.273 581.503 172.703 581.371 173.173 581.371ZM182.593 589.137C182.105 589.137 181.659 589.048 181.253 588.87C180.852 588.688 180.515 588.41 180.241 588.036H180.159C180.214 588.474 180.241 588.888 180.241 589.28V592.363H179.106V581.508H180.029L180.187 582.533H180.241C180.533 582.123 180.872 581.827 181.26 581.645C181.647 581.462 182.091 581.371 182.593 581.371C183.586 581.371 184.352 581.711 184.89 582.39C185.432 583.069 185.703 584.021 185.703 585.247C185.703 586.478 185.427 587.435 184.876 588.118C184.329 588.797 183.568 589.137 182.593 589.137ZM182.429 582.335C181.663 582.335 181.109 582.547 180.768 582.971C180.426 583.395 180.25 584.069 180.241 584.994V585.247C180.241 586.3 180.417 587.054 180.768 587.51C181.118 587.961 181.681 588.187 182.456 588.187C183.103 588.187 183.609 587.924 183.974 587.4C184.343 586.876 184.527 586.154 184.527 585.233C184.527 584.299 184.343 583.584 183.974 583.087C183.609 582.586 183.094 582.335 182.429 582.335ZM192.3 589L192.074 587.934H192.02C191.646 588.403 191.272 588.722 190.898 588.891C190.529 589.055 190.067 589.137 189.511 589.137C188.768 589.137 188.185 588.945 187.761 588.562C187.341 588.18 187.132 587.635 187.132 586.929C187.132 585.416 188.342 584.623 190.762 584.55L192.033 584.509V584.044C192.033 583.456 191.906 583.023 191.65 582.745C191.4 582.463 190.996 582.321 190.44 582.321C189.816 582.321 189.11 582.513 188.321 582.896L187.973 582.027C188.342 581.827 188.745 581.67 189.183 581.556C189.625 581.442 190.067 581.385 190.509 581.385C191.402 581.385 192.063 581.583 192.491 581.979C192.924 582.376 193.141 583.012 193.141 583.887V589H192.3ZM189.736 588.2C190.443 588.2 190.996 588.007 191.397 587.619C191.803 587.232 192.006 586.689 192.006 585.992V585.315L190.871 585.363C189.969 585.395 189.317 585.536 188.916 585.787C188.52 586.033 188.321 586.418 188.321 586.942C188.321 587.353 188.444 587.665 188.69 587.879C188.941 588.093 189.29 588.2 189.736 588.2ZM200.318 586.956C200.318 587.653 200.059 588.191 199.539 588.569C199.02 588.948 198.29 589.137 197.352 589.137C196.358 589.137 195.583 588.979 195.027 588.665V587.612C195.387 587.795 195.772 587.938 196.183 588.043C196.597 588.148 196.996 588.2 197.379 588.2C197.971 588.2 198.427 588.107 198.746 587.92C199.065 587.729 199.225 587.439 199.225 587.052C199.225 586.76 199.097 586.512 198.842 586.307C198.591 586.097 198.099 585.851 197.365 585.568C196.668 585.309 196.171 585.083 195.875 584.892C195.583 584.696 195.365 584.475 195.219 584.229C195.077 583.982 195.007 583.688 195.007 583.347C195.007 582.736 195.255 582.255 195.752 581.904C196.249 581.549 196.93 581.371 197.796 581.371C198.603 581.371 199.391 581.535 200.161 581.863L199.758 582.786C199.006 582.476 198.325 582.321 197.714 582.321C197.176 582.321 196.771 582.406 196.497 582.574C196.224 582.743 196.087 582.975 196.087 583.271C196.087 583.472 196.137 583.643 196.237 583.784C196.342 583.925 196.508 584.06 196.736 584.188C196.964 584.315 197.402 584.5 198.049 584.741C198.938 585.065 199.537 585.391 199.847 585.719C200.161 586.047 200.318 586.459 200.318 586.956ZM207.004 586.956C207.004 587.653 206.744 588.191 206.225 588.569C205.705 588.948 204.976 589.137 204.037 589.137C203.044 589.137 202.269 588.979 201.713 588.665V587.612C202.073 587.795 202.458 587.938 202.868 588.043C203.283 588.148 203.682 588.2 204.064 588.2C204.657 588.2 205.113 588.107 205.432 587.92C205.751 587.729 205.91 587.439 205.91 587.052C205.91 586.76 205.783 586.512 205.527 586.307C205.277 586.097 204.785 585.851 204.051 585.568C203.354 585.309 202.857 585.083 202.561 584.892C202.269 584.696 202.05 584.475 201.904 584.229C201.763 583.982 201.692 583.688 201.692 583.347C201.692 582.736 201.941 582.255 202.438 581.904C202.934 581.549 203.616 581.371 204.481 581.371C205.288 581.371 206.076 581.535 206.847 581.863L206.443 582.786C205.691 582.476 205.01 582.321 204.399 582.321C203.862 582.321 203.456 582.406 203.183 582.574C202.909 582.743 202.772 582.975 202.772 583.271C202.772 583.472 202.823 583.643 202.923 583.784C203.028 583.925 203.194 584.06 203.422 584.188C203.65 584.315 204.087 584.5 204.734 584.741C205.623 585.065 206.222 585.391 206.532 585.719C206.847 586.047 207.004 586.459 207.004 586.956ZM214.975 589L213.601 584.604C213.514 584.336 213.352 583.725 213.115 582.772H213.061C212.878 583.57 212.719 584.185 212.582 584.618L211.167 589H209.854L207.811 581.508H209C209.483 583.39 209.85 584.823 210.101 585.808C210.356 586.792 210.502 587.455 210.538 587.797H210.593C210.643 587.537 210.723 587.202 210.832 586.792C210.946 586.377 211.044 586.049 211.126 585.808L212.5 581.508H213.73L215.07 585.808C215.326 586.591 215.499 587.25 215.59 587.783H215.645C215.663 587.619 215.711 587.366 215.788 587.024C215.87 586.683 216.346 584.844 217.217 581.508H218.393L216.321 589H214.975ZM226.22 585.247C226.22 586.468 225.912 587.423 225.297 588.111C224.682 588.795 223.832 589.137 222.747 589.137C222.077 589.137 221.482 588.979 220.963 588.665C220.443 588.351 220.042 587.899 219.76 587.312C219.477 586.724 219.336 586.035 219.336 585.247C219.336 584.026 219.641 583.076 220.252 582.396C220.863 581.713 221.71 581.371 222.795 581.371C223.843 581.371 224.675 581.72 225.29 582.417C225.91 583.114 226.22 584.058 226.22 585.247ZM220.512 585.247C220.512 586.204 220.703 586.933 221.086 587.435C221.469 587.936 222.032 588.187 222.774 588.187C223.517 588.187 224.08 587.938 224.463 587.441C224.85 586.94 225.044 586.209 225.044 585.247C225.044 584.295 224.85 583.572 224.463 583.08C224.08 582.583 223.513 582.335 222.761 582.335C222.018 582.335 221.457 582.579 221.079 583.066C220.701 583.554 220.512 584.281 220.512 585.247ZM231.634 581.371C231.966 581.371 232.265 581.398 232.529 581.453L232.372 582.506C232.062 582.438 231.789 582.403 231.552 582.403C230.946 582.403 230.426 582.649 229.993 583.142C229.565 583.634 229.351 584.247 229.351 584.98V589H228.216V581.508H229.152L229.282 582.896H229.337C229.615 582.408 229.95 582.032 230.342 581.768C230.734 581.503 231.164 581.371 231.634 581.371ZM239.03 587.995H238.969C238.445 588.756 237.661 589.137 236.617 589.137C235.637 589.137 234.874 588.802 234.327 588.132C233.785 587.462 233.514 586.509 233.514 585.274C233.514 584.039 233.787 583.08 234.334 582.396C234.881 581.713 235.642 581.371 236.617 581.371C237.633 581.371 238.413 581.74 238.955 582.479H239.044L238.996 581.938L238.969 581.412V578.363H240.104V589H239.181L239.03 587.995ZM236.761 588.187C237.535 588.187 238.096 587.977 238.442 587.558C238.793 587.134 238.969 586.452 238.969 585.514V585.274C238.969 584.213 238.791 583.456 238.436 583.005C238.085 582.549 237.522 582.321 236.747 582.321C236.082 582.321 235.571 582.581 235.216 583.101C234.865 583.616 234.689 584.345 234.689 585.288C234.689 586.245 234.865 586.967 235.216 587.455C235.567 587.943 236.082 588.187 236.761 588.187ZM243.289 586.245V585.876C243.289 585.343 243.371 584.905 243.535 584.563C243.699 584.217 244.005 583.853 244.451 583.47C245.071 582.946 245.461 582.551 245.62 582.287C245.784 582.023 245.866 581.704 245.866 581.33C245.866 580.865 245.716 580.507 245.415 580.257C245.119 580.002 244.69 579.874 244.13 579.874C243.77 579.874 243.419 579.917 243.077 580.004C242.735 580.086 242.343 580.239 241.901 580.462L241.498 579.539C242.359 579.088 243.259 578.862 244.198 578.862C245.069 578.862 245.745 579.076 246.229 579.505C246.712 579.933 246.953 580.537 246.953 581.316C246.953 581.649 246.908 581.943 246.816 582.198C246.73 582.449 246.6 582.688 246.427 582.916C246.254 583.139 245.88 583.502 245.306 584.003C244.845 584.395 244.54 584.721 244.39 584.98C244.244 585.24 244.171 585.587 244.171 586.02V586.245H243.289ZM242.954 588.275C242.954 587.656 243.228 587.346 243.774 587.346C244.039 587.346 244.242 587.425 244.383 587.585C244.529 587.744 244.602 587.975 244.602 588.275C244.602 588.567 244.529 588.795 244.383 588.959C244.237 589.118 244.034 589.198 243.774 589.198C243.537 589.198 243.341 589.128 243.187 588.986C243.032 588.84 242.954 588.604 242.954 588.275Z" fill="#676767"/>
<path d="M253.502 584.844V589H252.34V579.006H255.081C256.307 579.006 257.212 579.241 257.795 579.71C258.383 580.179 258.677 580.886 258.677 581.829C258.677 583.151 258.007 584.044 256.667 584.509L259.381 589H258.007L255.587 584.844H253.502ZM253.502 583.846H255.095C255.915 583.846 256.517 583.684 256.899 583.36C257.282 583.032 257.474 582.542 257.474 581.891C257.474 581.23 257.278 580.754 256.886 580.462C256.498 580.17 255.874 580.024 255.013 580.024H253.502V583.846ZM263.988 589.137C262.881 589.137 262.006 588.799 261.363 588.125C260.725 587.451 260.406 586.514 260.406 585.315C260.406 584.108 260.702 583.148 261.295 582.438C261.892 581.727 262.692 581.371 263.694 581.371C264.633 581.371 265.376 581.681 265.923 582.301C266.47 582.916 266.743 583.729 266.743 584.741V585.459H261.582C261.605 586.339 261.826 587.006 262.245 587.462C262.669 587.918 263.264 588.146 264.029 588.146C264.836 588.146 265.633 587.977 266.422 587.64V588.651C266.021 588.825 265.64 588.948 265.28 589.021C264.925 589.098 264.494 589.137 263.988 589.137ZM263.681 582.321C263.079 582.321 262.598 582.517 262.238 582.909C261.883 583.301 261.673 583.843 261.609 584.536H265.526C265.526 583.821 265.367 583.274 265.048 582.896C264.729 582.513 264.273 582.321 263.681 582.321ZM273.518 586.956C273.518 587.653 273.258 588.191 272.738 588.569C272.219 588.948 271.49 589.137 270.551 589.137C269.557 589.137 268.783 588.979 268.227 588.665V587.612C268.587 587.795 268.972 587.938 269.382 588.043C269.797 588.148 270.195 588.2 270.578 588.2C271.171 588.2 271.626 588.107 271.945 587.92C272.264 587.729 272.424 587.439 272.424 587.052C272.424 586.76 272.296 586.512 272.041 586.307C271.79 586.097 271.298 585.851 270.564 585.568C269.867 585.309 269.37 585.083 269.074 584.892C268.783 584.696 268.564 584.475 268.418 584.229C268.277 583.982 268.206 583.688 268.206 583.347C268.206 582.736 268.454 582.255 268.951 581.904C269.448 581.549 270.129 581.371 270.995 581.371C271.802 581.371 272.59 581.535 273.36 581.863L272.957 582.786C272.205 582.476 271.524 582.321 270.913 582.321C270.375 582.321 269.97 582.406 269.696 582.574C269.423 582.743 269.286 582.975 269.286 583.271C269.286 583.472 269.336 583.643 269.437 583.784C269.541 583.925 269.708 584.06 269.936 584.188C270.163 584.315 270.601 584.5 271.248 584.741C272.137 585.065 272.736 585.391 273.046 585.719C273.36 586.047 273.518 586.459 273.518 586.956ZM278.535 589.137C277.428 589.137 276.553 588.799 275.91 588.125C275.272 587.451 274.953 586.514 274.953 585.315C274.953 584.108 275.249 583.148 275.842 582.438C276.439 581.727 277.239 581.371 278.241 581.371C279.18 581.371 279.923 581.681 280.47 582.301C281.017 582.916 281.29 583.729 281.29 584.741V585.459H276.129C276.152 586.339 276.373 587.006 276.792 587.462C277.216 587.918 277.811 588.146 278.576 588.146C279.383 588.146 280.18 587.977 280.969 587.64V588.651C280.568 588.825 280.187 588.948 279.827 589.021C279.472 589.098 279.041 589.137 278.535 589.137ZM278.228 582.321C277.626 582.321 277.145 582.517 276.785 582.909C276.43 583.301 276.22 583.843 276.156 584.536H280.073C280.073 583.821 279.914 583.274 279.595 582.896C279.276 582.513 278.82 582.321 278.228 582.321ZM285.651 588.2C285.852 588.2 286.046 588.187 286.232 588.159C286.419 588.127 286.567 588.095 286.677 588.063V588.932C286.554 588.991 286.371 589.039 286.13 589.075C285.893 589.116 285.679 589.137 285.487 589.137C284.038 589.137 283.313 588.373 283.313 586.847V582.39H282.24V581.843L283.313 581.371L283.792 579.771H284.448V581.508H286.622V582.39H284.448V586.799C284.448 587.25 284.555 587.596 284.77 587.838C284.984 588.079 285.278 588.2 285.651 588.2ZM292.952 589H291.817V581.508H292.952V589ZM291.722 579.478C291.722 579.218 291.785 579.029 291.913 578.91C292.041 578.787 292.2 578.726 292.392 578.726C292.574 578.726 292.731 578.787 292.863 578.91C292.995 579.033 293.062 579.222 293.062 579.478C293.062 579.733 292.995 579.924 292.863 580.052C292.731 580.175 292.574 580.236 292.392 580.236C292.2 580.236 292.041 580.175 291.913 580.052C291.785 579.924 291.722 579.733 291.722 579.478ZM297.778 588.2C297.979 588.2 298.173 588.187 298.359 588.159C298.546 588.127 298.694 588.095 298.804 588.063V588.932C298.681 588.991 298.498 589.039 298.257 589.075C298.02 589.116 297.806 589.137 297.614 589.137C296.165 589.137 295.44 588.373 295.44 586.847V582.39H294.367V581.843L295.44 581.371L295.919 579.771H296.575V581.508H298.749V582.39H296.575V586.799C296.575 587.25 296.682 587.596 296.896 587.838C297.111 588.079 297.405 588.2 297.778 588.2Z" fill="url(#paint8_linear)"/>
<path d="M250.966 590.401H299.098V591.099H250.966V590.401Z" fill="url(#paint9_linear)"/>
</g>
</g>
<defs>
<filter id="filter0_d" x="-40" y="-40" width="535" height="224" filterUnits="userSpaceOnUse" color-interpolation-filters="sRGB">
<feFlood flood-opacity="0" result="BackgroundImageFix"/>
<feColorMatrix in="SourceAlpha" type="matrix" values="0 0 0 0 0 0 0 0 0 0 0 0 0 0 0 0 0 0 127 0"/>
<feOffset dx="40" dy="40"/>
<feGaussianBlur stdDeviation="40"/>
<feColorMatrix type="matrix" values="0 0 0 0 0 0 0 0 0 0 0 0 0 0 0 0 0 0 0.05 0"/>
<feBlend mode="normal" in2="BackgroundImageFix" result="effect1_dropShadow"/>
<feBlend mode="normal" in="SourceGraphic" in2="effect1_dropShadow" result="shape"/>
</filter>
<filter id="filter1_d" x="-40" y="-40" width="535" height="180" filterUnits="userSpaceOnUse" color-interpolation-filters="sRGB">
<feFlood flood-opacity="0" result="BackgroundImageFix"/>
<feColorMatrix in="SourceAlpha" type="matrix" values="0 0 0 0 0 0 0 0 0 0 0 0 0 0 0 0 0 0 127 0"/>
<feOffset dx="40" dy="40"/>
<feGaussianBlur stdDeviation="40"/>
<feColorMatrix type="matrix" values="0 0 0 0 0 0 0 0 0 0 0 0 0 0 0 0 0 0 0.05 0"/>
<feBlend mode="normal" in2="BackgroundImageFix" result="effect1_dropShadow"/>
<feBlend mode="normal" in="SourceGraphic" in2="effect1_dropShadow" result="shape"/>
</filter>
<filter id="filter2_d" x="121" y="64" width="215.431" height="179.98" filterUnits="userSpaceOnUse" color-interpolation-filters="sRGB">
<feFlood flood-opacity="0" result="BackgroundImageFix"/>
<feColorMatrix in="SourceAlpha" type="matrix" values="0 0 0 0 0 0 0 0 0 0 0 0 0 0 0 0 0 0 127 0"/>
<feOffset dx="40" dy="40"/>
<feGaussianBlur stdDeviation="40"/>
<feColorMatrix type="matrix" values="0 0 0 0 0 0 0 0 0 0 0 0 0 0 0 0 0 0 0.05 0"/>
<feBlend mode="normal" in2="BackgroundImageFix" result="effect1_dropShadow"/>
<feBlend mode="normal" in="SourceGraphic" in2="effect1_dropShadow" result="shape"/>
</filter>
<filter id="filter3_d" x="55.2207" y="120.104" width="343.784" height="177.514" filterUnits="userSpaceOnUse" color-interpolation-filters="sRGB">
<feFlood flood-opacity="0" result="BackgroundImageFix"/>
<feColorMatrix in="SourceAlpha" type="matrix" values="0 0 0 0 0 0 0 0 0 0 0 0 0 0 0 0 0 0 127 0"/>
<feOffset dx="40" dy="40"/>
<feGaussianBlur stdDeviation="40"/>
<feColorMatrix type="matrix" values="0 0 0 0 0 0 0 0 0 0 0 0 0 0 0 0 0 0 0.05 0"/>
<feBlend mode="normal" in2="BackgroundImageFix" result="effect1_dropShadow"/>
<feBlend mode="normal" in="SourceGraphic" in2="effect1_dropShadow" result="shape"/>
</filter>
<filter id="filter4_d" x="-18" y="183.883" width="488" height="217.117" filterUnits="userSpaceOnUse" color-interpolation-filters="sRGB">
<feFlood flood-opacity="0" result="BackgroundImageFix"/>
<feColorMatrix in="SourceAlpha" type="matrix" values="0 0 0 0 0 0 0 0 0 0 0 0 0 0 0 0 0 0 127 0"/>
<feOffset dx="40" dy="40"/>
<feGaussianBlur stdDeviation="40"/>
<feColorMatrix type="matrix" values="0 0 0 0 0 0 0 0 0 0 0 0 0 0 0 0 0 0 0.05 0"/>
<feBlend mode="normal" in2="BackgroundImageFix" result="effect1_dropShadow"/>
<feBlend mode="normal" in="SourceGraphic" in2="effect1_dropShadow" result="shape"/>
</filter>
<filter id="filter5_d" x="-17" y="264.883" width="488" height="216.117" filterUnits="userSpaceOnUse" color-interpolation-filters="sRGB">
<feFlood flood-opacity="0" result="BackgroundImageFix"/>
<feColorMatrix in="SourceAlpha" type="matrix" values="0 0 0 0 0 0 0 0 0 0 0 0 0 0 0 0 0 0 127 0"/>
<feOffset dx="40" dy="40"/>
<feGaussianBlur stdDeviation="40"/>
<feColorMatrix type="matrix" values="0 0 0 0 0 0 0 0 0 0 0 0 0 0 0 0 0 0 0.05 0"/>
<feBlend mode="normal" in2="BackgroundImageFix" result="effect1_dropShadow"/>
<feBlend mode="normal" in="SourceGraphic" in2="effect1_dropShadow" result="shape"/>
</filter>
<filter id="filter6_d" x="-16.7754" y="357" width="492.776" height="202.025" filterUnits="userSpaceOnUse" color-interpolation-filters="sRGB">
<feFlood flood-opacity="0" result="BackgroundImageFix"/>
<feColorMatrix in="SourceAlpha" type="matrix" values="0 0 0 0 0 0 0 0 0 0 0 0 0 0 0 0 0 0 127 0"/>
<feOffset dx="40" dy="40"/>
<feGaussianBlur stdDeviation="40"/>
<feColorMatrix type="matrix" values="0 0 0 0 0 0 0 0 0 0 0 0 0 0 0 0 0 0 0.05 0"/>
<feBlend mode="normal" in2="BackgroundImageFix" result="effect1_dropShadow"/>
<feBlend mode="normal" in="SourceGraphic" in2="effect1_dropShadow" result="shape"/>
</filter>
<filter id="filter7_d" x="140.697" y="422.371" width="173.193" height="167.766" filterUnits="userSpaceOnUse" color-interpolation-filters="sRGB">
<feFlood flood-opacity="0" result="BackgroundImageFix"/>
<feColorMatrix in="SourceAlpha" type="matrix" values="0 0 0 0 0 0 0 0 0 0 0 0 0 0 0 0 0 0 127 0"/>
<feOffset dx="40" dy="40"/>
<feGaussianBlur stdDeviation="40"/>
<feColorMatrix type="matrix" values="0 0 0 0 0 0 0 0 0 0 0 0 0 0 0 0 0 0 0.05 0"/>
<feBlend mode="normal" in2="BackgroundImageFix" result="effect1_dropShadow"/>
<feBlend mode="normal" in="SourceGraphic" in2="effect1_dropShadow" result="shape"/>
</filter>
<filter id="filter8_d" x="-16" y="450" width="488" height="201" filterUnits="userSpaceOnUse" color-interpolation-filters="sRGB">
<feFlood flood-opacity="0" result="BackgroundImageFix"/>
<feColorMatrix in="SourceAlpha" type="matrix" values="0 0 0 0 0 0 0 0 0 0 0 0 0 0 0 0 0 0 127 0"/>
<feOffset dx="40" dy="40"/>
<feGaussianBlur stdDeviation="40"/>
<feColorMatrix type="matrix" values="0 0 0 0 0 0 0 0 0 0 0 0 0 0 0 0 0 0 0.05 0"/>
<feBlend mode="normal" in2="BackgroundImageFix" result="effect1_dropShadow"/>
<feBlend mode="normal" in="SourceGraphic" in2="effect1_dropShadow" result="shape"/>
</filter>
<filter id="filter9_d" x="38.2695" y="538.363" width="380.828" height="174" filterUnits="userSpaceOnUse" color-interpolation-filters="sRGB">
<feFlood flood-opacity="0" result="BackgroundImageFix"/>
<feColorMatrix in="SourceAlpha" type="matrix" values="0 0 0 0 0 0 0 0 0 0 0 0 0 0 0 0 0 0 127 0"/>
<feOffset dx="40" dy="40"/>
<feGaussianBlur stdDeviation="40"/>
<feColorMatrix type="matrix" values="0 0 0 0 0 0 0 0 0 0 0 0 0 0 0 0 0 0 0.05 0"/>
<feBlend mode="normal" in2="BackgroundImageFix" result="effect1_dropShadow"/>
<feBlend mode="normal" in="SourceGraphic" in2="effect1_dropShadow" result="shape"/>
</filter>
<linearGradient id="paint0_linear" x1="189.057" y1="104" x2="189.057" y2="133.903" gradientUnits="userSpaceOnUse">
<stop stop-color="#3862F0"/>
<stop offset="1" stop-color="#240DB7"/>
</linearGradient>
<linearGradient id="paint1_linear" x1="189.057" y1="104" x2="189.057" y2="133.903" gradientUnits="userSpaceOnUse">
<stop stop-color="#3862F0"/>
<stop offset="1" stop-color="#240DB7"/>
</linearGradient>
<linearGradient id="paint2_linear" x1="189.057" y1="104" x2="189.057" y2="133.903" gradientUnits="userSpaceOnUse">
<stop stop-color="#3862F0"/>
<stop offset="1" stop-color="#240DB7"/>
</linearGradient>
<linearGradient id="paint3_linear" x1="189.057" y1="104" x2="189.057" y2="133.903" gradientUnits="userSpaceOnUse">
<stop stop-color="#3862F0"/>
<stop offset="1" stop-color="#240DB7"/>
</linearGradient>
<linearGradient id="paint4_linear" x1="161.539" y1="122.15" x2="166.199" y2="122.216" gradientUnits="userSpaceOnUse">
<stop stop-color="#FF7B31"/>
<stop offset="1" stop-color="#FF4949"/>
</linearGradient>
<linearGradient id="paint5_linear" x1="189.612" y1="397" x2="189.612" y2="439.025" gradientUnits="userSpaceOnUse">
<stop stop-color="#FF4949"/>
<stop offset="1" stop-color="#EF5C4A"/>
</linearGradient>
<linearGradient id="paint6_linear" x1="188.982" y1="490" x2="188.982" y2="552" gradientUnits="userSpaceOnUse">
<stop stop-color="#3862F0"/>
<stop offset="1" stop-color="#240DB7"/>
</linearGradient>
<linearGradient id="paint7_linear" x1="53.0778" y1="498" x2="53.0778" y2="538.3" gradientUnits="userSpaceOnUse">
<stop stop-color="#3862F0"/>
<stop offset="1" stop-color="#240DB7"/>
</linearGradient>
<linearGradient id="paint8_linear" x1="68.2226" y1="584.393" x2="432.309" y2="665.53" gradientUnits="userSpaceOnUse">
<stop stop-color="#FF7B31"/>
<stop offset="1" stop-color="#FF4949"/>
</linearGradient>
<linearGradient id="paint9_linear" x1="68.2226" y1="584.393" x2="432.309" y2="665.53" gradientUnits="userSpaceOnUse">
<stop stop-color="#FF7B31"/>
<stop offset="1" stop-color="#FF4949"/>
</linearGradient>
<clipPath id="clip0">
<rect width="375" height="812" fill="white"/>
</clipPath>
<clipPath id="clip1">
<rect x="45.5723" y="503.571" width="16.7143" height="16.7143" fill="white"/>
</clipPath>
</defs>
</svg>
