<svg width="375" height="812" viewBox="0 0 375 812" fill="none" xmlns="http://www.w3.org/2000/svg">
<g clip-path="url(#clip0)">
<rect width="375" height="812" fill="white"/>
<g filter="url(#filter0_d)">
<rect width="375" height="812" fill="url(#paint0_linear)"/>
<path d="M52 556C52 520 16 548 -22 482L-46 678C-18 674.667 38 663.6 38 646C38 624 52 592 52 556Z" fill="#EEBC3F"/>
<path d="M35.1249 581.352C2.46938 596.506 43.0213 617.375 -0.852117 679.626L187.041 618.895C172.232 594.9 138.621 548.761 122.657 556.169C102.7 565.429 67.7804 566.199 35.1249 581.352Z" fill="url(#paint1_linear)"/>
<path d="M286 515C253.344 530.153 275.021 570.375 231.148 632.626L419.041 571.895C404.232 547.9 370.621 501.761 354.657 509.169C334.7 518.429 318.655 499.847 286 515Z" fill="url(#paint2_linear)"/>
<path d="M301.319 557.207C284.137 588.842 329.136 581.42 331.027 657.554L445.665 496.774C419.469 486.339 364.978 469.336 356.577 484.802C346.077 504.134 318.501 525.572 301.319 557.207Z" fill="#EEBC3F"/>
<path d="M-37.0007 558C-77.0007 571 -37.0007 625 52.9993 681C52.9993 668.333 61.5993 658.6 75.9993 625C93.9993 583 109.999 637 120.999 596C131.999 555 111.999 539 61.9993 519C11.9993 499 2.99932 545 -37.0007 558Z" stroke="#EFC03E"/>
<path d="M282.999 558C263.799 577.2 256.999 580 293.999 601C301.333 602.667 376.999 600 392.999 596C412.999 591 367.999 535 374.999 487C381.999 439 353.999 465 324.999 463C295.999 461 306.999 534 282.999 558Z" stroke="#EFC03E"/>
<path d="M-56.6261 596.34C-56.8405 595.06 -56.9622 593.809 -57 592.601L-56.6261 596.34C-53.0596 617.63 -23.8284 646.823 72.0406 617.006C199.081 577.493 375.136 508.928 386.14 547.278C394.942 577.958 389.807 749.876 386.14 832L-33.9928 822.703L-56.6261 596.34Z" fill="#FCF7F2"/>
</g>
<g filter="url(#filter1_d)">
<path d="M68.0025 376.8H69.8265L75.8265 384.544V376.8H77.7625V388H76.1145L69.9385 380.032V388H68.0025V376.8ZM84.4351 388.192C83.7951 388.192 83.1978 388.08 82.6431 387.856C82.0991 387.621 81.6245 387.307 81.2191 386.912C80.8245 386.517 80.5151 386.053 80.2911 385.52C80.0671 384.987 79.9551 384.421 79.9551 383.824V383.792C79.9551 383.184 80.0671 382.613 80.2911 382.08C80.5258 381.547 80.8405 381.083 81.2351 380.688C81.6405 380.283 82.1151 379.963 82.6591 379.728C83.2138 379.493 83.8165 379.376 84.4671 379.376C85.1178 379.376 85.7151 379.493 86.2591 379.728C86.8138 379.952 87.2885 380.267 87.6831 380.672C88.0885 381.067 88.4031 381.531 88.6271 382.064C88.8511 382.587 88.9631 383.152 88.9631 383.76V383.792C88.9631 384.389 88.8458 384.955 88.6111 385.488C88.3871 386.021 88.0725 386.491 87.6671 386.896C87.2725 387.291 86.7978 387.605 86.2431 387.84C85.6885 388.075 85.0858 388.192 84.4351 388.192ZM84.4671 386.496C84.8618 386.496 85.2138 386.427 85.5231 386.288C85.8431 386.139 86.1151 385.947 86.3391 385.712C86.5631 385.467 86.7338 385.184 86.8511 384.864C86.9685 384.533 87.0271 384.187 87.0271 383.824V383.792C87.0271 383.419 86.9631 383.067 86.8351 382.736C86.7071 382.405 86.5258 382.117 86.2911 381.872C86.0671 381.627 85.7951 381.435 85.4751 381.296C85.1658 381.147 84.8191 381.072 84.4351 381.072C84.0511 381.072 83.6991 381.147 83.3791 381.296C83.0698 381.435 82.8031 381.627 82.5791 381.872C82.3551 382.107 82.1845 382.389 82.0671 382.72C81.9498 383.051 81.8911 383.397 81.8911 383.76V383.792C81.8911 384.165 81.9551 384.517 82.0831 384.848C82.2111 385.168 82.3871 385.451 82.6111 385.696C82.8458 385.941 83.1178 386.139 83.4271 386.288C83.7471 386.427 84.0938 386.496 84.4671 386.496ZM93.7668 388.144C93.4148 388.144 93.0894 388.101 92.7908 388.016C92.4921 387.931 92.2308 387.792 92.0068 387.6C91.7934 387.408 91.6281 387.157 91.5108 386.848C91.3934 386.528 91.3348 386.133 91.3348 385.664V381.216H90.2628V379.552H91.3348V377.232H93.2708V379.552H95.5428V381.216H93.2708V385.36C93.2708 385.733 93.3614 386.005 93.5428 386.176C93.7241 386.336 93.9801 386.416 94.3108 386.416C94.7268 386.416 95.1268 386.32 95.5108 386.128V387.712C95.2654 387.851 95.0041 387.957 94.7268 388.032C94.4601 388.107 94.1401 388.144 93.7668 388.144ZM101.151 388.192C100.543 388.192 99.9718 388.085 99.4385 387.872C98.9158 387.659 98.4572 387.36 98.0625 386.976C97.6785 386.592 97.3745 386.133 97.1505 385.6C96.9265 385.056 96.8145 384.459 96.8145 383.808V383.776C96.8145 383.168 96.9158 382.597 97.1185 382.064C97.3212 381.531 97.6038 381.067 97.9665 380.672C98.3398 380.267 98.7772 379.952 99.2785 379.728C99.7798 379.493 100.335 379.376 100.943 379.376C101.615 379.376 102.201 379.499 102.703 379.744C103.215 379.989 103.636 380.32 103.967 380.736C104.308 381.152 104.564 381.637 104.735 382.192C104.905 382.736 104.991 383.312 104.991 383.92C104.991 384.005 104.985 384.096 104.975 384.192C104.975 384.277 104.969 384.368 104.959 384.464H98.7505C98.8572 385.157 99.1292 385.691 99.5665 386.064C100.015 386.427 100.553 386.608 101.183 386.608C101.663 386.608 102.079 386.523 102.431 386.352C102.783 386.181 103.129 385.931 103.471 385.6L104.607 386.608C104.201 387.088 103.716 387.472 103.151 387.76C102.596 388.048 101.929 388.192 101.151 388.192ZM103.071 383.184C103.039 382.875 102.969 382.587 102.863 382.32C102.756 382.043 102.612 381.808 102.431 381.616C102.249 381.413 102.031 381.253 101.775 381.136C101.529 381.019 101.247 380.96 100.927 380.96C100.329 380.96 99.8332 381.168 99.4385 381.584C99.0545 381.989 98.8198 382.523 98.7345 383.184H103.071ZM114.564 388.144C114.212 388.144 113.886 388.101 113.588 388.016C113.289 387.931 113.028 387.792 112.804 387.6C112.59 387.408 112.425 387.157 112.308 386.848C112.19 386.528 112.132 386.133 112.132 385.664V381.216H111.06V379.552H112.132V377.232H114.068V379.552H116.34V381.216H114.068V385.36C114.068 385.733 114.158 386.005 114.34 386.176C114.521 386.336 114.777 386.416 115.108 386.416C115.524 386.416 115.924 386.32 116.308 386.128V387.712C116.062 387.851 115.801 387.957 115.524 388.032C115.257 388.107 114.937 388.144 114.564 388.144ZM120.742 388.176C120.347 388.176 119.968 388.117 119.606 388C119.243 387.893 118.923 387.733 118.646 387.52C118.379 387.296 118.16 387.024 117.99 386.704C117.83 386.373 117.75 385.995 117.75 385.568V385.536C117.75 385.077 117.835 384.677 118.006 384.336C118.176 383.995 118.411 383.712 118.71 383.488C119.019 383.264 119.387 383.099 119.814 382.992C120.251 382.875 120.726 382.816 121.238 382.816C121.718 382.816 122.134 382.848 122.486 382.912C122.838 382.976 123.179 383.061 123.51 383.168V382.96C123.51 382.352 123.328 381.893 122.966 381.584C122.614 381.275 122.096 381.12 121.414 381.12C120.934 381.12 120.507 381.168 120.134 381.264C119.76 381.36 119.382 381.488 118.998 381.648L118.486 380.128C118.955 379.915 119.435 379.749 119.926 379.632C120.416 379.504 120.998 379.44 121.67 379.44C122.928 379.44 123.862 379.755 124.47 380.384C124.779 380.693 125.008 381.067 125.158 381.504C125.307 381.941 125.382 382.437 125.382 382.992V388H123.494V386.944C123.206 387.285 122.838 387.579 122.39 387.824C121.942 388.059 121.392 388.176 120.742 388.176ZM121.286 386.768C121.606 386.768 121.904 386.725 122.182 386.64C122.459 386.555 122.694 386.432 122.886 386.272C123.088 386.112 123.248 385.92 123.366 385.696C123.483 385.472 123.542 385.227 123.542 384.96V384.384C123.296 384.288 123.008 384.208 122.678 384.144C122.358 384.08 122.006 384.048 121.622 384.048C120.992 384.048 120.502 384.171 120.15 384.416C119.808 384.661 119.638 385.008 119.638 385.456V385.488C119.638 385.893 119.792 386.208 120.102 386.432C120.422 386.656 120.816 386.768 121.286 386.768ZM127.7 376.32H129.636V383.296L133.14 379.552H135.492L132.132 382.992L135.604 388H133.332L130.836 384.336L129.636 385.584V388H127.7V376.32ZM137.045 376.416H139.125V378.256H137.045V376.416ZM137.125 379.552H139.061V388H137.125V379.552ZM141.591 379.552H143.527V380.848C143.666 380.656 143.815 380.469 143.975 380.288C144.146 380.107 144.338 379.952 144.551 379.824C144.775 379.685 145.015 379.579 145.271 379.504C145.538 379.419 145.836 379.376 146.167 379.376C147.127 379.376 147.868 379.669 148.391 380.256C148.914 380.843 149.175 381.627 149.175 382.608V388H147.239V383.2C147.239 382.539 147.079 382.032 146.759 381.68C146.45 381.317 146.007 381.136 145.431 381.136C144.866 381.136 144.407 381.323 144.055 381.696C143.703 382.059 143.527 382.571 143.527 383.232V388H141.591V379.552ZM155.273 390.592C153.865 390.592 152.606 390.256 151.497 389.584L152.217 388.128C152.676 388.405 153.145 388.624 153.625 388.784C154.116 388.944 154.649 389.024 155.225 389.024C156.089 389.024 156.75 388.805 157.209 388.368C157.668 387.931 157.897 387.285 157.897 386.432V385.776C157.545 386.235 157.134 386.608 156.665 386.896C156.196 387.184 155.614 387.328 154.921 387.328C154.42 387.328 153.94 387.237 153.481 387.056C153.022 386.875 152.612 386.619 152.249 386.288C151.897 385.947 151.614 385.531 151.401 385.04C151.188 384.549 151.081 383.995 151.081 383.376V383.344C151.081 382.725 151.188 382.171 151.401 381.68C151.614 381.179 151.897 380.763 152.249 380.432C152.612 380.091 153.022 379.829 153.481 379.648C153.95 379.467 154.43 379.376 154.921 379.376C155.636 379.376 156.222 379.52 156.681 379.808C157.15 380.085 157.55 380.421 157.881 380.816V379.552H159.817V386.272C159.817 387.68 159.46 388.741 158.745 389.456C158.361 389.84 157.876 390.123 157.289 390.304C156.713 390.496 156.041 390.592 155.273 390.592ZM155.433 385.68C155.764 385.68 156.078 385.627 156.377 385.52C156.686 385.403 156.953 385.243 157.177 385.04C157.401 384.837 157.577 384.592 157.705 384.304C157.844 384.016 157.913 383.701 157.913 383.36V383.328C157.913 382.987 157.844 382.672 157.705 382.384C157.577 382.096 157.401 381.851 157.177 381.648C156.953 381.445 156.686 381.291 156.377 381.184C156.078 381.067 155.764 381.008 155.433 381.008C155.092 381.008 154.777 381.067 154.489 381.184C154.201 381.291 153.945 381.445 153.721 381.648C153.508 381.851 153.337 382.096 153.209 382.384C153.092 382.661 153.033 382.976 153.033 383.328V383.36C153.033 383.701 153.097 384.016 153.225 384.304C153.353 384.592 153.524 384.837 153.737 385.04C153.95 385.243 154.201 385.403 154.489 385.52C154.788 385.627 155.102 385.68 155.433 385.68ZM167.476 381.216H166.404V379.6H167.476V378.976C167.476 378.048 167.705 377.355 168.164 376.896C168.612 376.448 169.247 376.224 170.068 376.224C170.409 376.224 170.703 376.245 170.948 376.288C171.193 376.331 171.423 376.384 171.636 376.448V378.08C171.444 378.016 171.257 377.968 171.076 377.936C170.905 377.893 170.713 377.872 170.5 377.872C169.753 377.872 169.38 378.299 169.38 379.152V379.616H171.62V381.216H169.412V388H167.476V381.216ZM176.92 388.192C176.28 388.192 175.682 388.08 175.128 387.856C174.584 387.621 174.109 387.307 173.704 386.912C173.309 386.517 173 386.053 172.776 385.52C172.552 384.987 172.44 384.421 172.44 383.824V383.792C172.44 383.184 172.552 382.613 172.776 382.08C173.01 381.547 173.325 381.083 173.72 380.688C174.125 380.283 174.6 379.963 175.144 379.728C175.698 379.493 176.301 379.376 176.952 379.376C177.602 379.376 178.2 379.493 178.744 379.728C179.298 379.952 179.773 380.267 180.168 380.672C180.573 381.067 180.888 381.531 181.112 382.064C181.336 382.587 181.448 383.152 181.448 383.76V383.792C181.448 384.389 181.33 384.955 181.095 385.488C180.872 386.021 180.557 386.491 180.152 386.896C179.757 387.291 179.282 387.605 178.728 387.84C178.173 388.075 177.57 388.192 176.92 388.192ZM176.952 386.496C177.346 386.496 177.698 386.427 178.008 386.288C178.328 386.139 178.6 385.947 178.824 385.712C179.048 385.467 179.218 385.184 179.336 384.864C179.453 384.533 179.512 384.187 179.512 383.824V383.792C179.512 383.419 179.448 383.067 179.32 382.736C179.192 382.405 179.01 382.117 178.776 381.872C178.552 381.627 178.28 381.435 177.96 381.296C177.65 381.147 177.304 381.072 176.92 381.072C176.536 381.072 176.184 381.147 175.864 381.296C175.554 381.435 175.288 381.627 175.064 381.872C174.84 382.107 174.669 382.389 174.552 382.72C174.434 383.051 174.376 383.397 174.376 383.76V383.792C174.376 384.165 174.44 384.517 174.568 384.848C174.696 385.168 174.872 385.451 175.096 385.696C175.33 385.941 175.602 386.139 175.911 386.288C176.231 386.427 176.578 386.496 176.952 386.496ZM183.419 379.552H185.355V381.456C185.622 380.816 186 380.304 186.491 379.92C186.982 379.536 187.6 379.36 188.347 379.392V381.44H188.235C187.808 381.44 187.419 381.509 187.067 381.648C186.715 381.787 186.411 381.995 186.155 382.272C185.899 382.549 185.702 382.901 185.563 383.328C185.424 383.744 185.355 384.229 185.355 384.784V388H183.419V379.552ZM193.869 379.552H195.949L198.221 385.76L200.509 379.552H202.541L199.085 388.064H197.341L193.869 379.552ZM204.217 376.416H206.297V378.256H204.217V376.416ZM204.297 379.552H206.233V388H204.297V379.552ZM211.659 388.16C211.051 388.16 210.432 388.053 209.803 387.84C209.184 387.627 208.608 387.312 208.075 386.896L208.939 385.584C209.408 385.925 209.878 386.187 210.347 386.368C210.816 386.539 211.27 386.624 211.707 386.624C212.123 386.624 212.443 386.544 212.667 386.384C212.902 386.213 213.019 385.989 213.019 385.712V385.68C213.019 385.52 212.966 385.381 212.859 385.264C212.763 385.147 212.624 385.045 212.443 384.96C212.272 384.875 212.07 384.795 211.835 384.72C211.611 384.645 211.376 384.571 211.131 384.496C210.822 384.411 210.507 384.309 210.187 384.192C209.878 384.075 209.595 383.925 209.339 383.744C209.094 383.552 208.891 383.317 208.731 383.04C208.571 382.763 208.491 382.421 208.491 382.016V381.984C208.491 381.589 208.566 381.232 208.715 380.912C208.875 380.592 209.088 380.32 209.355 380.096C209.632 379.872 209.952 379.701 210.315 379.584C210.688 379.467 211.083 379.408 211.499 379.408C212.032 379.408 212.571 379.493 213.115 379.664C213.659 379.835 214.155 380.069 214.603 380.368L213.835 381.744C213.43 381.499 213.019 381.307 212.603 381.168C212.187 381.019 211.803 380.944 211.451 380.944C211.078 380.944 210.784 381.024 210.571 381.184C210.368 381.333 210.267 381.531 210.267 381.776V381.808C210.267 381.968 210.32 382.107 210.427 382.224C210.534 382.331 210.672 382.432 210.843 382.528C211.024 382.613 211.227 382.699 211.451 382.784C211.686 382.859 211.926 382.933 212.171 383.008C212.48 383.104 212.79 383.216 213.099 383.344C213.408 383.472 213.686 383.632 213.931 383.824C214.187 384.005 214.395 384.229 214.555 384.496C214.715 384.763 214.795 385.088 214.795 385.472V385.504C214.795 385.952 214.715 386.341 214.555 386.672C214.395 387.003 214.171 387.28 213.883 387.504C213.606 387.717 213.275 387.883 212.891 388C212.507 388.107 212.096 388.16 211.659 388.16ZM219.691 388.176C218.731 388.176 217.989 387.883 217.467 387.296C216.944 386.709 216.683 385.92 216.683 384.928V379.552H218.619V384.352C218.619 385.013 218.773 385.52 219.083 385.872C219.403 386.224 219.851 386.4 220.427 386.4C220.992 386.4 221.451 386.219 221.803 385.856C222.155 385.493 222.331 384.981 222.331 384.32V379.552H224.283V388H222.331V386.688C222.053 387.093 221.707 387.445 221.291 387.744C220.875 388.032 220.341 388.176 219.691 388.176ZM229.132 388.176C228.738 388.176 228.359 388.117 227.996 388C227.634 387.893 227.314 387.733 227.036 387.52C226.77 387.296 226.551 387.024 226.38 386.704C226.22 386.373 226.14 385.995 226.14 385.568V385.536C226.14 385.077 226.226 384.677 226.396 384.336C226.567 383.995 226.802 383.712 227.1 383.488C227.41 383.264 227.778 383.099 228.204 382.992C228.642 382.875 229.116 382.816 229.628 382.816C230.108 382.816 230.524 382.848 230.876 382.912C231.228 382.976 231.57 383.061 231.9 383.168V382.96C231.9 382.352 231.719 381.893 231.356 381.584C231.004 381.275 230.487 381.12 229.804 381.12C229.324 381.12 228.898 381.168 228.524 381.264C228.151 381.36 227.772 381.488 227.388 381.648L226.876 380.128C227.346 379.915 227.826 379.749 228.316 379.632C228.807 379.504 229.388 379.44 230.06 379.44C231.319 379.44 232.252 379.755 232.86 380.384C233.17 380.693 233.399 381.067 233.548 381.504C233.698 381.941 233.772 382.437 233.772 382.992V388H231.884V386.944C231.596 387.285 231.228 387.579 230.78 387.824C230.332 388.059 229.783 388.176 229.132 388.176ZM229.676 386.768C229.996 386.768 230.295 386.725 230.572 386.64C230.85 386.555 231.084 386.432 231.276 386.272C231.479 386.112 231.639 385.92 231.756 385.696C231.874 385.472 231.932 385.227 231.932 384.96V384.384C231.687 384.288 231.399 384.208 231.068 384.144C230.748 384.08 230.396 384.048 230.012 384.048C229.383 384.048 228.892 384.171 228.54 384.416C228.199 384.661 228.028 385.008 228.028 385.456V385.488C228.028 385.893 228.183 386.208 228.492 386.432C228.812 386.656 229.207 386.768 229.676 386.768ZM236.203 376.32H238.139V388H236.203V376.32ZM248.298 388.144C247.946 388.144 247.621 388.101 247.322 388.016C247.023 387.931 246.762 387.792 246.538 387.6C246.325 387.408 246.159 387.157 246.042 386.848C245.925 386.528 245.866 386.133 245.866 385.664V381.216H244.794V379.552H245.866V377.232H247.802V379.552H250.074V381.216H247.802V385.36C247.802 385.733 247.893 386.005 248.074 386.176C248.255 386.336 248.511 386.416 248.842 386.416C249.258 386.416 249.658 386.32 250.042 386.128V387.712C249.797 387.851 249.535 387.957 249.258 388.032C248.991 388.107 248.671 388.144 248.298 388.144ZM252.044 376.32H253.98V380.848C254.119 380.656 254.268 380.469 254.428 380.288C254.599 380.107 254.791 379.952 255.004 379.824C255.228 379.685 255.468 379.579 255.724 379.504C255.991 379.419 256.289 379.376 256.62 379.376C257.58 379.376 258.321 379.669 258.844 380.256C259.367 380.843 259.628 381.627 259.628 382.608V388H257.692V383.2C257.692 382.539 257.532 382.032 257.212 381.68C256.903 381.317 256.46 381.136 255.884 381.136C255.319 381.136 254.86 381.323 254.508 381.696C254.156 382.059 253.98 382.571 253.98 383.232V388H252.044V376.32ZM261.998 376.416H264.078V378.256H261.998V376.416ZM262.078 379.552H264.014V388H262.078V379.552ZM266.544 379.552H268.48V380.848C268.619 380.656 268.768 380.469 268.928 380.288C269.099 380.107 269.291 379.952 269.504 379.824C269.728 379.685 269.968 379.579 270.224 379.504C270.491 379.419 270.789 379.376 271.12 379.376C272.08 379.376 272.821 379.669 273.344 380.256C273.867 380.843 274.128 381.627 274.128 382.608V388H272.192V383.2C272.192 382.539 272.032 382.032 271.712 381.68C271.403 381.317 270.96 381.136 270.384 381.136C269.819 381.136 269.36 381.323 269.008 381.696C268.656 382.059 268.48 382.571 268.48 383.232V388H266.544V379.552ZM276.466 376.32H278.402V383.296L281.906 379.552H284.258L280.898 382.992L284.37 388H282.098L279.602 384.336L278.402 385.584V388H276.466V376.32ZM289.244 388.192C288.636 388.192 288.066 388.085 287.532 387.872C287.01 387.659 286.551 387.36 286.156 386.976C285.772 386.592 285.468 386.133 285.244 385.6C285.02 385.056 284.908 384.459 284.908 383.808V383.776C284.908 383.168 285.01 382.597 285.212 382.064C285.415 381.531 285.698 381.067 286.06 380.672C286.434 380.267 286.871 379.952 287.372 379.728C287.874 379.493 288.428 379.376 289.036 379.376C289.708 379.376 290.295 379.499 290.796 379.744C291.308 379.989 291.73 380.32 292.06 380.736C292.402 381.152 292.658 381.637 292.828 382.192C292.999 382.736 293.084 383.312 293.084 383.92C293.084 384.005 293.079 384.096 293.068 384.192C293.068 384.277 293.063 384.368 293.052 384.464H286.844C286.951 385.157 287.223 385.691 287.66 386.064C288.108 386.427 288.647 386.608 289.276 386.608C289.756 386.608 290.172 386.523 290.524 386.352C290.876 386.181 291.223 385.931 291.564 385.6L292.7 386.608C292.295 387.088 291.81 387.472 291.244 387.76C290.69 388.048 290.023 388.192 289.244 388.192ZM291.164 383.184C291.132 382.875 291.063 382.587 290.956 382.32C290.85 382.043 290.706 381.808 290.524 381.616C290.343 381.413 290.124 381.253 289.868 381.136C289.623 381.019 289.34 380.96 289.02 380.96C288.423 380.96 287.927 381.168 287.532 381.584C287.148 381.989 286.914 382.523 286.828 383.184H291.164ZM295.029 379.552H296.965V381.456C297.231 380.816 297.61 380.304 298.101 379.92C298.591 379.536 299.21 379.36 299.957 379.392V381.44H299.845C299.418 381.44 299.029 381.509 298.677 381.648C298.325 381.787 298.021 381.995 297.765 382.272C297.509 382.549 297.311 382.901 297.173 383.328C297.034 383.744 296.965 384.229 296.965 384.784V388H295.029V379.552ZM304.534 388.16C303.926 388.16 303.307 388.053 302.678 387.84C302.059 387.627 301.483 387.312 300.95 386.896L301.814 385.584C302.283 385.925 302.753 386.187 303.222 386.368C303.691 386.539 304.145 386.624 304.582 386.624C304.998 386.624 305.318 386.544 305.542 386.384C305.777 386.213 305.894 385.989 305.894 385.712V385.68C305.894 385.52 305.841 385.381 305.734 385.264C305.638 385.147 305.499 385.045 305.318 384.96C305.147 384.875 304.945 384.795 304.71 384.72C304.486 384.645 304.251 384.571 304.006 384.496C303.697 384.411 303.382 384.309 303.062 384.192C302.753 384.075 302.47 383.925 302.214 383.744C301.969 383.552 301.766 383.317 301.606 383.04C301.446 382.763 301.366 382.421 301.366 382.016V381.984C301.366 381.589 301.441 381.232 301.59 380.912C301.75 380.592 301.963 380.32 302.23 380.096C302.507 379.872 302.827 379.701 303.19 379.584C303.563 379.467 303.958 379.408 304.374 379.408C304.907 379.408 305.446 379.493 305.99 379.664C306.534 379.835 307.03 380.069 307.478 380.368L306.71 381.744C306.305 381.499 305.894 381.307 305.478 381.168C305.062 381.019 304.678 380.944 304.326 380.944C303.953 380.944 303.659 381.024 303.446 381.184C303.243 381.333 303.142 381.531 303.142 381.776V381.808C303.142 381.968 303.195 382.107 303.302 382.224C303.409 382.331 303.547 382.432 303.718 382.528C303.899 382.613 304.102 382.699 304.326 382.784C304.561 382.859 304.801 382.933 305.046 383.008C305.355 383.104 305.665 383.216 305.974 383.344C306.283 383.472 306.561 383.632 306.806 383.824C307.062 384.005 307.27 384.229 307.43 384.496C307.59 384.763 307.67 385.088 307.67 385.472V385.504C307.67 385.952 307.59 386.341 307.43 386.672C307.27 387.003 307.046 387.28 306.758 387.504C306.481 387.717 306.15 387.883 305.766 388C305.382 388.107 304.971 388.16 304.534 388.16Z" fill="white"/>
</g>
<g filter="url(#filter2_d)">
<g filter="url(#filter3_d)">
<path d="M91.4727 309H95.6777V327.551H91.4727V309Z" fill="#FCF7F2"/>
<path d="M110.343 335.035C109.254 335.035 108.2 334.824 107.181 334.403C106.161 333.981 105.258 333.36 104.47 332.541C103.682 331.721 103.045 330.714 102.559 329.519C102.072 328.324 101.829 326.954 101.829 325.408V325.338C101.829 323.792 102.061 322.422 102.524 321.227C103.011 320.032 103.648 319.025 104.435 318.205C105.223 317.386 106.127 316.765 107.146 316.343C108.189 315.922 109.254 315.711 110.343 315.711C111.108 315.711 111.791 315.805 112.394 315.992C113.019 316.156 113.587 316.39 114.096 316.695C114.606 316.999 115.07 317.35 115.487 317.749C115.904 318.123 116.274 318.533 116.599 318.978V309H120.804V334.649H116.599V331.557C115.927 332.517 115.081 333.337 114.062 334.016C113.066 334.696 111.826 335.035 110.343 335.035ZM111.351 331.346C112.046 331.346 112.718 331.205 113.367 330.924C114.015 330.643 114.583 330.245 115.07 329.73C115.556 329.191 115.938 328.559 116.216 327.832C116.518 327.106 116.668 326.298 116.668 325.408V325.338C116.668 324.448 116.518 323.64 116.216 322.914C115.938 322.164 115.556 321.532 115.07 321.016C114.583 320.501 114.015 320.103 113.367 319.822C112.718 319.541 112.046 319.4 111.351 319.4C110.633 319.4 109.949 319.541 109.301 319.822C108.675 320.079 108.119 320.466 107.633 320.981C107.146 321.496 106.764 322.129 106.486 322.878C106.208 323.605 106.069 324.424 106.069 325.338V325.408C106.069 326.298 106.208 327.118 106.486 327.868C106.764 328.594 107.146 329.214 107.633 329.73C108.119 330.245 108.675 330.643 109.301 330.924C109.949 331.205 110.633 331.346 111.351 331.346Z" fill="#FCF7F2"/>
<path d="M135.829 335.07C134.509 335.07 133.269 334.836 132.111 334.368C130.975 333.899 129.979 333.243 129.122 332.4C128.288 331.557 127.628 330.55 127.141 329.378C126.655 328.184 126.411 326.872 126.411 325.443V325.373C126.411 324.038 126.631 322.785 127.072 321.614C127.512 320.442 128.126 319.423 128.913 318.557C129.724 317.667 130.674 316.976 131.763 316.484C132.852 315.968 134.057 315.711 135.377 315.711C136.837 315.711 138.111 315.98 139.2 316.519C140.312 317.058 141.227 317.784 141.946 318.697C142.687 319.611 143.243 320.677 143.614 321.895C143.984 323.089 144.17 324.354 144.17 325.689C144.17 325.877 144.158 326.076 144.135 326.287C144.135 326.474 144.123 326.673 144.1 326.884H130.616C130.848 328.406 131.439 329.577 132.389 330.397C133.362 331.194 134.532 331.592 135.899 331.592C136.941 331.592 137.845 331.405 138.609 331.03C139.374 330.655 140.127 330.105 140.868 329.378L143.336 331.592C142.455 332.646 141.401 333.489 140.173 334.122C138.968 334.754 137.52 335.07 135.829 335.07ZM139.999 324.073C139.93 323.394 139.779 322.761 139.548 322.176C139.316 321.567 139.003 321.051 138.609 320.63C138.215 320.185 137.741 319.833 137.185 319.576C136.652 319.318 136.038 319.189 135.343 319.189C134.045 319.189 132.968 319.646 132.111 320.559C131.277 321.45 130.767 322.621 130.582 324.073H139.999Z" fill="#FCF7F2"/>
<path d="M155.012 335.035C154.154 335.035 153.332 334.906 152.544 334.649C151.756 334.414 151.061 334.063 150.459 333.595C149.88 333.103 149.405 332.505 149.034 331.803C148.687 331.077 148.513 330.245 148.513 329.308V329.238C148.513 328.231 148.698 327.352 149.069 326.603C149.44 325.853 149.949 325.232 150.598 324.741C151.27 324.249 152.069 323.886 152.996 323.651C153.946 323.394 154.977 323.265 156.089 323.265C157.132 323.265 158.035 323.335 158.8 323.476C159.564 323.616 160.306 323.804 161.024 324.038V323.581C161.024 322.246 160.63 321.239 159.842 320.559C159.078 319.88 157.954 319.541 156.471 319.541C155.429 319.541 154.502 319.646 153.691 319.857C152.88 320.068 152.058 320.349 151.224 320.7L150.112 317.362C151.131 316.894 152.174 316.531 153.239 316.273C154.305 315.992 155.568 315.851 157.027 315.851C159.761 315.851 161.788 316.542 163.109 317.924C163.781 318.604 164.279 319.423 164.603 320.384C164.928 321.344 165.09 322.433 165.09 323.651V334.649H160.989V332.33C160.363 333.079 159.564 333.723 158.591 334.262C157.618 334.778 156.425 335.035 155.012 335.035ZM156.193 331.943C156.888 331.943 157.537 331.85 158.139 331.662C158.742 331.475 159.251 331.205 159.668 330.854C160.109 330.503 160.456 330.081 160.711 329.589C160.966 329.097 161.093 328.559 161.093 327.973V326.708C160.56 326.497 159.935 326.322 159.217 326.181C158.522 326.041 157.757 325.97 156.923 325.97C155.556 325.97 154.49 326.24 153.726 326.778C152.984 327.317 152.614 328.078 152.614 329.062V329.132C152.614 330.023 152.95 330.714 153.622 331.205C154.317 331.697 155.174 331.943 156.193 331.943Z" fill="#FCF7F2"/>
<path d="M193.678 335.035C192.149 335.035 190.887 334.707 189.89 334.051C188.894 333.396 188.072 332.634 187.423 331.768V334.649H183.218V309H187.423V319.189C188.095 318.229 188.929 317.409 189.925 316.73C190.921 316.05 192.173 315.711 193.678 315.711C194.744 315.711 195.787 315.922 196.806 316.343C197.849 316.765 198.764 317.386 199.552 318.205C200.339 319.025 200.976 320.032 201.463 321.227C201.949 322.422 202.193 323.792 202.193 325.338V325.408C202.193 326.954 201.949 328.324 201.463 329.519C201 330.714 200.362 331.721 199.552 332.541C198.764 333.36 197.86 333.981 196.841 334.403C195.822 334.824 194.767 335.035 193.678 335.035ZM192.671 331.346C193.389 331.346 194.061 331.205 194.686 330.924C195.335 330.643 195.891 330.257 196.354 329.765C196.841 329.25 197.223 328.629 197.501 327.903C197.779 327.153 197.918 326.322 197.918 325.408V325.338C197.918 324.448 197.779 323.64 197.501 322.914C197.223 322.164 196.841 321.532 196.354 321.016C195.891 320.501 195.335 320.103 194.686 319.822C194.061 319.541 193.389 319.4 192.671 319.4C191.952 319.4 191.269 319.541 190.62 319.822C189.972 320.103 189.404 320.513 188.917 321.051C188.431 321.567 188.037 322.187 187.736 322.914C187.458 323.64 187.319 324.448 187.319 325.338V325.408C187.319 326.298 187.458 327.106 187.736 327.832C188.037 328.559 188.431 329.191 188.917 329.73C189.404 330.245 189.972 330.643 190.62 330.924C191.269 331.205 191.952 331.346 192.671 331.346Z" fill="#FCF7F2"/>
<path d="M216.593 335.07C215.203 335.07 213.905 334.824 212.7 334.332C211.519 333.817 210.488 333.126 209.608 332.259C208.75 331.393 208.078 330.374 207.592 329.203C207.105 328.032 206.862 326.79 206.862 325.478V325.408C206.862 324.073 207.105 322.82 207.592 321.649C208.102 320.477 208.785 319.459 209.642 318.592C210.523 317.702 211.554 316.999 212.735 316.484C213.94 315.968 215.249 315.711 216.662 315.711C218.075 315.711 219.373 315.968 220.554 316.484C221.759 316.976 222.79 317.667 223.647 318.557C224.528 319.423 225.211 320.442 225.698 321.614C226.184 322.761 226.428 324.003 226.428 325.338V325.408C226.428 326.72 226.173 327.961 225.663 329.132C225.177 330.304 224.493 331.334 223.613 332.224C222.755 333.091 221.724 333.782 220.52 334.297C219.315 334.813 218.006 335.07 216.593 335.07ZM216.662 331.346C217.519 331.346 218.284 331.194 218.956 330.889C219.651 330.561 220.242 330.14 220.728 329.624C221.215 329.086 221.585 328.465 221.84 327.762C222.095 327.036 222.223 326.275 222.223 325.478V325.408C222.223 324.588 222.084 323.815 221.806 323.089C221.528 322.363 221.134 321.731 220.624 321.192C220.137 320.653 219.547 320.232 218.852 319.927C218.18 319.599 217.427 319.435 216.593 319.435C215.759 319.435 214.994 319.599 214.299 319.927C213.627 320.232 213.048 320.653 212.561 321.192C212.075 321.707 211.704 322.328 211.449 323.054C211.195 323.78 211.067 324.541 211.067 325.338V325.408C211.067 326.228 211.206 327.001 211.484 327.727C211.762 328.43 212.144 329.05 212.631 329.589C213.141 330.128 213.731 330.561 214.403 330.889C215.098 331.194 215.851 331.346 216.662 331.346Z" fill="#FCF7F2"/>
<path d="M237.329 335.035C236.472 335.035 235.649 334.906 234.862 334.649C234.074 334.414 233.379 334.063 232.776 333.595C232.197 333.103 231.722 332.505 231.352 331.803C231.004 331.077 230.83 330.245 230.83 329.308V329.238C230.83 328.231 231.016 327.352 231.386 326.603C231.757 325.853 232.267 325.232 232.915 324.741C233.587 324.249 234.387 323.886 235.313 323.651C236.263 323.394 237.294 323.265 238.406 323.265C239.449 323.265 240.352 323.335 241.117 323.476C241.882 323.616 242.623 323.804 243.341 324.038V323.581C243.341 322.246 242.947 321.239 242.16 320.559C241.395 319.88 240.271 319.541 238.789 319.541C237.746 319.541 236.819 319.646 236.008 319.857C235.198 320.068 234.375 320.349 233.541 320.7L232.429 317.362C233.448 316.894 234.491 316.531 235.557 316.273C236.622 315.992 237.885 315.851 239.345 315.851C242.078 315.851 244.106 316.542 245.426 317.924C246.098 318.604 246.596 319.423 246.921 320.384C247.245 321.344 247.407 322.433 247.407 323.651V334.649H243.306V332.33C242.681 333.079 241.882 333.723 240.908 334.262C239.935 334.778 238.742 335.035 237.329 335.035ZM238.511 331.943C239.206 331.943 239.854 331.85 240.457 331.662C241.059 331.475 241.569 331.205 241.986 330.854C242.426 330.503 242.773 330.081 243.028 329.589C243.283 329.097 243.411 328.559 243.411 327.973V326.708C242.878 326.497 242.252 326.322 241.534 326.181C240.839 326.041 240.074 325.97 239.24 325.97C237.873 325.97 236.808 326.24 236.043 326.778C235.302 327.317 234.931 328.078 234.931 329.062V329.132C234.931 330.023 235.267 330.714 235.939 331.205C236.634 331.697 237.491 331.943 238.511 331.943Z" fill="#FCF7F2"/>
<path d="M253.78 316.097H257.985V320.278C258.564 318.873 259.387 317.749 260.452 316.905C261.518 316.062 262.862 315.676 264.484 315.746V320.243H264.24C263.314 320.243 262.468 320.396 261.703 320.7C260.939 321.005 260.279 321.461 259.722 322.07C259.166 322.679 258.738 323.452 258.437 324.389C258.135 325.303 257.985 326.368 257.985 327.587V334.649H253.78V316.097Z" fill="#FCF7F2"/>
<path d="M276.539 335.035C275.45 335.035 274.396 334.824 273.377 334.403C272.357 333.981 271.454 333.36 270.666 332.541C269.878 331.721 269.241 330.714 268.755 329.519C268.268 328.324 268.025 326.954 268.025 325.408V325.338C268.025 323.792 268.256 322.422 268.72 321.227C269.206 320.032 269.843 319.025 270.631 318.205C271.419 317.386 272.322 316.765 273.342 316.343C274.384 315.922 275.45 315.711 276.539 315.711C277.304 315.711 277.987 315.805 278.589 315.992C279.215 316.156 279.783 316.39 280.292 316.695C280.802 316.999 281.265 317.35 281.682 317.749C282.099 318.123 282.47 318.533 282.794 318.978V309H286.999V334.649H282.794V331.557C282.123 332.517 281.277 333.337 280.258 334.016C279.261 334.696 278.022 335.035 276.539 335.035ZM277.547 331.346C278.242 331.346 278.914 331.205 279.563 330.924C280.211 330.643 280.779 330.245 281.265 329.73C281.752 329.191 282.134 328.559 282.412 327.832C282.713 327.106 282.864 326.298 282.864 325.408V325.338C282.864 324.448 282.713 323.64 282.412 322.914C282.134 322.164 281.752 321.532 281.265 321.016C280.779 320.501 280.211 320.103 279.563 319.822C278.914 319.541 278.242 319.4 277.547 319.4C276.829 319.4 276.145 319.541 275.496 319.822C274.871 320.079 274.315 320.466 273.828 320.981C273.342 321.496 272.96 322.129 272.682 322.878C272.404 323.605 272.265 324.424 272.265 325.338V325.408C272.265 326.298 272.404 327.118 272.682 327.868C272.96 328.594 273.342 329.214 273.828 329.73C274.315 330.245 274.871 330.643 275.496 330.924C276.145 331.205 276.829 331.346 277.547 331.346Z" fill="#FCF7F2"/>
</g>
<g filter="url(#filter4_d)">
<ellipse cx="93.6732" cy="333.297" rx="2.67325" ry="2.70271" fill="url(#paint3_linear)"/>
</g>
</g>
<g filter="url(#filter5_d)">
<path fill-rule="evenodd" clip-rule="evenodd" d="M0 0V20H375V0H0Z" fill="black" fill-opacity="0.01"/>
<path d="M34.1738 10.2305V9.19922H30.7461V10.125H33.125V10.3301C33.125 11.7598 32.0996 12.7266 30.5879 12.7266C28.8887 12.7266 27.834 11.4023 27.834 9.26953C27.834 7.16602 28.9062 5.81836 30.582 5.81836C31.8359 5.81836 32.6855 6.42188 33.0488 7.56445H34.1211C33.8164 5.88867 32.457 4.8457 30.582 4.8457C28.2676 4.8457 26.75 6.59766 26.75 9.26953C26.75 11.9766 28.2441 13.6992 30.582 13.6992C32.7441 13.6992 34.1738 12.3164 34.1738 10.2305ZM35.6387 11.291C35.75 12.75 36.9863 13.6992 38.7793 13.6992C40.7129 13.6992 41.9375 12.709 41.9375 11.1562C41.9375 9.91406 41.2344 9.23438 39.4824 8.79492L38.5977 8.56055C37.4316 8.26172 36.9688 7.88086 36.9688 7.21875C36.9688 6.36328 37.7129 5.80078 38.8379 5.80078C39.8926 5.80078 40.6074 6.31641 40.7539 7.18359H41.8145C41.7266 5.81836 40.5078 4.8457 38.873 4.8457C37.0859 4.8457 35.8848 5.81836 35.8848 7.25391C35.8848 8.45508 36.5469 9.14648 38.0762 9.5332L39.1602 9.81445C40.3262 10.1074 40.8535 10.5645 40.8535 11.2852C40.8535 12.123 40.0156 12.7383 38.8789 12.7383C37.6777 12.7383 36.834 12.1758 36.7051 11.291H35.6387Z" fill="#FCF7F2"/>
<path d="M315.168 14.5H316.223V6.04492H315.174L312.924 7.66211V8.77539L315.074 7.2168H315.168V14.5ZM321.59 14.6992C323.488 14.6992 324.578 13.0938 324.578 10.2871C324.578 7.48633 323.471 5.8457 321.59 5.8457C319.697 5.8457 318.59 7.48047 318.59 10.2695C318.59 13.082 319.686 14.6992 321.59 14.6992ZM321.59 13.7793C320.342 13.7793 319.65 12.5312 319.65 10.2695C319.65 8.03711 320.354 6.77148 321.59 6.77148C322.826 6.77148 323.518 8.02539 323.518 10.2695C323.518 12.5371 322.838 13.7793 321.59 13.7793ZM329.148 14.6992C331.047 14.6992 332.137 13.0938 332.137 10.2871C332.137 7.48633 331.029 5.8457 329.148 5.8457C327.256 5.8457 326.148 7.48047 326.148 10.2695C326.148 13.082 327.244 14.6992 329.148 14.6992ZM329.148 13.7793C327.9 13.7793 327.209 12.5312 327.209 10.2695C327.209 8.03711 327.912 6.77148 329.148 6.77148C330.385 6.77148 331.076 8.02539 331.076 10.2695C331.076 12.5371 330.396 13.7793 329.148 13.7793ZM335.137 9.87109C336.279 9.87109 336.971 9.12695 336.971 7.87891C336.971 6.64844 336.273 5.89258 335.137 5.89258C334 5.89258 333.297 6.64844 333.297 7.87891C333.297 9.12109 333.988 9.87109 335.137 9.87109ZM335.137 9.10352C334.545 9.10352 334.205 8.6582 334.205 7.88477C334.205 7.11719 334.545 6.66602 335.137 6.66602C335.723 6.66602 336.062 7.11719 336.062 7.88477C336.062 8.65234 335.729 9.10352 335.137 9.10352ZM335.518 14.5L341.359 6.04492H340.404L334.562 14.5H335.518ZM340.791 14.582C341.934 14.582 342.625 13.8379 342.625 12.5898C342.625 11.3594 341.928 10.6035 340.791 10.6035C339.654 10.6035 338.951 11.3594 338.951 12.5898C338.951 13.832 339.648 14.582 340.791 14.582ZM340.791 13.8145C340.199 13.8145 339.865 13.3691 339.865 12.5957C339.865 11.8281 340.199 11.377 340.791 11.377C341.383 11.377 341.717 11.8281 341.717 12.5957C341.717 13.3633 341.383 13.8145 340.791 13.8145Z" fill="#FCF7F2"/>
<path opacity="0.4" d="M348.5 5.5H365.5C366.605 5.5 367.5 6.39543 367.5 7.5V13C367.5 14.1046 366.605 15 365.5 15H364.469H348.5C347.395 15 346.5 14.1046 346.5 13V7.5C346.5 6.39543 347.395 5.5 348.5 5.5Z" fill="#FCF7F2" stroke="white"/>
<path fill-rule="evenodd" clip-rule="evenodd" d="M369 12.374C369.863 12.152 370.5 11.3689 370.5 10.437C370.5 9.50507 369.863 8.72202 369 8.5V12.374Z" fill="#FCF7F2"/>
<path d="M348 8C348 7.44772 348.448 7 349 7H365C365.552 7 366 7.44772 366 8V12.5C366 13.0523 365.552 13.5 365 13.5H349C348.448 13.5 348 13.0523 348 12.5V8Z" fill="#FCF7F2"/>
<path d="M348 8C348 7.44772 348.448 7 349 7H365C365.552 7 366 7.44772 366 8V12.5C366 13.0523 365.552 13.5 365 13.5H349C348.448 13.5 348 13.0523 348 12.5V8Z" stroke="#FCF7F2"/>
<path d="M168.174 13.7051C170.324 13.7051 171.602 12.0234 171.602 9.17578C171.602 6.38086 170.242 4.83398 168.221 4.83398C166.381 4.83398 165.08 6.07031 165.08 7.80469C165.08 9.42773 166.252 10.6113 167.863 10.6113C168.854 10.6113 169.656 10.1543 170.055 9.35156H170.154C170.137 11.3086 169.428 12.4395 168.191 12.4395C167.465 12.4395 166.885 12.0469 166.703 11.4141H165.197C165.443 12.7969 166.627 13.7051 168.174 13.7051ZM168.227 9.41602C167.242 9.41602 166.562 8.73633 166.562 7.75781C166.562 6.81445 167.277 6.09375 168.232 6.09375C169.188 6.09375 169.902 6.82617 169.902 7.78711C169.902 8.73047 169.205 9.41602 168.227 9.41602ZM174.256 12.334C174.812 12.334 175.193 11.9355 175.193 11.4082C175.193 10.875 174.812 10.4824 174.256 10.4824C173.705 10.4824 173.318 10.875 173.318 11.4082C173.318 11.9355 173.705 12.334 174.256 12.334ZM174.256 8.05664C174.812 8.05664 175.193 7.66406 175.193 7.13672C175.193 6.60352 174.812 6.21094 174.256 6.21094C173.705 6.21094 173.318 6.60352 173.318 7.13672C173.318 7.66406 173.705 8.05664 174.256 8.05664ZM181.035 13.5H182.482V11.8887H183.625V10.6113H182.482V5.04492H180.35C179.201 6.79102 178 8.71875 176.904 10.6289V11.8887H181.035V13.5ZM178.305 10.5645C179.131 9.14062 180.109 7.58789 180.977 6.27539H181.059V10.6465H178.305V10.5645ZM187.088 13.5H188.6V5.04492H187.094L184.885 6.5918V8.04492L186.988 6.56836H187.088V13.5ZM199.814 13.5H201.438L198.432 5.04492H196.732L193.732 13.5H195.262L195.988 11.3379H199.1L199.814 13.5ZM197.5 6.65625H197.6L198.748 10.1426H196.34L197.5 6.65625ZM211.621 13.5V5.04492H209.852L207.309 11.2441H207.203L204.66 5.04492H202.891V13.5H204.297V7.55273H204.379L206.717 13.207H207.795L210.133 7.55273H210.215V13.5H211.621Z" fill="#FCF7F2"/>
<path fill-rule="evenodd" clip-rule="evenodd" d="M51.9876 5.5C54.5506 5.5 56.863 6.53944 58.5 8.20688L57.4119 9.26404C56.0539 7.86553 54.126 6.99223 51.9876 6.99223C49.8629 6.99223 47.9461 7.85432 46.5896 9.23709L45.5 8.18164C47.1355 6.52896 49.4375 5.5 51.9876 5.5ZM56.3235 10.3214C55.2448 9.19175 53.7014 8.48446 51.9876 8.48446C50.2883 8.48446 48.7566 9.17976 47.6793 10.2927L48.7693 11.3486C49.5672 10.5054 50.7136 9.97668 51.9876 9.97668C53.2769 9.97668 54.4356 10.5182 55.2346 11.3793L56.3235 10.3214ZM54.1444 12.4385C53.6264 11.8454 52.8524 11.4689 51.9876 11.4689C51.139 11.4689 50.3779 11.8314 49.8602 12.4053L52.0225 14.5L54.1444 12.4385Z" fill="#FCF7F2"/>
<path fill-rule="evenodd" clip-rule="evenodd" d="M19.5 5C19.2239 5 19 5.22386 19 5.5V14C19 14.2761 19.2239 14.5 19.5 14.5H21C21.2761 14.5 21.5 14.2761 21.5 14V5.5C21.5 5.22386 21.2761 5 21 5H19.5ZM15.5 7.5C15.2239 7.5 15 7.72386 15 8V14C15 14.2761 15.2239 14.5 15.5 14.5H17C17.2761 14.5 17.5 14.2761 17.5 14V8C17.5 7.72386 17.2761 7.5 17 7.5H15.5ZM11 10C11 9.72386 11.2239 9.5 11.5 9.5H13C13.2761 9.5 13.5 9.72386 13.5 10V14C13.5 14.2761 13.2761 14.5 13 14.5H11.5C11.2239 14.5 11 14.2761 11 14V10ZM7.5 11.5C7.22386 11.5 7 11.7239 7 12V14C7 14.2761 7.22386 14.5 7.5 14.5H9C9.27614 14.5 9.5 14.2761 9.5 14V12C9.5 11.7239 9.27614 11.5 9 11.5H7.5Z" fill="#FCF7F2"/>
</g>
<rect x="89.5371" y="655" width="198.463" height="41" rx="4" fill="url(#paint4_linear)"/>
<path d="M124.375 682.64C127.063 682.64 128.337 681.296 128.337 679.728C128.337 676.13 122.527 677.488 122.527 675.402C122.527 674.66 123.143 674.072 124.655 674.072C125.509 674.072 126.475 674.324 127.357 674.842L127.931 673.428C127.077 672.868 125.845 672.56 124.669 672.56C121.981 672.56 120.721 673.904 120.721 675.486C120.721 679.126 126.545 677.74 126.545 679.854C126.545 680.582 125.901 681.128 124.375 681.128C123.171 681.128 121.925 680.68 121.141 680.05L120.511 681.464C121.323 682.164 122.849 682.64 124.375 682.64ZM130.141 682.5H131.961V672.7H130.141V682.5ZM141.304 680.54C140.674 680.904 139.988 681.044 139.288 681.044C137.216 681.044 135.746 679.588 135.746 677.6C135.746 675.57 137.216 674.156 139.302 674.156C140.352 674.156 141.234 674.506 142.004 675.276L143.152 674.156C142.228 673.106 140.856 672.56 139.218 672.56C136.152 672.56 133.912 674.674 133.912 677.6C133.912 680.526 136.152 682.64 139.19 682.64C140.576 682.64 142.004 682.22 143.026 681.394V677.488H141.304V680.54ZM152.328 672.7V679.336L146.924 672.7H145.426V682.5H147.232V675.864L152.636 682.5H154.134V672.7H152.328ZM164.843 682.64C167.517 682.64 169.127 681.086 169.127 678.23V672.7H167.335V678.16C167.335 680.176 166.439 681.044 164.857 681.044C163.275 681.044 162.365 680.176 162.365 678.16V672.7H160.545V678.23C160.545 681.086 162.155 682.64 164.843 682.64ZM175.708 672.7H171.676V682.5H173.496V679.672H175.708C178.284 679.672 179.88 678.342 179.88 676.186C179.88 674.016 178.284 672.7 175.708 672.7ZM175.624 678.132H173.496V674.24H175.624C177.22 674.24 178.046 674.954 178.046 676.186C178.046 677.418 177.22 678.132 175.624 678.132ZM192.858 674.226V672.7H185.704V682.5H187.524V678.748H192.256V677.208H187.524V674.226H192.858ZM199.086 682.64C202.124 682.64 204.364 680.512 204.364 677.6C204.364 674.688 202.124 672.56 199.086 672.56C196.048 672.56 193.808 674.702 193.808 677.6C193.808 680.498 196.048 682.64 199.086 682.64ZM199.086 681.044C197.112 681.044 195.642 679.602 195.642 677.6C195.642 675.598 197.112 674.156 199.086 674.156C201.06 674.156 202.53 675.598 202.53 677.6C202.53 679.602 201.06 681.044 199.086 681.044ZM214.666 682.5L212.412 679.28C213.742 678.762 214.498 677.67 214.498 676.186C214.498 674.016 212.902 672.7 210.326 672.7H206.294V682.5H208.114V679.644H210.326C210.452 679.644 210.578 679.644 210.704 679.63L212.706 682.5H214.666ZM212.664 676.186C212.664 677.418 211.838 678.146 210.242 678.146H208.114V674.24H210.242C211.838 674.24 212.664 674.954 212.664 676.186ZM227.557 674.226V672.7H220.403V682.5H222.223V678.748H226.955V677.208H222.223V674.226H227.557ZM237.689 682.5L235.435 679.28C236.765 678.762 237.521 677.67 237.521 676.186C237.521 674.016 235.925 672.7 233.349 672.7H229.317V682.5H231.137V679.644H233.349C233.475 679.644 233.601 679.644 233.727 679.63L235.729 682.5H237.689ZM235.687 676.186C235.687 677.418 234.861 678.146 233.265 678.146H231.137V674.24H233.265C234.861 674.24 235.687 674.954 235.687 676.186ZM241.377 680.974V678.272H246.109V676.774H241.377V674.226H246.711V672.7H239.557V682.5H246.907V680.974H241.377ZM250.756 680.974V678.272H255.488V676.774H250.756V674.226H256.09V672.7H248.936V682.5H256.286V680.974H250.756Z" fill="white"/>
<path d="M164.023 733.5H170.967V731.96H165.843V723.7H164.023V733.5ZM176.804 733.64C179.842 733.64 182.082 731.512 182.082 728.6C182.082 725.688 179.842 723.56 176.804 723.56C173.766 723.56 171.526 725.702 171.526 728.6C171.526 731.498 173.766 733.64 176.804 733.64ZM176.804 732.044C174.83 732.044 173.36 730.602 173.36 728.6C173.36 726.598 174.83 725.156 176.804 725.156C178.778 725.156 180.248 726.598 180.248 728.6C180.248 730.602 178.778 732.044 176.804 732.044ZM190.703 731.54C190.073 731.904 189.387 732.044 188.687 732.044C186.615 732.044 185.145 730.588 185.145 728.6C185.145 726.57 186.615 725.156 188.701 725.156C189.751 725.156 190.633 725.506 191.403 726.276L192.551 725.156C191.627 724.106 190.255 723.56 188.617 723.56C185.551 723.56 183.311 725.674 183.311 728.6C183.311 731.526 185.551 733.64 188.589 733.64C189.975 733.64 191.403 733.22 192.425 732.394V728.488H190.703V731.54ZM198.695 733.5H200.515V723.7H198.695V733.5ZM210.068 723.7V730.336L204.664 723.7H203.166V733.5H204.972V726.864L210.376 733.5H211.874V723.7H210.068Z" fill="#373737"/>
</g>
<defs>
<filter id="filter0_d" x="-97" y="-40" width="662.665" height="992" filterUnits="userSpaceOnUse" color-interpolation-filters="sRGB">
<feFlood flood-opacity="0" result="BackgroundImageFix"/>
<feColorMatrix in="SourceAlpha" type="matrix" values="0 0 0 0 0 0 0 0 0 0 0 0 0 0 0 0 0 0 127 0"/>
<feOffset dx="40" dy="40"/>
<feGaussianBlur stdDeviation="40"/>
<feColorMatrix type="matrix" values="0 0 0 0 0 0 0 0 0 0 0 0 0 0 0 0 0 0 0.05 0"/>
<feBlend mode="normal" in2="BackgroundImageFix" result="effect1_dropShadow"/>
<feBlend mode="normal" in="SourceGraphic" in2="effect1_dropShadow" result="shape"/>
</filter>
<filter id="filter1_d" x="28.002" y="336.224" width="399.667" height="174.368" filterUnits="userSpaceOnUse" color-interpolation-filters="sRGB">
<feFlood flood-opacity="0" result="BackgroundImageFix"/>
<feColorMatrix in="SourceAlpha" type="matrix" values="0 0 0 0 0 0 0 0 0 0 0 0 0 0 0 0 0 0 127 0"/>
<feOffset dx="40" dy="40"/>
<feGaussianBlur stdDeviation="40"/>
<feColorMatrix type="matrix" values="0 0 0 0 0 0 0 0 0 0 0 0 0 0 0 0 0 0 0.05 0"/>
<feBlend mode="normal" in2="BackgroundImageFix" result="effect1_dropShadow"/>
<feBlend mode="normal" in="SourceGraphic" in2="effect1_dropShadow" result="shape"/>
</filter>
<filter id="filter2_d" x="51" y="269" width="356" height="187" filterUnits="userSpaceOnUse" color-interpolation-filters="sRGB">
<feFlood flood-opacity="0" result="BackgroundImageFix"/>
<feColorMatrix in="SourceAlpha" type="matrix" values="0 0 0 0 0 0 0 0 0 0 0 0 0 0 0 0 0 0 127 0"/>
<feOffset dx="40" dy="40"/>
<feGaussianBlur stdDeviation="40"/>
<feColorMatrix type="matrix" values="0 0 0 0 0 0 0 0 0 0 0 0 0 0 0 0 0 0 0.05 0"/>
<feBlend mode="normal" in2="BackgroundImageFix" result="effect1_dropShadow"/>
<feBlend mode="normal" in="SourceGraphic" in2="effect1_dropShadow" result="shape"/>
</filter>
<filter id="filter3_d" x="87.4727" y="309" width="203.527" height="34.0703" filterUnits="userSpaceOnUse" color-interpolation-filters="sRGB">
<feFlood flood-opacity="0" result="BackgroundImageFix"/>
<feColorMatrix in="SourceAlpha" type="matrix" values="0 0 0 0 0 0 0 0 0 0 0 0 0 0 0 0 0 0 127 0"/>
<feOffset dy="4"/>
<feGaussianBlur stdDeviation="2"/>
<feColorMatrix type="matrix" values="0 0 0 0 0 0 0 0 0 0 0 0 0 0 0 0 0 0 0.25 0"/>
<feBlend mode="normal" in2="BackgroundImageFix" result="effect1_dropShadow"/>
<feBlend mode="normal" in="SourceGraphic" in2="effect1_dropShadow" result="shape"/>
</filter>
<filter id="filter4_d" x="87" y="330.595" width="13.3465" height="13.4054" filterUnits="userSpaceOnUse" color-interpolation-filters="sRGB">
<feFlood flood-opacity="0" result="BackgroundImageFix"/>
<feColorMatrix in="SourceAlpha" type="matrix" values="0 0 0 0 0 0 0 0 0 0 0 0 0 0 0 0 0 0 127 0"/>
<feOffset dy="4"/>
<feGaussianBlur stdDeviation="2"/>
<feColorMatrix type="matrix" values="0 0 0 0 0 0 0 0 0 0 0 0 0 0 0 0 0 0 0.25 0"/>
<feBlend mode="normal" in2="BackgroundImageFix" result="effect1_dropShadow"/>
<feBlend mode="normal" in="SourceGraphic" in2="effect1_dropShadow" result="shape"/>
</filter>
<filter id="filter5_d" x="-40" y="-40" width="535" height="180" filterUnits="userSpaceOnUse" color-interpolation-filters="sRGB">
<feFlood flood-opacity="0" result="BackgroundImageFix"/>
<feColorMatrix in="SourceAlpha" type="matrix" values="0 0 0 0 0 0 0 0 0 0 0 0 0 0 0 0 0 0 127 0"/>
<feOffset dx="40" dy="40"/>
<feGaussianBlur stdDeviation="40"/>
<feColorMatrix type="matrix" values="0 0 0 0 0 0 0 0 0 0 0 0 0 0 0 0 0 0 0.05 0"/>
<feBlend mode="normal" in2="BackgroundImageFix" result="effect1_dropShadow"/>
<feBlend mode="normal" in="SourceGraphic" in2="effect1_dropShadow" result="shape"/>
</filter>
<linearGradient id="paint0_linear" x1="188.623" y1="0" x2="188.623" y2="812" gradientUnits="userSpaceOnUse">
<stop stop-color="#3862F0"/>
<stop offset="0.73399" stop-color="#240DB7"/>
</linearGradient>
<linearGradient id="paint1_linear" x1="-11.3752" y1="656.948" x2="166.416" y2="574.448" gradientUnits="userSpaceOnUse">
<stop stop-color="#E76351"/>
<stop offset="1" stop-color="#EFC03E"/>
</linearGradient>
<linearGradient id="paint2_linear" x1="218.602" y1="605.59" x2="396.393" y2="523.089" gradientUnits="userSpaceOnUse">
<stop stop-color="#E76351"/>
<stop offset="1" stop-color="#EFC03E"/>
</linearGradient>
<linearGradient id="paint3_linear" x1="91.7208" y1="333.527" x2="97.9491" y2="333.615" gradientUnits="userSpaceOnUse">
<stop stop-color="#FF7B31"/>
<stop offset="1" stop-color="#FF4949"/>
</linearGradient>
<linearGradient id="paint4_linear" x1="188.768" y1="655" x2="188.768" y2="696" gradientUnits="userSpaceOnUse">
<stop stop-color="#FF4949"/>
<stop offset="1" stop-color="#EF5C4A"/>
</linearGradient>
<clipPath id="clip0">
<rect width="375" height="812" fill="white"/>
</clipPath>
</defs>
</svg>
