<svg width="67" height="67" viewBox="0 0 67 67" fill="none" xmlns="http://www.w3.org/2000/svg">
<rect width="67" height="67" rx="33.5" fill="url(#paint0_linear)"/>
<path d="M39.9648 42H28.2695V39.6797L33.7891 33.7969C34.5469 32.9688 35.1055 32.2461 35.4648 31.6289C35.832 31.0117 36.0156 30.4258 36.0156 29.8711C36.0156 29.1133 35.8242 28.5195 35.4414 28.0898C35.0586 27.6523 34.5117 27.4336 33.8008 27.4336C33.0352 27.4336 32.4297 27.6992 31.9844 28.2305C31.5469 28.7539 31.3281 29.4453 31.3281 30.3047H27.9297C27.9297 29.2656 28.1758 28.3164 28.668 27.457C29.168 26.5977 29.8711 25.9258 30.7773 25.4414C31.6836 24.9492 32.7109 24.7031 33.8594 24.7031C35.6172 24.7031 36.9805 25.125 37.9492 25.9688C38.9258 26.8125 39.4141 28.0039 39.4141 29.543C39.4141 30.3867 39.1953 31.2461 38.7578 32.1211C38.3203 32.9961 37.5703 34.0156 36.5078 35.1797L32.6289 39.2695H39.9648V42Z" fill="white"/>
<defs>
<linearGradient id="paint0_linear" x1="33.5" y1="-33.5" x2="-33.5" y2="33.5" gradientUnits="userSpaceOnUse">
<stop stop-color="#FB3331"/>
<stop offset="1" stop-color="#F42B29"/>
</linearGradient>
</defs>
</svg>
