<svg width="67" height="67" viewBox="0 0 67 67" fill="none" xmlns="http://www.w3.org/2000/svg">
<rect width="67" height="67" rx="33.5" fill="#FFD4D0"/>
<path d="M40.488 39.832V43H27.792V40.48L34.272 34.36C34.96 33.704 35.424 33.144 35.664 32.68C35.904 32.2 36.024 31.728 36.024 31.264C36.024 30.592 35.792 30.08 35.328 29.728C34.88 29.36 34.216 29.176 33.336 29.176C32.6 29.176 31.936 29.32 31.344 29.608C30.752 29.88 30.256 30.296 29.856 30.856L27.024 29.032C27.68 28.056 28.584 27.296 29.736 26.752C30.888 26.192 32.208 25.912 33.696 25.912C34.944 25.912 36.032 26.12 36.96 26.536C37.904 26.936 38.632 27.512 39.144 28.264C39.672 29 39.936 29.872 39.936 30.88C39.936 31.792 39.744 32.648 39.36 33.448C38.976 34.248 38.232 35.16 37.128 36.184L33.264 39.832H40.488Z" fill="#32397C"/>
</svg>
