<svg width="67" height="67" viewBox="0 0 67 67" fill="none" xmlns="http://www.w3.org/2000/svg">
<rect width="67" height="67" rx="33.5" fill="#FFD4D0"/>
<path d="M35.784 33.04C37.256 33.28 38.384 33.832 39.168 34.696C39.952 35.544 40.344 36.6 40.344 37.864C40.344 38.84 40.088 39.744 39.576 40.576C39.064 41.392 38.28 42.048 37.224 42.544C36.184 43.04 34.904 43.288 33.384 43.288C32.2 43.288 31.032 43.136 29.88 42.832C28.744 42.512 27.776 42.064 26.976 41.488L28.488 38.512C29.128 38.992 29.864 39.368 30.696 39.64C31.544 39.896 32.408 40.024 33.288 40.024C34.264 40.024 35.032 39.84 35.592 39.472C36.152 39.088 36.432 38.552 36.432 37.864C36.432 36.488 35.384 35.8 33.288 35.8H31.512V33.232L34.968 29.32H27.816V26.2H39.576V28.72L35.784 33.04Z" fill="#32397C"/>
</svg>
