<svg width="67" height="67" viewBox="0 0 67 67" fill="none" xmlns="http://www.w3.org/2000/svg">
<rect width="67" height="67" rx="33.5" fill="url(#paint0_linear)"/>
<path d="M31.7148 31.9688H33.5195C34.3789 31.9688 35.0156 31.7539 35.4297 31.3242C35.8438 30.8945 36.0508 30.3242 36.0508 29.6133C36.0508 28.9258 35.8438 28.3906 35.4297 28.0078C35.0234 27.625 34.4609 27.4336 33.7422 27.4336C33.0938 27.4336 32.5508 27.6133 32.1133 27.9727C31.6758 28.3242 31.457 28.7852 31.457 29.3555H28.0703C28.0703 28.4648 28.3086 27.668 28.7852 26.9648C29.2695 26.2539 29.9414 25.6992 30.8008 25.3008C31.668 24.9023 32.6211 24.7031 33.6602 24.7031C35.4648 24.7031 36.8789 25.1367 37.9023 26.0039C38.9258 26.8633 39.4375 28.0508 39.4375 29.5664C39.4375 30.3477 39.1992 31.0664 38.7227 31.7227C38.2461 32.3789 37.6211 32.8828 36.8477 33.2344C37.8086 33.5781 38.5234 34.0938 38.9922 34.7812C39.4688 35.4688 39.707 36.2812 39.707 37.2188C39.707 38.7344 39.1523 39.9492 38.043 40.8633C36.9414 41.7773 35.4805 42.2344 33.6602 42.2344C31.957 42.2344 30.5625 41.7852 29.4766 40.8867C28.3984 39.9883 27.8594 38.8008 27.8594 37.3242H31.2461C31.2461 37.9648 31.4844 38.4883 31.9609 38.8945C32.4453 39.3008 33.0391 39.5039 33.7422 39.5039C34.5469 39.5039 35.1758 39.293 35.6289 38.8711C36.0898 38.4414 36.3203 37.875 36.3203 37.1719C36.3203 35.4688 35.3828 34.6172 33.5078 34.6172H31.7148V31.9688Z" fill="white"/>
<defs>
<linearGradient id="paint0_linear" x1="33.5" y1="-33.5" x2="-33.5" y2="33.5" gradientUnits="userSpaceOnUse">
<stop stop-color="#FB3331"/>
<stop offset="1" stop-color="#F42B29"/>
</linearGradient>
</defs>
</svg>
