<svg width="100" height="99" viewBox="0 0 100 99" fill="none" xmlns="http://www.w3.org/2000/svg">
<path d="M0 0.751953H100V98.0247H0V0.751953Z" fill="url(#paint0_radial)"/>
<path d="M4.16661 4.16661H95.8334V93.3334H4.16661V4.16661ZM0 97.5002H100V0H0V97.5002ZM70.7499 47.0001C72.8748 47.0001 73.6248 47.0001 73.8332 46.9167C73.8332 46.6251 73.9165 46.4166 73.9165 46.2083C73.9165 43.9583 72.8331 39.7917 68.4999 39.7917C64.4997 39.7917 62.7916 43.2916 62.3748 47.0001H70.7499V47.0001ZM62.2917 52.7083C62.375 58.3334 65.0417 62.125 71.375 62.125C73.8333 62.125 75.9582 61.7919 78.1667 60.8336C78.4584 60.7086 78.6668 60.7502 78.6668 61.1252V66.3335C78.6668 66.7501 78.5419 66.9586 78.2502 67.1669C76.0419 68.2501 73.2917 68.7502 69.8752 68.7502C58.8753 68.7502 54.7502 60.6252 54.7502 51.5836C54.7502 41.7503 59.8337 33.7087 68.792 33.7087C77.8753 33.7087 81.042 41.3337 81.042 47.542C81.042 49.5421 80.917 51.167 80.7087 51.9587C80.6254 52.292 80.5004 52.4172 80.167 52.5005C79.3336 52.6255 76.8752 52.792 73.2086 52.792H62.2917V52.7083ZM39.9585 48.4584C38.7918 43.8333 35.9584 33.75 34.9167 28.875H34.8334C33.9585 33.75 31.6666 41.9999 29.9583 48.4584H39.9585V48.4584ZM28.2499 55.2085L24.9583 67.6668C24.875 67.9999 24.75 68.1251 24.3333 68.1251H18.2082C17.7916 68.1251 17.7081 68.0001 17.7916 67.5002L29.6249 26.125C29.8332 25.3751 29.9582 24.7917 30.0415 22.7085C30.0415 22.4168 30.1665 22.2919 30.3748 22.2919H39.1248C39.4164 22.2919 39.5414 22.3752 39.6249 22.7085L52.8748 67.5835C52.9581 67.9166 52.8748 68.1251 52.5415 68.1251H45.6666C45.3333 68.1251 45.1248 68.0001 45.0415 67.7086L41.6248 55.2086H28.2499V55.2085Z" fill="#D8A1FF"/>
<defs>
<radialGradient id="paint0_radial" cx="0" cy="0" r="1" gradientUnits="userSpaceOnUse" gradientTransform="translate(32.9351 22.5509) scale(75.9999 73.5818)">
<stop stop-color="#442F55" stop-opacity="0.98"/>
<stop offset="1" stop-color="#12002C"/>
</radialGradient>
</defs>
</svg>
