<svg width="100" height="98" viewBox="0 0 100 98" fill="none" xmlns="http://www.w3.org/2000/svg">
<path d="M0 0H100V97.2727H0V0Z" fill="url(#paint0_radial)"/>
<path d="M4.16661 4.41466H95.8334V93.5814H4.16661V4.41466ZM0 97.7482H100V0.248047H0V97.7482ZM65.4999 34.9981C65.4999 34.6648 65.6249 34.498 66 34.498H72.5417C72.8748 34.498 73.0416 34.623 73.0416 34.9981V67.8732C73.0416 68.2063 72.9583 68.3731 72.5417 68.3731H66.0834C65.6667 68.3731 65.5416 68.1648 65.5416 67.8315V34.9981H65.4999ZM65.0417 25.5397C65.0417 22.873 66.9166 21.2897 69.2918 21.2897C71.8334 21.2897 73.5417 22.998 73.5417 25.5397C73.5417 28.2896 71.7501 29.7896 69.2084 29.7896C66.7916 29.7898 65.0417 28.2896 65.0417 25.5397ZM46.2917 48.7064C45.1251 44.0814 42.3752 33.998 41.3333 29.123H41.25C40.3749 33.998 38.1667 42.2479 36.4168 48.7064H46.2917V48.7064ZM34.7084 55.4565L31.4166 67.9565C31.3333 68.2896 31.2083 68.373 30.7917 68.373H24.6667C24.2501 68.373 24.1666 68.248 24.2501 67.748L36.0834 26.3312C36.2917 25.5813 36.4166 24.9146 36.5 22.873C36.5 22.5814 36.6249 22.4564 36.8333 22.4564H45.5833C45.8749 22.4564 45.9999 22.5397 46.0834 22.873L59.3333 67.8314C59.4166 68.1645 59.3333 68.373 59 68.373H52.0832C51.7499 68.373 51.5415 68.2896 51.4583 67.9982L48.0416 55.4565H34.7084V55.4565Z" fill="#FF7F18"/>
<defs>
<radialGradient id="paint0_radial" cx="0" cy="0" r="1" gradientUnits="userSpaceOnUse" gradientTransform="translate(32.9351 21.7989) scale(75.9999 73.5818)">
<stop stop-color="#423325" stop-opacity="0.98"/>
<stop offset="1" stop-color="#1C0A00"/>
</radialGradient>
</defs>
</svg>
