<svg width="67" height="67" viewBox="0 0 67 67" fill="none" xmlns="http://www.w3.org/2000/svg">
<rect width="67" height="67" rx="33.5" fill="url(#paint0_linear)"/>
<path d="M25.1681 26.0752L26.029 29.6669L25.1681 33.2429L28.3725 35.1793L30.3333 38.3181L34 37.4748L37.6667 38.3181L39.6275 35.1793L42.8319 33.2429L41.971 29.6669L42.8319 26.0752L39.6435 24.1388L37.6667 21L34 21.8589L30.3493 21.0156L28.3565 24.1388L25.1681 26.0752ZM34.0159 35.9757C32.3247 35.9757 30.7027 35.3176 29.5069 34.1462C28.311 32.9748 27.6391 31.386 27.6391 29.7293C27.6391 28.0727 28.311 26.4839 29.5069 25.3125C30.7027 24.141 32.3247 23.4829 34.0159 23.4829C37.5232 23.4829 40.3768 26.2782 40.3768 29.7137C40.3768 33.1805 37.5232 35.9757 34.0159 35.9757ZM33.9841 34.4141C31.3377 34.4141 29.2174 32.3216 29.2174 29.7293C29.2174 27.1527 31.3377 25.0445 33.9841 25.0445C36.6304 25.0445 38.7826 27.1527 38.7826 29.7293C38.7826 32.3216 36.6304 34.4141 33.9841 34.4141ZM40.1058 36.1319L38.0652 39.6298L34.7493 38.8959L38.7826 48L41.0145 44.5645H45L40.1058 36.1319ZM27.8304 36.2412L29.8232 39.7548L33.2188 38.9584L29.2174 48L26.9855 44.5645H23L27.8304 36.2412Z" fill="white"/>
<defs>
<linearGradient id="paint0_linear" x1="33.5" y1="-33.5" x2="-33.5" y2="33.5" gradientUnits="userSpaceOnUse">
<stop stop-color="#FB3331"/>
<stop offset="1" stop-color="#F42B29"/>
</linearGradient>
</defs>
</svg>
