<svg width="39" height="50" viewBox="0 0 39 50" fill="none" xmlns="http://www.w3.org/2000/svg">
<path d="M3.84348 9.3985L5.36957 16.0497L3.84348 22.6721L9.52391 26.258L13 32.0706L19.5 30.509L26 32.0706L29.4761 26.258L35.1565 22.6721L33.6304 16.0497L35.1565 9.3985L29.5043 5.81261L26 0L19.5 1.59051L13.0283 0.0289184L9.49565 5.81261L3.84348 9.3985ZM19.5283 27.7328C16.5302 27.7328 13.6549 26.5141 11.5349 24.3448C9.4149 22.1755 8.22391 19.2333 8.22391 16.1654C8.22391 13.0976 9.4149 10.1553 11.5349 7.98604C13.6549 5.81674 16.5302 4.59803 19.5283 4.59803C25.7457 4.59803 30.8043 9.77443 30.8043 16.1365C30.8043 22.5564 25.7457 27.7328 19.5283 27.7328ZM19.4717 24.8409C14.7804 24.8409 11.0217 20.9659 11.0217 16.1654C11.0217 11.3939 14.7804 7.48988 19.4717 7.48988C24.163 7.48988 27.9783 11.3939 27.9783 16.1654C27.9783 20.9659 24.163 24.8409 19.4717 24.8409ZM30.3239 28.022L26.7065 34.4997L20.8283 33.1405L27.9783 50L31.9348 43.6379H39L30.3239 28.022ZM8.56304 28.2244L12.0957 34.7311L18.1152 33.2562L11.0217 50L7.06522 43.6379H0L8.56304 28.2244Z" fill="#0073DD"/>
<path d="M3.84348 9.3985L5.36957 16.0497L3.84348 22.6721L9.52391 26.258L13 32.0706L19.5 30.509L26 32.0706L29.4761 26.258L35.1565 22.6721L33.6304 16.0497L35.1565 9.3985L29.5043 5.81261L26 0L19.5 1.59051L13.0283 0.0289184L9.49565 5.81261L3.84348 9.3985ZM19.5283 27.7328C16.5302 27.7328 13.6549 26.5141 11.5349 24.3448C9.4149 22.1755 8.22391 19.2333 8.22391 16.1654C8.22391 13.0976 9.4149 10.1553 11.5349 7.98604C13.6549 5.81674 16.5302 4.59803 19.5283 4.59803C25.7457 4.59803 30.8043 9.77443 30.8043 16.1365C30.8043 22.5564 25.7457 27.7328 19.5283 27.7328ZM19.4717 24.8409C14.7804 24.8409 11.0217 20.9659 11.0217 16.1654C11.0217 11.3939 14.7804 7.48988 19.4717 7.48988C24.163 7.48988 27.9783 11.3939 27.9783 16.1654C27.9783 20.9659 24.163 24.8409 19.4717 24.8409ZM30.3239 28.022L26.7065 34.4997L20.8283 33.1405L27.9783 50L31.9348 43.6379H39L30.3239 28.022ZM8.56304 28.2244L12.0957 34.7311L18.1152 33.2562L11.0217 50L7.06522 43.6379H0L8.56304 28.2244Z" fill="#C4E6FF" fill-opacity="0.6"/>
</svg>
