<svg width="24" height="24" viewBox="0 0 24 24" fill="none" xmlns="http://www.w3.org/2000/svg">
<circle cx="11.5" cy="11.5" r="10.5" fill="#F8F8F8"/>
<path d="M12 0.75C5.787 0.75 0.75 5.787 0.75 12C0.75 18.213 5.787 23.25 12 23.25C18.213 23.25 23.25 18.213 23.25 12C23.25 5.787 18.213 0.75 12 0.75ZM18.894 18.894C17.9933 19.7943 16.9238 20.5082 15.7469 20.9947C14.5699 21.4811 13.3085 21.7307 12.035 21.729C6.67 21.729 2.32 17.38 2.32 12.014C2.32 6.648 6.669 2.299 12.035 2.299C17.4 2.299 21.75 6.648 21.75 12.014C21.7515 13.3355 21.4827 14.6433 20.96 15.857L20.984 15.794C20.4933 16.9519 19.7837 18.0042 18.894 18.893V18.894Z" fill="white"/>
<path d="M6.67188 11.298L7.73287 12.359L11.2509 8.84099V17.625H12.7509V8.84099L16.2689 12.359L17.3299 11.298L12.0009 5.96899L6.67188 11.298Z" fill="black"/>
</svg>
