<svg width="67" height="67" viewBox="0 0 67 67" fill="none" xmlns="http://www.w3.org/2000/svg">
<rect width="67" height="67" rx="33.5" fill="url(#paint0_linear)"/>
<path d="M33.5 48C31.6719 48 29.9229 47.644 28.2529 46.9321C26.583 46.2202 25.146 45.2622 23.9419 44.0581C22.7378 42.854 21.7798 41.417 21.0679 39.7471C20.356 38.0771 20 36.3281 20 34.5C20 32.4961 20.4395 30.5713 21.3184 28.7256C20.4395 28.04 20 27.1523 20 26.0625C20 25.1309 20.3296 24.3354 20.9888 23.6763C21.6479 23.0171 22.4434 22.6875 23.375 22.6875C24.2188 22.6875 24.9658 22.9775 25.6162 23.5576C27.9717 21.8525 30.5996 21 33.5 21C35.3281 21 37.0771 21.356 38.7471 22.0679C40.417 22.7798 41.854 23.7378 43.0581 24.9419C44.2622 26.146 45.2202 27.583 45.9321 29.2529C46.644 30.9229 47 32.6719 47 34.5C47 36.3281 46.644 38.0771 45.9321 39.7471C45.2202 41.417 44.2622 42.854 43.0581 44.0581C41.854 45.2622 40.417 46.2202 38.7471 46.9321C37.0771 47.644 35.3281 48 33.5 48ZM33.5 22.6875C30.9512 22.6875 28.6396 23.4434 26.5654 24.9551C26.6885 25.3418 26.75 25.7109 26.75 26.0625C26.75 26.9941 26.4204 27.7896 25.7612 28.4487C25.1021 29.1079 24.3066 29.4375 23.375 29.4375C23.252 29.4375 23.085 29.4199 22.874 29.3848C22.083 31.0195 21.6875 32.7246 21.6875 34.5C21.6875 36.0996 21.9995 37.6289 22.6235 39.0879C23.2476 40.5469 24.0869 41.8037 25.1416 42.8584C26.1963 43.9131 27.4531 44.7524 28.9121 45.3765C30.3711 46.0005 31.9004 46.3125 33.5 46.3125C35.0996 46.3125 36.6289 46.0005 38.0879 45.3765C39.5469 44.7524 40.8037 43.9131 41.8584 42.8584C42.9131 41.8037 43.7524 40.5469 44.3765 39.0879C45.0005 37.6289 45.3125 36.0996 45.3125 34.5C45.3125 32.9004 45.0005 31.3711 44.3765 29.9121C43.7524 28.4531 42.9131 27.1963 41.8584 26.1416C40.8037 25.0869 39.5469 24.2476 38.0879 23.6235C36.6289 22.9995 35.0996 22.6875 33.5 22.6875ZM41.2256 37.8486C40.5752 39.3779 39.5513 40.6084 38.1538 41.54C36.7563 42.4717 35.2051 42.9375 33.5 42.9375C31.9707 42.9375 30.5601 42.5596 29.2681 41.8037C27.9761 41.0479 26.9521 40.0239 26.1963 38.7319C25.4404 37.4399 25.0625 36.0293 25.0625 34.5C25.0625 32.9707 25.4404 31.5601 26.1963 30.2681C26.9521 28.9761 27.9761 27.9521 29.2681 27.1963C30.5601 26.4404 31.9707 26.0625 33.5 26.0625C35.5391 26.0625 37.3364 26.7129 38.8921 28.0137C40.4478 29.3145 41.4102 30.9492 41.7793 32.918C42.3242 33.0762 42.7681 33.375 43.1108 33.8145C43.4536 34.2539 43.625 34.7637 43.625 35.3438C43.625 36.0117 43.3921 36.5874 42.9263 37.0708C42.4604 37.5542 41.8936 37.8135 41.2256 37.8486ZM33.5 27.75C31.6367 27.75 30.0459 28.4092 28.7275 29.7275C27.4092 31.0459 26.75 32.6367 26.75 34.5C26.75 36.3633 27.4092 37.9541 28.7275 39.2725C30.0459 40.5908 31.6367 41.25 33.5 41.25C34.8359 41.25 36.0488 40.894 37.1387 40.1821C38.2285 39.4702 39.0459 38.5342 39.5908 37.374C38.9053 36.8643 38.5625 36.1875 38.5625 35.3438C38.5625 34.834 38.7031 34.3682 38.9844 33.9463C39.2656 33.5244 39.6348 33.2168 40.0918 33.0234C39.7402 31.4941 38.9536 30.2329 37.7319 29.2397C36.5103 28.2466 35.0996 27.75 33.5 27.75ZM33.5 37.875C32.5684 37.875 31.7729 37.5454 31.1138 36.8862C30.4546 36.2271 30.125 35.4316 30.125 34.5C30.125 33.5684 30.4546 32.7729 31.1138 32.1138C31.7729 31.4546 32.5684 31.125 33.5 31.125C34.4316 31.125 35.2271 31.4546 35.8862 32.1138C36.5454 32.7729 36.875 33.5684 36.875 34.5C36.875 35.4316 36.5454 36.2271 35.8862 36.8862C35.2271 37.5454 34.4316 37.875 33.5 37.875Z" fill="white"/>
<defs>
<linearGradient id="paint0_linear" x1="33.5" y1="-33.5" x2="-33.5" y2="33.5" gradientUnits="userSpaceOnUse">
<stop stop-color="#FB3331"/>
<stop offset="1" stop-color="#F42B29"/>
</linearGradient>
</defs>
</svg>
