<svg width="45" height="129" viewBox="0 0 45 129" fill="none" xmlns="http://www.w3.org/2000/svg">
<path fill-rule="evenodd" clip-rule="evenodd" d="M43.0393 128.157C42.4219 128.157 41.9214 127.709 41.9214 127.157C41.9214 126.605 42.4219 126.157 43.0393 126.157C43.6567 126.157 44.1572 126.605 44.1572 127.157C44.1572 127.709 43.6567 128.157 43.0393 128.157ZM41.9214 113.157C41.9214 113.709 42.4219 114.157 43.0393 114.157C43.6567 114.157 44.1572 113.709 44.1572 113.157C44.1572 112.605 43.6567 112.157 43.0393 112.157C42.4219 112.157 41.9214 112.605 41.9214 113.157ZM43.0393 100.157C42.4219 100.157 41.9214 99.7095 41.9214 99.1572C41.9214 98.6049 42.4219 98.1572 43.0393 98.1572C43.6567 98.1572 44.1572 98.6049 44.1572 99.1572C44.1572 99.7095 43.6567 100.157 43.0393 100.157ZM41.9214 85.1572C41.9214 85.7095 42.4219 86.1572 43.0393 86.1572C43.6567 86.1572 44.1572 85.7095 44.1572 85.1572C44.1572 84.6049 43.6567 84.1572 43.0393 84.1572C42.4219 84.1572 41.9214 84.6049 41.9214 85.1572ZM43.0393 72.1572C42.4219 72.1572 41.9214 71.7095 41.9214 71.1572C41.9214 70.6049 42.4219 70.1572 43.0393 70.1572C43.6567 70.1572 44.1572 70.6049 44.1572 71.1572C44.1572 71.7095 43.6567 72.1572 43.0393 72.1572ZM41.9214 57.1572C41.9214 57.7095 42.4219 58.1572 43.0393 58.1572C43.6567 58.1572 44.1572 57.7095 44.1572 57.1572C44.1572 56.6049 43.6567 56.1572 43.0393 56.1572C42.4219 56.1572 41.9214 56.6049 41.9214 57.1572ZM43.0393 2.15721C42.4219 2.15721 41.9214 1.7095 41.9214 1.15721C41.9214 0.604926 42.4219 0.157211 43.0393 0.157211C43.6567 0.157211 44.1572 0.604927 44.1572 1.15721C44.1572 1.7095 43.6567 2.15721 43.0393 2.15721ZM43.0393 16.1572C42.4219 16.1572 41.9214 15.7095 41.9214 15.1572C41.9214 14.6049 42.4219 14.1572 43.0393 14.1572C43.6567 14.1572 44.1572 14.6049 44.1572 15.1572C44.1572 15.7095 43.6567 16.1572 43.0393 16.1572ZM41.9214 29.1572C41.9214 29.7095 42.4219 30.1572 43.0393 30.1572C43.6567 30.1572 44.1572 29.7095 44.1572 29.1572C44.1572 28.6049 43.6567 28.1572 43.0393 28.1572C42.4219 28.1572 41.9214 28.6049 41.9214 29.1572ZM43.0393 44.1572C42.4219 44.1572 41.9214 43.7095 41.9214 43.1572C41.9214 42.6049 42.4219 42.1572 43.0393 42.1572C43.6567 42.1572 44.1572 42.6049 44.1572 43.1572C44.1572 43.7095 43.6567 44.1572 43.0393 44.1572ZM29.0654 2.15721C28.448 2.15721 27.9475 1.7095 27.9475 1.15721C27.9475 0.604926 28.448 0.157211 29.0654 0.157211C29.6828 0.157211 30.1833 0.604927 30.1833 1.15721C30.1833 1.7095 29.6828 2.15721 29.0654 2.15721ZM29.0652 16.1572C28.4478 16.1572 27.9473 15.7095 27.9473 15.1572C27.9473 14.6049 28.4478 14.1572 29.0652 14.1572C29.6826 14.1572 30.1831 14.6049 30.1831 15.1572C30.1831 15.7095 29.6826 16.1572 29.0652 16.1572ZM27.9473 29.1572C27.9473 29.7095 28.4478 30.1572 29.0652 30.1572C29.6826 30.1572 30.1831 29.7095 30.1831 29.1572C30.1831 28.6049 29.6826 28.1572 29.0652 28.1572C28.4478 28.1572 27.9473 28.6049 27.9473 29.1572ZM29.0652 44.1572C28.4478 44.1572 27.9473 43.7095 27.9473 43.1572C27.9473 42.6049 28.4478 42.1572 29.0652 42.1572C29.6826 42.1572 30.1831 42.6049 30.1831 43.1572C30.1831 43.7095 29.6826 44.1572 29.0652 44.1572ZM27.9473 57.1572C27.9473 57.7095 28.4478 58.1572 29.0652 58.1572C29.6826 58.1572 30.1831 57.7095 30.1831 57.1572C30.1831 56.6049 29.6826 56.1572 29.0652 56.1572C28.4478 56.1572 27.9473 56.6049 27.9473 57.1572ZM29.0652 72.1572C28.4478 72.1572 27.9473 71.7095 27.9473 71.1572C27.9473 70.6049 28.4478 70.1572 29.0652 70.1572C29.6826 70.1572 30.1831 70.6049 30.1831 71.1572C30.1831 71.7095 29.6826 72.1572 29.0652 72.1572ZM27.9473 85.1572C27.9473 85.7095 28.4478 86.1572 29.0652 86.1572C29.6826 86.1572 30.1831 85.7095 30.1831 85.1572C30.1831 84.6049 29.6826 84.1572 29.0652 84.1572C28.4478 84.1572 27.9473 84.6049 27.9473 85.1572ZM29.0652 100.157C28.4478 100.157 27.9473 99.7095 27.9473 99.1572C27.9473 98.6049 28.4478 98.1572 29.0652 98.1572C29.6826 98.1572 30.1831 98.6049 30.1831 99.1572C30.1831 99.7095 29.6826 100.157 29.0652 100.157ZM27.9473 113.157C27.9473 113.709 28.4478 114.157 29.0652 114.157C29.6826 114.157 30.1831 113.709 30.1831 113.157C30.1831 112.605 29.6826 112.157 29.0652 112.157C28.4478 112.157 27.9473 112.605 27.9473 113.157ZM29.0652 128.157C28.4478 128.157 27.9473 127.709 27.9473 127.157C27.9473 126.605 28.4478 126.157 29.0652 126.157C29.6826 126.157 30.1831 126.605 30.1831 127.157C30.1831 127.709 29.6826 128.157 29.0652 128.157ZM13.9739 1.15721C13.9739 1.7095 14.4744 2.15721 15.0918 2.15721C15.7092 2.15721 16.2097 1.7095 16.2097 1.15721C16.2097 0.604927 15.7092 0.15721 15.0918 0.15721C14.4744 0.15721 13.9739 0.604926 13.9739 1.15721ZM13.9737 15.1572C13.9737 15.7095 14.4742 16.1572 15.0916 16.1572C15.709 16.1572 16.2095 15.7095 16.2095 15.1572C16.2095 14.6049 15.709 14.1572 15.0916 14.1572C14.4742 14.1572 13.9737 14.6049 13.9737 15.1572ZM15.0916 30.1572C14.4742 30.1572 13.9737 29.7095 13.9737 29.1572C13.9737 28.6049 14.4742 28.1572 15.0916 28.1572C15.709 28.1572 16.2095 28.6049 16.2095 29.1572C16.2095 29.7095 15.709 30.1572 15.0916 30.1572ZM13.9737 43.1572C13.9737 43.7095 14.4742 44.1572 15.0916 44.1572C15.709 44.1572 16.2095 43.7095 16.2095 43.1572C16.2095 42.6049 15.709 42.1572 15.0916 42.1572C14.4742 42.1572 13.9737 42.6049 13.9737 43.1572ZM15.0916 58.1572C14.4742 58.1572 13.9737 57.7095 13.9737 57.1572C13.9737 56.6049 14.4742 56.1572 15.0916 56.1572C15.709 56.1572 16.2095 56.6049 16.2095 57.1572C16.2095 57.7095 15.709 58.1572 15.0916 58.1572ZM13.9737 71.1572C13.9737 71.7095 14.4742 72.1572 15.0916 72.1572C15.709 72.1572 16.2095 71.7095 16.2095 71.1572C16.2095 70.6049 15.709 70.1572 15.0916 70.1572C14.4742 70.1572 13.9737 70.6049 13.9737 71.1572ZM15.0916 86.1572C14.4742 86.1572 13.9737 85.7095 13.9737 85.1572C13.9737 84.6049 14.4742 84.1572 15.0916 84.1572C15.709 84.1572 16.2095 84.6049 16.2095 85.1572C16.2095 85.7095 15.709 86.1572 15.0916 86.1572ZM13.9737 99.1572C13.9737 99.7095 14.4742 100.157 15.0916 100.157C15.709 100.157 16.2095 99.7095 16.2095 99.1572C16.2095 98.6049 15.709 98.1572 15.0916 98.1572C14.4742 98.1572 13.9737 98.6049 13.9737 99.1572ZM15.0916 114.157C14.4742 114.157 13.9737 113.709 13.9737 113.157C13.9737 112.605 14.4742 112.157 15.0916 112.157C15.709 112.157 16.2095 112.605 16.2095 113.157C16.2095 113.709 15.709 114.157 15.0916 114.157ZM13.9737 127.157C13.9737 127.709 14.4742 128.157 15.0916 128.157C15.709 128.157 16.2095 127.709 16.2095 127.157C16.2095 126.605 15.709 126.157 15.0916 126.157C14.4742 126.157 13.9737 126.605 13.9737 127.157ZM1.11793 128.157C0.500528 128.157 2.49421e-05 127.709 2.49662e-05 127.157C2.49904e-05 126.605 0.500529 126.157 1.11793 126.157C1.73533 126.157 2.23583 126.605 2.23583 127.157C2.23583 127.709 1.73533 128.157 1.11793 128.157ZM2.55782e-05 113.157C2.55541e-05 113.709 0.500529 114.157 1.11793 114.157C1.73533 114.157 2.23583 113.709 2.23583 113.157C2.23583 112.605 1.73533 112.157 1.11793 112.157C0.500529 112.157 2.56023e-05 112.605 2.55782e-05 113.157ZM1.11793 100.157C0.50053 100.157 2.6166e-05 99.7095 2.61902e-05 99.1572C2.62143e-05 98.6049 0.50053 98.1572 1.11793 98.1572C1.73533 98.1572 2.23584 98.6049 2.23584 99.1572C2.23584 99.7095 1.73533 100.157 1.11793 100.157ZM2.68021e-05 85.1572C2.6778e-05 85.7095 0.50053 86.1572 1.11793 86.1572C1.73533 86.1572 2.23584 85.7095 2.23584 85.1572C2.23584 84.6049 1.73533 84.1572 1.11793 84.1572C0.50053 84.1572 2.68263e-05 84.6049 2.68021e-05 85.1572ZM1.11793 72.1572C0.500527 72.1572 2.73899e-05 71.7095 2.74141e-05 71.1572C2.74382e-05 70.6049 0.500527 70.1572 1.11793 70.1572C1.73533 70.1572 2.23583 70.6049 2.23583 71.1572C2.23583 71.7095 1.73533 72.1572 1.11793 72.1572ZM2.8026e-05 57.1572C2.80019e-05 57.7095 0.500528 58.1572 1.11793 58.1572C1.73533 58.1572 2.23583 57.7095 2.23583 57.1572C2.23583 56.6049 1.73533 56.1572 1.11793 56.1572C0.500528 56.1572 2.80502e-05 56.6049 2.8026e-05 57.1572ZM1.11793 2.15721C0.50053 2.15721 2.6635e-05 1.7095 2.66592e-05 1.15721C2.66833e-05 0.604926 0.50053 0.157209 1.11793 0.157209C1.73533 0.157209 2.23584 0.604927 2.23584 1.15721C2.23584 1.7095 1.73533 2.15721 1.11793 2.15721ZM1.11793 16.1572C0.50053 16.1572 2.60231e-05 15.7095 2.60472e-05 15.1572C2.60714e-05 14.6049 0.50053 14.1572 1.11793 14.1572C1.73533 14.1572 2.23584 14.6049 2.23584 15.1572C2.23584 15.7095 1.73533 16.1572 1.11793 16.1572ZM2.54353e-05 29.1572C2.54111e-05 29.7095 0.500529 30.1572 1.11793 30.1572C1.73533 30.1572 2.23583 29.7095 2.23583 29.1572C2.23583 28.6049 1.73533 28.1572 1.11793 28.1572C0.500529 28.1572 2.54594e-05 28.6049 2.54353e-05 29.1572ZM1.11793 44.1572C0.500528 44.1572 2.47992e-05 43.7095 2.48233e-05 43.1572C2.48474e-05 42.6049 0.500528 42.1572 1.11793 42.1572C1.73533 42.1572 2.23583 42.6049 2.23583 43.1572C2.23583 43.7095 1.73533 44.1572 1.11793 44.1572Z" fill="#32397C"/>
</svg>
