<svg width="256" height="256" viewBox="0 0 256 256" fill="none" xmlns="http://www.w3.org/2000/svg">
<path fill-rule="evenodd" clip-rule="evenodd" d="M4 2.23581C4 3.47061 3.10457 4.47162 2 4.47162C0.895431 4.47162 0 3.47061 0 2.23581C0 1.00101 0.895431 0 2 0C3.10457 0 4 1.00101 4 2.23581ZM32 2.23581C32 3.47061 31.1046 4.47162 30 4.47162C28.8954 4.47162 28 3.47061 28 2.23581C28 1.00101 28.8954 0 30 0C31.1046 0 32 1.00101 32 2.23581ZM58 4.47162C59.1046 4.47162 60 3.47061 60 2.23581C60 1.00101 59.1046 0 58 0C56.8954 0 56 1.00101 56 2.23581C56 3.47061 56.8954 4.47162 58 4.47162ZM88 2.23581C88 3.47061 87.1046 4.47162 86 4.47162C84.8954 4.47162 84 3.47061 84 2.23581C84 1.00101 84.8954 0 86 0C87.1046 0 88 1.00101 88 2.23581ZM114 4.47162C115.105 4.47162 116 3.47061 116 2.23581C116 1.00101 115.105 0 114 0C112.895 0 112 1.00101 112 2.23581C112 3.47061 112.895 4.47162 114 4.47162ZM144 2.23581C144 3.47061 143.105 4.47162 142 4.47162C140.895 4.47162 140 3.47061 140 2.23581C140 1.00101 140.895 0 142 0C143.105 0 144 1.00101 144 2.23581ZM170 4.47162C171.105 4.47162 172 3.47061 172 2.23581C172 1.00101 171.105 0 170 0C168.895 0 168 1.00101 168 2.23581C168 3.47061 168.895 4.47162 170 4.47162ZM200 2.23581C200 3.47061 199.105 4.47162 198 4.47162C196.895 4.47162 196 3.47061 196 2.23581C196 1.00101 196.895 0 198 0C199.105 0 200 1.00101 200 2.23581ZM226 4.47162C227.105 4.47162 228 3.47061 228 2.23581C228 1.00101 227.105 0 226 0C224.895 0 224 1.00101 224 2.23581C224 3.47061 224.895 4.47162 226 4.47162ZM256 2.23581C256 3.47061 255.105 4.47162 254 4.47162C252.895 4.47162 252 3.47061 252 2.23581C252 1.00101 252.895 0 254 0C255.105 0 256 1.00101 256 2.23581ZM4 30.1834C4 31.4182 3.10457 32.4192 2 32.4192C0.895431 32.4192 0 31.4182 0 30.1834C0 28.9486 0.895431 27.9476 2 27.9476C3.10457 27.9476 4 28.9486 4 30.1834ZM32 30.1834C32 31.4182 31.1046 32.4192 30 32.4192C28.8954 32.4192 28 31.4182 28 30.1834C28 28.9486 28.8954 27.9476 30 27.9476C31.1046 27.9476 32 28.9486 32 30.1834ZM58 32.4192C59.1046 32.4192 60 31.4182 60 30.1834C60 28.9486 59.1046 27.9476 58 27.9476C56.8954 27.9476 56 28.9486 56 30.1834C56 31.4182 56.8954 32.4192 58 32.4192ZM88 30.1834C88 31.4182 87.1046 32.4192 86 32.4192C84.8954 32.4192 84 31.4182 84 30.1834C84 28.9486 84.8954 27.9476 86 27.9476C87.1046 27.9476 88 28.9486 88 30.1834ZM114 32.4192C115.105 32.4192 116 31.4182 116 30.1834C116 28.9486 115.105 27.9476 114 27.9476C112.895 27.9476 112 28.9486 112 30.1834C112 31.4182 112.895 32.4192 114 32.4192ZM144 30.1834C144 31.4182 143.105 32.4192 142 32.4192C140.895 32.4192 140 31.4182 140 30.1834C140 28.9486 140.895 27.9476 142 27.9476C143.105 27.9476 144 28.9486 144 30.1834ZM170 32.4192C171.105 32.4192 172 31.4182 172 30.1834C172 28.9486 171.105 27.9476 170 27.9476C168.895 27.9476 168 28.9486 168 30.1834C168 31.4182 168.895 32.4192 170 32.4192ZM200 30.1834C200 31.4182 199.105 32.4192 198 32.4192C196.895 32.4192 196 31.4182 196 30.1834C196 28.9486 196.895 27.9476 198 27.9476C199.105 27.9476 200 28.9486 200 30.1834ZM226 32.4192C227.105 32.4192 228 31.4182 228 30.1834C228 28.9486 227.105 27.9476 226 27.9476C224.895 27.9476 224 28.9486 224 30.1834C224 31.4182 224.895 32.4192 226 32.4192ZM256 30.1834C256 31.4182 255.105 32.4192 254 32.4192C252.895 32.4192 252 31.4182 252 30.1834C252 28.9486 252.895 27.9476 254 27.9476C255.105 27.9476 256 28.9486 256 30.1834ZM2 60.3668C3.10457 60.3668 4 59.3658 4 58.131C4 56.8962 3.10457 55.8952 2 55.8952C0.895431 55.8952 0 56.8962 0 58.131C0 59.3658 0.895431 60.3668 2 60.3668ZM30 60.3668C31.1046 60.3668 32 59.3658 32 58.131C32 56.8962 31.1046 55.8952 30 55.8952C28.8954 55.8952 28 56.8962 28 58.131C28 59.3658 28.8954 60.3668 30 60.3668ZM60 58.131C60 59.3658 59.1046 60.3668 58 60.3668C56.8954 60.3668 56 59.3658 56 58.131C56 56.8962 56.8954 55.8952 58 55.8952C59.1046 55.8952 60 56.8962 60 58.131ZM86 60.3668C87.1046 60.3668 88 59.3658 88 58.131C88 56.8962 87.1046 55.8952 86 55.8952C84.8954 55.8952 84 56.8962 84 58.131C84 59.3658 84.8954 60.3668 86 60.3668ZM116 58.131C116 59.3658 115.105 60.3668 114 60.3668C112.895 60.3668 112 59.3658 112 58.131C112 56.8962 112.895 55.8952 114 55.8952C115.105 55.8952 116 56.8962 116 58.131ZM142 60.3668C143.105 60.3668 144 59.3658 144 58.131C144 56.8962 143.105 55.8952 142 55.8952C140.895 55.8952 140 56.8962 140 58.131C140 59.3658 140.895 60.3668 142 60.3668ZM172 58.131C172 59.3658 171.105 60.3668 170 60.3668C168.895 60.3668 168 59.3658 168 58.131C168 56.8962 168.895 55.8952 170 55.8952C171.105 55.8952 172 56.8962 172 58.131ZM198 60.3668C199.105 60.3668 200 59.3658 200 58.131C200 56.8962 199.105 55.8952 198 55.8952C196.895 55.8952 196 56.8962 196 58.131C196 59.3658 196.895 60.3668 198 60.3668ZM228 58.131C228 59.3658 227.105 60.3668 226 60.3668C224.895 60.3668 224 59.3658 224 58.131C224 56.8962 224.895 55.8952 226 55.8952C227.105 55.8952 228 56.8962 228 58.131ZM254 60.3668C255.105 60.3668 256 59.3658 256 58.131C256 56.8962 255.105 55.8952 254 55.8952C252.895 55.8952 252 56.8962 252 58.131C252 59.3658 252.895 60.3668 254 60.3668ZM4 86.0786C4 87.3134 3.10457 88.3144 2 88.3144C0.895431 88.3144 0 87.3134 0 86.0786C0 84.8438 0.895431 83.8428 2 83.8428C3.10457 83.8428 4 84.8438 4 86.0786ZM32 86.0786C32 87.3134 31.1046 88.3144 30 88.3144C28.8954 88.3144 28 87.3134 28 86.0786C28 84.8438 28.8954 83.8428 30 83.8428C31.1046 83.8428 32 84.8438 32 86.0786ZM58 88.3144C59.1046 88.3144 60 87.3134 60 86.0786C60 84.8438 59.1046 83.8428 58 83.8428C56.8954 83.8428 56 84.8438 56 86.0786C56 87.3134 56.8954 88.3144 58 88.3144ZM88 86.0786C88 87.3134 87.1046 88.3144 86 88.3144C84.8954 88.3144 84 87.3134 84 86.0786C84 84.8438 84.8954 83.8428 86 83.8428C87.1046 83.8428 88 84.8438 88 86.0786ZM114 88.3144C115.105 88.3144 116 87.3134 116 86.0786C116 84.8438 115.105 83.8428 114 83.8428C112.895 83.8428 112 84.8438 112 86.0786C112 87.3134 112.895 88.3144 114 88.3144ZM144 86.0786C144 87.3134 143.105 88.3144 142 88.3144C140.895 88.3144 140 87.3134 140 86.0786C140 84.8438 140.895 83.8428 142 83.8428C143.105 83.8428 144 84.8438 144 86.0786ZM170 88.3144C171.105 88.3144 172 87.3134 172 86.0786C172 84.8438 171.105 83.8428 170 83.8428C168.895 83.8428 168 84.8438 168 86.0786C168 87.3134 168.895 88.3144 170 88.3144ZM200 86.0786C200 87.3134 199.105 88.3144 198 88.3144C196.895 88.3144 196 87.3134 196 86.0786C196 84.8438 196.895 83.8428 198 83.8428C199.105 83.8428 200 84.8438 200 86.0786ZM226 88.3144C227.105 88.3144 228 87.3134 228 86.0786C228 84.8438 227.105 83.8428 226 83.8428C224.895 83.8428 224 84.8438 224 86.0786C224 87.3134 224.895 88.3144 226 88.3144ZM256 86.0786C256 87.3134 255.105 88.3144 254 88.3144C252.895 88.3144 252 87.3134 252 86.0786C252 84.8438 252.895 83.8428 254 83.8428C255.105 83.8428 256 84.8438 256 86.0786ZM2 116.262C3.10457 116.262 4 115.261 4 114.026C4 112.791 3.10457 111.79 2 111.79C0.895431 111.79 0 112.791 0 114.026C0 115.261 0.895431 116.262 2 116.262ZM30 116.262C31.1046 116.262 32 115.261 32 114.026C32 112.791 31.1046 111.79 30 111.79C28.8954 111.79 28 112.791 28 114.026C28 115.261 28.8954 116.262 30 116.262ZM60 114.026C60 115.261 59.1046 116.262 58 116.262C56.8954 116.262 56 115.261 56 114.026C56 112.791 56.8954 111.79 58 111.79C59.1046 111.79 60 112.791 60 114.026ZM86 116.262C87.1046 116.262 88 115.261 88 114.026C88 112.791 87.1046 111.79 86 111.79C84.8954 111.79 84 112.791 84 114.026C84 115.261 84.8954 116.262 86 116.262ZM116 114.026C116 115.261 115.105 116.262 114 116.262C112.895 116.262 112 115.261 112 114.026C112 112.791 112.895 111.79 114 111.79C115.105 111.79 116 112.791 116 114.026ZM142 116.262C143.105 116.262 144 115.261 144 114.026C144 112.791 143.105 111.79 142 111.79C140.895 111.79 140 112.791 140 114.026C140 115.261 140.895 116.262 142 116.262ZM172 114.026C172 115.261 171.105 116.262 170 116.262C168.895 116.262 168 115.261 168 114.026C168 112.791 168.895 111.79 170 111.79C171.105 111.79 172 112.791 172 114.026ZM198 116.262C199.105 116.262 200 115.261 200 114.026C200 112.791 199.105 111.79 198 111.79C196.895 111.79 196 112.791 196 114.026C196 115.261 196.895 116.262 198 116.262ZM228 114.026C228 115.261 227.105 116.262 226 116.262C224.895 116.262 224 115.261 224 114.026C224 112.791 224.895 111.79 226 111.79C227.105 111.79 228 112.791 228 114.026ZM254 116.262C255.105 116.262 256 115.261 256 114.026C256 112.791 255.105 111.79 254 111.79C252.895 111.79 252 112.791 252 114.026C252 115.261 252.895 116.262 254 116.262ZM4 141.974C4 143.209 3.10457 144.21 2 144.21C0.895431 144.21 0 143.209 0 141.974C0 140.739 0.895431 139.738 2 139.738C3.10457 139.738 4 140.739 4 141.974ZM32 141.974C32 143.209 31.1046 144.21 30 144.21C28.8954 144.21 28 143.209 28 141.974C28 140.739 28.8954 139.738 30 139.738C31.1046 139.738 32 140.739 32 141.974ZM58 144.21C59.1046 144.21 60 143.209 60 141.974C60 140.739 59.1046 139.738 58 139.738C56.8954 139.738 56 140.739 56 141.974C56 143.209 56.8954 144.21 58 144.21ZM88 141.974C88 143.209 87.1046 144.21 86 144.21C84.8954 144.21 84 143.209 84 141.974C84 140.739 84.8954 139.738 86 139.738C87.1046 139.738 88 140.739 88 141.974ZM114 144.21C115.105 144.21 116 143.209 116 141.974C116 140.739 115.105 139.738 114 139.738C112.895 139.738 112 140.739 112 141.974C112 143.209 112.895 144.21 114 144.21ZM144 141.974C144 143.209 143.105 144.21 142 144.21C140.895 144.21 140 143.209 140 141.974C140 140.739 140.895 139.738 142 139.738C143.105 139.738 144 140.739 144 141.974ZM170 144.21C171.105 144.21 172 143.209 172 141.974C172 140.739 171.105 139.738 170 139.738C168.895 139.738 168 140.739 168 141.974C168 143.209 168.895 144.21 170 144.21ZM200 141.974C200 143.209 199.105 144.21 198 144.21C196.895 144.21 196 143.209 196 141.974C196 140.739 196.895 139.738 198 139.738C199.105 139.738 200 140.739 200 141.974ZM226 144.21C227.105 144.21 228 143.209 228 141.974C228 140.739 227.105 139.738 226 139.738C224.895 139.738 224 140.739 224 141.974C224 143.209 224.895 144.21 226 144.21ZM256 141.974C256 143.209 255.105 144.21 254 144.21C252.895 144.21 252 143.209 252 141.974C252 140.739 252.895 139.738 254 139.738C255.105 139.738 256 140.739 256 141.974ZM2 172.157C3.10457 172.157 4 171.156 4 169.921C4 168.687 3.10457 167.686 2 167.686C0.895431 167.686 0 168.687 0 169.921C0 171.156 0.895431 172.157 2 172.157ZM30 172.157C31.1046 172.157 32 171.156 32 169.921C32 168.687 31.1046 167.686 30 167.686C28.8954 167.686 28 168.687 28 169.921C28 171.156 28.8954 172.157 30 172.157ZM60 169.921C60 171.156 59.1046 172.157 58 172.157C56.8954 172.157 56 171.156 56 169.921C56 168.687 56.8954 167.686 58 167.686C59.1046 167.686 60 168.687 60 169.921ZM86 172.157C87.1046 172.157 88 171.156 88 169.921C88 168.687 87.1046 167.686 86 167.686C84.8954 167.686 84 168.687 84 169.921C84 171.156 84.8954 172.157 86 172.157ZM116 169.921C116 171.156 115.105 172.157 114 172.157C112.895 172.157 112 171.156 112 169.921C112 168.687 112.895 167.686 114 167.686C115.105 167.686 116 168.687 116 169.921ZM142 172.157C143.105 172.157 144 171.156 144 169.921C144 168.687 143.105 167.686 142 167.686C140.895 167.686 140 168.687 140 169.921C140 171.156 140.895 172.157 142 172.157ZM172 169.921C172 171.156 171.105 172.157 170 172.157C168.895 172.157 168 171.156 168 169.921C168 168.687 168.895 167.686 170 167.686C171.105 167.686 172 168.687 172 169.921ZM198 172.157C199.105 172.157 200 171.156 200 169.921C200 168.687 199.105 167.686 198 167.686C196.895 167.686 196 168.687 196 169.921C196 171.156 196.895 172.157 198 172.157ZM228 169.921C228 171.156 227.105 172.157 226 172.157C224.895 172.157 224 171.156 224 169.921C224 168.687 224.895 167.686 226 167.686C227.105 167.686 228 168.687 228 169.921ZM254 172.157C255.105 172.157 256 171.156 256 169.921C256 168.687 255.105 167.686 254 167.686C252.895 167.686 252 168.687 252 169.921C252 171.156 252.895 172.157 254 172.157ZM4 197.869C4 199.104 3.10457 200.105 2 200.105C0.895431 200.105 0 199.104 0 197.869C0 196.634 0.895431 195.633 2 195.633C3.10457 195.633 4 196.634 4 197.869ZM32 197.869C32 199.104 31.1046 200.105 30 200.105C28.8954 200.105 28 199.104 28 197.869C28 196.634 28.8954 195.633 30 195.633C31.1046 195.633 32 196.634 32 197.869ZM58 200.105C59.1046 200.105 60 199.104 60 197.869C60 196.634 59.1046 195.633 58 195.633C56.8954 195.633 56 196.634 56 197.869C56 199.104 56.8954 200.105 58 200.105ZM88 197.869C88 199.104 87.1046 200.105 86 200.105C84.8954 200.105 84 199.104 84 197.869C84 196.634 84.8954 195.633 86 195.633C87.1046 195.633 88 196.634 88 197.869ZM114 200.105C115.105 200.105 116 199.104 116 197.869C116 196.634 115.105 195.633 114 195.633C112.895 195.633 112 196.634 112 197.869C112 199.104 112.895 200.105 114 200.105ZM144 197.869C144 199.104 143.105 200.105 142 200.105C140.895 200.105 140 199.104 140 197.869C140 196.634 140.895 195.633 142 195.633C143.105 195.633 144 196.634 144 197.869ZM170 200.105C171.105 200.105 172 199.104 172 197.869C172 196.634 171.105 195.633 170 195.633C168.895 195.633 168 196.634 168 197.869C168 199.104 168.895 200.105 170 200.105ZM200 197.869C200 199.104 199.105 200.105 198 200.105C196.895 200.105 196 199.104 196 197.869C196 196.634 196.895 195.633 198 195.633C199.105 195.633 200 196.634 200 197.869ZM226 200.105C227.105 200.105 228 199.104 228 197.869C228 196.634 227.105 195.633 226 195.633C224.895 195.633 224 196.634 224 197.869C224 199.104 224.895 200.105 226 200.105ZM256 197.869C256 199.104 255.105 200.105 254 200.105C252.895 200.105 252 199.104 252 197.869C252 196.634 252.895 195.633 254 195.633C255.105 195.633 256 196.634 256 197.869ZM2 228.052C3.10457 228.052 4 227.051 4 225.817C4 224.582 3.10457 223.581 2 223.581C0.895431 223.581 0 224.582 0 225.817C0 227.051 0.895431 228.052 2 228.052ZM30 228.052C31.1046 228.052 32 227.051 32 225.817C32 224.582 31.1046 223.581 30 223.581C28.8954 223.581 28 224.582 28 225.817C28 227.051 28.8954 228.052 30 228.052ZM60 225.817C60 227.051 59.1046 228.052 58 228.052C56.8954 228.052 56 227.051 56 225.817C56 224.582 56.8954 223.581 58 223.581C59.1046 223.581 60 224.582 60 225.817ZM86 228.052C87.1046 228.052 88 227.051 88 225.817C88 224.582 87.1046 223.581 86 223.581C84.8954 223.581 84 224.582 84 225.817C84 227.051 84.8954 228.052 86 228.052ZM116 225.817C116 227.051 115.105 228.052 114 228.052C112.895 228.052 112 227.051 112 225.817C112 224.582 112.895 223.581 114 223.581C115.105 223.581 116 224.582 116 225.817ZM142 228.052C143.105 228.052 144 227.051 144 225.817C144 224.582 143.105 223.581 142 223.581C140.895 223.581 140 224.582 140 225.817C140 227.051 140.895 228.052 142 228.052ZM172 225.817C172 227.051 171.105 228.052 170 228.052C168.895 228.052 168 227.051 168 225.817C168 224.582 168.895 223.581 170 223.581C171.105 223.581 172 224.582 172 225.817ZM198 228.052C199.105 228.052 200 227.051 200 225.817C200 224.582 199.105 223.581 198 223.581C196.895 223.581 196 224.582 196 225.817C196 227.051 196.895 228.052 198 228.052ZM228 225.817C228 227.051 227.105 228.052 226 228.052C224.895 228.052 224 227.051 224 225.817C224 224.582 224.895 223.581 226 223.581C227.105 223.581 228 224.582 228 225.817ZM254 228.052C255.105 228.052 256 227.051 256 225.817C256 224.582 255.105 223.581 254 223.581C252.895 223.581 252 224.582 252 225.817C252 227.051 252.895 228.052 254 228.052ZM4 253.764C4 254.999 3.10457 256 2 256C0.895431 256 0 254.999 0 253.764C0 252.529 0.895431 251.528 2 251.528C3.10457 251.528 4 252.529 4 253.764ZM32 253.764C32 254.999 31.1046 256 30 256C28.8954 256 28 254.999 28 253.764C28 252.529 28.8954 251.528 30 251.528C31.1046 251.528 32 252.529 32 253.764ZM58 256C59.1046 256 60 254.999 60 253.764C60 252.529 59.1046 251.528 58 251.528C56.8954 251.528 56 252.529 56 253.764C56 254.999 56.8954 256 58 256ZM88 253.764C88 254.999 87.1046 256 86 256C84.8954 256 84 254.999 84 253.764C84 252.529 84.8954 251.528 86 251.528C87.1046 251.528 88 252.529 88 253.764ZM114 256C115.105 256 116 254.999 116 253.764C116 252.529 115.105 251.528 114 251.528C112.895 251.528 112 252.529 112 253.764C112 254.999 112.895 256 114 256ZM144 253.764C144 254.999 143.105 256 142 256C140.895 256 140 254.999 140 253.764C140 252.529 140.895 251.528 142 251.528C143.105 251.528 144 252.529 144 253.764ZM170 256C171.105 256 172 254.999 172 253.764C172 252.529 171.105 251.528 170 251.528C168.895 251.528 168 252.529 168 253.764C168 254.999 168.895 256 170 256ZM200 253.764C200 254.999 199.105 256 198 256C196.895 256 196 254.999 196 253.764C196 252.529 196.895 251.528 198 251.528C199.105 251.528 200 252.529 200 253.764ZM226 256C227.105 256 228 254.999 228 253.764C228 252.529 227.105 251.528 226 251.528C224.895 251.528 224 252.529 224 253.764C224 254.999 224.895 256 226 256ZM256 253.764C256 254.999 255.105 256 254 256C252.895 256 252 254.999 252 253.764C252 252.529 252.895 251.528 254 251.528C255.105 251.528 256 252.529 256 253.764Z" fill="#32397C"/>
</svg>
