<svg width="30" height="30" viewBox="0 0 30 30" fill="none" xmlns="http://www.w3.org/2000/svg">
<path fill-rule="evenodd" clip-rule="evenodd" d="M0.46875 0.262009C0.46875 0.406712 0.363817 0.524017 0.234375 0.524017C0.104933 0.524017 0 0.406712 0 0.262009C0 0.117305 0.104933 0 0.234375 0C0.363817 0 0.46875 0.117305 0.46875 0.262009ZM3.75 0.262009C3.75 0.406712 3.64507 0.524017 3.51562 0.524017C3.38618 0.524017 3.28125 0.406712 3.28125 0.262009C3.28125 0.117305 3.38618 0 3.51562 0C3.64507 0 3.75 0.117305 3.75 0.262009ZM6.79688 0.524017C6.92632 0.524017 7.03125 0.406712 7.03125 0.262009C7.03125 0.117305 6.92632 0 6.79688 0C6.66743 0 6.5625 0.117305 6.5625 0.262009C6.5625 0.406712 6.66743 0.524017 6.79688 0.524017ZM10.3125 0.262009C10.3125 0.406712 10.2076 0.524017 10.0781 0.524017C9.94868 0.524017 9.84375 0.406712 9.84375 0.262009C9.84375 0.117305 9.94868 0 10.0781 0C10.2076 0 10.3125 0.117305 10.3125 0.262009ZM13.3594 0.524017C13.4888 0.524017 13.5938 0.406712 13.5938 0.262009C13.5938 0.117305 13.4888 0 13.3594 0C13.2299 0 13.125 0.117305 13.125 0.262009C13.125 0.406712 13.2299 0.524017 13.3594 0.524017ZM16.875 0.262009C16.875 0.406712 16.7701 0.524017 16.6406 0.524017C16.5112 0.524017 16.4062 0.406712 16.4062 0.262009C16.4062 0.117305 16.5112 0 16.6406 0C16.7701 0 16.875 0.117305 16.875 0.262009ZM19.9219 0.524017C20.0513 0.524017 20.1562 0.406712 20.1562 0.262009C20.1562 0.117305 20.0513 0 19.9219 0C19.7924 0 19.6875 0.117305 19.6875 0.262009C19.6875 0.406712 19.7924 0.524017 19.9219 0.524017ZM23.4375 0.262009C23.4375 0.406712 23.3326 0.524017 23.2031 0.524017C23.0737 0.524017 22.9688 0.406712 22.9688 0.262009C22.9688 0.117305 23.0737 0 23.2031 0C23.3326 0 23.4375 0.117305 23.4375 0.262009ZM26.4844 0.524017C26.6138 0.524017 26.7188 0.406712 26.7188 0.262009C26.7188 0.117305 26.6138 0 26.4844 0C26.3549 0 26.25 0.117305 26.25 0.262009C26.25 0.406712 26.3549 0.524017 26.4844 0.524017ZM30 0.262009C30 0.406712 29.8951 0.524017 29.7656 0.524017C29.6362 0.524017 29.5312 0.406712 29.5312 0.262009C29.5312 0.117305 29.6362 0 29.7656 0C29.8951 0 30 0.117305 30 0.262009ZM0.46875 3.53713C0.46875 3.68183 0.363817 3.79913 0.234375 3.79913C0.104933 3.79913 0 3.68183 0 3.53713C0 3.39242 0.104933 3.27512 0.234375 3.27512C0.363817 3.27512 0.46875 3.39242 0.46875 3.53713ZM3.75 3.53713C3.75 3.68183 3.64507 3.79913 3.51562 3.79913C3.38618 3.79913 3.28125 3.68183 3.28125 3.53713C3.28125 3.39242 3.38618 3.27512 3.51562 3.27512C3.64507 3.27512 3.75 3.39242 3.75 3.53713ZM6.79688 3.79913C6.92632 3.79913 7.03125 3.68183 7.03125 3.53713C7.03125 3.39242 6.92632 3.27512 6.79688 3.27512C6.66743 3.27512 6.5625 3.39242 6.5625 3.53713C6.5625 3.68183 6.66743 3.79913 6.79688 3.79913ZM10.3125 3.53713C10.3125 3.68183 10.2076 3.79913 10.0781 3.79913C9.94868 3.79913 9.84375 3.68183 9.84375 3.53713C9.84375 3.39242 9.94868 3.27512 10.0781 3.27512C10.2076 3.27512 10.3125 3.39242 10.3125 3.53713ZM13.3594 3.79913C13.4888 3.79913 13.5938 3.68183 13.5938 3.53713C13.5938 3.39242 13.4888 3.27512 13.3594 3.27512C13.2299 3.27512 13.125 3.39242 13.125 3.53713C13.125 3.68183 13.2299 3.79913 13.3594 3.79913ZM16.875 3.53713C16.875 3.68183 16.7701 3.79913 16.6406 3.79913C16.5112 3.79913 16.4062 3.68183 16.4062 3.53713C16.4062 3.39242 16.5112 3.27512 16.6406 3.27512C16.7701 3.27512 16.875 3.39242 16.875 3.53713ZM19.9219 3.79913C20.0513 3.79913 20.1562 3.68183 20.1562 3.53713C20.1562 3.39242 20.0513 3.27512 19.9219 3.27512C19.7924 3.27512 19.6875 3.39242 19.6875 3.53713C19.6875 3.68183 19.7924 3.79913 19.9219 3.79913ZM23.4375 3.53713C23.4375 3.68183 23.3326 3.79913 23.2031 3.79913C23.0737 3.79913 22.9688 3.68183 22.9688 3.53713C22.9688 3.39242 23.0737 3.27512 23.2031 3.27512C23.3326 3.27512 23.4375 3.39242 23.4375 3.53713ZM26.4844 3.79913C26.6138 3.79913 26.7188 3.68183 26.7188 3.53713C26.7188 3.39242 26.6138 3.27512 26.4844 3.27512C26.3549 3.27512 26.25 3.39242 26.25 3.53713C26.25 3.68183 26.3549 3.79913 26.4844 3.79913ZM30 3.53713C30 3.68183 29.8951 3.79913 29.7656 3.79913C29.6362 3.79913 29.5312 3.68183 29.5312 3.53713C29.5312 3.39242 29.6362 3.27512 29.7656 3.27512C29.8951 3.27512 30 3.39242 30 3.53713ZM0.234375 7.07423C0.363817 7.07423 0.46875 6.95693 0.46875 6.81222C0.46875 6.66752 0.363817 6.55021 0.234375 6.55021C0.104933 6.55021 0 6.66752 0 6.81222C0 6.95693 0.104933 7.07423 0.234375 7.07423ZM3.51562 7.07423C3.64507 7.07423 3.75 6.95693 3.75 6.81222C3.75 6.66752 3.64507 6.55021 3.51562 6.55021C3.38618 6.55021 3.28125 6.66752 3.28125 6.81222C3.28125 6.95693 3.38618 7.07423 3.51562 7.07423ZM7.03125 6.81222C7.03125 6.95693 6.92632 7.07423 6.79688 7.07423C6.66743 7.07423 6.5625 6.95693 6.5625 6.81222C6.5625 6.66752 6.66743 6.55021 6.79688 6.55021C6.92632 6.55021 7.03125 6.66752 7.03125 6.81222ZM10.0781 7.07423C10.2076 7.07423 10.3125 6.95693 10.3125 6.81222C10.3125 6.66752 10.2076 6.55021 10.0781 6.55021C9.94868 6.55021 9.84375 6.66752 9.84375 6.81222C9.84375 6.95693 9.94868 7.07423 10.0781 7.07423ZM13.5938 6.81222C13.5938 6.95693 13.4888 7.07423 13.3594 7.07423C13.2299 7.07423 13.125 6.95693 13.125 6.81222C13.125 6.66752 13.2299 6.55021 13.3594 6.55021C13.4888 6.55021 13.5938 6.66752 13.5938 6.81222ZM16.6406 7.07423C16.7701 7.07423 16.875 6.95693 16.875 6.81222C16.875 6.66752 16.7701 6.55021 16.6406 6.55021C16.5112 6.55021 16.4062 6.66752 16.4062 6.81222C16.4062 6.95693 16.5112 7.07423 16.6406 7.07423ZM20.1562 6.81222C20.1562 6.95693 20.0513 7.07423 19.9219 7.07423C19.7924 7.07423 19.6875 6.95693 19.6875 6.81222C19.6875 6.66752 19.7924 6.55021 19.9219 6.55021C20.0513 6.55021 20.1562 6.66752 20.1562 6.81222ZM23.2031 7.07423C23.3326 7.07423 23.4375 6.95693 23.4375 6.81222C23.4375 6.66752 23.3326 6.55021 23.2031 6.55021C23.0737 6.55021 22.9688 6.66752 22.9688 6.81222C22.9688 6.95693 23.0737 7.07423 23.2031 7.07423ZM26.7188 6.81222C26.7188 6.95693 26.6138 7.07423 26.4844 7.07423C26.3549 7.07423 26.25 6.95693 26.25 6.81222C26.25 6.66752 26.3549 6.55021 26.4844 6.55021C26.6138 6.55021 26.7188 6.66752 26.7188 6.81222ZM29.7656 7.07423C29.8951 7.07423 30 6.95693 30 6.81222C30 6.66752 29.8951 6.55021 29.7656 6.55021C29.6362 6.55021 29.5312 6.66752 29.5312 6.81222C29.5312 6.95693 29.6362 7.07423 29.7656 7.07423ZM0.46875 10.0873C0.46875 10.232 0.363817 10.3493 0.234375 10.3493C0.104933 10.3493 0 10.232 0 10.0873C0 9.94263 0.104933 9.82533 0.234375 9.82533C0.363817 9.82533 0.46875 9.94263 0.46875 10.0873ZM3.75 10.0873C3.75 10.232 3.64507 10.3493 3.51562 10.3493C3.38618 10.3493 3.28125 10.232 3.28125 10.0873C3.28125 9.94263 3.38618 9.82533 3.51562 9.82533C3.64507 9.82533 3.75 9.94263 3.75 10.0873ZM6.79688 10.3493C6.92632 10.3493 7.03125 10.232 7.03125 10.0873C7.03125 9.94263 6.92632 9.82533 6.79688 9.82533C6.66743 9.82533 6.5625 9.94263 6.5625 10.0873C6.5625 10.232 6.66743 10.3493 6.79688 10.3493ZM10.3125 10.0873C10.3125 10.232 10.2076 10.3493 10.0781 10.3493C9.94868 10.3493 9.84375 10.232 9.84375 10.0873C9.84375 9.94263 9.94868 9.82533 10.0781 9.82533C10.2076 9.82533 10.3125 9.94263 10.3125 10.0873ZM13.3594 10.3493C13.4888 10.3493 13.5938 10.232 13.5938 10.0873C13.5938 9.94263 13.4888 9.82533 13.3594 9.82533C13.2299 9.82533 13.125 9.94263 13.125 10.0873C13.125 10.232 13.2299 10.3493 13.3594 10.3493ZM16.875 10.0873C16.875 10.232 16.7701 10.3493 16.6406 10.3493C16.5112 10.3493 16.4062 10.232 16.4062 10.0873C16.4062 9.94263 16.5112 9.82533 16.6406 9.82533C16.7701 9.82533 16.875 9.94263 16.875 10.0873ZM19.9219 10.3493C20.0513 10.3493 20.1562 10.232 20.1562 10.0873C20.1562 9.94263 20.0513 9.82533 19.9219 9.82533C19.7924 9.82533 19.6875 9.94263 19.6875 10.0873C19.6875 10.232 19.7924 10.3493 19.9219 10.3493ZM23.4375 10.0873C23.4375 10.232 23.3326 10.3493 23.2031 10.3493C23.0737 10.3493 22.9688 10.232 22.9688 10.0873C22.9688 9.94263 23.0737 9.82533 23.2031 9.82533C23.3326 9.82533 23.4375 9.94263 23.4375 10.0873ZM26.4844 10.3493C26.6138 10.3493 26.7188 10.232 26.7188 10.0873C26.7188 9.94263 26.6138 9.82533 26.4844 9.82533C26.3549 9.82533 26.25 9.94263 26.25 10.0873C26.25 10.232 26.3549 10.3493 26.4844 10.3493ZM30 10.0873C30 10.232 29.8951 10.3493 29.7656 10.3493C29.6362 10.3493 29.5312 10.232 29.5312 10.0873C29.5312 9.94263 29.6362 9.82533 29.7656 9.82533C29.8951 9.82533 30 9.94263 30 10.0873ZM0.234375 13.6244C0.363817 13.6244 0.46875 13.5071 0.46875 13.3624C0.46875 13.2177 0.363817 13.1004 0.234375 13.1004C0.104933 13.1004 0 13.2177 0 13.3624C0 13.5071 0.104933 13.6244 0.234375 13.6244ZM3.51562 13.6244C3.64507 13.6244 3.75 13.5071 3.75 13.3624C3.75 13.2177 3.64507 13.1004 3.51562 13.1004C3.38618 13.1004 3.28125 13.2177 3.28125 13.3624C3.28125 13.5071 3.38618 13.6244 3.51562 13.6244ZM7.03125 13.3624C7.03125 13.5071 6.92632 13.6244 6.79688 13.6244C6.66743 13.6244 6.5625 13.5071 6.5625 13.3624C6.5625 13.2177 6.66743 13.1004 6.79688 13.1004C6.92632 13.1004 7.03125 13.2177 7.03125 13.3624ZM10.0781 13.6244C10.2076 13.6244 10.3125 13.5071 10.3125 13.3624C10.3125 13.2177 10.2076 13.1004 10.0781 13.1004C9.94868 13.1004 9.84375 13.2177 9.84375 13.3624C9.84375 13.5071 9.94868 13.6244 10.0781 13.6244ZM13.5938 13.3624C13.5938 13.5071 13.4888 13.6244 13.3594 13.6244C13.2299 13.6244 13.125 13.5071 13.125 13.3624C13.125 13.2177 13.2299 13.1004 13.3594 13.1004C13.4888 13.1004 13.5938 13.2177 13.5938 13.3624ZM16.6406 13.6244C16.7701 13.6244 16.875 13.5071 16.875 13.3624C16.875 13.2177 16.7701 13.1004 16.6406 13.1004C16.5112 13.1004 16.4062 13.2177 16.4062 13.3624C16.4062 13.5071 16.5112 13.6244 16.6406 13.6244ZM20.1562 13.3624C20.1562 13.5071 20.0513 13.6244 19.9219 13.6244C19.7924 13.6244 19.6875 13.5071 19.6875 13.3624C19.6875 13.2177 19.7924 13.1004 19.9219 13.1004C20.0513 13.1004 20.1562 13.2177 20.1562 13.3624ZM23.2031 13.6244C23.3326 13.6244 23.4375 13.5071 23.4375 13.3624C23.4375 13.2177 23.3326 13.1004 23.2031 13.1004C23.0737 13.1004 22.9688 13.2177 22.9688 13.3624C22.9688 13.5071 23.0737 13.6244 23.2031 13.6244ZM26.7188 13.3624C26.7188 13.5071 26.6138 13.6244 26.4844 13.6244C26.3549 13.6244 26.25 13.5071 26.25 13.3624C26.25 13.2177 26.3549 13.1004 26.4844 13.1004C26.6138 13.1004 26.7188 13.2177 26.7188 13.3624ZM29.7656 13.6244C29.8951 13.6244 30 13.5071 30 13.3624C30 13.2177 29.8951 13.1004 29.7656 13.1004C29.6362 13.1004 29.5312 13.2177 29.5312 13.3624C29.5312 13.5071 29.6362 13.6244 29.7656 13.6244ZM0.46875 16.6376C0.46875 16.7823 0.363817 16.8996 0.234375 16.8996C0.104933 16.8996 0 16.7823 0 16.6376C0 16.4929 0.104933 16.3755 0.234375 16.3755C0.363817 16.3755 0.46875 16.4929 0.46875 16.6376ZM3.75 16.6376C3.75 16.7823 3.64507 16.8996 3.51562 16.8996C3.38618 16.8996 3.28125 16.7823 3.28125 16.6376C3.28125 16.4929 3.38618 16.3755 3.51562 16.3755C3.64507 16.3755 3.75 16.4929 3.75 16.6376ZM6.79688 16.8996C6.92632 16.8996 7.03125 16.7823 7.03125 16.6376C7.03125 16.4929 6.92632 16.3755 6.79688 16.3755C6.66743 16.3755 6.5625 16.4929 6.5625 16.6376C6.5625 16.7823 6.66743 16.8996 6.79688 16.8996ZM10.3125 16.6376C10.3125 16.7823 10.2076 16.8996 10.0781 16.8996C9.94868 16.8996 9.84375 16.7823 9.84375 16.6376C9.84375 16.4929 9.94868 16.3755 10.0781 16.3755C10.2076 16.3755 10.3125 16.4929 10.3125 16.6376ZM13.3594 16.8996C13.4888 16.8996 13.5938 16.7823 13.5938 16.6376C13.5938 16.4929 13.4888 16.3755 13.3594 16.3755C13.2299 16.3755 13.125 16.4929 13.125 16.6376C13.125 16.7823 13.2299 16.8996 13.3594 16.8996ZM16.875 16.6376C16.875 16.7823 16.7701 16.8996 16.6406 16.8996C16.5112 16.8996 16.4062 16.7823 16.4062 16.6376C16.4062 16.4929 16.5112 16.3755 16.6406 16.3755C16.7701 16.3755 16.875 16.4929 16.875 16.6376ZM19.9219 16.8996C20.0513 16.8996 20.1562 16.7823 20.1562 16.6376C20.1562 16.4929 20.0513 16.3755 19.9219 16.3755C19.7924 16.3755 19.6875 16.4929 19.6875 16.6376C19.6875 16.7823 19.7924 16.8996 19.9219 16.8996ZM23.4375 16.6376C23.4375 16.7823 23.3326 16.8996 23.2031 16.8996C23.0737 16.8996 22.9688 16.7823 22.9688 16.6376C22.9688 16.4929 23.0737 16.3755 23.2031 16.3755C23.3326 16.3755 23.4375 16.4929 23.4375 16.6376ZM26.4844 16.8996C26.6138 16.8996 26.7188 16.7823 26.7188 16.6376C26.7188 16.4929 26.6138 16.3755 26.4844 16.3755C26.3549 16.3755 26.25 16.4929 26.25 16.6376C26.25 16.7823 26.3549 16.8996 26.4844 16.8996ZM30 16.6376C30 16.7823 29.8951 16.8996 29.7656 16.8996C29.6362 16.8996 29.5312 16.7823 29.5312 16.6376C29.5312 16.4929 29.6362 16.3755 29.7656 16.3755C29.8951 16.3755 30 16.4929 30 16.6376ZM0.234375 20.1747C0.363817 20.1747 0.46875 20.0574 0.46875 19.9127C0.46875 19.768 0.363817 19.6507 0.234375 19.6507C0.104933 19.6507 0 19.768 0 19.9127C0 20.0574 0.104933 20.1747 0.234375 20.1747ZM3.51562 20.1747C3.64507 20.1747 3.75 20.0574 3.75 19.9127C3.75 19.768 3.64507 19.6507 3.51562 19.6507C3.38618 19.6507 3.28125 19.768 3.28125 19.9127C3.28125 20.0574 3.38618 20.1747 3.51562 20.1747ZM7.03125 19.9127C7.03125 20.0574 6.92632 20.1747 6.79688 20.1747C6.66743 20.1747 6.5625 20.0574 6.5625 19.9127C6.5625 19.768 6.66743 19.6507 6.79688 19.6507C6.92632 19.6507 7.03125 19.768 7.03125 19.9127ZM10.0781 20.1747C10.2076 20.1747 10.3125 20.0574 10.3125 19.9127C10.3125 19.768 10.2076 19.6507 10.0781 19.6507C9.94868 19.6507 9.84375 19.768 9.84375 19.9127C9.84375 20.0574 9.94868 20.1747 10.0781 20.1747ZM13.5938 19.9127C13.5938 20.0574 13.4888 20.1747 13.3594 20.1747C13.2299 20.1747 13.125 20.0574 13.125 19.9127C13.125 19.768 13.2299 19.6507 13.3594 19.6507C13.4888 19.6507 13.5938 19.768 13.5938 19.9127ZM16.6406 20.1747C16.7701 20.1747 16.875 20.0574 16.875 19.9127C16.875 19.768 16.7701 19.6507 16.6406 19.6507C16.5112 19.6507 16.4062 19.768 16.4062 19.9127C16.4062 20.0574 16.5112 20.1747 16.6406 20.1747ZM20.1562 19.9127C20.1562 20.0574 20.0513 20.1747 19.9219 20.1747C19.7924 20.1747 19.6875 20.0574 19.6875 19.9127C19.6875 19.768 19.7924 19.6507 19.9219 19.6507C20.0513 19.6507 20.1562 19.768 20.1562 19.9127ZM23.2031 20.1747C23.3326 20.1747 23.4375 20.0574 23.4375 19.9127C23.4375 19.768 23.3326 19.6507 23.2031 19.6507C23.0737 19.6507 22.9688 19.768 22.9688 19.9127C22.9688 20.0574 23.0737 20.1747 23.2031 20.1747ZM26.7188 19.9127C26.7188 20.0574 26.6138 20.1747 26.4844 20.1747C26.3549 20.1747 26.25 20.0574 26.25 19.9127C26.25 19.768 26.3549 19.6507 26.4844 19.6507C26.6138 19.6507 26.7188 19.768 26.7188 19.9127ZM29.7656 20.1747C29.8951 20.1747 30 20.0574 30 19.9127C30 19.768 29.8951 19.6507 29.7656 19.6507C29.6362 19.6507 29.5312 19.768 29.5312 19.9127C29.5312 20.0574 29.6362 20.1747 29.7656 20.1747ZM0.46875 23.1878C0.46875 23.3325 0.363817 23.4498 0.234375 23.4498C0.104933 23.4498 0 23.3325 0 23.1878C0 23.0431 0.104933 22.9258 0.234375 22.9258C0.363817 22.9258 0.46875 23.0431 0.46875 23.1878ZM3.75 23.1878C3.75 23.3325 3.64507 23.4498 3.51562 23.4498C3.38618 23.4498 3.28125 23.3325 3.28125 23.1878C3.28125 23.0431 3.38618 22.9258 3.51562 22.9258C3.64507 22.9258 3.75 23.0431 3.75 23.1878ZM6.79688 23.4498C6.92632 23.4498 7.03125 23.3325 7.03125 23.1878C7.03125 23.0431 6.92632 22.9258 6.79688 22.9258C6.66743 22.9258 6.5625 23.0431 6.5625 23.1878C6.5625 23.3325 6.66743 23.4498 6.79688 23.4498ZM10.3125 23.1878C10.3125 23.3325 10.2076 23.4498 10.0781 23.4498C9.94868 23.4498 9.84375 23.3325 9.84375 23.1878C9.84375 23.0431 9.94868 22.9258 10.0781 22.9258C10.2076 22.9258 10.3125 23.0431 10.3125 23.1878ZM13.3594 23.4498C13.4888 23.4498 13.5938 23.3325 13.5938 23.1878C13.5938 23.0431 13.4888 22.9258 13.3594 22.9258C13.2299 22.9258 13.125 23.0431 13.125 23.1878C13.125 23.3325 13.2299 23.4498 13.3594 23.4498ZM16.875 23.1878C16.875 23.3325 16.7701 23.4498 16.6406 23.4498C16.5112 23.4498 16.4062 23.3325 16.4062 23.1878C16.4062 23.0431 16.5112 22.9258 16.6406 22.9258C16.7701 22.9258 16.875 23.0431 16.875 23.1878ZM19.9219 23.4498C20.0513 23.4498 20.1562 23.3325 20.1562 23.1878C20.1562 23.0431 20.0513 22.9258 19.9219 22.9258C19.7924 22.9258 19.6875 23.0431 19.6875 23.1878C19.6875 23.3325 19.7924 23.4498 19.9219 23.4498ZM23.4375 23.1878C23.4375 23.3325 23.3326 23.4498 23.2031 23.4498C23.0737 23.4498 22.9688 23.3325 22.9688 23.1878C22.9688 23.0431 23.0737 22.9258 23.2031 22.9258C23.3326 22.9258 23.4375 23.0431 23.4375 23.1878ZM26.4844 23.4498C26.6138 23.4498 26.7188 23.3325 26.7188 23.1878C26.7188 23.0431 26.6138 22.9258 26.4844 22.9258C26.3549 22.9258 26.25 23.0431 26.25 23.1878C26.25 23.3325 26.3549 23.4498 26.4844 23.4498ZM30 23.1878C30 23.3325 29.8951 23.4498 29.7656 23.4498C29.6362 23.4498 29.5312 23.3325 29.5312 23.1878C29.5312 23.0431 29.6362 22.9258 29.7656 22.9258C29.8951 22.9258 30 23.0431 30 23.1878ZM0.234375 26.7249C0.363817 26.7249 0.46875 26.6076 0.46875 26.4629C0.46875 26.3182 0.363817 26.2009 0.234375 26.2009C0.104933 26.2009 0 26.3182 0 26.4629C0 26.6076 0.104933 26.7249 0.234375 26.7249ZM3.51562 26.7249C3.64507 26.7249 3.75 26.6076 3.75 26.4629C3.75 26.3182 3.64507 26.2009 3.51562 26.2009C3.38618 26.2009 3.28125 26.3182 3.28125 26.4629C3.28125 26.6076 3.38618 26.7249 3.51562 26.7249ZM7.03125 26.4629C7.03125 26.6076 6.92632 26.7249 6.79688 26.7249C6.66743 26.7249 6.5625 26.6076 6.5625 26.4629C6.5625 26.3182 6.66743 26.2009 6.79688 26.2009C6.92632 26.2009 7.03125 26.3182 7.03125 26.4629ZM10.0781 26.7249C10.2076 26.7249 10.3125 26.6076 10.3125 26.4629C10.3125 26.3182 10.2076 26.2009 10.0781 26.2009C9.94868 26.2009 9.84375 26.3182 9.84375 26.4629C9.84375 26.6076 9.94868 26.7249 10.0781 26.7249ZM13.5938 26.4629C13.5938 26.6076 13.4888 26.7249 13.3594 26.7249C13.2299 26.7249 13.125 26.6076 13.125 26.4629C13.125 26.3182 13.2299 26.2009 13.3594 26.2009C13.4888 26.2009 13.5938 26.3182 13.5938 26.4629ZM16.6406 26.7249C16.7701 26.7249 16.875 26.6076 16.875 26.4629C16.875 26.3182 16.7701 26.2009 16.6406 26.2009C16.5112 26.2009 16.4062 26.3182 16.4062 26.4629C16.4062 26.6076 16.5112 26.7249 16.6406 26.7249ZM20.1562 26.4629C20.1562 26.6076 20.0513 26.7249 19.9219 26.7249C19.7924 26.7249 19.6875 26.6076 19.6875 26.4629C19.6875 26.3182 19.7924 26.2009 19.9219 26.2009C20.0513 26.2009 20.1562 26.3182 20.1562 26.4629ZM23.2031 26.7249C23.3326 26.7249 23.4375 26.6076 23.4375 26.4629C23.4375 26.3182 23.3326 26.2009 23.2031 26.2009C23.0737 26.2009 22.9688 26.3182 22.9688 26.4629C22.9688 26.6076 23.0737 26.7249 23.2031 26.7249ZM26.7188 26.4629C26.7188 26.6076 26.6138 26.7249 26.4844 26.7249C26.3549 26.7249 26.25 26.6076 26.25 26.4629C26.25 26.3182 26.3549 26.2009 26.4844 26.2009C26.6138 26.2009 26.7188 26.3182 26.7188 26.4629ZM29.7656 26.7249C29.8951 26.7249 30 26.6076 30 26.4629C30 26.3182 29.8951 26.2009 29.7656 26.2009C29.6362 26.2009 29.5312 26.3182 29.5312 26.4629C29.5312 26.6076 29.6362 26.7249 29.7656 26.7249ZM0.46875 29.738C0.46875 29.8827 0.363817 30 0.234375 30C0.104933 30 0 29.8827 0 29.738C0 29.5933 0.104933 29.476 0.234375 29.476C0.363817 29.476 0.46875 29.5933 0.46875 29.738ZM3.75 29.738C3.75 29.8827 3.64507 30 3.51562 30C3.38618 30 3.28125 29.8827 3.28125 29.738C3.28125 29.5933 3.38618 29.476 3.51562 29.476C3.64507 29.476 3.75 29.5933 3.75 29.738ZM6.79688 30C6.92632 30 7.03125 29.8827 7.03125 29.738C7.03125 29.5933 6.92632 29.476 6.79688 29.476C6.66743 29.476 6.5625 29.5933 6.5625 29.738C6.5625 29.8827 6.66743 30 6.79688 30ZM10.3125 29.738C10.3125 29.8827 10.2076 30 10.0781 30C9.94868 30 9.84375 29.8827 9.84375 29.738C9.84375 29.5933 9.94868 29.476 10.0781 29.476C10.2076 29.476 10.3125 29.5933 10.3125 29.738ZM13.3594 30C13.4888 30 13.5938 29.8827 13.5938 29.738C13.5938 29.5933 13.4888 29.476 13.3594 29.476C13.2299 29.476 13.125 29.5933 13.125 29.738C13.125 29.8827 13.2299 30 13.3594 30ZM16.875 29.738C16.875 29.8827 16.7701 30 16.6406 30C16.5112 30 16.4062 29.8827 16.4062 29.738C16.4062 29.5933 16.5112 29.476 16.6406 29.476C16.7701 29.476 16.875 29.5933 16.875 29.738ZM19.9219 30C20.0513 30 20.1562 29.8827 20.1562 29.738C20.1562 29.5933 20.0513 29.476 19.9219 29.476C19.7924 29.476 19.6875 29.5933 19.6875 29.738C19.6875 29.8827 19.7924 30 19.9219 30ZM23.4375 29.738C23.4375 29.8827 23.3326 30 23.2031 30C23.0737 30 22.9688 29.8827 22.9688 29.738C22.9688 29.5933 23.0737 29.476 23.2031 29.476C23.3326 29.476 23.4375 29.5933 23.4375 29.738ZM26.4844 30C26.6138 30 26.7188 29.8827 26.7188 29.738C26.7188 29.5933 26.6138 29.476 26.4844 29.476C26.3549 29.476 26.25 29.5933 26.25 29.738C26.25 29.8827 26.3549 30 26.4844 30ZM30 29.738C30 29.8827 29.8951 30 29.7656 30C29.6362 30 29.5312 29.8827 29.5312 29.738C29.5312 29.5933 29.6362 29.476 29.7656 29.476C29.8951 29.476 30 29.5933 30 29.738Z" fill="#FB3331"/>
<path fill-rule="evenodd" clip-rule="evenodd" d="M0.46875 0.262009C0.46875 0.406712 0.363817 0.524017 0.234375 0.524017C0.104933 0.524017 0 0.406712 0 0.262009C0 0.117305 0.104933 0 0.234375 0C0.363817 0 0.46875 0.117305 0.46875 0.262009ZM3.75 0.262009C3.75 0.406712 3.64507 0.524017 3.51562 0.524017C3.38618 0.524017 3.28125 0.406712 3.28125 0.262009C3.28125 0.117305 3.38618 0 3.51562 0C3.64507 0 3.75 0.117305 3.75 0.262009ZM6.79688 0.524017C6.92632 0.524017 7.03125 0.406712 7.03125 0.262009C7.03125 0.117305 6.92632 0 6.79688 0C6.66743 0 6.5625 0.117305 6.5625 0.262009C6.5625 0.406712 6.66743 0.524017 6.79688 0.524017ZM10.3125 0.262009C10.3125 0.406712 10.2076 0.524017 10.0781 0.524017C9.94868 0.524017 9.84375 0.406712 9.84375 0.262009C9.84375 0.117305 9.94868 0 10.0781 0C10.2076 0 10.3125 0.117305 10.3125 0.262009ZM13.3594 0.524017C13.4888 0.524017 13.5938 0.406712 13.5938 0.262009C13.5938 0.117305 13.4888 0 13.3594 0C13.2299 0 13.125 0.117305 13.125 0.262009C13.125 0.406712 13.2299 0.524017 13.3594 0.524017ZM16.875 0.262009C16.875 0.406712 16.7701 0.524017 16.6406 0.524017C16.5112 0.524017 16.4062 0.406712 16.4062 0.262009C16.4062 0.117305 16.5112 0 16.6406 0C16.7701 0 16.875 0.117305 16.875 0.262009ZM19.9219 0.524017C20.0513 0.524017 20.1562 0.406712 20.1562 0.262009C20.1562 0.117305 20.0513 0 19.9219 0C19.7924 0 19.6875 0.117305 19.6875 0.262009C19.6875 0.406712 19.7924 0.524017 19.9219 0.524017ZM23.4375 0.262009C23.4375 0.406712 23.3326 0.524017 23.2031 0.524017C23.0737 0.524017 22.9688 0.406712 22.9688 0.262009C22.9688 0.117305 23.0737 0 23.2031 0C23.3326 0 23.4375 0.117305 23.4375 0.262009ZM26.4844 0.524017C26.6138 0.524017 26.7188 0.406712 26.7188 0.262009C26.7188 0.117305 26.6138 0 26.4844 0C26.3549 0 26.25 0.117305 26.25 0.262009C26.25 0.406712 26.3549 0.524017 26.4844 0.524017ZM30 0.262009C30 0.406712 29.8951 0.524017 29.7656 0.524017C29.6362 0.524017 29.5312 0.406712 29.5312 0.262009C29.5312 0.117305 29.6362 0 29.7656 0C29.8951 0 30 0.117305 30 0.262009ZM0.46875 3.53713C0.46875 3.68183 0.363817 3.79913 0.234375 3.79913C0.104933 3.79913 0 3.68183 0 3.53713C0 3.39242 0.104933 3.27512 0.234375 3.27512C0.363817 3.27512 0.46875 3.39242 0.46875 3.53713ZM3.75 3.53713C3.75 3.68183 3.64507 3.79913 3.51562 3.79913C3.38618 3.79913 3.28125 3.68183 3.28125 3.53713C3.28125 3.39242 3.38618 3.27512 3.51562 3.27512C3.64507 3.27512 3.75 3.39242 3.75 3.53713ZM6.79688 3.79913C6.92632 3.79913 7.03125 3.68183 7.03125 3.53713C7.03125 3.39242 6.92632 3.27512 6.79688 3.27512C6.66743 3.27512 6.5625 3.39242 6.5625 3.53713C6.5625 3.68183 6.66743 3.79913 6.79688 3.79913ZM10.3125 3.53713C10.3125 3.68183 10.2076 3.79913 10.0781 3.79913C9.94868 3.79913 9.84375 3.68183 9.84375 3.53713C9.84375 3.39242 9.94868 3.27512 10.0781 3.27512C10.2076 3.27512 10.3125 3.39242 10.3125 3.53713ZM13.3594 3.79913C13.4888 3.79913 13.5938 3.68183 13.5938 3.53713C13.5938 3.39242 13.4888 3.27512 13.3594 3.27512C13.2299 3.27512 13.125 3.39242 13.125 3.53713C13.125 3.68183 13.2299 3.79913 13.3594 3.79913ZM16.875 3.53713C16.875 3.68183 16.7701 3.79913 16.6406 3.79913C16.5112 3.79913 16.4062 3.68183 16.4062 3.53713C16.4062 3.39242 16.5112 3.27512 16.6406 3.27512C16.7701 3.27512 16.875 3.39242 16.875 3.53713ZM19.9219 3.79913C20.0513 3.79913 20.1562 3.68183 20.1562 3.53713C20.1562 3.39242 20.0513 3.27512 19.9219 3.27512C19.7924 3.27512 19.6875 3.39242 19.6875 3.53713C19.6875 3.68183 19.7924 3.79913 19.9219 3.79913ZM23.4375 3.53713C23.4375 3.68183 23.3326 3.79913 23.2031 3.79913C23.0737 3.79913 22.9688 3.68183 22.9688 3.53713C22.9688 3.39242 23.0737 3.27512 23.2031 3.27512C23.3326 3.27512 23.4375 3.39242 23.4375 3.53713ZM26.4844 3.79913C26.6138 3.79913 26.7188 3.68183 26.7188 3.53713C26.7188 3.39242 26.6138 3.27512 26.4844 3.27512C26.3549 3.27512 26.25 3.39242 26.25 3.53713C26.25 3.68183 26.3549 3.79913 26.4844 3.79913ZM30 3.53713C30 3.68183 29.8951 3.79913 29.7656 3.79913C29.6362 3.79913 29.5312 3.68183 29.5312 3.53713C29.5312 3.39242 29.6362 3.27512 29.7656 3.27512C29.8951 3.27512 30 3.39242 30 3.53713ZM0.234375 7.07423C0.363817 7.07423 0.46875 6.95693 0.46875 6.81222C0.46875 6.66752 0.363817 6.55021 0.234375 6.55021C0.104933 6.55021 0 6.66752 0 6.81222C0 6.95693 0.104933 7.07423 0.234375 7.07423ZM3.51562 7.07423C3.64507 7.07423 3.75 6.95693 3.75 6.81222C3.75 6.66752 3.64507 6.55021 3.51562 6.55021C3.38618 6.55021 3.28125 6.66752 3.28125 6.81222C3.28125 6.95693 3.38618 7.07423 3.51562 7.07423ZM7.03125 6.81222C7.03125 6.95693 6.92632 7.07423 6.79688 7.07423C6.66743 7.07423 6.5625 6.95693 6.5625 6.81222C6.5625 6.66752 6.66743 6.55021 6.79688 6.55021C6.92632 6.55021 7.03125 6.66752 7.03125 6.81222ZM10.0781 7.07423C10.2076 7.07423 10.3125 6.95693 10.3125 6.81222C10.3125 6.66752 10.2076 6.55021 10.0781 6.55021C9.94868 6.55021 9.84375 6.66752 9.84375 6.81222C9.84375 6.95693 9.94868 7.07423 10.0781 7.07423ZM13.5938 6.81222C13.5938 6.95693 13.4888 7.07423 13.3594 7.07423C13.2299 7.07423 13.125 6.95693 13.125 6.81222C13.125 6.66752 13.2299 6.55021 13.3594 6.55021C13.4888 6.55021 13.5938 6.66752 13.5938 6.81222ZM16.6406 7.07423C16.7701 7.07423 16.875 6.95693 16.875 6.81222C16.875 6.66752 16.7701 6.55021 16.6406 6.55021C16.5112 6.55021 16.4062 6.66752 16.4062 6.81222C16.4062 6.95693 16.5112 7.07423 16.6406 7.07423ZM20.1562 6.81222C20.1562 6.95693 20.0513 7.07423 19.9219 7.07423C19.7924 7.07423 19.6875 6.95693 19.6875 6.81222C19.6875 6.66752 19.7924 6.55021 19.9219 6.55021C20.0513 6.55021 20.1562 6.66752 20.1562 6.81222ZM23.2031 7.07423C23.3326 7.07423 23.4375 6.95693 23.4375 6.81222C23.4375 6.66752 23.3326 6.55021 23.2031 6.55021C23.0737 6.55021 22.9688 6.66752 22.9688 6.81222C22.9688 6.95693 23.0737 7.07423 23.2031 7.07423ZM26.7188 6.81222C26.7188 6.95693 26.6138 7.07423 26.4844 7.07423C26.3549 7.07423 26.25 6.95693 26.25 6.81222C26.25 6.66752 26.3549 6.55021 26.4844 6.55021C26.6138 6.55021 26.7188 6.66752 26.7188 6.81222ZM29.7656 7.07423C29.8951 7.07423 30 6.95693 30 6.81222C30 6.66752 29.8951 6.55021 29.7656 6.55021C29.6362 6.55021 29.5312 6.66752 29.5312 6.81222C29.5312 6.95693 29.6362 7.07423 29.7656 7.07423ZM0.46875 10.0873C0.46875 10.232 0.363817 10.3493 0.234375 10.3493C0.104933 10.3493 0 10.232 0 10.0873C0 9.94263 0.104933 9.82533 0.234375 9.82533C0.363817 9.82533 0.46875 9.94263 0.46875 10.0873ZM3.75 10.0873C3.75 10.232 3.64507 10.3493 3.51562 10.3493C3.38618 10.3493 3.28125 10.232 3.28125 10.0873C3.28125 9.94263 3.38618 9.82533 3.51562 9.82533C3.64507 9.82533 3.75 9.94263 3.75 10.0873ZM6.79688 10.3493C6.92632 10.3493 7.03125 10.232 7.03125 10.0873C7.03125 9.94263 6.92632 9.82533 6.79688 9.82533C6.66743 9.82533 6.5625 9.94263 6.5625 10.0873C6.5625 10.232 6.66743 10.3493 6.79688 10.3493ZM10.3125 10.0873C10.3125 10.232 10.2076 10.3493 10.0781 10.3493C9.94868 10.3493 9.84375 10.232 9.84375 10.0873C9.84375 9.94263 9.94868 9.82533 10.0781 9.82533C10.2076 9.82533 10.3125 9.94263 10.3125 10.0873ZM13.3594 10.3493C13.4888 10.3493 13.5938 10.232 13.5938 10.0873C13.5938 9.94263 13.4888 9.82533 13.3594 9.82533C13.2299 9.82533 13.125 9.94263 13.125 10.0873C13.125 10.232 13.2299 10.3493 13.3594 10.3493ZM16.875 10.0873C16.875 10.232 16.7701 10.3493 16.6406 10.3493C16.5112 10.3493 16.4062 10.232 16.4062 10.0873C16.4062 9.94263 16.5112 9.82533 16.6406 9.82533C16.7701 9.82533 16.875 9.94263 16.875 10.0873ZM19.9219 10.3493C20.0513 10.3493 20.1562 10.232 20.1562 10.0873C20.1562 9.94263 20.0513 9.82533 19.9219 9.82533C19.7924 9.82533 19.6875 9.94263 19.6875 10.0873C19.6875 10.232 19.7924 10.3493 19.9219 10.3493ZM23.4375 10.0873C23.4375 10.232 23.3326 10.3493 23.2031 10.3493C23.0737 10.3493 22.9688 10.232 22.9688 10.0873C22.9688 9.94263 23.0737 9.82533 23.2031 9.82533C23.3326 9.82533 23.4375 9.94263 23.4375 10.0873ZM26.4844 10.3493C26.6138 10.3493 26.7188 10.232 26.7188 10.0873C26.7188 9.94263 26.6138 9.82533 26.4844 9.82533C26.3549 9.82533 26.25 9.94263 26.25 10.0873C26.25 10.232 26.3549 10.3493 26.4844 10.3493ZM30 10.0873C30 10.232 29.8951 10.3493 29.7656 10.3493C29.6362 10.3493 29.5312 10.232 29.5312 10.0873C29.5312 9.94263 29.6362 9.82533 29.7656 9.82533C29.8951 9.82533 30 9.94263 30 10.0873ZM0.234375 13.6244C0.363817 13.6244 0.46875 13.5071 0.46875 13.3624C0.46875 13.2177 0.363817 13.1004 0.234375 13.1004C0.104933 13.1004 0 13.2177 0 13.3624C0 13.5071 0.104933 13.6244 0.234375 13.6244ZM3.51562 13.6244C3.64507 13.6244 3.75 13.5071 3.75 13.3624C3.75 13.2177 3.64507 13.1004 3.51562 13.1004C3.38618 13.1004 3.28125 13.2177 3.28125 13.3624C3.28125 13.5071 3.38618 13.6244 3.51562 13.6244ZM7.03125 13.3624C7.03125 13.5071 6.92632 13.6244 6.79688 13.6244C6.66743 13.6244 6.5625 13.5071 6.5625 13.3624C6.5625 13.2177 6.66743 13.1004 6.79688 13.1004C6.92632 13.1004 7.03125 13.2177 7.03125 13.3624ZM10.0781 13.6244C10.2076 13.6244 10.3125 13.5071 10.3125 13.3624C10.3125 13.2177 10.2076 13.1004 10.0781 13.1004C9.94868 13.1004 9.84375 13.2177 9.84375 13.3624C9.84375 13.5071 9.94868 13.6244 10.0781 13.6244ZM13.5938 13.3624C13.5938 13.5071 13.4888 13.6244 13.3594 13.6244C13.2299 13.6244 13.125 13.5071 13.125 13.3624C13.125 13.2177 13.2299 13.1004 13.3594 13.1004C13.4888 13.1004 13.5938 13.2177 13.5938 13.3624ZM16.6406 13.6244C16.7701 13.6244 16.875 13.5071 16.875 13.3624C16.875 13.2177 16.7701 13.1004 16.6406 13.1004C16.5112 13.1004 16.4062 13.2177 16.4062 13.3624C16.4062 13.5071 16.5112 13.6244 16.6406 13.6244ZM20.1562 13.3624C20.1562 13.5071 20.0513 13.6244 19.9219 13.6244C19.7924 13.6244 19.6875 13.5071 19.6875 13.3624C19.6875 13.2177 19.7924 13.1004 19.9219 13.1004C20.0513 13.1004 20.1562 13.2177 20.1562 13.3624ZM23.2031 13.6244C23.3326 13.6244 23.4375 13.5071 23.4375 13.3624C23.4375 13.2177 23.3326 13.1004 23.2031 13.1004C23.0737 13.1004 22.9688 13.2177 22.9688 13.3624C22.9688 13.5071 23.0737 13.6244 23.2031 13.6244ZM26.7188 13.3624C26.7188 13.5071 26.6138 13.6244 26.4844 13.6244C26.3549 13.6244 26.25 13.5071 26.25 13.3624C26.25 13.2177 26.3549 13.1004 26.4844 13.1004C26.6138 13.1004 26.7188 13.2177 26.7188 13.3624ZM29.7656 13.6244C29.8951 13.6244 30 13.5071 30 13.3624C30 13.2177 29.8951 13.1004 29.7656 13.1004C29.6362 13.1004 29.5312 13.2177 29.5312 13.3624C29.5312 13.5071 29.6362 13.6244 29.7656 13.6244ZM0.46875 16.6376C0.46875 16.7823 0.363817 16.8996 0.234375 16.8996C0.104933 16.8996 0 16.7823 0 16.6376C0 16.4929 0.104933 16.3755 0.234375 16.3755C0.363817 16.3755 0.46875 16.4929 0.46875 16.6376ZM3.75 16.6376C3.75 16.7823 3.64507 16.8996 3.51562 16.8996C3.38618 16.8996 3.28125 16.7823 3.28125 16.6376C3.28125 16.4929 3.38618 16.3755 3.51562 16.3755C3.64507 16.3755 3.75 16.4929 3.75 16.6376ZM6.79688 16.8996C6.92632 16.8996 7.03125 16.7823 7.03125 16.6376C7.03125 16.4929 6.92632 16.3755 6.79688 16.3755C6.66743 16.3755 6.5625 16.4929 6.5625 16.6376C6.5625 16.7823 6.66743 16.8996 6.79688 16.8996ZM10.3125 16.6376C10.3125 16.7823 10.2076 16.8996 10.0781 16.8996C9.94868 16.8996 9.84375 16.7823 9.84375 16.6376C9.84375 16.4929 9.94868 16.3755 10.0781 16.3755C10.2076 16.3755 10.3125 16.4929 10.3125 16.6376ZM13.3594 16.8996C13.4888 16.8996 13.5938 16.7823 13.5938 16.6376C13.5938 16.4929 13.4888 16.3755 13.3594 16.3755C13.2299 16.3755 13.125 16.4929 13.125 16.6376C13.125 16.7823 13.2299 16.8996 13.3594 16.8996ZM16.875 16.6376C16.875 16.7823 16.7701 16.8996 16.6406 16.8996C16.5112 16.8996 16.4062 16.7823 16.4062 16.6376C16.4062 16.4929 16.5112 16.3755 16.6406 16.3755C16.7701 16.3755 16.875 16.4929 16.875 16.6376ZM19.9219 16.8996C20.0513 16.8996 20.1562 16.7823 20.1562 16.6376C20.1562 16.4929 20.0513 16.3755 19.9219 16.3755C19.7924 16.3755 19.6875 16.4929 19.6875 16.6376C19.6875 16.7823 19.7924 16.8996 19.9219 16.8996ZM23.4375 16.6376C23.4375 16.7823 23.3326 16.8996 23.2031 16.8996C23.0737 16.8996 22.9688 16.7823 22.9688 16.6376C22.9688 16.4929 23.0737 16.3755 23.2031 16.3755C23.3326 16.3755 23.4375 16.4929 23.4375 16.6376ZM26.4844 16.8996C26.6138 16.8996 26.7188 16.7823 26.7188 16.6376C26.7188 16.4929 26.6138 16.3755 26.4844 16.3755C26.3549 16.3755 26.25 16.4929 26.25 16.6376C26.25 16.7823 26.3549 16.8996 26.4844 16.8996ZM30 16.6376C30 16.7823 29.8951 16.8996 29.7656 16.8996C29.6362 16.8996 29.5312 16.7823 29.5312 16.6376C29.5312 16.4929 29.6362 16.3755 29.7656 16.3755C29.8951 16.3755 30 16.4929 30 16.6376ZM0.234375 20.1747C0.363817 20.1747 0.46875 20.0574 0.46875 19.9127C0.46875 19.768 0.363817 19.6507 0.234375 19.6507C0.104933 19.6507 0 19.768 0 19.9127C0 20.0574 0.104933 20.1747 0.234375 20.1747ZM3.51562 20.1747C3.64507 20.1747 3.75 20.0574 3.75 19.9127C3.75 19.768 3.64507 19.6507 3.51562 19.6507C3.38618 19.6507 3.28125 19.768 3.28125 19.9127C3.28125 20.0574 3.38618 20.1747 3.51562 20.1747ZM7.03125 19.9127C7.03125 20.0574 6.92632 20.1747 6.79688 20.1747C6.66743 20.1747 6.5625 20.0574 6.5625 19.9127C6.5625 19.768 6.66743 19.6507 6.79688 19.6507C6.92632 19.6507 7.03125 19.768 7.03125 19.9127ZM10.0781 20.1747C10.2076 20.1747 10.3125 20.0574 10.3125 19.9127C10.3125 19.768 10.2076 19.6507 10.0781 19.6507C9.94868 19.6507 9.84375 19.768 9.84375 19.9127C9.84375 20.0574 9.94868 20.1747 10.0781 20.1747ZM13.5938 19.9127C13.5938 20.0574 13.4888 20.1747 13.3594 20.1747C13.2299 20.1747 13.125 20.0574 13.125 19.9127C13.125 19.768 13.2299 19.6507 13.3594 19.6507C13.4888 19.6507 13.5938 19.768 13.5938 19.9127ZM16.6406 20.1747C16.7701 20.1747 16.875 20.0574 16.875 19.9127C16.875 19.768 16.7701 19.6507 16.6406 19.6507C16.5112 19.6507 16.4062 19.768 16.4062 19.9127C16.4062 20.0574 16.5112 20.1747 16.6406 20.1747ZM20.1562 19.9127C20.1562 20.0574 20.0513 20.1747 19.9219 20.1747C19.7924 20.1747 19.6875 20.0574 19.6875 19.9127C19.6875 19.768 19.7924 19.6507 19.9219 19.6507C20.0513 19.6507 20.1562 19.768 20.1562 19.9127ZM23.2031 20.1747C23.3326 20.1747 23.4375 20.0574 23.4375 19.9127C23.4375 19.768 23.3326 19.6507 23.2031 19.6507C23.0737 19.6507 22.9688 19.768 22.9688 19.9127C22.9688 20.0574 23.0737 20.1747 23.2031 20.1747ZM26.7188 19.9127C26.7188 20.0574 26.6138 20.1747 26.4844 20.1747C26.3549 20.1747 26.25 20.0574 26.25 19.9127C26.25 19.768 26.3549 19.6507 26.4844 19.6507C26.6138 19.6507 26.7188 19.768 26.7188 19.9127ZM29.7656 20.1747C29.8951 20.1747 30 20.0574 30 19.9127C30 19.768 29.8951 19.6507 29.7656 19.6507C29.6362 19.6507 29.5312 19.768 29.5312 19.9127C29.5312 20.0574 29.6362 20.1747 29.7656 20.1747ZM0.46875 23.1878C0.46875 23.3325 0.363817 23.4498 0.234375 23.4498C0.104933 23.4498 0 23.3325 0 23.1878C0 23.0431 0.104933 22.9258 0.234375 22.9258C0.363817 22.9258 0.46875 23.0431 0.46875 23.1878ZM3.75 23.1878C3.75 23.3325 3.64507 23.4498 3.51562 23.4498C3.38618 23.4498 3.28125 23.3325 3.28125 23.1878C3.28125 23.0431 3.38618 22.9258 3.51562 22.9258C3.64507 22.9258 3.75 23.0431 3.75 23.1878ZM6.79688 23.4498C6.92632 23.4498 7.03125 23.3325 7.03125 23.1878C7.03125 23.0431 6.92632 22.9258 6.79688 22.9258C6.66743 22.9258 6.5625 23.0431 6.5625 23.1878C6.5625 23.3325 6.66743 23.4498 6.79688 23.4498ZM10.3125 23.1878C10.3125 23.3325 10.2076 23.4498 10.0781 23.4498C9.94868 23.4498 9.84375 23.3325 9.84375 23.1878C9.84375 23.0431 9.94868 22.9258 10.0781 22.9258C10.2076 22.9258 10.3125 23.0431 10.3125 23.1878ZM13.3594 23.4498C13.4888 23.4498 13.5938 23.3325 13.5938 23.1878C13.5938 23.0431 13.4888 22.9258 13.3594 22.9258C13.2299 22.9258 13.125 23.0431 13.125 23.1878C13.125 23.3325 13.2299 23.4498 13.3594 23.4498ZM16.875 23.1878C16.875 23.3325 16.7701 23.4498 16.6406 23.4498C16.5112 23.4498 16.4062 23.3325 16.4062 23.1878C16.4062 23.0431 16.5112 22.9258 16.6406 22.9258C16.7701 22.9258 16.875 23.0431 16.875 23.1878ZM19.9219 23.4498C20.0513 23.4498 20.1562 23.3325 20.1562 23.1878C20.1562 23.0431 20.0513 22.9258 19.9219 22.9258C19.7924 22.9258 19.6875 23.0431 19.6875 23.1878C19.6875 23.3325 19.7924 23.4498 19.9219 23.4498ZM23.4375 23.1878C23.4375 23.3325 23.3326 23.4498 23.2031 23.4498C23.0737 23.4498 22.9688 23.3325 22.9688 23.1878C22.9688 23.0431 23.0737 22.9258 23.2031 22.9258C23.3326 22.9258 23.4375 23.0431 23.4375 23.1878ZM26.4844 23.4498C26.6138 23.4498 26.7188 23.3325 26.7188 23.1878C26.7188 23.0431 26.6138 22.9258 26.4844 22.9258C26.3549 22.9258 26.25 23.0431 26.25 23.1878C26.25 23.3325 26.3549 23.4498 26.4844 23.4498ZM30 23.1878C30 23.3325 29.8951 23.4498 29.7656 23.4498C29.6362 23.4498 29.5312 23.3325 29.5312 23.1878C29.5312 23.0431 29.6362 22.9258 29.7656 22.9258C29.8951 22.9258 30 23.0431 30 23.1878ZM0.234375 26.7249C0.363817 26.7249 0.46875 26.6076 0.46875 26.4629C0.46875 26.3182 0.363817 26.2009 0.234375 26.2009C0.104933 26.2009 0 26.3182 0 26.4629C0 26.6076 0.104933 26.7249 0.234375 26.7249ZM3.51562 26.7249C3.64507 26.7249 3.75 26.6076 3.75 26.4629C3.75 26.3182 3.64507 26.2009 3.51562 26.2009C3.38618 26.2009 3.28125 26.3182 3.28125 26.4629C3.28125 26.6076 3.38618 26.7249 3.51562 26.7249ZM7.03125 26.4629C7.03125 26.6076 6.92632 26.7249 6.79688 26.7249C6.66743 26.7249 6.5625 26.6076 6.5625 26.4629C6.5625 26.3182 6.66743 26.2009 6.79688 26.2009C6.92632 26.2009 7.03125 26.3182 7.03125 26.4629ZM10.0781 26.7249C10.2076 26.7249 10.3125 26.6076 10.3125 26.4629C10.3125 26.3182 10.2076 26.2009 10.0781 26.2009C9.94868 26.2009 9.84375 26.3182 9.84375 26.4629C9.84375 26.6076 9.94868 26.7249 10.0781 26.7249ZM13.5938 26.4629C13.5938 26.6076 13.4888 26.7249 13.3594 26.7249C13.2299 26.7249 13.125 26.6076 13.125 26.4629C13.125 26.3182 13.2299 26.2009 13.3594 26.2009C13.4888 26.2009 13.5938 26.3182 13.5938 26.4629ZM16.6406 26.7249C16.7701 26.7249 16.875 26.6076 16.875 26.4629C16.875 26.3182 16.7701 26.2009 16.6406 26.2009C16.5112 26.2009 16.4062 26.3182 16.4062 26.4629C16.4062 26.6076 16.5112 26.7249 16.6406 26.7249ZM20.1562 26.4629C20.1562 26.6076 20.0513 26.7249 19.9219 26.7249C19.7924 26.7249 19.6875 26.6076 19.6875 26.4629C19.6875 26.3182 19.7924 26.2009 19.9219 26.2009C20.0513 26.2009 20.1562 26.3182 20.1562 26.4629ZM23.2031 26.7249C23.3326 26.7249 23.4375 26.6076 23.4375 26.4629C23.4375 26.3182 23.3326 26.2009 23.2031 26.2009C23.0737 26.2009 22.9688 26.3182 22.9688 26.4629C22.9688 26.6076 23.0737 26.7249 23.2031 26.7249ZM26.7188 26.4629C26.7188 26.6076 26.6138 26.7249 26.4844 26.7249C26.3549 26.7249 26.25 26.6076 26.25 26.4629C26.25 26.3182 26.3549 26.2009 26.4844 26.2009C26.6138 26.2009 26.7188 26.3182 26.7188 26.4629ZM29.7656 26.7249C29.8951 26.7249 30 26.6076 30 26.4629C30 26.3182 29.8951 26.2009 29.7656 26.2009C29.6362 26.2009 29.5312 26.3182 29.5312 26.4629C29.5312 26.6076 29.6362 26.7249 29.7656 26.7249ZM0.46875 29.738C0.46875 29.8827 0.363817 30 0.234375 30C0.104933 30 0 29.8827 0 29.738C0 29.5933 0.104933 29.476 0.234375 29.476C0.363817 29.476 0.46875 29.5933 0.46875 29.738ZM3.75 29.738C3.75 29.8827 3.64507 30 3.51562 30C3.38618 30 3.28125 29.8827 3.28125 29.738C3.28125 29.5933 3.38618 29.476 3.51562 29.476C3.64507 29.476 3.75 29.5933 3.75 29.738ZM6.79688 30C6.92632 30 7.03125 29.8827 7.03125 29.738C7.03125 29.5933 6.92632 29.476 6.79688 29.476C6.66743 29.476 6.5625 29.5933 6.5625 29.738C6.5625 29.8827 6.66743 30 6.79688 30ZM10.3125 29.738C10.3125 29.8827 10.2076 30 10.0781 30C9.94868 30 9.84375 29.8827 9.84375 29.738C9.84375 29.5933 9.94868 29.476 10.0781 29.476C10.2076 29.476 10.3125 29.5933 10.3125 29.738ZM13.3594 30C13.4888 30 13.5938 29.8827 13.5938 29.738C13.5938 29.5933 13.4888 29.476 13.3594 29.476C13.2299 29.476 13.125 29.5933 13.125 29.738C13.125 29.8827 13.2299 30 13.3594 30ZM16.875 29.738C16.875 29.8827 16.7701 30 16.6406 30C16.5112 30 16.4062 29.8827 16.4062 29.738C16.4062 29.5933 16.5112 29.476 16.6406 29.476C16.7701 29.476 16.875 29.5933 16.875 29.738ZM19.9219 30C20.0513 30 20.1562 29.8827 20.1562 29.738C20.1562 29.5933 20.0513 29.476 19.9219 29.476C19.7924 29.476 19.6875 29.5933 19.6875 29.738C19.6875 29.8827 19.7924 30 19.9219 30ZM23.4375 29.738C23.4375 29.8827 23.3326 30 23.2031 30C23.0737 30 22.9688 29.8827 22.9688 29.738C22.9688 29.5933 23.0737 29.476 23.2031 29.476C23.3326 29.476 23.4375 29.5933 23.4375 29.738ZM26.4844 30C26.6138 30 26.7188 29.8827 26.7188 29.738C26.7188 29.5933 26.6138 29.476 26.4844 29.476C26.3549 29.476 26.25 29.5933 26.25 29.738C26.25 29.8827 26.3549 30 26.4844 30ZM30 29.738C30 29.8827 29.8951 30 29.7656 30C29.6362 30 29.5312 29.8827 29.5312 29.738C29.5312 29.5933 29.6362 29.476 29.7656 29.476C29.8951 29.476 30 29.5933 30 29.738Z" fill="white" fill-opacity="0.15"/>
</svg>
