<svg width="56" height="56" viewBox="0 0 56 56" fill="none" xmlns="http://www.w3.org/2000/svg">
<path d="M48.3413 17.9274C47.7161 18.2025 47.4329 18.9285 47.7072 19.5515C49.0307 22.5442 49.7022 25.7321 49.7022 29.0318C49.7022 42.0071 39.1091 52.563 26.0864 52.563C13.0655 52.563 2.47238 42.0071 2.47238 29.0318C2.47238 16.0548 13.0655 5.49886 26.0864 5.49886C29.396 5.49886 32.5987 6.16981 35.6018 7.48863C36.2288 7.75843 36.9556 7.48153 37.2335 6.85851C37.5078 6.23548 37.2246 5.50773 36.6011 5.23261C33.2809 3.77533 29.7433 3.03516 26.0882 3.03516C11.7028 3.03516 0 14.6969 0 29.0318C0 43.3649 11.7028 55.0267 26.0864 55.0267C40.4718 55.0267 52.1746 43.3649 52.1746 29.0318C52.1746 25.3895 51.4336 21.8644 49.9712 18.5593C49.6933 17.9363 48.9648 17.6558 48.3413 17.9274Z" fill="#0073DD"/>
<path d="M48.3413 17.9274C47.7161 18.2025 47.4329 18.9285 47.7072 19.5515C49.0307 22.5442 49.7022 25.7321 49.7022 29.0318C49.7022 42.0071 39.1091 52.563 26.0864 52.563C13.0655 52.563 2.47238 42.0071 2.47238 29.0318C2.47238 16.0548 13.0655 5.49886 26.0864 5.49886C29.396 5.49886 32.5987 6.16981 35.6018 7.48863C36.2288 7.75843 36.9556 7.48153 37.2335 6.85851C37.5078 6.23548 37.2246 5.50773 36.6011 5.23261C33.2809 3.77533 29.7433 3.03516 26.0882 3.03516C11.7028 3.03516 0 14.6969 0 29.0318C0 43.3649 11.7028 55.0267 26.0864 55.0267C40.4718 55.0267 52.1746 43.3649 52.1746 29.0318C52.1746 25.3895 51.4336 21.8644 49.9712 18.5593C49.6933 17.9363 48.9648 17.6558 48.3413 17.9274Z" fill="#C4E6FF" fill-opacity="0.6"/>
<path d="M33.1474 16.8249C33.4377 16.2072 33.1688 15.4742 32.5507 15.1884C30.5183 14.2459 28.3451 13.7666 26.0883 13.7666C17.6416 13.7666 10.7695 20.6146 10.7695 29.0316C10.7695 37.4487 17.6416 44.2948 26.0883 44.2948C34.535 44.2948 41.407 37.4487 41.407 29.0316C41.407 26.7791 40.9243 24.6101 39.9749 22.583C39.6846 21.9636 38.9507 21.6973 38.3326 21.9866C37.7127 22.2742 37.4455 23.0073 37.7341 23.6232C38.5303 25.3236 38.9329 27.143 38.9329 29.0316C38.9329 36.089 33.1705 41.8311 26.0865 41.8311C19.0043 41.8311 13.2419 36.089 13.2419 29.0316C13.2419 21.9724 19.0043 16.2303 26.0865 16.2303C27.98 16.2303 29.804 16.6315 31.5051 17.4196C32.1232 17.7089 32.8588 17.4409 33.1474 16.8249Z" fill="#0073DD"/>
<path d="M33.1474 16.8249C33.4377 16.2072 33.1688 15.4742 32.5507 15.1884C30.5183 14.2459 28.3451 13.7666 26.0883 13.7666C17.6416 13.7666 10.7695 20.6146 10.7695 29.0316C10.7695 37.4487 17.6416 44.2948 26.0883 44.2948C34.535 44.2948 41.407 37.4487 41.407 29.0316C41.407 26.7791 40.9243 24.6101 39.9749 22.583C39.6846 21.9636 38.9507 21.6973 38.3326 21.9866C37.7127 22.2742 37.4455 23.0073 37.7341 23.6232C38.5303 25.3236 38.9329 27.143 38.9329 29.0316C38.9329 36.089 33.1705 41.8311 26.0865 41.8311C19.0043 41.8311 13.2419 36.089 13.2419 29.0316C13.2419 21.9724 19.0043 16.2303 26.0865 16.2303C27.98 16.2303 29.804 16.6315 31.5051 17.4196C32.1232 17.7089 32.8588 17.4409 33.1474 16.8249Z" fill="#C4E6FF" fill-opacity="0.6"/>
<path d="M26.4091 24.9711C27.0824 25.0332 27.6845 24.5149 27.7361 23.8351C27.7878 23.157 27.2784 22.5642 26.5979 22.5127C26.4305 22.5003 26.2595 22.4932 26.0867 22.4932C22.4708 22.4932 19.5264 25.4255 19.5264 29.0305C19.5264 32.6337 22.469 35.5678 26.0867 35.5678C29.7044 35.5678 32.6471 32.6355 32.6471 29.0305C32.6471 28.8601 32.6417 28.6897 32.6292 28.5211C32.5776 27.843 31.9844 27.3407 31.3022 27.3851C30.6218 27.4365 30.1106 28.0276 30.1622 28.7074C30.1711 28.8139 30.1747 28.9222 30.1747 29.0305C30.1747 31.2759 28.3418 33.1023 26.0867 33.1023C23.8334 33.1023 22.0005 31.2759 22.0005 29.0305C22.0005 26.6768 24.0988 24.7811 26.4091 24.9711Z" fill="#0073DD"/>
<path d="M26.4091 24.9711C27.0824 25.0332 27.6845 24.5149 27.7361 23.8351C27.7878 23.157 27.2784 22.5642 26.5979 22.5127C26.4305 22.5003 26.2595 22.4932 26.0867 22.4932C22.4708 22.4932 19.5264 25.4255 19.5264 29.0305C19.5264 32.6337 22.469 35.5678 26.0867 35.5678C29.7044 35.5678 32.6471 32.6355 32.6471 29.0305C32.6471 28.8601 32.6417 28.6897 32.6292 28.5211C32.5776 27.843 31.9844 27.3407 31.3022 27.3851C30.6218 27.4365 30.1106 28.0276 30.1622 28.7074C30.1711 28.8139 30.1747 28.9222 30.1747 29.0305C30.1747 31.2759 28.3418 33.1023 26.0867 33.1023C23.8334 33.1023 22.0005 31.2759 22.0005 29.0305C22.0005 26.6768 24.0988 24.7811 26.4091 24.9711Z" fill="#C4E6FF" fill-opacity="0.6"/>
<path d="M55.1139 7.158C54.9073 6.69295 54.4566 6.38055 53.9276 6.42138L48.5393 6.65568L48.7726 1.2863C48.794 0.778652 48.5019 0.310052 48.0352 0.104152C47.5703 -0.0999727 47.0252 0.00120224 46.6636 0.361527L38.4628 8.53363C38.1831 8.8123 38.0549 9.20635 38.1172 9.59685L38.8974 14.5243L25.4792 27.8936C24.9965 28.3746 24.9965 29.1538 25.4792 29.6348C25.7215 29.8745 26.0368 29.9952 26.3538 29.9952C26.6709 29.9952 26.9862 29.8745 27.2284 29.6348L40.6466 16.2655L45.5895 17.043C45.6537 17.0536 45.7178 17.059 45.7819 17.059C46.1079 17.059 46.4232 16.9312 46.6565 16.6986L54.8574 8.52653C55.2172 8.16443 55.3205 7.62128 55.1139 7.158ZM45.3526 14.5101L41.2985 13.8728L40.659 9.83115L46.1667 4.34285L46.0135 7.89108C45.9992 8.2372 46.1293 8.5709 46.3751 8.81585C46.6209 9.05903 46.9469 9.19038 47.3031 9.17618L50.8638 9.02353L45.3526 14.5101Z" fill="#0073DD"/>
<path d="M55.1139 7.158C54.9073 6.69295 54.4566 6.38055 53.9276 6.42138L48.5393 6.65568L48.7726 1.2863C48.794 0.778652 48.5019 0.310052 48.0352 0.104152C47.5703 -0.0999727 47.0252 0.00120224 46.6636 0.361527L38.4628 8.53363C38.1831 8.8123 38.0549 9.20635 38.1172 9.59685L38.8974 14.5243L25.4792 27.8936C24.9965 28.3746 24.9965 29.1538 25.4792 29.6348C25.7215 29.8745 26.0368 29.9952 26.3538 29.9952C26.6709 29.9952 26.9862 29.8745 27.2284 29.6348L40.6466 16.2655L45.5895 17.043C45.6537 17.0536 45.7178 17.059 45.7819 17.059C46.1079 17.059 46.4232 16.9312 46.6565 16.6986L54.8574 8.52653C55.2172 8.16443 55.3205 7.62128 55.1139 7.158ZM45.3526 14.5101L41.2985 13.8728L40.659 9.83115L46.1667 4.34285L46.0135 7.89108C45.9992 8.2372 46.1293 8.5709 46.3751 8.81585C46.6209 9.05903 46.9469 9.19038 47.3031 9.17618L50.8638 9.02353L45.3526 14.5101Z" fill="#C4E6FF" fill-opacity="0.6"/>
</svg>
