<svg width="91" height="256" viewBox="0 0 91 256" fill="none" xmlns="http://www.w3.org/2000/svg">
<path fill-rule="evenodd" clip-rule="evenodd" d="M-161 2.23581C-161 3.47061 -161.895 4.47162 -163 4.47162C-164.105 4.47162 -165 3.47061 -165 2.23581C-165 1.00101 -164.105 0 -163 0C-161.895 0 -161 1.00101 -161 2.23581ZM-133 2.23581C-133 3.47061 -133.895 4.47162 -135 4.47162C-136.105 4.47162 -137 3.47061 -137 2.23581C-137 1.00101 -136.105 0 -135 0C-133.895 0 -133 1.00101 -133 2.23581ZM-107 4.47162C-105.895 4.47162 -105 3.47061 -105 2.23581C-105 1.00101 -105.895 0 -107 0C-108.105 0 -109 1.00101 -109 2.23581C-109 3.47061 -108.105 4.47162 -107 4.47162ZM-77 2.23581C-77 3.47061 -77.8954 4.47162 -79 4.47162C-80.1046 4.47162 -81 3.47061 -81 2.23581C-81 1.00101 -80.1046 0 -79 0C-77.8954 0 -77 1.00101 -77 2.23581ZM-51 4.47162C-49.8954 4.47162 -49 3.47061 -49 2.23581C-49 1.00101 -49.8954 0 -51 0C-52.1046 0 -53 1.00101 -53 2.23581C-53 3.47061 -52.1046 4.47162 -51 4.47162ZM-21 2.23581C-21 3.47061 -21.8954 4.47162 -23 4.47162C-24.1046 4.47162 -25 3.47061 -25 2.23581C-25 1.00101 -24.1046 0 -23 0C-21.8954 0 -21 1.00101 -21 2.23581ZM5 4.47162C6.10457 4.47162 7 3.47061 7 2.23581C7 1.00101 6.10457 0 5 0C3.89543 0 3 1.00101 3 2.23581C3 3.47061 3.89543 4.47162 5 4.47162ZM35 2.23581C35 3.47061 34.1046 4.47162 33 4.47162C31.8954 4.47162 31 3.47061 31 2.23581C31 1.00101 31.8954 0 33 0C34.1046 0 35 1.00101 35 2.23581ZM61 4.47162C62.1046 4.47162 63 3.47061 63 2.23581C63 1.00101 62.1046 0 61 0C59.8954 0 59 1.00101 59 2.23581C59 3.47061 59.8954 4.47162 61 4.47162ZM91 2.23581C91 3.47061 90.1046 4.47162 89 4.47162C87.8954 4.47162 87 3.47061 87 2.23581C87 1.00101 87.8954 0 89 0C90.1046 0 91 1.00101 91 2.23581ZM-161 30.1834C-161 31.4182 -161.895 32.4192 -163 32.4192C-164.105 32.4192 -165 31.4182 -165 30.1834C-165 28.9486 -164.105 27.9476 -163 27.9476C-161.895 27.9476 -161 28.9486 -161 30.1834ZM-133 30.1834C-133 31.4182 -133.895 32.4192 -135 32.4192C-136.105 32.4192 -137 31.4182 -137 30.1834C-137 28.9486 -136.105 27.9476 -135 27.9476C-133.895 27.9476 -133 28.9486 -133 30.1834ZM-107 32.4192C-105.895 32.4192 -105 31.4182 -105 30.1834C-105 28.9486 -105.895 27.9476 -107 27.9476C-108.105 27.9476 -109 28.9486 -109 30.1834C-109 31.4182 -108.105 32.4192 -107 32.4192ZM-77 30.1834C-77 31.4182 -77.8954 32.4192 -79 32.4192C-80.1046 32.4192 -81 31.4182 -81 30.1834C-81 28.9486 -80.1046 27.9476 -79 27.9476C-77.8954 27.9476 -77 28.9486 -77 30.1834ZM-51 32.4192C-49.8954 32.4192 -49 31.4182 -49 30.1834C-49 28.9486 -49.8954 27.9476 -51 27.9476C-52.1046 27.9476 -53 28.9486 -53 30.1834C-53 31.4182 -52.1046 32.4192 -51 32.4192ZM-21 30.1834C-21 31.4182 -21.8954 32.4192 -23 32.4192C-24.1046 32.4192 -25 31.4182 -25 30.1834C-25 28.9486 -24.1046 27.9476 -23 27.9476C-21.8954 27.9476 -21 28.9486 -21 30.1834ZM5 32.4192C6.10457 32.4192 7 31.4182 7 30.1834C7 28.9486 6.10457 27.9476 5 27.9476C3.89543 27.9476 3 28.9486 3 30.1834C3 31.4182 3.89543 32.4192 5 32.4192ZM35 30.1834C35 31.4182 34.1046 32.4192 33 32.4192C31.8954 32.4192 31 31.4182 31 30.1834C31 28.9486 31.8954 27.9476 33 27.9476C34.1046 27.9476 35 28.9486 35 30.1834ZM61 32.4192C62.1046 32.4192 63 31.4182 63 30.1834C63 28.9486 62.1046 27.9476 61 27.9476C59.8954 27.9476 59 28.9486 59 30.1834C59 31.4182 59.8954 32.4192 61 32.4192ZM91 30.1834C91 31.4182 90.1046 32.4192 89 32.4192C87.8954 32.4192 87 31.4182 87 30.1834C87 28.9486 87.8954 27.9476 89 27.9476C90.1046 27.9476 91 28.9486 91 30.1834ZM-163 60.3668C-161.895 60.3668 -161 59.3658 -161 58.131C-161 56.8962 -161.895 55.8952 -163 55.8952C-164.105 55.8952 -165 56.8962 -165 58.131C-165 59.3658 -164.105 60.3668 -163 60.3668ZM-135 60.3668C-133.895 60.3668 -133 59.3658 -133 58.131C-133 56.8962 -133.895 55.8952 -135 55.8952C-136.105 55.8952 -137 56.8962 -137 58.131C-137 59.3658 -136.105 60.3668 -135 60.3668ZM-105 58.131C-105 59.3658 -105.895 60.3668 -107 60.3668C-108.105 60.3668 -109 59.3658 -109 58.131C-109 56.8962 -108.105 55.8952 -107 55.8952C-105.895 55.8952 -105 56.8962 -105 58.131ZM-79 60.3668C-77.8954 60.3668 -77 59.3658 -77 58.131C-77 56.8962 -77.8954 55.8952 -79 55.8952C-80.1046 55.8952 -81 56.8962 -81 58.131C-81 59.3658 -80.1046 60.3668 -79 60.3668ZM-49 58.131C-49 59.3658 -49.8954 60.3668 -51 60.3668C-52.1046 60.3668 -53 59.3658 -53 58.131C-53 56.8962 -52.1046 55.8952 -51 55.8952C-49.8954 55.8952 -49 56.8962 -49 58.131ZM-23 60.3668C-21.8954 60.3668 -21 59.3658 -21 58.131C-21 56.8962 -21.8954 55.8952 -23 55.8952C-24.1046 55.8952 -25 56.8962 -25 58.131C-25 59.3658 -24.1046 60.3668 -23 60.3668ZM7 58.131C7 59.3658 6.10457 60.3668 5 60.3668C3.89543 60.3668 3 59.3658 3 58.131C3 56.8962 3.89543 55.8952 5 55.8952C6.10457 55.8952 7 56.8962 7 58.131ZM33 60.3668C34.1046 60.3668 35 59.3658 35 58.131C35 56.8962 34.1046 55.8952 33 55.8952C31.8954 55.8952 31 56.8962 31 58.131C31 59.3658 31.8954 60.3668 33 60.3668ZM63 58.131C63 59.3658 62.1046 60.3668 61 60.3668C59.8954 60.3668 59 59.3658 59 58.131C59 56.8962 59.8954 55.8952 61 55.8952C62.1046 55.8952 63 56.8962 63 58.131ZM89 60.3668C90.1046 60.3668 91 59.3658 91 58.131C91 56.8962 90.1046 55.8952 89 55.8952C87.8954 55.8952 87 56.8962 87 58.131C87 59.3658 87.8954 60.3668 89 60.3668ZM-161 86.0786C-161 87.3134 -161.895 88.3144 -163 88.3144C-164.105 88.3144 -165 87.3134 -165 86.0786C-165 84.8438 -164.105 83.8428 -163 83.8428C-161.895 83.8428 -161 84.8438 -161 86.0786ZM-133 86.0786C-133 87.3134 -133.895 88.3144 -135 88.3144C-136.105 88.3144 -137 87.3134 -137 86.0786C-137 84.8438 -136.105 83.8428 -135 83.8428C-133.895 83.8428 -133 84.8438 -133 86.0786ZM-107 88.3144C-105.895 88.3144 -105 87.3134 -105 86.0786C-105 84.8438 -105.895 83.8428 -107 83.8428C-108.105 83.8428 -109 84.8438 -109 86.0786C-109 87.3134 -108.105 88.3144 -107 88.3144ZM-77 86.0786C-77 87.3134 -77.8954 88.3144 -79 88.3144C-80.1046 88.3144 -81 87.3134 -81 86.0786C-81 84.8438 -80.1046 83.8428 -79 83.8428C-77.8954 83.8428 -77 84.8438 -77 86.0786ZM-51 88.3144C-49.8954 88.3144 -49 87.3134 -49 86.0786C-49 84.8438 -49.8954 83.8428 -51 83.8428C-52.1046 83.8428 -53 84.8438 -53 86.0786C-53 87.3134 -52.1046 88.3144 -51 88.3144ZM-21 86.0786C-21 87.3134 -21.8954 88.3144 -23 88.3144C-24.1046 88.3144 -25 87.3134 -25 86.0786C-25 84.8438 -24.1046 83.8428 -23 83.8428C-21.8954 83.8428 -21 84.8438 -21 86.0786ZM5 88.3144C6.10457 88.3144 7 87.3134 7 86.0786C7 84.8438 6.10457 83.8428 5 83.8428C3.89543 83.8428 3 84.8438 3 86.0786C3 87.3134 3.89543 88.3144 5 88.3144ZM35 86.0786C35 87.3134 34.1046 88.3144 33 88.3144C31.8954 88.3144 31 87.3134 31 86.0786C31 84.8438 31.8954 83.8428 33 83.8428C34.1046 83.8428 35 84.8438 35 86.0786ZM61 88.3144C62.1046 88.3144 63 87.3134 63 86.0786C63 84.8438 62.1046 83.8428 61 83.8428C59.8954 83.8428 59 84.8438 59 86.0786C59 87.3134 59.8954 88.3144 61 88.3144ZM91 86.0786C91 87.3134 90.1046 88.3144 89 88.3144C87.8954 88.3144 87 87.3134 87 86.0786C87 84.8438 87.8954 83.8428 89 83.8428C90.1046 83.8428 91 84.8438 91 86.0786ZM-163 116.262C-161.895 116.262 -161 115.261 -161 114.026C-161 112.791 -161.895 111.79 -163 111.79C-164.105 111.79 -165 112.791 -165 114.026C-165 115.261 -164.105 116.262 -163 116.262ZM-135 116.262C-133.895 116.262 -133 115.261 -133 114.026C-133 112.791 -133.895 111.79 -135 111.79C-136.105 111.79 -137 112.791 -137 114.026C-137 115.261 -136.105 116.262 -135 116.262ZM-105 114.026C-105 115.261 -105.895 116.262 -107 116.262C-108.105 116.262 -109 115.261 -109 114.026C-109 112.791 -108.105 111.79 -107 111.79C-105.895 111.79 -105 112.791 -105 114.026ZM-79 116.262C-77.8954 116.262 -77 115.261 -77 114.026C-77 112.791 -77.8954 111.79 -79 111.79C-80.1046 111.79 -81 112.791 -81 114.026C-81 115.261 -80.1046 116.262 -79 116.262ZM-49 114.026C-49 115.261 -49.8954 116.262 -51 116.262C-52.1046 116.262 -53 115.261 -53 114.026C-53 112.791 -52.1046 111.79 -51 111.79C-49.8954 111.79 -49 112.791 -49 114.026ZM-23 116.262C-21.8954 116.262 -21 115.261 -21 114.026C-21 112.791 -21.8954 111.79 -23 111.79C-24.1046 111.79 -25 112.791 -25 114.026C-25 115.261 -24.1046 116.262 -23 116.262ZM7 114.026C7 115.261 6.10457 116.262 5 116.262C3.89543 116.262 3 115.261 3 114.026C3 112.791 3.89543 111.79 5 111.79C6.10457 111.79 7 112.791 7 114.026ZM33 116.262C34.1046 116.262 35 115.261 35 114.026C35 112.791 34.1046 111.79 33 111.79C31.8954 111.79 31 112.791 31 114.026C31 115.261 31.8954 116.262 33 116.262ZM63 114.026C63 115.261 62.1046 116.262 61 116.262C59.8954 116.262 59 115.261 59 114.026C59 112.791 59.8954 111.79 61 111.79C62.1046 111.79 63 112.791 63 114.026ZM89 116.262C90.1046 116.262 91 115.261 91 114.026C91 112.791 90.1046 111.79 89 111.79C87.8954 111.79 87 112.791 87 114.026C87 115.261 87.8954 116.262 89 116.262ZM-161 141.974C-161 143.209 -161.895 144.21 -163 144.21C-164.105 144.21 -165 143.209 -165 141.974C-165 140.739 -164.105 139.738 -163 139.738C-161.895 139.738 -161 140.739 -161 141.974ZM-133 141.974C-133 143.209 -133.895 144.21 -135 144.21C-136.105 144.21 -137 143.209 -137 141.974C-137 140.739 -136.105 139.738 -135 139.738C-133.895 139.738 -133 140.739 -133 141.974ZM-107 144.21C-105.895 144.21 -105 143.209 -105 141.974C-105 140.739 -105.895 139.738 -107 139.738C-108.105 139.738 -109 140.739 -109 141.974C-109 143.209 -108.105 144.21 -107 144.21ZM-77 141.974C-77 143.209 -77.8954 144.21 -79 144.21C-80.1046 144.21 -81 143.209 -81 141.974C-81 140.739 -80.1046 139.738 -79 139.738C-77.8954 139.738 -77 140.739 -77 141.974ZM-51 144.21C-49.8954 144.21 -49 143.209 -49 141.974C-49 140.739 -49.8954 139.738 -51 139.738C-52.1046 139.738 -53 140.739 -53 141.974C-53 143.209 -52.1046 144.21 -51 144.21ZM-21 141.974C-21 143.209 -21.8954 144.21 -23 144.21C-24.1046 144.21 -25 143.209 -25 141.974C-25 140.739 -24.1046 139.738 -23 139.738C-21.8954 139.738 -21 140.739 -21 141.974ZM5 144.21C6.10457 144.21 7 143.209 7 141.974C7 140.739 6.10457 139.738 5 139.738C3.89543 139.738 3 140.739 3 141.974C3 143.209 3.89543 144.21 5 144.21ZM35 141.974C35 143.209 34.1046 144.21 33 144.21C31.8954 144.21 31 143.209 31 141.974C31 140.739 31.8954 139.738 33 139.738C34.1046 139.738 35 140.739 35 141.974ZM61 144.21C62.1046 144.21 63 143.209 63 141.974C63 140.739 62.1046 139.738 61 139.738C59.8954 139.738 59 140.739 59 141.974C59 143.209 59.8954 144.21 61 144.21ZM91 141.974C91 143.209 90.1046 144.21 89 144.21C87.8954 144.21 87 143.209 87 141.974C87 140.739 87.8954 139.738 89 139.738C90.1046 139.738 91 140.739 91 141.974ZM-163 172.157C-161.895 172.157 -161 171.156 -161 169.921C-161 168.687 -161.895 167.686 -163 167.686C-164.105 167.686 -165 168.687 -165 169.921C-165 171.156 -164.105 172.157 -163 172.157ZM-135 172.157C-133.895 172.157 -133 171.156 -133 169.921C-133 168.687 -133.895 167.686 -135 167.686C-136.105 167.686 -137 168.687 -137 169.921C-137 171.156 -136.105 172.157 -135 172.157ZM-105 169.921C-105 171.156 -105.895 172.157 -107 172.157C-108.105 172.157 -109 171.156 -109 169.921C-109 168.687 -108.105 167.686 -107 167.686C-105.895 167.686 -105 168.687 -105 169.921ZM-79 172.157C-77.8954 172.157 -77 171.156 -77 169.921C-77 168.687 -77.8954 167.686 -79 167.686C-80.1046 167.686 -81 168.687 -81 169.921C-81 171.156 -80.1046 172.157 -79 172.157ZM-49 169.921C-49 171.156 -49.8954 172.157 -51 172.157C-52.1046 172.157 -53 171.156 -53 169.921C-53 168.687 -52.1046 167.686 -51 167.686C-49.8954 167.686 -49 168.687 -49 169.921ZM-23 172.157C-21.8954 172.157 -21 171.156 -21 169.921C-21 168.687 -21.8954 167.686 -23 167.686C-24.1046 167.686 -25 168.687 -25 169.921C-25 171.156 -24.1046 172.157 -23 172.157ZM7 169.921C7 171.156 6.10457 172.157 5 172.157C3.89543 172.157 3 171.156 3 169.921C3 168.687 3.89543 167.686 5 167.686C6.10457 167.686 7 168.687 7 169.921ZM33 172.157C34.1046 172.157 35 171.156 35 169.921C35 168.687 34.1046 167.686 33 167.686C31.8954 167.686 31 168.687 31 169.921C31 171.156 31.8954 172.157 33 172.157ZM63 169.921C63 171.156 62.1046 172.157 61 172.157C59.8954 172.157 59 171.156 59 169.921C59 168.687 59.8954 167.686 61 167.686C62.1046 167.686 63 168.687 63 169.921ZM89 172.157C90.1046 172.157 91 171.156 91 169.921C91 168.687 90.1046 167.686 89 167.686C87.8954 167.686 87 168.687 87 169.921C87 171.156 87.8954 172.157 89 172.157ZM-161 197.869C-161 199.104 -161.895 200.105 -163 200.105C-164.105 200.105 -165 199.104 -165 197.869C-165 196.634 -164.105 195.633 -163 195.633C-161.895 195.633 -161 196.634 -161 197.869ZM-133 197.869C-133 199.104 -133.895 200.105 -135 200.105C-136.105 200.105 -137 199.104 -137 197.869C-137 196.634 -136.105 195.633 -135 195.633C-133.895 195.633 -133 196.634 -133 197.869ZM-107 200.105C-105.895 200.105 -105 199.104 -105 197.869C-105 196.634 -105.895 195.633 -107 195.633C-108.105 195.633 -109 196.634 -109 197.869C-109 199.104 -108.105 200.105 -107 200.105ZM-77 197.869C-77 199.104 -77.8954 200.105 -79 200.105C-80.1046 200.105 -81 199.104 -81 197.869C-81 196.634 -80.1046 195.633 -79 195.633C-77.8954 195.633 -77 196.634 -77 197.869ZM-51 200.105C-49.8954 200.105 -49 199.104 -49 197.869C-49 196.634 -49.8954 195.633 -51 195.633C-52.1046 195.633 -53 196.634 -53 197.869C-53 199.104 -52.1046 200.105 -51 200.105ZM-21 197.869C-21 199.104 -21.8954 200.105 -23 200.105C-24.1046 200.105 -25 199.104 -25 197.869C-25 196.634 -24.1046 195.633 -23 195.633C-21.8954 195.633 -21 196.634 -21 197.869ZM5 200.105C6.10457 200.105 7 199.104 7 197.869C7 196.634 6.10457 195.633 5 195.633C3.89543 195.633 3 196.634 3 197.869C3 199.104 3.89543 200.105 5 200.105ZM35 197.869C35 199.104 34.1046 200.105 33 200.105C31.8954 200.105 31 199.104 31 197.869C31 196.634 31.8954 195.633 33 195.633C34.1046 195.633 35 196.634 35 197.869ZM61 200.105C62.1046 200.105 63 199.104 63 197.869C63 196.634 62.1046 195.633 61 195.633C59.8954 195.633 59 196.634 59 197.869C59 199.104 59.8954 200.105 61 200.105ZM91 197.869C91 199.104 90.1046 200.105 89 200.105C87.8954 200.105 87 199.104 87 197.869C87 196.634 87.8954 195.633 89 195.633C90.1046 195.633 91 196.634 91 197.869ZM-163 228.052C-161.895 228.052 -161 227.051 -161 225.817C-161 224.582 -161.895 223.581 -163 223.581C-164.105 223.581 -165 224.582 -165 225.817C-165 227.051 -164.105 228.052 -163 228.052ZM-135 228.052C-133.895 228.052 -133 227.051 -133 225.817C-133 224.582 -133.895 223.581 -135 223.581C-136.105 223.581 -137 224.582 -137 225.817C-137 227.051 -136.105 228.052 -135 228.052ZM-105 225.817C-105 227.051 -105.895 228.052 -107 228.052C-108.105 228.052 -109 227.051 -109 225.817C-109 224.582 -108.105 223.581 -107 223.581C-105.895 223.581 -105 224.582 -105 225.817ZM-79 228.052C-77.8954 228.052 -77 227.051 -77 225.817C-77 224.582 -77.8954 223.581 -79 223.581C-80.1046 223.581 -81 224.582 -81 225.817C-81 227.051 -80.1046 228.052 -79 228.052ZM-49 225.817C-49 227.051 -49.8954 228.052 -51 228.052C-52.1046 228.052 -53 227.051 -53 225.817C-53 224.582 -52.1046 223.581 -51 223.581C-49.8954 223.581 -49 224.582 -49 225.817ZM-23 228.052C-21.8954 228.052 -21 227.051 -21 225.817C-21 224.582 -21.8954 223.581 -23 223.581C-24.1046 223.581 -25 224.582 -25 225.817C-25 227.051 -24.1046 228.052 -23 228.052ZM7 225.817C7 227.051 6.10457 228.052 5 228.052C3.89543 228.052 3 227.051 3 225.817C3 224.582 3.89543 223.581 5 223.581C6.10457 223.581 7 224.582 7 225.817ZM33 228.052C34.1046 228.052 35 227.051 35 225.817C35 224.582 34.1046 223.581 33 223.581C31.8954 223.581 31 224.582 31 225.817C31 227.051 31.8954 228.052 33 228.052ZM63 225.817C63 227.051 62.1046 228.052 61 228.052C59.8954 228.052 59 227.051 59 225.817C59 224.582 59.8954 223.581 61 223.581C62.1046 223.581 63 224.582 63 225.817ZM89 228.052C90.1046 228.052 91 227.051 91 225.817C91 224.582 90.1046 223.581 89 223.581C87.8954 223.581 87 224.582 87 225.817C87 227.051 87.8954 228.052 89 228.052ZM-161 253.764C-161 254.999 -161.895 256 -163 256C-164.105 256 -165 254.999 -165 253.764C-165 252.529 -164.105 251.528 -163 251.528C-161.895 251.528 -161 252.529 -161 253.764ZM-133 253.764C-133 254.999 -133.895 256 -135 256C-136.105 256 -137 254.999 -137 253.764C-137 252.529 -136.105 251.528 -135 251.528C-133.895 251.528 -133 252.529 -133 253.764ZM-107 256C-105.895 256 -105 254.999 -105 253.764C-105 252.529 -105.895 251.528 -107 251.528C-108.105 251.528 -109 252.529 -109 253.764C-109 254.999 -108.105 256 -107 256ZM-77 253.764C-77 254.999 -77.8954 256 -79 256C-80.1046 256 -81 254.999 -81 253.764C-81 252.529 -80.1046 251.528 -79 251.528C-77.8954 251.528 -77 252.529 -77 253.764ZM-51 256C-49.8954 256 -49 254.999 -49 253.764C-49 252.529 -49.8954 251.528 -51 251.528C-52.1046 251.528 -53 252.529 -53 253.764C-53 254.999 -52.1046 256 -51 256ZM-21 253.764C-21 254.999 -21.8954 256 -23 256C-24.1046 256 -25 254.999 -25 253.764C-25 252.529 -24.1046 251.528 -23 251.528C-21.8954 251.528 -21 252.529 -21 253.764ZM5 256C6.10457 256 7 254.999 7 253.764C7 252.529 6.10457 251.528 5 251.528C3.89543 251.528 3 252.529 3 253.764C3 254.999 3.89543 256 5 256ZM35 253.764C35 254.999 34.1046 256 33 256C31.8954 256 31 254.999 31 253.764C31 252.529 31.8954 251.528 33 251.528C34.1046 251.528 35 252.529 35 253.764ZM61 256C62.1046 256 63 254.999 63 253.764C63 252.529 62.1046 251.528 61 251.528C59.8954 251.528 59 252.529 59 253.764C59 254.999 59.8954 256 61 256ZM91 253.764C91 254.999 90.1046 256 89 256C87.8954 256 87 254.999 87 253.764C87 252.529 87.8954 251.528 89 251.528C90.1046 251.528 91 252.529 91 253.764Z" fill="#32397C"/>
</svg>
