<svg width="444" height="832" viewBox="0 0 444 832" fill="none" xmlns="http://www.w3.org/2000/svg">
<circle r="36" transform="matrix(4.37114e-08 1 1 -4.37114e-08 105 132)" fill="#FFD4D0"/>
<path d="M115.231 129.916C115.23 132.648 114.315 135.302 112.632 137.454L119.4 144.222L117.223 146.398L110.455 139.631C108.303 141.315 105.648 142.231 102.915 142.231C96.1247 142.231 90.5996 136.706 90.5996 129.916C90.5996 123.125 96.1247 117.6 102.915 117.6C109.706 117.6 115.231 123.125 115.231 129.916ZM93.6785 129.916C93.6785 135.01 97.8212 139.152 102.915 139.152C108.009 139.152 112.152 135.01 112.152 129.916C112.152 124.822 108.009 120.679 102.915 120.679C97.8212 120.679 93.6785 124.822 93.6785 129.916Z" fill="#32397C"/>
<circle r="36" transform="matrix(4.37114e-08 1 1 -4.37114e-08 105 274)" fill="#FFD4D0"/>
<path d="M111.579 288.9L97.1926 288.9C95.1804 288.9 93.4598 288.186 92.0362 286.761C90.6125 285.336 89.8996 283.614 89.8996 281.6C89.8996 281.086 90.0834 280.639 90.4477 280.265C90.8134 279.889 91.2656 279.7 91.7978 279.7L93.4961 279.7L93.4961 263.6C93.4961 262.669 93.8848 261.82 94.6492 261.054C95.4136 260.289 96.2622 259.9 97.1926 259.9L111.579 259.9C113.591 259.9 115.311 260.614 116.735 262.039C118.159 263.464 118.871 265.186 118.871 267.2C118.871 267.733 118.683 268.185 118.307 268.551C117.933 268.916 117.487 269.1 116.973 269.1L115.275 269.1L115.275 283.4C115.275 284.364 115.166 285.24 114.948 286.028C114.728 286.823 114.331 287.5 113.755 288.056C113.173 288.62 112.445 288.9 111.579 288.9ZM115.275 267.1L116.872 267.1C116.849 265.672 116.318 264.453 115.275 263.437L115.275 267.1ZM96.2371 262.631C95.7463 263.113 95.4943 263.806 95.4943 264.725L95.4943 279.7L106.184 279.7C106.698 279.7 107.145 279.889 107.519 280.264C107.868 280.614 108.057 281.027 108.08 281.5L110.679 281.5C110.95 281.5 111.186 281.6 111.382 281.797C111.578 281.993 111.679 282.229 111.679 282.5C111.679 282.771 111.578 283.007 111.382 283.204C111.186 283.4 110.95 283.5 110.679 283.5L108.369 283.5C108.59 284.223 108.919 284.858 109.353 285.405C109.804 285.974 110.334 286.395 110.942 286.67C111.728 286.475 112.307 286.162 112.691 285.738C113.08 285.309 113.277 284.758 113.277 284.075L113.277 261.9L98.0917 261.9C97.3481 261.9 96.7322 262.144 96.2371 262.631ZM91.8986 281.7C91.9214 283.13 92.4354 284.347 93.442 285.354C94.4721 286.385 95.7203 286.9 97.1926 286.9L107.988 286.9C106.739 285.423 106.105 283.688 106.084 281.7L91.8986 281.7ZM111.382 276.397C111.578 276.593 111.679 276.829 111.679 277.1C111.679 277.371 111.578 277.607 111.382 277.804C111.186 278 110.95 278.1 110.679 278.1L98.0917 278.1C97.8206 278.1 97.5847 278 97.3887 277.804C97.1927 277.607 97.0926 277.371 97.0926 277.1C97.0926 276.829 97.1927 276.593 97.3887 276.397C97.5847 276.2 97.8206 276.1 98.0917 276.1L110.679 276.1C110.95 276.1 111.186 276.2 111.382 276.397ZM110.679 272.7L98.0917 272.7C97.8206 272.7 97.5847 272.6 97.3887 272.404C97.1927 272.207 97.0926 271.971 97.0926 271.7C97.0926 271.429 97.1927 271.193 97.3887 270.997C97.5847 270.8 97.8206 270.7 98.0917 270.7L110.679 270.7C110.95 270.7 111.186 270.8 111.382 270.997C111.578 271.193 111.679 271.429 111.679 271.7C111.679 271.971 111.578 272.207 111.382 272.404C111.186 272.6 110.95 272.7 110.679 272.7ZM110.679 267.3L98.0917 267.3C97.8206 267.3 97.5847 267.2 97.3887 267.004C97.1927 266.807 97.0926 266.571 97.0926 266.3C97.0926 266.029 97.1927 265.793 97.3887 265.597C97.5847 265.4 97.8206 265.3 98.0917 265.3L110.679 265.3C110.95 265.3 111.186 265.4 111.382 265.597C111.578 265.793 111.679 266.029 111.679 266.3C111.679 266.571 111.578 266.807 111.382 267.004C111.186 267.2 110.95 267.3 110.679 267.3Z" fill="#32397C" stroke="#32397C" stroke-width="0.2"/>
<circle cx="105.001" cy="416" r="36" transform="rotate(90 105.001 416)" fill="#FFD4D0"/>
<path fill-rule="evenodd" clip-rule="evenodd" d="M94.4002 404.7H116C117.489 404.7 118.7 405.911 118.7 407.4V423.6C118.7 425.089 117.489 426.3 116 426.3H94.4002C92.9111 426.3 91.7002 425.089 91.7002 423.6V407.4C91.7002 405.911 92.9111 404.7 94.4002 404.7ZM94.4002 407.4V423.6H116.003L116 407.4H94.4002ZM99.1253 414.15C100.244 414.15 101.15 413.243 101.15 412.125C101.15 411.007 100.244 410.1 99.1253 410.1C98.0069 410.1 97.1003 411.007 97.1003 412.125C97.1003 413.243 98.0069 414.15 99.1253 414.15ZM103.175 418.2L101.15 415.5L97.1003 420.9H113.3L107.225 412.8L103.175 418.2Z" fill="#32397C"/>
<circle cx="105.001" cy="558" r="36" transform="rotate(90 105.001 558)" fill="#FFD4D0"/>
<path d="M93.801 544C93.0584 544 92.3462 544.295 91.8211 544.82C91.296 545.345 91.001 546.057 91.001 546.8V560.8H93.801V546.8H107.801V544H93.801ZM99.401 549.6C98.6584 549.6 97.9462 549.895 97.4211 550.42C96.896 550.945 96.601 551.657 96.601 552.4V566.4H99.401V552.4H113.401V549.6H99.401ZM116.201 558V569.2H105.001V558H116.201ZM116.201 555.2H105.001C104.258 555.2 103.546 555.495 103.021 556.02C102.496 556.545 102.201 557.257 102.201 558V569.2C102.201 569.942 102.496 570.655 103.021 571.18C103.546 571.705 104.258 572 105.001 572H116.201C116.944 572 117.656 571.705 118.181 571.18C118.706 570.655 119.001 569.942 119.001 569.2V558C119.001 557.257 118.706 556.545 118.181 556.02C117.656 555.495 116.944 555.2 116.201 555.2ZM107.801 559.4V567.8L113.401 563.6L107.801 559.4Z" fill="#32397C"/>
<circle cx="105" cy="699.999" r="36" transform="rotate(90 105 699.999)" fill="#FFD4D0"/>
<path d="M118.334 686.666L103.667 701.333" stroke="#32397C" stroke-width="2" stroke-linecap="round" stroke-linejoin="round"/>
<path d="M118.334 686.666L109 713.333L103.667 701.333L91.667 695.999L118.334 686.666Z" stroke="#32397C" stroke-width="2.5" stroke-linecap="round" stroke-linejoin="round"/>
<path d="M241.256 141H248.6C254.048 141 257.768 137.64 257.768 132.6C257.768 127.56 254.048 124.2 248.6 124.2H241.256V141ZM244.376 138.36V126.84H248.456C252.2 126.84 254.624 129.12 254.624 132.6C254.624 136.08 252.2 138.36 248.456 138.36H244.376ZM261.708 126.072C262.836 126.072 263.628 125.256 263.628 124.2C263.628 123.216 262.812 122.472 261.708 122.472C260.604 122.472 259.788 123.264 259.788 124.272C259.788 125.28 260.604 126.072 261.708 126.072ZM260.196 141H263.196V128.184H260.196V141ZM270.494 141.168C274.094 141.168 276.302 139.608 276.302 137.208C276.302 132.192 268.382 134.496 268.382 131.904C268.382 131.064 269.246 130.464 271.07 130.464C272.294 130.464 273.518 130.704 274.742 131.424L275.894 129.144C274.742 128.448 272.798 128.04 271.094 128.04C267.638 128.04 265.454 129.624 265.454 132.048C265.454 137.16 273.374 134.856 273.374 137.304C273.374 138.192 272.582 138.72 270.686 138.72C269.078 138.72 267.35 138.192 266.222 137.448L265.07 139.728C266.222 140.544 268.358 141.168 270.494 141.168ZM284.165 141.168C286.661 141.168 288.653 140.088 289.637 138.168L287.333 136.824C286.565 138.048 285.413 138.6 284.141 138.6C281.933 138.6 280.253 137.088 280.253 134.592C280.253 132.12 281.933 130.584 284.141 130.584C285.413 130.584 286.565 131.136 287.333 132.36L289.637 131.016C288.653 129.072 286.661 128.04 284.165 128.04C280.109 128.04 277.229 130.752 277.229 134.592C277.229 138.432 280.109 141.168 284.165 141.168ZM297.203 141.168C301.187 141.168 304.043 138.432 304.043 134.592C304.043 130.752 301.187 128.04 297.203 128.04C293.267 128.04 290.387 130.752 290.387 134.592C290.387 138.432 293.267 141.168 297.203 141.168ZM297.203 138.6C295.043 138.6 293.411 137.04 293.411 134.592C293.411 132.144 295.043 130.584 297.203 130.584C299.387 130.584 301.019 132.144 301.019 134.592C301.019 137.04 299.387 138.6 297.203 138.6ZM315.08 128.184L310.976 137.688L306.992 128.184H303.872L309.368 141H312.464L317.96 128.184H315.08ZM330.932 134.664C330.932 130.656 328.196 128.04 324.452 128.04C320.636 128.04 317.828 130.776 317.828 134.592C317.828 138.408 320.612 141.168 324.908 141.168C327.116 141.168 328.916 140.448 330.068 139.08L328.46 137.232C327.548 138.168 326.42 138.624 324.98 138.624C322.748 138.624 321.188 137.424 320.828 135.552H330.884C330.908 135.264 330.932 134.904 330.932 134.664ZM324.452 130.44C326.42 130.44 327.836 131.712 328.076 133.56H320.804C321.092 131.688 322.508 130.44 324.452 130.44ZM336.069 130.056V128.184H333.213V141H336.213V134.784C336.213 132.168 337.653 130.824 339.933 130.824C340.149 130.824 340.365 130.848 340.629 130.896V128.04C338.493 128.04 336.933 128.712 336.069 130.056ZM352.163 128.184L348.107 137.664L344.075 128.184H340.955L346.547 141.048L346.331 141.552C345.755 142.824 345.131 143.328 344.075 143.328C343.259 143.328 342.443 142.992 341.867 142.44L340.667 144.648C341.483 145.392 342.827 145.824 344.099 145.824C346.235 145.824 347.867 144.936 349.043 142.032L355.043 128.184H352.163Z" fill="#FFD4D0"/>
<path d="M246.464 283.24C251.072 283.24 253.256 280.936 253.256 278.248C253.256 272.08 243.296 274.408 243.296 270.832C243.296 269.56 244.352 268.552 246.944 268.552C248.408 268.552 250.064 268.984 251.576 269.872L252.56 267.448C251.096 266.488 248.984 265.96 246.968 265.96C242.36 265.96 240.2 268.264 240.2 270.976C240.2 277.216 250.184 274.84 250.184 278.464C250.184 279.712 249.08 280.648 246.464 280.648C244.4 280.648 242.264 279.88 240.92 278.8L239.84 281.224C241.232 282.424 243.848 283.24 246.464 283.24ZM262.326 280.168C261.87 280.528 261.27 280.696 260.646 280.696C259.494 280.696 258.87 280.024 258.87 278.776V272.68H262.302V270.28H258.87V267.352H255.87V270.28H253.758V272.68H255.87V278.848C255.87 281.68 257.478 283.168 260.286 283.168C261.366 283.168 262.446 282.88 263.166 282.304L262.326 280.168ZM270.372 283.168C274.356 283.168 277.212 280.432 277.212 276.592C277.212 272.752 274.356 270.04 270.372 270.04C266.436 270.04 263.556 272.752 263.556 276.592C263.556 280.432 266.436 283.168 270.372 283.168ZM270.372 280.6C268.212 280.6 266.58 279.04 266.58 276.592C266.58 274.144 268.212 272.584 270.372 272.584C272.556 272.584 274.188 274.144 274.188 276.592C274.188 279.04 272.556 280.6 270.372 280.6ZM282.337 272.056V270.184H279.481V283H282.481V276.784C282.481 274.168 283.921 272.824 286.201 272.824C286.417 272.824 286.633 272.848 286.897 272.896V270.04C284.761 270.04 283.201 270.712 282.337 272.056ZM298.43 270.184L294.374 279.664L290.342 270.184H287.222L292.814 283.048L292.598 283.552C292.022 284.824 291.398 285.328 290.342 285.328C289.526 285.328 288.71 284.992 288.134 284.44L286.934 286.648C287.75 287.392 289.094 287.824 290.366 287.824C292.502 287.824 294.134 286.936 295.31 284.032L301.31 270.184H298.43Z" fill="#FFD4D0"/>
<path d="M249.032 425.24C251.792 425.24 254.144 424.256 255.704 422.432L253.688 420.512C252.464 421.856 250.952 422.504 249.2 422.504C245.72 422.504 243.2 420.056 243.2 416.6C243.2 413.144 245.72 410.696 249.2 410.696C250.952 410.696 252.464 411.344 253.688 412.664L255.704 410.768C254.144 408.944 251.792 407.96 249.056 407.96C243.896 407.96 240.056 411.584 240.056 416.6C240.056 421.616 243.896 425.24 249.032 425.24ZM263.097 425.168C267.081 425.168 269.937 422.432 269.937 418.592C269.937 414.752 267.081 412.04 263.097 412.04C259.161 412.04 256.281 414.752 256.281 418.592C256.281 422.432 259.161 425.168 263.097 425.168ZM263.097 422.6C260.937 422.6 259.305 421.04 259.305 418.592C259.305 416.144 260.937 414.584 263.097 414.584C265.281 414.584 266.913 416.144 266.913 418.592C266.913 421.04 265.281 422.6 263.097 422.6ZM279.477 412.04C277.605 412.04 276.045 412.664 275.061 413.84V412.184H272.205V425H275.205V418.52C275.205 415.952 276.645 414.656 278.781 414.656C280.701 414.656 281.829 415.76 281.829 418.04V425H284.83V417.656C284.83 413.792 282.549 412.04 279.477 412.04ZM294.032 425.168C296.528 425.168 298.52 424.088 299.504 422.168L297.2 420.824C296.432 422.048 295.28 422.6 294.008 422.6C291.8 422.6 290.12 421.088 290.12 418.592C290.12 416.12 291.8 414.584 294.008 414.584C295.28 414.584 296.432 415.136 297.2 416.36L299.504 415.016C298.52 413.072 296.528 412.04 294.032 412.04C289.976 412.04 287.096 414.752 287.096 418.592C287.096 422.432 289.976 425.168 294.032 425.168ZM313.358 418.664C313.358 414.656 310.622 412.04 306.878 412.04C303.062 412.04 300.254 414.776 300.254 418.592C300.254 422.408 303.038 425.168 307.334 425.168C309.542 425.168 311.342 424.448 312.494 423.08L310.886 421.232C309.974 422.168 308.846 422.624 307.406 422.624C305.174 422.624 303.614 421.424 303.254 419.552H313.31C313.334 419.264 313.358 418.904 313.358 418.664ZM306.878 414.44C308.846 414.44 310.262 415.712 310.502 417.56H303.23C303.518 415.688 304.934 414.44 306.878 414.44ZM322.744 412.04C320.992 412.04 319.504 412.64 318.496 413.864V412.184H315.64V429.656H318.64V423.44C319.672 424.616 321.112 425.168 322.744 425.168C326.488 425.168 329.248 422.576 329.248 418.592C329.248 414.632 326.488 412.04 322.744 412.04ZM322.408 422.6C320.248 422.6 318.592 421.04 318.592 418.592C318.592 416.144 320.248 414.584 322.408 414.584C324.568 414.584 326.2 416.144 326.2 418.592C326.2 421.04 324.568 422.6 322.408 422.6ZM338.357 422.168C337.901 422.528 337.301 422.696 336.677 422.696C335.525 422.696 334.901 422.024 334.901 420.776V414.68H338.333V412.28H334.901V409.352H331.901V412.28H329.789V414.68H331.901V420.848C331.901 423.68 333.509 425.168 336.317 425.168C337.397 425.168 338.477 424.88 339.197 424.304L338.357 422.168Z" fill="#FFD4D0"/>
<path d="M248.168 550.2H241.256V567H244.376V562.152H248.168C252.584 562.152 255.32 559.872 255.32 556.176C255.32 552.456 252.584 550.2 248.168 550.2ZM248.024 559.512H244.376V552.84H248.024C250.76 552.84 252.176 554.064 252.176 556.176C252.176 558.288 250.76 559.512 248.024 559.512ZM260.286 556.056V554.184H257.43V567H260.431V560.784C260.431 558.168 261.871 556.824 264.151 556.824C264.367 556.824 264.583 556.848 264.847 556.896V554.04C262.711 554.04 261.151 554.712 260.286 556.056ZM272.434 567.168C276.418 567.168 279.274 564.432 279.274 560.592C279.274 556.752 276.418 554.04 272.434 554.04C268.498 554.04 265.618 556.752 265.618 560.592C265.618 564.432 268.498 567.168 272.434 567.168ZM272.434 564.6C270.274 564.6 268.642 563.04 268.642 560.592C268.642 558.144 270.274 556.584 272.434 556.584C274.618 556.584 276.25 558.144 276.25 560.592C276.25 563.04 274.618 564.6 272.434 564.6ZM291.095 549.192V555.768C290.087 554.592 288.623 554.04 286.967 554.04C283.247 554.04 280.487 556.608 280.487 560.592C280.487 564.576 283.247 567.168 286.967 567.168C288.719 567.168 290.207 566.568 291.215 565.344V567H294.095V549.192H291.095ZM287.327 564.6C285.167 564.6 283.511 563.04 283.511 560.592C283.511 558.144 285.167 556.584 287.327 556.584C289.487 556.584 291.143 558.144 291.143 560.592C291.143 563.04 289.487 564.6 287.327 564.6ZM306.828 554.184V560.664C306.828 563.232 305.412 564.528 303.324 564.528C301.428 564.528 300.324 563.424 300.324 561.096V554.184H297.324V561.504C297.324 565.368 299.556 567.168 302.844 567.168C304.5 567.168 306.012 566.544 306.972 565.368V567H309.828V554.184H306.828ZM319.036 567.168C321.532 567.168 323.523 566.088 324.508 564.168L322.204 562.824C321.436 564.048 320.284 564.6 319.012 564.6C316.804 564.6 315.124 563.088 315.124 560.592C315.124 558.12 316.804 556.584 319.012 556.584C320.284 556.584 321.436 557.136 322.204 558.36L324.508 557.016C323.523 555.072 321.532 554.04 319.036 554.04C314.98 554.04 312.1 556.752 312.1 560.592C312.1 564.432 314.98 567.168 319.036 567.168ZM333.529 564.168C333.073 564.528 332.473 564.696 331.849 564.696C330.697 564.696 330.073 564.024 330.073 562.776V556.68H333.505V554.28H330.073V551.352H327.073V554.28H324.961V556.68H327.073V562.848C327.073 565.68 328.681 567.168 331.489 567.168C332.569 567.168 333.649 566.88 334.369 566.304L333.529 564.168ZM337.749 552.072C338.877 552.072 339.669 551.256 339.669 550.2C339.669 549.216 338.853 548.472 337.749 548.472C336.645 548.472 335.829 549.264 335.829 550.272C335.829 551.28 336.645 552.072 337.749 552.072ZM336.237 567H339.237V554.184H336.237V567ZM348.334 567.168C352.318 567.168 355.174 564.432 355.174 560.592C355.174 556.752 352.318 554.04 348.334 554.04C344.398 554.04 341.518 556.752 341.518 560.592C341.518 564.432 344.398 567.168 348.334 567.168ZM348.334 564.6C346.174 564.6 344.542 563.04 344.542 560.592C344.542 558.144 346.174 556.584 348.334 556.584C350.518 556.584 352.15 558.144 352.15 560.592C352.15 563.04 350.518 564.6 348.334 564.6ZM364.715 554.04C362.843 554.04 361.283 554.664 360.299 555.84V554.184H357.443V567H360.443V560.52C360.443 557.952 361.883 556.656 364.019 556.656C365.939 556.656 367.067 557.76 367.067 560.04V567H370.067V559.656C370.067 555.792 367.787 554.04 364.715 554.04Z" fill="#FFD4D0"/>
<path d="M241.256 709H248.6C254.048 709 257.768 705.64 257.768 700.6C257.768 695.56 254.048 692.2 248.6 692.2H241.256V709ZM244.376 706.36V694.84H248.456C252.2 694.84 254.624 697.12 254.624 700.6C254.624 704.08 252.2 706.36 248.456 706.36H244.376ZM272.244 702.664C272.244 698.656 269.508 696.04 265.764 696.04C261.948 696.04 259.14 698.776 259.14 702.592C259.14 706.408 261.924 709.168 266.22 709.168C268.428 709.168 270.228 708.448 271.38 707.08L269.772 705.232C268.86 706.168 267.732 706.624 266.292 706.624C264.06 706.624 262.5 705.424 262.14 703.552H272.196C272.22 703.264 272.244 702.904 272.244 702.664ZM265.764 698.44C267.732 698.44 269.148 699.712 269.388 701.56H262.116C262.404 699.688 263.82 698.44 265.764 698.44ZM274.526 709H277.526V691.192H274.526V709ZM282.375 694.072C283.503 694.072 284.295 693.256 284.295 692.2C284.295 691.216 283.479 690.472 282.375 690.472C281.271 690.472 280.455 691.264 280.455 692.272C280.455 693.28 281.271 694.072 282.375 694.072ZM280.863 709H283.863V696.184H280.863V709ZM296.321 696.184L292.217 705.688L288.233 696.184H285.113L290.609 709H293.705L299.201 696.184H296.321ZM312.172 702.664C312.172 698.656 309.436 696.04 305.692 696.04C301.876 696.04 299.068 698.776 299.068 702.592C299.068 706.408 301.852 709.168 306.148 709.168C308.356 709.168 310.156 708.448 311.308 707.08L309.7 705.232C308.788 706.168 307.66 706.624 306.22 706.624C303.988 706.624 302.428 705.424 302.068 703.552H312.124C312.148 703.264 312.172 702.904 312.172 702.664ZM305.692 698.44C307.66 698.44 309.076 699.712 309.316 701.56H302.044C302.332 699.688 303.748 698.44 305.692 698.44ZM317.31 698.056V696.184H314.454V709H317.454V702.784C317.454 700.168 318.894 698.824 321.174 698.824C321.39 698.824 321.606 698.848 321.87 698.896V696.04C319.734 696.04 318.174 696.712 317.31 698.056ZM333.404 696.184L329.348 705.664L325.316 696.184H322.196L327.788 709.048L327.572 709.552C326.996 710.824 326.372 711.328 325.316 711.328C324.5 711.328 323.684 710.992 323.108 710.44L321.908 712.648C322.724 713.392 324.068 713.824 325.34 713.824C327.476 713.824 329.108 712.936 330.284 710.032L336.284 696.184H333.404Z" fill="#FFD4D0"/>
<path d="M240.085 161.168H244.277V162.16H240.085V161.168ZM255.342 157.52C256.131 157.52 256.846 157.701 257.486 158.064C258.126 158.416 258.627 158.917 258.99 159.568C259.353 160.219 259.534 160.96 259.534 161.792C259.534 162.635 259.353 163.381 258.99 164.032C258.627 164.683 258.126 165.189 257.486 165.552C256.857 165.904 256.142 166.08 255.342 166.08C254.659 166.08 254.041 165.941 253.486 165.664C252.942 165.376 252.494 164.96 252.142 164.416V169.104H251.006V157.584H252.094V159.248C252.435 158.693 252.883 158.267 253.438 157.968C254.003 157.669 254.638 157.52 255.342 157.52ZM255.262 165.072C255.849 165.072 256.382 164.939 256.862 164.672C257.342 164.395 257.715 164.005 257.982 163.504C258.259 163.003 258.398 162.432 258.398 161.792C258.398 161.152 258.259 160.587 257.982 160.096C257.715 159.595 257.342 159.205 256.862 158.928C256.382 158.651 255.849 158.512 255.262 158.512C254.665 158.512 254.126 158.651 253.646 158.928C253.177 159.205 252.803 159.595 252.526 160.096C252.259 160.587 252.126 161.152 252.126 161.792C252.126 162.432 252.259 163.003 252.526 163.504C252.803 164.005 253.177 164.395 253.646 164.672C254.126 164.939 254.665 165.072 255.262 165.072ZM262.938 159.232C263.204 158.667 263.599 158.24 264.122 157.952C264.655 157.664 265.311 157.52 266.09 157.52V158.624L265.818 158.608C264.932 158.608 264.239 158.88 263.738 159.424C263.236 159.968 262.986 160.731 262.986 161.712V166H261.85V157.584H262.938V159.232ZM271.508 166.08C270.698 166.08 269.967 165.899 269.316 165.536C268.666 165.163 268.154 164.651 267.78 164C267.407 163.349 267.22 162.613 267.22 161.792C267.22 160.971 267.407 160.235 267.78 159.584C268.154 158.933 268.666 158.427 269.316 158.064C269.967 157.701 270.698 157.52 271.508 157.52C272.319 157.52 273.05 157.701 273.7 158.064C274.351 158.427 274.858 158.933 275.22 159.584C275.594 160.235 275.78 160.971 275.78 161.792C275.78 162.613 275.594 163.349 275.22 164C274.858 164.651 274.351 165.163 273.7 165.536C273.05 165.899 272.319 166.08 271.508 166.08ZM271.508 165.072C272.106 165.072 272.639 164.939 273.108 164.672C273.588 164.395 273.962 164.005 274.228 163.504C274.495 163.003 274.628 162.432 274.628 161.792C274.628 161.152 274.495 160.581 274.228 160.08C273.962 159.579 273.588 159.195 273.108 158.928C272.639 158.651 272.106 158.512 271.508 158.512C270.911 158.512 270.372 158.651 269.892 158.928C269.423 159.195 269.05 159.579 268.772 160.08C268.506 160.581 268.372 161.152 268.372 161.792C268.372 162.432 268.506 163.003 268.772 163.504C269.05 164.005 269.423 164.395 269.892 164.672C270.372 164.939 270.911 165.072 271.508 165.072ZM276.852 169.184C276.5 169.184 276.169 169.136 275.86 169.04C275.54 168.955 275.278 168.821 275.076 168.64L275.476 167.776C275.806 168.064 276.244 168.208 276.788 168.208C277.236 168.208 277.577 168.075 277.812 167.808C278.057 167.541 278.18 167.147 278.18 166.624V157.584H279.316V166.624C279.316 167.413 279.102 168.037 278.676 168.496C278.249 168.955 277.641 169.184 276.852 169.184ZM278.756 155.728C278.521 155.728 278.324 155.648 278.164 155.488C278.004 155.328 277.924 155.136 277.924 154.912C277.924 154.699 278.004 154.512 278.164 154.352C278.324 154.192 278.521 154.112 278.756 154.112C278.99 154.112 279.188 154.192 279.348 154.352C279.508 154.501 279.588 154.683 279.588 154.896C279.588 155.131 279.508 155.328 279.348 155.488C279.188 155.648 278.99 155.728 278.756 155.728ZM289.818 162.144H282.778C282.842 163.019 283.178 163.728 283.786 164.272C284.394 164.805 285.162 165.072 286.09 165.072C286.613 165.072 287.093 164.981 287.53 164.8C287.968 164.608 288.346 164.331 288.666 163.968L289.306 164.704C288.933 165.152 288.464 165.493 287.898 165.728C287.344 165.963 286.73 166.08 286.058 166.08C285.194 166.08 284.426 165.899 283.754 165.536C283.093 165.163 282.576 164.651 282.202 164C281.829 163.349 281.642 162.613 281.642 161.792C281.642 160.971 281.818 160.235 282.17 159.584C282.533 158.933 283.024 158.427 283.642 158.064C284.272 157.701 284.976 157.52 285.754 157.52C286.533 157.52 287.232 157.701 287.85 158.064C288.469 158.427 288.954 158.933 289.306 159.584C289.658 160.224 289.834 160.96 289.834 161.792L289.818 162.144ZM285.754 158.496C284.944 158.496 284.261 158.757 283.706 159.28C283.162 159.792 282.853 160.464 282.778 161.296H288.746C288.672 160.464 288.357 159.792 287.802 159.28C287.258 158.757 286.576 158.496 285.754 158.496ZM295.635 166.08C294.803 166.08 294.056 165.899 293.395 165.536C292.744 165.173 292.232 164.667 291.859 164.016C291.485 163.355 291.299 162.613 291.299 161.792C291.299 160.971 291.485 160.235 291.859 159.584C292.232 158.933 292.744 158.427 293.395 158.064C294.056 157.701 294.803 157.52 295.635 157.52C296.36 157.52 297.005 157.664 297.571 157.952C298.147 158.229 298.6 158.64 298.931 159.184L298.083 159.76C297.805 159.344 297.453 159.035 297.027 158.832C296.6 158.619 296.136 158.512 295.635 158.512C295.027 158.512 294.477 158.651 293.987 158.928C293.507 159.195 293.128 159.579 292.851 160.08C292.584 160.581 292.451 161.152 292.451 161.792C292.451 162.443 292.584 163.019 292.851 163.52C293.128 164.011 293.507 164.395 293.987 164.672C294.477 164.939 295.027 165.072 295.635 165.072C296.136 165.072 296.6 164.971 297.027 164.768C297.453 164.565 297.805 164.256 298.083 163.84L298.931 164.416C298.6 164.96 298.147 165.376 297.571 165.664C296.995 165.941 296.349 166.08 295.635 166.08ZM305.688 165.488C305.475 165.68 305.208 165.829 304.888 165.936C304.579 166.032 304.253 166.08 303.912 166.08C303.123 166.08 302.515 165.867 302.088 165.44C301.661 165.013 301.448 164.411 301.448 163.632V158.544H299.944V157.584H301.448V155.744H302.584V157.584H305.144V158.544H302.584V163.568C302.584 164.069 302.707 164.453 302.952 164.72C303.208 164.976 303.571 165.104 304.04 165.104C304.275 165.104 304.499 165.067 304.712 164.992C304.936 164.917 305.128 164.811 305.288 164.672L305.688 165.488ZM316.279 157.52C317.069 157.52 317.783 157.701 318.423 158.064C319.063 158.416 319.565 158.917 319.927 159.568C320.29 160.219 320.471 160.96 320.471 161.792C320.471 162.624 320.29 163.365 319.927 164.016C319.565 164.667 319.063 165.173 318.423 165.536C317.783 165.899 317.069 166.08 316.279 166.08C315.575 166.08 314.941 165.931 314.375 165.632C313.821 165.333 313.373 164.901 313.031 164.336V166H311.943V154.128H313.079V159.184C313.431 158.64 313.879 158.229 314.423 157.952C314.978 157.664 315.597 157.52 316.279 157.52ZM316.199 165.072C316.786 165.072 317.319 164.939 317.799 164.672C318.279 164.395 318.653 164.005 318.919 163.504C319.197 163.003 319.335 162.432 319.335 161.792C319.335 161.152 319.197 160.581 318.919 160.08C318.653 159.579 318.279 159.195 317.799 158.928C317.319 158.651 316.786 158.512 316.199 158.512C315.602 158.512 315.063 158.651 314.583 158.928C314.114 159.195 313.741 159.579 313.463 160.08C313.197 160.581 313.063 161.152 313.063 161.792C313.063 162.432 313.197 163.003 313.463 163.504C313.741 164.005 314.114 164.395 314.583 164.672C315.063 164.939 315.602 165.072 316.199 165.072ZM323.875 159.232C324.142 158.667 324.536 158.24 325.059 157.952C325.592 157.664 326.248 157.52 327.027 157.52V158.624L326.755 158.608C325.87 158.608 325.176 158.88 324.675 159.424C324.174 159.968 323.923 160.731 323.923 161.712V166H322.787V157.584H323.875V159.232ZM329.084 157.584H330.22V166H329.084V157.584ZM329.66 155.744C329.425 155.744 329.228 155.664 329.068 155.504C328.908 155.344 328.828 155.152 328.828 154.928C328.828 154.715 328.908 154.528 329.068 154.368C329.228 154.208 329.425 154.128 329.66 154.128C329.895 154.128 330.092 154.208 330.252 154.368C330.412 154.517 330.492 154.699 330.492 154.912C330.492 155.147 330.412 155.344 330.252 155.504C330.092 155.664 329.895 155.744 329.66 155.744ZM340.709 162.144H333.669C333.733 163.019 334.069 163.728 334.677 164.272C335.285 164.805 336.053 165.072 336.981 165.072C337.504 165.072 337.984 164.981 338.421 164.8C338.858 164.608 339.237 164.331 339.557 163.968L340.197 164.704C339.824 165.152 339.354 165.493 338.789 165.728C338.234 165.963 337.621 166.08 336.949 166.08C336.085 166.08 335.317 165.899 334.645 165.536C333.984 165.163 333.466 164.651 333.093 164C332.72 163.349 332.533 162.613 332.533 161.792C332.533 160.971 332.709 160.235 333.061 159.584C333.424 158.933 333.914 158.427 334.533 158.064C335.162 157.701 335.866 157.52 336.645 157.52C337.424 157.52 338.122 157.701 338.741 158.064C339.36 158.427 339.845 158.933 340.197 159.584C340.549 160.224 340.725 160.96 340.725 161.792L340.709 162.144ZM336.645 158.496C335.834 158.496 335.152 158.757 334.597 159.28C334.053 159.792 333.744 160.464 333.669 161.296H339.637C339.562 160.464 339.248 159.792 338.693 159.28C338.149 158.757 337.466 158.496 336.645 158.496ZM345.821 155.008C345.33 155.008 344.957 155.141 344.701 155.408C344.456 155.675 344.333 156.069 344.333 156.592V157.584H346.925V158.544H344.365V166H343.229V158.544H341.725V157.584H343.229V156.544C343.229 155.776 343.448 155.168 343.885 154.72C344.333 154.272 344.962 154.048 345.773 154.048C346.093 154.048 346.402 154.096 346.701 154.192C347 154.277 347.25 154.405 347.453 154.576L347.069 155.424C346.738 155.147 346.322 155.008 345.821 155.008Z" fill="white"/>
<circle cx="190" cy="132" r="10" transform="rotate(90 190 132)" fill="#FFAEA8"/>
<circle cx="190" cy="132" r="10" transform="rotate(90 190 132)" fill="#E94A47" fill-opacity="0.2"/>
<circle cx="191.001" cy="62" r="5" transform="rotate(90 191.001 62)" fill="#FFAEA8"/>
<circle cx="191.001" cy="62" r="5" transform="rotate(90 191.001 62)" fill="#E94A47" fill-opacity="0.2"/>
<circle cx="190" cy="769" r="5" transform="rotate(90 190 769)" fill="#FFAEA8"/>
<circle cx="190" cy="769" r="5" transform="rotate(90 190 769)" fill="#E94A47" fill-opacity="0.2"/>
<circle cx="190" cy="274" r="10" transform="rotate(90 190 274)" fill="#FFAEA8"/>
<circle cx="190" cy="274" r="10" transform="rotate(90 190 274)" fill="#E94A47" fill-opacity="0.2"/>
<circle cx="190" cy="416" r="10" transform="rotate(90 190 416)" fill="#FFAEA8"/>
<circle cx="190" cy="416" r="10" transform="rotate(90 190 416)" fill="#E94A47" fill-opacity="0.2"/>
<circle cx="190" cy="558" r="10" transform="rotate(90 190 558)" fill="#FFAEA8"/>
<circle cx="190" cy="558" r="10" transform="rotate(90 190 558)" fill="#E94A47" fill-opacity="0.2"/>
<circle cx="190" cy="700" r="10" transform="rotate(90 190 700)" fill="#FFAEA8"/>
<circle cx="190" cy="700" r="10" transform="rotate(90 190 700)" fill="#E94A47" fill-opacity="0.2"/>
<path d="M240.031 303.85L244.223 303.818L244.23 304.81L240.038 304.842L240.031 303.85ZM252.024 301.822C252.287 301.254 252.678 300.825 253.198 300.533C253.729 300.24 254.384 300.091 255.163 300.085L255.172 301.189L254.899 301.175C254.014 301.182 253.323 301.46 252.826 302.008C252.329 302.555 252.084 303.32 252.091 304.301L252.125 308.589L250.989 308.598L250.924 300.182L252.012 300.174L252.024 301.822ZM264.505 304.637L257.465 304.692C257.536 305.566 257.878 306.273 258.49 306.812C259.102 307.341 259.872 307.601 260.8 307.594C261.322 307.59 261.802 307.496 262.238 307.311C262.674 307.116 263.05 306.835 263.367 306.47L264.013 307.201C263.643 307.652 263.176 307.997 262.613 308.236C262.06 308.475 261.448 308.597 260.776 308.602C259.912 308.609 259.142 308.434 258.467 308.076C257.803 307.708 257.282 307.2 256.904 306.552C256.525 305.904 256.333 305.17 256.327 304.349C256.32 303.527 256.491 302.79 256.838 302.137C257.195 301.483 257.682 300.973 258.298 300.605C258.924 300.238 259.627 300.051 260.406 300.045C261.184 300.039 261.884 300.215 262.506 300.573C263.127 300.931 263.616 301.434 263.973 302.082C264.33 302.719 264.512 303.453 264.518 304.285L264.505 304.637ZM260.413 301.021C259.602 301.027 258.922 301.294 258.371 301.821C257.831 302.337 257.527 303.011 257.459 303.844L263.427 303.798C263.346 302.966 263.026 302.297 262.467 301.789C261.919 301.271 261.234 301.015 260.413 301.021ZM269.12 308.538C268.437 308.543 267.78 308.452 267.149 308.265C266.529 308.067 266.042 307.82 265.688 307.524L266.193 306.625C266.547 306.899 266.991 307.125 267.526 307.302C268.061 307.469 268.616 307.55 269.192 307.545C269.96 307.539 270.524 307.418 270.885 307.18C271.257 306.932 271.441 306.589 271.437 306.152C271.435 305.843 271.332 305.604 271.128 305.434C270.924 305.255 270.667 305.123 270.357 305.04C270.047 304.947 269.635 304.859 269.123 304.778C268.439 304.655 267.889 304.531 267.472 304.407C267.055 304.271 266.696 304.045 266.394 303.727C266.104 303.409 265.957 302.968 265.952 302.402C265.947 301.698 266.236 301.12 266.819 300.668C267.402 300.215 268.216 299.985 269.262 299.977C269.806 299.972 270.35 300.043 270.895 300.188C271.44 300.323 271.89 300.506 272.244 300.738L271.755 301.653C271.058 301.179 270.229 300.945 269.269 300.953C268.544 300.958 267.995 301.09 267.624 301.349C267.263 301.608 267.085 301.945 267.088 302.361C267.09 302.681 267.194 302.937 267.398 303.127C267.613 303.317 267.875 303.459 268.185 303.553C268.495 303.636 268.922 303.723 269.467 303.815C270.14 303.938 270.68 304.062 271.086 304.187C271.492 304.312 271.841 304.528 272.131 304.835C272.422 305.142 272.569 305.567 272.573 306.111C272.579 306.847 272.274 307.436 271.659 307.878C271.054 308.31 270.208 308.53 269.12 308.538ZM281.989 304.503L274.949 304.557C275.02 305.431 275.361 306.138 275.974 306.677C276.586 307.206 277.356 307.466 278.284 307.459C278.806 307.455 279.286 307.361 279.722 307.176C280.157 306.981 280.534 306.701 280.851 306.335L281.497 307.066C281.127 307.517 280.66 307.862 280.097 308.101C279.544 308.34 278.931 308.462 278.259 308.467C277.395 308.474 276.626 308.299 275.951 307.941C275.287 307.573 274.766 307.065 274.388 306.417C274.009 305.77 273.817 305.035 273.811 304.214C273.804 303.392 273.974 302.655 274.321 302.002C274.679 301.348 275.166 300.838 275.782 300.47C276.408 300.103 277.111 299.916 277.889 299.91C278.668 299.904 279.368 300.08 279.99 300.438C280.611 300.796 281.1 301.299 281.457 301.947C281.814 302.584 281.996 303.318 282.002 304.15L281.989 304.503ZM277.897 300.886C277.086 300.892 276.406 301.159 275.855 301.686C275.315 302.202 275.011 302.876 274.943 303.709L280.91 303.663C280.829 302.831 280.51 302.162 279.951 301.654C279.403 301.136 278.718 300.88 277.897 300.886ZM286.991 299.84C288.09 299.831 288.934 300.102 289.525 300.652C290.116 301.192 290.416 302 290.424 303.077L290.464 308.293L289.376 308.302L289.366 306.99C289.114 307.429 288.738 307.773 288.238 308.022C287.749 308.272 287.164 308.399 286.481 308.404C285.542 308.411 284.794 308.193 284.236 307.749C283.678 307.306 283.396 306.716 283.39 305.98C283.385 305.265 283.636 304.687 284.145 304.246C284.664 303.805 285.489 303.58 286.62 303.571L289.292 303.55L289.288 303.038C289.282 302.313 289.075 301.765 288.667 301.395C288.259 301.014 287.665 300.827 286.887 300.833C286.353 300.837 285.842 300.931 285.353 301.117C284.864 301.291 284.444 301.534 284.094 301.846L283.576 301.002C284 300.636 284.51 300.355 285.105 300.158C285.701 299.951 286.33 299.845 286.991 299.84ZM286.65 307.507C287.29 307.502 287.838 307.354 288.295 307.062C288.751 306.76 289.089 306.331 289.309 305.774L289.298 304.398L286.658 304.419C285.218 304.43 284.502 304.937 284.51 305.939C284.514 306.43 284.703 306.818 285.079 307.103C285.454 307.377 285.978 307.512 286.65 307.507ZM294.586 301.493C294.848 300.926 295.239 300.496 295.76 300.204C296.291 299.912 296.946 299.763 297.724 299.757L297.733 300.861L297.461 300.847C296.575 300.854 295.884 301.131 295.387 301.679C294.89 302.227 294.645 302.992 294.653 303.973L294.686 308.261L293.55 308.269L293.485 299.854L294.573 299.845L294.586 301.493ZM303.257 308.275C302.425 308.281 301.677 308.105 301.013 307.748C300.359 307.39 299.843 306.888 299.465 306.24C299.087 305.581 298.894 304.841 298.888 304.02C298.882 303.199 299.063 302.461 299.431 301.808C299.799 301.154 300.307 300.644 300.955 300.276C301.614 299.908 302.359 299.721 303.191 299.715C303.916 299.709 304.563 299.848 305.13 300.132C305.708 300.405 306.165 300.812 306.5 301.353L305.656 301.936C305.375 301.522 305.021 301.215 304.593 301.016C304.165 300.806 303.7 300.703 303.198 300.707C302.59 300.712 302.042 300.854 301.554 301.136C301.076 301.406 300.7 301.793 300.427 302.296C300.164 302.8 300.035 303.371 300.04 304.011C300.045 304.662 300.183 305.237 300.453 305.736C300.734 306.225 301.116 306.606 301.598 306.879C302.091 307.142 302.641 307.271 303.249 307.267C303.75 307.263 304.214 307.158 304.639 306.952C305.064 306.746 305.413 306.434 305.687 306.016L306.54 306.585C306.213 307.132 305.763 307.551 305.19 307.844C304.616 308.125 303.971 308.269 303.257 308.275ZM312.881 299.64C313.937 299.632 314.777 299.935 315.4 300.549C316.034 301.152 316.356 302.04 316.365 303.213L316.402 308.093L315.266 308.102L315.23 303.334C315.223 302.459 314.999 301.794 314.558 301.339C314.117 300.884 313.492 300.659 312.681 300.666C311.774 300.673 311.057 300.95 310.527 301.498C310.009 302.036 309.753 302.779 309.761 303.728L309.795 308.144L308.659 308.153L308.567 296.281L309.703 296.273L309.741 301.2C310.047 300.707 310.47 300.325 311.012 300.055C311.554 299.784 312.177 299.646 312.881 299.64ZM240.216 327.85L244.408 327.817L244.415 328.809L240.224 328.842L240.216 327.85ZM253.43 332.66C252.748 332.665 252.091 332.574 251.46 332.387C250.84 332.189 250.353 331.942 249.998 331.646L250.503 330.746C250.858 331.021 251.302 331.247 251.837 331.424C252.371 331.591 252.927 331.672 253.503 331.667C254.271 331.661 254.835 331.54 255.196 331.302C255.567 331.054 255.751 330.711 255.748 330.274C255.746 329.964 255.642 329.725 255.438 329.556C255.234 329.376 254.977 329.245 254.667 329.162C254.357 329.069 253.946 328.981 253.433 328.9C252.75 328.777 252.199 328.653 251.782 328.528C251.365 328.393 251.006 328.166 250.705 327.849C250.415 327.531 250.267 327.089 250.263 326.524C250.257 325.82 250.546 325.242 251.129 324.789C251.713 324.337 252.527 324.106 253.572 324.098C254.116 324.094 254.661 324.165 255.206 324.31C255.751 324.444 256.2 324.627 256.554 324.859L256.065 325.775C255.368 325.301 254.54 325.067 253.58 325.074C252.854 325.08 252.306 325.212 251.935 325.471C251.574 325.73 251.395 326.067 251.399 326.483C251.401 326.803 251.504 327.058 251.708 327.249C251.923 327.439 252.186 327.581 252.496 327.675C252.806 327.758 253.233 327.845 253.778 327.937C254.451 328.06 254.99 328.184 255.397 328.308C255.803 328.433 256.151 328.649 256.442 328.956C256.732 329.264 256.879 329.689 256.884 330.233C256.889 330.969 256.585 331.558 255.969 332C255.365 332.431 254.518 332.651 253.43 332.66ZM262.49 332.59C261.658 332.596 260.91 332.421 260.246 332.063C259.593 331.706 259.077 331.203 258.698 330.555C258.32 329.897 258.127 329.157 258.121 328.335C258.115 327.514 258.296 326.777 258.664 326.123C259.032 325.47 259.54 324.959 260.188 324.591C260.847 324.224 261.592 324.037 262.424 324.03C263.149 324.025 263.796 324.164 264.363 324.447C264.941 324.72 265.398 325.127 265.733 325.669L264.889 326.251C264.609 325.837 264.254 325.531 263.826 325.331C263.398 325.121 262.933 325.018 262.432 325.022C261.824 325.027 261.275 325.17 260.787 325.451C260.309 325.721 259.933 326.108 259.66 326.612C259.397 327.115 259.268 327.687 259.273 328.327C259.278 328.977 259.416 329.552 259.686 330.051C259.968 330.54 260.349 330.921 260.831 331.195C261.324 331.457 261.874 331.587 262.482 331.582C262.984 331.578 263.447 331.473 263.872 331.267C264.297 331.061 264.647 330.749 264.921 330.331L265.773 330.9C265.447 331.447 264.997 331.866 264.423 332.159C263.849 332.441 263.205 332.584 262.49 332.59ZM269.053 325.691C269.315 325.124 269.706 324.694 270.227 324.402C270.758 324.11 271.413 323.961 272.191 323.955L272.2 325.059L271.928 325.045C271.043 325.052 270.351 325.329 269.854 325.877C269.357 326.425 269.112 327.189 269.12 328.171L269.153 332.458L268.017 332.467L267.952 324.051L269.04 324.043L269.053 325.691ZM274.249 324.003L275.385 323.994L275.45 332.41L274.314 332.419L274.249 324.003ZM274.81 322.158C274.576 322.16 274.378 322.082 274.217 321.923C274.055 321.764 273.974 321.573 273.972 321.349C273.971 321.136 274.049 320.948 274.208 320.787C274.367 320.626 274.563 320.544 274.798 320.543C275.033 320.541 275.231 320.619 275.392 320.778C275.553 320.926 275.634 321.107 275.636 321.32C275.638 321.555 275.559 321.753 275.401 321.914C275.242 322.075 275.045 322.157 274.81 322.158ZM282.881 323.872C283.67 323.866 284.386 324.042 285.029 324.4C285.672 324.747 286.177 325.244 286.545 325.892C286.912 326.54 287.099 327.28 287.106 328.112C287.112 328.954 286.937 329.702 286.579 330.356C286.221 331.009 285.724 331.52 285.087 331.887C284.46 332.244 283.747 332.426 282.947 332.432C282.264 332.437 281.645 332.303 281.088 332.03C280.542 331.747 280.09 331.334 279.734 330.793L279.77 335.481L278.634 335.489L278.545 323.97L279.633 323.961L279.646 325.625C279.983 325.068 280.428 324.638 280.98 324.335C281.543 324.032 282.177 323.878 282.881 323.872ZM282.859 331.425C283.446 331.42 283.978 331.283 284.456 331.012C284.934 330.731 285.304 330.339 285.567 329.836C285.84 329.332 285.975 328.761 285.97 328.121C285.965 327.481 285.822 326.916 285.541 326.428C285.27 325.929 284.894 325.542 284.412 325.269C283.93 324.995 283.395 324.86 282.808 324.865C282.211 324.869 281.674 325.012 281.196 325.293C280.729 325.574 280.358 325.966 280.085 326.47C279.822 326.963 279.693 327.529 279.698 328.169C279.703 328.809 279.841 329.379 280.111 329.878C280.392 330.377 280.769 330.763 281.24 331.037C281.722 331.3 282.262 331.429 282.859 331.425ZM293.882 331.756C293.67 331.949 293.404 332.101 293.085 332.21C292.777 332.308 292.452 332.359 292.11 332.361C291.321 332.367 290.711 332.159 290.281 331.735C289.852 331.312 289.634 330.711 289.628 329.932L289.588 324.845L288.084 324.856L288.077 323.896L289.581 323.885L289.567 322.045L290.703 322.036L290.717 323.876L293.277 323.856L293.284 324.816L290.724 324.836L290.763 329.86C290.767 330.361 290.893 330.744 291.14 331.009C291.398 331.263 291.762 331.388 292.231 331.384C292.465 331.383 292.689 331.343 292.902 331.267C293.125 331.191 293.317 331.083 293.475 330.943L293.882 331.756Z" fill="white"/>
<path d="M239.961 446.168H244.153V447.16H239.961V446.168ZM261.378 442.52C262.434 442.52 263.261 442.824 263.858 443.432C264.466 444.04 264.77 444.936 264.77 446.12V451H263.634V446.232C263.634 445.357 263.421 444.691 262.994 444.232C262.578 443.773 261.986 443.544 261.218 443.544C260.343 443.544 259.655 443.816 259.154 444.36C258.653 444.893 258.402 445.635 258.402 446.584V451H257.266V446.232C257.266 445.357 257.053 444.691 256.626 444.232C256.21 443.773 255.613 443.544 254.834 443.544C253.97 443.544 253.282 443.816 252.77 444.36C252.269 444.893 252.018 445.635 252.018 446.584V451H250.882V442.584H251.97V444.12C252.269 443.608 252.685 443.213 253.218 442.936C253.751 442.659 254.365 442.52 255.058 442.52C255.762 442.52 256.37 442.669 256.882 442.968C257.405 443.267 257.794 443.709 258.05 444.296C258.359 443.741 258.802 443.309 259.378 443C259.965 442.68 260.631 442.52 261.378 442.52ZM271.322 451.08C270.511 451.08 269.781 450.899 269.13 450.536C268.479 450.163 267.967 449.651 267.594 449C267.221 448.349 267.034 447.613 267.034 446.792C267.034 445.971 267.221 445.235 267.594 444.584C267.967 443.933 268.479 443.427 269.13 443.064C269.781 442.701 270.511 442.52 271.322 442.52C272.133 442.52 272.863 442.701 273.514 443.064C274.165 443.427 274.671 443.933 275.034 444.584C275.407 445.235 275.594 445.971 275.594 446.792C275.594 447.613 275.407 448.349 275.034 449C274.671 449.651 274.165 450.163 273.514 450.536C272.863 450.899 272.133 451.08 271.322 451.08ZM271.322 450.072C271.919 450.072 272.453 449.939 272.922 449.672C273.402 449.395 273.775 449.005 274.042 448.504C274.309 448.003 274.442 447.432 274.442 446.792C274.442 446.152 274.309 445.581 274.042 445.08C273.775 444.579 273.402 444.195 272.922 443.928C272.453 443.651 271.919 443.512 271.322 443.512C270.725 443.512 270.186 443.651 269.706 443.928C269.237 444.195 268.863 444.579 268.586 445.08C268.319 445.581 268.186 446.152 268.186 446.792C268.186 447.432 268.319 448.003 268.586 448.504C268.863 449.005 269.237 449.395 269.706 449.672C270.186 449.939 270.725 450.072 271.322 450.072ZM281.353 451.08C280.542 451.08 279.812 450.899 279.161 450.536C278.51 450.163 277.998 449.651 277.625 449C277.252 448.349 277.065 447.613 277.065 446.792C277.065 445.971 277.252 445.235 277.625 444.584C277.998 443.933 278.51 443.427 279.161 443.064C279.812 442.701 280.542 442.52 281.353 442.52C282.164 442.52 282.894 442.701 283.545 443.064C284.196 443.427 284.702 443.933 285.065 444.584C285.438 445.235 285.625 445.971 285.625 446.792C285.625 447.613 285.438 448.349 285.065 449C284.702 449.651 284.196 450.163 283.545 450.536C282.894 450.899 282.164 451.08 281.353 451.08ZM281.353 450.072C281.95 450.072 282.484 449.939 282.953 449.672C283.433 449.395 283.806 449.005 284.073 448.504C284.34 448.003 284.473 447.432 284.473 446.792C284.473 446.152 284.34 445.581 284.073 445.08C283.806 444.579 283.433 444.195 282.953 443.928C282.484 443.651 281.95 443.512 281.353 443.512C280.756 443.512 280.217 443.651 279.737 443.928C279.268 444.195 278.894 444.579 278.617 445.08C278.35 445.581 278.217 446.152 278.217 446.792C278.217 447.432 278.35 448.003 278.617 448.504C278.894 449.005 279.268 449.395 279.737 449.672C280.217 449.939 280.756 450.072 281.353 450.072ZM295.624 439.128V451H294.536V449.336C294.195 449.901 293.742 450.333 293.176 450.632C292.622 450.931 291.992 451.08 291.288 451.08C290.499 451.08 289.784 450.899 289.144 450.536C288.504 450.173 288.003 449.667 287.64 449.016C287.278 448.365 287.096 447.624 287.096 446.792C287.096 445.96 287.278 445.219 287.64 444.568C288.003 443.917 288.504 443.416 289.144 443.064C289.784 442.701 290.499 442.52 291.288 442.52C291.971 442.52 292.584 442.664 293.128 442.952C293.683 443.229 294.136 443.64 294.488 444.184V439.128H295.624ZM291.384 450.072C291.971 450.072 292.499 449.939 292.968 449.672C293.448 449.395 293.822 449.005 294.088 448.504C294.366 448.003 294.504 447.432 294.504 446.792C294.504 446.152 294.366 445.581 294.088 445.08C293.822 444.579 293.448 444.195 292.968 443.928C292.499 443.651 291.971 443.512 291.384 443.512C290.787 443.512 290.248 443.651 289.768 443.928C289.299 444.195 288.926 444.579 288.648 445.08C288.382 445.581 288.248 446.152 288.248 446.792C288.248 447.432 288.382 448.003 288.648 448.504C288.926 449.005 289.299 449.395 289.768 449.672C290.248 449.939 290.787 450.072 291.384 450.072ZM303.124 442.52C303.913 442.52 304.628 442.701 305.268 443.064C305.908 443.416 306.409 443.917 306.772 444.568C307.135 445.219 307.316 445.96 307.316 446.792C307.316 447.624 307.135 448.365 306.772 449.016C306.409 449.667 305.908 450.173 305.268 450.536C304.628 450.899 303.913 451.08 303.124 451.08C302.42 451.08 301.785 450.931 301.22 450.632C300.665 450.333 300.217 449.901 299.876 449.336V451H298.788V439.128H299.924V444.184C300.276 443.64 300.724 443.229 301.268 442.952C301.823 442.664 302.441 442.52 303.124 442.52ZM303.044 450.072C303.631 450.072 304.164 449.939 304.644 449.672C305.124 449.395 305.497 449.005 305.764 448.504C306.041 448.003 306.18 447.432 306.18 446.792C306.18 446.152 306.041 445.581 305.764 445.08C305.497 444.579 305.124 444.195 304.644 443.928C304.164 443.651 303.631 443.512 303.044 443.512C302.447 443.512 301.908 443.651 301.428 443.928C300.959 444.195 300.585 444.579 300.308 445.08C300.041 445.581 299.908 446.152 299.908 446.792C299.908 447.432 300.041 448.003 300.308 448.504C300.585 449.005 300.959 449.395 301.428 449.672C301.908 449.939 302.447 450.072 303.044 450.072ZM313.072 451.08C312.261 451.08 311.531 450.899 310.88 450.536C310.229 450.163 309.717 449.651 309.344 449C308.971 448.349 308.784 447.613 308.784 446.792C308.784 445.971 308.971 445.235 309.344 444.584C309.717 443.933 310.229 443.427 310.88 443.064C311.531 442.701 312.261 442.52 313.072 442.52C313.883 442.52 314.613 442.701 315.264 443.064C315.915 443.427 316.421 443.933 316.784 444.584C317.157 445.235 317.344 445.971 317.344 446.792C317.344 447.613 317.157 448.349 316.784 449C316.421 449.651 315.915 450.163 315.264 450.536C314.613 450.899 313.883 451.08 313.072 451.08ZM313.072 450.072C313.669 450.072 314.203 449.939 314.672 449.672C315.152 449.395 315.525 449.005 315.792 448.504C316.059 448.003 316.192 447.432 316.192 446.792C316.192 446.152 316.059 445.581 315.792 445.08C315.525 444.579 315.152 444.195 314.672 443.928C314.203 443.651 313.669 443.512 313.072 443.512C312.475 443.512 311.936 443.651 311.456 443.928C310.987 444.195 310.613 444.579 310.336 445.08C310.069 445.581 309.936 446.152 309.936 446.792C309.936 447.432 310.069 448.003 310.336 448.504C310.613 449.005 310.987 449.395 311.456 449.672C311.936 449.939 312.475 450.072 313.072 450.072ZM322.56 442.52C323.659 442.52 324.502 442.797 325.088 443.352C325.675 443.896 325.968 444.707 325.968 445.784V451H324.88V449.688C324.624 450.125 324.246 450.467 323.744 450.712C323.254 450.957 322.667 451.08 321.984 451.08C321.046 451.08 320.299 450.856 319.744 450.408C319.19 449.96 318.912 449.368 318.912 448.632C318.912 447.917 319.168 447.341 319.68 446.904C320.203 446.467 321.03 446.248 322.16 446.248H324.832V445.736C324.832 445.011 324.63 444.461 324.224 444.088C323.819 443.704 323.227 443.512 322.448 443.512C321.915 443.512 321.403 443.603 320.912 443.784C320.422 443.955 320 444.195 319.648 444.504L319.136 443.656C319.563 443.293 320.075 443.016 320.672 442.824C321.27 442.621 321.899 442.52 322.56 442.52ZM322.16 450.184C322.8 450.184 323.35 450.04 323.808 449.752C324.267 449.453 324.608 449.027 324.832 448.472V447.096H322.192C320.752 447.096 320.032 447.597 320.032 448.6C320.032 449.091 320.219 449.48 320.592 449.768C320.966 450.045 321.488 450.184 322.16 450.184ZM330.142 444.232C330.408 443.667 330.803 443.24 331.326 442.952C331.859 442.664 332.515 442.52 333.294 442.52V443.624L333.022 443.608C332.136 443.608 331.443 443.88 330.942 444.424C330.44 444.968 330.19 445.731 330.19 446.712V451H329.054V442.584H330.142V444.232ZM342.952 439.128V451H341.864V449.336C341.523 449.901 341.07 450.333 340.504 450.632C339.95 450.931 339.32 451.08 338.616 451.08C337.827 451.08 337.112 450.899 336.472 450.536C335.832 450.173 335.331 449.667 334.968 449.016C334.606 448.365 334.424 447.624 334.424 446.792C334.424 445.96 334.606 445.219 334.968 444.568C335.331 443.917 335.832 443.416 336.472 443.064C337.112 442.701 337.827 442.52 338.616 442.52C339.299 442.52 339.912 442.664 340.456 442.952C341.011 443.229 341.464 443.64 341.816 444.184V439.128H342.952ZM338.712 450.072C339.299 450.072 339.827 449.939 340.296 449.672C340.776 449.395 341.15 449.005 341.416 448.504C341.694 448.003 341.832 447.432 341.832 446.792C341.832 446.152 341.694 445.581 341.416 445.08C341.15 444.579 340.776 444.195 340.296 443.928C339.827 443.651 339.299 443.512 338.712 443.512C338.115 443.512 337.576 443.651 337.096 443.928C336.627 444.195 336.254 444.579 335.976 445.08C335.71 445.581 335.576 446.152 335.576 446.792C335.576 447.432 335.71 448.003 335.976 448.504C336.254 449.005 336.627 449.395 337.096 449.672C337.576 449.939 338.115 450.072 338.712 450.072ZM348.372 451.08C347.69 451.08 347.034 450.984 346.404 450.792C345.786 450.589 345.3 450.339 344.948 450.04L345.46 449.144C345.812 449.421 346.255 449.651 346.788 449.832C347.322 450.003 347.876 450.088 348.452 450.088C349.22 450.088 349.786 449.971 350.148 449.736C350.522 449.491 350.708 449.149 350.708 448.712C350.708 448.403 350.607 448.163 350.404 447.992C350.202 447.811 349.946 447.677 349.636 447.592C349.327 447.496 348.916 447.405 348.404 447.32C347.722 447.192 347.172 447.064 346.756 446.936C346.34 446.797 345.983 446.568 345.684 446.248C345.396 445.928 345.252 445.485 345.252 444.92C345.252 444.216 345.546 443.64 346.132 443.192C346.719 442.744 347.535 442.52 348.58 442.52C349.124 442.52 349.668 442.595 350.212 442.744C350.756 442.883 351.204 443.069 351.556 443.304L351.06 444.216C350.367 443.736 349.54 443.496 348.58 443.496C347.855 443.496 347.306 443.624 346.932 443.88C346.57 444.136 346.388 444.472 346.388 444.888C346.388 445.208 346.49 445.464 346.692 445.656C346.906 445.848 347.167 445.992 347.476 446.088C347.786 446.173 348.212 446.264 348.756 446.36C349.428 446.488 349.967 446.616 350.372 446.744C350.778 446.872 351.124 447.091 351.412 447.4C351.7 447.709 351.844 448.136 351.844 448.68C351.844 449.416 351.535 450.003 350.916 450.44C350.308 450.867 349.46 451.08 348.372 451.08ZM239.961 470.168H244.153V471.16H239.961V470.168ZM253.138 475.08C252.455 475.08 251.799 474.984 251.17 474.792C250.551 474.589 250.066 474.339 249.714 474.04L250.226 473.144C250.578 473.421 251.021 473.651 251.554 473.832C252.087 474.003 252.642 474.088 253.218 474.088C253.986 474.088 254.551 473.971 254.914 473.736C255.287 473.491 255.474 473.149 255.474 472.712C255.474 472.403 255.373 472.163 255.17 471.992C254.967 471.811 254.711 471.677 254.402 471.592C254.093 471.496 253.682 471.405 253.17 471.32C252.487 471.192 251.938 471.064 251.522 470.936C251.106 470.797 250.749 470.568 250.45 470.248C250.162 469.928 250.018 469.485 250.018 468.92C250.018 468.216 250.311 467.64 250.898 467.192C251.485 466.744 252.301 466.52 253.346 466.52C253.89 466.52 254.434 466.595 254.978 466.744C255.522 466.883 255.97 467.069 256.322 467.304L255.826 468.216C255.133 467.736 254.306 467.496 253.346 467.496C252.621 467.496 252.071 467.624 251.698 467.88C251.335 468.136 251.154 468.472 251.154 468.888C251.154 469.208 251.255 469.464 251.458 469.656C251.671 469.848 251.933 469.992 252.242 470.088C252.551 470.173 252.978 470.264 253.522 470.36C254.194 470.488 254.733 470.616 255.138 470.744C255.543 470.872 255.89 471.091 256.178 471.4C256.466 471.709 256.61 472.136 256.61 472.68C256.61 473.416 256.301 474.003 255.682 474.44C255.074 474.867 254.226 475.08 253.138 475.08ZM263.142 474.488C262.929 474.68 262.662 474.829 262.342 474.936C262.033 475.032 261.707 475.08 261.366 475.08C260.577 475.08 259.969 474.867 259.542 474.44C259.115 474.013 258.902 473.411 258.902 472.632V467.544H257.398V466.584H258.902V464.744H260.038V466.584H262.598V467.544H260.038V472.568C260.038 473.069 260.161 473.453 260.406 473.72C260.662 473.976 261.025 474.104 261.494 474.104C261.729 474.104 261.953 474.067 262.166 473.992C262.39 473.917 262.582 473.811 262.742 473.672L263.142 474.488ZM268.353 475.08C267.542 475.08 266.812 474.899 266.161 474.536C265.51 474.163 264.998 473.651 264.625 473C264.252 472.349 264.065 471.613 264.065 470.792C264.065 469.971 264.252 469.235 264.625 468.584C264.998 467.933 265.51 467.427 266.161 467.064C266.812 466.701 267.542 466.52 268.353 466.52C269.164 466.52 269.894 466.701 270.545 467.064C271.196 467.427 271.702 467.933 272.065 468.584C272.438 469.235 272.625 469.971 272.625 470.792C272.625 471.613 272.438 472.349 272.065 473C271.702 473.651 271.196 474.163 270.545 474.536C269.894 474.899 269.164 475.08 268.353 475.08ZM268.353 474.072C268.95 474.072 269.484 473.939 269.953 473.672C270.433 473.395 270.806 473.005 271.073 472.504C271.34 472.003 271.473 471.432 271.473 470.792C271.473 470.152 271.34 469.581 271.073 469.08C270.806 468.579 270.433 468.195 269.953 467.928C269.484 467.651 268.95 467.512 268.353 467.512C267.756 467.512 267.217 467.651 266.737 467.928C266.268 468.195 265.894 468.579 265.617 469.08C265.35 469.581 265.217 470.152 265.217 470.792C265.217 471.432 265.35 472.003 265.617 472.504C265.894 473.005 266.268 473.395 266.737 473.672C267.217 473.939 267.756 474.072 268.353 474.072ZM276.032 468.232C276.299 467.667 276.694 467.24 277.216 466.952C277.75 466.664 278.406 466.52 279.184 466.52V467.624L278.912 467.608C278.027 467.608 277.334 467.88 276.832 468.424C276.331 468.968 276.08 469.731 276.08 470.712V475H274.944V466.584H276.032V468.232ZM288.673 466.584L284.465 476.008C284.123 476.797 283.729 477.357 283.281 477.688C282.833 478.019 282.294 478.184 281.665 478.184C281.259 478.184 280.881 478.12 280.529 477.992C280.177 477.864 279.873 477.672 279.617 477.416L280.145 476.568C280.571 476.995 281.083 477.208 281.681 477.208C282.065 477.208 282.39 477.101 282.657 476.888C282.934 476.675 283.19 476.312 283.425 475.8L283.793 474.984L280.033 466.584H281.217L284.385 473.736L287.553 466.584H288.673ZM294.608 466.52C295.398 466.52 296.112 466.701 296.752 467.064C297.392 467.416 297.894 467.917 298.256 468.568C298.619 469.219 298.8 469.96 298.8 470.792C298.8 471.624 298.619 472.365 298.256 473.016C297.894 473.667 297.392 474.173 296.752 474.536C296.112 474.899 295.398 475.08 294.608 475.08C293.904 475.08 293.27 474.931 292.704 474.632C292.15 474.333 291.702 473.901 291.36 473.336V475H290.272V463.128H291.408V468.184C291.76 467.64 292.208 467.229 292.752 466.952C293.307 466.664 293.926 466.52 294.608 466.52ZM294.528 474.072C295.115 474.072 295.648 473.939 296.128 473.672C296.608 473.395 296.982 473.005 297.248 472.504C297.526 472.003 297.664 471.432 297.664 470.792C297.664 470.152 297.526 469.581 297.248 469.08C296.982 468.579 296.608 468.195 296.128 467.928C295.648 467.651 295.115 467.512 294.528 467.512C293.931 467.512 293.392 467.651 292.912 467.928C292.443 468.195 292.07 468.579 291.792 469.08C291.526 469.581 291.392 470.152 291.392 470.792C291.392 471.432 291.526 472.003 291.792 472.504C292.07 473.005 292.443 473.395 292.912 473.672C293.392 473.939 293.931 474.072 294.528 474.072ZM304.556 475.08C303.746 475.08 303.015 474.899 302.364 474.536C301.714 474.163 301.202 473.651 300.828 473C300.455 472.349 300.268 471.613 300.268 470.792C300.268 469.971 300.455 469.235 300.828 468.584C301.202 467.933 301.714 467.427 302.364 467.064C303.015 466.701 303.746 466.52 304.556 466.52C305.367 466.52 306.098 466.701 306.748 467.064C307.399 467.427 307.906 467.933 308.268 468.584C308.642 469.235 308.828 469.971 308.828 470.792C308.828 471.613 308.642 472.349 308.268 473C307.906 473.651 307.399 474.163 306.748 474.536C306.098 474.899 305.367 475.08 304.556 475.08ZM304.556 474.072C305.154 474.072 305.687 473.939 306.156 473.672C306.636 473.395 307.01 473.005 307.276 472.504C307.543 472.003 307.676 471.432 307.676 470.792C307.676 470.152 307.543 469.581 307.276 469.08C307.01 468.579 306.636 468.195 306.156 467.928C305.687 467.651 305.154 467.512 304.556 467.512C303.959 467.512 303.42 467.651 302.94 467.928C302.471 468.195 302.098 468.579 301.82 469.08C301.554 469.581 301.42 470.152 301.42 470.792C301.42 471.432 301.554 472.003 301.82 472.504C302.098 473.005 302.471 473.395 302.94 473.672C303.42 473.939 303.959 474.072 304.556 474.072ZM314.045 466.52C315.143 466.52 315.986 466.797 316.573 467.352C317.159 467.896 317.453 468.707 317.453 469.784V475H316.365V473.688C316.109 474.125 315.73 474.467 315.229 474.712C314.738 474.957 314.151 475.08 313.469 475.08C312.53 475.08 311.783 474.856 311.229 474.408C310.674 473.96 310.397 473.368 310.397 472.632C310.397 471.917 310.653 471.341 311.165 470.904C311.687 470.467 312.514 470.248 313.645 470.248H316.317V469.736C316.317 469.011 316.114 468.461 315.709 468.088C315.303 467.704 314.711 467.512 313.933 467.512C313.399 467.512 312.887 467.603 312.397 467.784C311.906 467.955 311.485 468.195 311.133 468.504L310.621 467.656C311.047 467.293 311.559 467.016 312.157 466.824C312.754 466.621 313.383 466.52 314.045 466.52ZM313.645 474.184C314.285 474.184 314.834 474.04 315.293 473.752C315.751 473.453 316.093 473.027 316.317 472.472V471.096H313.677C312.237 471.096 311.517 471.597 311.517 472.6C311.517 473.091 311.703 473.48 312.077 473.768C312.45 474.045 312.973 474.184 313.645 474.184ZM321.626 468.232C321.893 467.667 322.287 467.24 322.81 466.952C323.343 466.664 323.999 466.52 324.778 466.52V467.624L324.506 467.608C323.621 467.608 322.927 467.88 322.426 468.424C321.925 468.968 321.674 469.731 321.674 470.712V475H320.538V466.584H321.626V468.232ZM334.437 463.128V475H333.349V473.336C333.008 473.901 332.554 474.333 331.989 474.632C331.434 474.931 330.805 475.08 330.101 475.08C329.312 475.08 328.597 474.899 327.957 474.536C327.317 474.173 326.816 473.667 326.453 473.016C326.09 472.365 325.909 471.624 325.909 470.792C325.909 469.96 326.09 469.219 326.453 468.568C326.816 467.917 327.317 467.416 327.957 467.064C328.597 466.701 329.312 466.52 330.101 466.52C330.784 466.52 331.397 466.664 331.941 466.952C332.496 467.229 332.949 467.64 333.301 468.184V463.128H334.437ZM330.197 474.072C330.784 474.072 331.312 473.939 331.781 473.672C332.261 473.395 332.634 473.005 332.901 472.504C333.178 472.003 333.317 471.432 333.317 470.792C333.317 470.152 333.178 469.581 332.901 469.08C332.634 468.579 332.261 468.195 331.781 467.928C331.312 467.651 330.784 467.512 330.197 467.512C329.6 467.512 329.061 467.651 328.581 467.928C328.112 468.195 327.738 468.579 327.461 469.08C327.194 469.581 327.061 470.152 327.061 470.792C327.061 471.432 327.194 472.003 327.461 472.504C327.738 473.005 328.112 473.395 328.581 473.672C329.061 473.939 329.6 474.072 330.197 474.072ZM339.857 475.08C339.174 475.08 338.518 474.984 337.889 474.792C337.27 474.589 336.785 474.339 336.433 474.04L336.945 473.144C337.297 473.421 337.739 473.651 338.273 473.832C338.806 474.003 339.361 474.088 339.937 474.088C340.705 474.088 341.27 473.971 341.633 473.736C342.006 473.491 342.193 473.149 342.193 472.712C342.193 472.403 342.091 472.163 341.889 471.992C341.686 471.811 341.43 471.677 341.121 471.592C340.811 471.496 340.401 471.405 339.889 471.32C339.206 471.192 338.657 471.064 338.241 470.936C337.825 470.797 337.467 470.568 337.169 470.248C336.881 469.928 336.737 469.485 336.737 468.92C336.737 468.216 337.03 467.64 337.617 467.192C338.203 466.744 339.019 466.52 340.065 466.52C340.609 466.52 341.153 466.595 341.697 466.744C342.241 466.883 342.689 467.069 343.041 467.304L342.545 468.216C341.851 467.736 341.025 467.496 340.065 467.496C339.339 467.496 338.79 467.624 338.417 467.88C338.054 468.136 337.873 468.472 337.873 468.888C337.873 469.208 337.974 469.464 338.177 469.656C338.39 469.848 338.651 469.992 338.961 470.088C339.27 470.173 339.697 470.264 340.241 470.36C340.913 470.488 341.451 470.616 341.857 470.744C342.262 470.872 342.609 471.091 342.897 471.4C343.185 471.709 343.329 472.136 343.329 472.68C343.329 473.416 343.019 474.003 342.401 474.44C341.793 474.867 340.945 475.08 339.857 475.08Z" fill="white"/>
<path d="M241.961 587.168H246.153V588.16H241.961V587.168ZM259.954 583.584L256.21 592H255.042L251.314 583.584H252.498L255.65 590.752L258.834 583.584H259.954ZM264.759 592.08C263.949 592.08 263.218 591.899 262.567 591.536C261.917 591.163 261.405 590.651 261.031 590C260.658 589.349 260.471 588.613 260.471 587.792C260.471 586.971 260.658 586.235 261.031 585.584C261.405 584.933 261.917 584.427 262.567 584.064C263.218 583.701 263.949 583.52 264.759 583.52C265.57 583.52 266.301 583.701 266.951 584.064C267.602 584.427 268.109 584.933 268.471 585.584C268.845 586.235 269.031 586.971 269.031 587.792C269.031 588.613 268.845 589.349 268.471 590C268.109 590.651 267.602 591.163 266.951 591.536C266.301 591.899 265.57 592.08 264.759 592.08ZM264.759 591.072C265.357 591.072 265.89 590.939 266.359 590.672C266.839 590.395 267.213 590.005 267.479 589.504C267.746 589.003 267.879 588.432 267.879 587.792C267.879 587.152 267.746 586.581 267.479 586.08C267.213 585.579 266.839 585.195 266.359 584.928C265.89 584.651 265.357 584.512 264.759 584.512C264.162 584.512 263.623 584.651 263.143 584.928C262.674 585.195 262.301 585.579 262.023 586.08C261.757 586.581 261.623 587.152 261.623 587.792C261.623 588.432 261.757 589.003 262.023 589.504C262.301 590.005 262.674 590.395 263.143 590.672C263.623 590.939 264.162 591.072 264.759 591.072ZM271.351 583.584H272.487V592H271.351V583.584ZM271.927 581.744C271.692 581.744 271.495 581.664 271.335 581.504C271.175 581.344 271.095 581.152 271.095 580.928C271.095 580.715 271.175 580.528 271.335 580.368C271.495 580.208 271.692 580.128 271.927 580.128C272.161 580.128 272.359 580.208 272.519 580.368C272.679 580.517 272.759 580.699 272.759 580.912C272.759 581.147 272.679 581.344 272.519 581.504C272.359 581.664 272.161 581.744 271.927 581.744ZM279.135 592.08C278.303 592.08 277.557 591.899 276.895 591.536C276.245 591.173 275.733 590.667 275.359 590.016C274.986 589.355 274.799 588.613 274.799 587.792C274.799 586.971 274.986 586.235 275.359 585.584C275.733 584.933 276.245 584.427 276.895 584.064C277.557 583.701 278.303 583.52 279.135 583.52C279.861 583.52 280.506 583.664 281.071 583.952C281.647 584.229 282.101 584.64 282.431 585.184L281.583 585.76C281.306 585.344 280.954 585.035 280.527 584.832C280.101 584.619 279.637 584.512 279.135 584.512C278.527 584.512 277.978 584.651 277.487 584.928C277.007 585.195 276.629 585.579 276.351 586.08C276.085 586.581 275.951 587.152 275.951 587.792C275.951 588.443 276.085 589.019 276.351 589.52C276.629 590.011 277.007 590.395 277.487 590.672C277.978 590.939 278.527 591.072 279.135 591.072C279.637 591.072 280.101 590.971 280.527 590.768C280.954 590.565 281.306 590.256 281.583 589.84L282.431 590.416C282.101 590.96 281.647 591.376 281.071 591.664C280.495 591.941 279.85 592.08 279.135 592.08ZM291.85 588.144H284.81C284.874 589.019 285.21 589.728 285.818 590.272C286.426 590.805 287.194 591.072 288.122 591.072C288.645 591.072 289.125 590.981 289.562 590.8C290 590.608 290.378 590.331 290.698 589.968L291.338 590.704C290.965 591.152 290.496 591.493 289.93 591.728C289.376 591.963 288.762 592.08 288.09 592.08C287.226 592.08 286.458 591.899 285.786 591.536C285.125 591.163 284.608 590.651 284.234 590C283.861 589.349 283.674 588.613 283.674 587.792C283.674 586.971 283.85 586.235 284.202 585.584C284.565 584.933 285.056 584.427 285.674 584.064C286.304 583.701 287.008 583.52 287.786 583.52C288.565 583.52 289.264 583.701 289.882 584.064C290.501 584.427 290.986 584.933 291.338 585.584C291.69 586.224 291.866 586.96 291.866 587.792L291.85 588.144ZM287.786 584.496C286.976 584.496 286.293 584.757 285.738 585.28C285.194 585.792 284.885 586.464 284.81 587.296H290.778C290.704 586.464 290.389 585.792 289.834 585.28C289.29 584.757 288.608 584.496 287.786 584.496ZM297.619 592.08C296.808 592.08 296.077 591.899 295.427 591.536C294.776 591.163 294.264 590.651 293.891 590C293.517 589.349 293.331 588.613 293.331 587.792C293.331 586.971 293.517 586.235 293.891 585.584C294.264 584.933 294.776 584.427 295.427 584.064C296.077 583.701 296.808 583.52 297.619 583.52C298.429 583.52 299.16 583.701 299.811 584.064C300.461 584.427 300.968 584.933 301.331 585.584C301.704 586.235 301.891 586.971 301.891 587.792C301.891 588.613 301.704 589.349 301.331 590C300.968 590.651 300.461 591.163 299.811 591.536C299.16 591.899 298.429 592.08 297.619 592.08ZM297.619 591.072C298.216 591.072 298.749 590.939 299.219 590.672C299.699 590.395 300.072 590.005 300.339 589.504C300.605 589.003 300.739 588.432 300.739 587.792C300.739 587.152 300.605 586.581 300.339 586.08C300.072 585.579 299.699 585.195 299.219 584.928C298.749 584.651 298.216 584.512 297.619 584.512C297.021 584.512 296.483 584.651 296.003 584.928C295.533 585.195 295.16 585.579 294.883 586.08C294.616 586.581 294.483 587.152 294.483 587.792C294.483 588.432 294.616 589.003 294.883 589.504C295.16 590.005 295.533 590.395 296.003 590.672C296.483 590.939 297.021 591.072 297.619 591.072ZM311.048 583.584L307.304 592H306.136L302.408 583.584H303.592L306.744 590.752L309.928 583.584H311.048ZM319.741 588.144H312.701C312.765 589.019 313.101 589.728 313.709 590.272C314.317 590.805 315.085 591.072 316.013 591.072C316.536 591.072 317.016 590.981 317.453 590.8C317.89 590.608 318.269 590.331 318.589 589.968L319.229 590.704C318.856 591.152 318.386 591.493 317.821 591.728C317.266 591.963 316.653 592.08 315.981 592.08C315.117 592.08 314.349 591.899 313.677 591.536C313.016 591.163 312.498 590.651 312.125 590C311.752 589.349 311.565 588.613 311.565 587.792C311.565 586.971 311.741 586.235 312.093 585.584C312.456 584.933 312.946 584.427 313.565 584.064C314.194 583.701 314.898 583.52 315.677 583.52C316.456 583.52 317.154 583.701 317.773 584.064C318.392 584.427 318.877 584.933 319.229 585.584C319.581 586.224 319.757 586.96 319.757 587.792L319.741 588.144ZM315.677 584.496C314.866 584.496 314.184 584.757 313.629 585.28C313.085 585.792 312.776 586.464 312.701 587.296H318.669C318.594 586.464 318.28 585.792 317.725 585.28C317.181 584.757 316.498 584.496 315.677 584.496ZM323.157 585.232C323.424 584.667 323.819 584.24 324.341 583.952C324.875 583.664 325.531 583.52 326.309 583.52V584.624L326.037 584.608C325.152 584.608 324.459 584.88 323.957 585.424C323.456 585.968 323.205 586.731 323.205 587.712V592H322.069V583.584H323.157V585.232ZM241.961 611.168H246.153V612.16H241.961V611.168ZM255.826 607.52C256.925 607.52 257.767 607.797 258.354 608.352C258.941 608.896 259.234 609.707 259.234 610.784V616H258.146V614.688C257.89 615.125 257.511 615.467 257.01 615.712C256.519 615.957 255.933 616.08 255.25 616.08C254.311 616.08 253.565 615.856 253.01 615.408C252.455 614.96 252.178 614.368 252.178 613.632C252.178 612.917 252.434 612.341 252.946 611.904C253.469 611.467 254.295 611.248 255.426 611.248H258.098V610.736C258.098 610.011 257.895 609.461 257.49 609.088C257.085 608.704 256.493 608.512 255.714 608.512C255.181 608.512 254.669 608.603 254.178 608.784C253.687 608.955 253.266 609.195 252.914 609.504L252.402 608.656C252.829 608.293 253.341 608.016 253.938 607.824C254.535 607.621 255.165 607.52 255.826 607.52ZM255.426 615.184C256.066 615.184 256.615 615.04 257.074 614.752C257.533 614.453 257.874 614.027 258.098 613.472V612.096H255.458C254.018 612.096 253.298 612.597 253.298 613.6C253.298 614.091 253.485 614.48 253.858 614.768C254.231 615.045 254.754 615.184 255.426 615.184ZM266.607 607.52C267.663 607.52 268.501 607.829 269.119 608.448C269.749 609.056 270.063 609.947 270.063 611.12V616H268.927V611.232C268.927 610.357 268.709 609.691 268.271 609.232C267.834 608.773 267.21 608.544 266.399 608.544C265.493 608.544 264.773 608.816 264.239 609.36C263.717 609.893 263.455 610.635 263.455 611.584V616H262.319V607.584H263.407V609.136C263.717 608.624 264.143 608.229 264.687 607.952C265.242 607.664 265.882 607.52 266.607 607.52ZM273.147 607.584H274.283V616H273.147V607.584ZM273.723 605.744C273.489 605.744 273.291 605.664 273.131 605.504C272.971 605.344 272.891 605.152 272.891 604.928C272.891 604.715 272.971 604.528 273.131 604.368C273.291 604.208 273.489 604.128 273.723 604.128C273.958 604.128 274.155 604.208 274.315 604.368C274.475 604.517 274.555 604.699 274.555 604.912C274.555 605.147 274.475 605.344 274.315 605.504C274.155 605.664 273.958 605.744 273.723 605.744ZM287.94 607.52C288.996 607.52 289.823 607.824 290.42 608.432C291.028 609.04 291.332 609.936 291.332 611.12V616H290.196V611.232C290.196 610.357 289.983 609.691 289.556 609.232C289.14 608.773 288.548 608.544 287.78 608.544C286.906 608.544 286.218 608.816 285.716 609.36C285.215 609.893 284.964 610.635 284.964 611.584V616H283.828V611.232C283.828 610.357 283.615 609.691 283.188 609.232C282.772 608.773 282.175 608.544 281.396 608.544C280.532 608.544 279.844 608.816 279.332 609.36C278.831 609.893 278.58 610.635 278.58 611.584V616H277.444V607.584H278.532V609.12C278.831 608.608 279.247 608.213 279.78 607.936C280.314 607.659 280.927 607.52 281.62 607.52C282.324 607.52 282.932 607.669 283.444 607.968C283.967 608.267 284.356 608.709 284.612 609.296C284.922 608.741 285.364 608.309 285.94 608C286.527 607.68 287.194 607.52 287.94 607.52ZM297.357 607.52C298.456 607.52 299.298 607.797 299.885 608.352C300.472 608.896 300.765 609.707 300.765 610.784V616H299.677V614.688C299.421 615.125 299.042 615.467 298.541 615.712C298.05 615.957 297.464 616.08 296.781 616.08C295.842 616.08 295.096 615.856 294.541 615.408C293.986 614.96 293.709 614.368 293.709 613.632C293.709 612.917 293.965 612.341 294.477 611.904C295 611.467 295.826 611.248 296.957 611.248H299.629V610.736C299.629 610.011 299.426 609.461 299.021 609.088C298.616 608.704 298.024 608.512 297.245 608.512C296.712 608.512 296.2 608.603 295.709 608.784C295.218 608.955 294.797 609.195 294.445 609.504L293.933 608.656C294.36 608.293 294.872 608.016 295.469 607.824C296.066 607.621 296.696 607.52 297.357 607.52ZM296.957 615.184C297.597 615.184 298.146 615.04 298.605 614.752C299.064 614.453 299.405 614.027 299.629 613.472V612.096H296.989C295.549 612.096 294.829 612.597 294.829 613.6C294.829 614.091 295.016 614.48 295.389 614.768C295.762 615.045 296.285 615.184 296.957 615.184ZM308.283 615.488C308.069 615.68 307.803 615.829 307.483 615.936C307.173 616.032 306.848 616.08 306.507 616.08C305.717 616.08 305.109 615.867 304.683 615.44C304.256 615.013 304.043 614.411 304.043 613.632V608.544H302.539V607.584H304.043V605.744H305.179V607.584H307.739V608.544H305.179V613.568C305.179 614.069 305.301 614.453 305.547 614.72C305.803 614.976 306.165 615.104 306.635 615.104C306.869 615.104 307.093 615.067 307.307 614.992C307.531 614.917 307.723 614.811 307.883 614.672L308.283 615.488ZM310.351 607.584H311.487V616H310.351V607.584ZM310.927 605.744C310.692 605.744 310.495 605.664 310.335 605.504C310.175 605.344 310.095 605.152 310.095 604.928C310.095 604.715 310.175 604.528 310.335 604.368C310.495 604.208 310.692 604.128 310.927 604.128C311.161 604.128 311.359 604.208 311.519 604.368C311.679 604.517 311.759 604.699 311.759 604.912C311.759 605.147 311.679 605.344 311.519 605.504C311.359 605.664 311.161 605.744 310.927 605.744ZM318.087 616.08C317.277 616.08 316.546 615.899 315.895 615.536C315.245 615.163 314.733 614.651 314.359 614C313.986 613.349 313.799 612.613 313.799 611.792C313.799 610.971 313.986 610.235 314.359 609.584C314.733 608.933 315.245 608.427 315.895 608.064C316.546 607.701 317.277 607.52 318.087 607.52C318.898 607.52 319.629 607.701 320.279 608.064C320.93 608.427 321.437 608.933 321.799 609.584C322.173 610.235 322.359 610.971 322.359 611.792C322.359 612.613 322.173 613.349 321.799 614C321.437 614.651 320.93 615.163 320.279 615.536C319.629 615.899 318.898 616.08 318.087 616.08ZM318.087 615.072C318.685 615.072 319.218 614.939 319.687 614.672C320.167 614.395 320.541 614.005 320.807 613.504C321.074 613.003 321.207 612.432 321.207 611.792C321.207 611.152 321.074 610.581 320.807 610.08C320.541 609.579 320.167 609.195 319.687 608.928C319.218 608.651 318.685 608.512 318.087 608.512C317.49 608.512 316.951 608.651 316.471 608.928C316.002 609.195 315.629 609.579 315.351 610.08C315.085 610.581 314.951 611.152 314.951 611.792C314.951 612.432 315.085 613.003 315.351 613.504C315.629 614.005 316.002 614.395 316.471 614.672C316.951 614.939 317.49 615.072 318.087 615.072ZM328.967 607.52C330.023 607.52 330.86 607.829 331.479 608.448C332.108 609.056 332.423 609.947 332.423 611.12V616H331.287V611.232C331.287 610.357 331.068 609.691 330.631 609.232C330.193 608.773 329.569 608.544 328.759 608.544C327.852 608.544 327.132 608.816 326.599 609.36C326.076 609.893 325.815 610.635 325.815 611.584V616H324.679V607.584H325.767V609.136C326.076 608.624 326.503 608.229 327.047 607.952C327.601 607.664 328.241 607.52 328.967 607.52ZM241.961 635.168H246.153V636.16H241.961V635.168ZM255.138 640.08C254.455 640.08 253.799 639.984 253.17 639.792C252.551 639.589 252.066 639.339 251.714 639.04L252.226 638.144C252.578 638.421 253.021 638.651 253.554 638.832C254.087 639.003 254.642 639.088 255.218 639.088C255.986 639.088 256.551 638.971 256.914 638.736C257.287 638.491 257.474 638.149 257.474 637.712C257.474 637.403 257.373 637.163 257.17 636.992C256.967 636.811 256.711 636.677 256.402 636.592C256.093 636.496 255.682 636.405 255.17 636.32C254.487 636.192 253.938 636.064 253.522 635.936C253.106 635.797 252.749 635.568 252.45 635.248C252.162 634.928 252.018 634.485 252.018 633.92C252.018 633.216 252.311 632.64 252.898 632.192C253.485 631.744 254.301 631.52 255.346 631.52C255.89 631.52 256.434 631.595 256.978 631.744C257.522 631.883 257.97 632.069 258.322 632.304L257.826 633.216C257.133 632.736 256.306 632.496 255.346 632.496C254.621 632.496 254.071 632.624 253.698 632.88C253.335 633.136 253.154 633.472 253.154 633.888C253.154 634.208 253.255 634.464 253.458 634.656C253.671 634.848 253.933 634.992 254.242 635.088C254.551 635.173 254.978 635.264 255.522 635.36C256.194 635.488 256.733 635.616 257.138 635.744C257.543 635.872 257.89 636.091 258.178 636.4C258.466 636.709 258.61 637.136 258.61 637.68C258.61 638.416 258.301 639.003 257.682 639.44C257.074 639.867 256.226 640.08 255.138 640.08ZM264.15 640.08C263.339 640.08 262.609 639.899 261.958 639.536C261.307 639.163 260.795 638.651 260.422 638C260.049 637.349 259.862 636.613 259.862 635.792C259.862 634.971 260.049 634.235 260.422 633.584C260.795 632.933 261.307 632.427 261.958 632.064C262.609 631.701 263.339 631.52 264.15 631.52C264.961 631.52 265.691 631.701 266.342 632.064C266.993 632.427 267.499 632.933 267.862 633.584C268.235 634.235 268.422 634.971 268.422 635.792C268.422 636.613 268.235 637.349 267.862 638C267.499 638.651 266.993 639.163 266.342 639.536C265.691 639.899 264.961 640.08 264.15 640.08ZM264.15 639.072C264.747 639.072 265.281 638.939 265.75 638.672C266.23 638.395 266.603 638.005 266.87 637.504C267.137 637.003 267.27 636.432 267.27 635.792C267.27 635.152 267.137 634.581 266.87 634.08C266.603 633.579 266.23 633.195 265.75 632.928C265.281 632.651 264.747 632.512 264.15 632.512C263.553 632.512 263.014 632.651 262.534 632.928C262.065 633.195 261.691 633.579 261.414 634.08C261.147 634.581 261.014 635.152 261.014 635.792C261.014 636.432 261.147 637.003 261.414 637.504C261.691 638.005 262.065 638.395 262.534 638.672C263.014 638.939 263.553 639.072 264.15 639.072ZM278.325 631.584V640H277.237V638.464C276.939 638.976 276.528 639.376 276.005 639.664C275.483 639.941 274.885 640.08 274.213 640.08C273.115 640.08 272.245 639.776 271.605 639.168C270.976 638.549 270.661 637.648 270.661 636.464V631.584H271.797V636.352C271.797 637.237 272.016 637.909 272.453 638.368C272.891 638.827 273.515 639.056 274.325 639.056C275.211 639.056 275.909 638.789 276.421 638.256C276.933 637.712 277.189 636.96 277.189 636V631.584H278.325ZM285.795 631.52C286.851 631.52 287.688 631.829 288.307 632.448C288.936 633.056 289.251 633.947 289.251 635.12V640H288.115V635.232C288.115 634.357 287.896 633.691 287.459 633.232C287.022 632.773 286.398 632.544 285.587 632.544C284.68 632.544 283.96 632.816 283.427 633.36C282.904 633.893 282.643 634.635 282.643 635.584V640H281.507V631.584H282.595V633.136C282.904 632.624 283.331 632.229 283.875 631.952C284.43 631.664 285.07 631.52 285.795 631.52ZM300.046 628.128V640H298.958V638.336C298.617 638.901 298.164 639.333 297.598 639.632C297.044 639.931 296.414 640.08 295.71 640.08C294.921 640.08 294.206 639.899 293.566 639.536C292.926 639.173 292.425 638.667 292.062 638.016C291.7 637.365 291.518 636.624 291.518 635.792C291.518 634.96 291.7 634.219 292.062 633.568C292.425 632.917 292.926 632.416 293.566 632.064C294.206 631.701 294.921 631.52 295.71 631.52C296.393 631.52 297.006 631.664 297.55 631.952C298.105 632.229 298.558 632.64 298.91 633.184V628.128H300.046ZM295.806 639.072C296.393 639.072 296.921 638.939 297.39 638.672C297.87 638.395 298.244 638.005 298.51 637.504C298.788 637.003 298.926 636.432 298.926 635.792C298.926 635.152 298.788 634.581 298.51 634.08C298.244 633.579 297.87 633.195 297.39 632.928C296.921 632.651 296.393 632.512 295.806 632.512C295.209 632.512 294.67 632.651 294.19 632.928C293.721 633.195 293.348 633.579 293.07 634.08C292.804 634.581 292.67 635.152 292.67 635.792C292.67 636.432 292.804 637.003 293.07 637.504C293.348 638.005 293.721 638.395 294.19 638.672C294.67 638.939 295.209 639.072 295.806 639.072Z" fill="white"/>
<line x1="190.001" y1="69.9999" x2="190.001" y2="772" stroke="#FFAEA8" stroke-width="2" stroke-linecap="round" stroke-linejoin="round" stroke-dasharray="5 14"/>
<line x1="190.001" y1="69.9999" x2="190.001" y2="772" stroke="#E94A47" stroke-opacity="0.2" stroke-width="2" stroke-linecap="round" stroke-linejoin="round" stroke-dasharray="5 14"/>
</svg>
