<svg width="50" height="50" viewBox="0 0 50 50" fill="none" xmlns="http://www.w3.org/2000/svg">
<path d="M13 0H1C0.448 0 0 0.448 0 1V13C0 13.552 0.448 14 1 14H13C13.552 14 14 13.552 14 13V1C14 0.448 13.552 0 13 0ZM12 12H2V2H12V12Z" fill="#0073DD"/>
<path d="M13 0H1C0.448 0 0 0.448 0 1V13C0 13.552 0.448 14 1 14H13C13.552 14 14 13.552 14 13V1C14 0.448 13.552 0 13 0ZM12 12H2V2H12V12Z" fill="#C4E6FF" fill-opacity="0.6"/>
<path d="M49 0H37C36.447 0 36 0.448 36 1V13C36 13.552 36.447 14 37 14H49C49.553 14 50 13.552 50 13V1C50 0.448 49.553 0 49 0ZM48 12H38V2H48V12Z" fill="#0073DD"/>
<path d="M49 0H37C36.447 0 36 0.448 36 1V13C36 13.552 36.447 14 37 14H49C49.553 14 50 13.552 50 13V1C50 0.448 49.553 0 49 0ZM48 12H38V2H48V12Z" fill="#C4E6FF" fill-opacity="0.6"/>
<path d="M27.707 4.29325C27.316 3.90225 26.684 3.90225 26.293 4.29325C25.902 4.68425 25.902 5.31625 26.293 5.70725L26.586 6.00025H21C20.448 6.00025 20 6.44825 20 7.00025C20 7.55225 20.448 8.00025 21 8.00025H26.586L26.293 8.29325C25.902 8.68425 25.902 9.31625 26.293 9.70725C26.488 9.90225 26.744 10.0002 27 10.0002C27.256 10.0002 27.512 9.90225 27.707 9.70725L29.707 7.70725C30.098 7.31625 30.098 6.68425 29.707 6.29325L27.707 4.29325Z" fill="#0073DD"/>
<path d="M27.707 4.29325C27.316 3.90225 26.684 3.90225 26.293 4.29325C25.902 4.68425 25.902 5.31625 26.293 5.70725L26.586 6.00025H21C20.448 6.00025 20 6.44825 20 7.00025C20 7.55225 20.448 8.00025 21 8.00025H26.586L26.293 8.29325C25.902 8.68425 25.902 9.31625 26.293 9.70725C26.488 9.90225 26.744 10.0002 27 10.0002C27.256 10.0002 27.512 9.90225 27.707 9.70725L29.707 7.70725C30.098 7.31625 30.098 6.68425 29.707 6.29325L27.707 4.29325Z" fill="#C4E6FF" fill-opacity="0.6"/>
<path d="M43.0003 20C42.4473 20 42.0003 20.448 42.0003 21V26.586L41.7073 26.293C41.3163 25.902 40.6842 25.902 40.2932 26.293C39.9022 26.684 39.9022 27.316 40.2932 27.707L42.2933 29.707C42.4883 29.902 42.7443 30 43.0003 30C43.2563 30 43.5123 29.902 43.7073 29.707L45.7073 27.707C46.0983 27.316 46.0983 26.684 45.7073 26.293C45.3163 25.902 44.6842 25.902 44.2933 26.293L44.0003 26.586V21C44.0003 20.448 43.5533 20 43.0003 20Z" fill="#0073DD"/>
<path d="M43.0003 20C42.4473 20 42.0003 20.448 42.0003 21V26.586L41.7073 26.293C41.3163 25.902 40.6842 25.902 40.2932 26.293C39.9022 26.684 39.9022 27.316 40.2932 27.707L42.2933 29.707C42.4883 29.902 42.7443 30 43.0003 30C43.2563 30 43.5123 29.902 43.7073 29.707L45.7073 27.707C46.0983 27.316 46.0983 26.684 45.7073 26.293C45.3163 25.902 44.6842 25.902 44.2933 26.293L44.0003 26.586V21C44.0003 20.448 43.5533 20 43.0003 20Z" fill="#C4E6FF" fill-opacity="0.6"/>
<path d="M49 36H37C36.447 36 36 36.447 36 37V49C36 49.553 36.447 50 37 50H49C49.553 50 50 49.553 50 49V37C50 36.447 49.553 36 49 36ZM48 48H38V38H48V48Z" fill="#0073DD"/>
<path d="M49 36H37C36.447 36 36 36.447 36 37V49C36 49.553 36.447 50 37 50H49C49.553 50 50 49.553 50 49V37C50 36.447 49.553 36 49 36ZM48 48H38V38H48V48Z" fill="#C4E6FF" fill-opacity="0.6"/>
<path d="M29.0003 42.0003H23.4143L23.7073 41.7073C24.0983 41.3163 24.0983 40.6842 23.7073 40.2932C23.3163 39.9022 22.6843 39.9022 22.2933 40.2932L20.2932 42.2933C19.9022 42.6843 19.9022 43.3163 20.2932 43.7073L22.2933 45.7073C22.4883 45.9023 22.7443 46.0003 23.0003 46.0003C23.2563 46.0003 23.5123 45.9023 23.7073 45.7073C24.0983 45.3163 24.0983 44.6842 23.7073 44.2933L23.4143 44.0003H29.0003C29.5533 44.0003 30.0003 43.5533 30.0003 43.0003C30.0003 42.4473 29.5533 42.0003 29.0003 42.0003Z" fill="#0073DD"/>
<path d="M29.0003 42.0003H23.4143L23.7073 41.7073C24.0983 41.3163 24.0983 40.6842 23.7073 40.2932C23.3163 39.9022 22.6843 39.9022 22.2933 40.2932L20.2932 42.2933C19.9022 42.6843 19.9022 43.3163 20.2932 43.7073L22.2933 45.7073C22.4883 45.9023 22.7443 46.0003 23.0003 46.0003C23.2563 46.0003 23.5123 45.9023 23.7073 45.7073C24.0983 45.3163 24.0983 44.6842 23.7073 44.2933L23.4143 44.0003H29.0003C29.5533 44.0003 30.0003 43.5533 30.0003 43.0003C30.0003 42.4473 29.5533 42.0003 29.0003 42.0003Z" fill="#C4E6FF" fill-opacity="0.6"/>
<path d="M13 36H1C0.448 36 0 36.447 0 37V49C0 49.553 0.448 50 1 50H13C13.552 50 14 49.553 14 49V37C14 36.447 13.552 36 13 36ZM12 48H2V38H12V48Z" fill="#0073DD"/>
<path d="M13 36H1C0.448 36 0 36.447 0 37V49C0 49.553 0.448 50 1 50H13C13.552 50 14 49.553 14 49V37C14 36.447 13.552 36 13 36ZM12 48H2V38H12V48Z" fill="#C4E6FF" fill-opacity="0.6"/>
<path d="M7.00025 29.9993C7.55225 29.9993 8.00025 29.5523 8.00025 28.9993V23.4143L8.29325 23.7073C8.48825 23.9023 8.74425 24.0003 9.00025 24.0003C9.25625 24.0003 9.51225 23.9023 9.70725 23.7073C10.0983 23.3163 10.0983 22.6843 9.70725 22.2933L7.70725 20.2932C7.31625 19.9022 6.68425 19.9022 6.29325 20.2932L4.29325 22.2933C3.90225 22.6843 3.90225 23.3163 4.29325 23.7073C4.68425 24.0983 5.31625 24.0983 5.70725 23.7073L6.00025 23.4143V28.9993C6.00025 29.5523 6.44825 29.9993 7.00025 29.9993Z" fill="#0073DD"/>
<path d="M7.00025 29.9993C7.55225 29.9993 8.00025 29.5523 8.00025 28.9993V23.4143L8.29325 23.7073C8.48825 23.9023 8.74425 24.0003 9.00025 24.0003C9.25625 24.0003 9.51225 23.9023 9.70725 23.7073C10.0983 23.3163 10.0983 22.6843 9.70725 22.2933L7.70725 20.2932C7.31625 19.9022 6.68425 19.9022 6.29325 20.2932L4.29325 22.2933C3.90225 22.6843 3.90225 23.3163 4.29325 23.7073C4.68425 24.0983 5.31625 24.0983 5.70725 23.7073L6.00025 23.4143V28.9993C6.00025 29.5523 6.44825 29.9993 7.00025 29.9993Z" fill="#C4E6FF" fill-opacity="0.6"/>
</svg>
