<svg width="55" height="55" viewBox="0 0 55 55" fill="none" xmlns="http://www.w3.org/2000/svg">
<path d="M8.97914 14.2167L0.179132 23.7828C-0.00542652 23.9833 -0.0519078 24.2712 0.0608777 24.5174C0.173321 24.764 0.423842 24.9224 0.699996 24.9224H4.7801V54.3168C4.7801 54.6941 5.0935 55 5.48005 55H13.4868C13.8733 55 14.1868 54.6941 14.1868 54.3168V24.9224H18.3C18.5762 24.9224 18.8267 24.764 18.9391 24.5174C19.0519 24.2712 19.0054 23.9833 18.8209 23.7828L10.0209 14.2167C9.75496 13.9278 9.24504 13.9278 8.97914 14.2167ZM13.4868 23.556C13.1002 23.556 12.7868 23.8619 12.7868 24.2392V53.6336H6.18V24.2392C6.18 23.8619 5.8666 23.556 5.48005 23.556H2.26908L9.5 15.6956L16.7309 23.556H13.4868Z" fill="#0073DD"/>
<path d="M8.97914 14.2167L0.179132 23.7828C-0.00542652 23.9833 -0.0519078 24.2712 0.0608777 24.5174C0.173321 24.764 0.423842 24.9224 0.699996 24.9224H4.7801V54.3168C4.7801 54.6941 5.0935 55 5.48005 55H13.4868C13.8733 55 14.1868 54.6941 14.1868 54.3168V24.9224H18.3C18.5762 24.9224 18.8267 24.764 18.9391 24.5174C19.0519 24.2712 19.0054 23.9833 18.8209 23.7828L10.0209 14.2167C9.75496 13.9278 9.24504 13.9278 8.97914 14.2167ZM13.4868 23.556C13.1002 23.556 12.7868 23.8619 12.7868 24.2392V53.6336H6.18V24.2392C6.18 23.8619 5.8666 23.556 5.48005 23.556H2.26908L9.5 15.6956L16.7309 23.556H13.4868Z" fill="#C4E6FF" fill-opacity="0.6"/>
<path d="M23.4801 55H31.4868C31.8733 55 32.1868 54.693 32.1868 54.3143V17.9626H36.3C36.5762 17.9626 36.8267 17.8036 36.9391 17.5562C37.0519 17.309 37.0054 17.0201 36.8209 16.8188L28.0209 7.21747C27.755 6.92751 27.245 6.92751 26.9791 7.21747L18.1791 16.8188C17.9946 17.0201 17.9481 17.309 18.0609 17.5562C18.1733 17.8036 18.4238 17.9626 18.7 17.9626H22.7801V54.3143C22.7801 54.693 23.0935 55 23.4801 55ZM20.2691 16.5912L27.5 8.7018L34.7309 16.5912H31.4868C31.1002 16.5912 30.7868 16.8982 30.7868 17.2769V53.6285H24.18V17.2769C24.18 16.8982 23.8666 16.5912 23.4801 16.5912H20.2691Z" fill="#0073DD"/>
<path d="M23.4801 55H31.4868C31.8733 55 32.1868 54.693 32.1868 54.3143V17.9626H36.3C36.5762 17.9626 36.8267 17.8036 36.9391 17.5562C37.0519 17.309 37.0054 17.0201 36.8209 16.8188L28.0209 7.21747C27.755 6.92751 27.245 6.92751 26.9791 7.21747L18.1791 16.8188C17.9946 17.0201 17.9481 17.309 18.0609 17.5562C18.1733 17.8036 18.4238 17.9626 18.7 17.9626H22.7801V54.3143C22.7801 54.693 23.0935 55 23.4801 55ZM20.2691 16.5912L27.5 8.7018L34.7309 16.5912H31.4868C31.1002 16.5912 30.7868 16.8982 30.7868 17.2769V53.6285H24.18V17.2769C24.18 16.8982 23.8666 16.5912 23.4801 16.5912H20.2691Z" fill="#C4E6FF" fill-opacity="0.6"/>
<path d="M36.0609 10.5852C36.1733 10.8333 36.4238 10.9928 36.7 10.9928H40.7801V54.3124C40.7801 54.6921 41.0935 55 41.4801 55H49.4865C49.873 55 50.1864 54.6921 50.1864 54.3124V10.9928H54.3C54.5762 10.9928 54.8267 10.8333 54.9391 10.5852C55.0519 10.3374 55.0054 10.0477 54.8209 9.84587L46.0209 0.218073C45.755 -0.0726911 45.245 -0.0726911 44.9791 0.218073L36.1791 9.84587C35.9946 10.0477 35.9481 10.3374 36.0609 10.5852ZM45.5 1.70648L52.7309 9.61756H49.4865C49.0999 9.61756 48.7865 9.92545 48.7865 10.3052V53.6247H42.18V10.3052C42.18 9.92545 41.8666 9.61756 41.4801 9.61756H38.2691L45.5 1.70648Z" fill="#0073DD"/>
<path d="M36.0609 10.5852C36.1733 10.8333 36.4238 10.9928 36.7 10.9928H40.7801V54.3124C40.7801 54.6921 41.0935 55 41.4801 55H49.4865C49.873 55 50.1864 54.6921 50.1864 54.3124V10.9928H54.3C54.5762 10.9928 54.8267 10.8333 54.9391 10.5852C55.0519 10.3374 55.0054 10.0477 54.8209 9.84587L46.0209 0.218073C45.755 -0.0726911 45.245 -0.0726911 44.9791 0.218073L36.1791 9.84587C35.9946 10.0477 35.9481 10.3374 36.0609 10.5852ZM45.5 1.70648L52.7309 9.61756H49.4865C49.0999 9.61756 48.7865 9.92545 48.7865 10.3052V53.6247H42.18V10.3052C42.18 9.92545 41.8666 9.61756 41.4801 9.61756H38.2691L45.5 1.70648Z" fill="#C4E6FF" fill-opacity="0.6"/>
</svg>
