<svg width="1440" height="940" viewBox="0 0 1440 940" fill="none" xmlns="http://www.w3.org/2000/svg">
<g clip-path="url(#clip0)">
<path d="M1440 0H0V940H1440V0Z" fill="url(#paint0_radial)"/>
<g style="mix-blend-mode:screen" opacity="0.1">
<g style="mix-blend-mode:screen" opacity="0.1">
<path d="M924.503 737.396L358.818 171.711C319.765 132.658 256.449 132.658 217.396 171.711L-348.289 737.396C-387.342 776.449 -387.342 839.765 -348.289 878.817L217.396 1444.5C256.449 1483.56 319.765 1483.56 358.818 1444.5L924.503 878.817C963.555 839.765 963.555 776.449 924.503 737.396Z" fill="#1B236D"/>
</g>
</g>
<g style="mix-blend-mode:screen" opacity="0.1">
<g style="mix-blend-mode:screen" opacity="0.1">
<path d="M2013.51 223.396L1447.82 -342.289C1408.77 -381.342 1345.45 -381.342 1306.4 -342.289L740.714 223.396C701.662 262.449 701.662 325.765 740.714 364.817L1306.4 930.503C1345.45 969.555 1408.77 969.555 1447.82 930.503L2013.51 364.818C2052.56 325.765 2052.56 262.449 2013.51 223.396Z" fill="#1B236D"/>
</g>
<g style="mix-blend-mode:screen" opacity="0.1">
<path d="M2013.51 223.396L1447.82 -342.289C1408.77 -381.342 1345.45 -381.342 1306.4 -342.289L740.714 223.396C701.662 262.449 701.662 325.765 740.714 364.817L1306.4 930.503C1345.45 969.555 1408.77 969.555 1447.82 930.503L2013.51 364.818C2052.56 325.765 2052.56 262.449 2013.51 223.396Z" fill="white" fill-opacity="0.1"/>
</g>
</g>
<path d="M1946.51 701.396L1380.82 135.711C1341.77 96.6582 1278.45 96.6582 1239.4 135.711L673.714 701.396C634.661 740.449 634.661 803.765 673.714 842.817L1239.4 1408.5C1278.45 1447.56 1341.77 1447.56 1380.82 1408.5L1946.51 842.818C1985.56 803.765 1985.56 740.449 1946.51 701.396Z" fill="#850D73"/>
</g>
<defs>
<radialGradient id="paint0_radial" cx="0" cy="0" r="1" gradientUnits="userSpaceOnUse" gradientTransform="translate(720 -57.5) rotate(90) scale(997.5 1528.09)">
<stop stop-color="#AC0C7F"/>
<stop offset="0.385011" stop-color="#0A134F"/>
</radialGradient>
<clipPath id="clip0">
<rect width="1440" height="940" fill="white"/>
</clipPath>
</defs>
</svg>
