<svg width="100" height="99" viewBox="0 0 100 99" fill="none" xmlns="http://www.w3.org/2000/svg">
<path d="M0 0.751953H100V98.0247H0V0.751953Z" fill="url(#paint0_radial)"/>
<path d="M4.16661 4.16661H95.8334V93.3334H4.16661V4.16661ZM0 97.5002H100V0H0V97.5002ZM60 41.1667C60 40.6666 60 39.4584 59.7917 37.1249C59.7917 36.7916 59.8334 36.7083 60.125 36.5833C62.6666 35.5416 68.625 33.7083 75.3749 33.7083C75.7082 33.7083 75.8749 33.7917 75.8749 34.1249V40.1666C75.8749 40.4999 75.7499 40.5833 75.4166 40.5833C72.7915 40.4583 69 40.7916 67.5415 41.4165V67.6666C67.5415 67.9998 67.4165 68.1666 67.0414 68.1666H60.4999C60.1666 68.1666 59.9998 68.0416 59.9998 67.6666V41.1667H60ZM33.3334 44.9583C34.2916 45.0417 35.0417 45.0417 36.7084 45.0417C41.5835 45.0417 46.1668 43.3334 46.1668 36.7084C46.1668 31.4168 42.9168 28.75 37.3334 28.75C35.6667 28.75 34.0835 28.8333 33.3334 28.875V44.9583ZM25.9584 22.8333C25.9584 22.5417 26.0417 22.3332 26.375 22.3332C29.0416 22.2082 32.9583 22.1249 37.0834 22.1249C48.625 22.1249 53.6667 28.4582 53.6667 36.5833C53.6667 47.1665 46 51.7083 36.5835 51.7083C35 51.7083 34.4584 51.6249 33.3334 51.6249V67.625C33.3334 67.9583 33.2084 68.1249 32.8333 68.1249H26.4166C26.0834 68.1249 25.9165 67.9999 25.9165 67.625V22.8333H25.9584Z" fill="#E579FF"/>
<defs>
<radialGradient id="paint0_radial" cx="0" cy="0" r="1" gradientUnits="userSpaceOnUse" gradientTransform="translate(32.9351 22.5509) scale(75.9999 73.5818)">
<stop stop-color="#4B2D4F" stop-opacity="0.98"/>
<stop offset="1" stop-color="#180024"/>
</radialGradient>
</defs>
</svg>
