<svg width="100" height="99" viewBox="0 0 100 99" fill="none" xmlns="http://www.w3.org/2000/svg">
<path d="M0 1H100V98.2727H0V1Z" fill="url(#paint0_radial)"/>
<path d="M4.16661 4.41466H95.8334V93.5814H4.16661V4.41466ZM0 97.7482H100V0.248047H0V97.7482ZM67.4167 40.248C64.1249 40.248 63.0001 41.9147 63.0001 43.2896C63.0001 44.7896 63.75 45.8313 68.1667 48.123C74.7084 51.2897 76.7501 54.3313 76.7501 58.7897C76.7501 65.4563 71.6668 69.0397 64.7917 69.0397C61.1667 69.0397 58.0416 68.2896 56.25 67.2481C55.9584 67.1231 55.9167 66.9148 55.9167 66.5814V60.4563C55.9167 60.0397 56.125 59.9146 56.4168 60.1231C59.0418 61.8315 62.0417 62.5814 64.7917 62.5814C68.0834 62.5814 69.4584 61.2064 69.4584 59.3313C69.4584 57.8314 68.5 56.498 64.2916 54.3313C58.3749 51.498 55.9167 48.6231 55.9167 43.8314C55.9167 38.4563 60.1251 33.998 67.4167 33.998C71 33.998 73.5 34.5398 74.875 35.1647C75.2083 35.373 75.2916 35.7063 75.2916 35.9979V41.7062C75.2916 42.0395 75.0833 42.2479 74.6665 42.1228C72.8333 40.9565 70.125 40.248 67.4167 40.248V40.248ZM31.5833 45.2064C32.5417 45.2897 33.2917 45.2897 34.9583 45.2897C39.8335 45.2897 44.4167 43.5814 44.4167 36.9565C44.4167 31.6649 41.125 28.998 35.5834 28.998C33.9168 28.998 32.3334 29.0814 31.5833 29.123V45.2064ZM24.1668 23.0813C24.1668 22.7897 24.7502 22.5812 25.0833 22.5812C27.7501 22.4563 31.7084 22.3729 35.8334 22.3729C47.375 22.3729 51.8749 28.7062 51.8749 36.7897C51.8749 47.3729 44.2083 51.9147 34.7917 51.9147C33.2084 51.9147 32.6668 51.8313 31.5416 51.8313V67.8314C31.5416 68.1647 31.4166 68.3313 31.0417 68.3313H24.6667C24.3334 68.3313 24.1666 68.2063 24.1666 67.8314V23.0813H24.1668Z" fill="#31C5F0"/>
<defs>
<radialGradient id="paint0_radial" cx="0" cy="0" r="1" gradientUnits="userSpaceOnUse" gradientTransform="translate(32.9351 22.7989) scale(75.9999 73.5818)">
<stop stop-color="#34364E" stop-opacity="0.98"/>
<stop offset="1" stop-color="#0C0824"/>
</radialGradient>
</defs>
</svg>
