<svg width="1440" height="216" viewBox="0 0 1440 216" fill="none" xmlns="http://www.w3.org/2000/svg">
<rect width="1440" height="216" fill="white"/>
<path d="M344 154H568.309L728 64L933.894 154H1095" stroke="black" stroke-width="3"/>
<path d="M316.945 137H311.374V127.006H316.945V128.038H312.536V131.258H316.679V132.283H312.536V135.961H316.945V137ZM320.801 133.165L318.196 129.508H319.488L321.464 132.379L323.433 129.508H324.711L322.106 133.165L324.848 137H323.562L321.464 133.965L319.345 137H318.06L320.801 133.165ZM329.824 137.137C329.337 137.137 328.89 137.048 328.484 136.87C328.083 136.688 327.746 136.41 327.473 136.036H327.391C327.445 136.474 327.473 136.888 327.473 137.28V140.363H326.338V129.508H327.261L327.418 130.533H327.473C327.764 130.123 328.104 129.827 328.491 129.645C328.879 129.462 329.323 129.371 329.824 129.371C330.818 129.371 331.583 129.711 332.121 130.39C332.663 131.069 332.935 132.021 332.935 133.247C332.935 134.478 332.659 135.435 332.107 136.118C331.561 136.797 330.799 137.137 329.824 137.137ZM329.66 130.335C328.895 130.335 328.341 130.547 327.999 130.971C327.657 131.395 327.482 132.069 327.473 132.994V133.247C327.473 134.3 327.648 135.054 327.999 135.51C328.35 135.961 328.913 136.187 329.688 136.187C330.335 136.187 330.84 135.924 331.205 135.4C331.574 134.876 331.759 134.154 331.759 133.233C331.759 132.299 331.574 131.584 331.205 131.087C330.84 130.586 330.326 130.335 329.66 130.335ZM341.391 133.247C341.391 134.468 341.083 135.423 340.468 136.111C339.853 136.795 339.003 137.137 337.918 137.137C337.248 137.137 336.653 136.979 336.134 136.665C335.614 136.351 335.213 135.899 334.931 135.312C334.648 134.724 334.507 134.035 334.507 133.247C334.507 132.026 334.812 131.076 335.423 130.396C336.034 129.713 336.881 129.371 337.966 129.371C339.014 129.371 339.846 129.72 340.461 130.417C341.081 131.114 341.391 132.058 341.391 133.247ZM335.683 133.247C335.683 134.204 335.874 134.933 336.257 135.435C336.64 135.936 337.202 136.187 337.945 136.187C338.688 136.187 339.251 135.938 339.634 135.441C340.021 134.94 340.215 134.209 340.215 133.247C340.215 132.295 340.021 131.572 339.634 131.08C339.251 130.583 338.684 130.335 337.932 130.335C337.189 130.335 336.628 130.579 336.25 131.066C335.872 131.554 335.683 132.281 335.683 133.247ZM348.22 134.956C348.22 135.653 347.96 136.191 347.44 136.569C346.921 136.948 346.192 137.137 345.253 137.137C344.259 137.137 343.485 136.979 342.929 136.665V135.612C343.289 135.795 343.674 135.938 344.084 136.043C344.499 136.148 344.897 136.2 345.28 136.2C345.873 136.2 346.328 136.107 346.647 135.92C346.966 135.729 347.126 135.439 347.126 135.052C347.126 134.76 346.998 134.512 346.743 134.307C346.493 134.097 346 133.851 345.267 133.568C344.569 133.309 344.073 133.083 343.776 132.892C343.485 132.696 343.266 132.475 343.12 132.229C342.979 131.982 342.908 131.688 342.908 131.347C342.908 130.736 343.157 130.255 343.653 129.904C344.15 129.549 344.831 129.371 345.697 129.371C346.504 129.371 347.292 129.535 348.062 129.863L347.659 130.786C346.907 130.476 346.226 130.321 345.615 130.321C345.077 130.321 344.672 130.406 344.398 130.574C344.125 130.743 343.988 130.975 343.988 131.271C343.988 131.472 344.038 131.643 344.139 131.784C344.243 131.925 344.41 132.06 344.638 132.188C344.866 132.315 345.303 132.5 345.95 132.741C346.839 133.065 347.438 133.391 347.748 133.719C348.062 134.047 348.22 134.459 348.22 134.956ZM351.207 137H350.072V129.508H351.207V137ZM349.977 127.478C349.977 127.218 350.04 127.029 350.168 126.91C350.296 126.787 350.455 126.726 350.646 126.726C350.829 126.726 350.986 126.787 351.118 126.91C351.25 127.033 351.316 127.222 351.316 127.478C351.316 127.733 351.25 127.924 351.118 128.052C350.986 128.175 350.829 128.236 350.646 128.236C350.455 128.236 350.296 128.175 350.168 128.052C350.04 127.924 349.977 127.733 349.977 127.478ZM356.033 136.2C356.234 136.2 356.427 136.187 356.614 136.159C356.801 136.127 356.949 136.095 357.059 136.063V136.932C356.936 136.991 356.753 137.039 356.512 137.075C356.275 137.116 356.061 137.137 355.869 137.137C354.42 137.137 353.695 136.373 353.695 134.847V130.39H352.622V129.843L353.695 129.371L354.174 127.771H354.83V129.508H357.004V130.39H354.83V134.799C354.83 135.25 354.937 135.596 355.151 135.838C355.366 136.079 355.66 136.2 356.033 136.2ZM359.697 137H358.562V129.508H359.697V137ZM358.467 127.478C358.467 127.218 358.531 127.029 358.658 126.91C358.786 126.787 358.945 126.726 359.137 126.726C359.319 126.726 359.476 126.787 359.608 126.91C359.741 127.033 359.807 127.222 359.807 127.478C359.807 127.733 359.741 127.924 359.608 128.052C359.476 128.175 359.319 128.236 359.137 128.236C358.945 128.236 358.786 128.175 358.658 128.052C358.531 127.924 358.467 127.733 358.467 127.478ZM368.57 133.247C368.57 134.468 368.263 135.423 367.647 136.111C367.032 136.795 366.182 137.137 365.098 137.137C364.428 137.137 363.833 136.979 363.313 136.665C362.794 136.351 362.393 135.899 362.11 135.312C361.828 134.724 361.687 134.035 361.687 133.247C361.687 132.026 361.992 131.076 362.603 130.396C363.213 129.713 364.061 129.371 365.146 129.371C366.194 129.371 367.025 129.72 367.641 130.417C368.26 131.114 368.57 132.058 368.57 133.247ZM362.862 133.247C362.862 134.204 363.054 134.933 363.437 135.435C363.819 135.936 364.382 136.187 365.125 136.187C365.868 136.187 366.431 135.938 366.813 135.441C367.201 134.94 367.395 134.209 367.395 133.247C367.395 132.295 367.201 131.572 366.813 131.08C366.431 130.583 365.863 130.335 365.111 130.335C364.368 130.335 363.808 130.579 363.43 131.066C363.051 131.554 362.862 132.281 362.862 133.247ZM375.693 137V132.153C375.693 131.543 375.554 131.087 375.276 130.786C374.998 130.485 374.563 130.335 373.971 130.335C373.187 130.335 372.613 130.547 372.248 130.971C371.883 131.395 371.701 132.094 371.701 133.069V137H370.566V129.508H371.489L371.674 130.533H371.729C371.961 130.164 372.287 129.879 372.706 129.679C373.125 129.474 373.592 129.371 374.107 129.371C375.01 129.371 375.689 129.59 376.145 130.027C376.6 130.46 376.828 131.155 376.828 132.112V137H375.693Z" fill="black"/>
<path d="M711.653 40.9014C710.555 40.9014 709.687 41.2682 709.049 42.002C708.415 42.7311 708.099 43.7314 708.099 45.0029C708.099 46.3109 708.404 47.3226 709.015 48.0381C709.63 48.749 710.505 49.1045 711.64 49.1045C712.337 49.1045 713.132 48.9792 714.025 48.7285V49.7471C713.333 50.0068 712.478 50.1367 711.462 50.1367C709.99 50.1367 708.853 49.6901 708.051 48.7969C707.253 47.9036 706.854 46.6344 706.854 44.9893C706.854 43.9593 707.046 43.057 707.429 42.2822C707.816 41.5075 708.372 40.9105 709.097 40.4912C709.826 40.0719 710.683 39.8623 711.667 39.8623C712.715 39.8623 713.631 40.0537 714.415 40.4365L713.923 41.4346C713.166 41.0791 712.41 40.9014 711.653 40.9014ZM717.17 50H716.035V39.3633H717.17V50ZM720.711 50H719.576V42.5078H720.711V50ZM719.48 40.4775C719.48 40.2178 719.544 40.0286 719.672 39.9102C719.799 39.7871 719.959 39.7256 720.15 39.7256C720.333 39.7256 720.49 39.7871 720.622 39.9102C720.754 40.0332 720.82 40.2223 720.82 40.4775C720.82 40.7327 720.754 40.9242 720.622 41.0518C720.49 41.1748 720.333 41.2363 720.15 41.2363C719.959 41.2363 719.799 41.1748 719.672 41.0518C719.544 40.9242 719.48 40.7327 719.48 40.4775ZM732.667 50V45.126C732.667 44.529 732.539 44.0824 732.284 43.7861C732.029 43.4854 731.632 43.335 731.095 43.335C730.388 43.335 729.867 43.5378 729.529 43.9434C729.192 44.349 729.023 44.9733 729.023 45.8164V50H727.889V45.126C727.889 44.529 727.761 44.0824 727.506 43.7861C727.251 43.4854 726.852 43.335 726.31 43.335C725.599 43.335 725.077 43.5492 724.744 43.9775C724.416 44.4014 724.252 45.0986 724.252 46.0693V50H723.117V42.5078H724.04L724.225 43.5332H724.279C724.493 43.1686 724.794 42.8838 725.182 42.6787C725.574 42.4736 726.011 42.3711 726.494 42.3711C727.665 42.3711 728.431 42.7949 728.791 43.6426H728.846C729.069 43.2507 729.393 42.9408 729.816 42.7129C730.24 42.485 730.723 42.3711 731.266 42.3711C732.113 42.3711 732.747 42.5898 733.166 43.0273C733.59 43.4603 733.802 44.1553 733.802 45.1123V50H732.667ZM740.754 50L740.528 48.9336H740.474C740.1 49.403 739.726 49.722 739.353 49.8906C738.983 50.0547 738.521 50.1367 737.965 50.1367C737.222 50.1367 736.639 49.9453 736.215 49.5625C735.796 49.1797 735.586 48.6351 735.586 47.9287C735.586 46.4157 736.796 45.6227 739.216 45.5498L740.487 45.5088V45.0439C740.487 44.4561 740.36 44.0231 740.104 43.7451C739.854 43.4626 739.451 43.3213 738.895 43.3213C738.27 43.3213 737.564 43.5127 736.775 43.8955L736.427 43.0273C736.796 42.8268 737.199 42.6696 737.637 42.5557C738.079 42.4417 738.521 42.3848 738.963 42.3848C739.856 42.3848 740.517 42.583 740.945 42.9795C741.378 43.376 741.595 44.0117 741.595 44.8867V50H740.754ZM738.19 49.2002C738.897 49.2002 739.451 49.0065 739.852 48.6191C740.257 48.2318 740.46 47.6895 740.46 46.9922V46.3154L739.325 46.3633C738.423 46.3952 737.771 46.5365 737.37 46.7871C736.974 47.0332 736.775 47.4183 736.775 47.9424C736.775 48.3525 736.898 48.6647 737.145 48.8789C737.395 49.0931 737.744 49.2002 738.19 49.2002ZM745.744 46.165L743.14 42.5078H744.432L746.407 45.3789L748.376 42.5078H749.654L747.05 46.165L749.791 50H748.506L746.407 46.9648L744.288 50H743.003L745.744 46.165Z" fill="black"/>
<path d="M596.285 112.189L598.43 115.749L597.435 116.349L592.277 107.789L594.624 106.374C595.675 105.741 596.57 105.476 597.312 105.577C598.058 105.675 598.675 106.129 599.161 106.937C599.844 108.069 599.731 109.179 598.823 110.269L603.466 112.715L602.289 113.424L598.071 111.113L596.285 112.189ZM595.77 111.335L597.134 110.513C597.837 110.089 598.268 109.64 598.429 109.165C598.588 108.687 598.499 108.168 598.163 107.61C597.822 107.044 597.408 106.737 596.922 106.69C596.439 106.64 595.829 106.837 595.092 107.282L593.798 108.062L595.77 111.335ZM605.673 111.385L604.701 111.971L600.834 105.554L601.806 104.968L605.673 111.385ZM599.704 103.864C599.57 103.641 599.527 103.447 599.575 103.279C599.621 103.108 599.726 102.973 599.89 102.874C600.046 102.78 600.213 102.752 600.389 102.789C600.566 102.826 600.72 102.954 600.852 103.172C600.984 103.391 601.026 103.589 600.978 103.767C600.929 103.94 600.826 104.074 600.67 104.168C600.506 104.267 600.337 104.297 600.165 104.257C599.989 104.214 599.836 104.083 599.704 103.864ZM610.819 105.898C611.178 106.495 611.233 107.09 610.984 107.682C610.734 108.274 610.207 108.813 609.403 109.297C608.552 109.81 607.807 110.075 607.169 110.093L606.625 109.191C607.028 109.161 607.432 109.085 607.837 108.964C608.246 108.839 608.615 108.678 608.943 108.481C609.45 108.175 609.793 107.86 609.969 107.535C610.144 107.207 610.131 106.876 609.931 106.545C609.781 106.295 609.543 106.148 609.219 106.104C608.896 106.054 608.347 106.097 607.573 106.234C606.842 106.371 606.3 106.434 605.947 106.423C605.596 106.406 605.295 106.329 605.043 106.194C604.795 106.056 604.583 105.841 604.406 105.548C604.091 105.025 604.056 104.485 604.3 103.928C604.542 103.367 605.034 102.863 605.775 102.416C606.466 102 607.226 101.734 608.055 101.617L608.186 102.616C607.382 102.738 606.719 102.957 606.196 103.273C605.735 103.55 605.431 103.832 605.284 104.117C605.137 104.403 605.14 104.672 605.293 104.926C605.396 105.098 605.527 105.218 605.686 105.288C605.849 105.354 606.061 105.384 606.322 105.375C606.583 105.367 607.053 105.299 607.732 105.172C608.66 104.991 609.341 104.961 609.776 105.082C610.215 105.2 610.562 105.473 610.819 105.898ZM614.432 106.107L613.46 106.693L609.593 100.275L610.565 99.6897L614.432 106.107ZM608.463 98.5858C608.329 98.3633 608.286 98.1684 608.335 98.0011C608.38 97.8298 608.485 97.6948 608.649 97.596C608.805 97.5019 608.972 97.4735 609.148 97.5107C609.325 97.5478 609.479 97.6757 609.611 97.8943C609.743 98.1129 609.785 98.311 609.738 98.4885C609.688 98.6621 609.585 98.7959 609.429 98.89C609.265 98.9888 609.097 99.0184 608.924 98.9789C608.749 98.9354 608.595 98.8044 608.463 98.5858ZM620.884 102.219L618.383 98.0677C618.068 97.5446 617.714 97.226 617.32 97.1118C616.927 96.9977 616.476 97.0935 615.969 97.3993C615.298 97.8038 614.915 98.2817 614.822 98.8329C614.728 99.3841 614.933 100.077 615.436 100.913L617.465 104.279L616.493 104.865L612.626 98.4478L613.417 97.9715L614.104 98.7545L614.151 98.7263C614.159 98.2902 614.291 97.878 614.547 97.4899C614.8 97.0979 615.148 96.7689 615.589 96.5032C616.362 96.0374 617.056 95.8743 617.672 96.0139C618.286 96.1495 618.84 96.6271 619.334 97.4469L621.856 101.633L620.884 102.219ZM625.244 90.8447L625.614 91.4595L624.511 92.3162C624.702 92.387 624.908 92.5077 625.128 92.6785C625.345 92.8453 625.538 93.0673 625.705 93.3444C626.083 93.9729 626.171 94.6039 625.967 95.2373C625.764 95.8708 625.287 96.4133 624.538 96.8649C624.347 96.9801 624.158 97.0727 623.971 97.1426C623.689 97.6106 623.648 98.0104 623.848 98.3422C623.954 98.5179 624.105 98.6051 624.301 98.6039C624.495 98.5989 624.767 98.4905 625.119 98.2788L626.254 97.5944C626.949 97.1757 627.57 97.001 628.118 97.0703C628.669 97.1373 629.112 97.4498 629.449 98.008C629.877 98.7185 629.918 99.4308 629.571 100.145C629.227 100.863 628.509 101.551 627.416 102.21C626.576 102.716 625.834 102.95 625.189 102.913C624.549 102.874 624.056 102.569 623.713 101.999C623.478 101.609 623.399 101.196 623.477 100.76C623.555 100.325 623.79 99.9199 624.182 99.5456C623.973 99.5702 623.765 99.5385 623.558 99.4506C623.355 99.3603 623.191 99.2118 623.066 99.0049C622.925 98.7707 622.864 98.5281 622.883 98.2772C622.902 98.0263 622.997 97.7377 623.167 97.4115C622.753 97.4748 622.342 97.406 621.934 97.2051C621.529 97.0019 621.2 96.6895 620.946 96.2679C620.522 95.5653 620.408 94.8977 620.601 94.265C620.792 93.6285 621.274 93.0773 622.047 92.6116C622.383 92.4093 622.709 92.2661 623.025 92.1819L625.244 90.8447ZM624.643 101.423C624.852 101.77 625.157 101.945 625.558 101.949C625.959 101.952 626.433 101.789 626.979 101.459C627.795 100.968 628.324 100.481 628.566 100C628.815 99.5208 628.813 99.0722 628.561 98.6545C628.352 98.3071 628.099 98.1298 627.802 98.1225C627.507 98.1192 627.063 98.2963 626.47 98.6538L625.305 99.3559C624.864 99.6217 624.584 99.934 624.465 100.293C624.346 100.652 624.405 101.029 624.643 101.423ZM621.892 95.6659C622.162 96.1148 622.494 96.3779 622.886 96.4554C623.279 96.5328 623.702 96.4351 624.154 96.1622C625.103 95.5906 625.3 94.8443 624.745 93.9231C624.164 92.9589 623.393 92.7662 622.433 93.3448C621.976 93.62 621.699 93.9546 621.601 94.3487C621.503 94.7428 621.6 95.1819 621.892 95.6659ZM639.07 91.2605L636.364 89.18L632.933 91.2475L633.52 94.6052L632.513 95.212L630.718 84.5775L631.555 84.0729L640.101 90.6396L639.07 91.2605ZM635.514 88.4712L632.92 86.4186C632.589 86.1605 632.208 85.8287 631.778 85.4231C631.918 85.8495 632.043 86.3354 632.153 86.8808L632.745 90.14L635.514 88.4712ZM643.766 88.5904C642.837 89.1502 641.946 89.2992 641.091 89.0374C640.238 88.7694 639.496 88.1123 638.866 87.0662C638.219 85.9928 637.976 85.0081 638.139 84.1121C638.305 83.2137 638.867 82.4764 639.823 81.9002C640.131 81.7144 640.46 81.5617 640.808 81.4423C641.156 81.3228 641.445 81.255 641.675 81.239L641.874 82.2445C641.608 82.288 641.331 82.3588 641.044 82.4571C640.755 82.5514 640.513 82.6574 640.318 82.775C639.014 83.5606 638.864 84.7848 639.866 86.4477C640.341 87.2361 640.863 87.7459 641.434 87.977C642.008 88.2057 642.607 88.1318 643.231 87.7555C643.766 87.4333 644.245 86.9876 644.669 86.4186L645.187 87.2793C644.892 87.7606 644.418 88.1976 643.766 88.5904ZM648.506 84.6411C648.678 84.5376 648.836 84.426 648.982 84.3061C649.126 84.1823 649.236 84.0786 649.314 83.9948L649.762 84.7384C649.687 84.8526 649.555 84.9877 649.367 85.1436C649.186 85.301 649.013 85.4292 648.849 85.5279C647.607 86.2759 646.593 85.9961 645.805 84.6884L643.505 80.8709L642.585 81.4248L642.303 80.9564L642.979 79.9985L642.563 78.3814L643.125 78.0427L644.021 79.5299L645.883 78.408L646.338 79.1633L644.476 80.2852L646.752 84.0618C646.985 84.4482 647.255 84.6896 647.564 84.7859C647.872 84.8823 648.186 84.834 648.506 84.6411ZM652.057 83.4351L651.085 84.0208L647.218 77.6036L648.19 77.0179L652.057 83.4351ZM646.088 75.914C645.954 75.6915 645.911 75.4966 645.959 75.3292C646.005 75.158 646.11 75.023 646.274 74.9242C646.43 74.8301 646.597 74.8016 646.773 74.8388C646.95 74.876 647.104 75.0039 647.236 75.2225C647.368 75.4411 647.41 75.6391 647.363 75.8166C647.313 75.9902 647.21 76.1241 647.054 76.2182C646.89 76.3169 646.722 76.3466 646.549 76.307C646.374 76.2636 646.22 76.1326 646.088 75.914ZM657.72 75.6411C658.35 76.6872 658.58 77.6637 658.408 78.5707C658.234 79.4737 657.682 80.2052 656.753 80.765C656.179 81.1107 655.589 81.283 654.981 81.2818C654.374 81.2806 653.798 81.1012 653.252 80.7434C652.707 80.3857 652.231 79.8692 651.824 79.1939C651.194 78.1478 650.965 77.1764 651.137 76.2796C651.307 75.3789 651.857 74.6487 652.786 74.0889C653.684 73.5479 654.576 73.4172 655.463 73.6969C656.354 73.9743 657.106 74.6223 657.72 75.6411ZM652.831 78.5871C653.325 79.4068 653.865 79.9326 654.452 80.1644C655.038 80.3962 655.65 80.3204 656.286 79.937C656.922 79.5536 657.276 79.0504 657.348 78.4273C657.421 77.798 657.209 77.0716 656.713 76.2479C656.221 75.4321 655.683 74.9134 655.097 74.6918C654.513 74.4639 653.898 74.544 653.254 74.9321C652.618 75.3155 652.264 75.8136 652.191 76.4265C652.119 77.0394 652.332 77.7596 652.831 78.5871ZM665.758 75.1792L663.257 71.028C662.941 70.5049 662.587 70.1863 662.194 70.0722C661.8 69.958 661.35 70.0538 660.843 70.3596C660.171 70.7642 659.789 71.242 659.695 71.7932C659.602 72.3444 659.807 73.0377 660.31 73.873L662.339 77.2397L661.367 77.8253L657.5 71.4081L658.29 70.9318L658.978 71.7149L659.024 71.6866C659.033 71.2505 659.165 70.8384 659.421 70.4502C659.674 70.0582 660.021 69.7293 660.462 69.4635C661.235 68.9977 661.93 68.8347 662.546 68.9742C663.159 69.1098 663.713 69.5874 664.207 70.4072L666.73 74.5936L665.758 75.1792Z" fill="black"/>
<path d="M819.248 83.7616L818.173 83.3194L821.976 74.0769L827.128 76.1967L826.735 77.1513L822.658 75.4737L821.266 78.8559L825.097 80.432L824.705 81.3866L820.874 79.8105L819.248 83.7616ZM828.965 87.7592L829.162 86.6872L829.111 86.6664C828.587 86.9583 828.12 87.1111 827.71 87.1249C827.306 87.1361 826.847 87.036 826.333 86.8245C825.646 86.5418 825.18 86.1429 824.933 85.6276C824.691 85.114 824.705 84.5306 824.973 83.8774C825.549 82.4782 826.97 82.2052 829.235 83.0585L830.427 83.5043L830.604 83.0744C830.827 82.5308 830.874 82.0818 830.744 81.7277C830.62 81.371 830.3 81.0869 829.786 80.8753C829.209 80.6378 828.483 80.546 827.608 80.6001L827.616 79.6646C828.034 79.6196 828.466 79.6276 828.914 79.6887C829.366 79.7516 829.797 79.8671 830.206 80.0353C831.032 80.3751 831.567 80.8099 831.813 81.3395C832.062 81.8709 832.021 82.5412 831.688 83.3504L829.742 88.0791L828.965 87.7592ZM826.898 86.0442C827.552 86.313 828.137 86.3445 828.656 86.1389C829.178 85.935 829.572 85.5106 829.837 84.8658L830.095 84.2399L829.027 83.8524C828.18 83.5386 827.524 83.4213 827.058 83.5005C826.597 83.5772 826.268 83.8579 826.068 84.3426C825.912 84.7219 825.907 85.0574 826.053 85.3491C826.204 85.6426 826.485 85.8743 826.898 86.0442ZM832.96 89.403L831.911 88.9712L835.958 79.1345L837.007 79.5662L832.96 89.403ZM836.235 90.7502L835.185 90.3185L839.232 80.4818L840.282 80.9135L836.235 90.7502ZM839.509 92.0975L838.46 91.6658L841.311 84.7371L842.36 85.1688L839.509 92.0975ZM841.995 82.8231C842.093 82.5828 842.224 82.4322 842.387 82.3712C842.552 82.3059 842.723 82.3097 842.9 82.3826C843.069 82.4519 843.191 82.5686 843.266 82.7327C843.342 82.8968 843.331 83.0968 843.234 83.3329C843.137 83.5689 843.003 83.7207 842.832 83.7885C842.663 83.852 842.494 83.849 842.325 83.7797C842.148 83.7069 842.024 83.5893 841.953 83.4269C841.884 83.2604 841.897 83.0591 841.995 82.8231ZM846.476 94.9637L848.32 90.4816C848.552 89.9168 848.597 89.4425 848.455 89.0585C848.312 88.6746 847.967 88.3699 847.419 88.1445C846.694 87.8463 846.082 87.8238 845.584 88.077C845.085 88.3303 844.651 88.9078 844.28 89.8098L842.784 93.4448L841.735 93.013L844.585 86.0843L845.439 86.4355L845.219 87.454L845.27 87.4748C845.625 87.2218 846.035 87.0824 846.499 87.0565C846.965 87.0263 847.436 87.1092 847.912 87.3052C848.746 87.6485 849.291 88.1092 849.546 88.6871C849.803 89.2609 849.749 89.9903 849.385 90.8754L847.525 95.3955L846.476 94.9637ZM858.209 91.6893L857.936 92.3531L856.59 91.9768C856.647 92.1729 856.673 92.4101 856.667 92.6885C856.662 92.9627 856.599 93.2494 856.476 93.5486C856.196 94.2271 855.742 94.6733 855.112 94.8872C854.482 95.101 853.762 95.0415 852.953 94.7086C852.746 94.6236 852.559 94.527 852.392 94.4187C851.848 94.471 851.503 94.6762 851.355 95.0344C851.277 95.2241 851.297 95.3973 851.415 95.5542C851.534 95.7069 851.784 95.8612 852.163 96.0173L853.389 96.5219C854.14 96.8305 854.65 97.2252 854.92 97.7061C855.195 98.1886 855.208 98.7312 854.96 99.3339C854.645 100.101 854.097 100.558 853.317 100.705C852.535 100.857 851.554 100.69 850.374 100.204C849.468 99.8314 848.838 99.375 848.483 98.835C848.133 98.2967 848.084 97.7198 848.338 97.1045C848.511 96.6831 848.796 96.374 849.192 96.1773C849.589 95.9806 850.054 95.9281 850.588 96.0196C850.444 95.8667 850.345 95.6808 850.292 95.462C850.244 95.2448 850.265 95.0246 850.357 94.8012C850.461 94.5483 850.62 94.3548 850.832 94.2207C851.045 94.0865 851.334 93.9907 851.697 93.9333C851.4 93.6385 851.21 93.2672 851.128 92.8195C851.05 92.3736 851.105 91.9231 851.292 91.4679C851.604 90.7093 852.072 90.2192 852.696 89.9976C853.321 89.7719 854.05 89.8307 854.885 90.174C855.247 90.3231 855.557 90.4996 855.813 90.7036L858.209 91.6893ZM849.354 97.508C849.2 97.8831 849.241 98.2326 849.477 98.5565C849.714 98.8805 850.127 99.1638 850.717 99.4065C851.598 99.7689 852.304 99.9041 852.834 99.812C853.367 99.7258 853.727 99.4572 853.912 99.0063C854.067 98.6312 854.058 98.3222 853.887 98.0793C853.714 97.8406 853.307 97.5895 852.667 97.326L851.409 96.8084C850.933 96.6125 850.515 96.5737 850.156 96.692C849.797 96.8104 849.529 97.0824 849.354 97.508ZM852.34 91.8692C852.14 92.3538 852.126 92.7768 852.298 93.1382C852.47 93.4996 852.8 93.7808 853.289 93.982C854.313 94.4033 855.03 94.1167 855.439 93.122C855.867 92.081 855.563 91.3473 854.526 90.9207C854.033 90.7178 853.599 90.6946 853.224 90.8508C852.849 91.0071 852.555 91.3465 852.34 91.8692ZM866.112 103.042L866.17 99.6292L862.466 98.105L860.118 100.577L859.031 100.129L866.503 92.3521L867.407 92.724L867.224 103.5L866.112 103.042ZM866.233 98.5241L866.337 95.2181C866.347 94.7985 866.386 94.2949 866.456 93.7074C866.197 94.0738 865.881 94.4638 865.509 94.8774L863.243 97.2938L866.233 98.5241ZM871.054 105.223C870.051 104.811 869.4 104.183 869.101 103.341C868.808 102.496 868.894 101.508 869.358 100.379C869.835 99.2199 870.482 98.4388 871.298 98.0355C872.119 97.6339 873.045 97.6456 874.078 98.0704C874.411 98.2073 874.729 98.3802 875.033 98.5888C875.336 98.7974 875.563 98.9892 875.712 99.1642L875.023 99.9229C874.83 99.7348 874.608 99.5549 874.358 99.3832C874.11 99.2073 873.881 99.076 873.67 98.9893C872.263 98.4101 871.19 99.0183 870.451 100.814C870.101 101.665 870.003 102.388 870.157 102.984C870.315 103.581 870.731 104.019 871.406 104.296C871.983 104.534 872.626 104.653 873.336 104.654L872.953 105.583C872.391 105.633 871.758 105.513 871.054 105.223ZM877.049 106.677C877.235 106.754 877.419 106.815 877.602 106.86C877.787 106.902 877.936 106.929 878.049 106.941L877.719 107.744C877.583 107.752 877.396 107.727 877.159 107.669C876.924 107.616 876.718 107.554 876.541 107.481C875.201 106.93 874.821 105.948 875.402 104.536L877.098 100.414L876.105 100.006L876.313 99.5001L877.485 99.4723L878.537 98.175L879.143 98.4247L878.483 100.03L880.493 100.858L880.158 101.673L878.147 100.846L876.47 104.924C876.298 105.341 876.265 105.702 876.371 106.007C876.478 106.312 876.704 106.535 877.049 106.677ZM880.133 108.811L879.084 108.379L881.935 101.451L882.984 101.882L880.133 108.811ZM882.618 99.5366C882.717 99.2963 882.848 99.1457 883.011 99.0847C883.176 99.0194 883.347 99.0232 883.524 99.0961C883.693 99.1654 883.815 99.2821 883.89 99.4462C883.966 99.6103 883.955 99.8103 883.858 100.046C883.76 100.282 883.627 100.434 883.456 100.502C883.287 100.565 883.118 100.563 882.949 100.493C882.772 100.42 882.648 100.303 882.577 100.14C882.508 99.9739 882.521 99.7726 882.618 99.5366ZM889.767 108.716C889.302 109.846 888.655 110.612 887.824 111.014C886.995 111.412 886.079 111.405 885.076 110.992C884.456 110.737 883.966 110.366 883.605 109.877C883.244 109.389 883.045 108.819 883.007 108.168C882.97 107.516 883.101 106.826 883.401 106.097C883.866 104.968 884.509 104.205 885.333 103.81C886.157 103.41 887.071 103.416 888.074 103.829C889.044 104.228 889.68 104.866 889.984 105.745C890.292 106.626 890.22 107.616 889.767 108.716ZM884.488 106.545C884.124 107.43 884.024 108.177 884.187 108.786C884.35 109.395 884.775 109.841 885.462 110.124C886.149 110.406 886.764 110.391 887.307 110.077C887.856 109.761 888.314 109.158 888.68 108.269C889.042 107.388 889.138 106.646 888.967 106.044C888.802 105.439 888.372 104.993 887.676 104.707C886.989 104.425 886.378 104.437 885.843 104.744C885.307 105.051 884.856 105.651 884.488 106.545ZM894.926 114.897L896.77 110.415C897.003 109.85 897.048 109.376 896.905 108.992C896.762 108.608 896.417 108.303 895.869 108.078C895.144 107.78 894.533 107.757 894.034 108.01C893.536 108.264 893.101 108.841 892.73 109.743L891.234 113.378L890.185 112.946L893.036 106.018L893.889 106.369L893.67 107.387L893.72 107.408C894.076 107.155 894.485 107.016 894.949 106.99C895.415 106.96 895.886 107.043 896.362 107.239C897.197 107.582 897.742 108.043 897.997 108.621C898.253 109.194 898.2 109.924 897.835 110.809L895.976 115.329L894.926 114.897Z" fill="black"/>
<path d="M1062.54 132.844V137H1061.37V127.006H1064.12C1065.34 127.006 1066.25 127.241 1066.83 127.71C1067.42 128.179 1067.71 128.886 1067.71 129.829C1067.71 131.151 1067.04 132.044 1065.7 132.509L1068.42 137H1067.04L1064.62 132.844H1062.54ZM1062.54 131.846H1064.13C1064.95 131.846 1065.55 131.684 1065.93 131.36C1066.32 131.032 1066.51 130.542 1066.51 129.891C1066.51 129.23 1066.31 128.754 1065.92 128.462C1065.53 128.17 1064.91 128.024 1064.05 128.024H1062.54V131.846ZM1073.02 137.137C1071.92 137.137 1071.04 136.799 1070.4 136.125C1069.76 135.451 1069.44 134.514 1069.44 133.315C1069.44 132.108 1069.74 131.148 1070.33 130.438C1070.93 129.727 1071.73 129.371 1072.73 129.371C1073.67 129.371 1074.41 129.681 1074.96 130.301C1075.5 130.916 1075.78 131.729 1075.78 132.741V133.459H1070.62C1070.64 134.339 1070.86 135.006 1071.28 135.462C1071.7 135.918 1072.3 136.146 1073.06 136.146C1073.87 136.146 1074.67 135.977 1075.46 135.64V136.651C1075.06 136.825 1074.67 136.948 1074.31 137.021C1073.96 137.098 1073.53 137.137 1073.02 137.137ZM1072.71 130.321C1072.11 130.321 1071.63 130.517 1071.27 130.909C1070.92 131.301 1070.71 131.843 1070.64 132.536H1074.56C1074.56 131.821 1074.4 131.274 1074.08 130.896C1073.76 130.513 1073.31 130.321 1072.71 130.321ZM1082.55 134.956C1082.55 135.653 1082.29 136.191 1081.77 136.569C1081.25 136.948 1080.52 137.137 1079.58 137.137C1078.59 137.137 1077.82 136.979 1077.26 136.665V135.612C1077.62 135.795 1078.01 135.938 1078.42 136.043C1078.83 136.148 1079.23 136.2 1079.61 136.2C1080.2 136.2 1080.66 136.107 1080.98 135.92C1081.3 135.729 1081.46 135.439 1081.46 135.052C1081.46 134.76 1081.33 134.512 1081.08 134.307C1080.82 134.097 1080.33 133.851 1079.6 133.568C1078.9 133.309 1078.4 133.083 1078.11 132.892C1077.82 132.696 1077.6 132.475 1077.45 132.229C1077.31 131.982 1077.24 131.688 1077.24 131.347C1077.24 130.736 1077.49 130.255 1077.99 129.904C1078.48 129.549 1079.16 129.371 1080.03 129.371C1080.84 129.371 1081.62 129.535 1082.39 129.863L1081.99 130.786C1081.24 130.476 1080.56 130.321 1079.95 130.321C1079.41 130.321 1079 130.406 1078.73 130.574C1078.46 130.743 1078.32 130.975 1078.32 131.271C1078.32 131.472 1078.37 131.643 1078.47 131.784C1078.58 131.925 1078.74 132.06 1078.97 132.188C1079.2 132.315 1079.64 132.5 1080.28 132.741C1081.17 133.065 1081.77 133.391 1082.08 133.719C1082.39 134.047 1082.55 134.459 1082.55 134.956ZM1090.87 133.247C1090.87 134.468 1090.56 135.423 1089.95 136.111C1089.33 136.795 1088.48 137.137 1087.4 137.137C1086.73 137.137 1086.13 136.979 1085.61 136.665C1085.09 136.351 1084.69 135.899 1084.41 135.312C1084.13 134.724 1083.99 134.035 1083.99 133.247C1083.99 132.026 1084.29 131.076 1084.9 130.396C1085.51 129.713 1086.36 129.371 1087.45 129.371C1088.49 129.371 1089.33 129.72 1089.94 130.417C1090.56 131.114 1090.87 132.058 1090.87 133.247ZM1085.16 133.247C1085.16 134.204 1085.35 134.933 1085.74 135.435C1086.12 135.936 1086.68 136.187 1087.43 136.187C1088.17 136.187 1088.73 135.938 1089.11 135.441C1089.5 134.94 1089.7 134.209 1089.7 133.247C1089.7 132.295 1089.5 131.572 1089.11 131.08C1088.73 130.583 1088.16 130.335 1087.41 130.335C1086.67 130.335 1086.11 130.579 1085.73 131.066C1085.35 131.554 1085.16 132.281 1085.16 133.247ZM1094 137H1092.87V126.363H1094V137ZM1097.47 129.508V134.368C1097.47 134.979 1097.61 135.435 1097.89 135.735C1098.17 136.036 1098.6 136.187 1099.2 136.187C1099.98 136.187 1100.55 135.972 1100.91 135.544C1101.28 135.116 1101.46 134.416 1101.46 133.445V129.508H1102.59V137H1101.66L1101.49 135.995H1101.43C1101.2 136.364 1100.88 136.647 1100.46 136.843C1100.05 137.039 1099.58 137.137 1099.05 137.137C1098.14 137.137 1097.46 136.92 1097 136.487C1096.55 136.054 1096.33 135.362 1096.33 134.409V129.508H1097.47ZM1107.43 136.2C1107.63 136.2 1107.82 136.187 1108.01 136.159C1108.2 136.127 1108.34 136.095 1108.45 136.063V136.932C1108.33 136.991 1108.15 137.039 1107.91 137.075C1107.67 137.116 1107.46 137.137 1107.26 137.137C1105.81 137.137 1105.09 136.373 1105.09 134.847V130.39H1104.02V129.843L1105.09 129.371L1105.57 127.771H1106.22V129.508H1108.4V130.39H1106.22V134.799C1106.22 135.25 1106.33 135.596 1106.55 135.838C1106.76 136.079 1107.05 136.2 1107.43 136.2ZM1111.09 137H1109.96V129.508H1111.09V137ZM1109.86 127.478C1109.86 127.218 1109.93 127.029 1110.05 126.91C1110.18 126.787 1110.34 126.726 1110.53 126.726C1110.71 126.726 1110.87 126.787 1111 126.91C1111.14 127.033 1111.2 127.222 1111.2 127.478C1111.2 127.733 1111.14 127.924 1111 128.052C1110.87 128.175 1110.71 128.236 1110.53 128.236C1110.34 128.236 1110.18 128.175 1110.05 128.052C1109.93 127.924 1109.86 127.733 1109.86 127.478ZM1119.96 133.247C1119.96 134.468 1119.66 135.423 1119.04 136.111C1118.43 136.795 1117.58 137.137 1116.49 137.137C1115.82 137.137 1115.23 136.979 1114.71 136.665C1114.19 136.351 1113.79 135.899 1113.5 135.312C1113.22 134.724 1113.08 134.035 1113.08 133.247C1113.08 132.026 1113.39 131.076 1114 130.396C1114.61 129.713 1115.46 129.371 1116.54 129.371C1117.59 129.371 1118.42 129.72 1119.04 130.417C1119.65 131.114 1119.96 132.058 1119.96 133.247ZM1114.26 133.247C1114.26 134.204 1114.45 134.933 1114.83 135.435C1115.21 135.936 1115.78 136.187 1116.52 136.187C1117.26 136.187 1117.83 135.938 1118.21 135.441C1118.6 134.94 1118.79 134.209 1118.79 133.247C1118.79 132.295 1118.6 131.572 1118.21 131.08C1117.83 130.583 1117.26 130.335 1116.51 130.335C1115.76 130.335 1115.2 130.579 1114.82 131.066C1114.45 131.554 1114.26 132.281 1114.26 133.247ZM1127.09 137V132.153C1127.09 131.543 1126.95 131.087 1126.67 130.786C1126.39 130.485 1125.96 130.335 1125.37 130.335C1124.58 130.335 1124.01 130.547 1123.64 130.971C1123.28 131.395 1123.1 132.094 1123.1 133.069V137H1121.96V129.508H1122.88L1123.07 130.533H1123.12C1123.36 130.164 1123.68 129.879 1124.1 129.679C1124.52 129.474 1124.99 129.371 1125.5 129.371C1126.4 129.371 1127.08 129.59 1127.54 130.027C1127.99 130.46 1128.22 131.155 1128.22 132.112V137H1127.09Z" fill="black"/>
<circle cx="344" cy="154" r="7" fill="url(#paint0_linear)"/>
<circle cx="1095" cy="154" r="7" fill="url(#paint1_linear)"/>
<defs>
<linearGradient id="paint0_linear" x1="344" y1="147" x2="344" y2="161" gradientUnits="userSpaceOnUse">
<stop stop-color="#303030"/>
<stop offset="1"/>
</linearGradient>
<linearGradient id="paint1_linear" x1="1095" y1="147" x2="1095" y2="161" gradientUnits="userSpaceOnUse">
<stop stop-color="#303030"/>
<stop offset="1"/>
</linearGradient>
</defs>
</svg>
