<svg width="1440" height="576" viewBox="0 0 1440 576" fill="none" xmlns="http://www.w3.org/2000/svg">
<rect width="1440" height="576" fill="white"/>
<path d="M344 392H568.309L728 302L933.894 392H1095" stroke="black" stroke-width="3"/>
<path d="M316.945 375H311.374V365.006H316.945V366.038H312.536V369.258H316.679V370.283H312.536V373.961H316.945V375ZM320.801 371.165L318.196 367.508H319.488L321.464 370.379L323.433 367.508H324.711L322.106 371.165L324.848 375H323.562L321.464 371.965L319.345 375H318.06L320.801 371.165ZM329.824 375.137C329.337 375.137 328.89 375.048 328.484 374.87C328.083 374.688 327.746 374.41 327.473 374.036H327.391C327.445 374.474 327.473 374.888 327.473 375.28V378.363H326.338V367.508H327.261L327.418 368.533H327.473C327.764 368.123 328.104 367.827 328.491 367.645C328.879 367.462 329.323 367.371 329.824 367.371C330.818 367.371 331.583 367.711 332.121 368.39C332.663 369.069 332.935 370.021 332.935 371.247C332.935 372.478 332.659 373.435 332.107 374.118C331.561 374.797 330.799 375.137 329.824 375.137ZM329.66 368.335C328.895 368.335 328.341 368.547 327.999 368.971C327.657 369.395 327.482 370.069 327.473 370.994V371.247C327.473 372.3 327.648 373.054 327.999 373.51C328.35 373.961 328.913 374.187 329.688 374.187C330.335 374.187 330.84 373.924 331.205 373.4C331.574 372.876 331.759 372.154 331.759 371.233C331.759 370.299 331.574 369.584 331.205 369.087C330.84 368.586 330.326 368.335 329.66 368.335ZM341.391 371.247C341.391 372.468 341.083 373.423 340.468 374.111C339.853 374.795 339.003 375.137 337.918 375.137C337.248 375.137 336.653 374.979 336.134 374.665C335.614 374.351 335.213 373.899 334.931 373.312C334.648 372.724 334.507 372.035 334.507 371.247C334.507 370.026 334.812 369.076 335.423 368.396C336.034 367.713 336.881 367.371 337.966 367.371C339.014 367.371 339.846 367.72 340.461 368.417C341.081 369.114 341.391 370.058 341.391 371.247ZM335.683 371.247C335.683 372.204 335.874 372.933 336.257 373.435C336.64 373.936 337.202 374.187 337.945 374.187C338.688 374.187 339.251 373.938 339.634 373.441C340.021 372.94 340.215 372.209 340.215 371.247C340.215 370.295 340.021 369.572 339.634 369.08C339.251 368.583 338.684 368.335 337.932 368.335C337.189 368.335 336.628 368.579 336.25 369.066C335.872 369.554 335.683 370.281 335.683 371.247ZM348.22 372.956C348.22 373.653 347.96 374.191 347.44 374.569C346.921 374.948 346.192 375.137 345.253 375.137C344.259 375.137 343.485 374.979 342.929 374.665V373.612C343.289 373.795 343.674 373.938 344.084 374.043C344.499 374.148 344.897 374.2 345.28 374.2C345.873 374.2 346.328 374.107 346.647 373.92C346.966 373.729 347.126 373.439 347.126 373.052C347.126 372.76 346.998 372.512 346.743 372.307C346.493 372.097 346 371.851 345.267 371.568C344.569 371.309 344.073 371.083 343.776 370.892C343.485 370.696 343.266 370.475 343.12 370.229C342.979 369.982 342.908 369.688 342.908 369.347C342.908 368.736 343.157 368.255 343.653 367.904C344.15 367.549 344.831 367.371 345.697 367.371C346.504 367.371 347.292 367.535 348.062 367.863L347.659 368.786C346.907 368.476 346.226 368.321 345.615 368.321C345.077 368.321 344.672 368.406 344.398 368.574C344.125 368.743 343.988 368.975 343.988 369.271C343.988 369.472 344.038 369.643 344.139 369.784C344.243 369.925 344.41 370.06 344.638 370.188C344.866 370.315 345.303 370.5 345.95 370.741C346.839 371.065 347.438 371.391 347.748 371.719C348.062 372.047 348.22 372.459 348.22 372.956ZM351.207 375H350.072V367.508H351.207V375ZM349.977 365.478C349.977 365.218 350.04 365.029 350.168 364.91C350.296 364.787 350.455 364.726 350.646 364.726C350.829 364.726 350.986 364.787 351.118 364.91C351.25 365.033 351.316 365.222 351.316 365.478C351.316 365.733 351.25 365.924 351.118 366.052C350.986 366.175 350.829 366.236 350.646 366.236C350.455 366.236 350.296 366.175 350.168 366.052C350.04 365.924 349.977 365.733 349.977 365.478ZM356.033 374.2C356.234 374.2 356.427 374.187 356.614 374.159C356.801 374.127 356.949 374.095 357.059 374.063V374.932C356.936 374.991 356.753 375.039 356.512 375.075C356.275 375.116 356.061 375.137 355.869 375.137C354.42 375.137 353.695 374.373 353.695 372.847V368.39H352.622V367.843L353.695 367.371L354.174 365.771H354.83V367.508H357.004V368.39H354.83V372.799C354.83 373.25 354.937 373.596 355.151 373.838C355.366 374.079 355.66 374.2 356.033 374.2ZM359.697 375H358.562V367.508H359.697V375ZM358.467 365.478C358.467 365.218 358.531 365.029 358.658 364.91C358.786 364.787 358.945 364.726 359.137 364.726C359.319 364.726 359.476 364.787 359.608 364.91C359.741 365.033 359.807 365.222 359.807 365.478C359.807 365.733 359.741 365.924 359.608 366.052C359.476 366.175 359.319 366.236 359.137 366.236C358.945 366.236 358.786 366.175 358.658 366.052C358.531 365.924 358.467 365.733 358.467 365.478ZM368.57 371.247C368.57 372.468 368.263 373.423 367.647 374.111C367.032 374.795 366.182 375.137 365.098 375.137C364.428 375.137 363.833 374.979 363.313 374.665C362.794 374.351 362.393 373.899 362.11 373.312C361.828 372.724 361.687 372.035 361.687 371.247C361.687 370.026 361.992 369.076 362.603 368.396C363.213 367.713 364.061 367.371 365.146 367.371C366.194 367.371 367.025 367.72 367.641 368.417C368.26 369.114 368.57 370.058 368.57 371.247ZM362.862 371.247C362.862 372.204 363.054 372.933 363.437 373.435C363.819 373.936 364.382 374.187 365.125 374.187C365.868 374.187 366.431 373.938 366.813 373.441C367.201 372.94 367.395 372.209 367.395 371.247C367.395 370.295 367.201 369.572 366.813 369.08C366.431 368.583 365.863 368.335 365.111 368.335C364.368 368.335 363.808 368.579 363.43 369.066C363.051 369.554 362.862 370.281 362.862 371.247ZM375.693 375V370.153C375.693 369.543 375.554 369.087 375.276 368.786C374.998 368.485 374.563 368.335 373.971 368.335C373.187 368.335 372.613 368.547 372.248 368.971C371.883 369.395 371.701 370.094 371.701 371.069V375H370.566V367.508H371.489L371.674 368.533H371.729C371.961 368.164 372.287 367.879 372.706 367.679C373.125 367.474 373.592 367.371 374.107 367.371C375.01 367.371 375.689 367.59 376.145 368.027C376.6 368.46 376.828 369.155 376.828 370.112V375H375.693Z" fill="black"/>
<path d="M711.653 278.901C710.555 278.901 709.687 279.268 709.049 280.002C708.415 280.731 708.099 281.731 708.099 283.003C708.099 284.311 708.404 285.323 709.015 286.038C709.63 286.749 710.505 287.104 711.64 287.104C712.337 287.104 713.132 286.979 714.025 286.729V287.747C713.333 288.007 712.478 288.137 711.462 288.137C709.99 288.137 708.853 287.69 708.051 286.797C707.253 285.904 706.854 284.634 706.854 282.989C706.854 281.959 707.046 281.057 707.429 280.282C707.816 279.507 708.372 278.91 709.097 278.491C709.826 278.072 710.683 277.862 711.667 277.862C712.715 277.862 713.631 278.054 714.415 278.437L713.923 279.435C713.166 279.079 712.41 278.901 711.653 278.901ZM717.17 288H716.035V277.363H717.17V288ZM720.711 288H719.576V280.508H720.711V288ZM719.48 278.478C719.48 278.218 719.544 278.029 719.672 277.91C719.799 277.787 719.959 277.726 720.15 277.726C720.333 277.726 720.49 277.787 720.622 277.91C720.754 278.033 720.82 278.222 720.82 278.478C720.82 278.733 720.754 278.924 720.622 279.052C720.49 279.175 720.333 279.236 720.15 279.236C719.959 279.236 719.799 279.175 719.672 279.052C719.544 278.924 719.48 278.733 719.48 278.478ZM732.667 288V283.126C732.667 282.529 732.539 282.082 732.284 281.786C732.029 281.485 731.632 281.335 731.095 281.335C730.388 281.335 729.867 281.538 729.529 281.943C729.192 282.349 729.023 282.973 729.023 283.816V288H727.889V283.126C727.889 282.529 727.761 282.082 727.506 281.786C727.251 281.485 726.852 281.335 726.31 281.335C725.599 281.335 725.077 281.549 724.744 281.978C724.416 282.401 724.252 283.099 724.252 284.069V288H723.117V280.508H724.04L724.225 281.533H724.279C724.493 281.169 724.794 280.884 725.182 280.679C725.574 280.474 726.011 280.371 726.494 280.371C727.665 280.371 728.431 280.795 728.791 281.643H728.846C729.069 281.251 729.393 280.941 729.816 280.713C730.24 280.485 730.723 280.371 731.266 280.371C732.113 280.371 732.747 280.59 733.166 281.027C733.59 281.46 733.802 282.155 733.802 283.112V288H732.667ZM740.754 288L740.528 286.934H740.474C740.1 287.403 739.726 287.722 739.353 287.891C738.983 288.055 738.521 288.137 737.965 288.137C737.222 288.137 736.639 287.945 736.215 287.562C735.796 287.18 735.586 286.635 735.586 285.929C735.586 284.416 736.796 283.623 739.216 283.55L740.487 283.509V283.044C740.487 282.456 740.36 282.023 740.104 281.745C739.854 281.463 739.451 281.321 738.895 281.321C738.27 281.321 737.564 281.513 736.775 281.896L736.427 281.027C736.796 280.827 737.199 280.67 737.637 280.556C738.079 280.442 738.521 280.385 738.963 280.385C739.856 280.385 740.517 280.583 740.945 280.979C741.378 281.376 741.595 282.012 741.595 282.887V288H740.754ZM738.19 287.2C738.897 287.2 739.451 287.007 739.852 286.619C740.257 286.232 740.46 285.689 740.46 284.992V284.315L739.325 284.363C738.423 284.395 737.771 284.536 737.37 284.787C736.974 285.033 736.775 285.418 736.775 285.942C736.775 286.353 736.898 286.665 737.145 286.879C737.395 287.093 737.744 287.2 738.19 287.2ZM745.744 284.165L743.14 280.508H744.432L746.407 283.379L748.376 280.508H749.654L747.05 284.165L749.791 288H748.506L746.407 284.965L744.288 288H743.003L745.744 284.165Z" fill="black"/>
<path d="M596.285 350.189L598.43 353.749L597.435 354.349L592.277 345.789L594.624 344.374C595.675 343.741 596.57 343.476 597.312 343.577C598.058 343.675 598.675 344.129 599.161 344.937C599.844 346.069 599.731 347.179 598.823 348.269L603.466 350.715L602.289 351.424L598.071 349.113L596.285 350.189ZM595.77 349.335L597.134 348.513C597.837 348.089 598.268 347.64 598.429 347.165C598.588 346.687 598.499 346.168 598.163 345.61C597.822 345.044 597.408 344.737 596.922 344.69C596.439 344.64 595.829 344.837 595.092 345.282L593.798 346.062L595.77 349.335ZM605.673 349.385L604.701 349.971L600.834 343.554L601.806 342.968L605.673 349.385ZM599.704 341.864C599.57 341.641 599.527 341.447 599.575 341.279C599.621 341.108 599.726 340.973 599.89 340.874C600.046 340.78 600.213 340.752 600.389 340.789C600.566 340.826 600.72 340.954 600.852 341.172C600.984 341.391 601.026 341.589 600.978 341.767C600.929 341.94 600.826 342.074 600.67 342.168C600.506 342.267 600.337 342.297 600.165 342.257C599.989 342.214 599.836 342.083 599.704 341.864ZM610.819 343.898C611.178 344.495 611.233 345.09 610.984 345.682C610.734 346.274 610.207 346.813 609.403 347.297C608.552 347.81 607.807 348.075 607.169 348.093L606.625 347.191C607.028 347.161 607.432 347.085 607.837 346.964C608.246 346.839 608.615 346.678 608.943 346.481C609.45 346.175 609.793 345.86 609.969 345.535C610.144 345.207 610.131 344.876 609.931 344.545C609.781 344.295 609.543 344.148 609.219 344.104C608.896 344.054 608.347 344.097 607.573 344.234C606.842 344.371 606.3 344.434 605.947 344.423C605.596 344.406 605.295 344.329 605.043 344.194C604.795 344.056 604.583 343.841 604.406 343.548C604.091 343.025 604.056 342.485 604.3 341.928C604.542 341.367 605.034 340.863 605.775 340.416C606.466 340 607.226 339.734 608.055 339.617L608.186 340.616C607.382 340.738 606.719 340.957 606.196 341.273C605.735 341.55 605.431 341.832 605.284 342.117C605.137 342.403 605.14 342.672 605.293 342.926C605.396 343.098 605.527 343.218 605.686 343.288C605.849 343.354 606.061 343.384 606.322 343.375C606.583 343.367 607.053 343.299 607.732 343.172C608.66 342.991 609.341 342.961 609.776 343.082C610.215 343.2 610.562 343.473 610.819 343.898ZM614.432 344.107L613.46 344.693L609.593 338.275L610.565 337.69L614.432 344.107ZM608.463 336.586C608.329 336.363 608.286 336.168 608.335 336.001C608.38 335.83 608.485 335.695 608.649 335.596C608.805 335.502 608.972 335.473 609.148 335.511C609.325 335.548 609.479 335.676 609.611 335.894C609.743 336.113 609.785 336.311 609.738 336.488C609.688 336.662 609.585 336.796 609.429 336.89C609.265 336.989 609.097 337.018 608.924 336.979C608.749 336.935 608.595 336.804 608.463 336.586ZM620.884 340.219L618.383 336.068C618.068 335.545 617.714 335.226 617.32 335.112C616.927 334.998 616.476 335.094 615.969 335.399C615.298 335.804 614.915 336.282 614.822 336.833C614.728 337.384 614.933 338.077 615.436 338.913L617.465 342.279L616.493 342.865L612.626 336.448L613.417 335.972L614.104 336.755L614.151 336.726C614.159 336.29 614.291 335.878 614.547 335.49C614.8 335.098 615.148 334.769 615.589 334.503C616.362 334.037 617.056 333.874 617.672 334.014C618.286 334.149 618.84 334.627 619.334 335.447L621.856 339.633L620.884 340.219ZM625.244 328.845L625.614 329.459L624.511 330.316C624.702 330.387 624.908 330.508 625.128 330.678C625.345 330.845 625.538 331.067 625.705 331.344C626.083 331.973 626.171 332.604 625.967 333.237C625.764 333.871 625.287 334.413 624.538 334.865C624.347 334.98 624.158 335.073 623.971 335.143C623.689 335.611 623.648 336.01 623.848 336.342C623.954 336.518 624.105 336.605 624.301 336.604C624.495 336.599 624.767 336.491 625.119 336.279L626.254 335.594C626.949 335.176 627.57 335.001 628.118 335.07C628.669 335.137 629.112 335.45 629.449 336.008C629.877 336.718 629.918 337.431 629.571 338.145C629.227 338.863 628.509 339.551 627.416 340.21C626.576 340.716 625.834 340.95 625.189 340.913C624.549 340.874 624.056 340.569 623.713 339.999C623.478 339.609 623.399 339.196 623.477 338.76C623.555 338.325 623.79 337.92 624.182 337.546C623.973 337.57 623.765 337.539 623.558 337.451C623.355 337.36 623.191 337.212 623.066 337.005C622.925 336.771 622.864 336.528 622.883 336.277C622.902 336.026 622.997 335.738 623.167 335.411C622.753 335.475 622.342 335.406 621.934 335.205C621.529 335.002 621.2 334.689 620.946 334.268C620.522 333.565 620.408 332.898 620.601 332.265C620.792 331.628 621.274 331.077 622.047 330.612C622.383 330.409 622.709 330.266 623.025 330.182L625.244 328.845ZM624.643 339.423C624.852 339.77 625.157 339.945 625.558 339.949C625.959 339.952 626.433 339.789 626.979 339.459C627.795 338.968 628.324 338.481 628.566 338C628.815 337.521 628.813 337.072 628.561 336.655C628.352 336.307 628.099 336.13 627.802 336.123C627.507 336.119 627.063 336.296 626.47 336.654L625.305 337.356C624.864 337.622 624.584 337.934 624.465 338.293C624.346 338.652 624.405 339.029 624.643 339.423ZM621.892 333.666C622.162 334.115 622.494 334.378 622.886 334.455C623.279 334.533 623.702 334.435 624.154 334.162C625.103 333.591 625.3 332.844 624.745 331.923C624.164 330.959 623.393 330.766 622.433 331.345C621.976 331.62 621.699 331.955 621.601 332.349C621.503 332.743 621.6 333.182 621.892 333.666ZM639.07 329.261L636.364 327.18L632.933 329.247L633.52 332.605L632.513 333.212L630.718 322.577L631.555 322.073L640.101 328.64L639.07 329.261ZM635.514 326.471L632.92 324.419C632.589 324.161 632.208 323.829 631.778 323.423C631.918 323.85 632.043 324.335 632.153 324.881L632.745 328.14L635.514 326.471ZM643.766 326.59C642.837 327.15 641.946 327.299 641.091 327.037C640.238 326.769 639.496 326.112 638.866 325.066C638.219 323.993 637.976 323.008 638.139 322.112C638.305 321.214 638.867 320.476 639.823 319.9C640.131 319.714 640.46 319.562 640.808 319.442C641.156 319.323 641.445 319.255 641.675 319.239L641.874 320.244C641.608 320.288 641.331 320.359 641.044 320.457C640.755 320.551 640.513 320.657 640.318 320.775C639.014 321.561 638.864 322.785 639.866 324.448C640.341 325.236 640.863 325.746 641.434 325.977C642.008 326.206 642.607 326.132 643.231 325.756C643.766 325.433 644.245 324.988 644.669 324.419L645.187 325.279C644.892 325.761 644.418 326.198 643.766 326.59ZM648.506 322.641C648.678 322.538 648.836 322.426 648.982 322.306C649.126 322.182 649.236 322.079 649.314 321.995L649.762 322.738C649.687 322.853 649.555 322.988 649.367 323.144C649.186 323.301 649.013 323.429 648.849 323.528C647.607 324.276 646.593 323.996 645.805 322.688L643.505 318.871L642.585 319.425L642.303 318.956L642.979 317.999L642.563 316.381L643.125 316.043L644.021 317.53L645.883 316.408L646.338 317.163L644.476 318.285L646.752 322.062C646.985 322.448 647.255 322.69 647.564 322.786C647.872 322.882 648.186 322.834 648.506 322.641ZM652.057 321.435L651.085 322.021L647.218 315.604L648.19 315.018L652.057 321.435ZM646.088 313.914C645.954 313.691 645.911 313.497 645.959 313.329C646.005 313.158 646.11 313.023 646.274 312.924C646.43 312.83 646.597 312.802 646.773 312.839C646.95 312.876 647.104 313.004 647.236 313.222C647.368 313.441 647.41 313.639 647.363 313.817C647.313 313.99 647.21 314.124 647.054 314.218C646.89 314.317 646.722 314.347 646.549 314.307C646.374 314.264 646.22 314.133 646.088 313.914ZM657.72 313.641C658.35 314.687 658.58 315.664 658.408 316.571C658.234 317.474 657.682 318.205 656.753 318.765C656.179 319.111 655.589 319.283 654.981 319.282C654.374 319.281 653.798 319.101 653.252 318.743C652.707 318.386 652.231 317.869 651.824 317.194C651.194 316.148 650.965 315.176 651.137 314.28C651.307 313.379 651.857 312.649 652.786 312.089C653.684 311.548 654.576 311.417 655.463 311.697C656.354 311.974 657.106 312.622 657.72 313.641ZM652.831 316.587C653.325 317.407 653.865 317.933 654.452 318.164C655.038 318.396 655.65 318.32 656.286 317.937C656.922 317.554 657.276 317.05 657.348 316.427C657.421 315.798 657.209 315.072 656.713 314.248C656.221 313.432 655.683 312.913 655.097 312.692C654.513 312.464 653.898 312.544 653.254 312.932C652.618 313.315 652.264 313.814 652.191 314.426C652.119 315.039 652.332 315.76 652.831 316.587ZM665.758 313.179L663.257 309.028C662.941 308.505 662.587 308.186 662.194 308.072C661.8 307.958 661.35 308.054 660.843 308.36C660.171 308.764 659.789 309.242 659.695 309.793C659.602 310.344 659.807 311.038 660.31 311.873L662.339 315.24L661.367 315.825L657.5 309.408L658.29 308.932L658.978 309.715L659.024 309.687C659.033 309.25 659.165 308.838 659.421 308.45C659.674 308.058 660.021 307.729 660.462 307.463C661.235 306.998 661.93 306.835 662.546 306.974C663.159 307.11 663.713 307.587 664.207 308.407L666.73 312.594L665.758 313.179Z" fill="black"/>
<path d="M819.248 321.762L818.173 321.319L821.976 312.077L827.128 314.197L826.735 315.151L822.658 313.474L821.266 316.856L825.097 318.432L824.705 319.387L820.874 317.81L819.248 321.762ZM828.965 325.759L829.162 324.687L829.111 324.666C828.587 324.958 828.12 325.111 827.71 325.125C827.306 325.136 826.847 325.036 826.333 324.824C825.646 324.542 825.18 324.143 824.933 323.628C824.691 323.114 824.705 322.531 824.973 321.877C825.549 320.478 826.97 320.205 829.235 321.058L830.427 321.504L830.604 321.074C830.827 320.531 830.874 320.082 830.744 319.728C830.62 319.371 830.3 319.087 829.786 318.875C829.209 318.638 828.483 318.546 827.608 318.6L827.616 317.665C828.034 317.62 828.466 317.628 828.914 317.689C829.366 317.752 829.797 317.867 830.206 318.035C831.032 318.375 831.567 318.81 831.813 319.34C832.062 319.871 832.021 320.541 831.688 321.35L829.742 326.079L828.965 325.759ZM826.898 324.044C827.552 324.313 828.137 324.345 828.656 324.139C829.178 323.935 829.572 323.511 829.837 322.866L830.095 322.24L829.027 321.852C828.18 321.539 827.524 321.421 827.058 321.5C826.597 321.577 826.268 321.858 826.068 322.343C825.912 322.722 825.907 323.057 826.053 323.349C826.204 323.643 826.485 323.874 826.898 324.044ZM832.96 327.403L831.911 326.971L835.958 317.134L837.007 317.566L832.96 327.403ZM836.235 328.75L835.185 328.318L839.232 318.482L840.282 318.914L836.235 328.75ZM839.509 330.098L838.46 329.666L841.311 322.737L842.36 323.169L839.509 330.098ZM841.995 320.823C842.093 320.583 842.224 320.432 842.387 320.371C842.552 320.306 842.723 320.31 842.9 320.383C843.069 320.452 843.191 320.569 843.266 320.733C843.342 320.897 843.331 321.097 843.234 321.333C843.137 321.569 843.003 321.721 842.832 321.788C842.663 321.852 842.494 321.849 842.325 321.78C842.148 321.707 842.024 321.589 841.953 321.427C841.884 321.26 841.897 321.059 841.995 320.823ZM846.476 332.964L848.32 328.482C848.552 327.917 848.597 327.442 848.455 327.059C848.312 326.675 847.967 326.37 847.419 326.145C846.694 325.846 846.082 325.824 845.584 326.077C845.085 326.33 844.651 326.908 844.28 327.81L842.784 331.445L841.735 331.013L844.585 324.084L845.439 324.435L845.219 325.454L845.27 325.475C845.625 325.222 846.035 325.082 846.499 325.056C846.965 325.026 847.436 325.109 847.912 325.305C848.746 325.648 849.291 326.109 849.546 326.687C849.803 327.261 849.749 327.99 849.385 328.875L847.525 333.395L846.476 332.964ZM858.209 329.689L857.936 330.353L856.59 329.977C856.647 330.173 856.673 330.41 856.667 330.688C856.662 330.963 856.599 331.249 856.476 331.549C856.196 332.227 855.742 332.673 855.112 332.887C854.482 333.101 853.762 333.042 852.953 332.709C852.746 332.624 852.559 332.527 852.392 332.419C851.848 332.471 851.503 332.676 851.355 333.034C851.277 333.224 851.297 333.397 851.415 333.554C851.534 333.707 851.784 333.861 852.163 334.017L853.389 334.522C854.14 334.831 854.65 335.225 854.92 335.706C855.195 336.189 855.208 336.731 854.96 337.334C854.645 338.101 854.097 338.558 853.317 338.705C852.535 338.857 851.554 338.69 850.374 338.204C849.468 337.831 848.838 337.375 848.483 336.835C848.133 336.297 848.084 335.72 848.338 335.105C848.511 334.683 848.796 334.374 849.192 334.177C849.589 333.981 850.054 333.928 850.588 334.02C850.444 333.867 850.345 333.681 850.292 333.462C850.244 333.245 850.265 333.025 850.357 332.801C850.461 332.548 850.62 332.355 850.832 332.221C851.045 332.086 851.334 331.991 851.697 331.933C851.4 331.638 851.21 331.267 851.128 330.82C851.05 330.374 851.105 329.923 851.292 329.468C851.604 328.709 852.072 328.219 852.696 327.998C853.321 327.772 854.05 327.831 854.885 328.174C855.247 328.323 855.557 328.5 855.813 328.704L858.209 329.689ZM849.354 335.508C849.2 335.883 849.241 336.233 849.477 336.557C849.714 336.88 850.127 337.164 850.717 337.407C851.598 337.769 852.304 337.904 852.834 337.812C853.367 337.726 853.727 337.457 853.912 337.006C854.067 336.631 854.058 336.322 853.887 336.079C853.714 335.841 853.307 335.59 852.667 335.326L851.409 334.808C850.933 334.612 850.515 334.574 850.156 334.692C849.797 334.81 849.529 335.082 849.354 335.508ZM852.34 329.869C852.14 330.354 852.126 330.777 852.298 331.138C852.47 331.5 852.8 331.781 853.289 331.982C854.313 332.403 855.03 332.117 855.439 331.122C855.867 330.081 855.563 329.347 854.526 328.921C854.033 328.718 853.599 328.695 853.224 328.851C852.849 329.007 852.555 329.347 852.34 329.869ZM866.112 341.042L866.17 337.629L862.466 336.105L860.118 338.577L859.031 338.129L866.503 330.352L867.407 330.724L867.224 341.5L866.112 341.042ZM866.233 336.524L866.337 333.218C866.347 332.798 866.386 332.295 866.456 331.707C866.197 332.074 865.881 332.464 865.509 332.877L863.243 335.294L866.233 336.524ZM871.054 343.223C870.051 342.811 869.4 342.183 869.101 341.341C868.808 340.496 868.894 339.508 869.358 338.379C869.835 337.22 870.482 336.439 871.298 336.035C872.119 335.634 873.045 335.646 874.078 336.07C874.411 336.207 874.729 336.38 875.033 336.589C875.336 336.797 875.563 336.989 875.712 337.164L875.023 337.923C874.83 337.735 874.608 337.555 874.358 337.383C874.11 337.207 873.881 337.076 873.67 336.989C872.263 336.41 871.19 337.018 870.451 338.814C870.101 339.665 870.003 340.388 870.157 340.984C870.315 341.581 870.731 342.019 871.406 342.296C871.983 342.534 872.626 342.653 873.336 342.654L872.953 343.583C872.391 343.633 871.758 343.513 871.054 343.223ZM877.049 344.677C877.235 344.754 877.419 344.815 877.602 344.86C877.787 344.902 877.936 344.929 878.049 344.941L877.719 345.744C877.583 345.752 877.396 345.727 877.159 345.669C876.924 345.616 876.718 345.554 876.541 345.481C875.201 344.93 874.821 343.948 875.402 342.536L877.098 338.414L876.105 338.006L876.313 337.5L877.485 337.472L878.537 336.175L879.143 336.425L878.483 338.03L880.493 338.858L880.158 339.673L878.147 338.846L876.47 342.924C876.298 343.341 876.265 343.702 876.371 344.007C876.478 344.312 876.704 344.535 877.049 344.677ZM880.133 346.811L879.084 346.379L881.935 339.451L882.984 339.882L880.133 346.811ZM882.618 337.537C882.717 337.296 882.848 337.146 883.011 337.085C883.176 337.019 883.347 337.023 883.524 337.096C883.693 337.165 883.815 337.282 883.89 337.446C883.966 337.61 883.955 337.81 883.858 338.046C883.76 338.282 883.627 338.434 883.456 338.502C883.287 338.565 883.118 338.563 882.949 338.493C882.772 338.42 882.648 338.303 882.577 338.14C882.508 337.974 882.521 337.773 882.618 337.537ZM889.767 346.716C889.302 347.846 888.655 348.612 887.824 349.014C886.995 349.412 886.079 349.405 885.076 348.992C884.456 348.737 883.966 348.366 883.605 347.877C883.244 347.389 883.045 346.819 883.007 346.168C882.97 345.516 883.101 344.826 883.401 344.097C883.866 342.968 884.509 342.205 885.333 341.81C886.157 341.41 887.071 341.416 888.074 341.829C889.044 342.228 889.68 342.866 889.984 343.745C890.292 344.626 890.22 345.616 889.767 346.716ZM884.488 344.545C884.124 345.43 884.024 346.177 884.187 346.786C884.35 347.395 884.775 347.841 885.462 348.124C886.149 348.406 886.764 348.391 887.307 348.077C887.856 347.761 888.314 347.158 888.68 346.269C889.042 345.388 889.138 344.646 888.967 344.044C888.802 343.439 888.372 342.993 887.676 342.707C886.989 342.425 886.378 342.437 885.843 342.744C885.307 343.051 884.856 343.651 884.488 344.545ZM894.926 352.897L896.77 348.415C897.003 347.85 897.048 347.376 896.905 346.992C896.762 346.608 896.417 346.303 895.869 346.078C895.144 345.78 894.533 345.757 894.034 346.01C893.536 346.264 893.101 346.841 892.73 347.743L891.234 351.378L890.185 350.946L893.036 344.018L893.889 344.369L893.67 345.387L893.72 345.408C894.076 345.155 894.485 345.016 894.949 344.99C895.415 344.96 895.886 345.043 896.362 345.239C897.197 345.582 897.742 346.043 897.997 346.621C898.253 347.194 898.2 347.924 897.835 348.809L895.976 353.329L894.926 352.897Z" fill="black"/>
<path d="M1062.54 370.844V375H1061.37V365.006H1064.12C1065.34 365.006 1066.25 365.241 1066.83 365.71C1067.42 366.179 1067.71 366.886 1067.71 367.829C1067.71 369.151 1067.04 370.044 1065.7 370.509L1068.42 375H1067.04L1064.62 370.844H1062.54ZM1062.54 369.846H1064.13C1064.95 369.846 1065.55 369.684 1065.93 369.36C1066.32 369.032 1066.51 368.542 1066.51 367.891C1066.51 367.23 1066.31 366.754 1065.92 366.462C1065.53 366.17 1064.91 366.024 1064.05 366.024H1062.54V369.846ZM1073.02 375.137C1071.92 375.137 1071.04 374.799 1070.4 374.125C1069.76 373.451 1069.44 372.514 1069.44 371.315C1069.44 370.108 1069.74 369.148 1070.33 368.438C1070.93 367.727 1071.73 367.371 1072.73 367.371C1073.67 367.371 1074.41 367.681 1074.96 368.301C1075.5 368.916 1075.78 369.729 1075.78 370.741V371.459H1070.62C1070.64 372.339 1070.86 373.006 1071.28 373.462C1071.7 373.918 1072.3 374.146 1073.06 374.146C1073.87 374.146 1074.67 373.977 1075.46 373.64V374.651C1075.06 374.825 1074.67 374.948 1074.31 375.021C1073.96 375.098 1073.53 375.137 1073.02 375.137ZM1072.71 368.321C1072.11 368.321 1071.63 368.517 1071.27 368.909C1070.92 369.301 1070.71 369.843 1070.64 370.536H1074.56C1074.56 369.821 1074.4 369.274 1074.08 368.896C1073.76 368.513 1073.31 368.321 1072.71 368.321ZM1082.55 372.956C1082.55 373.653 1082.29 374.191 1081.77 374.569C1081.25 374.948 1080.52 375.137 1079.58 375.137C1078.59 375.137 1077.82 374.979 1077.26 374.665V373.612C1077.62 373.795 1078.01 373.938 1078.42 374.043C1078.83 374.148 1079.23 374.2 1079.61 374.2C1080.2 374.2 1080.66 374.107 1080.98 373.92C1081.3 373.729 1081.46 373.439 1081.46 373.052C1081.46 372.76 1081.33 372.512 1081.08 372.307C1080.82 372.097 1080.33 371.851 1079.6 371.568C1078.9 371.309 1078.4 371.083 1078.11 370.892C1077.82 370.696 1077.6 370.475 1077.45 370.229C1077.31 369.982 1077.24 369.688 1077.24 369.347C1077.24 368.736 1077.49 368.255 1077.99 367.904C1078.48 367.549 1079.16 367.371 1080.03 367.371C1080.84 367.371 1081.62 367.535 1082.39 367.863L1081.99 368.786C1081.24 368.476 1080.56 368.321 1079.95 368.321C1079.41 368.321 1079 368.406 1078.73 368.574C1078.46 368.743 1078.32 368.975 1078.32 369.271C1078.32 369.472 1078.37 369.643 1078.47 369.784C1078.58 369.925 1078.74 370.06 1078.97 370.188C1079.2 370.315 1079.64 370.5 1080.28 370.741C1081.17 371.065 1081.77 371.391 1082.08 371.719C1082.39 372.047 1082.55 372.459 1082.55 372.956ZM1090.87 371.247C1090.87 372.468 1090.56 373.423 1089.95 374.111C1089.33 374.795 1088.48 375.137 1087.4 375.137C1086.73 375.137 1086.13 374.979 1085.61 374.665C1085.09 374.351 1084.69 373.899 1084.41 373.312C1084.13 372.724 1083.99 372.035 1083.99 371.247C1083.99 370.026 1084.29 369.076 1084.9 368.396C1085.51 367.713 1086.36 367.371 1087.45 367.371C1088.49 367.371 1089.33 367.72 1089.94 368.417C1090.56 369.114 1090.87 370.058 1090.87 371.247ZM1085.16 371.247C1085.16 372.204 1085.35 372.933 1085.74 373.435C1086.12 373.936 1086.68 374.187 1087.43 374.187C1088.17 374.187 1088.73 373.938 1089.11 373.441C1089.5 372.94 1089.7 372.209 1089.7 371.247C1089.7 370.295 1089.5 369.572 1089.11 369.08C1088.73 368.583 1088.16 368.335 1087.41 368.335C1086.67 368.335 1086.11 368.579 1085.73 369.066C1085.35 369.554 1085.16 370.281 1085.16 371.247ZM1094 375H1092.87V364.363H1094V375ZM1097.47 367.508V372.368C1097.47 372.979 1097.61 373.435 1097.89 373.735C1098.17 374.036 1098.6 374.187 1099.2 374.187C1099.98 374.187 1100.55 373.972 1100.91 373.544C1101.28 373.116 1101.46 372.416 1101.46 371.445V367.508H1102.59V375H1101.66L1101.49 373.995H1101.43C1101.2 374.364 1100.88 374.647 1100.46 374.843C1100.05 375.039 1099.58 375.137 1099.05 375.137C1098.14 375.137 1097.46 374.92 1097 374.487C1096.55 374.054 1096.33 373.362 1096.33 372.409V367.508H1097.47ZM1107.43 374.2C1107.63 374.2 1107.82 374.187 1108.01 374.159C1108.2 374.127 1108.34 374.095 1108.45 374.063V374.932C1108.33 374.991 1108.15 375.039 1107.91 375.075C1107.67 375.116 1107.46 375.137 1107.26 375.137C1105.81 375.137 1105.09 374.373 1105.09 372.847V368.39H1104.02V367.843L1105.09 367.371L1105.57 365.771H1106.22V367.508H1108.4V368.39H1106.22V372.799C1106.22 373.25 1106.33 373.596 1106.55 373.838C1106.76 374.079 1107.05 374.2 1107.43 374.2ZM1111.09 375H1109.96V367.508H1111.09V375ZM1109.86 365.478C1109.86 365.218 1109.93 365.029 1110.05 364.91C1110.18 364.787 1110.34 364.726 1110.53 364.726C1110.71 364.726 1110.87 364.787 1111 364.91C1111.14 365.033 1111.2 365.222 1111.2 365.478C1111.2 365.733 1111.14 365.924 1111 366.052C1110.87 366.175 1110.71 366.236 1110.53 366.236C1110.34 366.236 1110.18 366.175 1110.05 366.052C1109.93 365.924 1109.86 365.733 1109.86 365.478ZM1119.96 371.247C1119.96 372.468 1119.66 373.423 1119.04 374.111C1118.43 374.795 1117.58 375.137 1116.49 375.137C1115.82 375.137 1115.23 374.979 1114.71 374.665C1114.19 374.351 1113.79 373.899 1113.5 373.312C1113.22 372.724 1113.08 372.035 1113.08 371.247C1113.08 370.026 1113.39 369.076 1114 368.396C1114.61 367.713 1115.46 367.371 1116.54 367.371C1117.59 367.371 1118.42 367.72 1119.04 368.417C1119.65 369.114 1119.96 370.058 1119.96 371.247ZM1114.26 371.247C1114.26 372.204 1114.45 372.933 1114.83 373.435C1115.21 373.936 1115.78 374.187 1116.52 374.187C1117.26 374.187 1117.83 373.938 1118.21 373.441C1118.6 372.94 1118.79 372.209 1118.79 371.247C1118.79 370.295 1118.6 369.572 1118.21 369.08C1117.83 368.583 1117.26 368.335 1116.51 368.335C1115.76 368.335 1115.2 368.579 1114.82 369.066C1114.45 369.554 1114.26 370.281 1114.26 371.247ZM1127.09 375V370.153C1127.09 369.543 1126.95 369.087 1126.67 368.786C1126.39 368.485 1125.96 368.335 1125.37 368.335C1124.58 368.335 1124.01 368.547 1123.64 368.971C1123.28 369.395 1123.1 370.094 1123.1 371.069V375H1121.96V367.508H1122.88L1123.07 368.533H1123.12C1123.36 368.164 1123.68 367.879 1124.1 367.679C1124.52 367.474 1124.99 367.371 1125.5 367.371C1126.4 367.371 1127.08 367.59 1127.54 368.027C1127.99 368.46 1128.22 369.155 1128.22 370.112V375H1127.09Z" fill="black"/>
<circle cx="344" cy="392" r="7" fill="url(#paint0_linear)"/>
<circle cx="1095" cy="394" r="7" fill="url(#paint1_linear)"/>
<defs>
<linearGradient id="paint0_linear" x1="344" y1="385" x2="344" y2="399" gradientUnits="userSpaceOnUse">
<stop stop-color="#303030"/>
<stop offset="1"/>
</linearGradient>
<linearGradient id="paint1_linear" x1="1095" y1="387" x2="1095" y2="401" gradientUnits="userSpaceOnUse">
<stop stop-color="#303030"/>
<stop offset="1"/>
</linearGradient>
</defs>
</svg>
