<svg width="50" height="54" viewBox="0 0 50 54" fill="none" xmlns="http://www.w3.org/2000/svg">
<path fill-rule="evenodd" clip-rule="evenodd" d="M25 8C15.626 8 8 15.626 8 25C8 32.112 12.391 38.412 19 40.9V50C19 50.553 19.447 51 20 51H21V53C21 53.553 21.447 54 22 54H28C28.553 54 29 53.553 29 53V51H30C30.553 51 31 50.553 31 50V40.9C37.609 38.412 42 32.112 42 25C42 15.626 34.374 8 25 8ZM28 49C27.447 49 27 49.447 27 50V52H23V50C23 49.447 22.553 49 22 49H21V44H29V49H28ZM29 40.192C29 39.761 29.277 39.377 29.688 39.242C35.855 37.214 40 31.49 40 25C40 16.729 33.271 10 25 10C16.729 10 10 16.729 10 25C10 31.49 14.145 37.214 20.312 39.242C20.723 39.377 21 39.76 21 40.192V42H29V40.192Z" fill="#0073DD"/>
<path fill-rule="evenodd" clip-rule="evenodd" d="M25 8C15.626 8 8 15.626 8 25C8 32.112 12.391 38.412 19 40.9V50C19 50.553 19.447 51 20 51H21V53C21 53.553 21.447 54 22 54H28C28.553 54 29 53.553 29 53V51H30C30.553 51 31 50.553 31 50V40.9C37.609 38.412 42 32.112 42 25C42 15.626 34.374 8 25 8ZM28 49C27.447 49 27 49.447 27 50V52H23V50C23 49.447 22.553 49 22 49H21V44H29V49H28ZM29 40.192C29 39.761 29.277 39.377 29.688 39.242C35.855 37.214 40 31.49 40 25C40 16.729 33.271 10 25 10C16.729 10 10 16.729 10 25C10 31.49 14.145 37.214 20.312 39.242C20.723 39.377 21 39.76 21 40.192V42H29V40.192Z" fill="#C4E6FF" fill-opacity="0.6"/>
<path d="M25 6C25.553 6 26 5.553 26 5V1C26 0.447 25.553 0 25 0C24.447 0 24 0.447 24 1V5C24 5.553 24.447 6 25 6Z" fill="#0073DD"/>
<path d="M25 6C25.553 6 26 5.553 26 5V1C26 0.447 25.553 0 25 0C24.447 0 24 0.447 24 1V5C24 5.553 24.447 6 25 6Z" fill="#C4E6FF" fill-opacity="0.6"/>
<path d="M49 24H45C44.447 24 44 24.447 44 25C44 25.553 44.447 26 45 26H49C49.553 26 50 25.553 50 25C50 24.447 49.553 24 49 24Z" fill="#0073DD"/>
<path d="M49 24H45C44.447 24 44 24.447 44 25C44 25.553 44.447 26 45 26H49C49.553 26 50 25.553 50 25C50 24.447 49.553 24 49 24Z" fill="#C4E6FF" fill-opacity="0.6"/>
<path d="M5 24H1C0.447 24 0 24.447 0 25C0 25.553 0.447 26 1 26H5C5.553 26 6 25.553 6 25C6 24.447 5.553 24 5 24Z" fill="#0073DD"/>
<path d="M5 24H1C0.447 24 0 24.447 0 25C0 25.553 0.447 26 1 26H5C5.553 26 6 25.553 6 25C6 24.447 5.553 24 5 24Z" fill="#C4E6FF" fill-opacity="0.6"/>
<path d="M41.2638 7.32217L38.4358 10.1502C38.0448 10.5412 38.0448 11.1732 38.4358 11.5642C38.6308 11.7592 38.8868 11.8572 39.1428 11.8572C39.3988 11.8572 39.6548 11.7592 39.8498 11.5642L42.6778 8.73617C43.0688 8.34517 43.0688 7.71317 42.6778 7.32217C42.2868 6.93117 41.6538 6.93217 41.2638 7.32217Z" fill="#0073DD"/>
<path d="M41.2638 7.32217L38.4358 10.1502C38.0448 10.5412 38.0448 11.1732 38.4358 11.5642C38.6308 11.7592 38.8868 11.8572 39.1428 11.8572C39.3988 11.8572 39.6548 11.7592 39.8498 11.5642L42.6778 8.73617C43.0688 8.34517 43.0688 7.71317 42.6778 7.32217C42.2868 6.93117 41.6538 6.93217 41.2638 7.32217Z" fill="#C4E6FF" fill-opacity="0.6"/>
<path d="M10.1496 38.4358L7.32157 41.2638C6.93057 41.6548 6.93057 42.2868 7.32157 42.6778C7.51657 42.8728 7.77257 42.9708 8.02857 42.9708C8.28457 42.9708 8.54057 42.8728 8.73557 42.6778L11.5636 39.8498C11.9546 39.4588 11.9546 38.8268 11.5636 38.4358C11.1726 38.0448 10.5406 38.0448 10.1496 38.4358Z" fill="#0073DD"/>
<path d="M10.1496 38.4358L7.32157 41.2638C6.93057 41.6548 6.93057 42.2868 7.32157 42.6778C7.51657 42.8728 7.77257 42.9708 8.02857 42.9708C8.28457 42.9708 8.54057 42.8728 8.73557 42.6778L11.5636 39.8498C11.9546 39.4588 11.9546 38.8268 11.5636 38.4358C11.1726 38.0448 10.5406 38.0448 10.1496 38.4358Z" fill="#C4E6FF" fill-opacity="0.6"/>
<path d="M39.8498 38.4358C39.4588 38.0448 38.8268 38.0448 38.4358 38.4358C38.0448 38.8268 38.0448 39.4588 38.4358 39.8498L41.2638 42.6778C41.4588 42.8728 41.7148 42.9708 41.9708 42.9708C42.2268 42.9708 42.4828 42.8728 42.6778 42.6778C43.0688 42.2868 43.0688 41.6548 42.6778 41.2638L39.8498 38.4358Z" fill="#0073DD"/>
<path d="M39.8498 38.4358C39.4588 38.0448 38.8268 38.0448 38.4358 38.4358C38.0448 38.8268 38.0448 39.4588 38.4358 39.8498L41.2638 42.6778C41.4588 42.8728 41.7148 42.9708 41.9708 42.9708C42.2268 42.9708 42.4828 42.8728 42.6778 42.6778C43.0688 42.2868 43.0688 41.6548 42.6778 41.2638L39.8498 38.4358Z" fill="#C4E6FF" fill-opacity="0.6"/>
<path d="M10.1496 11.5636C10.3446 11.7586 10.6006 11.8566 10.8566 11.8566C11.1126 11.8566 11.3686 11.7586 11.5636 11.5636C11.9546 11.1726 11.9546 10.5406 11.5636 10.1496L8.73557 7.32157C8.34457 6.93057 7.71257 6.93057 7.32157 7.32157C6.93057 7.71257 6.93057 8.34457 7.32157 8.73557L10.1496 11.5636Z" fill="#0073DD"/>
<path d="M10.1496 11.5636C10.3446 11.7586 10.6006 11.8566 10.8566 11.8566C11.1126 11.8566 11.3686 11.7586 11.5636 11.5636C11.9546 11.1726 11.9546 10.5406 11.5636 10.1496L8.73557 7.32157C8.34457 6.93057 7.71257 6.93057 7.32157 7.32157C6.93057 7.71257 6.93057 8.34457 7.32157 8.73557L10.1496 11.5636Z" fill="#C4E6FF" fill-opacity="0.6"/>
<path d="M25 13C18.383 13 13 18.383 13 25C13 25.553 13.447 26 14 26C14.553 26 15 25.553 15 25C15 19.486 19.486 15 25 15C25.553 15 26 14.553 26 14C26 13.447 25.553 13 25 13Z" fill="#0073DD"/>
<path d="M25 13C18.383 13 13 18.383 13 25C13 25.553 13.447 26 14 26C14.553 26 15 25.553 15 25C15 19.486 19.486 15 25 15C25.553 15 26 14.553 26 14C26 13.447 25.553 13 25 13Z" fill="#C4E6FF" fill-opacity="0.6"/>
</svg>
