<svg width="55" height="59" viewBox="0 0 55 59" fill="none" xmlns="http://www.w3.org/2000/svg">
<path d="M27.2964 51.7941H21.4001V17.5448H7.28516V7.20605H47.7134V7.96106H8.04853V16.7902H22.1638V51.0394H26.5331V14.3489H27.2964V51.7941Z" fill="#FFFFF1"/>
<path fill-rule="evenodd" clip-rule="evenodd" d="M7.00586 6.92822H47.9956V8.23858H8.33074V16.5123H22.446V50.7616H26.2538V14.071H27.5786V52.0716H21.1208V17.8223H7.00586V6.92822ZM7.56736 7.48357V17.267H21.6823V51.5162H27.0171V14.6264H26.8153V51.3169H21.8845V17.0677H7.76923V7.68323H47.4341V7.48357H7.56736Z" fill="#FFFFF1"/>
<path d="M32.2876 51.6525H31.5243V16.6496H46.9221V12.7532H16.2227V11.9985H47.6859V17.4042H32.2876V51.6525Z" fill="#FFFFF1"/>
<path fill-rule="evenodd" clip-rule="evenodd" d="M15.9414 11.7207H47.9662V17.6817H32.5678V51.93H31.2431V16.3717H46.6408V13.0307H15.9414V11.7207ZM16.5029 12.2761V12.4754H47.2023V16.9271H31.8046V51.3747H32.0063V17.1264H47.4047V12.2761H16.5029Z" fill="#FFFFF1"/>
</svg>
