<svg width="96" height="96" viewBox="0 0 96 96" fill="none" xmlns="http://www.w3.org/2000/svg">
<rect width="96" height="96" rx="10" fill="#176BEF"/>
<path d="M47.2964 67.7941H41.4001V33.5448H27.2852V23.2061H67.7134V23.9611H28.0485V32.7902H42.1638V67.0394H46.5331V30.3489H47.2964V67.7941Z" fill="#FFFFF1"/>
<path fill-rule="evenodd" clip-rule="evenodd" d="M27.0059 22.9282H67.9956V24.2386H28.3307V32.5123H42.446V66.7616H46.2538V30.071H47.5786V68.0716H41.1208V33.8223H27.0059V22.9282ZM27.5674 23.4836V33.267H41.6823V67.5162H47.0171V30.6264H46.8153V67.3169H41.8845V33.0677H27.7692V23.6832H67.4341V23.4836H27.5674Z" fill="#FFFFF1"/>
<path d="M52.2876 67.6525H51.5243V32.6496H66.9221V28.7532H36.2227V27.9985H67.6859V33.4042H52.2876V67.6525Z" fill="#FFFFF1"/>
<path fill-rule="evenodd" clip-rule="evenodd" d="M35.9414 27.7207H67.9662V33.6817H52.5678V67.93H51.2431V32.3717H66.6408V29.0307H35.9414V27.7207ZM36.5029 28.2761V28.4754H67.2023V32.9271H51.8046V67.3747H52.0063V33.1264H67.4047V28.2761H36.5029Z" fill="#FFFFF1"/>
</svg>
