<svg width="50" height="54" viewBox="0 0 50 54" fill="none" xmlns="http://www.w3.org/2000/svg">
<path d="M24.8151 47.4046H19.4548V16.0578H6.62305V6.59521H43.376V7.28624H7.31702V15.3671H20.1491V46.7139H24.1212V13.1327H24.8151V47.4046Z" fill="#176BEF"/>
<path fill-rule="evenodd" clip-rule="evenodd" d="M6.36914 6.34106H43.6326V7.54037H7.57358V15.113H20.4057V46.4597H23.8673V12.8786H25.0716V47.6587H19.2009V16.312H6.36914V6.34106ZM6.8796 6.84935V15.8037H19.7114V47.1504H24.5611V13.3868H24.3777V46.968H19.8952V15.6213H7.06312V7.03209H43.1221V6.84935H6.8796Z" fill="#176BEF"/>
<path d="M29.3525 47.2752H28.6586V15.2386H42.6566V11.6724H14.748V10.9817H43.351V15.9293H29.3525V47.2752Z" fill="#176BEF"/>
<path fill-rule="evenodd" clip-rule="evenodd" d="M14.4922 10.7275H43.6056V16.1834H29.6071V47.5293H28.4028V14.9844H42.4007V11.9265H14.4922V10.7275ZM15.0026 11.2358V11.4182H42.9112V15.4927H28.9132V47.021H29.0967V15.6751H43.0951V11.2358H15.0026Z" fill="#176BEF"/>
</svg>
