<svg width="187" height="187" viewBox="0 0 187 187" fill="none" xmlns="http://www.w3.org/2000/svg">
<g filter="url(#filter0_d)">
<rect x="40" y="40" width="67" height="67" rx="33.5" fill="url(#paint0_linear)"/>
</g>
<path d="M62.35 61H83.95C84.6925 61 85.3 61.6075 85.3 62.35V83.95L61 83.923V62.35C61 61.6075 61.6075 61 62.35 61ZM67.75 62.35L65.05 66.4H66.4L69.1 62.35H67.75ZM73.15 62.35H71.8L69.1 66.4H70.45L73.15 62.35ZM77.2 62.35H75.85L73.15 66.4H74.5L77.2 62.35ZM81.25 62.35H79.9L77.2 66.4H78.55L81.25 62.35ZM82.6 81.25V67.75H63.7V81.25H82.6ZM70.45 69.1L78.55 74.5L70.45 79.9V69.1Z" fill="#FFFFF1"/>
<defs>
<filter id="filter0_d" x="0" y="0" width="187" height="187" filterUnits="userSpaceOnUse" color-interpolation-filters="sRGB">
<feFlood flood-opacity="0" result="BackgroundImageFix"/>
<feColorMatrix in="SourceAlpha" type="matrix" values="0 0 0 0 0 0 0 0 0 0 0 0 0 0 0 0 0 0 127 0"/>
<feOffset dx="20" dy="20"/>
<feGaussianBlur stdDeviation="30"/>
<feColorMatrix type="matrix" values="0 0 0 0 0 0 0 0 0 0 0 0 0 0 0 0 0 0 0.4 0"/>
<feBlend mode="normal" in2="BackgroundImageFix" result="effect1_dropShadow"/>
<feBlend mode="normal" in="SourceGraphic" in2="effect1_dropShadow" result="shape"/>
</filter>
<linearGradient id="paint0_linear" x1="73.5" y1="6.5" x2="6.5" y2="73.5" gradientUnits="userSpaceOnUse">
<stop stop-color="#FB3331"/>
<stop offset="1" stop-color="#F42B29"/>
</linearGradient>
</defs>
</svg>
