<svg width="67" height="67" viewBox="0 0 67 67" fill="none" xmlns="http://www.w3.org/2000/svg">
<rect width="67" height="67" rx="33.5" fill="#FBD3D2"/>
<path d="M25.2211 26.8359L18.6234 42H15.0492L21.6586 27.6797H13.1742V24.9375H25.2211V26.8359ZM35.9883 24.7617V27.5508H35.6602C34.1289 27.5742 32.8945 27.9727 31.957 28.7461C31.0273 29.5195 30.4688 30.5938 30.2812 31.9688C31.1875 31.0469 32.332 30.5859 33.7148 30.5859C35.1992 30.5859 36.3789 31.1172 37.2539 32.1797C38.1289 33.2422 38.5664 34.6406 38.5664 36.375C38.5664 37.4844 38.3242 38.4883 37.8398 39.3867C37.3633 40.2852 36.6836 40.9844 35.8008 41.4844C34.9258 41.9844 33.9336 42.2344 32.8242 42.2344C31.0273 42.2344 29.5742 41.6094 28.4648 40.3594C27.3633 39.1094 26.8125 37.4414 26.8125 35.3555V34.1367C26.8125 32.2852 27.1602 30.6523 27.8555 29.2383C28.5586 27.8164 29.5625 26.7188 30.8672 25.9453C32.1797 25.1641 33.6992 24.7695 35.4258 24.7617H35.9883ZM32.6836 33.3047C32.1367 33.3047 31.6406 33.4492 31.1953 33.7383C30.75 34.0195 30.4219 34.3945 30.2109 34.8633V35.8945C30.2109 37.0273 30.4336 37.9141 30.8789 38.5547C31.3242 39.1875 31.9492 39.5039 32.7539 39.5039C33.4805 39.5039 34.0664 39.2188 34.5117 38.6484C34.9648 38.0703 35.1914 37.3242 35.1914 36.4102C35.1914 35.4805 34.9648 34.7305 34.5117 34.1602C34.0586 33.5898 33.4492 33.3047 32.6836 33.3047ZM39.9352 28.2188C39.9352 27.1719 40.275 26.3242 40.9547 25.6758C41.6344 25.0195 42.525 24.6914 43.6266 24.6914C44.7437 24.6914 45.6422 25.0156 46.3219 25.6641C47.0016 26.3047 47.3414 27.1758 47.3414 28.2773V29.1211C47.3414 30.1758 47.0016 31.0234 46.3219 31.6641C45.6422 32.3047 44.7516 32.625 43.65 32.625C42.5406 32.625 41.6422 32.3047 40.9547 31.6641C40.275 31.0156 39.9352 30.1445 39.9352 29.0508V28.2188ZM42.1852 29.1211C42.1852 29.5898 42.318 29.9688 42.5836 30.2578C42.857 30.5391 43.2125 30.6797 43.65 30.6797C44.0875 30.6797 44.4352 30.5352 44.693 30.2461C44.9508 29.957 45.0797 29.5703 45.0797 29.0859V28.2188C45.0797 27.75 44.9508 27.3711 44.693 27.082C44.4352 26.793 44.0797 26.6484 43.6266 26.6484C43.1969 26.6484 42.8492 26.793 42.5836 27.082C42.318 27.3633 42.1852 27.7578 42.1852 28.2656V29.1211ZM48.0914 37.8164C48.0914 36.7617 48.4352 35.9141 49.1227 35.2734C49.8102 34.625 50.7008 34.3008 51.7945 34.3008C52.9039 34.3008 53.7984 34.6211 54.4781 35.2617C55.1656 35.8945 55.5094 36.7695 55.5094 37.8867V38.7305C55.5094 39.7773 55.1734 40.625 54.5016 41.2734C53.8297 41.9141 52.9352 42.2344 51.818 42.2344C50.693 42.2344 49.7906 41.9102 49.1109 41.2617C48.4312 40.6133 48.0914 39.7539 48.0914 38.6836V37.8164ZM50.3414 38.7305C50.3414 39.1602 50.482 39.5273 50.7633 39.832C51.0445 40.1367 51.3961 40.2891 51.818 40.2891C52.7711 40.2891 53.2477 39.7617 53.2477 38.707V37.8164C53.2477 37.3477 53.1148 36.9727 52.8492 36.6914C52.5836 36.4023 52.232 36.2578 51.7945 36.2578C51.357 36.2578 51.0055 36.4023 50.7398 36.6914C50.4742 36.9727 50.3414 37.3594 50.3414 37.8516V38.7305ZM44.318 40.7227L42.6656 39.832L50.9977 26.4961L52.65 27.3867L44.318 40.7227Z" fill="#1B236D"/>
<path d="M25.2211 26.8359L18.6234 42H15.0492L21.6586 27.6797H13.1742V24.9375H25.2211V26.8359ZM35.9883 24.7617V27.5508H35.6602C34.1289 27.5742 32.8945 27.9727 31.957 28.7461C31.0273 29.5195 30.4688 30.5938 30.2812 31.9688C31.1875 31.0469 32.332 30.5859 33.7148 30.5859C35.1992 30.5859 36.3789 31.1172 37.2539 32.1797C38.1289 33.2422 38.5664 34.6406 38.5664 36.375C38.5664 37.4844 38.3242 38.4883 37.8398 39.3867C37.3633 40.2852 36.6836 40.9844 35.8008 41.4844C34.9258 41.9844 33.9336 42.2344 32.8242 42.2344C31.0273 42.2344 29.5742 41.6094 28.4648 40.3594C27.3633 39.1094 26.8125 37.4414 26.8125 35.3555V34.1367C26.8125 32.2852 27.1602 30.6523 27.8555 29.2383C28.5586 27.8164 29.5625 26.7188 30.8672 25.9453C32.1797 25.1641 33.6992 24.7695 35.4258 24.7617H35.9883ZM32.6836 33.3047C32.1367 33.3047 31.6406 33.4492 31.1953 33.7383C30.75 34.0195 30.4219 34.3945 30.2109 34.8633V35.8945C30.2109 37.0273 30.4336 37.9141 30.8789 38.5547C31.3242 39.1875 31.9492 39.5039 32.7539 39.5039C33.4805 39.5039 34.0664 39.2188 34.5117 38.6484C34.9648 38.0703 35.1914 37.3242 35.1914 36.4102C35.1914 35.4805 34.9648 34.7305 34.5117 34.1602C34.0586 33.5898 33.4492 33.3047 32.6836 33.3047ZM39.9352 28.2188C39.9352 27.1719 40.275 26.3242 40.9547 25.6758C41.6344 25.0195 42.525 24.6914 43.6266 24.6914C44.7437 24.6914 45.6422 25.0156 46.3219 25.6641C47.0016 26.3047 47.3414 27.1758 47.3414 28.2773V29.1211C47.3414 30.1758 47.0016 31.0234 46.3219 31.6641C45.6422 32.3047 44.7516 32.625 43.65 32.625C42.5406 32.625 41.6422 32.3047 40.9547 31.6641C40.275 31.0156 39.9352 30.1445 39.9352 29.0508V28.2188ZM42.1852 29.1211C42.1852 29.5898 42.318 29.9688 42.5836 30.2578C42.857 30.5391 43.2125 30.6797 43.65 30.6797C44.0875 30.6797 44.4352 30.5352 44.693 30.2461C44.9508 29.957 45.0797 29.5703 45.0797 29.0859V28.2188C45.0797 27.75 44.9508 27.3711 44.693 27.082C44.4352 26.793 44.0797 26.6484 43.6266 26.6484C43.1969 26.6484 42.8492 26.793 42.5836 27.082C42.318 27.3633 42.1852 27.7578 42.1852 28.2656V29.1211ZM48.0914 37.8164C48.0914 36.7617 48.4352 35.9141 49.1227 35.2734C49.8102 34.625 50.7008 34.3008 51.7945 34.3008C52.9039 34.3008 53.7984 34.6211 54.4781 35.2617C55.1656 35.8945 55.5094 36.7695 55.5094 37.8867V38.7305C55.5094 39.7773 55.1734 40.625 54.5016 41.2734C53.8297 41.9141 52.9352 42.2344 51.818 42.2344C50.693 42.2344 49.7906 41.9102 49.1109 41.2617C48.4312 40.6133 48.0914 39.7539 48.0914 38.6836V37.8164ZM50.3414 38.7305C50.3414 39.1602 50.482 39.5273 50.7633 39.832C51.0445 40.1367 51.3961 40.2891 51.818 40.2891C52.7711 40.2891 53.2477 39.7617 53.2477 38.707V37.8164C53.2477 37.3477 53.1148 36.9727 52.8492 36.6914C52.5836 36.4023 52.232 36.2578 51.7945 36.2578C51.357 36.2578 51.0055 36.4023 50.7398 36.6914C50.4742 36.9727 50.3414 37.3594 50.3414 37.8516V38.7305ZM44.318 40.7227L42.6656 39.832L50.9977 26.4961L52.65 27.3867L44.318 40.7227Z" fill="white" fill-opacity="0.1"/>
</svg>
