<svg width="67" height="67" viewBox="0 0 67 67" fill="none" xmlns="http://www.w3.org/2000/svg">
<rect width="67" height="67" rx="33.5" fill="#FBD3D2"/>
<path d="M21.5414 35.1797C20.6586 36.0469 19.6273 36.4805 18.4477 36.4805C16.9398 36.4805 15.7328 35.9648 14.8266 34.9336C13.9203 33.8945 13.4672 32.4961 13.4672 30.7383C13.4672 29.6211 13.7094 28.5977 14.1938 27.668C14.6859 26.7305 15.3695 26.0039 16.2445 25.4883C17.1195 24.9648 18.1039 24.7031 19.1977 24.7031C20.3227 24.7031 21.3227 24.9844 22.1977 25.5469C23.0727 26.1094 23.7523 26.918 24.2367 27.9727C24.7211 29.0273 24.9672 30.2344 24.975 31.5938V32.8477C24.975 35.6914 24.268 37.9258 22.8539 39.5508C21.4398 41.1758 19.4359 42.043 16.8422 42.1523L16.0102 42.1641V39.3398L16.7602 39.3281C19.7055 39.1953 21.2992 37.8125 21.5414 35.1797ZM19.2797 33.8906C19.8266 33.8906 20.2953 33.75 20.6859 33.4688C21.0844 33.1875 21.3852 32.8477 21.5883 32.4492V31.0547C21.5883 29.9062 21.3695 29.0156 20.932 28.3828C20.4945 27.75 19.9086 27.4336 19.1742 27.4336C18.4945 27.4336 17.9359 27.7461 17.4984 28.3711C17.0609 28.9883 16.8422 29.7656 16.8422 30.7031C16.8422 31.6328 17.0531 32.3984 17.475 33C17.9047 33.5938 18.5063 33.8906 19.2797 33.8906ZM37.9219 29.4727C37.9219 30.3008 37.7148 31.0352 37.3008 31.6758C36.8867 32.3164 36.3164 32.8281 35.5898 33.2109C36.418 33.6094 37.0742 34.1602 37.5586 34.8633C38.043 35.5586 38.2852 36.3789 38.2852 37.3242C38.2852 38.8398 37.7695 40.0391 36.7383 40.9219C35.707 41.7969 34.3047 42.2344 32.5312 42.2344C30.7578 42.2344 29.3516 41.793 28.3125 40.9102C27.2734 40.0273 26.7539 38.832 26.7539 37.3242C26.7539 36.3789 26.9961 35.5547 27.4805 34.8516C27.9648 34.1484 28.6172 33.6016 29.4375 33.2109C28.7109 32.8281 28.1406 32.3164 27.7266 31.6758C27.3203 31.0352 27.1172 30.3008 27.1172 29.4727C27.1172 28.0195 27.6016 26.8633 28.5703 26.0039C29.5391 25.1367 30.8555 24.7031 32.5195 24.7031C34.1758 24.7031 35.4883 25.1328 36.457 25.9922C37.4336 26.8438 37.9219 28.0039 37.9219 29.4727ZM34.8867 37.0781C34.8867 36.3359 34.6719 35.7422 34.2422 35.2969C33.8125 34.8516 33.2344 34.6289 32.5078 34.6289C31.7891 34.6289 31.2148 34.8516 30.7852 35.2969C30.3555 35.7344 30.1406 36.3281 30.1406 37.0781C30.1406 37.8047 30.3516 38.3906 30.7734 38.8359C31.1953 39.2812 31.7812 39.5039 32.5312 39.5039C33.2656 39.5039 33.8398 39.2891 34.2539 38.8594C34.6758 38.4297 34.8867 37.8359 34.8867 37.0781ZM34.5352 29.6367C34.5352 28.9727 34.3594 28.4414 34.0078 28.043C33.6562 27.6367 33.1602 27.4336 32.5195 27.4336C31.8867 27.4336 31.3945 27.6289 31.043 28.0195C30.6914 28.4102 30.5156 28.9492 30.5156 29.6367C30.5156 30.3164 30.6914 30.8633 31.043 31.2773C31.3945 31.6914 31.8906 31.8984 32.5312 31.8984C33.1719 31.8984 33.6641 31.6914 34.0078 31.2773C34.3594 30.8633 34.5352 30.3164 34.5352 29.6367ZM39.9352 28.2188C39.9352 27.1719 40.275 26.3242 40.9547 25.6758C41.6344 25.0195 42.525 24.6914 43.6266 24.6914C44.7437 24.6914 45.6422 25.0156 46.3219 25.6641C47.0016 26.3047 47.3414 27.1758 47.3414 28.2773V29.1211C47.3414 30.1758 47.0016 31.0234 46.3219 31.6641C45.6422 32.3047 44.7516 32.625 43.65 32.625C42.5406 32.625 41.6422 32.3047 40.9547 31.6641C40.275 31.0156 39.9352 30.1445 39.9352 29.0508V28.2188ZM42.1852 29.1211C42.1852 29.5898 42.318 29.9688 42.5836 30.2578C42.857 30.5391 43.2125 30.6797 43.65 30.6797C44.0875 30.6797 44.4352 30.5352 44.693 30.2461C44.9508 29.957 45.0797 29.5703 45.0797 29.0859V28.2188C45.0797 27.75 44.9508 27.3711 44.693 27.082C44.4352 26.793 44.0797 26.6484 43.6266 26.6484C43.1969 26.6484 42.8492 26.793 42.5836 27.082C42.318 27.3633 42.1852 27.7578 42.1852 28.2656V29.1211ZM48.0914 37.8164C48.0914 36.7617 48.4352 35.9141 49.1227 35.2734C49.8102 34.625 50.7008 34.3008 51.7945 34.3008C52.9039 34.3008 53.7984 34.6211 54.4781 35.2617C55.1656 35.8945 55.5094 36.7695 55.5094 37.8867V38.7305C55.5094 39.7773 55.1734 40.625 54.5016 41.2734C53.8297 41.9141 52.9352 42.2344 51.818 42.2344C50.693 42.2344 49.7906 41.9102 49.1109 41.2617C48.4312 40.6133 48.0914 39.7539 48.0914 38.6836V37.8164ZM50.3414 38.7305C50.3414 39.1602 50.482 39.5273 50.7633 39.832C51.0445 40.1367 51.3961 40.2891 51.818 40.2891C52.7711 40.2891 53.2477 39.7617 53.2477 38.707V37.8164C53.2477 37.3477 53.1148 36.9727 52.8492 36.6914C52.5836 36.4023 52.232 36.2578 51.7945 36.2578C51.357 36.2578 51.0055 36.4023 50.7398 36.6914C50.4742 36.9727 50.3414 37.3594 50.3414 37.8516V38.7305ZM44.318 40.7227L42.6656 39.832L50.9977 26.4961L52.65 27.3867L44.318 40.7227Z" fill="#1B236D"/>
<path d="M21.5414 35.1797C20.6586 36.0469 19.6273 36.4805 18.4477 36.4805C16.9398 36.4805 15.7328 35.9648 14.8266 34.9336C13.9203 33.8945 13.4672 32.4961 13.4672 30.7383C13.4672 29.6211 13.7094 28.5977 14.1938 27.668C14.6859 26.7305 15.3695 26.0039 16.2445 25.4883C17.1195 24.9648 18.1039 24.7031 19.1977 24.7031C20.3227 24.7031 21.3227 24.9844 22.1977 25.5469C23.0727 26.1094 23.7523 26.918 24.2367 27.9727C24.7211 29.0273 24.9672 30.2344 24.975 31.5938V32.8477C24.975 35.6914 24.268 37.9258 22.8539 39.5508C21.4398 41.1758 19.4359 42.043 16.8422 42.1523L16.0102 42.1641V39.3398L16.7602 39.3281C19.7055 39.1953 21.2992 37.8125 21.5414 35.1797ZM19.2797 33.8906C19.8266 33.8906 20.2953 33.75 20.6859 33.4688C21.0844 33.1875 21.3852 32.8477 21.5883 32.4492V31.0547C21.5883 29.9062 21.3695 29.0156 20.932 28.3828C20.4945 27.75 19.9086 27.4336 19.1742 27.4336C18.4945 27.4336 17.9359 27.7461 17.4984 28.3711C17.0609 28.9883 16.8422 29.7656 16.8422 30.7031C16.8422 31.6328 17.0531 32.3984 17.475 33C17.9047 33.5938 18.5063 33.8906 19.2797 33.8906ZM37.9219 29.4727C37.9219 30.3008 37.7148 31.0352 37.3008 31.6758C36.8867 32.3164 36.3164 32.8281 35.5898 33.2109C36.418 33.6094 37.0742 34.1602 37.5586 34.8633C38.043 35.5586 38.2852 36.3789 38.2852 37.3242C38.2852 38.8398 37.7695 40.0391 36.7383 40.9219C35.707 41.7969 34.3047 42.2344 32.5312 42.2344C30.7578 42.2344 29.3516 41.793 28.3125 40.9102C27.2734 40.0273 26.7539 38.832 26.7539 37.3242C26.7539 36.3789 26.9961 35.5547 27.4805 34.8516C27.9648 34.1484 28.6172 33.6016 29.4375 33.2109C28.7109 32.8281 28.1406 32.3164 27.7266 31.6758C27.3203 31.0352 27.1172 30.3008 27.1172 29.4727C27.1172 28.0195 27.6016 26.8633 28.5703 26.0039C29.5391 25.1367 30.8555 24.7031 32.5195 24.7031C34.1758 24.7031 35.4883 25.1328 36.457 25.9922C37.4336 26.8438 37.9219 28.0039 37.9219 29.4727ZM34.8867 37.0781C34.8867 36.3359 34.6719 35.7422 34.2422 35.2969C33.8125 34.8516 33.2344 34.6289 32.5078 34.6289C31.7891 34.6289 31.2148 34.8516 30.7852 35.2969C30.3555 35.7344 30.1406 36.3281 30.1406 37.0781C30.1406 37.8047 30.3516 38.3906 30.7734 38.8359C31.1953 39.2812 31.7812 39.5039 32.5312 39.5039C33.2656 39.5039 33.8398 39.2891 34.2539 38.8594C34.6758 38.4297 34.8867 37.8359 34.8867 37.0781ZM34.5352 29.6367C34.5352 28.9727 34.3594 28.4414 34.0078 28.043C33.6562 27.6367 33.1602 27.4336 32.5195 27.4336C31.8867 27.4336 31.3945 27.6289 31.043 28.0195C30.6914 28.4102 30.5156 28.9492 30.5156 29.6367C30.5156 30.3164 30.6914 30.8633 31.043 31.2773C31.3945 31.6914 31.8906 31.8984 32.5312 31.8984C33.1719 31.8984 33.6641 31.6914 34.0078 31.2773C34.3594 30.8633 34.5352 30.3164 34.5352 29.6367ZM39.9352 28.2188C39.9352 27.1719 40.275 26.3242 40.9547 25.6758C41.6344 25.0195 42.525 24.6914 43.6266 24.6914C44.7437 24.6914 45.6422 25.0156 46.3219 25.6641C47.0016 26.3047 47.3414 27.1758 47.3414 28.2773V29.1211C47.3414 30.1758 47.0016 31.0234 46.3219 31.6641C45.6422 32.3047 44.7516 32.625 43.65 32.625C42.5406 32.625 41.6422 32.3047 40.9547 31.6641C40.275 31.0156 39.9352 30.1445 39.9352 29.0508V28.2188ZM42.1852 29.1211C42.1852 29.5898 42.318 29.9688 42.5836 30.2578C42.857 30.5391 43.2125 30.6797 43.65 30.6797C44.0875 30.6797 44.4352 30.5352 44.693 30.2461C44.9508 29.957 45.0797 29.5703 45.0797 29.0859V28.2188C45.0797 27.75 44.9508 27.3711 44.693 27.082C44.4352 26.793 44.0797 26.6484 43.6266 26.6484C43.1969 26.6484 42.8492 26.793 42.5836 27.082C42.318 27.3633 42.1852 27.7578 42.1852 28.2656V29.1211ZM48.0914 37.8164C48.0914 36.7617 48.4352 35.9141 49.1227 35.2734C49.8102 34.625 50.7008 34.3008 51.7945 34.3008C52.9039 34.3008 53.7984 34.6211 54.4781 35.2617C55.1656 35.8945 55.5094 36.7695 55.5094 37.8867V38.7305C55.5094 39.7773 55.1734 40.625 54.5016 41.2734C53.8297 41.9141 52.9352 42.2344 51.818 42.2344C50.693 42.2344 49.7906 41.9102 49.1109 41.2617C48.4312 40.6133 48.0914 39.7539 48.0914 38.6836V37.8164ZM50.3414 38.7305C50.3414 39.1602 50.482 39.5273 50.7633 39.832C51.0445 40.1367 51.3961 40.2891 51.818 40.2891C52.7711 40.2891 53.2477 39.7617 53.2477 38.707V37.8164C53.2477 37.3477 53.1148 36.9727 52.8492 36.6914C52.5836 36.4023 52.232 36.2578 51.7945 36.2578C51.357 36.2578 51.0055 36.4023 50.7398 36.6914C50.4742 36.9727 50.3414 37.3594 50.3414 37.8516V38.7305ZM44.318 40.7227L42.6656 39.832L50.9977 26.4961L52.65 27.3867L44.318 40.7227Z" fill="white" fill-opacity="0.1"/>
</svg>
