<svg width="489" height="368" viewBox="0 0 489 368" fill="none" xmlns="http://www.w3.org/2000/svg">
<g filter="url(#filter0_d)">
<rect x="335.561" y="104.388" width="64.1423" height="64.1423" rx="32.0712" fill="#3130BD"/>
</g>
<g filter="url(#filter1_d)">
<rect x="414.797" y="104.388" width="64.1423" height="64.1423" rx="32.0712" fill="#161579"/>
</g>
<g filter="url(#filter2_d)">
<rect x="173.318" y="104.388" width="64.1423" height="64.1423" rx="32.0712" fill="#EEBC3F"/>
</g>
<g filter="url(#filter3_d)">
<rect x="250.039" y="104.388" width="65.4" height="64.1423" rx="32.0712" fill="#E76650"/>
</g>
<g filter="url(#filter4_d)">
<rect x="255.068" y="291.784" width="64.1423" height="64.1423" rx="32.0712" fill="#27AE60"/>
</g>
<g filter="url(#filter5_d)">
<rect x="331.789" y="291.784" width="65.4" height="64.1423" rx="32.0712" fill="#C50000"/>
</g>
<g filter="url(#filter6_d)">
<rect x="334.303" y="11.3193" width="64.1423" height="64.1423" rx="32.0712" fill="#3A58C1"/>
</g>
<g filter="url(#filter7_d)">
<rect x="253.811" y="11.3196" width="65.4" height="64.1423" rx="32.0712" fill="#FF5A41"/>
</g>
<g filter="url(#filter8_d)">
<rect x="175.836" y="198.716" width="64.1423" height="64.1423" rx="32.0712" fill="#FCF7F2"/>
</g>
<g filter="url(#filter9_d)">
<rect x="255.068" y="198.715" width="65.4" height="64.1423" rx="32.0712" fill="#D9D2CC"/>
</g>
<g filter="url(#filter10_d)">
<rect x="335.561" y="198.715" width="64.1423" height="64.1423" rx="32.0712" fill="#5A5451"/>
</g>
<g filter="url(#filter11_d)">
<rect x="412.281" y="198.715" width="64.1423" height="64.1423" rx="32.0712" fill="#2D2A28"/>
</g>
<path d="M2.99805 44.209V50H1.79688V35.7812H6.64062C8.11849 35.7812 9.28385 36.1589 10.1367 36.9141C10.9961 37.6693 11.4258 38.7077 11.4258 40.0293C11.4258 41.3639 11.0124 42.3958 10.1855 43.125C9.36523 43.8477 8.17383 44.209 6.61133 44.209H2.99805ZM2.99805 43.1934H6.64062C7.80599 43.1934 8.69466 42.9167 9.30664 42.3633C9.91862 41.8099 10.2246 41.0384 10.2246 40.0488C10.2246 39.0658 9.91862 38.2845 9.30664 37.7051C8.70117 37.1191 7.83854 36.8197 6.71875 36.8066H2.99805V43.1934ZM18.7305 40.4297C18.4831 40.3841 18.2194 40.3613 17.9395 40.3613C17.2103 40.3613 16.5918 40.5664 16.084 40.9766C15.5827 41.3802 15.2246 41.9694 15.0098 42.7441V50H13.8477V39.4336H14.9902L15.0098 41.1133C15.6283 39.8633 16.6211 39.2383 17.9883 39.2383C18.3138 39.2383 18.571 39.2806 18.7598 39.3652L18.7305 40.4297ZM21.8945 50H20.7227V39.4336H21.8945V50ZM20.5176 36.377C20.5176 36.1556 20.5892 35.9701 20.7324 35.8203C20.8757 35.6641 21.071 35.5859 21.3184 35.5859C21.5658 35.5859 21.7611 35.6641 21.9043 35.8203C22.054 35.9701 22.1289 36.1556 22.1289 36.377C22.1289 36.5983 22.054 36.7839 21.9043 36.9336C21.7611 37.0833 21.5658 37.1582 21.3184 37.1582C21.071 37.1582 20.8757 37.0833 20.7324 36.9336C20.5892 36.7839 20.5176 36.5983 20.5176 36.377ZM26.1426 39.4336L26.1816 41.1523C26.5723 40.5143 27.0605 40.0358 27.6465 39.7168C28.2324 39.3978 28.8835 39.2383 29.5996 39.2383C31.2663 39.2383 32.3242 39.9219 32.7734 41.2891C33.151 40.6315 33.6556 40.127 34.2871 39.7754C34.9186 39.4173 35.6152 39.2383 36.377 39.2383C38.6426 39.2383 39.7982 40.4753 39.8438 42.9492V50H38.6719V43.0371C38.6654 42.0931 38.4603 41.3932 38.0566 40.9375C37.6595 40.4818 37.0085 40.2539 36.1035 40.2539C35.2637 40.2669 34.554 40.5404 33.9746 41.0742C33.3952 41.6016 33.0729 42.2461 33.0078 43.0078V50H31.8359V42.9492C31.8294 42.0443 31.6146 41.3704 31.1914 40.9277C30.7747 40.4785 30.1302 40.2539 29.2578 40.2539C28.5221 40.2539 27.8906 40.4655 27.3633 40.8887C26.8359 41.3053 26.4453 41.9271 26.1914 42.7539V50H25.0195V39.4336H26.1426ZM49.4824 50C49.3652 49.668 49.2904 49.1764 49.2578 48.5254C48.8477 49.0592 48.3236 49.4727 47.6855 49.7656C47.054 50.0521 46.3835 50.1953 45.6738 50.1953C44.6582 50.1953 43.8346 49.9121 43.2031 49.3457C42.5781 48.7793 42.2656 48.0632 42.2656 47.1973C42.2656 46.1686 42.6921 45.3548 43.5449 44.7559C44.4043 44.1569 45.599 43.8574 47.1289 43.8574H49.248V42.6562C49.248 41.901 49.0137 41.3086 48.5449 40.8789C48.0827 40.4427 47.4056 40.2246 46.5137 40.2246C45.6999 40.2246 45.026 40.4329 44.4922 40.8496C43.9583 41.2663 43.6914 41.7676 43.6914 42.3535L42.5195 42.3438C42.5195 41.5039 42.9102 40.778 43.6914 40.166C44.4727 39.5475 45.4329 39.2383 46.5723 39.2383C47.7507 39.2383 48.6784 39.5345 49.3555 40.127C50.0391 40.7129 50.3906 41.5332 50.4102 42.5879V47.5879C50.4102 48.61 50.5176 49.375 50.7324 49.8828V50H49.4824ZM45.8105 49.1602C46.5918 49.1602 47.2884 48.9714 47.9004 48.5938C48.5189 48.2161 48.9681 47.7116 49.248 47.0801V44.7559H47.1582C45.9928 44.7689 45.0814 44.9837 44.4238 45.4004C43.7663 45.8105 43.4375 46.377 43.4375 47.0996C43.4375 47.6921 43.6556 48.1836 44.0918 48.5742C44.5345 48.9648 45.1074 49.1602 45.8105 49.1602ZM58.418 40.4297C58.1706 40.3841 57.9069 40.3613 57.627 40.3613C56.8978 40.3613 56.2793 40.5664 55.7715 40.9766C55.2702 41.3802 54.9121 41.9694 54.6973 42.7441V50H53.5352V39.4336H54.6777L54.6973 41.1133C55.3158 39.8633 56.3086 39.2383 57.6758 39.2383C58.0013 39.2383 58.2585 39.2806 58.4473 39.3652L58.418 40.4297ZM63.7988 48.3203L66.8848 39.4336H68.1445L63.6328 51.7969L63.3984 52.3438C62.819 53.6263 61.9238 54.2676 60.7129 54.2676C60.4329 54.2676 60.1335 54.222 59.8145 54.1309L59.8047 53.1641L60.4102 53.2227C60.9831 53.2227 61.4453 53.0794 61.7969 52.793C62.1549 52.513 62.4577 52.028 62.7051 51.3379L63.2227 49.9121L59.2383 39.4336H60.5176L63.7988 48.3203ZM85.166 45.5664C85.0033 47.0638 84.4661 48.2096 83.5547 49.0039C82.6497 49.7982 81.4421 50.1953 79.9316 50.1953C78.877 50.1953 77.9427 49.9316 77.1289 49.4043C76.3216 48.877 75.6966 48.1315 75.2539 47.168C74.8112 46.1979 74.5866 45.0911 74.5801 43.8477V42.002C74.5801 40.7389 74.8014 39.6191 75.2441 38.6426C75.6868 37.666 76.3216 36.9141 77.1484 36.3867C77.9818 35.8529 78.9388 35.5859 80.0195 35.5859C81.543 35.5859 82.7441 35.9993 83.623 36.8262C84.5085 37.6465 85.0228 38.7826 85.166 40.2344H83.9551C83.6556 37.819 82.3438 36.6113 80.0195 36.6113C78.7305 36.6113 77.7018 37.0931 76.9336 38.0566C76.1719 39.0202 75.791 40.3516 75.791 42.0508V43.7891C75.791 45.4297 76.1621 46.7383 76.9043 47.7148C77.653 48.6914 78.6621 49.1797 79.9316 49.1797C81.1882 49.1797 82.1354 48.8802 82.7734 48.2812C83.4115 47.6758 83.8053 46.7708 83.9551 45.5664H85.166ZM87.168 44.5605C87.168 43.5449 87.3633 42.6302 87.7539 41.8164C88.151 41.0026 88.7077 40.3711 89.4238 39.9219C90.1465 39.4661 90.9635 39.2383 91.875 39.2383C93.2812 39.2383 94.4206 39.7331 95.293 40.7227C96.1654 41.7057 96.6016 43.0111 96.6016 44.6387V44.8828C96.6016 45.9049 96.403 46.8262 96.0059 47.6465C95.6152 48.4603 95.0618 49.0885 94.3457 49.5312C93.6296 49.974 92.8125 50.1953 91.8945 50.1953C90.4948 50.1953 89.3555 49.7038 88.4766 48.7207C87.6042 47.7311 87.168 46.4225 87.168 44.7949V44.5605ZM88.3398 44.8828C88.3398 46.1458 88.6654 47.1842 89.3164 47.998C89.974 48.8053 90.8333 49.209 91.8945 49.209C92.9492 49.209 93.8021 48.8053 94.4531 47.998C95.1107 47.1842 95.4395 46.1133 95.4395 44.7852V44.5605C95.4395 43.7533 95.2897 43.0143 94.9902 42.3438C94.6908 41.6732 94.2708 41.1556 93.7305 40.791C93.1901 40.4199 92.5716 40.2344 91.875 40.2344C90.8333 40.2344 89.9837 40.6445 89.3262 41.4648C88.6686 42.2786 88.3398 43.3464 88.3398 44.668V44.8828ZM100.332 50H99.1602V35H100.332V50ZM102.871 44.5605C102.871 43.5449 103.066 42.6302 103.457 41.8164C103.854 41.0026 104.411 40.3711 105.127 39.9219C105.85 39.4661 106.667 39.2383 107.578 39.2383C108.984 39.2383 110.124 39.7331 110.996 40.7227C111.868 41.7057 112.305 43.0111 112.305 44.6387V44.8828C112.305 45.9049 112.106 46.8262 111.709 47.6465C111.318 48.4603 110.765 49.0885 110.049 49.5312C109.333 49.974 108.516 50.1953 107.598 50.1953C106.198 50.1953 105.059 49.7038 104.18 48.7207C103.307 47.7311 102.871 46.4225 102.871 44.7949V44.5605ZM104.043 44.8828C104.043 46.1458 104.368 47.1842 105.02 47.998C105.677 48.8053 106.536 49.209 107.598 49.209C108.652 49.209 109.505 48.8053 110.156 47.998C110.814 47.1842 111.143 46.1133 111.143 44.7852V44.5605C111.143 43.7533 110.993 43.0143 110.693 42.3438C110.394 41.6732 109.974 41.1556 109.434 40.791C108.893 40.4199 108.275 40.2344 107.578 40.2344C106.536 40.2344 105.687 40.6445 105.029 41.4648C104.372 42.2786 104.043 43.3464 104.043 44.668V44.8828ZM119.609 40.4297C119.362 40.3841 119.098 40.3613 118.818 40.3613C118.089 40.3613 117.471 40.5664 116.963 40.9766C116.462 41.3802 116.104 41.9694 115.889 42.7441V50H114.727V39.4336H115.869L115.889 41.1133C116.507 39.8633 117.5 39.2383 118.867 39.2383C119.193 39.2383 119.45 39.2806 119.639 39.3652L119.609 40.4297ZM127.793 47.3145C127.793 46.735 127.559 46.2695 127.09 45.918C126.628 45.5664 125.928 45.293 124.99 45.0977C124.053 44.8958 123.324 44.668 122.803 44.4141C122.288 44.1536 121.904 43.8379 121.65 43.4668C121.403 43.0957 121.279 42.6465 121.279 42.1191C121.279 41.2858 121.628 40.599 122.324 40.0586C123.021 39.5117 123.913 39.2383 125 39.2383C126.178 39.2383 127.122 39.5312 127.832 40.1172C128.548 40.6966 128.906 41.4551 128.906 42.3926H127.734C127.734 41.7741 127.474 41.2598 126.953 40.8496C126.439 40.4395 125.788 40.2344 125 40.2344C124.232 40.2344 123.613 40.4069 123.145 40.752C122.682 41.0905 122.451 41.5332 122.451 42.0801C122.451 42.6074 122.643 43.0176 123.027 43.3105C123.418 43.597 124.124 43.8607 125.146 44.1016C126.175 44.3424 126.943 44.5996 127.451 44.873C127.965 45.1465 128.346 45.4753 128.594 45.8594C128.841 46.2435 128.965 46.709 128.965 47.2559C128.965 48.1478 128.604 48.8607 127.881 49.3945C127.165 49.9284 126.227 50.1953 125.068 50.1953C123.838 50.1953 122.839 49.8991 122.07 49.3066C121.309 48.7077 120.928 47.9525 120.928 47.041H122.1C122.145 47.7246 122.432 48.2585 122.959 48.6426C123.493 49.0202 124.196 49.209 125.068 49.209C125.882 49.209 126.54 49.0299 127.041 48.6719C127.542 48.3138 127.793 47.8613 127.793 47.3145Z" fill="black"/>
<path d="M9.64844 136.184H2.99805V141.984H10.6445V143H1.79688V128.781H10.5957V129.807H2.99805V135.168H9.64844V136.184ZM16.2305 136.721L19.082 132.434H20.4688L16.8848 137.619L20.625 143H19.248L16.2402 138.527L13.2324 143H11.8555L15.5859 137.619L12.002 132.434H13.3789L16.2305 136.721ZM24.4531 129.729V132.434H26.6406V133.391H24.4531V140.432C24.4531 141.018 24.5573 141.454 24.7656 141.74C24.9805 142.027 25.3353 142.17 25.8301 142.17C26.0254 142.17 26.3411 142.137 26.7773 142.072L26.8262 143.029C26.5202 143.14 26.1035 143.195 25.5762 143.195C24.7754 143.195 24.1927 142.964 23.8281 142.502C23.4635 142.033 23.2812 141.346 23.2812 140.441V133.391H21.3379V132.434H23.2812V129.729H24.4531ZM33.1543 143.195C32.2559 143.195 31.4421 142.974 30.7129 142.531C29.9902 142.089 29.4271 141.473 29.0234 140.686C28.6198 139.891 28.418 139.003 28.418 138.02V137.6C28.418 136.584 28.6133 135.669 29.0039 134.855C29.401 134.042 29.9512 133.404 30.6543 132.941C31.3574 132.473 32.1191 132.238 32.9395 132.238C34.222 132.238 35.2376 132.678 35.9863 133.557C36.7415 134.429 37.1191 135.624 37.1191 137.141V137.795H29.5801V138.02C29.5801 139.217 29.9219 140.217 30.6055 141.018C31.2956 141.812 32.1615 142.209 33.2031 142.209C33.8281 142.209 34.3783 142.095 34.8535 141.867C35.3353 141.639 35.7715 141.275 36.1621 140.773L36.8945 141.33C36.0352 142.574 34.7884 143.195 33.1543 143.195ZM32.9395 133.234C32.0605 133.234 31.3184 133.557 30.7129 134.201C30.1139 134.846 29.7493 135.712 29.6191 136.799H35.957V136.672C35.9245 135.656 35.6348 134.829 35.0879 134.191C34.541 133.553 33.8249 133.234 32.9395 133.234ZM40.5078 132.434L40.5469 134.24C40.944 133.589 41.4388 133.094 42.0312 132.756C42.6237 132.411 43.278 132.238 43.9941 132.238C45.127 132.238 45.9701 132.557 46.5234 133.195C47.0768 133.833 47.3568 134.79 47.3633 136.066V143H46.2012V136.057C46.1947 135.113 45.9928 134.41 45.5957 133.947C45.2051 133.485 44.5768 133.254 43.7109 133.254C42.9883 133.254 42.347 133.482 41.7871 133.938C41.2337 134.387 40.8236 134.995 40.5566 135.764V143H39.3945V132.434H40.5078ZM49.9219 137.619C49.9219 135.979 50.2865 134.673 51.0156 133.703C51.7513 132.727 52.7474 132.238 54.0039 132.238C55.4297 132.238 56.5169 132.801 57.2656 133.928V128H58.4277V143H57.334L57.2852 141.594C56.5365 142.661 55.4362 143.195 53.9844 143.195C52.7669 143.195 51.7839 142.707 51.0352 141.73C50.293 140.747 49.9219 139.423 49.9219 137.756V137.619ZM51.1035 137.824C51.1035 139.172 51.3737 140.236 51.9141 141.018C52.4544 141.792 53.2161 142.18 54.1992 142.18C55.638 142.18 56.6602 141.545 57.2656 140.275V135.314C56.6602 133.941 55.6445 133.254 54.2188 133.254C53.2357 133.254 52.4707 133.641 51.9238 134.416C51.377 135.184 51.1035 136.32 51.1035 137.824ZM65.5957 143.195C64.6973 143.195 63.8835 142.974 63.1543 142.531C62.4316 142.089 61.8685 141.473 61.4648 140.686C61.0612 139.891 60.8594 139.003 60.8594 138.02V137.6C60.8594 136.584 61.0547 135.669 61.4453 134.855C61.8424 134.042 62.3926 133.404 63.0957 132.941C63.7988 132.473 64.5605 132.238 65.3809 132.238C66.6634 132.238 67.679 132.678 68.4277 133.557C69.1829 134.429 69.5605 135.624 69.5605 137.141V137.795H62.0215V138.02C62.0215 139.217 62.3633 140.217 63.0469 141.018C63.737 141.812 64.6029 142.209 65.6445 142.209C66.2695 142.209 66.8197 142.095 67.2949 141.867C67.7767 141.639 68.2129 141.275 68.6035 140.773L69.3359 141.33C68.4766 142.574 67.2298 143.195 65.5957 143.195ZM65.3809 133.234C64.502 133.234 63.7598 133.557 63.1543 134.201C62.5553 134.846 62.1908 135.712 62.0605 136.799H68.3984V136.672C68.3659 135.656 68.0762 134.829 67.5293 134.191C66.9824 133.553 66.2663 133.234 65.3809 133.234ZM71.3672 137.619C71.3672 135.979 71.7318 134.673 72.4609 133.703C73.1966 132.727 74.1927 132.238 75.4492 132.238C76.875 132.238 77.9622 132.801 78.7109 133.928V128H79.873V143H78.7793L78.7305 141.594C77.9818 142.661 76.8815 143.195 75.4297 143.195C74.2122 143.195 73.2292 142.707 72.4805 141.73C71.7383 140.747 71.3672 139.423 71.3672 137.756V137.619ZM72.5488 137.824C72.5488 139.172 72.819 140.236 73.3594 141.018C73.8997 141.792 74.6615 142.18 75.6445 142.18C77.0833 142.18 78.1055 141.545 78.7109 140.275V135.314C78.1055 133.941 77.0898 133.254 75.6641 133.254C74.681 133.254 73.916 133.641 73.3691 134.416C72.8223 135.184 72.5488 136.32 72.5488 137.824ZM96.1328 139.504C96.1328 138.716 95.8561 138.094 95.3027 137.639C94.7493 137.176 93.737 136.74 92.2656 136.33C90.7943 135.913 89.7201 135.461 89.043 134.973C88.0794 134.283 87.5977 133.378 87.5977 132.258C87.5977 131.171 88.0436 130.288 88.9355 129.611C89.834 128.928 90.9798 128.586 92.373 128.586C93.3171 128.586 94.1602 128.768 94.9023 129.133C95.651 129.497 96.2305 130.005 96.6406 130.656C97.0508 131.307 97.2559 132.033 97.2559 132.834H96.0449C96.0449 131.864 95.7129 131.086 95.0488 130.5C94.3848 129.908 93.4928 129.611 92.373 129.611C91.2858 129.611 90.4199 129.855 89.7754 130.344C89.1309 130.826 88.8086 131.457 88.8086 132.238C88.8086 132.961 89.0983 133.55 89.6777 134.006C90.2572 134.462 91.1849 134.865 92.4609 135.217C93.737 135.562 94.7038 135.923 95.3613 136.301C96.0189 136.672 96.5137 137.118 96.8457 137.639C97.1777 138.16 97.3438 138.775 97.3438 139.484C97.3438 140.604 96.8945 141.503 95.9961 142.18C95.1042 142.857 93.9258 143.195 92.4609 143.195C91.4583 143.195 90.5371 143.016 89.6973 142.658C88.8639 142.3 88.2292 141.799 87.793 141.154C87.3633 140.51 87.1484 139.771 87.1484 138.938H88.3496C88.3496 139.94 88.724 140.731 89.4727 141.311C90.2214 141.89 91.2174 142.18 92.4609 142.18C93.5677 142.18 94.4564 141.936 95.127 141.447C95.7975 140.959 96.1328 140.311 96.1328 139.504ZM103.574 142.209C104.388 142.209 105.068 141.981 105.615 141.525C106.169 141.063 106.468 140.467 106.514 139.738H107.637C107.604 140.383 107.402 140.972 107.031 141.506C106.66 142.033 106.165 142.447 105.547 142.746C104.935 143.046 104.277 143.195 103.574 143.195C102.188 143.195 101.087 142.714 100.273 141.75C99.4661 140.786 99.0625 139.491 99.0625 137.863V137.512C99.0625 136.47 99.2448 135.549 99.6094 134.748C99.974 133.947 100.495 133.329 101.172 132.893C101.855 132.456 102.653 132.238 103.564 132.238C104.723 132.238 105.677 132.583 106.426 133.273C107.181 133.964 107.585 134.872 107.637 135.998H106.514C106.462 135.171 106.162 134.504 105.615 133.996C105.075 133.488 104.391 133.234 103.564 133.234C102.51 133.234 101.689 133.615 101.104 134.377C100.524 135.139 100.234 136.206 100.234 137.58V137.922C100.234 139.27 100.524 140.321 101.104 141.076C101.689 141.831 102.513 142.209 103.574 142.209ZM111.143 134.221C111.527 133.589 112.018 133.101 112.617 132.756C113.216 132.411 113.87 132.238 114.58 132.238C115.713 132.238 116.556 132.557 117.109 133.195C117.663 133.833 117.943 134.79 117.949 136.066V143H116.787V136.057C116.781 135.113 116.579 134.41 116.182 133.947C115.791 133.485 115.163 133.254 114.297 133.254C113.574 133.254 112.933 133.482 112.373 133.938C111.82 134.387 111.41 134.995 111.143 135.764V143H109.98V128H111.143V134.221ZM125.049 143.195C124.15 143.195 123.337 142.974 122.607 142.531C121.885 142.089 121.322 141.473 120.918 140.686C120.514 139.891 120.312 139.003 120.312 138.02V137.6C120.312 136.584 120.508 135.669 120.898 134.855C121.296 134.042 121.846 133.404 122.549 132.941C123.252 132.473 124.014 132.238 124.834 132.238C126.117 132.238 127.132 132.678 127.881 133.557C128.636 134.429 129.014 135.624 129.014 137.141V137.795H121.475V138.02C121.475 139.217 121.816 140.217 122.5 141.018C123.19 141.812 124.056 142.209 125.098 142.209C125.723 142.209 126.273 142.095 126.748 141.867C127.23 141.639 127.666 141.275 128.057 140.773L128.789 141.33C127.93 142.574 126.683 143.195 125.049 143.195ZM124.834 133.234C123.955 133.234 123.213 133.557 122.607 134.201C122.008 134.846 121.644 135.712 121.514 136.799H127.852V136.672C127.819 135.656 127.529 134.829 126.982 134.191C126.436 133.553 125.719 133.234 124.834 133.234ZM132.354 132.434L132.393 134.152C132.783 133.514 133.271 133.036 133.857 132.717C134.443 132.398 135.094 132.238 135.811 132.238C137.477 132.238 138.535 132.922 138.984 134.289C139.362 133.632 139.867 133.127 140.498 132.775C141.13 132.417 141.826 132.238 142.588 132.238C144.854 132.238 146.009 133.475 146.055 135.949V143H144.883V136.037C144.876 135.093 144.671 134.393 144.268 133.938C143.87 133.482 143.219 133.254 142.314 133.254C141.475 133.267 140.765 133.54 140.186 134.074C139.606 134.602 139.284 135.246 139.219 136.008V143H138.047V135.949C138.04 135.044 137.826 134.37 137.402 133.928C136.986 133.479 136.341 133.254 135.469 133.254C134.733 133.254 134.102 133.465 133.574 133.889C133.047 134.305 132.656 134.927 132.402 135.754V143H131.23V132.434H132.354ZM153.115 143.195C152.217 143.195 151.403 142.974 150.674 142.531C149.951 142.089 149.388 141.473 148.984 140.686C148.581 139.891 148.379 139.003 148.379 138.02V137.6C148.379 136.584 148.574 135.669 148.965 134.855C149.362 134.042 149.912 133.404 150.615 132.941C151.318 132.473 152.08 132.238 152.9 132.238C154.183 132.238 155.199 132.678 155.947 133.557C156.702 134.429 157.08 135.624 157.08 137.141V137.795H149.541V138.02C149.541 139.217 149.883 140.217 150.566 141.018C151.257 141.812 152.122 142.209 153.164 142.209C153.789 142.209 154.339 142.095 154.814 141.867C155.296 141.639 155.732 141.275 156.123 140.773L156.855 141.33C155.996 142.574 154.749 143.195 153.115 143.195ZM152.9 133.234C152.021 133.234 151.279 133.557 150.674 134.201C150.075 134.846 149.71 135.712 149.58 136.799H155.918V136.672C155.885 135.656 155.596 134.829 155.049 134.191C154.502 133.553 153.786 133.234 152.9 133.234Z" fill="black"/>
<path d="M12.3828 238H11.1816L3.00781 225.832V238H1.79688V223.781H3.00781L11.1914 235.959V223.781H12.3828V238ZM19.8145 238.195C18.916 238.195 18.1022 237.974 17.373 237.531C16.6504 237.089 16.0872 236.473 15.6836 235.686C15.2799 234.891 15.0781 234.003 15.0781 233.02V232.6C15.0781 231.584 15.2734 230.669 15.6641 229.855C16.0612 229.042 16.6113 228.404 17.3145 227.941C18.0176 227.473 18.7793 227.238 19.5996 227.238C20.8822 227.238 21.8978 227.678 22.6465 228.557C23.4017 229.429 23.7793 230.624 23.7793 232.141V232.795H16.2402V233.02C16.2402 234.217 16.582 235.217 17.2656 236.018C17.9557 236.812 18.8216 237.209 19.8633 237.209C20.4883 237.209 21.0384 237.095 21.5137 236.867C21.9954 236.639 22.4316 236.275 22.8223 235.773L23.5547 236.33C22.6953 237.574 21.4486 238.195 19.8145 238.195ZM19.5996 228.234C18.7207 228.234 17.9785 228.557 17.373 229.201C16.7741 229.846 16.4095 230.712 16.2793 231.799H22.6172V231.672C22.5846 230.656 22.2949 229.829 21.748 229.191C21.2012 228.553 20.485 228.234 19.5996 228.234ZM32.8516 236.662C32.1484 237.684 31.0254 238.195 29.4824 238.195C28.3561 238.195 27.5 237.87 26.9141 237.219C26.3281 236.561 26.0286 235.591 26.0156 234.309V227.434H27.1777V234.162C27.1777 236.174 27.9915 237.18 29.6191 237.18C31.3118 237.18 32.3828 236.48 32.832 235.08V227.434H34.0039V238H32.8711L32.8516 236.662ZM38.8672 224.729V227.434H41.0547V228.391H38.8672V235.432C38.8672 236.018 38.9714 236.454 39.1797 236.74C39.3945 237.027 39.7493 237.17 40.2441 237.17C40.4395 237.17 40.7552 237.137 41.1914 237.072L41.2402 238.029C40.9342 238.14 40.5176 238.195 39.9902 238.195C39.1895 238.195 38.6068 237.964 38.2422 237.502C37.8776 237.033 37.6953 236.346 37.6953 235.441V228.391H35.752V227.434H37.6953V224.729H38.8672ZM48.3594 228.43C48.112 228.384 47.8483 228.361 47.5684 228.361C46.8392 228.361 46.2207 228.566 45.7129 228.977C45.2116 229.38 44.8535 229.969 44.6387 230.744V238H43.4766V227.434H44.6191L44.6387 229.113C45.2572 227.863 46.25 227.238 47.6172 227.238C47.9427 227.238 48.1999 227.281 48.3887 227.365L48.3594 228.43ZM56.4941 238C56.377 237.668 56.3021 237.176 56.2695 236.525C55.8594 237.059 55.3353 237.473 54.6973 237.766C54.0658 238.052 53.3952 238.195 52.6855 238.195C51.6699 238.195 50.8464 237.912 50.2148 237.346C49.5898 236.779 49.2773 236.063 49.2773 235.197C49.2773 234.169 49.7038 233.355 50.5566 232.756C51.416 232.157 52.6107 231.857 54.1406 231.857H56.2598V230.656C56.2598 229.901 56.0254 229.309 55.5566 228.879C55.0944 228.443 54.4173 228.225 53.5254 228.225C52.7116 228.225 52.0378 228.433 51.5039 228.85C50.9701 229.266 50.7031 229.768 50.7031 230.354L49.5312 230.344C49.5312 229.504 49.9219 228.778 50.7031 228.166C51.4844 227.548 52.4447 227.238 53.584 227.238C54.7624 227.238 55.6901 227.535 56.3672 228.127C57.0508 228.713 57.4023 229.533 57.4219 230.588V235.588C57.4219 236.61 57.5293 237.375 57.7441 237.883V238H56.4941ZM52.8223 237.16C53.6035 237.16 54.3001 236.971 54.9121 236.594C55.5306 236.216 55.9798 235.712 56.2598 235.08V232.756H54.1699C53.0046 232.769 52.0931 232.984 51.4355 233.4C50.778 233.811 50.4492 234.377 50.4492 235.1C50.4492 235.692 50.6673 236.184 51.1035 236.574C51.5462 236.965 52.1191 237.16 52.8223 237.16ZM61.8555 238H60.6836V223H61.8555V238ZM71.3672 235.314C71.3672 234.735 71.1328 234.27 70.6641 233.918C70.2018 233.566 69.502 233.293 68.5645 233.098C67.627 232.896 66.8978 232.668 66.377 232.414C65.8626 232.154 65.4785 231.838 65.2246 231.467C64.9772 231.096 64.8535 230.646 64.8535 230.119C64.8535 229.286 65.2018 228.599 65.8984 228.059C66.5951 227.512 67.487 227.238 68.5742 227.238C69.7526 227.238 70.6966 227.531 71.4062 228.117C72.1224 228.697 72.4805 229.455 72.4805 230.393H71.3086C71.3086 229.774 71.0482 229.26 70.5273 228.85C70.013 228.439 69.362 228.234 68.5742 228.234C67.806 228.234 67.1875 228.407 66.7188 228.752C66.2565 229.09 66.0254 229.533 66.0254 230.08C66.0254 230.607 66.2174 231.018 66.6016 231.311C66.9922 231.597 67.6986 231.861 68.7207 232.102C69.7493 232.342 70.5176 232.6 71.0254 232.873C71.5397 233.146 71.9206 233.475 72.168 233.859C72.4154 234.243 72.5391 234.709 72.5391 235.256C72.5391 236.148 72.1777 236.861 71.4551 237.395C70.7389 237.928 69.8014 238.195 68.6426 238.195C67.4121 238.195 66.4128 237.899 65.6445 237.307C64.8828 236.708 64.502 235.952 64.502 235.041H65.6738C65.7194 235.725 66.0059 236.258 66.5332 236.643C67.0671 237.02 67.7702 237.209 68.6426 237.209C69.4564 237.209 70.1139 237.03 70.6152 236.672C71.1165 236.314 71.3672 235.861 71.3672 235.314Z" fill="black"/>
<path d="M9.84375 320.504C9.84375 319.716 9.56706 319.094 9.01367 318.639C8.46029 318.176 7.44792 317.74 5.97656 317.33C4.50521 316.913 3.43099 316.461 2.75391 315.973C1.79036 315.283 1.30859 314.378 1.30859 313.258C1.30859 312.171 1.75456 311.288 2.64648 310.611C3.54492 309.928 4.69076 309.586 6.08398 309.586C7.02799 309.586 7.87109 309.768 8.61328 310.133C9.36198 310.497 9.94141 311.005 10.3516 311.656C10.7617 312.307 10.9668 313.033 10.9668 313.834H9.75586C9.75586 312.864 9.42383 312.086 8.75977 311.5C8.0957 310.908 7.20378 310.611 6.08398 310.611C4.99674 310.611 4.13086 310.855 3.48633 311.344C2.8418 311.826 2.51953 312.457 2.51953 313.238C2.51953 313.961 2.80924 314.55 3.38867 315.006C3.9681 315.462 4.89583 315.865 6.17188 316.217C7.44792 316.562 8.41471 316.923 9.07227 317.301C9.72982 317.672 10.2246 318.118 10.5566 318.639C10.8887 319.16 11.0547 319.775 11.0547 320.484C11.0547 321.604 10.6055 322.503 9.70703 323.18C8.8151 323.857 7.63672 324.195 6.17188 324.195C5.16927 324.195 4.24805 324.016 3.4082 323.658C2.57487 323.3 1.9401 322.799 1.50391 322.154C1.07422 321.51 0.859375 320.771 0.859375 319.938H2.06055C2.06055 320.94 2.4349 321.731 3.18359 322.311C3.93229 322.89 4.92839 323.18 6.17188 323.18C7.27865 323.18 8.16732 322.936 8.83789 322.447C9.50846 321.959 9.84375 321.311 9.84375 320.504ZM20.1758 322.662C19.4727 323.684 18.3496 324.195 16.8066 324.195C15.6803 324.195 14.8242 323.87 14.2383 323.219C13.6523 322.561 13.3529 321.591 13.3398 320.309V313.434H14.502V320.162C14.502 322.174 15.3158 323.18 16.9434 323.18C18.6361 323.18 19.707 322.48 20.1562 321.08V313.434H21.3281V324H20.1953L20.1758 322.662ZM28.2812 323.209C29.0951 323.209 29.7754 322.981 30.3223 322.525C30.8757 322.063 31.1751 321.467 31.2207 320.738H32.3438C32.3112 321.383 32.1094 321.972 31.7383 322.506C31.3672 323.033 30.8724 323.447 30.2539 323.746C29.6419 324.046 28.9844 324.195 28.2812 324.195C26.8945 324.195 25.7943 323.714 24.9805 322.75C24.1732 321.786 23.7695 320.491 23.7695 318.863V318.512C23.7695 317.47 23.9518 316.549 24.3164 315.748C24.681 314.947 25.2018 314.329 25.8789 313.893C26.5625 313.456 27.36 313.238 28.2715 313.238C29.4303 313.238 30.3841 313.583 31.1328 314.273C31.888 314.964 32.2917 315.872 32.3438 316.998H31.2207C31.1686 316.171 30.8691 315.504 30.3223 314.996C29.7819 314.488 29.0983 314.234 28.2715 314.234C27.2168 314.234 26.3965 314.615 25.8105 315.377C25.2311 316.139 24.9414 317.206 24.9414 318.58V318.922C24.9414 320.27 25.2311 321.321 25.8105 322.076C26.3965 322.831 27.2201 323.209 28.2812 323.209ZM38.5938 323.209C39.4076 323.209 40.0879 322.981 40.6348 322.525C41.1882 322.063 41.4876 321.467 41.5332 320.738H42.6562C42.6237 321.383 42.4219 321.972 42.0508 322.506C41.6797 323.033 41.1849 323.447 40.5664 323.746C39.9544 324.046 39.2969 324.195 38.5938 324.195C37.207 324.195 36.1068 323.714 35.293 322.75C34.4857 321.786 34.082 320.491 34.082 318.863V318.512C34.082 317.47 34.2643 316.549 34.6289 315.748C34.9935 314.947 35.5143 314.329 36.1914 313.893C36.875 313.456 37.6725 313.238 38.584 313.238C39.7428 313.238 40.6966 313.583 41.4453 314.273C42.2005 314.964 42.6042 315.872 42.6562 316.998H41.5332C41.4811 316.171 41.1816 315.504 40.6348 314.996C40.0944 314.488 39.4108 314.234 38.584 314.234C37.5293 314.234 36.709 314.615 36.123 315.377C35.5436 316.139 35.2539 317.206 35.2539 318.58V318.922C35.2539 320.27 35.5436 321.321 36.123 322.076C36.709 322.831 37.5326 323.209 38.5938 323.209ZM49.0918 324.195C48.1934 324.195 47.3796 323.974 46.6504 323.531C45.9277 323.089 45.3646 322.473 44.9609 321.686C44.5573 320.891 44.3555 320.003 44.3555 319.02V318.6C44.3555 317.584 44.5508 316.669 44.9414 315.855C45.3385 315.042 45.8887 314.404 46.5918 313.941C47.2949 313.473 48.0566 313.238 48.877 313.238C50.1595 313.238 51.1751 313.678 51.9238 314.557C52.679 315.429 53.0566 316.624 53.0566 318.141V318.795H45.5176V319.02C45.5176 320.217 45.8594 321.217 46.543 322.018C47.2331 322.812 48.099 323.209 49.1406 323.209C49.7656 323.209 50.3158 323.095 50.791 322.867C51.2728 322.639 51.709 322.275 52.0996 321.773L52.832 322.33C51.9727 323.574 50.7259 324.195 49.0918 324.195ZM48.877 314.234C47.998 314.234 47.2559 314.557 46.6504 315.201C46.0514 315.846 45.6868 316.712 45.5566 317.799H51.8945V317.672C51.862 316.656 51.5723 315.829 51.0254 315.191C50.4785 314.553 49.7624 314.234 48.877 314.234ZM61.6602 321.314C61.6602 320.735 61.4258 320.27 60.957 319.918C60.4948 319.566 59.7949 319.293 58.8574 319.098C57.9199 318.896 57.1908 318.668 56.6699 318.414C56.1556 318.154 55.7715 317.838 55.5176 317.467C55.2702 317.096 55.1465 316.646 55.1465 316.119C55.1465 315.286 55.4948 314.599 56.1914 314.059C56.888 313.512 57.7799 313.238 58.8672 313.238C60.0456 313.238 60.9896 313.531 61.6992 314.117C62.4154 314.697 62.7734 315.455 62.7734 316.393H61.6016C61.6016 315.774 61.3411 315.26 60.8203 314.85C60.306 314.439 59.6549 314.234 58.8672 314.234C58.099 314.234 57.4805 314.407 57.0117 314.752C56.5495 315.09 56.3184 315.533 56.3184 316.08C56.3184 316.607 56.5104 317.018 56.8945 317.311C57.2852 317.597 57.9915 317.861 59.0137 318.102C60.0423 318.342 60.8105 318.6 61.3184 318.873C61.8327 319.146 62.2135 319.475 62.4609 319.859C62.7083 320.243 62.832 320.709 62.832 321.256C62.832 322.148 62.4707 322.861 61.748 323.395C61.0319 323.928 60.0944 324.195 58.9355 324.195C57.7051 324.195 56.7057 323.899 55.9375 323.307C55.1758 322.708 54.7949 321.952 54.7949 321.041H55.9668C56.0124 321.725 56.2988 322.258 56.8262 322.643C57.36 323.02 58.0632 323.209 58.9355 323.209C59.7493 323.209 60.4069 323.03 60.9082 322.672C61.4095 322.314 61.6602 321.861 61.6602 321.314ZM71.7969 321.314C71.7969 320.735 71.5625 320.27 71.0938 319.918C70.6315 319.566 69.9316 319.293 68.9941 319.098C68.0566 318.896 67.3275 318.668 66.8066 318.414C66.2923 318.154 65.9082 317.838 65.6543 317.467C65.4069 317.096 65.2832 316.646 65.2832 316.119C65.2832 315.286 65.6315 314.599 66.3281 314.059C67.0247 313.512 67.9167 313.238 69.0039 313.238C70.1823 313.238 71.1263 313.531 71.8359 314.117C72.5521 314.697 72.9102 315.455 72.9102 316.393H71.7383C71.7383 315.774 71.4779 315.26 70.957 314.85C70.4427 314.439 69.7917 314.234 69.0039 314.234C68.2357 314.234 67.6172 314.407 67.1484 314.752C66.6862 315.09 66.4551 315.533 66.4551 316.08C66.4551 316.607 66.6471 317.018 67.0312 317.311C67.4219 317.597 68.1283 317.861 69.1504 318.102C70.179 318.342 70.9473 318.6 71.4551 318.873C71.9694 319.146 72.3503 319.475 72.5977 319.859C72.8451 320.243 72.9688 320.709 72.9688 321.256C72.9688 322.148 72.6074 322.861 71.8848 323.395C71.1686 323.928 70.2311 324.195 69.0723 324.195C67.8418 324.195 66.8424 323.899 66.0742 323.307C65.3125 322.708 64.9316 321.952 64.9316 321.041H66.1035C66.1491 321.725 66.4355 322.258 66.9629 322.643C67.4967 323.02 68.1999 323.209 69.0723 323.209C69.8861 323.209 70.5436 323.03 71.0449 322.672C71.5462 322.314 71.7969 321.861 71.7969 321.314ZM75.4395 325.221H74.375L80.3125 309.781H81.3672L75.4395 325.221ZM91.6797 317.184H85.0293V322.984H92.6758V324H83.8281V309.781H92.627V310.807H85.0293V316.168H91.6797V317.184ZM99.8242 314.43C99.5768 314.384 99.3132 314.361 99.0332 314.361C98.304 314.361 97.6855 314.566 97.1777 314.977C96.6764 315.38 96.3184 315.969 96.1035 316.744V324H94.9414V313.434H96.084L96.1035 315.113C96.722 313.863 97.7148 313.238 99.082 313.238C99.4076 313.238 99.6647 313.281 99.8535 313.365L99.8242 314.43ZM106.562 314.43C106.315 314.384 106.051 314.361 105.771 314.361C105.042 314.361 104.424 314.566 103.916 314.977C103.415 315.38 103.057 315.969 102.842 316.744V324H101.68V313.434H102.822L102.842 315.113C103.46 313.863 104.453 313.238 105.82 313.238C106.146 313.238 106.403 313.281 106.592 313.365L106.562 314.43ZM107.578 318.561C107.578 317.545 107.773 316.63 108.164 315.816C108.561 315.003 109.118 314.371 109.834 313.922C110.557 313.466 111.374 313.238 112.285 313.238C113.691 313.238 114.831 313.733 115.703 314.723C116.576 315.706 117.012 317.011 117.012 318.639V318.883C117.012 319.905 116.813 320.826 116.416 321.646C116.025 322.46 115.472 323.089 114.756 323.531C114.04 323.974 113.223 324.195 112.305 324.195C110.905 324.195 109.766 323.704 108.887 322.721C108.014 321.731 107.578 320.423 107.578 318.795V318.561ZM108.75 318.883C108.75 320.146 109.076 321.184 109.727 321.998C110.384 322.805 111.243 323.209 112.305 323.209C113.359 323.209 114.212 322.805 114.863 321.998C115.521 321.184 115.85 320.113 115.85 318.785V318.561C115.85 317.753 115.7 317.014 115.4 316.344C115.101 315.673 114.681 315.156 114.141 314.791C113.6 314.42 112.982 314.234 112.285 314.234C111.243 314.234 110.394 314.645 109.736 315.465C109.079 316.279 108.75 317.346 108.75 318.668V318.883ZM124.316 314.43C124.069 314.384 123.805 314.361 123.525 314.361C122.796 314.361 122.178 314.566 121.67 314.977C121.169 315.38 120.811 315.969 120.596 316.744V324H119.434V313.434H120.576L120.596 315.113C121.214 313.863 122.207 313.238 123.574 313.238C123.9 313.238 124.157 313.281 124.346 313.365L124.316 314.43Z" fill="black"/>
<defs>
<filter id="filter0_d" x="331.561" y="104.388" width="72.1423" height="72.1423" filterUnits="userSpaceOnUse" color-interpolation-filters="sRGB">
<feFlood flood-opacity="0" result="BackgroundImageFix"/>
<feColorMatrix in="SourceAlpha" type="matrix" values="0 0 0 0 0 0 0 0 0 0 0 0 0 0 0 0 0 0 127 0"/>
<feOffset dy="4"/>
<feGaussianBlur stdDeviation="2"/>
<feColorMatrix type="matrix" values="0 0 0 0 0 0 0 0 0 0 0 0 0 0 0 0 0 0 0.25 0"/>
<feBlend mode="normal" in2="BackgroundImageFix" result="effect1_dropShadow"/>
<feBlend mode="normal" in="SourceGraphic" in2="effect1_dropShadow" result="shape"/>
</filter>
<filter id="filter1_d" x="410.797" y="104.388" width="72.1423" height="72.1423" filterUnits="userSpaceOnUse" color-interpolation-filters="sRGB">
<feFlood flood-opacity="0" result="BackgroundImageFix"/>
<feColorMatrix in="SourceAlpha" type="matrix" values="0 0 0 0 0 0 0 0 0 0 0 0 0 0 0 0 0 0 127 0"/>
<feOffset dy="4"/>
<feGaussianBlur stdDeviation="2"/>
<feColorMatrix type="matrix" values="0 0 0 0 0 0 0 0 0 0 0 0 0 0 0 0 0 0 0.25 0"/>
<feBlend mode="normal" in2="BackgroundImageFix" result="effect1_dropShadow"/>
<feBlend mode="normal" in="SourceGraphic" in2="effect1_dropShadow" result="shape"/>
</filter>
<filter id="filter2_d" x="169.318" y="104.388" width="72.1423" height="72.1423" filterUnits="userSpaceOnUse" color-interpolation-filters="sRGB">
<feFlood flood-opacity="0" result="BackgroundImageFix"/>
<feColorMatrix in="SourceAlpha" type="matrix" values="0 0 0 0 0 0 0 0 0 0 0 0 0 0 0 0 0 0 127 0"/>
<feOffset dy="4"/>
<feGaussianBlur stdDeviation="2"/>
<feColorMatrix type="matrix" values="0 0 0 0 0 0 0 0 0 0 0 0 0 0 0 0 0 0 0.25 0"/>
<feBlend mode="normal" in2="BackgroundImageFix" result="effect1_dropShadow"/>
<feBlend mode="normal" in="SourceGraphic" in2="effect1_dropShadow" result="shape"/>
</filter>
<filter id="filter3_d" x="246.039" y="104.388" width="73.4" height="72.1423" filterUnits="userSpaceOnUse" color-interpolation-filters="sRGB">
<feFlood flood-opacity="0" result="BackgroundImageFix"/>
<feColorMatrix in="SourceAlpha" type="matrix" values="0 0 0 0 0 0 0 0 0 0 0 0 0 0 0 0 0 0 127 0"/>
<feOffset dy="4"/>
<feGaussianBlur stdDeviation="2"/>
<feColorMatrix type="matrix" values="0 0 0 0 0 0 0 0 0 0 0 0 0 0 0 0 0 0 0.25 0"/>
<feBlend mode="normal" in2="BackgroundImageFix" result="effect1_dropShadow"/>
<feBlend mode="normal" in="SourceGraphic" in2="effect1_dropShadow" result="shape"/>
</filter>
<filter id="filter4_d" x="251.068" y="291.784" width="72.1423" height="72.1423" filterUnits="userSpaceOnUse" color-interpolation-filters="sRGB">
<feFlood flood-opacity="0" result="BackgroundImageFix"/>
<feColorMatrix in="SourceAlpha" type="matrix" values="0 0 0 0 0 0 0 0 0 0 0 0 0 0 0 0 0 0 127 0"/>
<feOffset dy="4"/>
<feGaussianBlur stdDeviation="2"/>
<feColorMatrix type="matrix" values="0 0 0 0 0 0 0 0 0 0 0 0 0 0 0 0 0 0 0.25 0"/>
<feBlend mode="normal" in2="BackgroundImageFix" result="effect1_dropShadow"/>
<feBlend mode="normal" in="SourceGraphic" in2="effect1_dropShadow" result="shape"/>
</filter>
<filter id="filter5_d" x="327.789" y="291.784" width="73.4" height="72.1423" filterUnits="userSpaceOnUse" color-interpolation-filters="sRGB">
<feFlood flood-opacity="0" result="BackgroundImageFix"/>
<feColorMatrix in="SourceAlpha" type="matrix" values="0 0 0 0 0 0 0 0 0 0 0 0 0 0 0 0 0 0 127 0"/>
<feOffset dy="4"/>
<feGaussianBlur stdDeviation="2"/>
<feColorMatrix type="matrix" values="0 0 0 0 0 0 0 0 0 0 0 0 0 0 0 0 0 0 0.25 0"/>
<feBlend mode="normal" in2="BackgroundImageFix" result="effect1_dropShadow"/>
<feBlend mode="normal" in="SourceGraphic" in2="effect1_dropShadow" result="shape"/>
</filter>
<filter id="filter6_d" x="330.303" y="11.3193" width="72.1423" height="72.1423" filterUnits="userSpaceOnUse" color-interpolation-filters="sRGB">
<feFlood flood-opacity="0" result="BackgroundImageFix"/>
<feColorMatrix in="SourceAlpha" type="matrix" values="0 0 0 0 0 0 0 0 0 0 0 0 0 0 0 0 0 0 127 0"/>
<feOffset dy="4"/>
<feGaussianBlur stdDeviation="2"/>
<feColorMatrix type="matrix" values="0 0 0 0 0 0 0 0 0 0 0 0 0 0 0 0 0 0 0.25 0"/>
<feBlend mode="normal" in2="BackgroundImageFix" result="effect1_dropShadow"/>
<feBlend mode="normal" in="SourceGraphic" in2="effect1_dropShadow" result="shape"/>
</filter>
<filter id="filter7_d" x="249.811" y="11.3196" width="73.4" height="72.1423" filterUnits="userSpaceOnUse" color-interpolation-filters="sRGB">
<feFlood flood-opacity="0" result="BackgroundImageFix"/>
<feColorMatrix in="SourceAlpha" type="matrix" values="0 0 0 0 0 0 0 0 0 0 0 0 0 0 0 0 0 0 127 0"/>
<feOffset dy="4"/>
<feGaussianBlur stdDeviation="2"/>
<feColorMatrix type="matrix" values="0 0 0 0 0 0 0 0 0 0 0 0 0 0 0 0 0 0 0.25 0"/>
<feBlend mode="normal" in2="BackgroundImageFix" result="effect1_dropShadow"/>
<feBlend mode="normal" in="SourceGraphic" in2="effect1_dropShadow" result="shape"/>
</filter>
<filter id="filter8_d" x="171.836" y="198.716" width="72.1423" height="72.1423" filterUnits="userSpaceOnUse" color-interpolation-filters="sRGB">
<feFlood flood-opacity="0" result="BackgroundImageFix"/>
<feColorMatrix in="SourceAlpha" type="matrix" values="0 0 0 0 0 0 0 0 0 0 0 0 0 0 0 0 0 0 127 0"/>
<feOffset dy="4"/>
<feGaussianBlur stdDeviation="2"/>
<feColorMatrix type="matrix" values="0 0 0 0 0 0 0 0 0 0 0 0 0 0 0 0 0 0 0.25 0"/>
<feBlend mode="normal" in2="BackgroundImageFix" result="effect1_dropShadow"/>
<feBlend mode="normal" in="SourceGraphic" in2="effect1_dropShadow" result="shape"/>
</filter>
<filter id="filter9_d" x="251.068" y="198.715" width="73.4" height="72.1423" filterUnits="userSpaceOnUse" color-interpolation-filters="sRGB">
<feFlood flood-opacity="0" result="BackgroundImageFix"/>
<feColorMatrix in="SourceAlpha" type="matrix" values="0 0 0 0 0 0 0 0 0 0 0 0 0 0 0 0 0 0 127 0"/>
<feOffset dy="4"/>
<feGaussianBlur stdDeviation="2"/>
<feColorMatrix type="matrix" values="0 0 0 0 0 0 0 0 0 0 0 0 0 0 0 0 0 0 0.25 0"/>
<feBlend mode="normal" in2="BackgroundImageFix" result="effect1_dropShadow"/>
<feBlend mode="normal" in="SourceGraphic" in2="effect1_dropShadow" result="shape"/>
</filter>
<filter id="filter10_d" x="331.561" y="198.715" width="72.1423" height="72.1423" filterUnits="userSpaceOnUse" color-interpolation-filters="sRGB">
<feFlood flood-opacity="0" result="BackgroundImageFix"/>
<feColorMatrix in="SourceAlpha" type="matrix" values="0 0 0 0 0 0 0 0 0 0 0 0 0 0 0 0 0 0 127 0"/>
<feOffset dy="4"/>
<feGaussianBlur stdDeviation="2"/>
<feColorMatrix type="matrix" values="0 0 0 0 0 0 0 0 0 0 0 0 0 0 0 0 0 0 0.25 0"/>
<feBlend mode="normal" in2="BackgroundImageFix" result="effect1_dropShadow"/>
<feBlend mode="normal" in="SourceGraphic" in2="effect1_dropShadow" result="shape"/>
</filter>
<filter id="filter11_d" x="408.281" y="198.715" width="72.1423" height="72.1423" filterUnits="userSpaceOnUse" color-interpolation-filters="sRGB">
<feFlood flood-opacity="0" result="BackgroundImageFix"/>
<feColorMatrix in="SourceAlpha" type="matrix" values="0 0 0 0 0 0 0 0 0 0 0 0 0 0 0 0 0 0 127 0"/>
<feOffset dy="4"/>
<feGaussianBlur stdDeviation="2"/>
<feColorMatrix type="matrix" values="0 0 0 0 0 0 0 0 0 0 0 0 0 0 0 0 0 0 0.25 0"/>
<feBlend mode="normal" in2="BackgroundImageFix" result="effect1_dropShadow"/>
<feBlend mode="normal" in="SourceGraphic" in2="effect1_dropShadow" result="shape"/>
</filter>
</defs>
</svg>
