<svg width="187" height="125" viewBox="0 0 187 125" fill="none" xmlns="http://www.w3.org/2000/svg">
<path opacity="0.9" d="M60.365 105.75L65.4004 111.793L64.6857 112.65L59.6504 106.607L60.365 105.75Z" fill="#676767"/>
<path opacity="0.9" d="M52.0314 105.75L52.75 106.612L47.7186 112.65L47 111.79L52.0314 105.75Z" fill="#676767"/>
<path d="M56.1725 109.2C55.3487 109.2 54.4698 108.89 53.8657 108.271L47 101.872L47.769 101.15L54.6346 107.6C55.5134 108.426 56.8866 108.426 57.7654 107.6L64.631 101.15L65.4 101.872L58.4794 108.323C57.8752 108.89 56.9964 109.2 56.1725 109.2V109.2Z" fill="#373737"/>
<path d="M63.7765 113.8H48.6235C47.7035 113.8 47 113.11 47 112.208V101.592C47 100.69 47.7035 100 48.6235 100H63.7765C64.6965 100 65.4 100.69 65.4 101.592V112.208C65.4 113.11 64.6965 113.8 63.7765 113.8ZM48.6235 101.062C48.2988 101.062 48.0824 101.274 48.0824 101.592V112.208C48.0824 112.526 48.2988 112.738 48.6235 112.738H63.7765C64.1012 112.738 64.3176 112.526 64.3176 112.208V101.592C64.3176 101.274 64.1012 101.062 63.7765 101.062H48.6235Z" fill="#676767"/>
<path d="M133.04 101.405L133.04 101.405L133.041 101.409C133.239 102.031 133.811 102.508 134.515 102.508H140.035C140.153 102.508 140.236 102.553 140.294 102.618C140.359 102.689 140.4 102.79 140.4 102.897C140.4 103.029 140.353 103.126 140.249 103.202L140.243 103.206L140.236 103.211L135.772 106.633C135.227 107.031 135.002 107.76 135.202 108.392C135.202 108.393 135.202 108.394 135.203 108.395L136.901 113.881L136.901 113.881L136.904 113.89C136.966 114.08 136.897 114.239 136.779 114.329C136.667 114.414 136.53 114.431 136.389 114.324C136.388 114.324 136.388 114.324 136.388 114.324L131.92 110.92L131.913 110.915L131.907 110.911C131.361 110.518 130.639 110.518 130.093 110.911L130.087 110.915L130.08 110.92L125.61 114.325L125.61 114.325L125.603 114.33C125.533 114.385 125.473 114.4 125.428 114.4C125.234 114.4 125.009 114.186 125.1 113.878C125.1 113.877 125.1 113.876 125.101 113.876L126.797 108.373C126.798 108.372 126.798 108.371 126.798 108.37C126.998 107.737 126.773 107.009 126.227 106.611L121.762 103.21L121.757 103.206L121.751 103.202C121.652 103.13 121.6 103.014 121.6 102.897C121.6 102.78 121.643 102.668 121.707 102.593C121.764 102.527 121.837 102.486 121.944 102.486H127.464C128.139 102.486 128.737 102.017 128.938 101.387L128.938 101.387L128.939 101.384L130.659 95.874C130.659 95.8735 130.659 95.8731 130.659 95.8726C130.725 95.6677 130.867 95.6 130.99 95.6C131.112 95.6 131.254 95.6676 131.32 95.8724C131.32 95.8729 131.32 95.8734 131.32 95.874L133.04 101.405Z" stroke="#373737" stroke-width="1.2"/>
<path d="M92.5757 96.1757L88.7574 99.9941C88.523 100.228 88.523 100.608 88.7574 100.843C88.9917 101.077 89.3716 101.077 89.6059 100.843L92.4 98.0485L92.4 109.6H93.6V98.0485L96.3941 100.843C96.6284 101.077 97.0083 101.077 97.2426 100.843C97.477 100.608 97.477 100.228 97.2426 99.9941L93.4243 96.1757C93.1899 95.9414 92.8101 95.9414 92.5757 96.1757ZM83 105.2C83 104.869 83.2686 104.6 83.6 104.6C83.9314 104.6 84.2 104.869 84.2 105.2V110.6C84.2 112.146 85.4536 113.4 87 113.4H99C100.546 113.4 101.8 112.146 101.8 110.6V105.2C101.8 104.869 102.069 104.6 102.4 104.6C102.731 104.6 103 104.869 103 105.2V110.6C103 112.809 101.209 114.6 99 114.6H87C84.7909 114.6 83 112.809 83 110.6V105.2Z" fill="#373737"/>
<path d="M92.5757 96.1757L88.7574 99.9941C88.523 100.228 88.523 100.608 88.7574 100.843C88.9917 101.077 89.3716 101.077 89.6059 100.843L92.4 98.0485L92.4 109.6H93.6V98.0485L96.3941 100.843C96.6284 101.077 97.0083 101.077 97.2426 100.843C97.477 100.608 97.477 100.228 97.2426 99.9941L93.4243 96.1757C93.1899 95.9414 92.8101 95.9414 92.5757 96.1757ZM83 105.2C83 104.869 83.2686 104.6 83.6 104.6C83.9314 104.6 84.2 104.869 84.2 105.2V110.6C84.2 112.146 85.4536 113.4 87 113.4H99C100.546 113.4 101.8 112.146 101.8 110.6V105.2C101.8 104.869 102.069 104.6 102.4 104.6C102.731 104.6 103 104.869 103 105.2V110.6C103 112.809 101.209 114.6 99 114.6H87C84.7909 114.6 83 112.809 83 110.6V105.2Z" stroke="#373737"/>
<path d="M177.614 97H160.432C159.641 97 159 97.6509 159 98.4538V110.085C159 110.888 159.641 111.538 160.432 111.538H161.864V113.882C161.864 114.709 162.811 115.178 163.469 114.677L167.591 111.538H177.614C178.404 111.538 179.045 110.888 179.045 110.085V98.4538C179.045 97.6509 178.404 97 177.614 97ZM177.614 110.085H167.204L163.338 112.992V110.085H160.432V98.4538H177.614V110.085ZM164.022 102.088C163.621 102.088 163.295 102.414 163.295 102.815V102.815C163.295 103.217 163.621 103.542 164.022 103.542H174.023C174.425 103.542 174.75 103.217 174.75 102.815V102.815C174.75 102.414 174.425 102.088 174.023 102.088H164.022ZM164.022 104.996C163.621 104.996 163.295 105.322 163.295 105.723V105.723C163.295 106.125 163.621 106.45 164.022 106.45H168.296C168.697 106.45 169.023 106.125 169.023 105.723V105.723C169.023 105.322 168.697 104.996 168.296 104.996H164.022Z" fill="#676767"/>
<path fill-rule="evenodd" clip-rule="evenodd" d="M160.429 97H177.571C178.36 97 179 97.6509 179 98.4538V110.085C179 110.888 178.36 111.538 177.571 111.538H167.571L163.464 114.674C162.806 115.176 161.857 114.707 161.857 113.879V111.538H160.429C159.64 111.538 159 110.888 159 110.085V98.4538C159 97.6509 159.64 97 160.429 97ZM167.186 110.085H177.571V98.4538H160.429V110.085H163.329V112.992L167.186 110.085Z" fill="#373737"/>
<mask id="path-14-inside-1" fill="white">
<path fill-rule="evenodd" clip-rule="evenodd" d="M25 96.2H13C11.4536 96.2 10.2 97.4536 10.2 99V111C10.2 112.546 11.4536 113.8 13 113.8H25C26.5464 113.8 27.8 112.546 27.8 111V99C27.8 97.4536 26.5464 96.2 25 96.2ZM13 95C10.7909 95 9 96.7909 9 99V111C9 113.209 10.7909 115 13 115H25C27.2091 115 29 113.209 29 111V99C29 96.7909 27.2091 95 25 95H13Z"/>
</mask>
<path fill-rule="evenodd" clip-rule="evenodd" d="M25 96.2H13C11.4536 96.2 10.2 97.4536 10.2 99V111C10.2 112.546 11.4536 113.8 13 113.8H25C26.5464 113.8 27.8 112.546 27.8 111V99C27.8 97.4536 26.5464 96.2 25 96.2ZM13 95C10.7909 95 9 96.7909 9 99V111C9 113.209 10.7909 115 13 115H25C27.2091 115 29 113.209 29 111V99C29 96.7909 27.2091 95 25 95H13Z" fill="#373737"/>
<path d="M13 97.4H25V95H13V97.4ZM11.4 99C11.4 98.1163 12.1163 97.4 13 97.4V95C10.7909 95 9 96.7909 9 99H11.4ZM11.4 111V99H9V111H11.4ZM13 112.6C12.1163 112.6 11.4 111.884 11.4 111H9C9 113.209 10.7909 115 13 115V112.6ZM25 112.6H13V115H25V112.6ZM26.6 111C26.6 111.884 25.8837 112.6 25 112.6V115C27.2091 115 29 113.209 29 111H26.6ZM26.6 99V111H29V99H26.6ZM25 97.4C25.8837 97.4 26.6 98.1163 26.6 99H29C29 96.7909 27.2091 95 25 95V97.4ZM10.2 99C10.2 97.4536 11.4536 96.2 13 96.2V93.8C10.1281 93.8 7.8 96.1281 7.8 99H10.2ZM10.2 111V99H7.8V111H10.2ZM13 113.8C11.4536 113.8 10.2 112.546 10.2 111H7.8C7.8 113.872 10.1281 116.2 13 116.2V113.8ZM25 113.8H13V116.2H25V113.8ZM27.8 111C27.8 112.546 26.5464 113.8 25 113.8V116.2C27.8719 116.2 30.2 113.872 30.2 111H27.8ZM27.8 99V111H30.2V99H27.8ZM25 96.2C26.5464 96.2 27.8 97.4536 27.8 99H30.2C30.2 96.1281 27.8719 93.8 25 93.8V96.2ZM13 96.2H25V93.8H13V96.2Z" fill="#373737" mask="url(#path-14-inside-1)"/>
<path fill-rule="evenodd" clip-rule="evenodd" d="M25.3038 102.397L17.4992 108.366C16.902 108.822 16.059 108.766 15.5274 108.235L12.6465 105.354L13.3536 104.647L16.2345 107.528C16.4117 107.705 16.6927 107.723 16.8918 107.571L24.6963 101.603L25.3038 102.397Z" fill="#676767" stroke="#676767"/>
<path d="M53 54.5955C53 54.2016 52.6807 53.8822 52.2868 53.8822H46.745V53.2974C46.5996 51.9912 45.4411 51 44.06 51C42.6789 51 41.5204 51.9912 41.375 53.2974V53.8822H35.7132C35.3193 53.8822 35 54.2016 35 54.5955V54.5955C35 54.9894 35.3193 55.3087 35.7132 55.3087H36.62L37.88 69.6876C37.9427 70.4306 38.5963 71.0024 39.38 71H48.62C49.4037 71.0024 50.0573 70.4306 50.12 69.6876L51.38 55.3087H52.2868C52.6807 55.3087 53 54.9894 53 54.5955V54.5955ZM48.62 69.5735H39.38L38.135 55.3087H49.865L48.62 69.5735ZM42.815 53.5256C42.908 52.9718 43.4103 52.5643 44 52.5643C44.5897 52.5643 45.092 52.9718 45.185 53.5256V53.9536H42.755L42.815 53.5256ZM41 58.9117C41 58.4975 41.3358 58.1617 41.75 58.1617C42.1642 58.1617 42.5 58.4975 42.5 58.9117V65.9706C42.5 66.3848 42.1642 66.7206 41.75 66.7206C41.3358 66.7206 41 66.3848 41 65.9706V58.9117ZM45.5 58.9117C45.5 58.4975 45.8358 58.1617 46.25 58.1617C46.6642 58.1617 47 58.4975 47 58.9117V65.9706C47 66.3848 46.6642 66.7206 46.25 66.7206C45.8358 66.7206 45.5 66.3848 45.5 65.9706V58.9117Z" fill="#373737"/>
<path fill-rule="evenodd" clip-rule="evenodd" d="M41.75 58C41.3358 58 41 58.3358 41 58.75V66.25C41 66.6642 41.3358 67 41.75 67C42.1642 67 42.5 66.6642 42.5 66.25V58.75C42.5 58.3358 42.1642 58 41.75 58ZM46.25 58C45.8358 58 45.5 58.3358 45.5 58.75V66.25C45.5 66.6642 45.8358 67 46.25 67C46.6642 67 47 66.6642 47 66.25V58.75C47 58.3358 46.6642 58 46.25 58Z" fill="#676767"/>
<path fill-rule="evenodd" clip-rule="evenodd" d="M131.796 55.3639C131.777 55.0478 131.533 54.7912 131.219 54.7562L124.347 53.9927L116.297 62.0432C116.043 62.297 116.043 62.7085 116.297 62.9623L123.19 69.855C123.443 70.1088 123.855 70.1088 124.109 69.855L132.174 61.79L131.796 55.3639ZM131.362 53.4644C132.306 53.5693 133.037 54.3393 133.093 55.2876L133.485 61.9468C133.498 62.1692 133.415 62.3865 133.258 62.544L125.028 70.7741C124.266 71.5354 123.032 71.5354 122.271 70.7741L115.378 63.8813C114.616 63.1199 114.616 61.8855 115.378 61.1242L123.605 52.897C123.772 52.7295 124.007 52.6472 124.243 52.6734L131.362 53.4644Z" fill="#373737"/>
<mask id="path-22-inside-2" fill="white">
<path fill-rule="evenodd" clip-rule="evenodd" d="M126.415 60.0523C127.002 60.6395 127.955 60.6395 128.542 60.0523C129.129 59.4651 129.129 58.513 128.542 57.9257C127.955 57.3385 127.002 57.3385 126.415 57.9257C125.828 58.513 125.828 59.4651 126.415 60.0523ZM125.708 60.7594C126.686 61.7372 128.271 61.7372 129.249 60.7594C130.227 59.7816 130.227 58.1964 129.249 57.2186C128.271 56.2409 126.686 56.2409 125.708 57.2186C124.73 58.1964 124.73 59.7816 125.708 60.7594Z"/>
</mask>
<path fill-rule="evenodd" clip-rule="evenodd" d="M126.415 60.0523C127.002 60.6395 127.955 60.6395 128.542 60.0523C129.129 59.4651 129.129 58.513 128.542 57.9257C127.955 57.3385 127.002 57.3385 126.415 57.9257C125.828 58.513 125.828 59.4651 126.415 60.0523ZM125.708 60.7594C126.686 61.7372 128.271 61.7372 129.249 60.7594C130.227 59.7816 130.227 58.1964 129.249 57.2186C128.271 56.2409 126.686 56.2409 125.708 57.2186C124.73 58.1964 124.73 59.7816 125.708 60.7594Z" fill="#FCF7F2"/>
<path d="M127.835 59.3452C127.638 59.5419 127.319 59.5419 127.122 59.3452L125.708 60.7594C126.686 61.7372 128.271 61.7372 129.249 60.7594L127.835 59.3452ZM127.835 58.6328C128.031 58.8296 128.031 59.1485 127.835 59.3452L129.249 60.7594C130.227 59.7816 130.227 58.1964 129.249 57.2186L127.835 58.6328ZM127.122 58.6328C127.319 58.4361 127.638 58.4361 127.835 58.6328L129.249 57.2186C128.271 56.2409 126.686 56.2409 125.708 57.2186L127.122 58.6328ZM127.122 59.3452C126.926 59.1485 126.926 58.8296 127.122 58.6328L125.708 57.2186C124.73 58.1964 124.73 59.7816 125.708 60.7594L127.122 59.3452ZM128.542 60.0523C127.955 60.6395 127.002 60.6395 126.415 60.0523L125.001 61.4665C126.369 62.8348 128.588 62.8348 129.956 61.4665L128.542 60.0523ZM128.542 57.9257C129.129 58.513 129.129 59.4651 128.542 60.0523L129.956 61.4665C131.324 60.0982 131.324 57.8798 129.956 56.5115L128.542 57.9257ZM126.415 57.9257C127.002 57.3385 127.955 57.3385 128.542 57.9257L129.956 56.5115C128.588 55.1432 126.369 55.1432 125.001 56.5115L126.415 57.9257ZM126.415 60.0523C125.828 59.4651 125.828 58.513 126.415 57.9257L125.001 56.5115C123.633 57.8798 123.633 60.0982 125.001 61.4665L126.415 60.0523Z" fill="#676767" mask="url(#path-22-inside-2)"/>
<path d="M83.7022 64.0363C83.1965 64.0363 82.7785 63.6197 82.8461 63.1185C82.8908 62.7874 82.9581 62.5034 83.0481 62.2663C83.2125 61.8332 83.5479 61.3531 84.0543 60.8258L85.3465 59.5548C85.8989 58.9585 86.1751 58.3183 86.1751 57.6342C86.1751 56.9751 85.9942 56.4604 85.6326 56.0901C85.2709 55.7135 84.7448 55.5252 84.0543 55.5252C83.3835 55.5252 82.8442 55.6947 82.4365 56.0336C82.2643 56.1767 82.1285 56.3406 82.029 56.5251C81.7915 56.9658 81.419 57.3988 80.9184 57.3988V57.3988C80.4131 57.3988 79.9889 56.9784 80.1226 56.4911C80.2897 55.8824 80.6269 55.3658 81.1344 54.9415C81.8841 54.3138 82.8574 54 84.0543 54C85.2972 54 86.2639 54.3201 86.9544 54.9603C87.6515 55.5943 88 56.4667 88 57.5777C88 58.6761 87.4673 59.7588 86.402 60.8258L85.3268 61.8426C85.0105 62.1775 84.7985 62.6091 84.6906 63.1373C84.5906 63.6267 84.2017 64.0363 83.7022 64.0363V64.0363ZM82.7028 67.0208C82.7028 66.7384 82.7916 66.503 82.9692 66.3147C83.1533 66.1202 83.4229 66.0229 83.7781 66.0229C84.1332 66.0229 84.4028 66.1202 84.5869 66.3147C84.7711 66.503 84.8631 66.7384 84.8631 67.0208C84.8631 67.3033 84.7711 67.5387 84.5869 67.727C84.4028 67.909 84.1332 68 83.7781 68C83.4229 68 83.1533 67.909 82.9692 67.727C82.7916 67.5387 82.7028 67.3033 82.7028 67.0208Z" fill="#676767"/>
<rect x="74.55" y="51.55" width="18.9" height="18.9" rx="3.45" stroke="#373737" stroke-width="1.1"/>
<path d="M167.499 53.8427C167.217 53.8479 166.936 53.8693 166.657 53.9066C166.747 53.5788 167.089 53.3343 167.5 53.3321C167.911 53.3343 168.253 53.5788 168.343 53.9066C168.064 53.8693 167.783 53.8479 167.501 53.8426L167.499 53.8427ZM172.224 58.8677L172.984 66.0534H162.016L162.776 58.8677L162.776 58.8677L162.776 58.8669C162.965 56.7485 165.018 55.1025 167.5 55.1025C169.982 55.1025 172.035 56.7485 172.224 58.8669L172.224 58.8677ZM175.384 66.0387L174.501 66.0527L173.726 58.772C173.726 58.772 173.726 58.7719 173.726 58.7718C173.528 56.7709 172.048 55.0403 169.902 54.2845V54.0148C169.902 52.8677 168.826 51.95 167.514 51.95C166.203 51.95 165.127 52.8677 165.127 54.0148V54.2601C162.981 55.0159 161.5 56.7466 161.302 58.7476L160.528 66.029H159.611C159.246 66.029 158.95 66.3247 158.95 66.6895C158.95 67.0543 159.246 67.3501 159.611 67.3501H175.394C175.756 67.3501 176.05 67.0565 176.05 66.6944C176.05 66.3282 175.75 66.0329 175.384 66.0387ZM167.633 67.885H167.367C166.787 67.885 166.317 68.3551 166.317 68.935V69C166.317 69.5799 166.787 70.05 167.367 70.05H167.633C168.213 70.05 168.683 69.5799 168.683 69V68.935C168.683 68.3551 168.213 67.885 167.633 67.885Z" fill="#292929" stroke="#373737" stroke-width="0.1"/>
<circle cx="12" cy="53" r="2" fill="#373737"/>
<circle cx="12" cy="61" r="2" fill="#373737"/>
<circle cx="12" cy="69" r="2" fill="#373737"/>
<path d="M97.0625 12H83.9375C82.8932 12 81.8917 12.4148 81.1533 13.1533C80.4148 13.8917 80 14.8932 80 15.9375V29.0625C80 30.1068 80.4148 31.1083 81.1533 31.8467C81.8917 32.5852 82.8932 33 83.9375 33H93.3502C94.0464 33 94.7141 32.7234 95.2064 32.2311L100.231 27.2063C100.475 26.9626 100.668 26.6732 100.8 26.3547C100.932 26.0362 101 25.6949 101 25.3502V15.9375C101 14.8932 100.585 13.8917 99.8467 13.1533C99.1083 12.4148 98.1068 12 97.0625 12V12ZM94.4375 31.1439V27.75C94.4379 27.402 94.5763 27.0684 94.8224 26.8224C95.0684 26.5763 95.402 26.4379 95.75 26.4375H99.1438L94.4375 31.1439ZM99.6875 25.125H95.75C95.0538 25.125 94.3861 25.4016 93.8938 25.8938C93.4016 26.3861 93.125 27.0538 93.125 27.75V31.6875H83.9375C83.2416 31.6867 82.5743 31.4099 82.0822 30.9178C81.5901 30.4257 81.3133 29.7584 81.3125 29.0625V15.9375C81.3133 15.2415 81.5901 14.5743 82.0822 14.0822C82.5743 13.5901 83.2415 13.3133 83.9375 13.3125H97.0625C97.7585 13.3133 98.4257 13.5901 98.9178 14.0822C99.4099 14.5743 99.6867 15.2415 99.6875 15.9375V25.125Z" fill="#373737"/>
<path d="M95.0938 17.15H85.9062C85.712 17.15 85.5224 17.2115 85.3797 17.3257C85.2365 17.4403 85.15 17.6011 85.15 17.775C85.15 17.9489 85.2365 18.1097 85.3797 18.2243C85.5224 18.3385 85.712 18.4 85.9062 18.4H95.0938C95.288 18.4 95.4776 18.3385 95.6203 18.2243C95.7635 18.1097 95.85 17.9489 95.85 17.775C95.85 17.6011 95.7635 17.4403 95.6203 17.3257C95.4776 17.2115 95.288 17.15 95.0938 17.15Z" fill="#676767" stroke="#676767" stroke-width="0.2"/>
<path d="M95.0938 21.3502H85.9062C85.712 21.3502 85.5224 21.4117 85.3797 21.5259C85.2365 21.6405 85.15 21.8013 85.15 21.9752C85.15 22.1491 85.2365 22.3099 85.3797 22.4245C85.5224 22.5387 85.712 22.6002 85.9062 22.6002H95.0938C95.288 22.6002 95.4776 22.5387 95.6203 22.4245C95.7635 22.3099 95.85 22.1491 95.85 21.9752C95.85 21.8013 95.7635 21.6405 95.6203 21.5259C95.4776 21.4117 95.288 21.3502 95.0938 21.3502Z" fill="#676767" stroke="#676767" stroke-width="0.2"/>
<path d="M133.137 12H120.724C119.736 12 118.789 12.3951 118.091 13.0983C117.392 13.8016 117 14.7554 117 15.75V28.25C117 29.2446 117.392 30.1984 118.091 30.9016C118.789 31.6049 119.736 32 120.724 32H129.626C130.285 32 130.916 31.7366 131.382 31.2677L136.134 26.4822C136.364 26.2501 136.547 25.9745 136.672 25.6712C136.797 25.3679 136.861 25.0428 136.861 24.7145V15.75C136.861 14.7554 136.469 13.8016 135.77 13.0983C135.072 12.3951 134.125 12 133.137 12V12ZM130.655 30.2323V27C130.655 26.6686 130.786 26.3509 131.019 26.1165C131.251 25.8822 131.567 25.7504 131.896 25.75H135.106L130.655 30.2323ZM135.62 24.5H131.896C131.237 24.5 130.606 24.7634 130.14 25.2322C129.675 25.7011 129.413 26.337 129.413 27V30.75H120.724C120.066 30.7492 119.435 30.4856 118.969 30.0169C118.504 29.5482 118.242 28.9128 118.241 28.25V15.75C118.242 15.0872 118.504 14.4517 118.969 13.9831C119.435 13.5144 120.066 13.2507 120.724 13.25H133.137C133.795 13.2507 134.426 13.5144 134.892 13.9831C135.357 14.4517 135.619 15.0872 135.62 15.75V24.5Z" fill="#373737"/>
<path d="M131.275 16.9H122.586C122.401 16.9 122.22 16.959 122.084 17.0686C121.947 17.1786 121.865 17.333 121.865 17.5C121.865 17.667 121.947 17.8214 122.084 17.9314C122.22 18.041 122.401 18.1 122.586 18.1H131.275C131.46 18.1 131.64 18.041 131.776 17.9314C131.913 17.8214 131.995 17.667 131.995 17.5C131.995 17.333 131.913 17.1786 131.776 17.0686C131.64 16.959 131.46 16.9 131.275 16.9Z" fill="#676767" stroke="#676767" stroke-width="0.2"/>
<path d="M131.275 20.9H122.586C122.401 20.9 122.22 20.959 122.084 21.0686C121.947 21.1786 121.865 21.333 121.865 21.5C121.865 21.667 121.947 21.8214 122.084 21.9314C122.22 22.041 122.401 22.1 122.586 22.1H131.275C131.46 22.1 131.64 22.041 131.776 21.9314C131.913 21.8214 131.995 21.667 131.995 21.5C131.995 21.333 131.913 21.1786 131.776 21.0686C131.64 20.959 131.46 20.9 131.275 20.9Z" fill="#676767" stroke="#676767" stroke-width="0.2"/>
<path d="M140.833 16C140.833 19.3137 138.165 22 134.874 22C131.584 22 128.916 19.3137 128.916 16C128.916 12.6863 131.584 10 134.874 10C138.165 10 140.833 12.6863 140.833 16Z" fill="#27AE60"/>
<path d="M135.431 15.4057H137.855V16.3962H135.431V19H134.32V16.3962H131.896V15.4057H134.32V13H135.431V15.4057Z" fill="#FCF7F2"/>
<rect x="6.6" y="12.6" width="19.8" height="19.8" rx="3.4" stroke="#373737" stroke-width="1.2"/>
<rect x="9.65039" y="15.6499" width="5.3" height="5.3" rx="0.5" fill="#EDE6E1" stroke="#676767"/>
<rect x="18.0508" y="15.6499" width="5.3" height="5.3" rx="0.5" fill="#EDE6E1" stroke="#676767"/>
<rect x="9.65039" y="24.0498" width="5.3" height="5.3" rx="0.5" fill="#EDE6E1" stroke="#676767"/>
<rect x="18.0508" y="24.0498" width="5.3" height="5.3" rx="0.5" fill="#EDE6E1" stroke="#676767"/>
<rect x="43.6" y="12.6" width="19.8" height="19.8" rx="3.4" stroke="#373737" stroke-width="1.2"/>
<rect x="46.6504" y="15.6499" width="5.3" height="5.3" rx="0.5" fill="#EDE6E1" stroke="#676767"/>
<rect x="55.0508" y="15.6499" width="5.3" height="5.3" rx="0.5" fill="#EDE6E1" stroke="#676767"/>
<rect x="46.6504" y="24.0498" width="5.3" height="5.3" rx="0.5" fill="#EDE6E1" stroke="#676767"/>
<rect x="55.0508" y="24.0498" width="5.3" height="5.3" rx="0.5" fill="#EDE6E1" stroke="#676767"/>
<circle cx="61" cy="16" r="6" fill="#27AE60"/>
<path d="M61.5591 15.4057H64V16.3962H61.5591V19H60.4409V16.3962H58V15.4057H60.4409V13H61.5591V15.4057Z" fill="#FCF7F2"/>
<mask id="path-61-inside-3" fill="white">
<path fill-rule="evenodd" clip-rule="evenodd" d="M173 14.2H161C159.454 14.2 158.2 15.4536 158.2 17V29C158.2 30.5464 159.454 31.8 161 31.8H173C174.546 31.8 175.8 30.5464 175.8 29V17C175.8 15.4536 174.546 14.2 173 14.2ZM161 13C158.791 13 157 14.7909 157 17V29C157 31.2091 158.791 33 161 33H173C175.209 33 177 31.2091 177 29V17C177 14.7909 175.209 13 173 13H161Z"/>
</mask>
<path fill-rule="evenodd" clip-rule="evenodd" d="M173 14.2H161C159.454 14.2 158.2 15.4536 158.2 17V29C158.2 30.5464 159.454 31.8 161 31.8H173C174.546 31.8 175.8 30.5464 175.8 29V17C175.8 15.4536 174.546 14.2 173 14.2ZM161 13C158.791 13 157 14.7909 157 17V29C157 31.2091 158.791 33 161 33H173C175.209 33 177 31.2091 177 29V17C177 14.7909 175.209 13 173 13H161Z" fill="#373737"/>
<path d="M161 15.4H173V13H161V15.4ZM159.4 17C159.4 16.1163 160.116 15.4 161 15.4V13C158.791 13 157 14.7909 157 17H159.4ZM159.4 29V17H157V29H159.4ZM161 30.6C160.116 30.6 159.4 29.8837 159.4 29H157C157 31.2091 158.791 33 161 33V30.6ZM173 30.6H161V33H173V30.6ZM174.6 29C174.6 29.8837 173.884 30.6 173 30.6V33C175.209 33 177 31.2091 177 29H174.6ZM174.6 17V29H177V17H174.6ZM173 15.4C173.884 15.4 174.6 16.1163 174.6 17H177C177 14.7909 175.209 13 173 13V15.4ZM158.2 17C158.2 15.4536 159.454 14.2 161 14.2V11.8C158.128 11.8 155.8 14.1281 155.8 17H158.2ZM158.2 29V17H155.8V29H158.2ZM161 31.8C159.454 31.8 158.2 30.5464 158.2 29H155.8C155.8 31.8719 158.128 34.2 161 34.2V31.8ZM173 31.8H161V34.2H173V31.8ZM175.8 29C175.8 30.5464 174.546 31.8 173 31.8V34.2C175.872 34.2 178.2 31.8719 178.2 29H175.8ZM175.8 17V29H178.2V17H175.8ZM173 14.2C174.546 14.2 175.8 15.4536 175.8 17H178.2C178.2 14.1281 175.872 11.8 173 11.8V14.2ZM161 14.2H173V11.8H161V14.2Z" fill="#373737" mask="url(#path-61-inside-3)"/>
<path d="M165.647 29L169.5 22.9326L173.353 29H165.647Z" stroke="#676767"/>
<path d="M159.647 29L163.5 22.9326L167.353 29H159.647Z" stroke="#676767"/>
<circle cx="168.5" cy="19.5" r="1" stroke="#676767"/>
<circle cx="175" cy="15" r="6" fill="#27AE60"/>
<path d="M175.559 14.4057H178V15.3962H175.559V18H174.441V15.3962H172V14.4057H174.441V12H175.559V14.4057Z" fill="#FCF7F2"/>
</svg>
