<svg width="367" height="50" viewBox="0 0 367 50" fill="none" xmlns="http://www.w3.org/2000/svg">
<path d="M0.885915 0H8.7588V34.3544H0.885915V0Z" fill="url(#paint0_linear)"/>
<path d="M36.2165 48.2133C34.1778 48.2133 32.2042 47.8229 30.2956 47.0421C28.387 46.2613 26.6953 45.1118 25.2205 43.5936C23.7457 42.0755 22.5528 40.2103 21.6419 37.998C20.731 35.7858 20.2755 33.2483 20.2755 30.3854V30.2553C20.2755 27.3924 20.7093 24.8549 21.5768 22.6427C22.4878 20.4304 23.6806 18.5652 25.1554 17.0471C26.6302 15.5289 28.3219 14.3794 30.2305 13.5986C32.1825 12.8178 34.1778 12.4274 36.2165 12.4274C37.6479 12.4274 38.9275 12.6009 40.0553 12.948C41.2265 13.2516 42.2892 13.6854 43.2435 14.2493C44.1978 14.8132 45.0654 15.4638 45.8461 16.2012C46.6269 16.8952 47.321 17.6543 47.9282 18.4785V0H55.8011V47.4975H47.9282V41.7718C46.6703 43.5503 45.087 45.0684 43.1785 46.3264C41.3133 47.5843 38.9926 48.2133 36.2165 48.2133ZM38.1034 41.3814C39.4047 41.3814 40.6626 41.1212 41.8772 40.6006C43.0917 40.0801 44.1544 39.3427 45.0654 38.3884C45.9763 37.3908 46.692 36.2196 47.2125 34.8749C47.7764 33.5302 48.0584 32.0337 48.0584 30.3854V30.2553C48.0584 28.607 47.7764 27.1105 47.2125 25.7658C46.692 24.3777 45.9763 23.2066 45.0654 22.2523C44.1544 21.298 43.0917 20.5606 41.8772 20.0401C40.6626 19.5195 39.4047 19.2593 38.1034 19.2593C36.7587 19.2593 35.4791 19.5195 34.2645 20.0401C33.0934 20.5172 32.0523 21.2329 31.1414 22.1872C30.2305 23.1415 29.5148 24.3127 28.9943 25.7007C28.4737 27.0454 28.2135 28.5636 28.2135 30.2553V30.3854C28.2135 32.0337 28.4737 33.5519 28.9943 34.94C29.5148 36.2847 30.2305 37.4341 31.1414 38.3884C32.0523 39.3427 33.0934 40.0801 34.2645 40.6006C35.4791 41.1212 36.7587 41.3814 38.1034 41.3814Z" fill="url(#paint1_linear)"/>
<path d="M83.9327 48.2783C81.4602 48.2783 79.1395 47.8446 76.9707 46.977C74.8452 46.1095 72.98 44.8949 71.3751 43.3334C69.8135 41.7718 68.5773 39.9066 67.6664 37.7378C66.7555 35.5256 66.3 33.0965 66.3 30.4505V30.3203C66.3 27.8479 66.7121 25.5272 67.5362 23.3584C68.3604 21.1895 69.5099 19.3027 70.9847 17.6977C72.5029 16.0494 74.2813 14.7698 76.32 13.8589C78.3588 12.9046 80.6143 12.4274 83.0868 12.4274C85.8195 12.4274 88.2053 12.9263 90.244 13.9239C92.3261 14.9216 94.0394 16.2663 95.3841 17.958C96.7722 19.6497 97.8132 21.6233 98.5073 23.8789C99.2013 26.0911 99.5483 28.4335 99.5483 30.9059C99.5483 31.2529 99.5266 31.6217 99.4832 32.012C99.4832 32.3591 99.4615 32.7278 99.4182 33.1181H74.1729C74.6067 35.9376 75.7128 38.1065 77.4912 39.6247C79.313 41.0995 81.5036 41.8369 84.0628 41.8369C86.0147 41.8369 87.7064 41.4899 89.1379 40.7958C90.5693 40.1018 91.979 39.0825 93.3671 37.7378L97.9867 41.8369C96.3384 43.7888 94.3648 45.3504 92.0658 46.5216C89.8102 47.6927 87.0992 48.2783 83.9327 48.2783ZM91.7405 27.9129C91.6103 26.655 91.3284 25.4838 90.8946 24.3994C90.4609 23.2716 89.8753 22.3173 89.1379 21.5366C88.4005 20.7124 87.5112 20.0617 86.4702 19.5846C85.4725 19.1075 84.323 18.8689 83.0217 18.8689C80.5926 18.8689 78.5756 19.7147 76.9707 21.4064C75.4091 23.0547 74.4548 25.2236 74.1078 27.9129H91.7405Z" fill="url(#paint2_linear)"/>
<path d="M119.847 48.2133C118.242 48.2133 116.702 47.9747 115.227 47.4975C113.753 47.0638 112.451 46.4131 111.324 45.5456C110.239 44.6347 109.35 43.5286 108.656 42.2273C108.005 40.8826 107.68 39.3427 107.68 37.6076V37.4775C107.68 35.6123 108.027 33.9857 108.721 32.5976C109.415 31.2096 110.369 30.0601 111.584 29.1492C112.842 28.2383 114.338 27.5659 116.073 27.1322C117.852 26.655 119.782 26.4164 121.864 26.4164C123.816 26.4164 125.508 26.5466 126.939 26.8068C128.371 27.0671 129.759 27.4141 131.103 27.8479V27.002C131.103 24.5296 130.366 22.6644 128.891 21.4064C127.46 20.1485 125.356 19.5195 122.58 19.5195C120.628 19.5195 118.893 19.7147 117.375 20.1051C115.856 20.4955 114.317 21.016 112.755 21.6667L110.673 15.4855C112.582 14.618 114.533 13.9456 116.529 13.4685C118.524 12.948 120.888 12.6877 123.621 12.6877C128.739 12.6877 132.535 13.9673 135.007 16.5265C136.265 17.7845 137.198 19.3027 137.805 21.0811C138.412 22.8595 138.716 24.8766 138.716 27.1322V47.4975H131.038V43.2032C129.867 44.5913 128.371 45.7842 126.549 46.7818C124.727 47.7361 122.493 48.2133 119.847 48.2133ZM122.059 42.4875C123.361 42.4875 124.575 42.314 125.703 41.967C126.831 41.62 127.785 41.1212 128.566 40.4705C129.39 39.8199 130.041 39.0391 130.518 38.1282C130.995 37.2173 131.234 36.2196 131.234 35.1352V32.7928C130.236 32.4024 129.065 32.0771 127.72 31.8168C126.419 31.5566 124.987 31.4265 123.426 31.4265C120.866 31.4265 118.871 31.9253 117.44 32.923C116.052 33.9206 115.358 35.3304 115.358 37.1522V37.2823C115.358 38.9306 115.987 40.2102 117.245 41.1212C118.546 42.0321 120.151 42.4875 122.059 42.4875Z" fill="url(#paint3_linear)"/>
<path d="M192.241 48.2133C189.378 48.2133 187.014 47.606 185.149 46.3914C183.284 45.1769 181.744 43.7671 180.53 42.1622V47.4975H172.657V0H180.53V18.8689C181.788 17.0904 183.349 15.5723 185.214 14.3143C187.079 13.0564 189.422 12.4274 192.241 12.4274C194.237 12.4274 196.189 12.8178 198.097 13.5986C200.049 14.3794 201.763 15.5289 203.237 17.0471C204.712 18.5652 205.905 20.4304 206.816 22.6427C207.727 24.8549 208.182 27.3924 208.182 30.2553V30.3854C208.182 33.2483 207.727 35.7858 206.816 37.998C205.948 40.2103 204.756 42.0755 203.237 43.5936C201.763 45.1118 200.071 46.2613 198.162 47.0421C196.254 47.8229 194.28 48.2133 192.241 48.2133ZM190.354 41.3814C191.699 41.3814 192.957 41.1212 194.128 40.6006C195.343 40.0801 196.384 39.3644 197.251 38.4535C198.162 37.4992 198.878 36.3497 199.398 35.005C199.919 33.617 200.179 32.0771 200.179 30.3854V30.2553C200.179 28.607 199.919 27.1105 199.398 25.7658C198.878 24.3777 198.162 23.2066 197.251 22.2523C196.384 21.298 195.343 20.5606 194.128 20.0401C192.957 19.5195 191.699 19.2593 190.354 19.2593C189.01 19.2593 187.73 19.5195 186.516 20.0401C185.301 20.5606 184.238 21.3197 183.327 22.3173C182.416 23.2716 181.679 24.4211 181.115 25.7658C180.595 27.1105 180.334 28.607 180.334 30.2553V30.3854C180.334 32.0337 180.595 33.5302 181.115 34.8749C181.679 36.2196 182.416 37.3908 183.327 38.3884C184.238 39.3427 185.301 40.0801 186.516 40.6006C187.73 41.1212 189.01 41.3814 190.354 41.3814Z" fill="url(#paint4_linear)"/>
<path d="M235.143 48.2783C232.54 48.2783 230.111 47.8229 227.855 46.912C225.643 45.9577 223.713 44.6781 222.065 43.0731C220.46 41.4682 219.202 39.5813 218.291 37.4124C217.38 35.2436 216.924 32.9446 216.924 30.5155V30.3854C216.924 27.9129 217.38 25.5923 218.291 23.4234C219.245 21.2546 220.525 19.3677 222.13 17.7628C223.778 16.1145 225.708 14.8132 227.92 13.8589C230.176 12.9046 232.627 12.4274 235.273 12.4274C237.919 12.4274 240.348 12.9046 242.56 13.8589C244.816 14.7698 246.746 16.0494 248.351 17.6977C249.999 19.3027 251.279 21.1895 252.19 23.3584C253.101 25.4838 253.556 27.7828 253.556 30.2553V30.3854C253.556 32.8145 253.079 35.1135 252.125 37.2823C251.214 39.4512 249.934 41.3597 248.286 43.008C246.681 44.613 244.751 45.8926 242.495 46.8469C240.239 47.8012 237.789 48.2783 235.143 48.2783ZM235.273 41.3814C236.878 41.3814 238.309 41.0995 239.567 40.5356C240.868 39.9283 241.974 39.1475 242.885 38.1932C243.796 37.1956 244.49 36.0461 244.967 34.7448C245.445 33.4001 245.683 31.9904 245.683 30.5155V30.3854C245.683 28.8672 245.423 27.4358 244.902 26.0911C244.382 24.7464 243.644 23.5753 242.69 22.5776C241.779 21.5799 240.673 20.7992 239.372 20.2353C238.114 19.628 236.704 19.3243 235.143 19.3243C233.581 19.3243 232.15 19.628 230.848 20.2353C229.59 20.7992 228.506 21.5799 227.595 22.5776C226.684 23.5319 225.99 24.6814 225.513 26.0261C225.036 27.3707 224.797 28.7805 224.797 30.2553V30.3854C224.797 31.9036 225.058 33.335 225.578 34.6797C226.099 35.981 226.814 37.1305 227.725 38.1282C228.68 39.1258 229.786 39.9283 231.044 40.5356C232.345 41.0995 233.755 41.3814 235.273 41.3814Z" fill="url(#paint5_linear)"/>
<path d="M273.966 48.2133C272.361 48.2133 270.821 47.9747 269.347 47.4975C267.872 47.0638 266.571 46.4131 265.443 45.5456C264.358 44.6347 263.469 43.5286 262.775 42.2273C262.124 40.8826 261.799 39.3427 261.799 37.6076V37.4775C261.799 35.6123 262.146 33.9857 262.84 32.5976C263.534 31.2096 264.488 30.0601 265.703 29.1492C266.961 28.2383 268.457 27.5659 270.192 27.1322C271.971 26.655 273.901 26.4164 275.983 26.4164C277.935 26.4164 279.627 26.5466 281.058 26.8068C282.49 27.0671 283.878 27.4141 285.223 27.8479V27.002C285.223 24.5296 284.485 22.6644 283.01 21.4064C281.579 20.1485 279.475 19.5195 276.699 19.5195C274.747 19.5195 273.012 19.7147 271.494 20.1051C269.976 20.4955 268.436 21.016 266.874 21.6667L264.792 15.4855C266.701 14.618 268.653 13.9456 270.648 13.4685C272.643 12.948 275.007 12.6877 277.74 12.6877C282.858 12.6877 286.654 13.9673 289.126 16.5265C290.384 17.7845 291.317 19.3027 291.924 21.0811C292.532 22.8595 292.835 24.8766 292.835 27.1322V47.4975H285.157V43.2032C283.986 44.5913 282.49 45.7842 280.668 46.7818C278.846 47.7361 276.612 48.2133 273.966 48.2133ZM276.178 42.4875C277.48 42.4875 278.694 42.314 279.822 41.967C280.95 41.62 281.904 41.1212 282.685 40.4705C283.509 39.8199 284.16 39.0391 284.637 38.1282C285.114 37.2173 285.353 36.2196 285.353 35.1352V32.7928C284.355 32.4024 283.184 32.0771 281.839 31.8168C280.538 31.5566 279.106 31.4265 277.545 31.4265C274.986 31.4265 272.99 31.9253 271.559 32.923C270.171 33.9206 269.477 35.3304 269.477 37.1522V37.2823C269.477 38.9306 270.106 40.2102 271.364 41.1212C272.665 42.0321 274.27 42.4875 276.178 42.4875Z" fill="url(#paint6_linear)"/>
<path d="M304.766 13.1432H312.639V20.8859C313.724 18.2833 315.264 16.2012 317.259 14.6397C319.254 13.0781 321.77 12.3624 324.806 12.4925V20.8208H324.351C322.616 20.8208 321.033 21.1028 319.601 21.6667C318.17 22.2306 316.934 23.0764 315.893 24.2042C314.852 25.332 314.049 26.7635 313.485 28.4985C312.921 30.1902 312.639 32.1639 312.639 34.4195V47.4975H304.766V13.1432Z" fill="url(#paint7_linear)"/>
<path d="M347.378 48.2133C345.339 48.2133 343.365 47.8229 341.457 47.0421C339.548 46.2613 337.856 45.1118 336.382 43.5936C334.907 42.0755 333.714 40.2103 332.803 37.998C331.892 35.7858 331.437 33.2483 331.437 30.3854V30.2553C331.437 27.3924 331.87 24.8549 332.738 22.6427C333.649 20.4304 334.842 18.5652 336.316 17.0471C337.791 15.5289 339.483 14.3794 341.392 13.5986C343.343 12.8178 345.339 12.4274 347.378 12.4274C348.809 12.4274 350.089 12.6009 351.216 12.948C352.388 13.2516 353.45 13.6854 354.405 14.2493C355.359 14.8132 356.226 15.4638 357.007 16.2012C357.788 16.8952 358.482 17.6543 359.089 18.4785V0H366.962V47.4975H359.089V41.7718C357.831 43.5503 356.248 45.0684 354.339 46.3264C352.474 47.5843 350.154 48.2133 347.378 48.2133ZM349.264 41.3814C350.566 41.3814 351.824 41.1212 353.038 40.6006C354.253 40.0801 355.315 39.3427 356.226 38.3884C357.137 37.3908 357.853 36.2196 358.374 34.8749C358.937 33.5302 359.219 32.0337 359.219 30.3854V30.2553C359.219 28.607 358.937 27.1105 358.374 25.7658C357.853 24.3777 357.137 23.2066 356.226 22.2523C355.315 21.298 354.253 20.5606 353.038 20.0401C351.824 19.5195 350.566 19.2593 349.264 19.2593C347.92 19.2593 346.64 19.5195 345.426 20.0401C344.254 20.5172 343.213 21.2329 342.302 22.1872C341.392 23.1415 340.676 24.3127 340.155 25.7007C339.635 27.0454 339.375 28.5636 339.375 30.2553V30.3854C339.375 32.0337 339.635 33.5519 340.155 34.94C340.676 36.2847 341.392 37.4341 342.302 38.3884C343.213 39.3427 344.254 40.0801 345.426 40.6006C346.64 41.1212 347.92 41.3814 349.264 41.3814Z" fill="url(#paint8_linear)"/>
<ellipse cx="5.00501" cy="44.995" rx="5.00501" ry="5.00501" fill="url(#paint9_linear)"/>
<defs>
<linearGradient id="paint0_linear" x1="185.02" y1="0" x2="185.02" y2="74.8314" gradientUnits="userSpaceOnUse">
<stop stop-color="#3862F0"/>
<stop offset="1" stop-color="#240DB7"/>
</linearGradient>
<linearGradient id="paint1_linear" x1="185.02" y1="0" x2="185.02" y2="74.8314" gradientUnits="userSpaceOnUse">
<stop stop-color="#3862F0"/>
<stop offset="1" stop-color="#240DB7"/>
</linearGradient>
<linearGradient id="paint2_linear" x1="185.02" y1="0" x2="185.02" y2="74.8314" gradientUnits="userSpaceOnUse">
<stop stop-color="#3862F0"/>
<stop offset="1" stop-color="#240DB7"/>
</linearGradient>
<linearGradient id="paint3_linear" x1="185.02" y1="0" x2="185.02" y2="74.8314" gradientUnits="userSpaceOnUse">
<stop stop-color="#3862F0"/>
<stop offset="1" stop-color="#240DB7"/>
</linearGradient>
<linearGradient id="paint4_linear" x1="185.02" y1="0" x2="185.02" y2="74.8314" gradientUnits="userSpaceOnUse">
<stop stop-color="#3862F0"/>
<stop offset="1" stop-color="#240DB7"/>
</linearGradient>
<linearGradient id="paint5_linear" x1="185.02" y1="0" x2="185.02" y2="74.8314" gradientUnits="userSpaceOnUse">
<stop stop-color="#3862F0"/>
<stop offset="1" stop-color="#240DB7"/>
</linearGradient>
<linearGradient id="paint6_linear" x1="185.02" y1="0" x2="185.02" y2="74.8314" gradientUnits="userSpaceOnUse">
<stop stop-color="#3862F0"/>
<stop offset="1" stop-color="#240DB7"/>
</linearGradient>
<linearGradient id="paint7_linear" x1="185.02" y1="0" x2="185.02" y2="74.8314" gradientUnits="userSpaceOnUse">
<stop stop-color="#3862F0"/>
<stop offset="1" stop-color="#240DB7"/>
</linearGradient>
<linearGradient id="paint8_linear" x1="185.02" y1="0" x2="185.02" y2="74.8314" gradientUnits="userSpaceOnUse">
<stop stop-color="#3862F0"/>
<stop offset="1" stop-color="#240DB7"/>
</linearGradient>
<linearGradient id="paint9_linear" x1="1.3496" y1="45.4204" x2="13.0104" y2="45.5868" gradientUnits="userSpaceOnUse">
<stop stop-color="#FF7B31"/>
<stop offset="1" stop-color="#FF4949"/>
</linearGradient>
</defs>
</svg>
