<svg width="50" height="50" viewBox="0 0 50 50" fill="none" xmlns="http://www.w3.org/2000/svg">
<path fill-rule="evenodd" clip-rule="evenodd" d="M0 25C0 11.215 11.215 0 25 0C38.785 0 50 11.215 50 25C50 38.785 38.785 50 25 50C11.215 50 0 38.785 0 25ZM1.66667 25C1.66667 37.8658 12.1342 48.3333 25 48.3333C37.8658 48.3333 48.3333 37.8658 48.3333 25C48.3333 12.1342 37.8658 1.66667 25 1.66667C12.1342 1.66667 1.66667 12.1342 1.66667 25Z" fill="#1A47B0"/>
<path fill-rule="evenodd" clip-rule="evenodd" d="M25.8333 13.2325V21.6842C27.2667 22.0567 28.3333 23.35 28.3333 24.8992C28.3333 26.7375 26.8383 28.2325 25 28.2325C23.4517 28.2325 22.1575 27.1658 21.785 25.7325H15.8333C15.3733 25.7325 15 25.36 15 24.8992C15 24.4383 15.3733 24.0658 15.8333 24.0658H21.785C22.0883 22.9 23.0008 21.9875 24.1667 21.6842V13.2325C24.1667 12.7717 24.54 12.3992 25 12.3992C25.46 12.3992 25.8333 12.7717 25.8333 13.2325ZM23.3333 24.8992C23.3333 25.8183 24.0808 26.5658 25 26.5658C25.9192 26.5658 26.6667 25.8183 26.6667 24.8992C26.6667 23.98 25.9192 23.2325 25 23.2325C24.0808 23.2325 23.3333 23.98 23.3333 24.8992Z" fill="#1A47B0"/>
<path d="M24.9998 8.23248C25.4598 8.23248 25.8332 7.85998 25.8332 7.39915V6.56582C25.8332 6.10498 25.4598 5.73248 24.9998 5.73248C24.5398 5.73248 24.1665 6.10498 24.1665 6.56582V7.39915C24.1665 7.85998 24.5398 8.23248 24.9998 8.23248Z" fill="#1A47B0"/>
<path d="M24.9998 41.5659C24.5398 41.5659 24.1665 41.9384 24.1665 42.3992V43.2325C24.1665 43.6934 24.5398 44.0659 24.9998 44.0659C25.4598 44.0659 25.8332 43.6934 25.8332 43.2325V42.3992C25.8332 41.9384 25.4598 41.5659 24.9998 41.5659Z" fill="#1A47B0"/>
<path d="M43.3332 24.0659H42.4998C42.0398 24.0659 41.6665 24.4384 41.6665 24.8992C41.6665 25.36 42.0398 25.7325 42.4998 25.7325H43.3332C43.7932 25.7325 44.1665 25.36 44.1665 24.8992C44.1665 24.4384 43.7932 24.0659 43.3332 24.0659Z" fill="#1A47B0"/>
<path d="M7.50016 24.0659H6.66683C6.20683 24.0659 5.8335 24.4384 5.8335 24.8992C5.8335 25.36 6.20683 25.7325 6.66683 25.7325H7.50016C7.96016 25.7325 8.3335 25.36 8.3335 24.8992C8.3335 24.4384 7.96016 24.0659 7.50016 24.0659Z" fill="#1A47B0"/>
<path d="M37.3741 11.3458L36.7849 11.935C36.4591 12.2608 36.4591 12.7875 36.7849 13.1133C36.9474 13.2758 37.1607 13.3575 37.3741 13.3575C37.5874 13.3575 37.8007 13.2758 37.9632 13.1133L38.5524 12.5241C38.8782 12.1983 38.8782 11.6716 38.5524 11.3458C38.2266 11.02 37.6999 11.0208 37.3741 11.3458Z" fill="#1A47B0"/>
<path d="M12.0367 36.6842L11.4475 37.2734C11.1217 37.5992 11.1217 38.1259 11.4475 38.4517C11.61 38.6142 11.8233 38.6959 12.0367 38.6959C12.25 38.6959 12.4633 38.6142 12.6258 38.4517L13.215 37.8625C13.5408 37.5367 13.5408 37.01 13.215 36.6842C12.8892 36.3584 12.3617 36.3592 12.0367 36.6842Z" fill="#1A47B0"/>
<path d="M37.9632 36.6842C37.6374 36.3584 37.1107 36.3584 36.7849 36.6842C36.4591 37.01 36.4591 37.5367 36.7849 37.8625L37.3741 38.4517C37.5366 38.6142 37.7499 38.6959 37.9632 38.6959C38.1766 38.6959 38.3899 38.6142 38.5524 38.4517C38.8782 38.1259 38.8782 37.5992 38.5524 37.2734L37.9632 36.6842Z" fill="#1A47B0"/>
<path d="M12.6258 11.3458C12.3 11.02 11.7733 11.02 11.4475 11.3458C11.1217 11.6716 11.1217 12.1983 11.4475 12.5241L12.0367 13.1133C12.1992 13.2758 12.4125 13.3575 12.6258 13.3575C12.8392 13.3575 13.0525 13.2758 13.215 13.1133C13.5408 12.7875 13.5408 12.2608 13.215 11.935L12.6258 11.3458Z" fill="#1A47B0"/>
</svg>
