<svg xmlns="http://www.w3.org/2000/svg" width="818" height="267" viewBox="0 0 818 267">
    <g fill="none" fill-rule="evenodd">
        <path fill="#B6F8FF" d="M91.606 138.003c0 21.188-17.134 38.361-38.268 38.361-21.135 0-38.267-17.173-38.267-38.36 0-21.188 17.132-38.362 38.267-38.362 21.134 0 38.268 17.174 38.268 38.361"/>
        <path fill="#B6F8FF" d="M54.529 88.464V50.11h-2.38V90.8h1.19v.003c25.963 0 47.086 21.172 47.086 47.2 0 26.027-21.123 47.198-47.087 47.198-25.964 0-47.086-21.171-47.086-47.199H3.889c0 27.333 22.183 49.572 49.45 49.572 27.266 0 49.449-22.24 49.449-49.572 0-26.933-21.542-48.903-48.26-49.54"/>
        <path fill="#B6F8FF" d="M58.444 50.11a5.11 5.11 0 0 1-5.106 5.117 5.11 5.11 0 0 1-5.105-5.116c0-2.828 2.285-5.121 5.105-5.121 2.82 0 5.106 2.293 5.106 5.12M10.212 138.003a5.11 5.11 0 0 1-5.106 5.117A5.11 5.11 0 0 1 0 138.003a5.11 5.11 0 0 1 5.106-5.117 5.11 5.11 0 0 1 5.106 5.117M100.637 139.197h60.122v-2.384h-60.122z"/>
        <path fill="#FFFFFE" d="M83.206 138.242c0 16.58-13.408 30.017-29.946 30.017-16.54 0-29.947-13.436-29.947-30.017 0-16.58 13.407-30.017 29.947-30.017 16.538 0 29.946 13.437 29.946 30.017"/>
        <g transform="translate(39.083 120.597)">
            <path fill="#000" fill-rule="nonzero" d="M13.921 38.465a1.63 1.63 0 0 1-1.076-.406 322.879 322.879 0 0 0-3.166-2.73l-.005-.004C6.869 32.93 4.447 30.86 2.76 28.821.877 26.543 0 24.381 0 22.021c0-2.293.784-4.409 2.209-5.957 1.441-1.567 3.419-2.43 5.569-2.43 1.607 0 3.079.51 4.374 1.514a8.962 8.962 0 0 1 1.769 1.85 8.963 8.963 0 0 1 1.769-1.85c1.295-1.005 2.767-1.514 4.374-1.514 2.15 0 4.128.863 5.57 2.43 1.424 1.548 2.208 3.664 2.208 5.958 0 2.36-.877 4.52-2.761 6.8-1.686 2.038-4.108 4.107-6.912 6.503-.959.818-2.045 1.746-3.172 2.735-.298.26-.68.405-1.076.405zM7.778 15.269c-1.69 0-3.241.676-4.37 1.903-1.146 1.246-1.777 2.968-1.777 4.85 0 1.985.736 3.76 2.386 5.756 1.595 1.93 3.968 3.956 6.715 6.303l.005.004c.96.82 2.049 1.75 3.182 2.744 1.14-.995 2.23-1.927 3.192-2.748 2.747-2.347 5.12-4.373 6.714-6.303 1.65-1.996 2.386-3.771 2.386-5.756 0-1.882-.63-3.604-1.777-4.85a5.867 5.867 0 0 0-4.37-1.903c-1.237 0-2.373.394-3.377 1.172-.894.693-1.517 1.57-1.882 2.183a1.02 1.02 0 0 1-.884.503 1.02 1.02 0 0 1-.884-.503c-.365-.614-.988-1.49-1.882-2.183-1.004-.778-2.14-1.172-3.377-1.172z"/>
            <ellipse cx="14.089" cy="4.962" stroke="#000" stroke-width="1.715" rx="5.636" ry="5.649"/>
        </g>
        <path fill="#444" fill-rule="nonzero" d="M22.365 10.623H15.77V1h6.595v1.803h-4.61v2.02h4.513v1.803h-4.514V8.82h4.611v1.804zm11.653 0H32.02v-6.94l-2.627 6.94h-.866L25.9 3.683v6.94h-1.984V1h2.78l2.264 6.016L31.224 1h2.794v9.623zm3.829 0h-1.984V1h4.36c2.025 0 3.129 1.414 3.129 3.102 0 1.673-1.118 3.087-3.13 3.087h-2.375v3.434zm2.096-5.237c.782 0 1.383-.49 1.383-1.284 0-.808-.6-1.299-1.383-1.299h-2.096v2.583h2.096zm13.343 5.237h-2.25l-.586-1.63h-3.996l-.587 1.63h-2.25L47.208 1h2.487l3.591 9.623zm-3.381-3.434l-1.453-4.14-1.453 4.14h2.906zm8.397 3.434h-1.998v-7.82H53.58V1h7.433v1.803h-2.71v7.82zm12.366 0H68.67V6.569h-4.401v4.054h-1.984V1h1.984v3.78h4.401V1h1.998v9.623zm3.815 0h-1.985V1h1.985v9.623zm8.607 0h-7.098v-1.66l4.4-6.16h-4.4V1h7v1.645L78.59 8.819h4.5v1.804zm8.104 0h-6.595V1h6.595v1.803h-4.611v2.02h4.513v1.803h-4.513V8.82h4.61v1.804z"/>
        <g>
            <path fill="#BC78F7" d="M270.284 138.003c0 21.188-17.132 38.361-38.267 38.361-21.134 0-38.267-17.173-38.267-38.36 0-21.184 17.133-38.362 38.267-38.362 21.135 0 38.267 17.178 38.267 38.361"/>
            <path fill="#BC78F7" d="M233.207 88.464V50.11h-2.38V90.8h1.19v.003c25.964 0 47.087 21.176 47.087 47.2 0 26.027-21.123 47.202-47.086 47.202-25.965 0-47.087-21.175-47.087-47.203h-2.363c0 27.333 22.183 49.572 49.45 49.572 27.265 0 49.449-22.24 49.449-49.572 0-26.933-21.542-48.903-48.26-49.54"/>
            <path fill="#BC78F7" d="M237.123 50.11a5.11 5.11 0 0 1-5.105 5.117 5.11 5.11 0 0 1-5.106-5.116c0-2.828 2.285-5.121 5.106-5.121 2.82 0 5.105 2.293 5.105 5.12M344.548 138.003a5.113 5.113 0 0 1-5.109 5.121 5.11 5.11 0 0 1-5.104-5.12 5.109 5.109 0 0 1 5.104-5.118c2.82 0 5.109 2.29 5.109 5.117M188.83 138.003c0 2.824-2.286 5.121-5.106 5.121s-5.106-2.297-5.106-5.12a5.11 5.11 0 0 1 5.106-5.118 5.11 5.11 0 0 1 5.106 5.117"/>
            <path fill="#BC78F7" d="M279.316 139.197h60.123v-2.384h-60.123z"/>
            <path fill="#FFFFFE" d="M261.823 138.242c0 16.58-13.407 30.017-29.946 30.017-16.54 0-29.947-13.436-29.947-30.017 0-16.58 13.408-30.017 29.947-30.017 16.54 0 29.946 13.437 29.946 30.017"/>
            <path fill="#000" fill-rule="nonzero" stroke="#FFF" stroke-width="2.058" d="M248.22 152.568l-8.154-8.502a13.843 13.843 0 0 0 3.245-8.914c0-7.647-6.206-13.868-13.834-13.868-7.627 0-13.833 6.221-13.833 13.868 0 7.646 6.206 13.867 13.833 13.867 2.864 0 5.593-.866 7.926-2.51l8.216 8.567c.344.358.806.555 1.3.555.47 0 .914-.18 1.251-.505.717-.692.74-1.838.05-2.558zm-18.743-27.666c5.639 0 10.225 4.598 10.225 10.25 0 5.651-4.586 10.25-10.225 10.25-5.638 0-10.224-4.599-10.224-10.25 0-5.652 4.586-10.25 10.224-10.25z"/>
            <path fill="#444" fill-rule="nonzero" d="M216.579 10.623H212.9V1h3.664c2.911 0 4.931 1.919 4.931 4.804 0 2.914-2.02 4.819-4.917 4.819zm-.014-1.804c1.839 0 2.911-1.37 2.911-3.015 0-1.688-1.003-3-2.897-3h-1.7v6.015h1.686zm12.913 1.804h-6.575V1h6.575v1.803h-4.597v2.02h4.5v1.803h-4.5V8.82h4.597v1.804zm3.525 0h-1.978V1h6.575v1.803h-4.597v2.02h4.5v1.803h-4.5v3.997zm7.954 0h-1.978V1h1.978v9.623zm10.155 0h-1.908l-4.43-6.276v6.276h-1.978V1h2.034l4.304 6.045V1h1.978v9.623zm8.414 0h-6.575V1h6.575v1.803h-4.597v2.02h4.5v1.803h-4.5V8.82h4.597v1.804z"/>
        </g>
        <g>
            <path fill="#74A1DD" d="M448.968 138.45c0 21.29-17.132 38.546-38.267 38.546-21.136 0-38.268-17.256-38.268-38.546 0-21.289 17.132-38.545 38.268-38.545 21.135 0 38.267 17.256 38.267 38.545"/>
            <path fill="#74A1DD" d="M411.892 88.673V50.135h-2.383v40.886h1.192c25.964 0 47.084 21.277 47.084 47.43 0 26.152-21.12 47.425-47.084 47.425-25.964 0-47.088-21.273-47.088-47.426h-2.363c0 27.464 22.185 49.81 49.45 49.81 27.266 0 49.447-22.346 49.447-49.81 0-27.062-21.542-49.138-48.255-49.777"/>
            <path fill="#74A1DD" d="M415.805 50.135c0 2.841-2.284 5.142-5.104 5.142-2.82 0-5.105-2.3-5.105-5.142 0-2.84 2.284-5.145 5.105-5.145 2.82 0 5.104 2.304 5.104 5.145M367.463 138.45c0 2.841-2.284 5.142-5.105 5.142-2.82 0-5.108-2.3-5.108-5.142 0-2.84 2.288-5.145 5.108-5.145s5.105 2.305 5.105 5.145M457.998 139.65h60.12v-2.396h-60.12z"/>
            <path fill="#74A1DD" d="M523.227 138.45c0 2.841-2.288 5.142-5.108 5.142-2.817 0-5.105-2.3-5.105-5.142 0-2.84 2.288-5.145 5.105-5.145 2.82 0 5.108 2.305 5.108 5.145"/>
            <path fill="#FFFFFE" d="M440.455 138.242c0 16.58-13.404 30.017-29.944 30.017s-29.949-13.436-29.949-30.017c0-16.58 13.409-30.017 29.949-30.017s29.944 13.437 29.944 30.017"/>
            <g fill="#000" fill-rule="nonzero">
                <path d="M410.58 123.957c-7.142 0-12.952 5.824-12.952 12.983a12.952 12.952 0 0 0 8.38 12.143v6.95c0 .422.34.764.762.764h.762v1.527c0 .422.34.764.762.764h4.571a.762.762 0 0 0 .762-.764v-1.527h.762a.762.762 0 0 0 .762-.764v-6.95a12.952 12.952 0 0 0 8.38-12.143c0-7.159-5.81-12.983-12.952-12.983zm2.285 31.312a.762.762 0 0 0-.762.764v1.527h-3.047v-1.527a.762.762 0 0 0-.762-.764h-.762v-3.818h6.095v3.818h-.762zm1.286-7.452a.764.764 0 0 0-.524.726v1.38h-6.095v-1.38a.763.763 0 0 0-.524-.726 11.427 11.427 0 0 1-7.856-10.877c0-6.316 5.126-11.455 11.427-11.455 6.302 0 11.428 5.139 11.428 11.455 0 4.957-3.158 9.328-7.856 10.877zM410.58 122.43a.762.762 0 0 0 .761-.764v-3.055a.762.762 0 1 0-1.523 0v3.055c0 .422.34.764.761.764zM428.864 136.177h-3.048a.762.762 0 0 0-.761.763c0 .423.34.764.761.764h3.048a.762.762 0 0 0 .762-.764.762.762 0 0 0-.762-.763zM395.342 136.177h-3.047a.762.762 0 0 0-.762.763c0 .423.34.764.762.764h3.047a.762.762 0 0 0 .762-.764.762.762 0 0 0-.762-.763zM422.97 123.44l-2.154 2.16a.764.764 0 0 0 .538 1.303c.195 0 .39-.075.539-.224l2.154-2.16a.764.764 0 0 0 0-1.08.76.76 0 0 0-1.077 0zM399.266 147.201l-2.155 2.16a.764.764 0 0 0 .539 1.304c.195 0 .39-.075.539-.224l2.154-2.16a.764.764 0 0 0 0-1.08.76.76 0 0 0-1.077 0zM421.893 147.201a.76.76 0 0 0-1.077 0 .764.764 0 0 0 0 1.08l2.154 2.16a.759.759 0 0 0 1.077 0 .764.764 0 0 0 0-1.08l-2.154-2.16zM399.266 126.68a.759.759 0 0 0 1.077 0 .764.764 0 0 0 0-1.08l-2.154-2.16a.76.76 0 0 0-1.078 0 .764.764 0 0 0 0 1.08l2.155 2.16z"/>
                <path d="M410.58 127.776c-5.042 0-9.143 4.11-9.143 9.164a.762.762 0 1 0 1.524 0c0-4.21 3.418-7.637 7.618-7.637a.762.762 0 0 0 .762-.764.762.762 0 0 0-.762-.763z"/>
            </g>
            <path fill="#444" fill-rule="nonzero" d="M390.789 10.623h-1.999V1h1.999v9.623zm5.573 0h-3.715V1h3.7c2.942 0 4.983 1.919 4.983 4.804 0 2.914-2.04 4.819-4.968 4.819zm-.014-1.804c1.858 0 2.941-1.37 2.941-3.015 0-1.688-1.013-3-2.927-3h-1.717v6.015h1.703zm13.046 1.804h-6.643V1h6.643v1.803h-4.644v2.02h4.545v1.803h-4.545V8.82h4.644v1.804zm10.316 0h-2.266l-.591-1.63h-4.025l-.591 1.63h-2.266L413.588 1h2.505l3.617 9.623zm-3.406-3.434l-1.464-4.14-1.463 4.14h2.927zm8.458 3.434h-2.012v-7.82h-2.745V1h7.487v1.803h-2.73v7.82zm10.654 0h-6.643V1h6.643v1.803h-4.644v2.02h4.545v1.803h-4.545V8.82h4.644v1.804z"/>
        </g>
        <g>
            <path fill="#51DDD5" d="M627.647 138.003c0 21.188-17.131 38.361-38.267 38.361-21.136 0-38.268-17.173-38.268-38.36 0-21.184 17.132-38.362 38.268-38.362s38.267 17.178 38.267 38.361"/>
            <path fill="#51DDD5" d="M590.571 88.464V50.11h-2.378V90.8h1.187v.003c25.964 0 47.088 21.176 47.088 47.2 0 26.027-21.124 47.202-47.088 47.202-25.964 0-47.084-21.175-47.084-47.203h-2.363c0 27.333 22.181 49.572 49.447 49.572 27.266 0 49.45-22.24 49.45-49.572 0-26.933-21.541-48.903-48.259-49.54"/>
            <path fill="#51DDD5" d="M594.488 50.11a5.112 5.112 0 0 1-5.108 5.117 5.112 5.112 0 0 1-5.108-5.116 5.116 5.116 0 0 1 5.108-5.121 5.116 5.116 0 0 1 5.108 5.12M701.907 138.003c0 2.832-2.288 5.121-5.105 5.121a5.11 5.11 0 0 1-5.104-5.12 5.109 5.109 0 0 1 5.104-5.118 5.111 5.111 0 0 1 5.105 5.117M546.268 138.003c0 2.828-2.284 5.121-5.104 5.121a5.116 5.116 0 0 1-5.109-5.12 5.112 5.112 0 0 1 5.109-5.118c2.82 0 5.104 2.29 5.104 5.117"/>
            <path fill="#51DDD5" d="M636.68 139.197h60.122v-2.384h-60.121z"/>
            <path fill="#FFFFFE" d="M619.264 138.242c0 16.58-13.408 30.017-29.948 30.017-16.536 0-29.948-13.436-29.948-30.017 0-16.58 13.412-30.017 29.948-30.017 16.54 0 29.948 13.437 29.948 30.017"/>
            <g fill="#000" fill-rule="nonzero">
                <path d="M581.658 129.78a.674.674 0 0 0-.525-.527.661.661 0 0 0-.503.1.673.673 0 0 0-.298.558.67.67 0 0 0 .298.558.685.685 0 0 0 .371.113.665.665 0 0 0 .657-.54.669.669 0 0 0 0-.262z"/>
                <path stroke="#FFF" stroke-width=".5" d="M605.485 153.504l-.626-4.112a.672.672 0 0 0-.037-.909l-10.592-10.617 1.943-1.949a7.58 7.58 0 0 0 8.284-1.646 7.644 7.644 0 0 0 1.956-7.385.93.93 0 0 0-.647-.645.915.915 0 0 0-.885.257c-.027.026-2.68 2.666-3.557 3.545-.06.06-.231.072-.33.057-.025-.005-.035-.005-.062-.008-1.005-.092-2.23-.275-2.626-.418-.147-.4-.331-1.649-.423-2.673-.003-.033 0-.032-.007-.058a.493.493 0 0 1 .15-.377c.913-.915 3.426-3.453 3.45-3.476.254-.256.352-.581.27-.894a.935.935 0 0 0-.668-.649 7.601 7.601 0 0 0-8.996 10.268l-1.945 1.948-11.397-11.425a2.611 2.611 0 0 0-3.695 0l-1.598 1.602a2.605 2.605 0 0 0-.765 1.852c0 .7.271 1.357.765 1.852l11.397 11.425-1.943 1.95a7.573 7.573 0 0 0-8.284 1.645 7.644 7.644 0 0 0-1.955 7.386.93.93 0 0 0 .646.644.915.915 0 0 0 .886-.256c.026-.027 2.68-2.666 3.557-3.545.06-.06.231-.073.33-.058.025.005.035.006.062.008 1.005.093 2.23.275 2.626.418.147.4.331 1.649.423 2.673.002.033 0 .032.007.058a.493.493 0 0 1-.15.377c-.913.915-3.426 3.453-3.45 3.477-.254.255-.353.58-.27.893.083.311.339.56.668.649a7.604 7.604 0 0 0 7.354-1.964 7.619 7.619 0 0 0 1.642-8.304l1.944-1.948 10.592 10.618a.667.667 0 0 0 .88.059l4.13.607.711.712a.667.667 0 0 0 .947 0 .672.672 0 0 0 0-.95l-.712-.714zm-12.133-21.063a.672.672 0 0 0 .132-.776 6.275 6.275 0 0 1 1.187-7.205 6.263 6.263 0 0 1 5.313-1.77c-.796.803-2.256 2.276-2.905 2.927a1.826 1.826 0 0 0-.528 1.524c.267 2.973.663 3.37.793 3.5.14.142.513.515 3.442.786.2.03.95.102 1.485-.435.629-.63 2.175-2.17 3.006-2.997a6.296 6.296 0 0 1-1.766 5.327 6.237 6.237 0 0 1-7.187 1.19.668.668 0 0 0-.775.132l-2.265 2.273-2.2-2.204 2.268-2.272zm-18.958-5.747a1.27 1.27 0 0 1-.373-.902c0-.341.132-.662.373-.903l1.598-1.602c.248-.249.574-.373.9-.373.326 0 .652.124.9.373l2.746 2.752-3.4 3.407-2.744-2.752zm11.329 17.8a.672.672 0 0 0-.132.777 6.262 6.262 0 1 1-6.5 8.975c.796-.804 2.256-2.277 2.905-2.927a1.826 1.826 0 0 0 .528-1.525c-.267-2.973-.663-3.37-.793-3.5-.14-.141-.513-.515-3.442-.786-.2-.03-.95-.102-1.485.435-.63.63-2.175 2.17-3.006 2.997a6.296 6.296 0 0 1 1.766-5.326 6.237 6.237 0 0 1 7.187-1.19c.26.128.572.075.775-.132.057-.059 1.32-1.326 2.265-2.273l2.2 2.204-2.268 2.271zm14.28 7.871l-21.917-21.97 3.399-3.407 21.916 21.97-1.226 1.229-18.928-18.975a.669.669 0 0 0-.947 0 .673.673 0 0 0 0 .95l18.928 18.974-1.226 1.23zm1.593.301l2.088-2.093.373 2.455-2.46-.362z"/>
                <path d="M584.501 145.74l-2.219-2.224a.669.669 0 0 0-.947 0 .673.673 0 0 0 0 .95l2.219 2.224a.667.667 0 0 0 .947 0 .673.673 0 0 0 0-.95zM597.74 132.47l-2.22-2.225a.669.669 0 0 0-.946 0 .673.673 0 0 0 0 .95l2.219 2.224a.667.667 0 0 0 .947 0 .673.673 0 0 0 0-.95z"/>
            </g>
            <path fill="#444" fill-rule="nonzero" d="M553.806 10.455h-1.98V1.153h4.35c2.022 0 3.124 1.367 3.124 2.999 0 1.618-1.116 2.984-3.124 2.984h-2.37v3.32zm2.091-5.062c.781 0 1.38-.474 1.38-1.241 0-.781-.599-1.255-1.38-1.255h-2.091v2.496h2.091zm12.188 5.062h-2.287L563.97 7.15h-1.45v3.305h-1.98V1.153h4.35c1.939 0 3.138 1.27 3.138 2.999 0 1.631-1.046 2.524-2.05 2.761l2.106 3.542zm-3.473-5.048c.781 0 1.381-.474 1.381-1.27 0-.766-.6-1.24-1.38-1.24h-2.092v2.51h2.091zm9.315 5.216c-2.817 0-4.866-2.008-4.866-4.812 0-2.803 2.05-4.811 4.866-4.811 2.803 0 4.853 2.008 4.853 4.811 0 2.804-2.05 4.812-4.853 4.812zm0-1.757c1.715 0 2.817-1.325 2.817-3.055 0-1.743-1.102-3.054-2.817-3.054-1.729 0-2.83 1.311-2.83 3.054 0 1.73 1.101 3.055 2.83 3.055zm10.389 1.59h-1.994v-7.56h-2.72V1.154h7.419v1.744h-2.705v7.558zm8.394.167c-2.817 0-4.867-2.008-4.867-4.812 0-2.803 2.05-4.811 4.867-4.811 2.803 0 4.852 2.008 4.852 4.811 0 2.804-2.05 4.812-4.852 4.812zm0-1.757c1.715 0 2.817-1.325 2.817-3.055 0-1.743-1.102-3.054-2.817-3.054-1.73 0-2.83 1.311-2.83 3.054 0 1.73 1.1 3.055 2.83 3.055zm10.388 1.59h-1.994v-7.56h-2.719V1.154h7.418v1.744h-2.705v7.558zm8.548 0h-1.98V6.647l-3.57-5.495h2.26l2.3 3.724 2.3-3.724h2.246l-3.556 5.495v3.807zm6.4 0h-1.98V1.152h4.35c2.023 0 3.124 1.367 3.124 2.999 0 1.618-1.115 2.984-3.123 2.984h-2.37v3.32zm2.092-5.063c.78 0 1.38-.474 1.38-1.241 0-.781-.6-1.255-1.38-1.255h-2.092v2.496h2.092zm11.225 5.062h-6.582V1.153h6.582v1.744h-4.602v1.952h4.504v1.743h-4.504v2.12h4.602v1.743z"/>
        </g>
        <g>
            <path fill="#9697FF" d="M806.33 138.003c0 21.188-17.135 38.361-38.27 38.361-21.133 0-38.268-17.173-38.268-38.36 0-21.184 17.135-38.362 38.267-38.362 21.136 0 38.272 17.178 38.272 38.361"/>
            <path fill="#9697FF" d="M769.25 88.464V50.11h-2.378V90.8h1.187v.003c25.964 0 47.088 21.176 47.088 47.2 0 26.027-21.124 47.202-47.088 47.202-25.964 0-47.084-21.175-47.084-47.203h-2.363c0 27.333 22.181 49.572 49.447 49.572 27.27 0 49.451-22.24 49.451-49.572 0-26.933-21.542-48.903-48.26-49.54"/>
            <path fill="#9697FF" d="M773.168 50.11a5.11 5.11 0 0 1-5.109 5.117 5.109 5.109 0 0 1-5.104-5.116c0-2.828 2.284-5.121 5.104-5.121a5.113 5.113 0 0 1 5.109 5.12M724.884 138.003a5.116 5.116 0 0 1-5.108 5.121c-2.82 0-5.104-2.293-5.104-5.12a5.109 5.109 0 0 1 5.104-5.118c2.82 0 5.108 2.29 5.108 5.117"/>
            <path fill="#FFFFFE" d="M798.11 137.942c0 16.58-13.408 30.017-29.948 30.017-16.537 0-29.945-13.437-29.945-30.017s13.408-30.017 29.945-30.017c16.54 0 29.948 13.436 29.948 30.017"/>
            <g fill="#000" fill-rule="nonzero">
                <path d="M775.61 138.722c.329 0 .646.096.92.28l3.862 2.58c.456.304.986.466 1.534.466h3.602v-1.109h-3.602c-.328 0-.647-.096-.92-.28l-1.56-1.042v-18.633h-21.013v3.326h-7.188v31.041h21.012v-3.326h7.189v-4.663c.035-.009.07-.011.105-.02l2.573-.644a7.18 7.18 0 0 1 1.745-.216h1.66v-1.108h-1.66c-.678 0-1.355.083-2.013.248l-2.573.644a7.214 7.214 0 0 1-4.02-.154l-.933-.312a8.273 8.273 0 0 0-2.626-.426h-4.825c0-.917.745-1.663 1.66-1.663h6.082a1.659 1.659 0 1 0 .194-3.306l.454-1.683h.34zm-.699 8.441a8.26 8.26 0 0 0 2.626.428c.269 0 .536-.024.803-.05v3.376h-6.083v-1.814a2 2 0 0 0 .426-.79l.452-1.681c.285.058.568.127.845.22l.931.311zm-2.884-.668l-.412 1.529a.914.914 0 0 1-.88.675h-.18a.913.913 0 0 1-.879-1.152l.287-1.065h1.741c.108 0 .216.009.323.013zm-3.21-.013l-.209.776a2.016 2.016 0 0 0 .95 2.275l-.174.694 1.073.27.172-.689h.106c.143 0 .28-.02.416-.049v4.483h-18.8V125.42h7.188v-3.326h18.8v16.785l-1.195-.8a2.756 2.756 0 0 0-1.534-.465h-.043l2.302-8.535a2.023 2.023 0 0 0-1.948-2.55h-.179c-.91 0-1.71.614-1.948 1.494l-1.537 5.702v-9.414h-11.612v1.109h10.506v12.194h-1.144c-.601 0-1.168.2-1.642.555h-5.508v1.108h4.346l-1.106 1.109h-3.24v1.108h2.135l-.924.927a1.73 1.73 0 0 0 1.22 2.954c.17 0 .335-.033.494-.08 0 .026-.008.052-.008.08 0 .61.496 1.108 1.106 1.108h1.937zm4.26-3.88h-2.068l2.335-8.66 1.897.633-2.164 8.027zm-4.242-3.393a1.67 1.67 0 0 1 1.172-.487h.903l-.451 1.673c-.7.025-1.356.302-1.853.801l-2.88 2.886a.621.621 0 0 1-.877-.879l3.986-3.994zm.553 2.771c.209-.21.474-.352.758-.427l-.282 1.049h-1.096l.62-.622zm7.413-13.192l-.677 2.512-1.897-.634.635-2.354a.914.914 0 0 1 .88-.676h.18a.913.913 0 0 1 .879 1.152zm-2.863 2.95l1.897.634-.305 1.131-1.897-.634.305-1.13zm.683 9.755a.555.555 0 0 1 0 1.109h-.399l.3-1.109h.099z"/>
                <path d="M767.834 126.527h-14.377v5.543h14.377v-5.543zm-1.106 4.435h-12.165v-3.326h12.165v3.326z"/>
                <path d="M755.669 128.744h1.106v1.109h-1.106zM757.88 128.744h1.106v1.109h-1.106zM760.092 128.744h1.106v1.109h-1.106zM762.304 128.744h1.106v1.109h-1.106zM764.516 128.744h1.106v1.109h-1.106zM760.092 138.722h-1.106v2.217h-4.423v-4.434h3.317v-1.109h-4.423v6.652h6.635z"/>
                <path d="M761.913 133.341l-5.138 5.151-.715-.716-.782.783 1.497 1.501 5.92-5.935zM758.986 150.362h-4.423v-4.434h3.317v-1.109h-4.423v6.652h6.635v-3.326h-1.106z"/>
                <path d="M756.06 147.199l-.782.784 1.497 1.5 5.92-5.935-.782-.784-5.138 5.152zM768.94 151.47h1.106v1.11h-1.106zM761.751 151.47h6.083v1.11h-6.083zM762.857 135.95h7.189v1.109h-7.189z"/>
            </g>
            <path fill="#444" fill-rule="nonzero" d="M756.673 10.155h-2.007v-7.57h-2.735V.84h7.464v1.745h-2.722v7.57zm10.62 0h-6.622V.84h6.622v1.745h-4.63v1.956h4.532v1.745h-4.532V8.41h4.63v1.746zm4.897.168c-1.81 0-3.1-.601-3.985-1.48l1.094-1.551a4.12 4.12 0 0 0 2.975 1.27c1.108 0 1.627-.488 1.627-1.033 0-1.62-5.387-.488-5.387-3.994 0-1.55 1.347-2.835 3.55-2.835 1.487 0 2.721.447 3.647 1.299l-1.108 1.48c-.758-.698-1.768-1.02-2.722-1.02-.842 0-1.319.364-1.319.922 0 1.467 5.374.475 5.374 3.953 0 1.704-1.235 2.989-3.746 2.989zm9.245-.168h-2.006v-7.57h-2.736V.84h7.464v1.745h-2.722v7.57z"/>
        </g>
        <g>
            <path fill="#807465" fill-rule="nonzero" d="M94.095 265.136c-2.814 0-4.278-1.716-4.278-4.421v-6.78h.954v6.763c0 2.227 1.169 3.58 3.324 3.58 2.156 0 3.324-1.353 3.324-3.58v-6.763h.955v6.78c0 2.722-1.448 4.42-4.279 4.42zm15.782-.198h-.922l-6.911-9.452v9.452h-.938v-11.003h.954l6.879 9.32v-9.32h.938v11.003zm6.236 0h-3.505v-11.003h3.505c3.407 0 5.546 2.491 5.546 5.51 0 3.052-2.14 5.493-5.546 5.493zm0-.858c2.897 0 4.559-2.062 4.559-4.635 0-2.574-1.646-4.652-4.559-4.652h-2.567v9.287h2.567zm14.844.858h-6.961v-11.003h6.96v.858h-6.022v4.074h5.908v.858h-5.908v4.355h6.023v.858zm9.89 0h-1.136l-3.077-4.553h-2.419v4.553h-.938v-11.003h4.098c1.892 0 3.34 1.204 3.34 3.217 0 1.996-1.399 3.101-3.044 3.167l3.176 4.619zm-3.555-5.41c1.465 0 2.436-.99 2.436-2.376s-.971-2.36-2.436-2.36h-3.077v4.735h3.077zm9.166 5.608c-1.81 0-3.176-.742-4.015-1.749l.609-.709c.708.808 1.86 1.6 3.44 1.6 2.237 0 2.88-1.254 2.88-2.194 0-3.233-6.583-1.55-6.583-5.394 0-1.798 1.612-2.936 3.604-2.936 1.629 0 2.88.577 3.719 1.55l-.626.693c-.79-.957-1.909-1.386-3.143-1.386-1.464 0-2.567.842-2.567 2.03 0 2.82 6.582 1.27 6.582 5.377 0 1.419-.938 3.118-3.9 3.118zm9.907-.198h-.955v-10.145h-3.587v-.858h8.13v.858h-3.588v10.145zm14.563 0h-1.086l-1.086-2.705h-5.809l-1.086 2.705h-1.086l4.493-11.003h1.168l4.492 11.003zm-2.484-3.563l-2.584-6.434-2.6 6.434h5.184zm12.868 3.563h-.921l-6.912-9.452v9.452h-.938v-11.003h.955l6.878 9.32v-9.32h.938v11.003zm6.237 0h-3.505v-11.003h3.505c3.406 0 5.546 2.491 5.546 5.51 0 3.052-2.14 5.493-5.546 5.493zm0-.858c2.896 0 4.558-2.062 4.558-4.635 0-2.574-1.645-4.652-4.558-4.652h-2.567v9.287h2.567z"/>
            <path stroke="#807465" stroke-linecap="square" stroke-width=".686" d="M46.625 215.793v45.021M46.625 260.814h19.199M209.128 260.814h19.199M229.013 215.793v45.021" opacity=".359"/>
        </g>
        <g>
            <path fill="#807465" fill-rule="nonzero" d="M474.58 266.313h-6.961V255.31h6.96v.858h-6.022v4.074h5.908v.858h-5.908v4.355h6.023v.858zm11.256 0h-1.169l-3.834-4.966-3.818 4.966h-1.168l4.41-5.642-4.163-5.361h1.185l3.554 4.668 3.571-4.668h1.185l-4.163 5.344 4.41 5.659zm2.616 0h-.938V255.31h4.114c2.107 0 3.308 1.484 3.308 3.216 0 1.733-1.218 3.217-3.308 3.217h-3.176v4.57zm3.078-5.428c1.464 0 2.419-.99 2.419-2.359 0-1.385-.955-2.358-2.42-2.358h-3.077v4.717h3.078zm11.42 5.428h-6.27V255.31h.955v10.145h5.315v.858zm6.846.198c-3.226 0-5.332-2.475-5.332-5.692 0-3.216 2.106-5.69 5.332-5.69 3.209 0 5.331 2.474 5.331 5.69 0 3.217-2.122 5.692-5.331 5.692zm0-.858c2.633 0 4.344-2.062 4.344-4.834 0-2.787-1.711-4.833-4.344-4.833-2.65 0-4.345 2.046-4.345 4.833 0 2.772 1.695 4.834 4.345 4.834zm15.221.66h-1.135l-3.077-4.553h-2.42v4.553h-.937V255.31h4.097c1.893 0 3.34 1.204 3.34 3.216 0 1.997-1.398 3.102-3.044 3.168l3.176 4.619zm-3.554-5.411c1.465 0 2.435-.99 2.435-2.376 0-1.385-.97-2.358-2.435-2.358h-3.077v4.734h3.077zm12.72 5.41h-6.96V255.31h6.96v.858h-6.022v4.074h5.907v.858h-5.907v4.355h6.022v.858z"/>
            <path stroke="#807465" stroke-linecap="square" stroke-width=".686" d="M412.428 216.137v45.02M412.428 261.158h19.199M572.874 261.158h19.199M592.759 216.137v45.02" opacity=".359"/>
        </g>
        <g>
            <path fill="#807465" fill-rule="nonzero" d="M730.213 266.313h-.955v-9.816l-3.998 9.816h-.363l-4.015-9.816v9.816h-.938V255.31h1.399l3.735 9.155 3.72-9.155h1.415v11.003zm11.766 0h-1.086l-1.086-2.706h-5.81l-1.085 2.706h-1.087l4.493-11.003h1.168l4.493 11.003zm-2.485-3.564l-2.584-6.433-2.6 6.433h5.184zm7.85 3.564h-.955v-10.145h-3.587v-.858h8.129v.858h-3.588v10.145zm12.49 0h-6.961V255.31h6.96v.858h-6.022v4.074h5.907v.858h-5.907v4.355h6.023v.858zm9.89 0h-1.136l-3.077-4.553h-2.42v4.553h-.937V255.31h4.097c1.893 0 3.341 1.204 3.341 3.216 0 1.997-1.399 3.102-3.044 3.168l3.176 4.619zm-3.555-5.411c1.465 0 2.436-.99 2.436-2.376 0-1.385-.971-2.358-2.436-2.358h-3.077v4.734h3.077zm6.698 5.41h-.938V255.31h.938v11.003zm11.766 0h-1.086l-1.086-2.705h-5.81l-1.086 2.706h-1.086l4.493-11.003h1.168l4.493 11.003zm-2.485-3.563l-2.584-6.433-2.6 6.433h5.184zm10.137 3.564h-6.27V255.31h.954v10.145h5.316v.858zm2.863 0h-.938V255.31h.938v11.003zm10.104 0h-7.915v-.825l6.615-9.32h-6.615v-.858h7.8v.808l-6.615 9.337h6.73v.858zm9.15 0h-6.961V255.31h6.96v.858h-6.022v4.074h5.907v.858h-5.907v4.355h6.023v.858z"/>
            <path stroke="#807465" stroke-linecap="square" stroke-width=".686" d="M767.604 216.137v24.4" opacity=".359"/>
        </g>
    </g>
</svg>
