<svg width="22" height="13" viewBox="0 0 22 13" fill="none" xmlns="http://www.w3.org/2000/svg">
<path fill-rule="evenodd" clip-rule="evenodd" d="M0.5 2.05154C0.506225 2.14229 0.505475 2.16539 0.520926 2.25524C0.555802 2.4573 0.63238 2.65164 0.744885 2.82309C0.801737 2.9098 0.867891 2.98548 0.938469 3.06108L9.93885 12.0615C10.0054 12.1236 10.0205 12.1409 10.0932 12.196C10.1748 12.2579 10.2628 12.3114 10.3553 12.3554C10.7597 12.5477 11.2395 12.5477 11.6438 12.3554C11.7364 12.3114 11.8244 12.2579 11.906 12.196C11.9786 12.1409 11.9938 12.1236 12.0602 12.0615L21.0606 3.06108C21.1227 2.99455 21.1401 2.97932 21.1952 2.90672C21.3399 2.71606 21.4375 2.49105 21.4782 2.25524C21.5072 2.08686 21.5072 1.91383 21.4782 1.74545C21.455 1.61082 21.4133 1.47949 21.3546 1.35611C21.1318 0.887485 20.6696 0.561221 20.1534 0.508119C19.9494 0.487193 19.7416 0.508569 19.5462 0.570597C19.3833 0.622274 19.2297 0.701852 19.0936 0.805056C19.0209 0.860184 19.0058 0.87751 18.9392 0.939612L10.9996 8.8793L3.05986 0.939612L2.98501 0.86971C2.9145 0.812332 2.89808 0.795981 2.82187 0.746029C2.67907 0.65235 2.52029 0.583347 2.35438 0.54292C2.22162 0.510594 2.08452 0.496493 1.94801 0.501143C1.42937 0.518844 0.945969 0.812857 0.691633 1.26513C0.607929 1.41401 0.549952 1.57714 0.520926 1.74545C0.505475 1.8353 0.506225 1.8584 0.5 1.94916C0.5 1.98328 0.5 2.01741 0.5 2.05154V2.05154Z" fill="#B9B9B9"/>
</svg>
