<svg width="67" height="67" viewBox="0 0 67 67" fill="none" xmlns="http://www.w3.org/2000/svg">
<path d="M67 33.5C67 14.9985 52.0015 0 33.5 0C14.9985 0 0 14.9985 0 33.5C0 52.0015 14.9985 67 33.5 67C52.0015 67 67 52.0015 67 33.5Z" fill="#FFD4D0"/>
<path d="M17.58 32.26C19.5533 32.26 21.0067 32.6533 21.94 33.44C22.8867 34.2267 23.36 35.28 23.36 36.6C23.36 37.4533 23.1467 38.2333 22.72 38.94C22.2933 39.6333 21.64 40.1933 20.76 40.62C19.8933 41.0333 18.82 41.24 17.54 41.24C16.5533 41.24 15.58 41.1133 14.62 40.86C13.6733 40.5933 12.8667 40.22 12.2 39.74L13.48 37.26C14.0133 37.66 14.6267 37.9733 15.32 38.2C16.0133 38.4133 16.7267 38.52 17.46 38.52C18.2733 38.52 18.9133 38.36 19.38 38.04C19.8467 37.72 20.08 37.2733 20.08 36.7C20.08 36.1 19.8333 35.6467 19.34 35.34C18.86 35.0333 18.02 34.88 16.82 34.88H13.24L13.96 27H22.5V29.6H16.66L16.44 32.26H17.58ZM35.0369 38.36V41H24.4569V38.9L29.8569 33.8C30.4302 33.2533 30.8169 32.7867 31.0169 32.4C31.2169 32 31.3169 31.6067 31.3169 31.22C31.3169 30.66 31.1235 30.2333 30.7369 29.94C30.3635 29.6333 29.8102 29.48 29.0769 29.48C28.4635 29.48 27.9102 29.6 27.4169 29.84C26.9235 30.0667 26.5102 30.4133 26.1769 30.88L23.8169 29.36C24.3635 28.5467 25.1169 27.9133 26.0769 27.46C27.0369 26.9933 28.1369 26.76 29.3769 26.76C30.4169 26.76 31.3235 26.9333 32.0969 27.28C32.8835 27.6133 33.4902 28.0933 33.9169 28.72C34.3569 29.3333 34.5769 30.06 34.5769 30.9C34.5769 31.66 34.4169 32.3733 34.0969 33.04C33.7769 33.7067 33.1569 34.4667 32.2369 35.32L29.0169 38.36H35.0369ZM39.8091 34.56C38.7824 34.56 37.9424 34.2133 37.2891 33.52C36.6491 32.8133 36.3291 31.8733 36.3291 30.7C36.3291 29.5267 36.6491 28.5933 37.2891 27.9C37.9424 27.1933 38.7824 26.84 39.8091 26.84C40.8357 26.84 41.6691 27.1933 42.3091 27.9C42.9491 28.5933 43.2691 29.5267 43.2691 30.7C43.2691 31.8733 42.9491 32.8133 42.3091 33.52C41.6691 34.2133 40.8357 34.56 39.8091 34.56ZM48.1491 27H50.5291L40.9691 41H38.5891L48.1491 27ZM39.8091 32.92C40.2624 32.92 40.6157 32.7333 40.8691 32.36C41.1357 31.9867 41.2691 31.4333 41.2691 30.7C41.2691 29.9667 41.1357 29.4133 40.8691 29.04C40.6157 28.6667 40.2624 28.48 39.8091 28.48C39.3691 28.48 39.0157 28.6733 38.7491 29.06C38.4824 29.4333 38.3491 29.98 38.3491 30.7C38.3491 31.42 38.4824 31.9733 38.7491 32.36C39.0157 32.7333 39.3691 32.92 39.8091 32.92ZM49.3091 41.16C48.6424 41.16 48.0424 41.0067 47.5091 40.7C46.9891 40.38 46.5824 39.9267 46.2891 39.34C45.9957 38.7533 45.8491 38.0733 45.8491 37.3C45.8491 36.5267 45.9957 35.8467 46.2891 35.26C46.5824 34.6733 46.9891 34.2267 47.5091 33.92C48.0424 33.6 48.6424 33.44 49.3091 33.44C50.3357 33.44 51.1691 33.7933 51.8091 34.5C52.4624 35.1933 52.7891 36.1267 52.7891 37.3C52.7891 38.4733 52.4624 39.4133 51.8091 40.12C51.1691 40.8133 50.3357 41.16 49.3091 41.16ZM49.3091 39.52C49.7624 39.52 50.1157 39.3333 50.3691 38.96C50.6357 38.5733 50.7691 38.02 50.7691 37.3C50.7691 36.58 50.6357 36.0333 50.3691 35.66C50.1157 35.2733 49.7624 35.08 49.3091 35.08C48.8691 35.08 48.5157 35.2667 48.2491 35.64C47.9824 36.0133 47.8491 36.5667 47.8491 37.3C47.8491 38.0333 47.9824 38.5867 48.2491 38.96C48.5157 39.3333 48.8691 39.52 49.3091 39.52Z" fill="#1B236D"/>
</svg>
