<svg width="67" height="67" viewBox="0 0 67 67" fill="none" xmlns="http://www.w3.org/2000/svg">
<path d="M67 33.5C67 14.9985 52.0015 0 33.5 0C14.9985 0 0 14.9985 0 33.5C0 52.0015 14.9985 67 33.5 67C52.0015 67 67 52.0015 67 33.5Z" fill="#FFD4D0"/>
<path d="M17.58 32.26C19.5533 32.26 21.0067 32.6533 21.94 33.44C22.8867 34.2267 23.36 35.28 23.36 36.6C23.36 37.4533 23.1467 38.2333 22.72 38.94C22.2933 39.6333 21.64 40.1933 20.76 40.62C19.8933 41.0333 18.82 41.24 17.54 41.24C16.5533 41.24 15.58 41.1133 14.62 40.86C13.6733 40.5933 12.8667 40.22 12.2 39.74L13.48 37.26C14.0133 37.66 14.6267 37.9733 15.32 38.2C16.0133 38.4133 16.7267 38.52 17.46 38.52C18.2733 38.52 18.9133 38.36 19.38 38.04C19.8467 37.72 20.08 37.2733 20.08 36.7C20.08 36.1 19.8333 35.6467 19.34 35.34C18.86 35.0333 18.02 34.88 16.82 34.88H13.24L13.96 27H22.5V29.6H16.66L16.44 32.26H17.58ZM35.4002 27V29.1L30.2002 41H26.6802L31.7002 29.64H27.0602V31.92H24.1802V27H35.4002ZM40.1997 34.56C39.173 34.56 38.333 34.2133 37.6797 33.52C37.0397 32.8133 36.7197 31.8733 36.7197 30.7C36.7197 29.5267 37.0397 28.5933 37.6797 27.9C38.333 27.1933 39.173 26.84 40.1997 26.84C41.2264 26.84 42.0597 27.1933 42.6997 27.9C43.3397 28.5933 43.6597 29.5267 43.6597 30.7C43.6597 31.8733 43.3397 32.8133 42.6997 33.52C42.0597 34.2133 41.2264 34.56 40.1997 34.56ZM48.5397 27H50.9197L41.3597 41H38.9797L48.5397 27ZM40.1997 32.92C40.653 32.92 41.0064 32.7333 41.2597 32.36C41.5264 31.9867 41.6597 31.4333 41.6597 30.7C41.6597 29.9667 41.5264 29.4133 41.2597 29.04C41.0064 28.6667 40.653 28.48 40.1997 28.48C39.7597 28.48 39.4064 28.6733 39.1397 29.06C38.873 29.4333 38.7397 29.98 38.7397 30.7C38.7397 31.42 38.873 31.9733 39.1397 32.36C39.4064 32.7333 39.7597 32.92 40.1997 32.92ZM49.6997 41.16C49.033 41.16 48.433 41.0067 47.8997 40.7C47.3797 40.38 46.973 39.9267 46.6797 39.34C46.3864 38.7533 46.2397 38.0733 46.2397 37.3C46.2397 36.5267 46.3864 35.8467 46.6797 35.26C46.973 34.6733 47.3797 34.2267 47.8997 33.92C48.433 33.6 49.033 33.44 49.6997 33.44C50.7264 33.44 51.5597 33.7933 52.1997 34.5C52.853 35.1933 53.1797 36.1267 53.1797 37.3C53.1797 38.4733 52.853 39.4133 52.1997 40.12C51.5597 40.8133 50.7264 41.16 49.6997 41.16ZM49.6997 39.52C50.153 39.52 50.5064 39.3333 50.7597 38.96C51.0264 38.5733 51.1597 38.02 51.1597 37.3C51.1597 36.58 51.0264 36.0333 50.7597 35.66C50.5064 35.2733 50.153 35.08 49.6997 35.08C49.2597 35.08 48.9064 35.2667 48.6397 35.64C48.373 36.0133 48.2397 36.5667 48.2397 37.3C48.2397 38.0333 48.373 38.5867 48.6397 38.96C48.9064 39.3333 49.2597 39.52 49.6997 39.52Z" fill="#1B236D"/>
</svg>
