<svg width="67" height="67" viewBox="0 0 67 67" fill="none" xmlns="http://www.w3.org/2000/svg">
<path d="M67 33.5C67 14.9985 52.0015 0 33.5 0C14.9985 0 0 14.9985 0 33.5C0 52.0015 14.9985 67 33.5 67C52.0015 67 67 52.0015 67 33.5Z" fill="#FFD4D0"/>
<path d="M22.36 33.64C23.0533 33.9867 23.58 34.44 23.94 35C24.3133 35.56 24.5 36.2067 24.5 36.94C24.5 37.8067 24.2533 38.5667 23.76 39.22C23.2667 39.86 22.5733 40.36 21.68 40.72C20.7867 41.0667 19.7533 41.24 18.58 41.24C17.4067 41.24 16.3733 41.0667 15.48 40.72C14.6 40.36 13.9133 39.86 13.42 39.22C12.94 38.5667 12.7 37.8067 12.7 36.94C12.7 36.2067 12.88 35.56 13.24 35C13.6133 34.44 14.14 33.9867 14.82 33.64C14.3 33.32 13.9 32.92 13.62 32.44C13.34 31.9467 13.2 31.3867 13.2 30.76C13.2 29.9467 13.4267 29.24 13.88 28.64C14.3333 28.04 14.9667 27.58 15.78 27.26C16.5933 26.9267 17.5267 26.76 18.58 26.76C19.6467 26.76 20.5867 26.9267 21.4 27.26C22.2267 27.58 22.8667 28.04 23.32 28.64C23.7733 29.24 24 29.9467 24 30.76C24 31.3867 23.86 31.9467 23.58 32.44C23.3 32.92 22.8933 33.32 22.36 33.64ZM18.58 29.14C17.9267 29.14 17.4 29.3 17 29.62C16.6133 29.9267 16.42 30.3533 16.42 30.9C16.42 31.4333 16.6133 31.8533 17 32.16C17.3867 32.4667 17.9133 32.62 18.58 32.62C19.2467 32.62 19.78 32.4667 20.18 32.16C20.58 31.8533 20.78 31.4333 20.78 30.9C20.78 30.3533 20.58 29.9267 20.18 29.62C19.78 29.3 19.2467 29.14 18.58 29.14ZM18.58 38.86C19.3933 38.86 20.0333 38.68 20.5 38.32C20.98 37.9467 21.22 37.4533 21.22 36.84C21.22 36.2267 20.98 35.74 20.5 35.38C20.0333 35.02 19.3933 34.84 18.58 34.84C17.78 34.84 17.1467 35.02 16.68 35.38C16.2133 35.74 15.98 36.2267 15.98 36.84C15.98 37.4667 16.2133 37.96 16.68 38.32C17.1467 38.68 17.78 38.86 18.58 38.86ZM36.9431 27V29.1L31.7431 41H28.2231L33.2431 29.64H28.6031V31.92H25.7231V27H36.9431ZM41.7427 34.56C40.716 34.56 39.876 34.2133 39.2227 33.52C38.5827 32.8133 38.2627 31.8733 38.2627 30.7C38.2627 29.5267 38.5827 28.5933 39.2227 27.9C39.876 27.1933 40.716 26.84 41.7427 26.84C42.7693 26.84 43.6027 27.1933 44.2427 27.9C44.8827 28.5933 45.2027 29.5267 45.2027 30.7C45.2027 31.8733 44.8827 32.8133 44.2427 33.52C43.6027 34.2133 42.7693 34.56 41.7427 34.56ZM50.0827 27H52.4627L42.9027 41H40.5227L50.0827 27ZM41.7427 32.92C42.196 32.92 42.5493 32.7333 42.8027 32.36C43.0693 31.9867 43.2027 31.4333 43.2027 30.7C43.2027 29.9667 43.0693 29.4133 42.8027 29.04C42.5493 28.6667 42.196 28.48 41.7427 28.48C41.3027 28.48 40.9493 28.6733 40.6827 29.06C40.416 29.4333 40.2827 29.98 40.2827 30.7C40.2827 31.42 40.416 31.9733 40.6827 32.36C40.9493 32.7333 41.3027 32.92 41.7427 32.92ZM51.2427 41.16C50.576 41.16 49.976 41.0067 49.4427 40.7C48.9227 40.38 48.516 39.9267 48.2227 39.34C47.9293 38.7533 47.7827 38.0733 47.7827 37.3C47.7827 36.5267 47.9293 35.8467 48.2227 35.26C48.516 34.6733 48.9227 34.2267 49.4427 33.92C49.976 33.6 50.576 33.44 51.2427 33.44C52.2693 33.44 53.1027 33.7933 53.7427 34.5C54.396 35.1933 54.7227 36.1267 54.7227 37.3C54.7227 38.4733 54.396 39.4133 53.7427 40.12C53.1027 40.8133 52.2693 41.16 51.2427 41.16ZM51.2427 39.52C51.696 39.52 52.0493 39.3333 52.3027 38.96C52.5693 38.5733 52.7027 38.02 52.7027 37.3C52.7027 36.58 52.5693 36.0333 52.3027 35.66C52.0493 35.2733 51.696 35.08 51.2427 35.08C50.8027 35.08 50.4493 35.2667 50.1827 35.64C49.916 36.0133 49.7827 36.5667 49.7827 37.3C49.7827 38.0333 49.916 38.5867 50.1827 38.96C50.4493 39.3333 50.8027 39.52 51.2427 39.52Z" fill="#1B236D"/>
</svg>
