<svg width="489" height="368" viewBox="0 0 489 368" fill="none" xmlns="http://www.w3.org/2000/svg">
<g clip-path="url(#clip0)">
<g filter="url(#filter0_d)">
<path d="M294 302C294 279.909 276.091 262 254 262C231.909 262 214 279.909 214 302C214 324.091 231.909 342 254 342C276.091 342 294 324.091 294 302Z" fill="#27AE60"/>
</g>
<g filter="url(#filter1_d)">
<path d="M351.569 262H350C327.909 262 310 279.909 310 302C310 324.091 327.909 342 350 342H351.569C373.66 342 391.569 324.091 391.569 302C391.569 279.909 373.66 262 351.569 262Z" fill="#FA2B56"/>
</g>
<g filter="url(#filter2_d)">
<path d="M391.881 65C391.881 42.9086 373.973 25 351.881 25C329.79 25 311.881 42.9086 311.881 65C311.881 87.0914 329.79 105 351.881 105C373.973 105 391.881 87.0914 391.881 65Z" fill="#1D83EF"/>
</g>
<g filter="url(#filter3_d)">
<path d="M254.769 25.0004H253.231C231.564 25.0004 214 42.909 214 65.0004C214 87.0917 231.564 105 253.231 105H254.769C276.436 105 294 87.0917 294 65.0004C294 42.909 276.436 25.0004 254.769 25.0004Z" fill="#4146BC"/>
</g>
<g filter="url(#filter4_d)">
<path d="M197 184C197 161.909 179.091 144 157 144C134.909 144 117 161.909 117 184C117 206.091 134.909 224 157 224C179.091 224 197 206.091 197 184Z" fill="white"/>
</g>
<g filter="url(#filter5_d)">
<path d="M253.769 144H252.231C230.564 144 213 161.909 213 184C213 206.091 230.564 224 252.231 224H253.769C275.436 224 293 206.091 293 184C293 161.909 275.436 144 253.769 144Z" fill="#F0F0F2"/>
</g>
<g filter="url(#filter6_d)">
<path d="M390.725 184C390.725 161.909 372.816 144 350.725 144C328.634 144 310.725 161.909 310.725 184C310.725 206.091 328.634 224 350.725 224C372.816 224 390.725 206.091 390.725 184Z" fill="#545361"/>
</g>
<g filter="url(#filter7_d)">
<path d="M488 184C488 161.909 470.091 144 448 144C425.909 144 408 161.909 408 184C408 206.091 425.909 224 448 224C470.091 224 488 206.091 488 184Z" fill="#161338"/>
</g>
<path d="M11.448 58.532C11.448 59.816 11.016 60.788 10.152 61.448C9.3 62.096 8.148 62.42 6.696 62.42H3.636C3.528 62.42 3.474 62.474 3.474 62.582V67.73C3.474 67.91 3.384 68 3.204 68H1.98C1.824 68 1.746 67.922 1.746 67.766V54.896C1.746 54.8 1.758 54.734 1.782 54.698C1.818 54.662 1.878 54.644 1.962 54.644H6.498C7.998 54.644 9.198 54.968 10.098 55.616C10.998 56.252 11.448 57.224 11.448 58.532ZM9.684 58.478C9.684 57.59 9.402 56.948 8.838 56.552C8.274 56.156 7.464 55.958 6.408 55.958H3.708C3.552 55.958 3.474 56.03 3.474 56.174V60.854C3.474 60.95 3.486 61.016 3.51 61.052C3.534 61.088 3.576 61.106 3.636 61.106H6.534C7.518 61.106 8.286 60.89 8.838 60.458C9.402 60.014 9.684 59.354 9.684 58.478ZM14.0657 68C13.8977 68 13.8137 67.922 13.8137 67.766V58.694C13.8137 58.538 13.8797 58.46 14.0117 58.46H15.0557C15.1877 58.46 15.2537 58.526 15.2537 58.658V59.828C15.2537 59.9 15.2717 59.942 15.3077 59.954C15.3557 59.966 15.4037 59.942 15.4517 59.882C16.3637 58.814 17.2937 58.28 18.2417 58.28C18.6617 58.28 18.8717 58.358 18.8717 58.514V59.594C18.8717 59.714 18.8177 59.762 18.7097 59.738C18.4937 59.702 18.2237 59.684 17.8997 59.684C17.5517 59.684 17.1737 59.786 16.7657 59.99C16.3577 60.194 16.0157 60.458 15.7397 60.782C15.4637 61.106 15.3257 61.436 15.3257 61.772V67.73C15.3257 67.91 15.2357 68 15.0557 68H14.0657ZM22.2884 56.408C22.2884 56.528 22.2644 56.618 22.2164 56.678C22.1684 56.726 22.0844 56.75 21.9644 56.75H20.9204C20.7404 56.75 20.6504 56.648 20.6504 56.444V54.932C20.6504 54.74 20.7344 54.644 20.9024 54.644H22.0364C22.1084 54.644 22.1684 54.668 22.2164 54.716C22.2644 54.764 22.2884 54.83 22.2884 54.914V56.408ZM22.2164 67.694C22.2164 67.814 22.1924 67.898 22.1444 67.946C22.0964 67.982 22.0124 68 21.8924 68H20.9744C20.8664 68 20.7944 67.982 20.7584 67.946C20.7224 67.91 20.7044 67.844 20.7044 67.748V58.712C20.7044 58.544 20.7764 58.46 20.9204 58.46H22.0184C22.1504 58.46 22.2164 58.538 22.2164 58.694V67.694ZM25.263 68C25.095 68 25.011 67.922 25.011 67.766V58.694C25.011 58.538 25.077 58.46 25.209 58.46H26.289C26.409 58.46 26.469 58.526 26.469 58.658V59.702C26.469 59.846 26.529 59.864 26.649 59.756C27.297 59.228 27.849 58.85 28.305 58.622C28.761 58.394 29.271 58.28 29.835 58.28C30.507 58.28 31.059 58.43 31.491 58.73C31.935 59.03 32.235 59.408 32.391 59.864C32.415 59.9 32.439 59.918 32.463 59.918C32.499 59.918 32.559 59.888 32.643 59.828C33.267 59.3 33.825 58.91 34.317 58.658C34.821 58.406 35.349 58.28 35.901 58.28C36.765 58.28 37.437 58.526 37.917 59.018C38.409 59.51 38.655 60.176 38.655 61.016V67.712C38.655 67.904 38.565 68 38.385 68H37.377C37.221 68 37.143 67.922 37.143 67.766V61.34C37.143 60.74 36.999 60.278 36.711 59.954C36.423 59.63 35.991 59.468 35.415 59.468C34.935 59.468 34.485 59.588 34.065 59.828C33.645 60.056 33.237 60.344 32.841 60.692C32.745 60.788 32.679 60.872 32.643 60.944C32.607 61.016 32.589 61.106 32.589 61.214V67.712C32.589 67.904 32.499 68 32.319 68H31.311C31.155 68 31.077 67.922 31.077 67.766V61.34C31.077 60.092 30.501 59.468 29.349 59.468C28.869 59.468 28.425 59.582 28.017 59.81C27.621 60.026 27.123 60.398 26.523 60.926V67.73C26.523 67.826 26.499 67.898 26.451 67.946C26.415 67.982 26.349 68 26.253 68H25.263ZM46.8675 66.848C45.9435 67.736 44.8755 68.18 43.6635 68.18C42.7275 68.18 41.9895 67.946 41.4495 67.478C40.9215 66.998 40.6575 66.362 40.6575 65.57C40.6575 64.61 41.0595 63.854 41.8635 63.302C42.6795 62.75 43.8555 62.426 45.3915 62.33L46.7955 62.222C46.9995 62.198 47.1015 62.108 47.1015 61.952V61.466C47.1015 60.818 46.8975 60.308 46.4895 59.936C46.0935 59.552 45.5535 59.36 44.8695 59.36C43.8135 59.36 42.9495 59.84 42.2775 60.8C42.2415 60.86 42.2055 60.902 42.1695 60.926C42.1335 60.938 42.0855 60.932 42.0255 60.908L41.0535 60.584C40.9935 60.56 40.9635 60.518 40.9635 60.458C40.9635 60.422 40.9815 60.368 41.0175 60.296C41.3775 59.66 41.8875 59.168 42.5475 58.82C43.2195 58.46 44.0115 58.28 44.9235 58.28C46.0995 58.28 46.9995 58.556 47.6235 59.108C48.2475 59.648 48.5595 60.398 48.5595 61.358V67.73C48.5595 67.838 48.5415 67.91 48.5055 67.946C48.4695 67.982 48.4035 68 48.3075 68H47.4075C47.2635 68 47.1795 67.904 47.1555 67.712L47.1195 66.884C47.1075 66.8 47.0775 66.758 47.0295 66.758C46.9815 66.758 46.9275 66.788 46.8675 66.848ZM47.1015 63.428C47.1015 63.236 47.0115 63.14 46.8315 63.14L45.6615 63.248C44.5455 63.32 43.6815 63.536 43.0695 63.896C42.4695 64.256 42.1695 64.754 42.1695 65.39C42.1695 65.906 42.3495 66.314 42.7095 66.614C43.0815 66.914 43.5735 67.064 44.1855 67.064C44.5575 67.064 44.9235 66.998 45.2835 66.866C45.6435 66.734 45.9615 66.554 46.2375 66.326C46.5135 66.11 46.7235 65.882 46.8675 65.642C47.0235 65.39 47.1015 65.15 47.1015 64.922V63.428ZM51.4368 68C51.2688 68 51.1848 67.922 51.1848 67.766V58.694C51.1848 58.538 51.2508 58.46 51.3828 58.46H52.4268C52.5588 58.46 52.6248 58.526 52.6248 58.658V59.828C52.6248 59.9 52.6428 59.942 52.6788 59.954C52.7268 59.966 52.7748 59.942 52.8228 59.882C53.7348 58.814 54.6648 58.28 55.6128 58.28C56.0328 58.28 56.2428 58.358 56.2428 58.514V59.594C56.2428 59.714 56.1888 59.762 56.0808 59.738C55.8648 59.702 55.5948 59.684 55.2708 59.684C54.9228 59.684 54.5448 59.786 54.1368 59.99C53.7288 60.194 53.3868 60.458 53.1108 60.782C52.8348 61.106 52.6968 61.436 52.6968 61.772V67.73C52.6968 67.91 52.6068 68 52.4268 68H51.4368ZM58.5975 70.97C58.1775 70.97 57.8895 70.958 57.7335 70.934C57.5775 70.91 57.4995 70.844 57.4995 70.736V70.034C57.4995 69.95 57.5295 69.89 57.5895 69.854C57.6615 69.818 57.7995 69.8 58.0035 69.8H59.1375C59.4255 69.8 59.6895 69.692 59.9295 69.476C60.1695 69.272 60.3555 69.014 60.4875 68.702C60.6315 68.39 60.7035 68.09 60.7035 67.802C60.7035 67.622 60.6795 67.478 60.6315 67.37L57.1935 58.766C57.1815 58.742 57.1755 58.706 57.1755 58.658C57.1755 58.526 57.2475 58.46 57.3915 58.46H58.5075C58.6395 58.46 58.7355 58.526 58.7955 58.658L61.4775 65.642C61.5135 65.75 61.5615 65.804 61.6215 65.804C61.6935 65.804 61.7535 65.732 61.8015 65.588L64.4475 58.658C64.5075 58.526 64.5915 58.46 64.6995 58.46H65.5455C65.6175 58.46 65.6715 58.49 65.7075 58.55C65.7435 58.598 65.7495 58.652 65.7255 58.712L61.7655 68.846C61.4415 69.662 61.0395 70.22 60.5595 70.52C60.0795 70.82 59.4255 70.97 58.5975 70.97ZM76.9056 54.464C77.6976 54.464 78.4476 54.632 79.1556 54.968C79.8756 55.304 80.4696 55.754 80.9376 56.318C81.4056 56.882 81.6876 57.494 81.7836 58.154L81.8016 58.28C81.8016 58.328 81.7836 58.364 81.7476 58.388C81.7236 58.412 81.6936 58.424 81.6576 58.424L80.3076 58.532H80.2716C80.2356 58.532 80.2056 58.52 80.1816 58.496C80.1576 58.46 80.1396 58.412 80.1276 58.352C79.9476 57.572 79.5756 56.948 79.0116 56.48C78.4476 56.012 77.7636 55.778 76.9596 55.778C75.6996 55.778 74.7336 56.246 74.0616 57.182C73.4016 58.106 73.0716 59.492 73.0716 61.34C73.0716 63.152 73.4016 64.52 74.0616 65.444C74.7336 66.356 75.7296 66.812 77.0496 66.812C77.9016 66.812 78.6096 66.608 79.1736 66.2C79.7496 65.78 80.2116 65.126 80.5596 64.238C80.5836 64.154 80.6556 64.13 80.7756 64.166L81.8376 64.418C81.9216 64.442 81.9516 64.526 81.9276 64.67C81.7476 65.27 81.4356 65.84 80.9916 66.38C80.5476 66.908 79.9836 67.34 79.2996 67.676C78.6156 68.012 77.8416 68.18 76.9776 68.18C75.7896 68.18 74.7696 67.904 73.9176 67.352C73.0656 66.8 72.4116 66.008 71.9556 64.976C71.4996 63.944 71.2716 62.72 71.2716 61.304C71.2716 59.888 71.4936 58.67 71.9376 57.65C72.3936 56.618 73.0416 55.832 73.8816 55.292C74.7336 54.74 75.7416 54.464 76.9056 54.464ZM88.2101 68.18C87.3101 68.18 86.5121 67.976 85.8161 67.568C85.1321 67.148 84.5981 66.566 84.2141 65.822C83.8421 65.078 83.6561 64.232 83.6561 63.284C83.6561 62.312 83.8481 61.448 84.2321 60.692C84.6281 59.936 85.1681 59.348 85.8521 58.928C86.5481 58.496 87.3401 58.28 88.2281 58.28C89.1161 58.28 89.9021 58.496 90.5861 58.928C91.2821 59.348 91.8161 59.936 92.1881 60.692C92.5721 61.448 92.7641 62.306 92.7641 63.266C92.7641 64.214 92.5721 65.06 92.1881 65.804C91.8041 66.548 91.2641 67.13 90.5681 67.55C89.8841 67.97 89.0981 68.18 88.2101 68.18ZM88.2461 67.046C89.1821 67.046 89.9081 66.71 90.4241 66.038C90.9521 65.354 91.2161 64.418 91.2161 63.23C91.2161 62.054 90.9461 61.124 90.4061 60.44C89.8781 59.744 89.1521 59.396 88.2281 59.396C87.2921 59.396 86.5541 59.744 86.0141 60.44C85.4741 61.124 85.2041 62.054 85.2041 63.23C85.2041 64.406 85.4741 65.336 86.0141 66.02C86.5541 66.704 87.2981 67.046 88.2461 67.046ZM96.5195 67.694C96.5195 67.814 96.4955 67.898 96.4475 67.946C96.3995 67.982 96.3155 68 96.1955 68H95.2595C95.1515 68 95.0795 67.982 95.0435 67.946C95.0075 67.91 94.9895 67.844 94.9895 67.748L95.0075 54.896C95.0075 54.728 95.0795 54.644 95.2235 54.644H96.3035C96.4475 54.644 96.5195 54.722 96.5195 54.878V67.694ZM103.292 68.18C102.392 68.18 101.594 67.976 100.898 67.568C100.214 67.148 99.6802 66.566 99.2962 65.822C98.9242 65.078 98.7382 64.232 98.7382 63.284C98.7382 62.312 98.9302 61.448 99.3142 60.692C99.7102 59.936 100.25 59.348 100.934 58.928C101.63 58.496 102.422 58.28 103.31 58.28C104.198 58.28 104.984 58.496 105.668 58.928C106.364 59.348 106.898 59.936 107.27 60.692C107.654 61.448 107.846 62.306 107.846 63.266C107.846 64.214 107.654 65.06 107.27 65.804C106.886 66.548 106.346 67.13 105.65 67.55C104.966 67.97 104.18 68.18 103.292 68.18ZM103.328 67.046C104.264 67.046 104.99 66.71 105.506 66.038C106.034 65.354 106.298 64.418 106.298 63.23C106.298 62.054 106.028 61.124 105.488 60.44C104.96 59.744 104.234 59.396 103.31 59.396C102.374 59.396 101.636 59.744 101.096 60.44C100.556 61.124 100.286 62.054 100.286 63.23C100.286 64.406 100.556 65.336 101.096 66.02C101.636 66.704 102.38 67.046 103.328 67.046ZM110.324 68C110.156 68 110.072 67.922 110.072 67.766V58.694C110.072 58.538 110.138 58.46 110.27 58.46H111.314C111.446 58.46 111.512 58.526 111.512 58.658V59.828C111.512 59.9 111.53 59.942 111.566 59.954C111.614 59.966 111.662 59.942 111.71 59.882C112.622 58.814 113.552 58.28 114.5 58.28C114.92 58.28 115.13 58.358 115.13 58.514V59.594C115.13 59.714 115.076 59.762 114.968 59.738C114.752 59.702 114.482 59.684 114.158 59.684C113.81 59.684 113.432 59.786 113.024 59.99C112.616 60.194 112.274 60.458 111.998 60.782C111.722 61.106 111.584 61.436 111.584 61.772V67.73C111.584 67.91 111.494 68 111.314 68H110.324ZM122.686 60.566C122.434 60.194 122.086 59.9 121.642 59.684C121.21 59.456 120.706 59.342 120.13 59.342C119.47 59.342 118.93 59.486 118.51 59.774C118.09 60.05 117.88 60.416 117.88 60.872C117.88 61.148 117.982 61.4 118.186 61.628C118.402 61.844 118.786 62.036 119.338 62.204L121.624 62.888C122.416 63.104 123.004 63.428 123.388 63.86C123.772 64.28 123.964 64.784 123.964 65.372C123.964 65.924 123.796 66.416 123.46 66.848C123.124 67.268 122.662 67.598 122.074 67.838C121.486 68.066 120.82 68.18 120.076 68.18C119.152 68.18 118.33 68 117.61 67.64C116.89 67.268 116.38 66.788 116.08 66.2C116.044 66.14 116.026 66.092 116.026 66.056C116.026 65.996 116.056 65.948 116.116 65.912L116.818 65.516C116.938 65.444 117.028 65.45 117.088 65.534C117.736 66.566 118.738 67.082 120.094 67.082C120.802 67.07 121.384 66.926 121.84 66.65C122.308 66.362 122.542 65.99 122.542 65.534C122.542 65.198 122.404 64.916 122.128 64.688C121.852 64.46 121.402 64.256 120.778 64.076L118.924 63.554C118.048 63.326 117.418 63.008 117.034 62.6C116.662 62.192 116.476 61.694 116.476 61.106C116.476 60.554 116.626 60.062 116.926 59.63C117.238 59.198 117.67 58.868 118.222 58.64C118.786 58.4 119.428 58.28 120.148 58.28C120.94 58.28 121.648 58.43 122.272 58.73C122.908 59.03 123.394 59.438 123.73 59.954C123.814 60.074 123.808 60.158 123.712 60.206L122.956 60.62C122.908 60.644 122.872 60.656 122.848 60.656C122.8 60.656 122.746 60.626 122.686 60.566Z" fill="black"/>
<path d="M11.682 176.644C11.754 176.644 11.802 176.662 11.826 176.698C11.862 176.722 11.88 176.776 11.88 176.86V189.784C11.88 189.928 11.802 190 11.646 190H10.764C10.668 190 10.59 189.994 10.53 189.982C10.482 189.958 10.434 189.916 10.386 189.856L3.438 179.758C3.39 179.674 3.342 179.638 3.294 179.65C3.258 179.662 3.24 179.704 3.24 179.776V189.766C3.24 189.922 3.156 190 2.988 190H1.98C1.824 190 1.746 189.922 1.746 189.766V176.896C1.746 176.8 1.758 176.734 1.782 176.698C1.818 176.662 1.884 176.644 1.98 176.644H3.006C3.102 176.644 3.174 176.656 3.222 176.68C3.27 176.704 3.324 176.752 3.384 176.824L10.134 186.706C10.194 186.778 10.248 186.814 10.296 186.814C10.368 186.814 10.404 186.76 10.404 186.652V176.86C10.404 176.716 10.476 176.644 10.62 176.644H11.682ZM16.017 185.824C16.017 186.4 16.155 186.934 16.431 187.426C16.719 187.918 17.103 188.308 17.583 188.596C18.063 188.884 18.591 189.028 19.167 189.028C20.367 189.028 21.303 188.53 21.975 187.534C22.023 187.486 22.065 187.462 22.101 187.462C22.137 187.45 22.179 187.456 22.227 187.48L22.983 187.858C23.079 187.918 23.091 188.002 23.019 188.11C22.551 188.83 21.993 189.358 21.345 189.694C20.697 190.018 19.923 190.18 19.023 190.18C18.147 190.18 17.361 189.976 16.665 189.568C15.969 189.16 15.423 188.59 15.027 187.858C14.643 187.114 14.451 186.268 14.451 185.32C14.451 184.3 14.649 183.412 15.045 182.656C15.441 181.888 15.981 181.3 16.665 180.892C17.361 180.484 18.141 180.28 19.005 180.28C19.869 180.28 20.625 180.472 21.273 180.856C21.933 181.24 22.443 181.804 22.803 182.548C23.163 183.28 23.343 184.15 23.343 185.158V185.23C23.343 185.338 23.325 185.422 23.289 185.482C23.253 185.53 23.181 185.554 23.073 185.554H16.179C16.071 185.554 16.017 185.644 16.017 185.824ZM21.525 184.564C21.657 184.564 21.741 184.552 21.777 184.528C21.813 184.492 21.831 184.42 21.831 184.312C21.831 183.784 21.717 183.298 21.489 182.854C21.273 182.398 20.949 182.038 20.517 181.774C20.097 181.498 19.605 181.36 19.041 181.36C18.429 181.36 17.895 181.516 17.439 181.828C16.983 182.128 16.635 182.524 16.395 183.016C16.155 183.496 16.041 184.012 16.053 184.564H21.525ZM28.708 188.992C29.2 188.992 29.68 188.86 30.148 188.596C30.628 188.32 31.114 187.93 31.606 187.426V180.712C31.606 180.544 31.702 180.46 31.894 180.46H32.884C33.052 180.46 33.136 180.544 33.136 180.712L33.1 189.766C33.1 189.922 33.034 190 32.902 190H31.858C31.726 190 31.66 189.934 31.66 189.802V188.74C31.66 188.596 31.606 188.578 31.498 188.686C30.85 189.238 30.274 189.628 29.77 189.856C29.266 190.072 28.75 190.18 28.222 190.18C27.382 190.18 26.692 189.928 26.152 189.424C25.612 188.92 25.342 188.254 25.342 187.426V180.73C25.342 180.55 25.432 180.46 25.612 180.46H26.62C26.776 180.46 26.854 180.544 26.854 180.712V187.03C26.854 187.63 27.016 188.11 27.34 188.47C27.676 188.818 28.132 188.992 28.708 188.992ZM38.4119 181.576C38.3159 181.576 38.2679 181.63 38.2679 181.738V187.444C38.2679 187.984 38.3579 188.356 38.5379 188.56C38.7179 188.764 39.0119 188.866 39.4199 188.866H40.6619C40.7939 188.866 40.8599 188.932 40.8599 189.064L40.8419 189.676C40.8419 189.796 40.7699 189.874 40.6259 189.91C40.3139 189.97 39.7499 190 38.9339 190C38.1779 190 37.6259 189.826 37.2779 189.478C36.9299 189.118 36.7559 188.554 36.7559 187.786V181.774C36.7559 181.642 36.6959 181.576 36.5759 181.576H35.1359C35.0039 181.576 34.9379 181.516 34.9379 181.396V180.64C34.9379 180.52 34.9979 180.46 35.1179 180.46H36.6479C36.7319 180.46 36.7739 180.412 36.7739 180.316L36.9719 177.454C36.9719 177.298 37.0379 177.22 37.1699 177.22H38.0699C38.2139 177.22 38.2859 177.304 38.2859 177.472V180.316C38.2859 180.412 38.3339 180.46 38.4299 180.46H40.6979C40.8299 180.46 40.8959 180.514 40.8959 180.622V181.396C40.8959 181.516 40.8299 181.576 40.6979 181.576H38.4119ZM43.1048 190C42.9368 190 42.8528 189.922 42.8528 189.766V180.694C42.8528 180.538 42.9188 180.46 43.0508 180.46H44.0948C44.2268 180.46 44.2928 180.526 44.2928 180.658V181.828C44.2928 181.9 44.3108 181.942 44.3468 181.954C44.3948 181.966 44.4428 181.942 44.4908 181.882C45.4028 180.814 46.3328 180.28 47.2808 180.28C47.7008 180.28 47.9108 180.358 47.9108 180.514V181.594C47.9108 181.714 47.8568 181.762 47.7488 181.738C47.5328 181.702 47.2628 181.684 46.9388 181.684C46.5908 181.684 46.2128 181.786 45.8048 181.99C45.3968 182.194 45.0548 182.458 44.7788 182.782C44.5028 183.106 44.3648 183.436 44.3648 183.772V189.73C44.3648 189.91 44.2748 190 44.0948 190H43.1048ZM55.2347 188.848C54.3107 189.736 53.2427 190.18 52.0307 190.18C51.0947 190.18 50.3567 189.946 49.8167 189.478C49.2887 188.998 49.0247 188.362 49.0247 187.57C49.0247 186.61 49.4267 185.854 50.2307 185.302C51.0467 184.75 52.2227 184.426 53.7587 184.33L55.1627 184.222C55.3667 184.198 55.4687 184.108 55.4687 183.952V183.466C55.4687 182.818 55.2647 182.308 54.8567 181.936C54.4607 181.552 53.9207 181.36 53.2367 181.36C52.1807 181.36 51.3167 181.84 50.6447 182.8C50.6087 182.86 50.5727 182.902 50.5367 182.926C50.5007 182.938 50.4527 182.932 50.3927 182.908L49.4207 182.584C49.3607 182.56 49.3307 182.518 49.3307 182.458C49.3307 182.422 49.3487 182.368 49.3847 182.296C49.7447 181.66 50.2547 181.168 50.9147 180.82C51.5867 180.46 52.3787 180.28 53.2907 180.28C54.4667 180.28 55.3667 180.556 55.9907 181.108C56.6147 181.648 56.9267 182.398 56.9267 183.358V189.73C56.9267 189.838 56.9087 189.91 56.8727 189.946C56.8367 189.982 56.7707 190 56.6747 190H55.7747C55.6307 190 55.5467 189.904 55.5227 189.712L55.4867 188.884C55.4747 188.8 55.4447 188.758 55.3967 188.758C55.3487 188.758 55.2947 188.788 55.2347 188.848ZM55.4687 185.428C55.4687 185.236 55.3787 185.14 55.1987 185.14L54.0287 185.248C52.9127 185.32 52.0487 185.536 51.4367 185.896C50.8367 186.256 50.5367 186.754 50.5367 187.39C50.5367 187.906 50.7167 188.314 51.0767 188.614C51.4487 188.914 51.9407 189.064 52.5527 189.064C52.9247 189.064 53.2907 188.998 53.6507 188.866C54.0107 188.734 54.3287 188.554 54.6047 188.326C54.8807 188.11 55.0907 187.882 55.2347 187.642C55.3907 187.39 55.4687 187.15 55.4687 186.922V185.428ZM61.082 189.694C61.082 189.814 61.058 189.898 61.01 189.946C60.962 189.982 60.878 190 60.758 190H59.822C59.714 190 59.642 189.982 59.606 189.946C59.57 189.91 59.552 189.844 59.552 189.748L59.57 176.896C59.57 176.728 59.642 176.644 59.786 176.644H60.866C61.01 176.644 61.082 176.722 61.082 176.878V189.694ZM69.5827 182.566C69.3307 182.194 68.9827 181.9 68.5387 181.684C68.1067 181.456 67.6027 181.342 67.0267 181.342C66.3667 181.342 65.8267 181.486 65.4067 181.774C64.9867 182.05 64.7767 182.416 64.7767 182.872C64.7767 183.148 64.8787 183.4 65.0827 183.628C65.2987 183.844 65.6827 184.036 66.2347 184.204L68.5207 184.888C69.3127 185.104 69.9007 185.428 70.2847 185.86C70.6687 186.28 70.8607 186.784 70.8607 187.372C70.8607 187.924 70.6927 188.416 70.3567 188.848C70.0207 189.268 69.5587 189.598 68.9707 189.838C68.3827 190.066 67.7167 190.18 66.9727 190.18C66.0487 190.18 65.2267 190 64.5067 189.64C63.7867 189.268 63.2767 188.788 62.9767 188.2C62.9407 188.14 62.9227 188.092 62.9227 188.056C62.9227 187.996 62.9527 187.948 63.0127 187.912L63.7147 187.516C63.8347 187.444 63.9247 187.45 63.9847 187.534C64.6327 188.566 65.6347 189.082 66.9907 189.082C67.6987 189.07 68.2807 188.926 68.7367 188.65C69.2047 188.362 69.4387 187.99 69.4387 187.534C69.4387 187.198 69.3007 186.916 69.0247 186.688C68.7487 186.46 68.2987 186.256 67.6747 186.076L65.8207 185.554C64.9447 185.326 64.3147 185.008 63.9307 184.6C63.5587 184.192 63.3727 183.694 63.3727 183.106C63.3727 182.554 63.5227 182.062 63.8227 181.63C64.1347 181.198 64.5667 180.868 65.1187 180.64C65.6827 180.4 66.3247 180.28 67.0447 180.28C67.8367 180.28 68.5447 180.43 69.1687 180.73C69.8047 181.03 70.2907 181.438 70.6267 181.954C70.7107 182.074 70.7047 182.158 70.6087 182.206L69.8527 182.62C69.8047 182.644 69.7687 182.656 69.7447 182.656C69.6967 182.656 69.6427 182.626 69.5827 182.566Z" fill="black"/>
<path d="M8.964 301.128C8.196 300.228 7.176 299.778 5.904 299.778C5.004 299.778 4.296 299.976 3.78 300.372C3.264 300.768 3.006 301.32 3.006 302.028C3.006 302.964 3.648 303.648 4.932 304.08L7.542 304.944C8.598 305.292 9.36 305.76 9.828 306.348C10.308 306.924 10.548 307.632 10.548 308.472C10.548 309.624 10.122 310.53 9.27 311.19C8.418 311.85 7.254 312.18 5.778 312.18C4.698 312.18 3.744 311.988 2.916 311.604C2.1 311.22 1.44 310.662 0.936 309.93C0.888 309.834 0.864 309.774 0.864 309.75C0.864 309.666 0.924 309.582 1.044 309.498L1.692 309.048C1.8 308.976 1.884 308.94 1.944 308.94C2.016 308.94 2.082 308.976 2.142 309.048C2.658 309.708 3.168 310.176 3.672 310.452C4.176 310.728 4.854 310.866 5.706 310.866C6.714 310.866 7.494 310.686 8.046 310.326C8.61 309.966 8.892 309.408 8.892 308.652C8.892 308.184 8.742 307.788 8.442 307.464C8.154 307.128 7.626 306.816 6.858 306.528L4.122 305.592C3.174 305.268 2.472 304.806 2.016 304.206C1.572 303.594 1.35 302.922 1.35 302.19C1.35 301.446 1.536 300.792 1.908 300.228C2.292 299.664 2.826 299.232 3.51 298.932C4.206 298.62 5.004 298.464 5.904 298.464C6.78 298.464 7.572 298.62 8.28 298.932C9 299.244 9.612 299.682 10.116 300.246C10.176 300.306 10.206 300.366 10.206 300.426C10.206 300.486 10.176 300.54 10.116 300.588L9.288 301.236C9.252 301.272 9.216 301.29 9.18 301.29C9.144 301.29 9.072 301.236 8.964 301.128ZM16.1572 310.992C16.6493 310.992 17.1293 310.86 17.5973 310.596C18.0773 310.32 18.5633 309.93 19.0553 309.426V302.712C19.0553 302.544 19.1513 302.46 19.3433 302.46H20.3333C20.5013 302.46 20.5853 302.544 20.5853 302.712L20.5493 311.766C20.5493 311.922 20.4833 312 20.3513 312H19.3073C19.1753 312 19.1093 311.934 19.1093 311.802V310.74C19.1093 310.596 19.0553 310.578 18.9473 310.686C18.2993 311.238 17.7233 311.628 17.2193 311.856C16.7153 312.072 16.1993 312.18 15.6713 312.18C14.8313 312.18 14.1413 311.928 13.6013 311.424C13.0613 310.92 12.7913 310.254 12.7913 309.426V302.73C12.7913 302.55 12.8813 302.46 13.0613 302.46H14.0693C14.2253 302.46 14.3033 302.544 14.3033 302.712V309.03C14.3033 309.63 14.4653 310.11 14.7893 310.47C15.1253 310.818 15.5813 310.992 16.1572 310.992ZM27.3011 302.28C28.1771 302.28 28.9211 302.484 29.5331 302.892C30.1571 303.3 30.6551 303.84 31.0271 304.512L31.0631 304.656C31.0631 304.728 31.0211 304.77 30.9371 304.782L29.9471 305.016L29.8931 305.034C29.8331 305.034 29.7731 304.986 29.7131 304.89C29.3291 304.374 28.9571 303.996 28.5971 303.756C28.2491 303.516 27.8471 303.396 27.3911 303.396C26.4551 303.396 25.7111 303.744 25.1591 304.44C24.6071 305.124 24.3311 306.054 24.3311 307.23C24.3311 308.418 24.6071 309.354 25.1591 310.038C25.7231 310.722 26.4791 311.064 27.4271 311.064C27.9911 311.064 28.4831 310.926 28.9031 310.65C29.3351 310.374 29.7251 309.948 30.0731 309.372C30.1091 309.312 30.1451 309.282 30.1811 309.282C30.2171 309.27 30.2591 309.276 30.3071 309.3L31.0811 309.588C31.1651 309.624 31.1891 309.702 31.1531 309.822C30.7811 310.518 30.2711 311.088 29.6231 311.532C28.9751 311.964 28.2011 312.18 27.3011 312.18C26.4251 312.18 25.6451 311.976 24.9611 311.568C24.2771 311.148 23.7431 310.566 23.3591 309.822C22.9751 309.078 22.7831 308.226 22.7831 307.266C22.7831 306.306 22.9751 305.448 23.3591 304.692C23.7431 303.924 24.2771 303.33 24.9611 302.91C25.6571 302.49 26.4371 302.28 27.3011 302.28ZM37.0569 302.28C37.9329 302.28 38.6769 302.484 39.2889 302.892C39.9129 303.3 40.4109 303.84 40.7829 304.512L40.8189 304.656C40.8189 304.728 40.7769 304.77 40.6929 304.782L39.7029 305.016L39.6489 305.034C39.5889 305.034 39.5289 304.986 39.4689 304.89C39.0849 304.374 38.7129 303.996 38.3529 303.756C38.0049 303.516 37.6029 303.396 37.1469 303.396C36.2109 303.396 35.4669 303.744 34.9149 304.44C34.3629 305.124 34.0869 306.054 34.0869 307.23C34.0869 308.418 34.3629 309.354 34.9149 310.038C35.4789 310.722 36.2349 311.064 37.1829 311.064C37.7469 311.064 38.2389 310.926 38.6589 310.65C39.0909 310.374 39.4809 309.948 39.8289 309.372C39.8649 309.312 39.9009 309.282 39.9369 309.282C39.9729 309.27 40.0149 309.276 40.0629 309.3L40.8369 309.588C40.9209 309.624 40.9449 309.702 40.9089 309.822C40.5369 310.518 40.0269 311.088 39.3789 311.532C38.7309 311.964 37.9569 312.18 37.0569 312.18C36.1809 312.18 35.4009 311.976 34.7169 311.568C34.0329 311.148 33.4989 310.566 33.1149 309.822C32.7309 309.078 32.5389 308.226 32.5389 307.266C32.5389 306.306 32.7309 305.448 33.1149 304.692C33.4989 303.924 34.0329 303.33 34.7169 302.91C35.4129 302.49 36.1929 302.28 37.0569 302.28ZM43.8608 307.824C43.8608 308.4 43.9988 308.934 44.2748 309.426C44.5628 309.918 44.9468 310.308 45.4268 310.596C45.9068 310.884 46.4348 311.028 47.0108 311.028C48.2108 311.028 49.1468 310.53 49.8188 309.534C49.8668 309.486 49.9088 309.462 49.9448 309.462C49.9808 309.45 50.0228 309.456 50.0708 309.48L50.8268 309.858C50.9228 309.918 50.9348 310.002 50.8628 310.11C50.3948 310.83 49.8368 311.358 49.1888 311.694C48.5408 312.018 47.7668 312.18 46.8668 312.18C45.9908 312.18 45.2048 311.976 44.5088 311.568C43.8128 311.16 43.2668 310.59 42.8708 309.858C42.4868 309.114 42.2948 308.268 42.2948 307.32C42.2948 306.3 42.4928 305.412 42.8888 304.656C43.2848 303.888 43.8248 303.3 44.5088 302.892C45.2048 302.484 45.9848 302.28 46.8488 302.28C47.7128 302.28 48.4688 302.472 49.1168 302.856C49.7768 303.24 50.2868 303.804 50.6468 304.548C51.0068 305.28 51.1868 306.15 51.1868 307.158V307.23C51.1868 307.338 51.1688 307.422 51.1328 307.482C51.0968 307.53 51.0248 307.554 50.9168 307.554H44.0228C43.9148 307.554 43.8608 307.644 43.8608 307.824ZM49.3688 306.564C49.5008 306.564 49.5848 306.552 49.6208 306.528C49.6568 306.492 49.6748 306.42 49.6748 306.312C49.6748 305.784 49.5608 305.298 49.3328 304.854C49.1168 304.398 48.7928 304.038 48.3608 303.774C47.9408 303.498 47.4488 303.36 46.8848 303.36C46.2728 303.36 45.7388 303.516 45.2828 303.828C44.8268 304.128 44.4788 304.524 44.2388 305.016C43.9988 305.496 43.8848 306.012 43.8968 306.564H49.3688ZM59.0358 304.566C58.7838 304.194 58.4358 303.9 57.9918 303.684C57.5598 303.456 57.0558 303.342 56.4798 303.342C55.8198 303.342 55.2798 303.486 54.8598 303.774C54.4398 304.05 54.2298 304.416 54.2298 304.872C54.2298 305.148 54.3318 305.4 54.5358 305.628C54.7518 305.844 55.1358 306.036 55.6878 306.204L57.9738 306.888C58.7658 307.104 59.3538 307.428 59.7378 307.86C60.1218 308.28 60.3138 308.784 60.3138 309.372C60.3138 309.924 60.1458 310.416 59.8098 310.848C59.4738 311.268 59.0118 311.598 58.4238 311.838C57.8358 312.066 57.1698 312.18 56.4258 312.18C55.5018 312.18 54.6798 312 53.9598 311.64C53.2398 311.268 52.7298 310.788 52.4298 310.2C52.3938 310.14 52.3758 310.092 52.3758 310.056C52.3758 309.996 52.4058 309.948 52.4658 309.912L53.1678 309.516C53.2878 309.444 53.3778 309.45 53.4378 309.534C54.0858 310.566 55.0878 311.082 56.4438 311.082C57.1518 311.07 57.7338 310.926 58.1898 310.65C58.6578 310.362 58.8918 309.99 58.8918 309.534C58.8918 309.198 58.7538 308.916 58.4778 308.688C58.2018 308.46 57.7518 308.256 57.1278 308.076L55.2738 307.554C54.3978 307.326 53.7678 307.008 53.3838 306.6C53.0118 306.192 52.8258 305.694 52.8258 305.106C52.8258 304.554 52.9758 304.062 53.2758 303.63C53.5878 303.198 54.0198 302.868 54.5718 302.64C55.1358 302.4 55.7778 302.28 56.4978 302.28C57.2898 302.28 57.9978 302.43 58.6218 302.73C59.2578 303.03 59.7438 303.438 60.0798 303.954C60.1638 304.074 60.1578 304.158 60.0618 304.206L59.3058 304.62C59.2578 304.644 59.2218 304.656 59.1978 304.656C59.1498 304.656 59.0958 304.626 59.0358 304.566ZM68.2467 304.566C67.9947 304.194 67.6467 303.9 67.2027 303.684C66.7707 303.456 66.2667 303.342 65.6907 303.342C65.0307 303.342 64.4907 303.486 64.0707 303.774C63.6507 304.05 63.4407 304.416 63.4407 304.872C63.4407 305.148 63.5427 305.4 63.7467 305.628C63.9627 305.844 64.3467 306.036 64.8987 306.204L67.1847 306.888C67.9767 307.104 68.5647 307.428 68.9487 307.86C69.3327 308.28 69.5247 308.784 69.5247 309.372C69.5247 309.924 69.3567 310.416 69.0207 310.848C68.6847 311.268 68.2227 311.598 67.6347 311.838C67.0467 312.066 66.3807 312.18 65.6367 312.18C64.7127 312.18 63.8907 312 63.1707 311.64C62.4507 311.268 61.9407 310.788 61.6407 310.2C61.6047 310.14 61.5867 310.092 61.5867 310.056C61.5867 309.996 61.6167 309.948 61.6767 309.912L62.3787 309.516C62.4987 309.444 62.5887 309.45 62.6487 309.534C63.2967 310.566 64.2987 311.082 65.6547 311.082C66.3627 311.07 66.9447 310.926 67.4007 310.65C67.8687 310.362 68.1027 309.99 68.1027 309.534C68.1027 309.198 67.9647 308.916 67.6887 308.688C67.4127 308.46 66.9627 308.256 66.3387 308.076L64.4847 307.554C63.6087 307.326 62.9787 307.008 62.5947 306.6C62.2227 306.192 62.0367 305.694 62.0367 305.106C62.0367 304.554 62.1867 304.062 62.4867 303.63C62.7987 303.198 63.2307 302.868 63.7827 302.64C64.3467 302.4 64.9887 302.28 65.7087 302.28C66.5007 302.28 67.2087 302.43 67.8327 302.73C68.4687 303.03 68.9547 303.438 69.2907 303.954C69.3747 304.074 69.3687 304.158 69.2727 304.206L68.5167 304.62C68.4687 304.644 68.4327 304.656 68.4087 304.656C68.3607 304.656 68.3067 304.626 68.2467 304.566ZM74.5928 312.792C74.4488 312.792 74.4008 312.738 74.4488 312.63L78.9488 298.806C78.9848 298.698 79.0628 298.644 79.1828 298.644H79.9748C80.0948 298.644 80.1548 298.686 80.1548 298.77C80.1548 298.806 80.1428 298.86 80.1188 298.932L75.6908 312.558C75.6428 312.714 75.5348 312.792 75.3668 312.792H74.5928ZM85.9804 298.896C85.9804 298.8 85.9924 298.734 86.0164 298.698C86.0524 298.662 86.1124 298.644 86.1964 298.644H94.2784C94.3984 298.644 94.4584 298.71 94.4584 298.842V299.76C94.4584 299.904 94.3804 299.976 94.2244 299.976H87.9424C87.8464 299.976 87.7804 299.994 87.7444 300.03C87.7204 300.054 87.7084 300.108 87.7084 300.192V304.404C87.7084 304.536 87.7744 304.602 87.9064 304.602H92.5684C92.7004 304.602 92.7664 304.668 92.7664 304.8V305.754C92.7664 305.862 92.7004 305.916 92.5684 305.916H87.9064C87.7744 305.916 87.7084 305.982 87.7084 306.114V310.488C87.7084 310.56 87.7204 310.608 87.7444 310.632C87.7684 310.656 87.8164 310.668 87.8884 310.668H94.4944C94.5664 310.668 94.6144 310.68 94.6384 310.704C94.6744 310.728 94.6924 310.776 94.6924 310.848V311.802C94.6924 311.934 94.6264 312 94.4944 312H86.2324C86.1364 312 86.0704 311.982 86.0344 311.946C85.9984 311.91 85.9804 311.844 85.9804 311.748V298.896ZM97.1751 312C97.0071 312 96.9231 311.922 96.9231 311.766V302.694C96.9231 302.538 96.9891 302.46 97.1211 302.46H98.1651C98.2971 302.46 98.3631 302.526 98.3631 302.658V303.828C98.3631 303.9 98.3811 303.942 98.4171 303.954C98.4651 303.966 98.5131 303.942 98.5611 303.882C99.4731 302.814 100.403 302.28 101.351 302.28C101.771 302.28 101.981 302.358 101.981 302.514V303.594C101.981 303.714 101.927 303.762 101.819 303.738C101.603 303.702 101.333 303.684 101.009 303.684C100.661 303.684 100.283 303.786 99.8751 303.99C99.4671 304.194 99.1251 304.458 98.8491 304.782C98.5731 305.106 98.4351 305.436 98.4351 305.772V311.73C98.4351 311.91 98.3451 312 98.1651 312H97.1751ZM104.066 312C103.898 312 103.814 311.922 103.814 311.766V302.694C103.814 302.538 103.88 302.46 104.012 302.46H105.056C105.188 302.46 105.254 302.526 105.254 302.658V303.828C105.254 303.9 105.272 303.942 105.308 303.954C105.356 303.966 105.404 303.942 105.452 303.882C106.364 302.814 107.294 302.28 108.242 302.28C108.662 302.28 108.872 302.358 108.872 302.514V303.594C108.872 303.714 108.818 303.762 108.71 303.738C108.494 303.702 108.224 303.684 107.9 303.684C107.552 303.684 107.174 303.786 106.766 303.99C106.358 304.194 106.016 304.458 105.74 304.782C105.464 305.106 105.326 305.436 105.326 305.772V311.73C105.326 311.91 105.236 312 105.056 312H104.066ZM114.472 312.18C113.572 312.18 112.774 311.976 112.078 311.568C111.394 311.148 110.86 310.566 110.476 309.822C110.104 309.078 109.918 308.232 109.918 307.284C109.918 306.312 110.11 305.448 110.494 304.692C110.89 303.936 111.43 303.348 112.114 302.928C112.81 302.496 113.602 302.28 114.49 302.28C115.378 302.28 116.164 302.496 116.848 302.928C117.544 303.348 118.078 303.936 118.45 304.692C118.834 305.448 119.026 306.306 119.026 307.266C119.026 308.214 118.834 309.06 118.45 309.804C118.066 310.548 117.526 311.13 116.83 311.55C116.146 311.97 115.36 312.18 114.472 312.18ZM114.508 311.046C115.444 311.046 116.17 310.71 116.686 310.038C117.214 309.354 117.478 308.418 117.478 307.23C117.478 306.054 117.208 305.124 116.668 304.44C116.14 303.744 115.414 303.396 114.49 303.396C113.554 303.396 112.816 303.744 112.276 304.44C111.736 305.124 111.466 306.054 111.466 307.23C111.466 308.406 111.736 309.336 112.276 310.02C112.816 310.704 113.56 311.046 114.508 311.046ZM121.503 312C121.335 312 121.251 311.922 121.251 311.766V302.694C121.251 302.538 121.317 302.46 121.449 302.46H122.493C122.625 302.46 122.691 302.526 122.691 302.658V303.828C122.691 303.9 122.709 303.942 122.745 303.954C122.793 303.966 122.841 303.942 122.889 303.882C123.801 302.814 124.731 302.28 125.679 302.28C126.099 302.28 126.309 302.358 126.309 302.514V303.594C126.309 303.714 126.255 303.762 126.147 303.738C125.931 303.702 125.661 303.684 125.337 303.684C124.989 303.684 124.611 303.786 124.203 303.99C123.795 304.194 123.453 304.458 123.177 304.782C122.901 305.106 122.763 305.436 122.763 305.772V311.73C122.763 311.91 122.673 312 122.493 312H121.503Z" fill="black"/>
</g>
<defs>
<filter id="filter0_d" x="210" y="262" width="88" height="88" filterUnits="userSpaceOnUse" color-interpolation-filters="sRGB">
<feFlood flood-opacity="0" result="BackgroundImageFix"/>
<feColorMatrix in="SourceAlpha" type="matrix" values="0 0 0 0 0 0 0 0 0 0 0 0 0 0 0 0 0 0 127 0"/>
<feOffset dy="4"/>
<feGaussianBlur stdDeviation="2"/>
<feColorMatrix type="matrix" values="0 0 0 0 0 0 0 0 0 0 0 0 0 0 0 0 0 0 0.25 0"/>
<feBlend mode="normal" in2="BackgroundImageFix" result="effect1_dropShadow"/>
<feBlend mode="normal" in="SourceGraphic" in2="effect1_dropShadow" result="shape"/>
</filter>
<filter id="filter1_d" x="306" y="262" width="89.5686" height="88" filterUnits="userSpaceOnUse" color-interpolation-filters="sRGB">
<feFlood flood-opacity="0" result="BackgroundImageFix"/>
<feColorMatrix in="SourceAlpha" type="matrix" values="0 0 0 0 0 0 0 0 0 0 0 0 0 0 0 0 0 0 127 0"/>
<feOffset dy="4"/>
<feGaussianBlur stdDeviation="2"/>
<feColorMatrix type="matrix" values="0 0 0 0 0 0 0 0 0 0 0 0 0 0 0 0 0 0 0.25 0"/>
<feBlend mode="normal" in2="BackgroundImageFix" result="effect1_dropShadow"/>
<feBlend mode="normal" in="SourceGraphic" in2="effect1_dropShadow" result="shape"/>
</filter>
<filter id="filter2_d" x="307.881" y="25" width="88" height="88" filterUnits="userSpaceOnUse" color-interpolation-filters="sRGB">
<feFlood flood-opacity="0" result="BackgroundImageFix"/>
<feColorMatrix in="SourceAlpha" type="matrix" values="0 0 0 0 0 0 0 0 0 0 0 0 0 0 0 0 0 0 127 0"/>
<feOffset dy="4"/>
<feGaussianBlur stdDeviation="2"/>
<feColorMatrix type="matrix" values="0 0 0 0 0 0 0 0 0 0 0 0 0 0 0 0 0 0 0.25 0"/>
<feBlend mode="normal" in2="BackgroundImageFix" result="effect1_dropShadow"/>
<feBlend mode="normal" in="SourceGraphic" in2="effect1_dropShadow" result="shape"/>
</filter>
<filter id="filter3_d" x="210" y="25.0004" width="88" height="88" filterUnits="userSpaceOnUse" color-interpolation-filters="sRGB">
<feFlood flood-opacity="0" result="BackgroundImageFix"/>
<feColorMatrix in="SourceAlpha" type="matrix" values="0 0 0 0 0 0 0 0 0 0 0 0 0 0 0 0 0 0 127 0"/>
<feOffset dy="4"/>
<feGaussianBlur stdDeviation="2"/>
<feColorMatrix type="matrix" values="0 0 0 0 0 0 0 0 0 0 0 0 0 0 0 0 0 0 0.25 0"/>
<feBlend mode="normal" in2="BackgroundImageFix" result="effect1_dropShadow"/>
<feBlend mode="normal" in="SourceGraphic" in2="effect1_dropShadow" result="shape"/>
</filter>
<filter id="filter4_d" x="113" y="144" width="88" height="88" filterUnits="userSpaceOnUse" color-interpolation-filters="sRGB">
<feFlood flood-opacity="0" result="BackgroundImageFix"/>
<feColorMatrix in="SourceAlpha" type="matrix" values="0 0 0 0 0 0 0 0 0 0 0 0 0 0 0 0 0 0 127 0"/>
<feOffset dy="4"/>
<feGaussianBlur stdDeviation="2"/>
<feColorMatrix type="matrix" values="0 0 0 0 0 0 0 0 0 0 0 0 0 0 0 0 0 0 0.25 0"/>
<feBlend mode="normal" in2="BackgroundImageFix" result="effect1_dropShadow"/>
<feBlend mode="normal" in="SourceGraphic" in2="effect1_dropShadow" result="shape"/>
</filter>
<filter id="filter5_d" x="209" y="144" width="88" height="88" filterUnits="userSpaceOnUse" color-interpolation-filters="sRGB">
<feFlood flood-opacity="0" result="BackgroundImageFix"/>
<feColorMatrix in="SourceAlpha" type="matrix" values="0 0 0 0 0 0 0 0 0 0 0 0 0 0 0 0 0 0 127 0"/>
<feOffset dy="4"/>
<feGaussianBlur stdDeviation="2"/>
<feColorMatrix type="matrix" values="0 0 0 0 0 0 0 0 0 0 0 0 0 0 0 0 0 0 0.25 0"/>
<feBlend mode="normal" in2="BackgroundImageFix" result="effect1_dropShadow"/>
<feBlend mode="normal" in="SourceGraphic" in2="effect1_dropShadow" result="shape"/>
</filter>
<filter id="filter6_d" x="306.725" y="144" width="88" height="88" filterUnits="userSpaceOnUse" color-interpolation-filters="sRGB">
<feFlood flood-opacity="0" result="BackgroundImageFix"/>
<feColorMatrix in="SourceAlpha" type="matrix" values="0 0 0 0 0 0 0 0 0 0 0 0 0 0 0 0 0 0 127 0"/>
<feOffset dy="4"/>
<feGaussianBlur stdDeviation="2"/>
<feColorMatrix type="matrix" values="0 0 0 0 0 0 0 0 0 0 0 0 0 0 0 0 0 0 0.25 0"/>
<feBlend mode="normal" in2="BackgroundImageFix" result="effect1_dropShadow"/>
<feBlend mode="normal" in="SourceGraphic" in2="effect1_dropShadow" result="shape"/>
</filter>
<filter id="filter7_d" x="404" y="144" width="88" height="88" filterUnits="userSpaceOnUse" color-interpolation-filters="sRGB">
<feFlood flood-opacity="0" result="BackgroundImageFix"/>
<feColorMatrix in="SourceAlpha" type="matrix" values="0 0 0 0 0 0 0 0 0 0 0 0 0 0 0 0 0 0 127 0"/>
<feOffset dy="4"/>
<feGaussianBlur stdDeviation="2"/>
<feColorMatrix type="matrix" values="0 0 0 0 0 0 0 0 0 0 0 0 0 0 0 0 0 0 0.25 0"/>
<feBlend mode="normal" in2="BackgroundImageFix" result="effect1_dropShadow"/>
<feBlend mode="normal" in="SourceGraphic" in2="effect1_dropShadow" result="shape"/>
</filter>
<clipPath id="clip0">
<rect width="489" height="368" fill="white"/>
</clipPath>
</defs>
</svg>
