<svg width="489" height="197" viewBox="0 0 489 197" fill="none" xmlns="http://www.w3.org/2000/svg">
<path d="M67.68 53.936L62.496 53.312V50.336H77.472L83.184 70.976L84.528 76.592L85.68 70.976L91.344 50.336H106.176V53.312L100.944 53.936L104.784 82.592L108.672 83.12V86H93.36V83.12L97.584 82.64L95.472 61.616L94.56 52.832L92.784 60.224L85.824 84.512H80.736L73.632 61.472L71.184 52.832L70.464 61.616L68.64 82.64L73.488 83.12V86H60.144V83.12L64.176 82.64L67.68 53.936ZM123.053 86.528C118.829 86.528 115.677 85.296 113.597 82.832C111.549 80.336 110.525 76.944 110.525 72.656C110.525 69.776 111.053 67.28 112.109 65.168C113.197 63.056 114.717 61.44 116.669 60.32C118.621 59.2 120.877 58.64 123.437 58.64C126.637 58.64 129.101 59.488 130.829 61.184C132.557 62.848 133.453 65.232 133.517 68.336C133.517 70.448 133.389 72.016 133.133 73.04H117.533C117.661 75.952 118.349 78.224 119.597 79.856C120.845 81.456 122.621 82.256 124.925 82.256C126.173 82.256 127.453 82.048 128.765 81.632C130.109 81.216 131.165 80.72 131.933 80.144L133.133 82.784C132.269 83.712 130.861 84.576 128.909 85.376C126.989 86.144 125.037 86.528 123.053 86.528ZM126.797 70.16C126.861 69.264 126.893 68.576 126.893 68.096C126.893 63.84 125.469 61.712 122.621 61.712C121.053 61.712 119.837 62.336 118.973 63.584C118.109 64.832 117.629 67.024 117.533 70.16H126.797ZM137.348 83.168L140.516 82.784V63.872L137.444 63.008V59.696L144.884 58.688H145.028L146.228 59.648V60.704L146.084 64.592H146.228C146.452 63.952 146.98 63.168 147.812 62.24C148.644 61.28 149.684 60.448 150.932 59.744C152.212 59.008 153.588 58.64 155.06 58.64C155.764 58.64 156.372 58.736 156.884 58.928V66.128C155.924 65.456 154.756 65.12 153.38 65.12C151.044 65.12 149.012 65.744 147.284 66.992V82.736L152.852 83.168V86H137.348V83.168ZM159.941 83.168L163.109 82.784V63.872L160.037 63.008V59.696L167.477 58.688H167.621L168.821 59.648V60.704L168.677 64.592H168.821C169.045 63.952 169.573 63.168 170.405 62.24C171.237 61.28 172.277 60.448 173.525 59.744C174.805 59.008 176.181 58.64 177.653 58.64C178.357 58.64 178.965 58.736 179.477 58.928V66.128C178.517 65.456 177.349 65.12 175.973 65.12C173.637 65.12 171.605 65.744 169.877 66.992V82.736L175.445 83.168V86H159.941V83.168ZM188.247 54.944C187.095 54.944 186.183 54.608 185.511 53.936C184.839 53.264 184.503 52.4 184.503 51.344C184.503 50.128 184.887 49.12 185.655 48.32C186.423 47.52 187.447 47.12 188.727 47.12C190.007 47.12 190.983 47.472 191.655 48.176C192.327 48.848 192.663 49.696 192.663 50.72C192.663 52 192.279 53.024 191.511 53.792C190.743 54.56 189.671 54.944 188.295 54.944H188.247ZM185.703 63.872L182.295 62.96V59.744L191.079 58.688H191.175L192.519 59.648V82.736L195.735 83.12V86H182.343V83.12L185.703 82.688V63.872ZM196.344 59.36H208.728V62.096L205.368 62.672L208.92 75.44L210.072 80.672L211.128 75.392L215.448 59.36H221.256L226.008 75.392L227.16 80.672L228.312 75.44L231.672 62.72L228.168 62.096V59.36H238.44V62.096L235.992 62.624L228.696 86.384H223.176L218.328 70.832L217.224 65.12L216.36 70.832L211.896 86.384H206.328L198.648 62.624L196.344 62.096V59.36ZM251.584 86.528C247.36 86.528 244.208 85.296 242.128 82.832C240.08 80.336 239.056 76.944 239.056 72.656C239.056 69.776 239.584 67.28 240.64 65.168C241.728 63.056 243.248 61.44 245.2 60.32C247.152 59.2 249.408 58.64 251.968 58.64C255.168 58.64 257.632 59.488 259.36 61.184C261.088 62.848 261.984 65.232 262.048 68.336C262.048 70.448 261.92 72.016 261.664 73.04H246.064C246.192 75.952 246.88 78.224 248.128 79.856C249.376 81.456 251.152 82.256 253.456 82.256C254.704 82.256 255.984 82.048 257.296 81.632C258.64 81.216 259.696 80.72 260.464 80.144L261.664 82.784C260.8 83.712 259.392 84.576 257.44 85.376C255.52 86.144 253.568 86.528 251.584 86.528ZM255.328 70.16C255.392 69.264 255.424 68.576 255.424 68.096C255.424 63.84 254 61.712 251.152 61.712C249.584 61.712 248.368 62.336 247.504 63.584C246.64 64.832 246.16 67.024 246.064 70.16H255.328ZM265.351 78.512C265.351 75.6 266.807 73.408 269.719 71.936C272.663 70.464 276.455 69.712 281.095 69.68V68.576C281.095 67.264 280.951 66.24 280.663 65.504C280.407 64.768 279.911 64.224 279.175 63.872C278.471 63.488 277.431 63.296 276.055 63.296C274.487 63.296 273.079 63.504 271.831 63.92C270.583 64.304 269.287 64.816 267.943 65.456L266.455 62.384C266.935 61.968 267.735 61.472 268.855 60.896C270.007 60.32 271.367 59.824 272.935 59.408C274.503 58.96 276.119 58.736 277.783 58.736C280.247 58.736 282.167 59.056 283.543 59.696C284.951 60.336 285.959 61.36 286.567 62.768C287.175 64.176 287.479 66.064 287.479 68.432V83.12H290.071V85.808C289.431 85.968 288.519 86.128 287.335 86.288C286.151 86.448 285.111 86.528 284.215 86.528C283.127 86.528 282.391 86.368 282.007 86.048C281.655 85.728 281.479 85.072 281.479 84.08V82.784C280.615 83.744 279.495 84.608 278.119 85.376C276.743 86.144 275.191 86.528 273.463 86.528C271.991 86.528 270.631 86.224 269.383 85.616C268.167 84.976 267.191 84.064 266.455 82.88C265.719 81.664 265.351 80.208 265.351 78.512ZM276.535 82.544C277.207 82.544 277.975 82.352 278.839 81.968C279.703 81.552 280.455 81.056 281.095 80.48V72.608C278.215 72.608 276.055 73.104 274.615 74.096C273.207 75.056 272.503 76.304 272.503 77.84C272.503 79.376 272.855 80.544 273.559 81.344C274.295 82.144 275.287 82.544 276.535 82.544ZM301.13 86.432C299.114 86.432 297.626 85.968 296.666 85.04C295.706 84.112 295.226 82.64 295.226 80.624V63.008H292.106V60.512C292.362 60.416 292.826 60.256 293.498 60.032C294.17 59.776 294.682 59.568 295.034 59.408C295.578 58.992 296.042 58.272 296.426 57.248C296.714 56.576 297.242 54.912 298.01 52.256H301.85L302.042 59.312H309.386V63.008H302.09V76.496C302.09 78.288 302.138 79.552 302.234 80.288C302.33 81.024 302.538 81.504 302.858 81.728C303.178 81.92 303.738 82.016 304.538 82.016C305.338 82.016 306.17 81.936 307.034 81.776C307.898 81.584 308.618 81.36 309.194 81.104L310.106 83.792C309.21 84.464 307.898 85.072 306.17 85.616C304.442 86.16 302.762 86.432 301.13 86.432ZM314.916 50.912L311.268 50.288V47.696L320.196 46.64H320.34L321.588 47.552L321.636 58.256L321.3 62.432C322.292 61.536 323.636 60.704 325.332 59.936C327.06 59.168 328.868 58.784 330.756 58.784C332.772 58.784 334.34 59.168 335.46 59.936C336.58 60.672 337.364 61.808 337.812 63.344C338.26 64.88 338.484 66.928 338.484 69.488V82.688L341.556 83.12V86H328.932V83.12L331.716 82.688V69.488C331.716 67.824 331.604 66.528 331.38 65.6C331.156 64.672 330.74 63.984 330.132 63.536C329.556 63.088 328.692 62.864 327.54 62.864C326.548 62.864 325.524 63.104 324.468 63.584C323.444 64.032 322.532 64.576 321.732 65.216V82.688L324.66 83.12V86H312.228V83.12L314.916 82.736V50.912ZM356.912 86.528C352.688 86.528 349.536 85.296 347.456 82.832C345.408 80.336 344.384 76.944 344.384 72.656C344.384 69.776 344.912 67.28 345.968 65.168C347.056 63.056 348.576 61.44 350.528 60.32C352.48 59.2 354.736 58.64 357.296 58.64C360.496 58.64 362.96 59.488 364.688 61.184C366.416 62.848 367.312 65.232 367.376 68.336C367.376 70.448 367.248 72.016 366.992 73.04H351.392C351.52 75.952 352.208 78.224 353.456 79.856C354.704 81.456 356.48 82.256 358.784 82.256C360.032 82.256 361.312 82.048 362.624 81.632C363.968 81.216 365.024 80.72 365.792 80.144L366.992 82.784C366.128 83.712 364.72 84.576 362.768 85.376C360.848 86.144 358.896 86.528 356.912 86.528ZM360.656 70.16C360.72 69.264 360.752 68.576 360.752 68.096C360.752 63.84 359.328 61.712 356.48 61.712C354.912 61.712 353.696 62.336 352.832 63.584C351.968 64.832 351.488 67.024 351.392 70.16H360.656ZM371.207 83.168L374.375 82.784V63.872L371.303 63.008V59.696L378.743 58.688H378.887L380.087 59.648V60.704L379.943 64.592H380.087C380.311 63.952 380.839 63.168 381.671 62.24C382.503 61.28 383.543 60.448 384.791 59.744C386.071 59.008 387.447 58.64 388.919 58.64C389.623 58.64 390.231 58.736 390.743 58.928V66.128C389.783 65.456 388.615 65.12 387.239 65.12C384.903 65.12 382.871 65.744 381.143 66.992V82.736L386.711 83.168V86H371.207V83.168Z" fill="black"/>
<path d="M62.328 110.528C62.328 110.304 62.424 110.192 62.616 110.192H64.344C64.536 110.192 64.632 110.296 64.632 110.504V125.984C64.632 126.08 64.648 126.144 64.68 126.176C64.712 126.208 64.776 126.224 64.872 126.224H73.176C73.272 126.224 73.344 126.24 73.392 126.272C73.44 126.304 73.464 126.368 73.464 126.464V127.736C73.464 127.912 73.368 128 73.176 128H62.664C62.536 128 62.448 127.976 62.4 127.928C62.352 127.88 62.328 127.792 62.328 127.664V110.528ZM78.3975 112.544C78.3975 112.704 78.3655 112.824 78.3015 112.904C78.2375 112.968 78.1255 113 77.9655 113H76.5735C76.3335 113 76.2135 112.864 76.2135 112.592V110.576C76.2135 110.32 76.3255 110.192 76.5495 110.192H78.0615C78.1575 110.192 78.2375 110.224 78.3015 110.288C78.3655 110.352 78.3975 110.44 78.3975 110.552V112.544ZM78.3015 127.592C78.3015 127.752 78.2695 127.864 78.2055 127.928C78.1415 127.976 78.0295 128 77.8695 128H76.6455C76.5015 128 76.4055 127.976 76.3575 127.928C76.3095 127.88 76.2855 127.792 76.2855 127.664V115.616C76.2855 115.392 76.3815 115.28 76.5735 115.28H78.0375C78.2135 115.28 78.3015 115.384 78.3015 115.592V127.592ZM82.4117 128C82.2677 128 82.1637 127.976 82.0997 127.928C82.0517 127.864 82.0277 127.76 82.0277 127.616V110.528C82.0277 110.304 82.1237 110.192 82.3157 110.192H83.8037C83.9637 110.192 84.0437 110.304 84.0437 110.528V116.408C84.0437 116.584 84.0837 116.672 84.1637 116.672C84.2117 116.672 84.2917 116.632 84.4037 116.552C85.4757 115.544 86.7557 115.04 88.2437 115.04C89.9237 115.04 91.1957 115.648 92.0597 116.864C92.9397 118.064 93.3797 119.632 93.3797 121.568C93.3797 123.632 92.8917 125.264 91.9157 126.464C90.9557 127.648 89.6197 128.24 87.9077 128.24C86.9317 128.24 86.1237 128.048 85.4837 127.664C84.8437 127.264 84.3477 126.824 83.9957 126.344C83.9477 126.28 83.8997 126.248 83.8517 126.248C83.7877 126.248 83.7477 126.304 83.7317 126.416L83.6117 127.616C83.5797 127.76 83.5317 127.864 83.4677 127.928C83.4197 127.976 83.3237 128 83.1797 128H82.4117ZM84.0437 123.704C84.0437 124.264 84.2037 124.784 84.5237 125.264C84.8597 125.728 85.2917 126.104 85.8197 126.392C86.3477 126.664 86.8997 126.8 87.4757 126.8C88.6277 126.8 89.5477 126.368 90.2357 125.504C90.9397 124.64 91.2917 123.344 91.2917 121.616C91.2917 119.984 90.9797 118.728 90.3557 117.848C89.7317 116.952 88.8277 116.504 87.6437 116.504C86.9237 116.504 86.2517 116.664 85.6277 116.984C85.0197 117.304 84.4917 117.736 84.0437 118.28V123.704ZM96.7309 128C96.5069 128 96.3949 127.896 96.3949 127.688V115.592C96.3949 115.384 96.4829 115.28 96.6589 115.28H98.0509C98.2269 115.28 98.3149 115.368 98.3149 115.544V117.104C98.3149 117.2 98.3389 117.256 98.3869 117.272C98.4509 117.288 98.5149 117.256 98.5789 117.176C99.7949 115.752 101.035 115.04 102.299 115.04C102.859 115.04 103.139 115.144 103.139 115.352V116.792C103.139 116.952 103.067 117.016 102.923 116.984C102.635 116.936 102.275 116.912 101.843 116.912C101.379 116.912 100.875 117.048 100.331 117.32C99.7869 117.592 99.3309 117.944 98.9629 118.376C98.5949 118.808 98.4109 119.248 98.4109 119.696V127.64C98.4109 127.88 98.2909 128 98.0509 128H96.7309ZM106.622 122.432C106.622 123.2 106.806 123.912 107.174 124.568C107.558 125.224 108.07 125.744 108.71 126.128C109.35 126.512 110.054 126.704 110.822 126.704C112.422 126.704 113.67 126.04 114.566 124.712C114.63 124.648 114.686 124.616 114.734 124.616C114.782 124.6 114.838 124.608 114.902 124.64L115.91 125.144C116.038 125.224 116.054 125.336 115.958 125.48C115.334 126.44 114.59 127.144 113.726 127.592C112.862 128.024 111.83 128.24 110.63 128.24C109.462 128.24 108.414 127.968 107.486 127.424C106.558 126.88 105.83 126.12 105.302 125.144C104.79 124.152 104.534 123.024 104.534 121.76C104.534 120.4 104.798 119.216 105.326 118.208C105.854 117.184 106.574 116.4 107.486 115.856C108.414 115.312 109.454 115.04 110.606 115.04C111.758 115.04 112.766 115.296 113.63 115.808C114.51 116.32 115.19 117.072 115.67 118.064C116.15 119.04 116.39 120.2 116.39 121.544V121.64C116.39 121.784 116.366 121.896 116.318 121.976C116.27 122.04 116.174 122.072 116.03 122.072H106.838C106.694 122.072 106.622 122.192 106.622 122.432ZM113.966 120.752C114.142 120.752 114.254 120.736 114.302 120.704C114.35 120.656 114.374 120.56 114.374 120.416C114.374 119.712 114.222 119.064 113.918 118.472C113.63 117.864 113.198 117.384 112.622 117.032C112.062 116.664 111.406 116.48 110.654 116.48C109.838 116.48 109.126 116.688 108.518 117.104C107.91 117.504 107.446 118.032 107.126 118.688C106.806 119.328 106.654 120.016 106.67 120.752H113.966ZM124.859 110.528C124.859 110.304 124.955 110.192 125.147 110.192H135.707C135.867 110.192 135.947 110.28 135.947 110.456V111.68C135.947 111.872 135.843 111.968 135.635 111.968H127.475C127.347 111.968 127.259 111.992 127.211 112.04C127.179 112.072 127.163 112.144 127.163 112.256V118.16C127.163 118.336 127.251 118.424 127.427 118.424H133.835C134.011 118.424 134.099 118.504 134.099 118.664V119.936C134.099 120.016 134.075 120.072 134.027 120.104C133.995 120.136 133.931 120.152 133.835 120.152H127.427C127.251 120.152 127.163 120.24 127.163 120.416V127.688C127.163 127.896 127.051 128 126.827 128H125.195C125.067 128 124.979 127.976 124.931 127.928C124.883 127.88 124.859 127.792 124.859 127.664V110.528ZM137.817 128C137.593 128 137.481 127.896 137.481 127.688V115.592C137.481 115.384 137.569 115.28 137.745 115.28H139.137C139.313 115.28 139.401 115.368 139.401 115.544V117.104C139.401 117.2 139.425 117.256 139.473 117.272C139.537 117.288 139.601 117.256 139.665 117.176C140.881 115.752 142.121 115.04 143.385 115.04C143.945 115.04 144.225 115.144 144.225 115.352V116.792C144.225 116.952 144.153 117.016 144.009 116.984C143.721 116.936 143.361 116.912 142.929 116.912C142.465 116.912 141.961 117.048 141.417 117.32C140.873 117.592 140.417 117.944 140.049 118.376C139.681 118.808 139.497 119.248 139.497 119.696V127.64C139.497 127.88 139.377 128 139.137 128H137.817ZM153.99 126.464C152.758 127.648 151.334 128.24 149.718 128.24C148.47 128.24 147.486 127.928 146.766 127.304C146.062 126.664 145.71 125.816 145.71 124.76C145.71 123.48 146.246 122.472 147.318 121.736C148.406 121 149.974 120.568 152.022 120.44L153.894 120.296C154.166 120.264 154.302 120.144 154.302 119.936V119.288C154.302 118.424 154.03 117.744 153.486 117.248C152.958 116.736 152.238 116.48 151.326 116.48C149.918 116.48 148.766 117.12 147.87 118.4C147.822 118.48 147.774 118.536 147.726 118.568C147.678 118.584 147.614 118.576 147.534 118.544L146.238 118.112C146.158 118.08 146.118 118.024 146.118 117.944C146.118 117.896 146.142 117.824 146.19 117.728C146.67 116.88 147.35 116.224 148.23 115.76C149.126 115.28 150.182 115.04 151.398 115.04C152.966 115.04 154.166 115.408 154.998 116.144C155.83 116.864 156.246 117.864 156.246 119.144V127.64C156.246 127.784 156.222 127.88 156.174 127.928C156.126 127.976 156.038 128 155.91 128H154.71C154.518 128 154.406 127.872 154.374 127.616L154.326 126.512C154.31 126.4 154.27 126.344 154.206 126.344C154.142 126.344 154.07 126.384 153.99 126.464ZM154.302 121.904C154.302 121.648 154.182 121.52 153.942 121.52L152.382 121.664C150.894 121.76 149.742 122.048 148.926 122.528C148.126 123.008 147.726 123.672 147.726 124.52C147.726 125.208 147.966 125.752 148.446 126.152C148.942 126.552 149.598 126.752 150.414 126.752C150.91 126.752 151.398 126.664 151.878 126.488C152.358 126.312 152.782 126.072 153.15 125.768C153.518 125.48 153.798 125.176 153.99 124.856C154.198 124.52 154.302 124.2 154.302 123.896V121.904ZM160.082 128C159.858 128 159.746 127.896 159.746 127.688V115.592C159.746 115.384 159.834 115.28 160.01 115.28H161.45C161.626 115.28 161.714 115.368 161.714 115.544V116.936C161.714 117.112 161.786 117.136 161.93 117.008C162.826 116.304 163.586 115.8 164.21 115.496C164.85 115.192 165.562 115.04 166.346 115.04C167.562 115.04 168.506 115.368 169.178 116.024C169.866 116.68 170.21 117.56 170.21 118.664V127.616C170.21 127.872 170.09 128 169.85 128H168.506C168.298 128 168.194 127.896 168.194 127.688V119.12C168.194 118.32 167.986 117.704 167.57 117.272C167.17 116.84 166.546 116.624 165.698 116.624C165.026 116.624 164.402 116.776 163.826 117.08C163.266 117.368 162.578 117.864 161.762 118.568V127.64C161.762 127.768 161.73 127.864 161.666 127.928C161.618 127.976 161.53 128 161.402 128H160.082ZM184.754 127.616C184.786 127.648 184.802 127.704 184.802 127.784C184.802 127.928 184.714 128 184.538 128H182.858C182.762 128 182.682 127.984 182.618 127.952C182.554 127.904 182.49 127.824 182.426 127.712L178.802 121.496C178.77 121.416 178.73 121.376 178.682 121.376C178.634 121.36 178.578 121.384 178.514 121.448L175.97 124.016C175.858 124.128 175.802 124.288 175.802 124.496V127.592C175.802 127.752 175.77 127.864 175.706 127.928C175.642 127.976 175.53 128 175.37 128H174.146C174.002 128 173.906 127.976 173.858 127.928C173.81 127.88 173.786 127.792 173.786 127.664V110.528C173.786 110.304 173.874 110.192 174.05 110.192H175.514C175.706 110.192 175.802 110.296 175.802 110.504V121.64C175.802 121.8 175.826 121.88 175.874 121.88C175.922 121.88 175.978 121.832 176.042 121.736L181.97 115.568C182.146 115.376 182.314 115.28 182.474 115.28H183.938C184.13 115.28 184.226 115.336 184.226 115.448C184.226 115.496 184.17 115.592 184.058 115.736L180.266 119.6C180.202 119.696 180.17 119.768 180.17 119.816C180.17 119.864 180.194 119.928 180.242 120.008L184.754 127.616ZM189.349 127.592C189.349 127.752 189.317 127.864 189.253 127.928C189.189 127.976 189.077 128 188.917 128H187.669C187.525 128 187.429 127.976 187.381 127.928C187.333 127.88 187.309 127.792 187.309 127.664L187.333 110.528C187.333 110.304 187.429 110.192 187.621 110.192H189.061C189.253 110.192 189.349 110.296 189.349 110.504V127.592ZM195.163 112.544C195.163 112.704 195.131 112.824 195.067 112.904C195.003 112.968 194.891 113 194.731 113H193.339C193.099 113 192.979 112.864 192.979 112.592V110.576C192.979 110.32 193.091 110.192 193.315 110.192H194.827C194.923 110.192 195.003 110.224 195.067 110.288C195.131 110.352 195.163 110.44 195.163 110.552V112.544ZM195.067 127.592C195.067 127.752 195.035 127.864 194.971 127.928C194.907 127.976 194.795 128 194.635 128H193.411C193.267 128 193.171 127.976 193.123 127.928C193.075 127.88 193.051 127.792 193.051 127.664V115.616C193.051 115.392 193.147 115.28 193.339 115.28H194.803C194.979 115.28 195.067 115.384 195.067 115.592V127.592ZM199.129 128C198.905 128 198.793 127.896 198.793 127.688V115.592C198.793 115.384 198.881 115.28 199.057 115.28H200.497C200.673 115.28 200.761 115.368 200.761 115.544V116.936C200.761 117.112 200.833 117.136 200.977 117.008C201.873 116.304 202.633 115.8 203.257 115.496C203.897 115.192 204.609 115.04 205.393 115.04C206.609 115.04 207.553 115.368 208.225 116.024C208.913 116.68 209.257 117.56 209.257 118.664V127.616C209.257 127.872 209.137 128 208.897 128H207.553C207.345 128 207.241 127.896 207.241 127.688V119.12C207.241 118.32 207.033 117.704 206.617 117.272C206.217 116.84 205.593 116.624 204.745 116.624C204.073 116.624 203.449 116.776 202.873 117.08C202.313 117.368 201.625 117.864 200.809 118.568V127.64C200.809 127.768 200.777 127.864 200.713 127.928C200.665 127.976 200.577 128 200.449 128H199.129Z" fill="black"/>
</svg>
