<svg width="67" height="67" viewBox="0 0 67 67" fill="none" xmlns="http://www.w3.org/2000/svg">
<rect width="67" height="67" rx="33.5" fill="#FFD4D0"/>
<path d="M23.35 21H44.95C45.6925 21 46.3 21.6075 46.3 22.35V43.95L22 43.923V22.35C22 21.6075 22.6075 21 23.35 21ZM28.75 22.35L26.05 26.4H27.4L30.1 22.35H28.75ZM34.15 22.35H32.8L30.1 26.4H31.45L34.15 22.35ZM38.2 22.35H36.85L34.15 26.4H35.5L38.2 22.35ZM42.25 22.35H40.9L38.2 26.4H39.55L42.25 22.35ZM43.6 41.25V27.75H24.7V41.25H43.6ZM31.45 29.1L39.55 34.5L31.45 39.9V29.1Z" fill="#32397C"/>
</svg>
